<?xml version="1.0" encoding="UTF-8" standalone="no"?>
<!DOCTYPE svg PUBLIC "-//W3C//DTD SVG 1.1//EN"
 "http://www.w3.org/Graphics/SVG/1.1/DTD/svg11.dtd">
<!-- Generated by graphviz version 2.38.0 (20140413.2041)
 -->
<!-- Title: Framework/include/QualityControl/Activity.h Pages: 1 -->
<svg width="2747pt" height="307pt"
 viewBox="0.00 0.00 2746.50 307.00" xmlns="http://www.w3.org/2000/svg" xmlns:xlink="http://www.w3.org/1999/xlink">
<g id="graph0" class="graph" transform="scale(1 1) rotate(0) translate(4 303)">
<title>Framework/include/QualityControl/Activity.h</title>
<!-- Node1 -->
<g id="node1" class="node"><title>Node1</title>
<polygon fill="#bfbfbf" stroke="black" points="1846,-268.5 1846,-298.5 1979,-298.5 1979,-268.5 1846,-268.5"/>
<text text-anchor="start" x="1854" y="-286.5" font-family="Helvetica,sans-Serif" font-size="10.00">Framework/include/Quality</text>
<text text-anchor="middle" x="1912.5" y="-275.5" font-family="Helvetica,sans-Serif" font-size="10.00">Control/Activity.h</text>
</g>
<!-- Node2 -->
<g id="node2" class="node"><title>Node2</title>
<g id="a_node2"><a xlink:href="TaskInterface_8h.html" target="_top" xlink:title="Framework/include/Quality\lControl/TaskInterface.h">
<polygon fill="none" stroke="black" points="1846,-201.5 1846,-231.5 1979,-231.5 1979,-201.5 1846,-201.5"/>
<text text-anchor="start" x="1854" y="-219.5" font-family="Helvetica,sans-Serif" font-size="10.00">Framework/include/Quality</text>
<text text-anchor="middle" x="1912.5" y="-208.5" font-family="Helvetica,sans-Serif" font-size="10.00">Control/TaskInterface.h</text>
</a>
</g>
</g>
<!-- Node1&#45;&gt;Node2 -->
<g id="edge1" class="edge"><title>Node1&#45;&gt;Node2</title>
<path fill="none" stroke="midnightblue" d="M1912.5,-258.108C1912.5,-249.154 1912.5,-239.323 1912.5,-231.577"/>
<polygon fill="midnightblue" stroke="midnightblue" points="1909,-258.396 1912.5,-268.396 1916,-258.396 1909,-258.396"/>
</g>
<!-- Node3 -->
<g id="node3" class="node"><title>Node3</title>
<g id="a_node3"><a xlink:href="QcInfoLogger_8h.html" target="_top" xlink:title="Framework/include/Quality\lControl/QcInfoLogger.h">
<polygon fill="none" stroke="black" points="1572,-134.5 1572,-164.5 1705,-164.5 1705,-134.5 1572,-134.5"/>
<text text-anchor="start" x="1580" y="-152.5" font-family="Helvetica,sans-Serif" font-size="10.00">Framework/include/Quality</text>
<text text-anchor="middle" x="1638.5" y="-141.5" font-family="Helvetica,sans-Serif" font-size="10.00">Control/QcInfoLogger.h</text>
</a>
</g>
</g>
<!-- Node2&#45;&gt;Node3 -->
<g id="edge2" class="edge"><title>Node2&#45;&gt;Node3</title>
<path fill="none" stroke="midnightblue" d="M1843.45,-199.119C1798.61,-188.483 1740.78,-174.763 1697.98,-164.611"/>
<polygon fill="midnightblue" stroke="midnightblue" points="1842.85,-202.573 1853.38,-201.476 1844.46,-195.762 1842.85,-202.573"/>
</g>
<!-- Node12 -->
<g id="node12" class="node"><title>Node12</title>
<g id="a_node12"><a xlink:href="testQCTask_8cxx.html" target="_top" xlink:title="Framework/test/testQCTask.cxx">
<polygon fill="none" stroke="black" points="1433.5,-6 1433.5,-25 1593.5,-25 1593.5,-6 1433.5,-6"/>
<text text-anchor="middle" x="1513.5" y="-13" font-family="Helvetica,sans-Serif" font-size="10.00">Framework/test/testQCTask.cxx</text>
</a>
</g>
</g>
<!-- Node2&#45;&gt;Node12 -->
<g id="edge35" class="edge"><title>Node2&#45;&gt;Node12</title>
<path fill="none" stroke="midnightblue" d="M1835.63,-212.995C1599.07,-204.503 893.866,-173.048 826.5,-98 817.297,-87.747 817.097,-77.0701 826.5,-67 866.405,-24.2644 1293.21,-35.6066 1351.5,-31 1378.1,-28.8977 1407.14,-26.3716 1433.19,-24.0211"/>
<polygon fill="midnightblue" stroke="midnightblue" points="1835.75,-216.501 1845.86,-213.358 1835.99,-209.506 1835.75,-216.501"/>
</g>
<!-- Node18 -->
<g id="node18" class="node"><title>Node18</title>
<g id="a_node18"><a xlink:href="DatabaseFactory_8cxx.html" target="_top" xlink:title="Framework/src/DatabaseFactory.cxx">
<polygon fill="none" stroke="black" points="1826,-73 1826,-92 2005,-92 2005,-73 1826,-73"/>
<text text-anchor="middle" x="1915.5" y="-80" font-family="Helvetica,sans-Serif" font-size="10.00">Framework/src/DatabaseFactory.cxx</text>
</a>
</g>
</g>
<!-- Node2&#45;&gt;Node18 -->
<g id="edge33" class="edge"><title>Node2&#45;&gt;Node18</title>
<path fill="none" stroke="midnightblue" d="M1857.46,-196.864C1843.27,-189.28 1829.7,-178.922 1821.5,-165 1814.51,-153.127 1814.43,-145.825 1821.5,-134 1834.43,-112.376 1860.15,-99.4753 1881.42,-92.1319"/>
<polygon fill="midnightblue" stroke="midnightblue" points="1856.31,-200.197 1866.83,-201.457 1859.39,-193.912 1856.31,-200.197"/>
</g>
<!-- Node28 -->
<g id="node28" class="node"><title>Node28</title>
<g id="a_node28"><a xlink:href="TaskRunner_8h.html" target="_top" xlink:title="Framework/include/Quality\lControl/TaskRunner.h">
<polygon fill="none" stroke="black" points="321,-67.5 321,-97.5 454,-97.5 454,-67.5 321,-67.5"/>
<text text-anchor="start" x="329" y="-85.5" font-family="Helvetica,sans-Serif" font-size="10.00">Framework/include/Quality</text>
<text text-anchor="middle" x="387.5" y="-74.5" font-family="Helvetica,sans-Serif" font-size="10.00">Control/TaskRunner.h</text>
</a>
</g>
</g>
<!-- Node2&#45;&gt;Node28 -->
<g id="edge28" class="edge"><title>Node2&#45;&gt;Node28</title>
<path fill="none" stroke="midnightblue" d="M1835.73,-216.069C1653.93,-216.539 1183.1,-212.611 793.5,-165 667.012,-149.542 521.046,-116.419 443.213,-97.5037"/>
<polygon fill="midnightblue" stroke="midnightblue" points="1836,-219.568 1845.99,-216.037 1835.98,-212.568 1836,-219.568"/>
</g>
<!-- Node31 -->
<g id="node31" class="node"><title>Node31</title>
<g id="a_node31"><a xlink:href="TaskInterface_8cxx.html" target="_top" xlink:title="Framework/src/TaskInterface.cxx">
<polygon fill="none" stroke="black" points="1830.5,-140 1830.5,-159 1994.5,-159 1994.5,-140 1830.5,-140"/>
<text text-anchor="middle" x="1912.5" y="-147" font-family="Helvetica,sans-Serif" font-size="10.00">Framework/src/TaskInterface.cxx</text>
</a>
</g>
</g>
<!-- Node2&#45;&gt;Node31 -->
<g id="edge34" class="edge"><title>Node2&#45;&gt;Node31</title>
<path fill="none" stroke="midnightblue" d="M1912.5,-191.25C1912.5,-180.017 1912.5,-167.377 1912.5,-159.195"/>
<polygon fill="midnightblue" stroke="midnightblue" points="1909,-191.396 1912.5,-201.396 1916,-191.396 1909,-191.396"/>
</g>
<!-- Node32 -->
<g id="node32" class="node"><title>Node32</title>
<g id="a_node32"><a xlink:href="DaqTask_8h.html" target="_top" xlink:title="Modules/Daq/include\l/Daq/DaqTask.h">
<polygon fill="none" stroke="black" points="2174.5,-134.5 2174.5,-164.5 2282.5,-164.5 2282.5,-134.5 2174.5,-134.5"/>
<text text-anchor="start" x="2182.5" y="-152.5" font-family="Helvetica,sans-Serif" font-size="10.00">Modules/Daq/include</text>
<text text-anchor="middle" x="2228.5" y="-141.5" font-family="Helvetica,sans-Serif" font-size="10.00">/Daq/DaqTask.h</text>
</a>
</g>
</g>
<!-- Node2&#45;&gt;Node32 -->
<g id="edge36" class="edge"><title>Node2&#45;&gt;Node32</title>
<path fill="none" stroke="midnightblue" d="M1989.08,-200.238C2038.35,-190.351 2103.74,-177.106 2161.5,-165 2165.69,-164.121 2170.03,-163.203 2174.39,-162.273"/>
<polygon fill="midnightblue" stroke="midnightblue" points="1988.25,-196.834 1979.13,-202.232 1989.62,-203.698 1988.25,-196.834"/>
</g>
<!-- Node33 -->
<g id="node33" class="node"><title>Node33</title>
<g id="a_node33"><a xlink:href="BenchmarkTask_8h.html" target="_top" xlink:title="Modules/Example/include\l/Example/BenchmarkTask.h">
<polygon fill="none" stroke="black" points="2012.5,-134.5 2012.5,-164.5 2152.5,-164.5 2152.5,-134.5 2012.5,-134.5"/>
<text text-anchor="start" x="2020.5" y="-152.5" font-family="Helvetica,sans-Serif" font-size="10.00">Modules/Example/include</text>
<text text-anchor="middle" x="2082.5" y="-141.5" font-family="Helvetica,sans-Serif" font-size="10.00">/Example/BenchmarkTask.h</text>
</a>
</g>
</g>
<!-- Node2&#45;&gt;Node33 -->
<g id="edge39" class="edge"><title>Node2&#45;&gt;Node33</title>
<path fill="none" stroke="midnightblue" d="M1958.74,-197.819C1986.07,-187.371 2020.19,-174.323 2045.68,-164.577"/>
<polygon fill="midnightblue" stroke="midnightblue" points="1957.48,-194.555 1949.39,-201.396 1959.98,-201.094 1957.48,-194.555"/>
</g>
<!-- Node34 -->
<g id="node34" class="node"><title>Node34</title>
<g id="a_node34"><a xlink:href="ExampleTask_8h.html" target="_top" xlink:title="Modules/Example/include\l/Example/ExampleTask.h">
<polygon fill="none" stroke="black" points="2324,-134.5 2324,-164.5 2453,-164.5 2453,-134.5 2324,-134.5"/>
<text text-anchor="start" x="2332" y="-152.5" font-family="Helvetica,sans-Serif" font-size="10.00">Modules/Example/include</text>
<text text-anchor="middle" x="2388.5" y="-141.5" font-family="Helvetica,sans-Serif" font-size="10.00">/Example/ExampleTask.h</text>
</a>
</g>
</g>
<!-- Node2&#45;&gt;Node34 -->
<g id="edge41" class="edge"><title>Node2&#45;&gt;Node34</title>
<path fill="none" stroke="midnightblue" d="M1989.34,-205.626C2065.94,-195.697 2186.92,-179.782 2291.5,-165 2301.95,-163.522 2313.03,-161.91 2323.82,-160.315"/>
<polygon fill="midnightblue" stroke="midnightblue" points="1988.76,-202.171 1979.29,-206.927 1989.66,-209.113 1988.76,-202.171"/>
</g>
<!-- Node35 -->
<g id="node35" class="node"><title>Node35</title>
<g id="a_node35"><a xlink:href="SkeletonTask_8h.html" target="_top" xlink:title="Modules/Skeleton/include\l/Skeleton/SkeletonTask.h">
<polygon fill="none" stroke="black" points="2482,-134.5 2482,-164.5 2611,-164.5 2611,-134.5 2482,-134.5"/>
<text text-anchor="start" x="2490" y="-152.5" font-family="Helvetica,sans-Serif" font-size="10.00">Modules/Skeleton/include</text>
<text text-anchor="middle" x="2546.5" y="-141.5" font-family="Helvetica,sans-Serif" font-size="10.00">/Skeleton/SkeletonTask.h</text>
</a>
</g>
</g>
<!-- Node2&#45;&gt;Node35 -->
<g id="edge45" class="edge"><title>Node2&#45;&gt;Node35</title>
<path fill="none" stroke="midnightblue" d="M1989.02,-210.337C2095.29,-202.738 2293.48,-187.025 2461.5,-165 2468.03,-164.144 2474.83,-163.154 2481.61,-162.101"/>
<polygon fill="midnightblue" stroke="midnightblue" points="1988.75,-206.847 1979.02,-211.047 1989.25,-213.829 1988.75,-206.847"/>
</g>
<!-- Node4 -->
<g id="node4" class="node"><title>Node4</title>
<g id="a_node4"><a xlink:href="Checker_8h.html" target="_top" xlink:title="Framework/include/Quality\lControl/Checker.h">
<polygon fill="none" stroke="black" points="646,-67.5 646,-97.5 779,-97.5 779,-67.5 646,-67.5"/>
<text text-anchor="start" x="654" y="-85.5" font-family="Helvetica,sans-Serif" font-size="10.00">Framework/include/Quality</text>
<text text-anchor="middle" x="712.5" y="-74.5" font-family="Helvetica,sans-Serif" font-size="10.00">Control/Checker.h</text>
</a>
</g>
</g>
<!-- Node3&#45;&gt;Node4 -->
<g id="edge3" class="edge"><title>Node3&#45;&gt;Node4</title>
<path fill="none" stroke="midnightblue" d="M1561.73,-145.376C1417.48,-139.139 1096.16,-123.509 826.5,-98 811.107,-96.5439 794.586,-94.6405 779.03,-92.6941"/>
<polygon fill="midnightblue" stroke="midnightblue" points="1561.67,-148.876 1571.81,-145.809 1561.97,-141.883 1561.67,-148.876"/>
</g>
<!-- Node10 -->
<g id="node10" class="node"><title>Node10</title>
<g id="a_node10"><a xlink:href="TaskFactory_8h.html" target="_top" xlink:title="Framework/include/Quality\lControl/TaskFactory.h">
<polygon fill="none" stroke="black" points="1675,-67.5 1675,-97.5 1808,-97.5 1808,-67.5 1675,-67.5"/>
<text text-anchor="start" x="1683" y="-85.5" font-family="Helvetica,sans-Serif" font-size="10.00">Framework/include/Quality</text>
<text text-anchor="middle" x="1741.5" y="-74.5" font-family="Helvetica,sans-Serif" font-size="10.00">Control/TaskFactory.h</text>
</a>
</g>
</g>
<!-- Node3&#45;&gt;Node10 -->
<g id="edge9" class="edge"><title>Node3&#45;&gt;Node10</title>
<path fill="none" stroke="midnightblue" d="M1669.38,-129.015C1685.4,-118.9 1704.63,-106.77 1719.19,-97.5765"/>
<polygon fill="midnightblue" stroke="midnightblue" points="1667.44,-126.099 1660.85,-134.396 1671.17,-132.019 1667.44,-126.099"/>
</g>
<!-- Node11 -->
<g id="node11" class="node"><title>Node11</title>
<g id="a_node11"><a xlink:href="TaskRunner_8cxx.html" target="_top" xlink:title="Framework/src/TaskRunner.cxx">
<polygon fill="none" stroke="black" points="476,-6 476,-25 633,-25 633,-6 476,-6"/>
<text text-anchor="middle" x="554.5" y="-13" font-family="Helvetica,sans-Serif" font-size="10.00">Framework/src/TaskRunner.cxx</text>
</a>
</g>
</g>
<!-- Node3&#45;&gt;Node11 -->
<g id="edge22" class="edge"><title>Node3&#45;&gt;Node11</title>
<path fill="none" stroke="midnightblue" d="M1561.69,-147.782C1341.78,-145.289 720.197,-135.011 636.5,-98 600.52,-82.0898 571.568,-42.7683 559.972,-25.2103"/>
<polygon fill="midnightblue" stroke="midnightblue" points="1561.81,-151.284 1571.85,-147.895 1561.89,-144.284 1561.81,-151.284"/>
</g>
<!-- Node3&#45;&gt;Node18 -->
<g id="edge17" class="edge"><title>Node3&#45;&gt;Node18</title>
<path fill="none" stroke="midnightblue" d="M1708.18,-132.149C1762.54,-119.394 1835.85,-102.191 1879.15,-92.0287"/>
<polygon fill="midnightblue" stroke="midnightblue" points="1707.2,-128.784 1698.26,-134.476 1708.8,-135.599 1707.2,-128.784"/>
</g>
<!-- Node19 -->
<g id="node19" class="node"><title>Node19</title>
<g id="a_node19"><a xlink:href="InformationService_8cxx.html" target="_top" xlink:title="Framework/src/Information\lService.cxx">
<polygon fill="none" stroke="black" points="1331.5,-67.5 1331.5,-97.5 1465.5,-97.5 1465.5,-67.5 1331.5,-67.5"/>
<text text-anchor="start" x="1339.5" y="-85.5" font-family="Helvetica,sans-Serif" font-size="10.00">Framework/src/Information</text>
<text text-anchor="middle" x="1398.5" y="-74.5" font-family="Helvetica,sans-Serif" font-size="10.00">Service.cxx</text>
</a>
</g>
</g>
<!-- Node3&#45;&gt;Node19 -->
<g id="edge18" class="edge"><title>Node3&#45;&gt;Node19</title>
<path fill="none" stroke="midnightblue" d="M1577.02,-131.85C1537.89,-121.252 1487.77,-107.677 1450.6,-97.6109"/>
<polygon fill="midnightblue" stroke="midnightblue" points="1576.15,-135.24 1586.72,-134.476 1577.98,-128.483 1576.15,-135.24"/>
</g>
<!-- Node20 -->
<g id="node20" class="node"><title>Node20</title>
<g id="a_node20"><a xlink:href="MySqlDatabase_8cxx.html" target="_top" xlink:title="Framework/src/MySqlDatabase.cxx">
<polygon fill="none" stroke="black" points="1484,-73 1484,-92 1657,-92 1657,-73 1484,-73"/>
<text text-anchor="middle" x="1570.5" y="-80" font-family="Helvetica,sans-Serif" font-size="10.00">Framework/src/MySqlDatabase.cxx</text>
</a>
</g>
</g>
<!-- Node3&#45;&gt;Node20 -->
<g id="edge19" class="edge"><title>Node3&#45;&gt;Node20</title>
<path fill="none" stroke="midnightblue" d="M1616.36,-127.335C1603.87,-115.401 1588.95,-101.136 1579.6,-92.1945"/>
<polygon fill="midnightblue" stroke="midnightblue" points="1614.1,-130.016 1623.75,-134.396 1618.93,-124.956 1614.1,-130.016"/>
</g>
<!-- Node21 -->
<g id="node21" class="node"><title>Node21</title>
<g id="a_node21"><a xlink:href="ObjectsManager_8cxx.html" target="_top" xlink:title="Framework/src/ObjectsManager.cxx">
<polygon fill="none" stroke="black" points="836,-73 836,-92 1011,-92 1011,-73 836,-73"/>
<text text-anchor="middle" x="923.5" y="-80" font-family="Helvetica,sans-Serif" font-size="10.00">Framework/src/ObjectsManager.cxx</text>
</a>
</g>
</g>
<!-- Node3&#45;&gt;Node21 -->
<g id="edge20" class="edge"><title>Node3&#45;&gt;Node21</title>
<path fill="none" stroke="midnightblue" d="M1561.3,-143.856C1444.17,-136.432 1214.62,-120.414 1020.5,-98 1006.04,-96.33 990.416,-94.1582 976.022,-92.0059"/>
<polygon fill="midnightblue" stroke="midnightblue" points="1561.4,-147.368 1571.6,-144.504 1561.84,-140.382 1561.4,-147.368"/>
</g>
<!-- Node22 -->
<g id="node22" class="node"><title>Node22</title>
<g id="a_node22"><a xlink:href="RepositoryBenchmark_8cxx.html" target="_top" xlink:title="Framework/src/Repository\lBenchmark.cxx">
<polygon fill="none" stroke="black" points="1029.5,-67.5 1029.5,-97.5 1161.5,-97.5 1161.5,-67.5 1029.5,-67.5"/>
<text text-anchor="start" x="1037.5" y="-85.5" font-family="Helvetica,sans-Serif" font-size="10.00">Framework/src/Repository</text>
<text text-anchor="middle" x="1095.5" y="-74.5" font-family="Helvetica,sans-Serif" font-size="10.00">Benchmark.cxx</text>
</a>
</g>
</g>
<!-- Node3&#45;&gt;Node22 -->
<g id="edge21" class="edge"><title>Node3&#45;&gt;Node22</title>
<path fill="none" stroke="midnightblue" d="M1561.46,-142.174C1468.5,-134.082 1307.59,-118.612 1170.5,-98 1167.61,-97.5662 1164.67,-97.0999 1161.7,-96.6098"/>
<polygon fill="midnightblue" stroke="midnightblue" points="1561.36,-145.678 1571.62,-143.052 1561.96,-138.704 1561.36,-145.678"/>
</g>
<!-- Node23 -->
<g id="node23" class="node"><title>Node23</title>
<g id="a_node23"><a xlink:href="testQcInfoLogger_8cxx.html" target="_top" xlink:title="Framework/test/testQcInfo\lLogger.cxx">
<polygon fill="none" stroke="black" points="1179.5,-67.5 1179.5,-97.5 1313.5,-97.5 1313.5,-67.5 1179.5,-67.5"/>
<text text-anchor="start" x="1187.5" y="-85.5" font-family="Helvetica,sans-Serif" font-size="10.00">Framework/test/testQcInfo</text>
<text text-anchor="middle" x="1246.5" y="-74.5" font-family="Helvetica,sans-Serif" font-size="10.00">Logger.cxx</text>
</a>
</g>
</g>
<!-- Node3&#45;&gt;Node23 -->
<g id="edge23" class="edge"><title>Node3&#45;&gt;Node23</title>
<path fill="none" stroke="midnightblue" d="M1561.8,-136.903C1497.74,-127.059 1404.05,-112.293 1322.5,-98 1319.59,-97.4899 1316.62,-96.9603 1313.62,-96.4185"/>
<polygon fill="midnightblue" stroke="midnightblue" points="1561.41,-140.383 1571.82,-138.44 1562.47,-133.464 1561.41,-140.383"/>
</g>
<!-- Node24 -->
<g id="node24" class="node"><title>Node24</title>
<g id="a_node24"><a xlink:href="DaqTask_8cxx.html" target="_top" xlink:title="Modules/Daq/src/DaqTask.cxx">
<polygon fill="none" stroke="black" points="2152.5,-73 2152.5,-92 2304.5,-92 2304.5,-73 2152.5,-73"/>
<text text-anchor="middle" x="2228.5" y="-80" font-family="Helvetica,sans-Serif" font-size="10.00">Modules/Daq/src/DaqTask.cxx</text>
</a>
</g>
</g>
<!-- Node3&#45;&gt;Node24 -->
<g id="edge24" class="edge"><title>Node3&#45;&gt;Node24</title>
<path fill="none" stroke="midnightblue" d="M1715.32,-142.418C1814.31,-134.211 1991.61,-118.256 2142.5,-98 2155.11,-96.3077 2168.7,-94.1649 2181.27,-92.0493"/>
<polygon fill="midnightblue" stroke="midnightblue" points="1714.79,-138.95 1705.11,-143.26 1715.37,-145.926 1714.79,-138.95"/>
</g>
<!-- Node25 -->
<g id="node25" class="node"><title>Node25</title>
<g id="a_node25"><a xlink:href="BenchmarkTask_8cxx.html" target="_top" xlink:title="Modules/Example/src\l/BenchmarkTask.cxx">
<polygon fill="none" stroke="black" points="2023,-67.5 2023,-97.5 2134,-97.5 2134,-67.5 2023,-67.5"/>
<text text-anchor="start" x="2031" y="-85.5" font-family="Helvetica,sans-Serif" font-size="10.00">Modules/Example/src</text>
<text text-anchor="middle" x="2078.5" y="-74.5" font-family="Helvetica,sans-Serif" font-size="10.00">/BenchmarkTask.cxx</text>
</a>
</g>
</g>
<!-- Node3&#45;&gt;Node25 -->
<g id="edge25" class="edge"><title>Node3&#45;&gt;Node25</title>
<path fill="none" stroke="midnightblue" d="M1715.12,-140.128C1791.12,-131.367 1910.76,-116.342 2013.5,-98 2016.57,-97.4513 2019.72,-96.8571 2022.89,-96.233"/>
<polygon fill="midnightblue" stroke="midnightblue" points="1714.69,-136.655 1705.15,-141.27 1715.49,-143.609 1714.69,-136.655"/>
</g>
<!-- Node26 -->
<g id="node26" class="node"><title>Node26</title>
<g id="a_node26"><a xlink:href="ExampleTask_8cxx.html" target="_top" xlink:title="Modules/Example/src\l/ExampleTask.cxx">
<polygon fill="none" stroke="black" points="2323,-67.5 2323,-97.5 2434,-97.5 2434,-67.5 2323,-67.5"/>
<text text-anchor="start" x="2331" y="-85.5" font-family="Helvetica,sans-Serif" font-size="10.00">Modules/Example/src</text>
<text text-anchor="middle" x="2378.5" y="-74.5" font-family="Helvetica,sans-Serif" font-size="10.00">/ExampleTask.cxx</text>
</a>
</g>
</g>
<!-- Node3&#45;&gt;Node26 -->
<g id="edge26" class="edge"><title>Node3&#45;&gt;Node26</title>
<path fill="none" stroke="midnightblue" d="M1715.8,-142.272C1748.41,-139.67 1786.8,-136.644 1821.5,-134 2040.12,-117.341 2096.59,-129.954 2313.5,-98 2316.59,-97.545 2319.75,-97.0247 2322.93,-96.458"/>
<polygon fill="midnightblue" stroke="midnightblue" points="1715.11,-138.815 1705.42,-143.1 1715.67,-145.793 1715.11,-138.815"/>
</g>
<!-- Node27 -->
<g id="node27" class="node"><title>Node27</title>
<g id="a_node27"><a xlink:href="SkeletonTask_8cxx.html" target="_top" xlink:title="Modules/Skeleton/src\l/SkeletonTask.cxx">
<polygon fill="none" stroke="black" points="2491,-67.5 2491,-97.5 2602,-97.5 2602,-67.5 2491,-67.5"/>
<text text-anchor="start" x="2499" y="-85.5" font-family="Helvetica,sans-Serif" font-size="10.00">Modules/Skeleton/src</text>
<text text-anchor="middle" x="2546.5" y="-74.5" font-family="Helvetica,sans-Serif" font-size="10.00">/SkeletonTask.cxx</text>
</a>
</g>
</g>
<!-- Node3&#45;&gt;Node27 -->
<g id="edge27" class="edge"><title>Node3&#45;&gt;Node27</title>
<path fill="none" stroke="midnightblue" d="M1715.78,-142.013C1748.39,-139.369 1786.78,-136.381 1821.5,-134 2097.32,-115.08 2167.37,-125.11 2442.5,-98 2458.19,-96.4537 2475.15,-94.2969 2490.74,-92.1187"/>
<polygon fill="midnightblue" stroke="midnightblue" points="1715.08,-138.557 1705.4,-142.858 1715.65,-145.534 1715.08,-138.557"/>
</g>
<!-- Node5 -->
<g id="node5" class="node"><title>Node5</title>
<g id="a_node5"><a xlink:href="Checker_8cxx.html" target="_top" xlink:title="Framework/src/Checker.cxx">
<polygon fill="none" stroke="black" points="317.5,-6 317.5,-25 457.5,-25 457.5,-6 317.5,-6"/>
<text text-anchor="middle" x="387.5" y="-13" font-family="Helvetica,sans-Serif" font-size="10.00">Framework/src/Checker.cxx</text>
</a>
</g>
</g>
<!-- Node4&#45;&gt;Node5 -->
<g id="edge4" class="edge"><title>Node4&#45;&gt;Node5</title>
<path fill="none" stroke="midnightblue" d="M635.867,-66.1734C571.659,-53.3319 482.358,-35.4715 430.171,-25.0341"/>
<polygon fill="midnightblue" stroke="midnightblue" points="635.455,-69.6602 645.947,-68.1894 636.828,-62.7962 635.455,-69.6602"/>
</g>
<!-- Node6 -->
<g id="node6" class="node"><title>Node6</title>
<g id="a_node6"><a xlink:href="CheckerFactory_8cxx.html" target="_top" xlink:title="Framework/src/CheckerFactory.cxx">
<polygon fill="none" stroke="black" points="1009,-6 1009,-25 1182,-25 1182,-6 1009,-6"/>
<text text-anchor="middle" x="1095.5" y="-13" font-family="Helvetica,sans-Serif" font-size="10.00">Framework/src/CheckerFactory.cxx</text>
</a>
</g>
</g>
<!-- Node4&#45;&gt;Node6 -->
<g id="edge5" class="edge"><title>Node4&#45;&gt;Node6</title>
<path fill="none" stroke="midnightblue" d="M789.105,-67.7631C790.582,-67.5059 792.048,-67.2513 793.5,-67 881.105,-51.8348 983.143,-34.9303 1043.36,-25.032"/>
<polygon fill="midnightblue" stroke="midnightblue" points="788.481,-64.319 779.234,-69.4913 789.688,-71.2141 788.481,-64.319"/>
</g>
<!-- Node7 -->
<g id="node7" class="node"><title>Node7</title>
<g id="a_node7"><a xlink:href="runBasic_8cxx.html" target="_top" xlink:title="This is an executable showing QC Task&#39;s usage in Data Processing Layer. ">
<polygon fill="none" stroke="black" points="1200.5,-6 1200.5,-25 1342.5,-25 1342.5,-6 1200.5,-6"/>
<text text-anchor="middle" x="1271.5" y="-13" font-family="Helvetica,sans-Serif" font-size="10.00">Framework/src/runBasic.cxx</text>
</a>
</g>
</g>
<!-- Node4&#45;&gt;Node7 -->
<g id="edge6" class="edge"><title>Node4&#45;&gt;Node7</title>
<path fill="none" stroke="midnightblue" d="M789.082,-67.6117C790.566,-67.4007 792.04,-67.1965 793.5,-67 969.085,-43.3683 1014.91,-54.6317 1190.5,-31 1202.68,-29.3612 1215.81,-27.1871 1227.89,-25.0223"/>
<polygon fill="midnightblue" stroke="midnightblue" points="788.546,-64.1528 779.173,-69.0922 789.581,-71.0759 788.546,-64.1528"/>
</g>
<!-- Node8 -->
<g id="node8" class="node"><title>Node8</title>
<g id="a_node8"><a xlink:href="runMergerTest_8cxx.html" target="_top" xlink:title="This is DPL workflow to see HistoMerger in action. ">
<polygon fill="none" stroke="black" points="651,-6 651,-25 818,-25 818,-6 651,-6"/>
<text text-anchor="middle" x="734.5" y="-13" font-family="Helvetica,sans-Serif" font-size="10.00">Framework/src/runMergerTest.cxx</text>
</a>
</g>
</g>
<!-- Node4&#45;&gt;Node8 -->
<g id="edge7" class="edge"><title>Node4&#45;&gt;Node8</title>
<path fill="none" stroke="midnightblue" d="M720.59,-57.5965C724.421,-46.2781 728.759,-33.4611 731.557,-25.1945"/>
<polygon fill="midnightblue" stroke="midnightblue" points="717.164,-56.8017 717.274,-67.396 723.795,-59.0459 717.164,-56.8017"/>
</g>
<!-- Node9 -->
<g id="node9" class="node"><title>Node9</title>
<g id="a_node9"><a xlink:href="runReadout_8cxx.html" target="_top" xlink:title="This is an executable showing QC Task&#39;s usage in Data Processing Layer with Readout as external data ...">
<polygon fill="none" stroke="black" points="836.5,-6 836.5,-25 990.5,-25 990.5,-6 836.5,-6"/>
<text text-anchor="middle" x="913.5" y="-13" font-family="Helvetica,sans-Serif" font-size="10.00">Framework/src/runReadout.cxx</text>
</a>
</g>
</g>
<!-- Node4&#45;&gt;Node9 -->
<g id="edge8" class="edge"><title>Node4&#45;&gt;Node9</title>
<path fill="none" stroke="midnightblue" d="M765.784,-64.2688C804.95,-51.6034 856.495,-34.9344 887.194,-25.007"/>
<polygon fill="midnightblue" stroke="midnightblue" points="764.552,-60.9888 756.114,-67.396 766.706,-67.6492 764.552,-60.9888"/>
</g>
<!-- Node10&#45;&gt;Node11 -->
<g id="edge10" class="edge"><title>Node10&#45;&gt;Node11</title>
<path fill="none" stroke="midnightblue" d="M1664.77,-67.0622C1211.2,-17.0567 1091.29,-76.1957 641.5,-31 627.635,-29.6069 612.635,-27.372 599.057,-25.0698"/>
<polygon fill="midnightblue" stroke="midnightblue" points="1664.53,-70.5579 1674.86,-68.1869 1665.31,-63.601 1664.53,-70.5579"/>
</g>
<!-- Node10&#45;&gt;Node12 -->
<g id="edge11" class="edge"><title>Node10&#45;&gt;Node12</title>
<path fill="none" stroke="midnightblue" d="M1682.47,-64.6705C1637.91,-51.967 1578.62,-35.064 1543.42,-25.0287"/>
<polygon fill="midnightblue" stroke="midnightblue" points="1681.73,-68.1002 1692.31,-67.476 1683.65,-61.3684 1681.73,-68.1002"/>
</g>
<!-- Node13 -->
<g id="node13" class="node"><title>Node13</title>
<g id="a_node13"><a xlink:href="testQcDaq_8cxx.html" target="_top" xlink:title="Modules/Daq/test/testQcDaq.cxx">
<polygon fill="none" stroke="black" points="2010,-6 2010,-25 2173,-25 2173,-6 2010,-6"/>
<text text-anchor="middle" x="2091.5" y="-13" font-family="Helvetica,sans-Serif" font-size="10.00">Modules/Daq/test/testQcDaq.cxx</text>
</a>
</g>
</g>
<!-- Node10&#45;&gt;Node13 -->
<g id="edge12" class="edge"><title>Node10&#45;&gt;Node13</title>
<path fill="none" stroke="midnightblue" d="M1817.99,-66.7272C1903.25,-50.6905 1991.51,-34.5998 2044.27,-25.0337"/>
<polygon fill="midnightblue" stroke="midnightblue" points="1817.33,-63.2904 1808.15,-68.5807 1818.63,-70.1695 1817.33,-63.2904"/>
</g>
<!-- Node14 -->
<g id="node14" class="node"><title>Node14</title>
<polygon fill="none" stroke="#bfbfbf" points="2468.5,-0.5 2468.5,-30.5 2582.5,-30.5 2582.5,-0.5 2468.5,-0.5"/>
<text text-anchor="start" x="2476.5" y="-18.5" font-family="Helvetica,sans-Serif" font-size="10.00">Modules/Example/test</text>
<text text-anchor="middle" x="2525.5" y="-7.5" font-family="Helvetica,sans-Serif" font-size="10.00">/testFactory.cxx</text>
</g>
<!-- Node10&#45;&gt;Node14 -->
<g id="edge13" class="edge"><title>Node10&#45;&gt;Node14</title>
<path fill="none" stroke="midnightblue" d="M1818.32,-66.8772C2081.11,-34.3348 2151.08,-55.4134 2411.5,-31 2430.07,-29.2589 2450.29,-26.8554 2468.46,-24.5055"/>
<polygon fill="midnightblue" stroke="midnightblue" points="1817.57,-63.4433 1808.08,-68.1594 1818.44,-70.389 1817.57,-63.4433"/>
</g>
<!-- Node15 -->
<g id="node15" class="node"><title>Node15</title>
<g id="a_node15"><a xlink:href="testQcExample_8cxx.html" target="_top" xlink:title="Modules/Example/test\l/testQcExample.cxx">
<polygon fill="none" stroke="black" points="2288.5,-0.5 2288.5,-30.5 2402.5,-30.5 2402.5,-0.5 2288.5,-0.5"/>
<text text-anchor="start" x="2296.5" y="-18.5" font-family="Helvetica,sans-Serif" font-size="10.00">Modules/Example/test</text>
<text text-anchor="middle" x="2345.5" y="-7.5" font-family="Helvetica,sans-Serif" font-size="10.00">/testQcExample.cxx</text>
</a>
</g>
</g>
<!-- Node10&#45;&gt;Node15 -->
<g id="edge14" class="edge"><title>Node10&#45;&gt;Node15</title>
<path fill="none" stroke="midnightblue" d="M1818.19,-66.9357C1892.15,-57.6799 2167.3,-32.5798 2288.14,-21.6617"/>
<polygon fill="midnightblue" stroke="midnightblue" points="1817.55,-63.4899 1808.1,-68.2806 1818.47,-70.4285 1817.55,-63.4899"/>
</g>
<!-- Node16 -->
<g id="node16" class="node"><title>Node16</title>
<polygon fill="none" stroke="#bfbfbf" points="1684.5,-0.5 1684.5,-30.5 1798.5,-30.5 1798.5,-0.5 1684.5,-0.5"/>
<text text-anchor="start" x="1692.5" y="-18.5" font-family="Helvetica,sans-Serif" font-size="10.00">Modules/Skeleton/test</text>
<text text-anchor="middle" x="1741.5" y="-7.5" font-family="Helvetica,sans-Serif" font-size="10.00">/.testEmpty.cxx</text>
</g>
<!-- Node10&#45;&gt;Node16 -->
<g id="edge15" class="edge"><title>Node10&#45;&gt;Node16</title>
<path fill="none" stroke="midnightblue" d="M1741.5,-57.1081C1741.5,-48.1539 1741.5,-38.3227 1741.5,-30.5765"/>
<polygon fill="midnightblue" stroke="midnightblue" points="1738,-57.3959 1741.5,-67.396 1745,-57.396 1738,-57.3959"/>
</g>
<!-- Node17 -->
<g id="node17" class="node"><title>Node17</title>
<g id="a_node17"><a xlink:href="testQcSkeleton_8cxx.html" target="_top" xlink:title="Modules/Skeleton/test\l/testQcSkeleton.cxx">
<polygon fill="none" stroke="black" points="2624.5,-0.5 2624.5,-30.5 2738.5,-30.5 2738.5,-0.5 2624.5,-0.5"/>
<text text-anchor="start" x="2632.5" y="-18.5" font-family="Helvetica,sans-Serif" font-size="10.00">Modules/Skeleton/test</text>
<text text-anchor="middle" x="2681.5" y="-7.5" font-family="Helvetica,sans-Serif" font-size="10.00">/testQcSkeleton.cxx</text>
</a>
</g>
</g>
<!-- Node10&#45;&gt;Node17 -->
<g id="edge16" class="edge"><title>Node10&#45;&gt;Node17</title>
<path fill="none" stroke="midnightblue" d="M1818.03,-66.9346C2160.62,-26.928 2251.78,-66.1423 2591.5,-31 2602.2,-29.8926 2613.57,-28.3505 2624.5,-26.6827"/>
<polygon fill="midnightblue" stroke="midnightblue" points="1817.6,-63.461 1808.08,-68.1104 1818.42,-70.4126 1817.6,-63.461"/>
</g>
<!-- Node28&#45;&gt;Node5 -->
<g id="edge29" class="edge"><title>Node28&#45;&gt;Node5</title>
<path fill="none" stroke="midnightblue" d="M387.5,-57.2495C387.5,-46.017 387.5,-33.3767 387.5,-25.1945"/>
<polygon fill="midnightblue" stroke="midnightblue" points="384,-57.3959 387.5,-67.396 391,-57.396 384,-57.3959"/>
</g>
<!-- Node28&#45;&gt;Node11 -->
<g id="edge31" class="edge"><title>Node28&#45;&gt;Node11</title>
<path fill="none" stroke="midnightblue" d="M433.434,-63.6214C465.758,-51.0403 507.57,-34.7661 532.644,-25.007"/>
<polygon fill="midnightblue" stroke="midnightblue" points="431.786,-60.5071 423.737,-67.396 434.325,-67.0304 431.786,-60.5071"/>
</g>
<!-- Node29 -->
<g id="node29" class="node"><title>Node29</title>
<polygon fill="none" stroke="#bfbfbf" points="0,-0.5 0,-30.5 143,-30.5 143,-0.5 0,-0.5"/>
<text text-anchor="start" x="8" y="-18.5" font-family="Helvetica,sans-Serif" font-size="10.00">Framework/src/Infrastructure</text>
<text text-anchor="middle" x="71.5" y="-7.5" font-family="Helvetica,sans-Serif" font-size="10.00">Generator.cxx</text>
</g>
<!-- Node28&#45;&gt;Node29 -->
<g id="edge30" class="edge"><title>Node28&#45;&gt;Node29</title>
<path fill="none" stroke="midnightblue" d="M310.978,-65.7597C258.71,-55.0084 190.065,-40.8883 139.674,-30.5231"/>
<polygon fill="midnightblue" stroke="midnightblue" points="310.371,-69.208 320.871,-67.7946 311.781,-62.3515 310.371,-69.208"/>
</g>
<!-- Node30 -->
<g id="node30" class="node"><title>Node30</title>
<g id="a_node30"><a xlink:href="TaskRunnerFactory_8cxx.html" target="_top" xlink:title="Framework/src/TaskRunner\lFactory.cxx">
<polygon fill="none" stroke="black" points="161.5,-0.5 161.5,-30.5 299.5,-30.5 299.5,-0.5 161.5,-0.5"/>
<text text-anchor="start" x="169.5" y="-18.5" font-family="Helvetica,sans-Serif" font-size="10.00">Framework/src/TaskRunner</text>
<text text-anchor="middle" x="230.5" y="-7.5" font-family="Helvetica,sans-Serif" font-size="10.00">Factory.cxx</text>
</a>
</g>
</g>
<!-- Node28&#45;&gt;Node30 -->
<g id="edge32" class="edge"><title>Node28&#45;&gt;Node30</title>
<path fill="none" stroke="midnightblue" d="M344.13,-63.5442C319.007,-53.143 287.836,-40.238 264.5,-30.5765"/>
<polygon fill="midnightblue" stroke="midnightblue" points="342.855,-66.8045 353.433,-67.396 345.533,-60.3368 342.855,-66.8045"/>
</g>
<!-- Node32&#45;&gt;Node13 -->
<g id="edge38" class="edge"><title>Node32&#45;&gt;Node13</title>
<path fill="none" stroke="midnightblue" d="M2292.75,-137.475C2352.28,-126.606 2433.05,-109.937 2442.5,-98 2451.05,-87.1966 2451.52,-77.413 2442.5,-67 2425.09,-46.905 2271.34,-30.9347 2173.19,-22.6728"/>
<polygon fill="midnightblue" stroke="midnightblue" points="2291.86,-134.078 2282.65,-139.301 2293.11,-140.966 2291.86,-134.078"/>
</g>
<!-- Node32&#45;&gt;Node24 -->
<g id="edge37" class="edge"><title>Node32&#45;&gt;Node24</title>
<path fill="none" stroke="midnightblue" d="M2228.5,-124.25C2228.5,-113.017 2228.5,-100.377 2228.5,-92.1945"/>
<polygon fill="midnightblue" stroke="midnightblue" points="2225,-124.396 2228.5,-134.396 2232,-124.396 2225,-124.396"/>
</g>
<!-- Node33&#45;&gt;Node25 -->
<g id="edge40" class="edge"><title>Node33&#45;&gt;Node25</title>
<path fill="none" stroke="midnightblue" d="M2081.02,-124.403C2080.46,-115.37 2079.85,-105.408 2079.37,-97.5765"/>
<polygon fill="midnightblue" stroke="midnightblue" points="2077.52,-124.63 2081.63,-134.396 2084.51,-124.2 2077.52,-124.63"/>
</g>
<!-- Node34&#45;&gt;Node14 -->
<g id="edge43" class="edge"><title>Node34&#45;&gt;Node14</title>
<path fill="none" stroke="midnightblue" d="M2462.93,-135.171C2531.41,-122.553 2623.15,-104.588 2628.5,-98 2651.35,-69.8469 2606.08,-45.226 2568.5,-30.6099"/>
<polygon fill="midnightblue" stroke="midnightblue" points="2462.22,-131.744 2453.01,-136.992 2463.48,-138.629 2462.22,-131.744"/>
</g>
<!-- Node34&#45;&gt;Node15 -->
<g id="edge44" class="edge"><title>Node34&#45;&gt;Node15</title>
<path fill="none" stroke="midnightblue" d="M2463.01,-133.848C2525.63,-121.174 2605.73,-103.975 2610.5,-98 2619.09,-87.2312 2619.28,-77.6151 2610.5,-67 2597.34,-51.1004 2476.69,-33.1568 2402.8,-23.5201"/>
<polygon fill="midnightblue" stroke="midnightblue" points="2462.23,-130.434 2453.12,-135.841 2463.61,-137.296 2462.23,-130.434"/>
</g>
<!-- Node34&#45;&gt;Node26 -->
<g id="edge42" class="edge"><title>Node34&#45;&gt;Node26</title>
<path fill="none" stroke="midnightblue" d="M2384.79,-124.403C2383.4,-115.37 2381.87,-105.408 2380.67,-97.5765"/>
<polygon fill="midnightblue" stroke="midnightblue" points="2381.35,-125.044 2386.33,-134.396 2388.27,-123.98 2381.35,-125.044"/>
</g>
<!-- Node35&#45;&gt;Node17 -->
<g id="edge47" class="edge"><title>Node35&#45;&gt;Node17</title>
<path fill="none" stroke="midnightblue" d="M2620.93,-137.984C2644.55,-130.74 2668.22,-118.537 2682.5,-98 2696.4,-78.0178 2691.17,-48.0963 2686.24,-30.6117"/>
<polygon fill="midnightblue" stroke="midnightblue" points="2619.88,-134.643 2611.19,-140.705 2621.76,-141.384 2619.88,-134.643"/>
</g>
<!-- Node35&#45;&gt;Node27 -->
<g id="edge46" class="edge"><title>Node35&#45;&gt;Node27</title>
<path fill="none" stroke="midnightblue" d="M2546.5,-124.108C2546.5,-115.154 2546.5,-105.323 2546.5,-97.5765"/>
<polygon fill="midnightblue" stroke="midnightblue" points="2543,-124.396 2546.5,-134.396 2550,-124.396 2543,-124.396"/>
</g>
</g>
</svg>
