<?xml version="1.0" encoding="UTF-8" standalone="no"?>
<!DOCTYPE svg PUBLIC "-//W3C//DTD SVG 1.1//EN"
 "http://www.w3.org/Graphics/SVG/1.1/DTD/svg11.dtd">
<!-- Generated by graphviz version 2.38.0 (20140413.2041)
 -->
<!-- Title: Framework/src/CcdbDatabase.cxx Pages: 1 -->
<svg width="849pt" height="308pt"
 viewBox="0.00 0.00 849.00 308.00" xmlns="http://www.w3.org/2000/svg" xmlns:xlink="http://www.w3.org/1999/xlink">
<g id="graph0" class="graph" transform="scale(1 1) rotate(0) translate(4 304)">
<title>Framework/src/CcdbDatabase.cxx</title>
<!-- Node1 -->
<g id="node1" class="node"><title>Node1</title>
<polygon fill="#bfbfbf" stroke="black" points="499.5,-280.5 499.5,-299.5 668.5,-299.5 668.5,-280.5 499.5,-280.5"/>
<text text-anchor="middle" x="584" y="-287.5" font-family="Helvetica,sans-Serif" font-size="10.00">Framework/src/CcdbDatabase.cxx</text>
</g>
<!-- Node2 -->
<g id="node2" class="node"><title>Node2</title>
<g id="a_node2"><a xlink:href="CcdbDatabase_8h.html" target="_top" xlink:title="QualityControl/CcdbDatabase.h">
<polygon fill="none" stroke="black" points="177.5,-224.5 177.5,-243.5 332.5,-243.5 332.5,-224.5 177.5,-224.5"/>
<text text-anchor="middle" x="255" y="-231.5" font-family="Helvetica,sans-Serif" font-size="10.00">QualityControl/CcdbDatabase.h</text>
</a>
</g>
</g>
<!-- Node1&#45;&gt;Node2 -->
<g id="edge1" class="edge"><title>Node1&#45;&gt;Node2</title>
<path fill="none" stroke="midnightblue" d="M531.869,-280.444C473.513,-270.865 379.018,-255.356 316.941,-245.167"/>
<polygon fill="midnightblue" stroke="midnightblue" points="317.322,-241.682 306.887,-243.516 316.188,-248.59 317.322,-241.682"/>
</g>
<!-- Node9 -->
<g id="node9" class="node"><title>Node9</title>
<polygon fill="none" stroke="#bfbfbf" points="306,-56.5 306,-75.5 422,-75.5 422,-56.5 306,-56.5"/>
<text text-anchor="middle" x="364" y="-63.5" font-family="Helvetica,sans-Serif" font-size="10.00">Common/Exceptions.h</text>
</g>
<!-- Node1&#45;&gt;Node9 -->
<g id="edge15" class="edge"><title>Node1&#45;&gt;Node9</title>
<path fill="none" stroke="midnightblue" d="M524.787,-280.495C480.322,-272.927 424.392,-260.502 408,-244 385.767,-221.618 371.487,-126.839 366.249,-85.9289"/>
<polygon fill="midnightblue" stroke="midnightblue" points="369.713,-85.4187 365.013,-75.9235 362.766,-86.2773 369.713,-85.4187"/>
</g>
<!-- Node15 -->
<g id="node15" class="node"><title>Node15</title>
<polygon fill="none" stroke="#bfbfbf" points="417,-224.5 417,-243.5 501,-243.5 501,-224.5 417,-224.5"/>
<text text-anchor="middle" x="459" y="-231.5" font-family="Helvetica,sans-Serif" font-size="10.00">TBufferJSON.h</text>
</g>
<!-- Node1&#45;&gt;Node15 -->
<g id="edge16" class="edge"><title>Node1&#45;&gt;Node15</title>
<path fill="none" stroke="midnightblue" d="M564.193,-280.444C543.713,-271.596 511.517,-257.687 488.135,-247.586"/>
<polygon fill="midnightblue" stroke="midnightblue" points="489.282,-244.269 478.714,-243.516 486.506,-250.695 489.282,-244.269"/>
</g>
<!-- Node16 -->
<g id="node16" class="node"><title>Node16</title>
<polygon fill="none" stroke="#bfbfbf" points="519.5,-224.5 519.5,-243.5 648.5,-243.5 648.5,-224.5 519.5,-224.5"/>
<text text-anchor="middle" x="584" y="-231.5" font-family="Helvetica,sans-Serif" font-size="10.00">boost/algorithm/string.hpp</text>
</g>
<!-- Node1&#45;&gt;Node16 -->
<g id="edge17" class="edge"><title>Node1&#45;&gt;Node16</title>
<path fill="none" stroke="midnightblue" d="M584,-280.083C584,-273.006 584,-262.861 584,-253.986"/>
<polygon fill="midnightblue" stroke="midnightblue" points="587.5,-253.751 584,-243.751 580.5,-253.751 587.5,-253.751"/>
</g>
<!-- Node17 -->
<g id="node17" class="node"><title>Node17</title>
<polygon fill="none" stroke="#bfbfbf" points="667,-224.5 667,-243.5 713,-243.5 713,-224.5 667,-224.5"/>
<text text-anchor="middle" x="690" y="-231.5" font-family="Helvetica,sans-Serif" font-size="10.00">chrono</text>
</g>
<!-- Node1&#45;&gt;Node17 -->
<g id="edge18" class="edge"><title>Node1&#45;&gt;Node17</title>
<path fill="none" stroke="midnightblue" d="M601.031,-280.324C618.03,-271.664 644.376,-258.242 663.993,-248.249"/>
<polygon fill="midnightblue" stroke="midnightblue" points="665.69,-251.312 673.012,-243.655 662.512,-245.075 665.69,-251.312"/>
</g>
<!-- Node18 -->
<g id="node18" class="node"><title>Node18</title>
<polygon fill="none" stroke="#bfbfbf" points="731,-224.5 731,-243.5 783,-243.5 783,-224.5 731,-224.5"/>
<text text-anchor="middle" x="757" y="-231.5" font-family="Helvetica,sans-Serif" font-size="10.00">sstream</text>
</g>
<!-- Node1&#45;&gt;Node18 -->
<g id="edge19" class="edge"><title>Node1&#45;&gt;Node18</title>
<path fill="none" stroke="midnightblue" d="M611.412,-280.444C641.115,-271.172 688.622,-256.343 721.24,-246.162"/>
<polygon fill="midnightblue" stroke="midnightblue" points="722.345,-249.484 730.848,-243.163 720.26,-242.802 722.345,-249.484"/>
</g>
<!-- Node19 -->
<g id="node19" class="node"><title>Node19</title>
<polygon fill="none" stroke="#bfbfbf" points="801,-224.5 801,-243.5 841,-243.5 841,-224.5 801,-224.5"/>
<text text-anchor="middle" x="821" y="-231.5" font-family="Helvetica,sans-Serif" font-size="10.00">utility</text>
</g>
<!-- Node1&#45;&gt;Node19 -->
<g id="edge20" class="edge"><title>Node1&#45;&gt;Node19</title>
<path fill="none" stroke="midnightblue" d="M628.902,-280.471C669.063,-272.578 729.709,-260.008 790.953,-244.103"/>
<polygon fill="midnightblue" stroke="midnightblue" points="792,-247.447 800.784,-241.523 790.223,-240.677 792,-247.447"/>
</g>
<!-- Node3 -->
<g id="node3" class="node"><title>Node3</title>
<polygon fill="none" stroke="#bfbfbf" points="56.5,-168.5 56.5,-187.5 151.5,-187.5 151.5,-168.5 56.5,-168.5"/>
<text text-anchor="middle" x="104" y="-175.5" font-family="Helvetica,sans-Serif" font-size="10.00">CCDB/CcdbApi.h</text>
</g>
<!-- Node2&#45;&gt;Node3 -->
<g id="edge2" class="edge"><title>Node2&#45;&gt;Node3</title>
<path fill="none" stroke="midnightblue" d="M231.074,-224.444C205.781,-215.399 165.698,-201.064 137.32,-190.916"/>
<polygon fill="midnightblue" stroke="midnightblue" points="138.409,-187.588 127.814,-187.516 136.052,-194.179 138.409,-187.588"/>
</g>
<!-- Node4 -->
<g id="node4" class="node"><title>Node4</title>
<g id="a_node4"><a xlink:href="DatabaseInterface_8h.html" target="_top" xlink:title="QualityControl/DatabaseInterface.h">
<polygon fill="none" stroke="black" points="170,-168.5 170,-187.5 340,-187.5 340,-168.5 170,-168.5"/>
<text text-anchor="middle" x="255" y="-175.5" font-family="Helvetica,sans-Serif" font-size="10.00">QualityControl/DatabaseInterface.h</text>
</a>
</g>
</g>
<!-- Node2&#45;&gt;Node4 -->
<g id="edge3" class="edge"><title>Node2&#45;&gt;Node4</title>
<path fill="none" stroke="midnightblue" d="M255,-224.083C255,-217.006 255,-206.861 255,-197.986"/>
<polygon fill="midnightblue" stroke="midnightblue" points="258.5,-197.751 255,-187.751 251.5,-197.751 258.5,-197.751"/>
</g>
<!-- Node5 -->
<g id="node5" class="node"><title>Node5</title>
<g id="a_node5"><a xlink:href="MonitorObject_8h.html" target="_top" xlink:title="QualityControl/MonitorObject.h">
<polygon fill="none" stroke="black" points="37.5,-112.5 37.5,-131.5 188.5,-131.5 188.5,-112.5 37.5,-112.5"/>
<text text-anchor="middle" x="113" y="-119.5" font-family="Helvetica,sans-Serif" font-size="10.00">QualityControl/MonitorObject.h</text>
</a>
</g>
</g>
<!-- Node4&#45;&gt;Node5 -->
<g id="edge4" class="edge"><title>Node4&#45;&gt;Node5</title>
<path fill="none" stroke="midnightblue" d="M232.5,-168.444C208.923,-159.478 171.678,-145.314 145.036,-135.183"/>
<polygon fill="midnightblue" stroke="midnightblue" points="145.986,-131.8 135.395,-131.516 143.498,-138.342 145.986,-131.8"/>
</g>
<!-- Node13 -->
<g id="node13" class="node"><title>Node13</title>
<polygon fill="none" stroke="#bfbfbf" points="207,-112.5 207,-131.5 259,-131.5 259,-112.5 207,-112.5"/>
<text text-anchor="middle" x="233" y="-119.5" font-family="Helvetica,sans-Serif" font-size="10.00">memory</text>
</g>
<!-- Node4&#45;&gt;Node13 -->
<g id="edge13" class="edge"><title>Node4&#45;&gt;Node13</title>
<path fill="none" stroke="midnightblue" d="M251.367,-168.083C248.388,-160.77 244.074,-150.181 240.375,-141.103"/>
<polygon fill="midnightblue" stroke="midnightblue" points="243.58,-139.691 236.565,-131.751 237.097,-142.333 243.58,-139.691"/>
</g>
<!-- Node14 -->
<g id="node14" class="node"><title>Node14</title>
<polygon fill="none" stroke="#bfbfbf" points="277.5,-112.5 277.5,-131.5 360.5,-131.5 360.5,-112.5 277.5,-112.5"/>
<text text-anchor="middle" x="319" y="-119.5" font-family="Helvetica,sans-Serif" font-size="10.00">unordered_map</text>
</g>
<!-- Node4&#45;&gt;Node14 -->
<g id="edge14" class="edge"><title>Node4&#45;&gt;Node14</title>
<path fill="none" stroke="midnightblue" d="M265.283,-168.324C274.836,-160.263 289.28,-148.077 300.784,-138.369"/>
<polygon fill="midnightblue" stroke="midnightblue" points="303.144,-140.958 308.53,-131.834 298.63,-135.608 303.144,-140.958"/>
</g>
<!-- Node6 -->
<g id="node6" class="node"><title>Node6</title>
<polygon fill="none" stroke="#bfbfbf" points="0,-56.5 0,-75.5 54,-75.5 54,-56.5 0,-56.5"/>
<text text-anchor="middle" x="27" y="-63.5" font-family="Helvetica,sans-Serif" font-size="10.00">iostream</text>
</g>
<!-- Node5&#45;&gt;Node6 -->
<g id="edge5" class="edge"><title>Node5&#45;&gt;Node6</title>
<path fill="none" stroke="midnightblue" d="M99.1826,-112.324C85.767,-103.9 65.1759,-90.9709 49.4144,-81.0741"/>
<polygon fill="midnightblue" stroke="midnightblue" points="51.1132,-78.0081 40.7831,-75.6545 47.3908,-83.9364 51.1132,-78.0081"/>
</g>
<!-- Node7 -->
<g id="node7" class="node"><title>Node7</title>
<polygon fill="none" stroke="#bfbfbf" points="72.5,-56.5 72.5,-75.5 107.5,-75.5 107.5,-56.5 72.5,-56.5"/>
<text text-anchor="middle" x="90" y="-63.5" font-family="Helvetica,sans-Serif" font-size="10.00">map</text>
</g>
<!-- Node5&#45;&gt;Node7 -->
<g id="edge6" class="edge"><title>Node5&#45;&gt;Node7</title>
<path fill="none" stroke="midnightblue" d="M109.202,-112.083C106.087,-104.77 101.577,-94.1814 97.7107,-85.1034"/>
<polygon fill="midnightblue" stroke="midnightblue" points="100.866,-83.5798 93.7273,-75.7511 94.4259,-86.3229 100.866,-83.5798"/>
</g>
<!-- Node8 -->
<g id="node8" class="node"><title>Node8</title>
<polygon fill="none" stroke="#bfbfbf" points="110.5,-0.5 110.5,-19.5 169.5,-19.5 169.5,-0.5 110.5,-0.5"/>
<text text-anchor="middle" x="140" y="-7.5" font-family="Helvetica,sans-Serif" font-size="10.00">TObject.h</text>
</g>
<!-- Node5&#45;&gt;Node8 -->
<g id="edge7" class="edge"><title>Node5&#45;&gt;Node8</title>
<path fill="none" stroke="midnightblue" d="M115.119,-112.368C119.476,-94.617 129.527,-53.6664 135.435,-29.5974"/>
<polygon fill="midnightblue" stroke="midnightblue" points="138.906,-30.1375 137.891,-19.5914 132.108,-28.4688 138.906,-30.1375"/>
</g>
<!-- Node5&#45;&gt;Node9 -->
<g id="edge8" class="edge"><title>Node5&#45;&gt;Node9</title>
<path fill="none" stroke="midnightblue" d="M152.772,-112.444C196.558,-103.023 267.014,-87.8656 314.38,-77.6752"/>
<polygon fill="midnightblue" stroke="midnightblue" points="315.374,-81.0415 324.414,-75.5164 313.902,-74.1981 315.374,-81.0415"/>
</g>
<!-- Node10 -->
<g id="node10" class="node"><title>Node10</title>
<g id="a_node10"><a xlink:href="Quality_8h.html" target="_top" xlink:title="QualityControl/Quality.h">
<polygon fill="none" stroke="black" points="164.5,-56.5 164.5,-75.5 285.5,-75.5 285.5,-56.5 164.5,-56.5"/>
<text text-anchor="middle" x="225" y="-63.5" font-family="Helvetica,sans-Serif" font-size="10.00">QualityControl/Quality.h</text>
</a>
</g>
</g>
<!-- Node5&#45;&gt;Node10 -->
<g id="edge9" class="edge"><title>Node5&#45;&gt;Node10</title>
<path fill="none" stroke="midnightblue" d="M130.995,-112.324C149.038,-103.625 177.047,-90.1202 197.803,-80.113"/>
<polygon fill="midnightblue" stroke="midnightblue" points="199.562,-83.1502 207.05,-75.6545 196.522,-76.8449 199.562,-83.1502"/>
</g>
<!-- Node10&#45;&gt;Node8 -->
<g id="edge10" class="edge"><title>Node10&#45;&gt;Node8</title>
<path fill="none" stroke="midnightblue" d="M211.343,-56.324C198.084,-47.9002 177.732,-34.9709 162.154,-25.0741"/>
<polygon fill="midnightblue" stroke="midnightblue" points="163.94,-22.0626 153.623,-19.6545 160.187,-27.9711 163.94,-22.0626"/>
</g>
<!-- Node11 -->
<g id="node11" class="node"><title>Node11</title>
<polygon fill="none" stroke="#bfbfbf" points="195,-0.5 195,-19.5 247,-19.5 247,-0.5 195,-0.5"/>
<text text-anchor="middle" x="221" y="-7.5" font-family="Helvetica,sans-Serif" font-size="10.00">ostream</text>
</g>
<!-- Node10&#45;&gt;Node11 -->
<g id="edge11" class="edge"><title>Node10&#45;&gt;Node11</title>
<path fill="none" stroke="midnightblue" d="M224.339,-56.083C223.815,-49.0059 223.064,-38.8611 222.406,-29.9865"/>
<polygon fill="midnightblue" stroke="midnightblue" points="225.877,-29.4652 221.648,-19.7511 218.897,-29.9823 225.877,-29.4652"/>
</g>
<!-- Node12 -->
<g id="node12" class="node"><title>Node12</title>
<polygon fill="none" stroke="#bfbfbf" points="265.5,-0.5 265.5,-19.5 306.5,-19.5 306.5,-0.5 265.5,-0.5"/>
<text text-anchor="middle" x="286" y="-7.5" font-family="Helvetica,sans-Serif" font-size="10.00">string</text>
</g>
<!-- Node10&#45;&gt;Node12 -->
<g id="edge12" class="edge"><title>Node10&#45;&gt;Node12</title>
<path fill="none" stroke="midnightblue" d="M234.801,-56.324C243.818,-48.3414 257.406,-36.3128 268.318,-26.6529"/>
<polygon fill="midnightblue" stroke="midnightblue" points="270.853,-29.083 276.021,-19.8339 266.213,-23.8416 270.853,-29.083"/>
</g>
</g>
</svg>
