<?xml version="1.0" encoding="UTF-8" standalone="no"?>
<!DOCTYPE svg PUBLIC "-//W3C//DTD SVG 1.1//EN"
 "http://www.w3.org/Graphics/SVG/1.1/DTD/svg11.dtd">
<!-- Generated by graphviz version 2.38.0 (20140413.2041)
 -->
<!-- Title: Framework/include/QualityControl/CcdbDatabase.h Pages: 1 -->
<svg width="750pt" height="173pt"
 viewBox="0.00 0.00 750.00 173.00" xmlns="http://www.w3.org/2000/svg" xmlns:xlink="http://www.w3.org/1999/xlink">
<g id="graph0" class="graph" transform="scale(1 1) rotate(0) translate(4 169)">
<title>Framework/include/QualityControl/CcdbDatabase.h</title>
<!-- Node1 -->
<g id="node1" class="node"><title>Node1</title>
<polygon fill="#bfbfbf" stroke="black" points="328,-134.5 328,-164.5 461,-164.5 461,-134.5 328,-134.5"/>
<text text-anchor="start" x="336" y="-152.5" font-family="Helvetica,sans-Serif" font-size="10.00">Framework/include/Quality</text>
<text text-anchor="middle" x="394.5" y="-141.5" font-family="Helvetica,sans-Serif" font-size="10.00">Control/CcdbDatabase.h</text>
</g>
<!-- Node2 -->
<g id="node2" class="node"><title>Node2</title>
<g id="a_node2"><a xlink:href="CcdbDatabase_8cxx.html" target="_top" xlink:title="Framework/src/CcdbDatabase.cxx">
<polygon fill="none" stroke="black" points="0,-73 0,-92 169,-92 169,-73 0,-73"/>
<text text-anchor="middle" x="84.5" y="-80" font-family="Helvetica,sans-Serif" font-size="10.00">Framework/src/CcdbDatabase.cxx</text>
</a>
</g>
</g>
<!-- Node1&#45;&gt;Node2 -->
<g id="edge1" class="edge"><title>Node1&#45;&gt;Node2</title>
<path fill="none" stroke="midnightblue" d="M318.035,-132.467C257.101,-119.691 174.161,-102.3 125.279,-92.0503"/>
<polygon fill="midnightblue" stroke="midnightblue" points="317.492,-135.929 327.997,-134.556 318.928,-129.078 317.492,-135.929"/>
</g>
<!-- Node3 -->
<g id="node3" class="node"><title>Node3</title>
<g id="a_node3"><a xlink:href="DatabaseFactory_8cxx.html" target="_top" xlink:title="Framework/src/DatabaseFactory.cxx">
<polygon fill="none" stroke="black" points="187,-73 187,-92 366,-92 366,-73 187,-73"/>
<text text-anchor="middle" x="276.5" y="-80" font-family="Helvetica,sans-Serif" font-size="10.00">Framework/src/DatabaseFactory.cxx</text>
</a>
</g>
</g>
<!-- Node1&#45;&gt;Node3 -->
<g id="edge2" class="edge"><title>Node1&#45;&gt;Node3</title>
<path fill="none" stroke="midnightblue" d="M359.958,-129.473C337.432,-117.064 309.125,-101.472 291.943,-92.007"/>
<polygon fill="midnightblue" stroke="midnightblue" points="358.448,-132.637 368.896,-134.396 361.825,-126.505 358.448,-132.637"/>
</g>
<!-- Node4 -->
<g id="node4" class="node"><title>Node4</title>
<g id="a_node4"><a xlink:href="RepositoryBenchmark_8h.html" target="_top" xlink:title="Framework/src/Repository\lBenchmark.h">
<polygon fill="none" stroke="black" points="422.5,-67.5 422.5,-97.5 554.5,-97.5 554.5,-67.5 422.5,-67.5"/>
<text text-anchor="start" x="430.5" y="-85.5" font-family="Helvetica,sans-Serif" font-size="10.00">Framework/src/Repository</text>
<text text-anchor="middle" x="488.5" y="-74.5" font-family="Helvetica,sans-Serif" font-size="10.00">Benchmark.h</text>
</a>
</g>
</g>
<!-- Node1&#45;&gt;Node4 -->
<g id="edge3" class="edge"><title>Node1&#45;&gt;Node4</title>
<path fill="none" stroke="midnightblue" d="M423.494,-128.451C437.955,-118.452 455.095,-106.6 468.143,-97.5765"/>
<polygon fill="midnightblue" stroke="midnightblue" points="421.131,-125.83 414.897,-134.396 425.112,-131.587 421.131,-125.83"/>
</g>
<!-- Node5 -->
<g id="node5" class="node"><title>Node5</title>
<g id="a_node5"><a xlink:href="RepositoryBenchmark_8cxx.html" target="_top" xlink:title="Framework/src/Repository\lBenchmark.cxx">
<polygon fill="none" stroke="black" points="328.5,-0.5 328.5,-30.5 460.5,-30.5 460.5,-0.5 328.5,-0.5"/>
<text text-anchor="start" x="336.5" y="-18.5" font-family="Helvetica,sans-Serif" font-size="10.00">Framework/src/Repository</text>
<text text-anchor="middle" x="394.5" y="-7.5" font-family="Helvetica,sans-Serif" font-size="10.00">Benchmark.cxx</text>
</a>
</g>
</g>
<!-- Node1&#45;&gt;Node5 -->
<g id="edge6" class="edge"><title>Node1&#45;&gt;Node5</title>
<path fill="none" stroke="midnightblue" d="M394.5,-124.024C394.5,-96.5121 394.5,-52.7894 394.5,-30.5247"/>
<polygon fill="midnightblue" stroke="midnightblue" points="391,-124.374 394.5,-134.374 398,-124.374 391,-124.374"/>
</g>
<!-- Node7 -->
<g id="node7" class="node"><title>Node7</title>
<g id="a_node7"><a xlink:href="testDbFactory_8cxx.html" target="_top" xlink:title="Framework/test/testDbFactory.cxx">
<polygon fill="none" stroke="black" points="573,-73 573,-92 742,-92 742,-73 573,-73"/>
<text text-anchor="middle" x="657.5" y="-80" font-family="Helvetica,sans-Serif" font-size="10.00">Framework/test/testDbFactory.cxx</text>
</a>
</g>
</g>
<!-- Node1&#45;&gt;Node7 -->
<g id="edge7" class="edge"><title>Node1&#45;&gt;Node7</title>
<path fill="none" stroke="midnightblue" d="M460.981,-132.069C512.555,-119.323 581.961,-102.169 622.992,-92.0287"/>
<polygon fill="midnightblue" stroke="midnightblue" points="460.111,-128.679 451.243,-134.476 461.791,-135.474 460.111,-128.679"/>
</g>
<!-- Node4&#45;&gt;Node5 -->
<g id="edge4" class="edge"><title>Node4&#45;&gt;Node5</title>
<path fill="none" stroke="midnightblue" d="M459.506,-61.4511C445.045,-51.4517 427.905,-39.5995 414.857,-30.5765"/>
<polygon fill="midnightblue" stroke="midnightblue" points="457.888,-64.5872 468.103,-67.396 461.869,-58.8296 457.888,-64.5872"/>
</g>
<!-- Node6 -->
<g id="node6" class="node"><title>Node6</title>
<g id="a_node6"><a xlink:href="runRepositoryBenchmark_8cxx.html" target="_top" xlink:title="Framework/src/runRepository\lBenchmark.cxx">
<polygon fill="none" stroke="black" points="478.5,-0.5 478.5,-30.5 624.5,-30.5 624.5,-0.5 478.5,-0.5"/>
<text text-anchor="start" x="486.5" y="-18.5" font-family="Helvetica,sans-Serif" font-size="10.00">Framework/src/runRepository</text>
<text text-anchor="middle" x="551.5" y="-7.5" font-family="Helvetica,sans-Serif" font-size="10.00">Benchmark.cxx</text>
</a>
</g>
</g>
<!-- Node4&#45;&gt;Node6 -->
<g id="edge5" class="edge"><title>Node4&#45;&gt;Node6</title>
<path fill="none" stroke="midnightblue" d="M509.315,-60.0243C518.701,-50.3398 529.524,-39.1739 537.857,-30.5765"/>
<polygon fill="midnightblue" stroke="midnightblue" points="506.617,-57.7793 502.17,-67.396 511.643,-62.6512 506.617,-57.7793"/>
</g>
</g>
</svg>
