<?xml version="1.0" encoding="UTF-8" standalone="no"?>
<!DOCTYPE svg PUBLIC "-//W3C//DTD SVG 1.1//EN"
 "http://www.w3.org/Graphics/SVG/1.1/DTD/svg11.dtd">
<!-- Generated by graphviz version 2.38.0 (20140413.2041)
 -->
<!-- Title: Framework/include/QualityControl/CcdbDatabase.h Pages: 1 -->
<svg width="428pt" height="263pt"
 viewBox="0.00 0.00 427.50 263.00" xmlns="http://www.w3.org/2000/svg" xmlns:xlink="http://www.w3.org/1999/xlink">
<g id="graph0" class="graph" transform="scale(1 1) rotate(0) translate(4 259)">
<title>Framework/include/QualityControl/CcdbDatabase.h</title>
<!-- Node1 -->
<g id="node1" class="node"><title>Node1</title>
<polygon fill="#bfbfbf" stroke="black" points="113.5,-224.5 113.5,-254.5 246.5,-254.5 246.5,-224.5 113.5,-224.5"/>
<text text-anchor="start" x="121.5" y="-242.5" font-family="Helvetica,sans-Serif" font-size="10.00">Framework/include/Quality</text>
<text text-anchor="middle" x="180" y="-231.5" font-family="Helvetica,sans-Serif" font-size="10.00">Control/CcdbDatabase.h</text>
</g>
<!-- Node2 -->
<g id="node2" class="node"><title>Node2</title>
<polygon fill="none" stroke="#bfbfbf" points="57.5,-168.5 57.5,-187.5 152.5,-187.5 152.5,-168.5 57.5,-168.5"/>
<text text-anchor="middle" x="105" y="-175.5" font-family="Helvetica,sans-Serif" font-size="10.00">CCDB/CcdbApi.h</text>
</g>
<!-- Node1&#45;&gt;Node2 -->
<g id="edge1" class="edge"><title>Node1&#45;&gt;Node2</title>
<path fill="none" stroke="midnightblue" d="M162.226,-224.399C150.654,-215.218 135.577,-203.258 123.804,-193.918"/>
<polygon fill="midnightblue" stroke="midnightblue" points="125.923,-191.131 115.913,-187.658 121.572,-196.615 125.923,-191.131"/>
</g>
<!-- Node3 -->
<g id="node3" class="node"><title>Node3</title>
<g id="a_node3"><a xlink:href="DatabaseInterface_8h.html" target="_top" xlink:title="QualityControl/DatabaseInterface.h">
<polygon fill="none" stroke="black" points="171,-168.5 171,-187.5 341,-187.5 341,-168.5 171,-168.5"/>
<text text-anchor="middle" x="256" y="-175.5" font-family="Helvetica,sans-Serif" font-size="10.00">QualityControl/DatabaseInterface.h</text>
</a>
</g>
</g>
<!-- Node1&#45;&gt;Node3 -->
<g id="edge2" class="edge"><title>Node1&#45;&gt;Node3</title>
<path fill="none" stroke="midnightblue" d="M198.011,-224.399C209.738,-215.218 225.015,-203.258 236.945,-193.918"/>
<polygon fill="midnightblue" stroke="midnightblue" points="239.225,-196.578 244.941,-187.658 234.91,-191.066 239.225,-196.578"/>
</g>
<!-- Node4 -->
<g id="node4" class="node"><title>Node4</title>
<g id="a_node4"><a xlink:href="MonitorObject_8h.html" target="_top" xlink:title="QualityControl/MonitorObject.h">
<polygon fill="none" stroke="black" points="60.5,-112.5 60.5,-131.5 211.5,-131.5 211.5,-112.5 60.5,-112.5"/>
<text text-anchor="middle" x="136" y="-119.5" font-family="Helvetica,sans-Serif" font-size="10.00">QualityControl/MonitorObject.h</text>
</a>
</g>
</g>
<!-- Node3&#45;&gt;Node4 -->
<g id="edge3" class="edge"><title>Node3&#45;&gt;Node4</title>
<path fill="none" stroke="midnightblue" d="M236.986,-168.444C217.412,-159.636 186.692,-145.812 164.271,-135.722"/>
<polygon fill="midnightblue" stroke="midnightblue" points="165.481,-132.428 154.925,-131.516 162.608,-138.812 165.481,-132.428"/>
</g>
<!-- Node12 -->
<g id="node12" class="node"><title>Node12</title>
<polygon fill="none" stroke="#bfbfbf" points="230,-112.5 230,-131.5 282,-131.5 282,-112.5 230,-112.5"/>
<text text-anchor="middle" x="256" y="-119.5" font-family="Helvetica,sans-Serif" font-size="10.00">memory</text>
</g>
<!-- Node3&#45;&gt;Node12 -->
<g id="edge12" class="edge"><title>Node3&#45;&gt;Node12</title>
<path fill="none" stroke="midnightblue" d="M256,-168.083C256,-161.006 256,-150.861 256,-141.986"/>
<polygon fill="midnightblue" stroke="midnightblue" points="259.5,-141.751 256,-131.751 252.5,-141.751 259.5,-141.751"/>
</g>
<!-- Node13 -->
<g id="node13" class="node"><title>Node13</title>
<polygon fill="none" stroke="#bfbfbf" points="300.5,-112.5 300.5,-131.5 383.5,-131.5 383.5,-112.5 300.5,-112.5"/>
<text text-anchor="middle" x="342" y="-119.5" font-family="Helvetica,sans-Serif" font-size="10.00">unordered_map</text>
</g>
<!-- Node3&#45;&gt;Node13 -->
<g id="edge13" class="edge"><title>Node3&#45;&gt;Node13</title>
<path fill="none" stroke="midnightblue" d="M269.817,-168.324C283.233,-159.9 303.824,-146.971 319.586,-137.074"/>
<polygon fill="midnightblue" stroke="midnightblue" points="321.609,-139.936 328.217,-131.655 317.887,-134.008 321.609,-139.936"/>
</g>
<!-- Node5 -->
<g id="node5" class="node"><title>Node5</title>
<polygon fill="none" stroke="#bfbfbf" points="0,-56.5 0,-75.5 54,-75.5 54,-56.5 0,-56.5"/>
<text text-anchor="middle" x="27" y="-63.5" font-family="Helvetica,sans-Serif" font-size="10.00">iostream</text>
</g>
<!-- Node4&#45;&gt;Node5 -->
<g id="edge4" class="edge"><title>Node4&#45;&gt;Node5</title>
<path fill="none" stroke="midnightblue" d="M118.487,-112.324C100.928,-103.625 73.6686,-90.1202 53.4688,-80.113"/>
<polygon fill="midnightblue" stroke="midnightblue" points="54.9837,-76.9575 44.4693,-75.6545 51.8762,-83.23 54.9837,-76.9575"/>
</g>
<!-- Node6 -->
<g id="node6" class="node"><title>Node6</title>
<polygon fill="none" stroke="#bfbfbf" points="72.5,-56.5 72.5,-75.5 107.5,-75.5 107.5,-56.5 72.5,-56.5"/>
<text text-anchor="middle" x="90" y="-63.5" font-family="Helvetica,sans-Serif" font-size="10.00">map</text>
</g>
<!-- Node4&#45;&gt;Node6 -->
<g id="edge5" class="edge"><title>Node4&#45;&gt;Node6</title>
<path fill="none" stroke="midnightblue" d="M128.404,-112.083C121.773,-104.298 111.979,-92.8015 103.942,-83.3665"/>
<polygon fill="midnightblue" stroke="midnightblue" points="106.604,-81.0939 97.4546,-75.7511 101.275,-85.6332 106.604,-81.0939"/>
</g>
<!-- Node7 -->
<g id="node7" class="node"><title>Node7</title>
<polygon fill="none" stroke="#bfbfbf" points="164.5,-0.5 164.5,-19.5 223.5,-19.5 223.5,-0.5 164.5,-0.5"/>
<text text-anchor="middle" x="194" y="-7.5" font-family="Helvetica,sans-Serif" font-size="10.00">TObject.h</text>
</g>
<!-- Node4&#45;&gt;Node7 -->
<g id="edge6" class="edge"><title>Node4&#45;&gt;Node7</title>
<path fill="none" stroke="midnightblue" d="M137.351,-112.128C139.591,-99.1666 144.868,-74.5796 155,-56 160.791,-45.3806 169.435,-35.0685 177.114,-27.0009"/>
<polygon fill="midnightblue" stroke="midnightblue" points="179.755,-29.3092 184.331,-19.7534 174.795,-24.37 179.755,-29.3092"/>
</g>
<!-- Node8 -->
<g id="node8" class="node"><title>Node8</title>
<polygon fill="none" stroke="#bfbfbf" points="164,-56.5 164,-75.5 280,-75.5 280,-56.5 164,-56.5"/>
<text text-anchor="middle" x="222" y="-63.5" font-family="Helvetica,sans-Serif" font-size="10.00">Common/Exceptions.h</text>
</g>
<!-- Node4&#45;&gt;Node8 -->
<g id="edge7" class="edge"><title>Node4&#45;&gt;Node8</title>
<path fill="none" stroke="midnightblue" d="M149.817,-112.324C163.233,-103.9 183.824,-90.9709 199.586,-81.0741"/>
<polygon fill="midnightblue" stroke="midnightblue" points="201.609,-83.9364 208.217,-75.6545 197.887,-78.0081 201.609,-83.9364"/>
</g>
<!-- Node9 -->
<g id="node9" class="node"><title>Node9</title>
<g id="a_node9"><a xlink:href="Quality_8h.html" target="_top" xlink:title="QualityControl/Quality.h">
<polygon fill="none" stroke="black" points="298.5,-56.5 298.5,-75.5 419.5,-75.5 419.5,-56.5 298.5,-56.5"/>
<text text-anchor="middle" x="359" y="-63.5" font-family="Helvetica,sans-Serif" font-size="10.00">QualityControl/Quality.h</text>
</a>
</g>
</g>
<!-- Node4&#45;&gt;Node9 -->
<g id="edge8" class="edge"><title>Node4&#45;&gt;Node9</title>
<path fill="none" stroke="midnightblue" d="M171.335,-112.444C209.911,-103.102 271.785,-88.1194 313.853,-77.9326"/>
<polygon fill="midnightblue" stroke="midnightblue" points="314.935,-81.2717 323.83,-75.5164 313.287,-74.4683 314.935,-81.2717"/>
</g>
<!-- Node9&#45;&gt;Node7 -->
<g id="edge9" class="edge"><title>Node9&#45;&gt;Node7</title>
<path fill="none" stroke="midnightblue" d="M332.855,-56.4435C304.977,-47.3196 260.652,-32.8133 229.6,-22.6509"/>
<polygon fill="midnightblue" stroke="midnightblue" points="230.615,-19.3005 220.022,-19.5164 228.438,-25.9533 230.615,-19.3005"/>
</g>
<!-- Node10 -->
<g id="node10" class="node"><title>Node10</title>
<polygon fill="none" stroke="#bfbfbf" points="300,-0.5 300,-19.5 352,-19.5 352,-0.5 300,-0.5"/>
<text text-anchor="middle" x="326" y="-7.5" font-family="Helvetica,sans-Serif" font-size="10.00">ostream</text>
</g>
<!-- Node9&#45;&gt;Node10 -->
<g id="edge10" class="edge"><title>Node9&#45;&gt;Node10</title>
<path fill="none" stroke="midnightblue" d="M353.551,-56.083C348.986,-48.6127 342.332,-37.7244 336.707,-28.5199"/>
<polygon fill="midnightblue" stroke="midnightblue" points="339.549,-26.4588 331.348,-19.7511 333.576,-30.109 339.549,-26.4588"/>
</g>
<!-- Node11 -->
<g id="node11" class="node"><title>Node11</title>
<polygon fill="none" stroke="#bfbfbf" points="370.5,-0.5 370.5,-19.5 411.5,-19.5 411.5,-0.5 370.5,-0.5"/>
<text text-anchor="middle" x="391" y="-7.5" font-family="Helvetica,sans-Serif" font-size="10.00">string</text>
</g>
<!-- Node9&#45;&gt;Node11 -->
<g id="edge11" class="edge"><title>Node9&#45;&gt;Node11</title>
<path fill="none" stroke="midnightblue" d="M364.284,-56.083C368.711,-48.6127 375.163,-37.7244 380.618,-28.5199"/>
<polygon fill="midnightblue" stroke="midnightblue" points="383.727,-30.1383 385.814,-19.7511 377.705,-26.5697 383.727,-30.1383"/>
</g>
</g>
</svg>
