<?xml version="1.0" encoding="UTF-8" standalone="no"?>
<!DOCTYPE svg PUBLIC "-//W3C//DTD SVG 1.1//EN"
 "http://www.w3.org/Graphics/SVG/1.1/DTD/svg11.dtd">
<!-- Generated by graphviz version 2.38.0 (20140413.2041)
 -->
<!-- Title: Framework/src/CheckerFactory.cxx Pages: 1 -->
<!--zoomable 431 -->
<svg id="main" version="1.1" xmlns="http://www.w3.org/2000/svg" xmlns:xlink="http://www.w3.org/1999/xlink" xml:space="preserve" onload="init(evt)">
<style type="text/css"><![CDATA[
.edge:hover path { stroke: red; }
.edge:hover polygon { stroke: red; fill: red; }
]]></style>
<script type="text/javascript"><![CDATA[
var edges = document.getElementsByTagName('g');
if (edges && edges.length) {
  for (var i=0;i<edges.length;i++) {
    if (edges[i].id.substr(0,4)=='edge') {
      edges[i].setAttribute('class','edge');
    }
  }
}
]]></script>
        <defs>
                <circle id="rim" cx="0" cy="0" r="7"/>
                <circle id="rim2" cx="0" cy="0" r="3.5"/>
                <g id="zoomPlus">
                        <use xlink:href="#rim" fill="#404040">
                                <set attributeName="fill" to="#808080" begin="zoomplus.mouseover" end="zoomplus.mouseout"/>
                        </use>
                        <path d="M-4,0h8M0,-4v8" fill="none" stroke="white" stroke-width="1.5" pointer-events="none"/>
                </g>
                <g id="zoomMin">
                        <use xlink:href="#rim" fill="#404040">
                                <set attributeName="fill" to="#808080" begin="zoomminus.mouseover" end="zoomminus.mouseout"/>
                        </use>
                        <path d="M-4,0h8" fill="none" stroke="white" stroke-width="1.5" pointer-events="none"/>
                </g>
                <g id="dirArrow">
                        <path fill="none" stroke="white" stroke-width="1.5" d="M0,-3.0v7 M-2.5,-0.5L0,-3.0L2.5,-0.5"/>
                </g>
               <g id="resetDef">
                       <use xlink:href="#rim2" fill="#404040">
                               <set attributeName="fill" to="#808080" begin="reset.mouseover" end="reset.mouseout"/>
                       </use>
               </g>
        </defs>

<script type="text/javascript">
var viewWidth = 1685;
var viewHeight = 431;
var sectionId = 'dynsection-0';
</script>
<script xlink:href="svgpan.js"/>
<svg id="graph" class="graph">
<g id="viewport">
<title>Framework/src/CheckerFactory.cxx</title>
<!-- Node1 -->
<g id="node1" class="node"><title>Node1</title>
<polygon fill="#bfbfbf" stroke="black" points="103.5,-403.5 103.5,-422.5 276.5,-422.5 276.5,-403.5 103.5,-403.5"/>
<text text-anchor="middle" x="190" y="-410.5" font-family="Helvetica,sans-Serif" font-size="10.00">Framework/src/CheckerFactory.cxx</text>
</g>
<!-- Node2 -->
<g id="node2" class="node"><title>Node2</title>
<polygon fill="none" stroke="#bfbfbf" points="0,-286 0,-305 164,-305 164,-286 0,-286"/>
<text text-anchor="middle" x="82" y="-293" font-family="Helvetica,sans-Serif" font-size="10.00">Framework/DataProcessorSpec.h</text>
</g>
<!-- Node1&#45;&gt;Node2 -->
<g id="edge1" class="edge"><title>Node1&#45;&gt;Node2</title>
<path fill="none" stroke="midnightblue" d="M189.523,-403.493C188.367,-390.121 184.426,-363.963 171,-347 157.198,-329.562 135.614,-317.103 117.158,-308.923"/>
<polygon fill="midnightblue" stroke="midnightblue" points="118.426,-305.66 107.85,-305.032 115.726,-312.118 118.426,-305.66"/>
</g>
<!-- Node3 -->
<g id="node3" class="node"><title>Node3</title>
<g id="a_node3"><a xlink:href="Checker_8h.html" target="_top" xlink:title="QualityControl/Checker.h">
<polygon fill="none" stroke="black" points="612.5,-347.5 612.5,-366.5 739.5,-366.5 739.5,-347.5 612.5,-347.5"/>
<text text-anchor="middle" x="676" y="-354.5" font-family="Helvetica,sans-Serif" font-size="10.00">QualityControl/Checker.h</text>
</a>
</g>
</g>
<!-- Node1&#45;&gt;Node3 -->
<g id="edge2" class="edge"><title>Node1&#45;&gt;Node3</title>
<path fill="none" stroke="midnightblue" d="M266.74,-403.473C358.688,-393.257 511.65,-376.261 602.251,-366.194"/>
<polygon fill="midnightblue" stroke="midnightblue" points="602.889,-369.645 612.441,-365.062 602.116,-362.688 602.889,-369.645"/>
</g>
<!-- Node33 -->
<g id="node33" class="node"><title>Node33</title>
<g id="a_node33"><a xlink:href="CheckerFactory_8h.html" target="_top" xlink:title="QualityControl/CheckerFactory.h">
<polygon fill="none" stroke="black" points="2,-347.5 2,-366.5 162,-366.5 162,-347.5 2,-347.5"/>
<text text-anchor="middle" x="82" y="-354.5" font-family="Helvetica,sans-Serif" font-size="10.00">QualityControl/CheckerFactory.h</text>
</a>
</g>
</g>
<!-- Node1&#45;&gt;Node33 -->
<g id="edge43" class="edge"><title>Node1&#45;&gt;Node33</title>
<path fill="none" stroke="midnightblue" d="M172.648,-403.324C155.328,-394.664 128.485,-381.242 108.498,-371.249"/>
<polygon fill="midnightblue" stroke="midnightblue" points="109.819,-367.996 99.309,-366.655 106.688,-374.257 109.819,-367.996"/>
</g>
<!-- Node4 -->
<g id="node4" class="node"><title>Node4</title>
<polygon fill="none" stroke="#bfbfbf" points="1112,-286 1112,-305 1158,-305 1158,-286 1112,-286"/>
<text text-anchor="middle" x="1135" y="-293" font-family="Helvetica,sans-Serif" font-size="10.00">chrono</text>
</g>
<!-- Node3&#45;&gt;Node4 -->
<g id="edge3" class="edge"><title>Node3&#45;&gt;Node4</title>
<path fill="none" stroke="midnightblue" d="M739.595,-355.853C824.277,-354.188 978.025,-346.018 1104,-311 1105.93,-310.463 1107.89,-309.815 1109.84,-309.096"/>
<polygon fill="midnightblue" stroke="midnightblue" points="1111.46,-312.21 1119.3,-305.077 1108.73,-305.767 1111.46,-312.21"/>
</g>
<!-- Node5 -->
<g id="node5" class="node"><title>Node5</title>
<polygon fill="none" stroke="#bfbfbf" points="645,-168.5 645,-187.5 697,-187.5 697,-168.5 645,-168.5"/>
<text text-anchor="middle" x="671" y="-175.5" font-family="Helvetica,sans-Serif" font-size="10.00">memory</text>
</g>
<!-- Node3&#45;&gt;Node5 -->
<g id="edge4" class="edge"><title>Node3&#45;&gt;Node5</title>
<path fill="none" stroke="midnightblue" d="M721.653,-347.431C742.243,-341.044 764.665,-329.999 777,-311 784.502,-299.444 782.215,-292.753 777,-280 760.991,-240.854 721.016,-209.929 694.99,-193.074"/>
<polygon fill="midnightblue" stroke="midnightblue" points="696.76,-190.053 686.428,-187.709 693.043,-195.985 696.76,-190.053"/>
</g>
<!-- Node6 -->
<g id="node6" class="node"><title>Node6</title>
<polygon fill="none" stroke="#bfbfbf" points="220,-286 220,-305 312,-305 312,-286 220,-286"/>
<text text-anchor="middle" x="266" y="-293" font-family="Helvetica,sans-Serif" font-size="10.00">Common/Timer.h</text>
</g>
<!-- Node3&#45;&gt;Node6 -->
<g id="edge5" class="edge"><title>Node3&#45;&gt;Node6</title>
<path fill="none" stroke="midnightblue" d="M612.435,-350.489C541.088,-343.714 422.082,-330.642 321,-311 315.92,-310.013 310.615,-308.822 305.39,-307.553"/>
<polygon fill="midnightblue" stroke="midnightblue" points="306.075,-304.116 295.521,-305.047 304.352,-310.9 306.075,-304.116"/>
</g>
<!-- Node7 -->
<g id="node7" class="node"><title>Node7</title>
<polygon fill="none" stroke="#bfbfbf" points="330.5,-280.5 330.5,-310.5 465.5,-310.5 465.5,-280.5 330.5,-280.5"/>
<text text-anchor="start" x="338.5" y="-298.5" font-family="Helvetica,sans-Serif" font-size="10.00">Configuration/Configuration</text>
<text text-anchor="middle" x="398" y="-287.5" font-family="Helvetica,sans-Serif" font-size="10.00">Interface.h</text>
</g>
<!-- Node3&#45;&gt;Node7 -->
<g id="edge6" class="edge"><title>Node3&#45;&gt;Node7</title>
<path fill="none" stroke="midnightblue" d="M636.169,-347.475C593.856,-338.419 525.959,-323.887 473.466,-312.652"/>
<polygon fill="midnightblue" stroke="midnightblue" points="474.03,-309.193 463.519,-310.523 472.565,-316.038 474.03,-309.193"/>
</g>
<!-- Node8 -->
<g id="node8" class="node"><title>Node8</title>
<polygon fill="none" stroke="#bfbfbf" points="484,-286 484,-305 582,-305 582,-286 484,-286"/>
<text text-anchor="middle" x="533" y="-293" font-family="Helvetica,sans-Serif" font-size="10.00">Framework/Task.h</text>
</g>
<!-- Node3&#45;&gt;Node8 -->
<g id="edge7" class="edge"><title>Node3&#45;&gt;Node8</title>
<path fill="none" stroke="midnightblue" d="M655.512,-347.475C631.194,-337.357 590.451,-320.405 562.683,-308.851"/>
<polygon fill="midnightblue" stroke="midnightblue" points="564.028,-305.619 553.45,-305.009 561.339,-312.082 564.028,-305.619"/>
</g>
<!-- Node9 -->
<g id="node9" class="node"><title>Node9</title>
<polygon fill="none" stroke="#bfbfbf" points="600.5,-286 600.5,-305 751.5,-305 751.5,-286 600.5,-286"/>
<text text-anchor="middle" x="676" y="-293" font-family="Helvetica,sans-Serif" font-size="10.00">Monitoring/MonitoringFactory.h</text>
</g>
<!-- Node3&#45;&gt;Node9 -->
<g id="edge8" class="edge"><title>Node3&#45;&gt;Node9</title>
<path fill="none" stroke="midnightblue" d="M676,-347.475C676,-339.08 676,-325.981 676,-315.163"/>
<polygon fill="midnightblue" stroke="midnightblue" points="679.5,-315.009 676,-305.009 672.5,-315.009 679.5,-315.009"/>
</g>
<!-- Node10 -->
<g id="node10" class="node"><title>Node10</title>
<g id="a_node10"><a xlink:href="CheckInterface_8h.html" target="_top" xlink:title="QualityControl/CheckInterface.h">
<polygon fill="none" stroke="black" points="715.5,-168.5 715.5,-187.5 872.5,-187.5 872.5,-168.5 715.5,-168.5"/>
<text text-anchor="middle" x="794" y="-175.5" font-family="Helvetica,sans-Serif" font-size="10.00">QualityControl/CheckInterface.h</text>
</a>
</g>
</g>
<!-- Node3&#45;&gt;Node10 -->
<g id="edge9" class="edge"><title>Node3&#45;&gt;Node10</title>
<path fill="none" stroke="midnightblue" d="M735.296,-347.47C757.13,-341.148 779.744,-330.145 793,-311 816.62,-276.886 807.33,-225 799.866,-197.544"/>
<polygon fill="midnightblue" stroke="midnightblue" points="803.151,-196.307 796.976,-187.697 796.434,-198.278 803.151,-196.307"/>
</g>
<!-- Node11 -->
<g id="node11" class="node"><title>Node11</title>
<g id="a_node11"><a xlink:href="MonitorObject_8h.html" target="_top" xlink:title="QualityControl/MonitorObject.h">
<polygon fill="none" stroke="black" points="753.5,-112.5 753.5,-131.5 904.5,-131.5 904.5,-112.5 753.5,-112.5"/>
<text text-anchor="middle" x="829" y="-119.5" font-family="Helvetica,sans-Serif" font-size="10.00">QualityControl/MonitorObject.h</text>
</a>
</g>
</g>
<!-- Node3&#45;&gt;Node11 -->
<g id="edge24" class="edge"><title>Node3&#45;&gt;Node11</title>
<path fill="none" stroke="midnightblue" d="M612.04,-354.485C490.848,-350.95 237.442,-340.124 211,-311 201.739,-300.799 203.061,-291.261 211,-280 272.168,-193.24 588.546,-148.358 743.409,-131.302"/>
<polygon fill="midnightblue" stroke="midnightblue" points="743.808,-134.779 753.371,-130.219 743.051,-127.82 743.808,-134.779"/>
</g>
<!-- Node19 -->
<g id="node19" class="node"><title>Node19</title>
<g id="a_node19"><a xlink:href="DatabaseInterface_8h.html" target="_top" xlink:title="QualityControl/DatabaseInterface.h">
<polygon fill="none" stroke="black" points="543,-224.5 543,-243.5 713,-243.5 713,-224.5 543,-224.5"/>
<text text-anchor="middle" x="628" y="-231.5" font-family="Helvetica,sans-Serif" font-size="10.00">QualityControl/DatabaseInterface.h</text>
</a>
</g>
</g>
<!-- Node3&#45;&gt;Node19 -->
<g id="edge20" class="edge"><title>Node3&#45;&gt;Node19</title>
<path fill="none" stroke="midnightblue" d="M709.799,-347.388C728.393,-340.735 749.89,-329.453 761,-311 768.107,-299.197 769.031,-291.195 761,-280 749.392,-263.818 731.648,-253.382 712.866,-246.671"/>
<polygon fill="midnightblue" stroke="midnightblue" points="713.874,-243.319 703.282,-243.58 711.725,-249.981 713.874,-243.319"/>
</g>
<!-- Node21 -->
<g id="node21" class="node"><title>Node21</title>
<g id="a_node21"><a xlink:href="QcInfoLogger_8h.html" target="_top" xlink:title="QualityControl/QcInfoLogger.h">
<polygon fill="none" stroke="black" points="945.5,-286 945.5,-305 1094.5,-305 1094.5,-286 945.5,-286"/>
<text text-anchor="middle" x="1020" y="-293" font-family="Helvetica,sans-Serif" font-size="10.00">QualityControl/QcInfoLogger.h</text>
</a>
</g>
</g>
<!-- Node3&#45;&gt;Node21 -->
<g id="edge25" class="edge"><title>Node3&#45;&gt;Node21</title>
<path fill="none" stroke="midnightblue" d="M725.287,-347.475C787.488,-336.716 894.366,-318.23 960.89,-306.724"/>
<polygon fill="midnightblue" stroke="midnightblue" points="961.547,-310.162 970.805,-305.009 960.354,-303.265 961.547,-310.162"/>
</g>
<!-- Node10&#45;&gt;Node11 -->
<g id="edge10" class="edge"><title>Node10&#45;&gt;Node11</title>
<path fill="none" stroke="midnightblue" d="M799.78,-168.083C804.672,-160.534 811.827,-149.495 817.833,-140.23"/>
<polygon fill="midnightblue" stroke="midnightblue" points="820.826,-142.046 823.328,-131.751 814.952,-138.239 820.826,-142.046"/>
</g>
<!-- Node16 -->
<g id="node16" class="node"><title>Node16</title>
<g id="a_node16"><a xlink:href="Quality_8h.html" target="_top" xlink:title="QualityControl/Quality.h">
<polygon fill="none" stroke="black" points="991.5,-56.5 991.5,-75.5 1112.5,-75.5 1112.5,-56.5 991.5,-56.5"/>
<text text-anchor="middle" x="1052" y="-63.5" font-family="Helvetica,sans-Serif" font-size="10.00">QualityControl/Quality.h</text>
</a>
</g>
</g>
<!-- Node10&#45;&gt;Node16 -->
<g id="edge19" class="edge"><title>Node10&#45;&gt;Node16</title>
<path fill="none" stroke="midnightblue" d="M818.592,-168.44C843.01,-159.786 881.408,-145.76 914,-132 953.502,-115.323 998.238,-93.7405 1025.79,-80.1286"/>
<polygon fill="midnightblue" stroke="midnightblue" points="1027.38,-83.2477 1034.78,-75.6675 1024.26,-76.9772 1027.38,-83.2477"/>
</g>
<!-- Node12 -->
<g id="node12" class="node"><title>Node12</title>
<polygon fill="none" stroke="#bfbfbf" points="1279,-56.5 1279,-75.5 1333,-75.5 1333,-56.5 1279,-56.5"/>
<text text-anchor="middle" x="1306" y="-63.5" font-family="Helvetica,sans-Serif" font-size="10.00">iostream</text>
</g>
<!-- Node11&#45;&gt;Node12 -->
<g id="edge11" class="edge"><title>Node11&#45;&gt;Node12</title>
<path fill="none" stroke="midnightblue" d="M904.319,-112.473C1007.87,-100.75 1190.28,-80.1007 1268.58,-71.2366"/>
<polygon fill="midnightblue" stroke="midnightblue" points="1269.37,-74.669 1278.92,-70.0662 1268.58,-67.7134 1269.37,-74.669"/>
</g>
<!-- Node13 -->
<g id="node13" class="node"><title>Node13</title>
<polygon fill="none" stroke="#bfbfbf" points="765.5,-56.5 765.5,-75.5 800.5,-75.5 800.5,-56.5 765.5,-56.5"/>
<text text-anchor="middle" x="783" y="-63.5" font-family="Helvetica,sans-Serif" font-size="10.00">map</text>
</g>
<!-- Node11&#45;&gt;Node13 -->
<g id="edge12" class="edge"><title>Node11&#45;&gt;Node13</title>
<path fill="none" stroke="midnightblue" d="M821.404,-112.083C814.773,-104.298 804.979,-92.8015 796.942,-83.3665"/>
<polygon fill="midnightblue" stroke="midnightblue" points="799.604,-81.0939 790.455,-75.7511 794.275,-85.6332 799.604,-81.0939"/>
</g>
<!-- Node14 -->
<g id="node14" class="node"><title>Node14</title>
<polygon fill="none" stroke="#bfbfbf" points="874.5,-0.5 874.5,-19.5 933.5,-19.5 933.5,-0.5 874.5,-0.5"/>
<text text-anchor="middle" x="904" y="-7.5" font-family="Helvetica,sans-Serif" font-size="10.00">TObject.h</text>
</g>
<!-- Node11&#45;&gt;Node14 -->
<g id="edge13" class="edge"><title>Node11&#45;&gt;Node14</title>
<path fill="none" stroke="midnightblue" d="M829.865,-112.306C831.523,-99.1382 836.111,-73.7905 848,-56 856.257,-43.6447 868.959,-33.0424 880.179,-25.2378"/>
<polygon fill="midnightblue" stroke="midnightblue" points="882.318,-28.02 888.747,-19.5983 878.47,-22.1729 882.318,-28.02"/>
</g>
<!-- Node15 -->
<g id="node15" class="node"><title>Node15</title>
<polygon fill="none" stroke="#bfbfbf" points="857,-56.5 857,-75.5 973,-75.5 973,-56.5 857,-56.5"/>
<text text-anchor="middle" x="915" y="-63.5" font-family="Helvetica,sans-Serif" font-size="10.00">Common/Exceptions.h</text>
</g>
<!-- Node11&#45;&gt;Node15 -->
<g id="edge14" class="edge"><title>Node11&#45;&gt;Node15</title>
<path fill="none" stroke="midnightblue" d="M842.817,-112.324C856.233,-103.9 876.824,-90.9709 892.586,-81.0741"/>
<polygon fill="midnightblue" stroke="midnightblue" points="894.609,-83.9364 901.217,-75.6545 890.887,-78.0081 894.609,-83.9364"/>
</g>
<!-- Node11&#45;&gt;Node16 -->
<g id="edge15" class="edge"><title>Node11&#45;&gt;Node16</title>
<path fill="none" stroke="midnightblue" d="M864.335,-112.444C902.911,-103.102 964.785,-88.1194 1006.85,-77.9326"/>
<polygon fill="midnightblue" stroke="midnightblue" points="1007.93,-81.2717 1016.83,-75.5164 1006.29,-74.4683 1007.93,-81.2717"/>
</g>
<!-- Node16&#45;&gt;Node14 -->
<g id="edge16" class="edge"><title>Node16&#45;&gt;Node14</title>
<path fill="none" stroke="midnightblue" d="M1028.55,-56.4435C1003.87,-47.4381 964.815,-33.1891 937.023,-23.049"/>
<polygon fill="midnightblue" stroke="midnightblue" points="937.935,-19.6561 927.341,-19.5164 935.536,-26.2321 937.935,-19.6561"/>
</g>
<!-- Node17 -->
<g id="node17" class="node"><title>Node17</title>
<polygon fill="none" stroke="#bfbfbf" points="1026,-0.5 1026,-19.5 1078,-19.5 1078,-0.5 1026,-0.5"/>
<text text-anchor="middle" x="1052" y="-7.5" font-family="Helvetica,sans-Serif" font-size="10.00">ostream</text>
</g>
<!-- Node16&#45;&gt;Node17 -->
<g id="edge17" class="edge"><title>Node16&#45;&gt;Node17</title>
<path fill="none" stroke="midnightblue" d="M1052,-56.083C1052,-49.0059 1052,-38.8611 1052,-29.9865"/>
<polygon fill="midnightblue" stroke="midnightblue" points="1055.5,-29.751 1052,-19.7511 1048.5,-29.7511 1055.5,-29.751"/>
</g>
<!-- Node18 -->
<g id="node18" class="node"><title>Node18</title>
<polygon fill="none" stroke="#bfbfbf" points="1488.5,-0.5 1488.5,-19.5 1529.5,-19.5 1529.5,-0.5 1488.5,-0.5"/>
<text text-anchor="middle" x="1509" y="-7.5" font-family="Helvetica,sans-Serif" font-size="10.00">string</text>
</g>
<!-- Node16&#45;&gt;Node18 -->
<g id="edge18" class="edge"><title>Node16&#45;&gt;Node18</title>
<path fill="none" stroke="midnightblue" d="M1112.69,-57.8292C1211.5,-46.153 1403.63,-23.4503 1478.29,-14.6285"/>
<polygon fill="midnightblue" stroke="midnightblue" points="1478.91,-18.0799 1488.43,-13.4306 1478.09,-11.1283 1478.91,-18.0799"/>
</g>
<!-- Node19&#45;&gt;Node5 -->
<g id="edge22" class="edge"><title>Node19&#45;&gt;Node5</title>
<path fill="none" stroke="midnightblue" d="M635.101,-224.083C641.237,-216.377 650.27,-205.033 657.739,-195.653"/>
<polygon fill="midnightblue" stroke="midnightblue" points="660.54,-197.754 664.032,-187.751 655.064,-193.394 660.54,-197.754"/>
</g>
<!-- Node19&#45;&gt;Node11 -->
<g id="edge21" class="edge"><title>Node19&#45;&gt;Node11</title>
<path fill="none" stroke="midnightblue" d="M595.551,-224.489C560.399,-213.735 512.086,-193.511 534,-168 560.533,-137.113 665.707,-127.19 742.943,-124.132"/>
<polygon fill="midnightblue" stroke="midnightblue" points="743.301,-127.622 753.167,-123.761 743.046,-120.626 743.301,-127.622"/>
</g>
<!-- Node20 -->
<g id="node20" class="node"><title>Node20</title>
<polygon fill="none" stroke="#bfbfbf" points="543.5,-168.5 543.5,-187.5 626.5,-187.5 626.5,-168.5 543.5,-168.5"/>
<text text-anchor="middle" x="585" y="-175.5" font-family="Helvetica,sans-Serif" font-size="10.00">unordered_map</text>
</g>
<!-- Node19&#45;&gt;Node20 -->
<g id="edge23" class="edge"><title>Node19&#45;&gt;Node20</title>
<path fill="none" stroke="midnightblue" d="M620.899,-224.083C614.763,-216.377 605.73,-205.033 598.261,-195.653"/>
<polygon fill="midnightblue" stroke="midnightblue" points="600.936,-193.394 591.968,-187.751 595.46,-197.754 600.936,-193.394"/>
</g>
<!-- Node21&#45;&gt;Node12 -->
<g id="edge42" class="edge"><title>Node21&#45;&gt;Node12</title>
<path fill="none" stroke="midnightblue" d="M1067.79,-286C1204.34,-261.658 1586.77,-193.096 1591,-188 1661.61,-102.998 1435.03,-76.4866 1343.03,-69.3405"/>
<polygon fill="midnightblue" stroke="midnightblue" points="1343.25,-65.8472 1333.02,-68.5983 1342.73,-72.8281 1343.25,-65.8472"/>
</g>
<!-- Node22 -->
<g id="node22" class="node"><title>Node22</title>
<g id="a_node22"><a xlink:href="TaskInterface_8h.html" target="_top" xlink:title="TaskInterface.h">
<polygon fill="none" stroke="black" points="977.5,-224.5 977.5,-243.5 1062.5,-243.5 1062.5,-224.5 977.5,-224.5"/>
<text text-anchor="middle" x="1020" y="-231.5" font-family="Helvetica,sans-Serif" font-size="10.00">TaskInterface.h</text>
</a>
</g>
</g>
<!-- Node21&#45;&gt;Node22 -->
<g id="edge26" class="edge"><title>Node21&#45;&gt;Node22</title>
<path fill="none" stroke="midnightblue" d="M1020,-285.975C1020,-277.58 1020,-264.481 1020,-253.663"/>
<polygon fill="midnightblue" stroke="midnightblue" points="1023.5,-253.509 1020,-243.509 1016.5,-253.509 1023.5,-253.509"/>
</g>
<!-- Node32 -->
<g id="node32" class="node"><title>Node32</title>
<polygon fill="none" stroke="#bfbfbf" points="1081,-224.5 1081,-243.5 1211,-243.5 1211,-224.5 1081,-224.5"/>
<text text-anchor="middle" x="1146" y="-231.5" font-family="Helvetica,sans-Serif" font-size="10.00">InfoLogger/InfoLogger.hxx</text>
</g>
<!-- Node21&#45;&gt;Node32 -->
<g id="edge41" class="edge"><title>Node21&#45;&gt;Node32</title>
<path fill="none" stroke="midnightblue" d="M1038.05,-285.975C1059.2,-275.99 1094.44,-259.348 1118.88,-247.807"/>
<polygon fill="midnightblue" stroke="midnightblue" points="1120.43,-250.944 1127.98,-243.509 1117.44,-244.614 1120.43,-250.944"/>
</g>
<!-- Node22&#45;&gt;Node5 -->
<g id="edge27" class="edge"><title>Node22&#45;&gt;Node5</title>
<path fill="none" stroke="midnightblue" d="M977.495,-228.286C918.963,-221.489 810.1,-207.748 707.213,-187.844"/>
<polygon fill="midnightblue" stroke="midnightblue" points="707.763,-184.385 697.276,-185.899 706.418,-191.255 707.763,-184.385"/>
</g>
<!-- Node23 -->
<g id="node23" class="node"><title>Node23</title>
<polygon fill="none" stroke="#bfbfbf" points="890.5,-168.5 890.5,-187.5 939.5,-187.5 939.5,-168.5 890.5,-168.5"/>
<text text-anchor="middle" x="915" y="-175.5" font-family="Helvetica,sans-Serif" font-size="10.00">cassert</text>
</g>
<!-- Node22&#45;&gt;Node23 -->
<g id="edge28" class="edge"><title>Node22&#45;&gt;Node23</title>
<path fill="none" stroke="midnightblue" d="M1003.13,-224.324C986.291,-215.664 960.193,-202.242 940.762,-192.249"/>
<polygon fill="midnightblue" stroke="midnightblue" points="942.322,-189.116 931.828,-187.655 939.12,-195.341 942.322,-189.116"/>
</g>
<!-- Node24 -->
<g id="node24" class="node"><title>Node24</title>
<polygon fill="none" stroke="#bfbfbf" points="957.5,-168.5 957.5,-187.5 1082.5,-187.5 1082.5,-168.5 957.5,-168.5"/>
<text text-anchor="middle" x="1020" y="-175.5" font-family="Helvetica,sans-Serif" font-size="10.00">Framework/InitContext.h</text>
</g>
<!-- Node22&#45;&gt;Node24 -->
<g id="edge29" class="edge"><title>Node22&#45;&gt;Node24</title>
<path fill="none" stroke="midnightblue" d="M1020,-224.083C1020,-217.006 1020,-206.861 1020,-197.986"/>
<polygon fill="midnightblue" stroke="midnightblue" points="1023.5,-197.751 1020,-187.751 1016.5,-197.751 1023.5,-197.751"/>
</g>
<!-- Node25 -->
<g id="node25" class="node"><title>Node25</title>
<polygon fill="none" stroke="#bfbfbf" points="1101,-168.5 1101,-187.5 1261,-187.5 1261,-168.5 1101,-168.5"/>
<text text-anchor="middle" x="1181" y="-175.5" font-family="Helvetica,sans-Serif" font-size="10.00">Framework/ProcessingContext.h</text>
</g>
<!-- Node22&#45;&gt;Node25 -->
<g id="edge30" class="edge"><title>Node22&#45;&gt;Node25</title>
<path fill="none" stroke="midnightblue" d="M1045.51,-224.444C1072.6,-215.359 1115.59,-200.939 1145.87,-190.783"/>
<polygon fill="midnightblue" stroke="midnightblue" points="1147.24,-194.015 1155.61,-187.516 1145.01,-187.378 1147.24,-194.015"/>
</g>
<!-- Node26 -->
<g id="node26" class="node"><title>Node26</title>
<g id="a_node26"><a xlink:href="Activity_8h.html" target="_top" xlink:title="QualityControl/Activity.h">
<polygon fill="none" stroke="black" points="1279.5,-168.5 1279.5,-187.5 1402.5,-187.5 1402.5,-168.5 1279.5,-168.5"/>
<text text-anchor="middle" x="1341" y="-175.5" font-family="Helvetica,sans-Serif" font-size="10.00">QualityControl/Activity.h</text>
</a>
</g>
</g>
<!-- Node22&#45;&gt;Node26 -->
<g id="edge31" class="edge"><title>Node22&#45;&gt;Node26</title>
<path fill="none" stroke="midnightblue" d="M1062.56,-225.613C1065.76,-225.065 1068.93,-224.523 1072,-224 1143.04,-211.91 1224.69,-198.291 1279.22,-189.233"/>
<polygon fill="midnightblue" stroke="midnightblue" points="1280.12,-192.631 1289.42,-187.541 1278.98,-185.726 1280.12,-192.631"/>
</g>
<!-- Node27 -->
<g id="node27" class="node"><title>Node27</title>
<g id="a_node27"><a xlink:href="ObjectsManager_8h.html" target="_top" xlink:title="QualityControl/ObjectsManager.h">
<polygon fill="none" stroke="black" points="1420.5,-168.5 1420.5,-187.5 1581.5,-187.5 1581.5,-168.5 1420.5,-168.5"/>
<text text-anchor="middle" x="1501" y="-175.5" font-family="Helvetica,sans-Serif" font-size="10.00">QualityControl/ObjectsManager.h</text>
</a>
</g>
</g>
<!-- Node22&#45;&gt;Node27 -->
<g id="edge32" class="edge"><title>Node22&#45;&gt;Node27</title>
<path fill="none" stroke="midnightblue" d="M1062.53,-225.4C1065.73,-224.902 1068.91,-224.428 1072,-224 1104.54,-219.483 1293.99,-200.02 1409.98,-188.219"/>
<polygon fill="midnightblue" stroke="midnightblue" points="1410.68,-191.666 1420.28,-187.173 1409.98,-184.702 1410.68,-191.666"/>
</g>
<!-- Node27&#45;&gt;Node11 -->
<g id="edge33" class="edge"><title>Node27&#45;&gt;Node11</title>
<path fill="none" stroke="midnightblue" d="M1420.48,-168.771C1417.62,-168.506 1414.78,-168.248 1412,-168 1235.32,-152.251 1028.23,-137.037 914.55,-128.965"/>
<polygon fill="midnightblue" stroke="midnightblue" points="914.738,-125.469 904.516,-128.253 914.243,-132.452 914.738,-125.469"/>
</g>
<!-- Node27&#45;&gt;Node16 -->
<g id="edge34" class="edge"><title>Node27&#45;&gt;Node16</title>
<path fill="none" stroke="midnightblue" d="M1427.02,-168.491C1336.42,-157.839 1192,-140.021 1168,-132 1132.01,-119.974 1094.42,-96.5976 1072.12,-81.4023"/>
<polygon fill="midnightblue" stroke="midnightblue" points="1074.03,-78.4654 1063.82,-75.6385 1070.03,-84.2159 1074.03,-78.4654"/>
</g>
<!-- Node27&#45;&gt;Node18 -->
<g id="edge40" class="edge"><title>Node27&#45;&gt;Node18</title>
<path fill="none" stroke="midnightblue" d="M1501.43,-168.075C1502.69,-141.945 1506.39,-65.2106 1508.1,-29.577"/>
<polygon fill="midnightblue" stroke="midnightblue" points="1511.6,-29.725 1508.59,-19.5681 1504.61,-29.388 1511.6,-29.725"/>
</g>
<!-- Node28 -->
<g id="node28" class="node"><title>Node28</title>
<g id="a_node28"><a xlink:href="TaskConfig_8h.html" target="_top" xlink:title="QualityControl/TaskConfig.h">
<polygon fill="none" stroke="black" points="1537,-56.5 1537,-75.5 1677,-75.5 1677,-56.5 1537,-56.5"/>
<text text-anchor="middle" x="1607" y="-63.5" font-family="Helvetica,sans-Serif" font-size="10.00">QualityControl/TaskConfig.h</text>
</a>
</g>
</g>
<!-- Node27&#45;&gt;Node28 -->
<g id="edge35" class="edge"><title>Node27&#45;&gt;Node28</title>
<path fill="none" stroke="midnightblue" d="M1509.32,-168.368C1527.04,-149.974 1568.77,-106.671 1591.53,-83.0519"/>
<polygon fill="midnightblue" stroke="midnightblue" points="1594.3,-85.2209 1598.72,-75.5914 1589.26,-80.3636 1594.3,-85.2209"/>
</g>
<!-- Node29 -->
<g id="node29" class="node"><title>Node29</title>
<polygon fill="none" stroke="#bfbfbf" points="1176.5,-112.5 1176.5,-131.5 1245.5,-131.5 1245.5,-112.5 1176.5,-112.5"/>
<text text-anchor="middle" x="1211" y="-119.5" font-family="Helvetica,sans-Serif" font-size="10.00">TObjArray.h</text>
</g>
<!-- Node27&#45;&gt;Node29 -->
<g id="edge37" class="edge"><title>Node27&#45;&gt;Node29</title>
<path fill="none" stroke="midnightblue" d="M1452.4,-168.418C1404.87,-159.956 1330.17,-146.473 1255.61,-132.086"/>
<polygon fill="midnightblue" stroke="midnightblue" points="1256.06,-128.607 1245.57,-130.143 1254.73,-135.479 1256.06,-128.607"/>
</g>
<!-- Node30 -->
<g id="node30" class="node"><title>Node30</title>
<polygon fill="none" stroke="#bfbfbf" points="1263.5,-112.5 1263.5,-131.5 1334.5,-131.5 1334.5,-112.5 1263.5,-112.5"/>
<text text-anchor="middle" x="1299" y="-119.5" font-family="Helvetica,sans-Serif" font-size="10.00">TObjString.h</text>
</g>
<!-- Node27&#45;&gt;Node30 -->
<g id="edge38" class="edge"><title>Node27&#45;&gt;Node30</title>
<path fill="none" stroke="midnightblue" d="M1468.99,-168.444C1434.27,-159.162 1378.71,-144.309 1340.62,-134.127"/>
<polygon fill="midnightblue" stroke="midnightblue" points="1341.42,-130.718 1330.86,-131.516 1339.61,-137.48 1341.42,-130.718"/>
</g>
<!-- Node31 -->
<g id="node31" class="node"><title>Node31</title>
<polygon fill="none" stroke="#bfbfbf" points="1353,-112.5 1353,-131.5 1481,-131.5 1481,-112.5 1353,-112.5"/>
<text text-anchor="middle" x="1417" y="-119.5" font-family="Helvetica,sans-Serif" font-size="10.00">boost/concept_check.hpp</text>
</g>
<!-- Node27&#45;&gt;Node31 -->
<g id="edge39" class="edge"><title>Node27&#45;&gt;Node31</title>
<path fill="none" stroke="midnightblue" d="M1487.5,-168.324C1474.4,-159.9 1454.29,-146.971 1438.89,-137.074"/>
<polygon fill="midnightblue" stroke="midnightblue" points="1440.77,-134.118 1430.46,-131.655 1436.98,-140.006 1440.77,-134.118"/>
</g>
<!-- Node28&#45;&gt;Node18 -->
<g id="edge36" class="edge"><title>Node28&#45;&gt;Node18</title>
<path fill="none" stroke="midnightblue" d="M1591.25,-56.324C1575.68,-47.7428 1551.62,-34.486 1533.54,-24.5224"/>
<polygon fill="midnightblue" stroke="midnightblue" points="1535.15,-21.4152 1524.71,-19.6545 1531.78,-27.546 1535.15,-21.4152"/>
</g>
<!-- Node33&#45;&gt;Node2 -->
<g id="edge44" class="edge"><title>Node33&#45;&gt;Node2</title>
<path fill="none" stroke="midnightblue" d="M82,-347.475C82,-339.08 82,-325.981 82,-315.163"/>
<polygon fill="midnightblue" stroke="midnightblue" points="85.5001,-315.009 82,-305.009 78.5001,-315.009 85.5001,-315.009"/>
</g>
</g>
</svg>
        <g id="navigator" transform="translate(0 0)" fill="#404254">
                <rect fill="#f2f5e9" fill-opacity="0.5" stroke="#606060" stroke-width=".5" x="0" y="0" width="60" height="60"/>
                <use id="zoomplus" xlink:href="#zoomPlus" x="17" y="9" onmousedown="handleZoom(evt,'in')"/>
                <use id="zoomminus" xlink:href="#zoomMin" x="42" y="9" onmousedown="handleZoom(evt,'out')"/>
                <use id="reset" xlink:href="#resetDef" x="30" y="36" onmousedown="handleReset()"/>
                <g id="arrowUp" xlink:href="#dirArrow" transform="translate(30 24)" onmousedown="handlePan(0,-1)">
                  <use xlink:href="#rim" fill="#404040">
                        <set attributeName="fill" to="#808080" begin="arrowUp.mouseover" end="arrowUp.mouseout"/>
                  </use>
                  <path fill="none" stroke="white" stroke-width="1.5" d="M0,-3.0v7 M-2.5,-0.5L0,-3.0L2.5,-0.5"/>
                </g>
                <g id="arrowRight" xlink:href="#dirArrow" transform="rotate(90) translate(36 -43)" onmousedown="handlePan(1,0)">
                  <use xlink:href="#rim" fill="#404040">
                        <set attributeName="fill" to="#808080" begin="arrowRight.mouseover" end="arrowRight.mouseout"/>
                  </use>
                  <path fill="none" stroke="white" stroke-width="1.5" d="M0,-3.0v7 M-2.5,-0.5L0,-3.0L2.5,-0.5"/>
                </g>
                <g id="arrowDown" xlink:href="#dirArrow" transform="rotate(180) translate(-30 -48)" onmousedown="handlePan(0,1)">
                  <use xlink:href="#rim" fill="#404040">
                        <set attributeName="fill" to="#808080" begin="arrowDown.mouseover" end="arrowDown.mouseout"/>
                  </use>
                  <path fill="none" stroke="white" stroke-width="1.5" d="M0,-3.0v7 M-2.5,-0.5L0,-3.0L2.5,-0.5"/>
                </g>
                <g id="arrowLeft" xlink:href="#dirArrow" transform="rotate(270) translate(-36 17)" onmousedown="handlePan(-1,0)">
                  <use xlink:href="#rim" fill="#404040">
                        <set attributeName="fill" to="#808080" begin="arrowLeft.mouseover" end="arrowLeft.mouseout"/>
                  </use>
                  <path fill="none" stroke="white" stroke-width="1.5" d="M0,-3.0v7 M-2.5,-0.5L0,-3.0L2.5,-0.5"/>
                </g>
        </g>
        <svg viewBox="0 0 15 15" width="100%" height="30px" preserveAspectRatio="xMaxYMin meet">
         <g id="arrow_out" transform="scale(0.3 0.3)">
          <a xlink:href="CheckerFactory_8cxx__incl_org.svg" target="_base">
           <rect id="button" ry="5" rx="5" y="6" x="6" height="38" width="38"
                fill="#f2f5e9" fill-opacity="0.5" stroke="#606060" stroke-width="1.0"/>
           <path id="arrow"
             d="M 11.500037,31.436501 C 11.940474,20.09759 22.043105,11.32322 32.158766,21.979434 L 37.068811,17.246167 C 37.068811,17.246167 37.088388,32 37.088388,32 L 22.160133,31.978069 C 22.160133,31.978069 26.997745,27.140456 26.997745,27.140456 C 18.528582,18.264221 13.291696,25.230495 11.500037,31.436501 z"
             style="fill:#404040;"/>
          </a>
         </g>
        </svg>
</svg>
