<?xml version="1.0" encoding="UTF-8" standalone="no"?>
<!DOCTYPE svg PUBLIC "-//W3C//DTD SVG 1.1//EN"
 "http://www.w3.org/Graphics/SVG/1.1/DTD/svg11.dtd">
<!-- Generated by graphviz version 2.38.0 (20140413.2041)
 -->
<!-- Title: Framework/src/Checker.cxx Pages: 1 -->
<!--zoomable 442 -->
<svg id="main" version="1.1" xmlns="http://www.w3.org/2000/svg" xmlns:xlink="http://www.w3.org/1999/xlink" xml:space="preserve" onload="init(evt)">
<style type="text/css"><![CDATA[
.edge:hover path { stroke: red; }
.edge:hover polygon { stroke: red; fill: red; }
]]></style>
<script type="text/javascript"><![CDATA[
var edges = document.getElementsByTagName('g');
if (edges && edges.length) {
  for (var i=0;i<edges.length;i++) {
    if (edges[i].id.substr(0,4)=='edge') {
      edges[i].setAttribute('class','edge');
    }
  }
}
]]></script>
        <defs>
                <circle id="rim" cx="0" cy="0" r="7"/>
                <circle id="rim2" cx="0" cy="0" r="3.5"/>
                <g id="zoomPlus">
                        <use xlink:href="#rim" fill="#404040">
                                <set attributeName="fill" to="#808080" begin="zoomplus.mouseover" end="zoomplus.mouseout"/>
                        </use>
                        <path d="M-4,0h8M0,-4v8" fill="none" stroke="white" stroke-width="1.5" pointer-events="none"/>
                </g>
                <g id="zoomMin">
                        <use xlink:href="#rim" fill="#404040">
                                <set attributeName="fill" to="#808080" begin="zoomminus.mouseover" end="zoomminus.mouseout"/>
                        </use>
                        <path d="M-4,0h8" fill="none" stroke="white" stroke-width="1.5" pointer-events="none"/>
                </g>
                <g id="dirArrow">
                        <path fill="none" stroke="white" stroke-width="1.5" d="M0,-3.0v7 M-2.5,-0.5L0,-3.0L2.5,-0.5"/>
                </g>
               <g id="resetDef">
                       <use xlink:href="#rim2" fill="#404040">
                               <set attributeName="fill" to="#808080" begin="reset.mouseover" end="reset.mouseout"/>
                       </use>
               </g>
        </defs>

<script type="text/javascript">
var viewWidth = 2020;
var viewHeight = 442;
var sectionId = 'dynsection-0';
</script>
<script xlink:href="svgpan.js"/>
<svg id="graph" class="graph">
<g id="viewport">
<title>Framework/src/Checker.cxx</title>
<!-- Node1 -->
<g id="node1" class="node"><title>Node1</title>
<polygon fill="#bfbfbf" stroke="black" points="1243,-414.5 1243,-433.5 1383,-433.5 1383,-414.5 1243,-414.5"/>
<text text-anchor="middle" x="1313" y="-421.5" font-family="Helvetica,sans-Serif" font-size="10.00">Framework/src/Checker.cxx</text>
</g>
<!-- Node2 -->
<g id="node2" class="node"><title>Node2</title>
<g id="a_node2"><a xlink:href="Checker_8h.html" target="_top" xlink:title="QualityControl/Checker.h">
<polygon fill="none" stroke="black" points="502.5,-353 502.5,-372 629.5,-372 629.5,-353 502.5,-353"/>
<text text-anchor="middle" x="566" y="-360" font-family="Helvetica,sans-Serif" font-size="10.00">QualityControl/Checker.h</text>
</a>
</g>
</g>
<!-- Node1&#45;&gt;Node2 -->
<g id="edge1" class="edge"><title>Node1&#45;&gt;Node2</title>
<path fill="none" stroke="midnightblue" d="M1242.72,-417.402C1101.38,-406.144 783.946,-380.86 639.762,-369.375"/>
<polygon fill="midnightblue" stroke="midnightblue" points="639.931,-365.878 629.685,-368.573 639.376,-372.856 639.931,-365.878"/>
</g>
<!-- Node14 -->
<g id="node14" class="node"><title>Node14</title>
<polygon fill="none" stroke="#bfbfbf" points="20,-56.5 20,-75.5 136,-75.5 136,-56.5 20,-56.5"/>
<text text-anchor="middle" x="78" y="-63.5" font-family="Helvetica,sans-Serif" font-size="10.00">Common/Exceptions.h</text>
</g>
<!-- Node1&#45;&gt;Node14 -->
<g id="edge45" class="edge"><title>Node1&#45;&gt;Node14</title>
<path fill="none" stroke="midnightblue" d="M1242.87,-423.668C970.786,-425.351 0,-422.525 0,-296.5 0,-296.5 0,-296.5 0,-177 0,-136.967 34.8022,-101.336 57.9131,-82.0874"/>
<polygon fill="midnightblue" stroke="midnightblue" points="60.1961,-84.7432 65.8125,-75.7595 55.8196,-79.2799 60.1961,-84.7432"/>
</g>
<!-- Node32 -->
<g id="node32" class="node"><title>Node32</title>
<polygon fill="none" stroke="#bfbfbf" points="1244,-353 1244,-372 1300,-372 1300,-353 1244,-353"/>
<text text-anchor="middle" x="1272" y="-360" font-family="Helvetica,sans-Serif" font-size="10.00">TClass.h</text>
</g>
<!-- Node1&#45;&gt;Node32 -->
<g id="edge42" class="edge"><title>Node1&#45;&gt;Node32</title>
<path fill="none" stroke="midnightblue" d="M1307.13,-414.475C1301.04,-405.638 1291.36,-391.589 1283.7,-380.475"/>
<polygon fill="midnightblue" stroke="midnightblue" points="1286.42,-378.258 1277.86,-372.009 1280.66,-382.229 1286.42,-378.258"/>
</g>
<!-- Node33 -->
<g id="node33" class="node"><title>Node33</title>
<polygon fill="none" stroke="#bfbfbf" points="1318.5,-353 1318.5,-372 1389.5,-372 1389.5,-353 1318.5,-353"/>
<text text-anchor="middle" x="1354" y="-360" font-family="Helvetica,sans-Serif" font-size="10.00">TMessage.h</text>
</g>
<!-- Node1&#45;&gt;Node33 -->
<g id="edge43" class="edge"><title>Node1&#45;&gt;Node33</title>
<path fill="none" stroke="midnightblue" d="M1318.87,-414.475C1324.96,-405.638 1334.64,-391.589 1342.3,-380.475"/>
<polygon fill="midnightblue" stroke="midnightblue" points="1345.34,-382.229 1348.14,-372.009 1339.58,-378.258 1345.34,-382.229"/>
</g>
<!-- Node34 -->
<g id="node34" class="node"><title>Node34</title>
<polygon fill="none" stroke="#bfbfbf" points="1407.5,-353 1407.5,-372 1472.5,-372 1472.5,-353 1407.5,-353"/>
<text text-anchor="middle" x="1440" y="-360" font-family="Helvetica,sans-Serif" font-size="10.00">TSystem.h</text>
</g>
<!-- Node1&#45;&gt;Node34 -->
<g id="edge44" class="edge"><title>Node1&#45;&gt;Node34</title>
<path fill="none" stroke="midnightblue" d="M1331.2,-414.475C1352.51,-404.49 1388.03,-387.848 1412.66,-376.307"/>
<polygon fill="midnightblue" stroke="midnightblue" points="1414.27,-379.421 1421.84,-372.009 1411.3,-373.082 1414.27,-379.421"/>
</g>
<!-- Node35 -->
<g id="node35" class="node"><title>Node35</title>
<polygon fill="none" stroke="#bfbfbf" points="1490.5,-347.5 1490.5,-377.5 1625.5,-377.5 1625.5,-347.5 1490.5,-347.5"/>
<text text-anchor="start" x="1498.5" y="-365.5" font-family="Helvetica,sans-Serif" font-size="10.00">Configuration/Configuration</text>
<text text-anchor="middle" x="1558" y="-354.5" font-family="Helvetica,sans-Serif" font-size="10.00">Factory.h</text>
</g>
<!-- Node1&#45;&gt;Node35 -->
<g id="edge46" class="edge"><title>Node1&#45;&gt;Node35</title>
<path fill="none" stroke="midnightblue" d="M1348.1,-414.475C1385.08,-405.494 1444.24,-391.128 1490.34,-379.933"/>
<polygon fill="midnightblue" stroke="midnightblue" points="1491.37,-383.284 1500.26,-377.523 1489.71,-376.482 1491.37,-383.284"/>
</g>
<!-- Node36 -->
<g id="node36" class="node"><title>Node36</title>
<polygon fill="none" stroke="#bfbfbf" points="1644,-353 1644,-372 1778,-372 1778,-353 1644,-353"/>
<text text-anchor="middle" x="1711" y="-360" font-family="Helvetica,sans-Serif" font-size="10.00">Framework/DataRefUtils.h</text>
</g>
<!-- Node1&#45;&gt;Node36 -->
<g id="edge47" class="edge"><title>Node1&#45;&gt;Node36</title>
<path fill="none" stroke="midnightblue" d="M1380.99,-414.495C1446.27,-406.095 1547.56,-392.441 1635,-378 1642.64,-376.738 1650.7,-375.309 1658.59,-373.852"/>
<polygon fill="midnightblue" stroke="midnightblue" points="1659.27,-377.285 1668.46,-372.002 1657.99,-370.404 1659.27,-377.285"/>
</g>
<!-- Node37 -->
<g id="node37" class="node"><title>Node37</title>
<polygon fill="none" stroke="#bfbfbf" points="1796,-353 1796,-372 1846,-372 1846,-353 1796,-353"/>
<text text-anchor="middle" x="1821" y="-360" font-family="Helvetica,sans-Serif" font-size="10.00">TMap.h</text>
</g>
<!-- Node1&#45;&gt;Node37 -->
<g id="edge48" class="edge"><title>Node1&#45;&gt;Node37</title>
<path fill="none" stroke="midnightblue" d="M1383.22,-423.037C1476.78,-421.577 1646.8,-413.633 1787,-378 1789.36,-377.4 1791.77,-376.659 1794.16,-375.832"/>
<polygon fill="midnightblue" stroke="midnightblue" points="1795.68,-378.996 1803.71,-372.089 1793.13,-372.478 1795.68,-378.996"/>
</g>
<!-- Node38 -->
<g id="node38" class="node"><title>Node38</title>
<g id="a_node38"><a xlink:href="DatabaseFactory_8h.html" target="_top" xlink:title="QualityControl/DatabaseFactory.h">
<polygon fill="none" stroke="black" points="66.5,-286 66.5,-305 231.5,-305 231.5,-286 66.5,-286"/>
<text text-anchor="middle" x="149" y="-293" font-family="Helvetica,sans-Serif" font-size="10.00">QualityControl/DatabaseFactory.h</text>
</a>
</g>
</g>
<!-- Node1&#45;&gt;Node38 -->
<g id="edge49" class="edge"><title>Node1&#45;&gt;Node38</title>
<path fill="none" stroke="midnightblue" d="M1242.93,-423.336C1100.76,-423.101 768.508,-417.873 493,-378 380.51,-361.72 250.753,-326.344 187.577,-308.02"/>
<polygon fill="midnightblue" stroke="midnightblue" points="188.24,-304.567 177.66,-305.124 186.278,-311.287 188.24,-304.567"/>
</g>
<!-- Node39 -->
<g id="node39" class="node"><title>Node39</title>
<g id="a_node39"><a xlink:href="TaskRunner_8h.html" target="_top" xlink:title="QualityControl/TaskRunner.h">
<polygon fill="none" stroke="black" points="1082.5,-353 1082.5,-372 1225.5,-372 1225.5,-353 1082.5,-353"/>
<text text-anchor="middle" x="1154" y="-360" font-family="Helvetica,sans-Serif" font-size="10.00">QualityControl/TaskRunner.h</text>
</a>
</g>
</g>
<!-- Node1&#45;&gt;Node39 -->
<g id="edge53" class="edge"><title>Node1&#45;&gt;Node39</title>
<path fill="none" stroke="midnightblue" d="M1290.22,-414.475C1262.95,-404.269 1217.09,-387.108 1186.2,-375.549"/>
<polygon fill="midnightblue" stroke="midnightblue" points="1187.33,-372.236 1176.74,-372.009 1184.88,-378.792 1187.33,-372.236"/>
</g>
<!-- Node3 -->
<g id="node3" class="node"><title>Node3</title>
<polygon fill="none" stroke="#bfbfbf" points="288,-286 288,-305 334,-305 334,-286 288,-286"/>
<text text-anchor="middle" x="311" y="-293" font-family="Helvetica,sans-Serif" font-size="10.00">chrono</text>
</g>
<!-- Node2&#45;&gt;Node3 -->
<g id="edge2" class="edge"><title>Node2&#45;&gt;Node3</title>
<path fill="none" stroke="midnightblue" d="M520.395,-352.954C475.929,-344.15 406.63,-329.173 348,-311 345.578,-310.249 343.089,-309.415 340.602,-308.538"/>
<polygon fill="midnightblue" stroke="midnightblue" points="341.759,-305.234 331.167,-305.017 339.313,-311.792 341.759,-305.234"/>
</g>
<!-- Node4 -->
<g id="node4" class="node"><title>Node4</title>
<polygon fill="none" stroke="#bfbfbf" points="297,-168.5 297,-187.5 349,-187.5 349,-168.5 297,-168.5"/>
<text text-anchor="middle" x="323" y="-175.5" font-family="Helvetica,sans-Serif" font-size="10.00">memory</text>
</g>
<!-- Node2&#45;&gt;Node4 -->
<g id="edge3" class="edge"><title>Node2&#45;&gt;Node4</title>
<path fill="none" stroke="midnightblue" d="M502.178,-357.974C462.887,-352.734 413.755,-340.257 380,-311 345.363,-280.979 331.089,-226.111 325.786,-197.487"/>
<polygon fill="midnightblue" stroke="midnightblue" points="329.233,-196.876 324.122,-187.595 322.33,-198.037 329.233,-196.876"/>
</g>
<!-- Node5 -->
<g id="node5" class="node"><title>Node5</title>
<polygon fill="none" stroke="#bfbfbf" points="764,-286 764,-305 856,-305 856,-286 764,-286"/>
<text text-anchor="middle" x="810" y="-293" font-family="Helvetica,sans-Serif" font-size="10.00">Common/Timer.h</text>
</g>
<!-- Node2&#45;&gt;Node5 -->
<g id="edge4" class="edge"><title>Node2&#45;&gt;Node5</title>
<path fill="none" stroke="midnightblue" d="M598.15,-352.936C641.763,-341.317 719.754,-320.541 767.966,-307.698"/>
<polygon fill="midnightblue" stroke="midnightblue" points="769.017,-311.04 777.779,-305.083 767.215,-304.276 769.017,-311.04"/>
</g>
<!-- Node6 -->
<g id="node6" class="node"><title>Node6</title>
<polygon fill="none" stroke="#bfbfbf" points="874.5,-280.5 874.5,-310.5 1009.5,-310.5 1009.5,-280.5 874.5,-280.5"/>
<text text-anchor="start" x="882.5" y="-298.5" font-family="Helvetica,sans-Serif" font-size="10.00">Configuration/Configuration</text>
<text text-anchor="middle" x="942" y="-287.5" font-family="Helvetica,sans-Serif" font-size="10.00">Interface.h</text>
</g>
<!-- Node2&#45;&gt;Node6 -->
<g id="edge5" class="edge"><title>Node2&#45;&gt;Node6</title>
<path fill="none" stroke="midnightblue" d="M618.175,-352.993C675.785,-343.532 771.552,-327.603 864.284,-311.108"/>
<polygon fill="midnightblue" stroke="midnightblue" points="865.177,-314.504 874.407,-309.303 863.948,-307.613 865.177,-314.504"/>
</g>
<!-- Node7 -->
<g id="node7" class="node"><title>Node7</title>
<polygon fill="none" stroke="#bfbfbf" points="1028,-286 1028,-305 1126,-305 1126,-286 1028,-286"/>
<text text-anchor="middle" x="1077" y="-293" font-family="Helvetica,sans-Serif" font-size="10.00">Framework/Task.h</text>
</g>
<!-- Node2&#45;&gt;Node7 -->
<g id="edge6" class="edge"><title>Node2&#45;&gt;Node7</title>
<path fill="none" stroke="midnightblue" d="M629.783,-357.098C717.829,-350.406 881.342,-335.765 1019,-311 1024.55,-310.001 1030.37,-308.772 1036.08,-307.456"/>
<polygon fill="midnightblue" stroke="midnightblue" points="1037.26,-310.77 1046.16,-305.024 1035.62,-303.965 1037.26,-310.77"/>
</g>
<!-- Node8 -->
<g id="node8" class="node"><title>Node8</title>
<polygon fill="none" stroke="#bfbfbf" points="594.5,-286 594.5,-305 745.5,-305 745.5,-286 594.5,-286"/>
<text text-anchor="middle" x="670" y="-293" font-family="Helvetica,sans-Serif" font-size="10.00">Monitoring/MonitoringFactory.h</text>
</g>
<!-- Node2&#45;&gt;Node8 -->
<g id="edge7" class="edge"><title>Node2&#45;&gt;Node8</title>
<path fill="none" stroke="midnightblue" d="M580.026,-352.734C597.335,-341.916 626.987,-323.383 647.495,-310.566"/>
<polygon fill="midnightblue" stroke="midnightblue" points="649.571,-313.395 656.196,-305.127 645.861,-307.459 649.571,-313.395"/>
</g>
<!-- Node9 -->
<g id="node9" class="node"><title>Node9</title>
<g id="a_node9"><a xlink:href="CheckInterface_8h.html" target="_top" xlink:title="QualityControl/CheckInterface.h">
<polygon fill="none" stroke="black" points="487.5,-168.5 487.5,-187.5 644.5,-187.5 644.5,-168.5 487.5,-168.5"/>
<text text-anchor="middle" x="566" y="-175.5" font-family="Helvetica,sans-Serif" font-size="10.00">QualityControl/CheckInterface.h</text>
</a>
</g>
</g>
<!-- Node2&#45;&gt;Node9 -->
<g id="edge8" class="edge"><title>Node2&#45;&gt;Node9</title>
<path fill="none" stroke="midnightblue" d="M566,-352.698C566,-324.693 566,-237.213 566,-198.16"/>
<polygon fill="midnightblue" stroke="midnightblue" points="569.5,-197.714 566,-187.714 562.5,-197.714 569.5,-197.714"/>
</g>
<!-- Node10 -->
<g id="node10" class="node"><title>Node10</title>
<g id="a_node10"><a xlink:href="MonitorObject_8h.html" target="_top" xlink:title="QualityControl/MonitorObject.h">
<polygon fill="none" stroke="black" points="408.5,-112.5 408.5,-131.5 559.5,-131.5 559.5,-112.5 408.5,-112.5"/>
<text text-anchor="middle" x="484" y="-119.5" font-family="Helvetica,sans-Serif" font-size="10.00">QualityControl/MonitorObject.h</text>
</a>
</g>
</g>
<!-- Node2&#45;&gt;Node10 -->
<g id="edge23" class="edge"><title>Node2&#45;&gt;Node10</title>
<path fill="none" stroke="midnightblue" d="M502.032,-359.855C371.951,-355.847 86.359,-343.416 57,-311 7.66973,-256.533 76.3385,-204.706 140,-168 182.6,-143.438 310.806,-131.901 398.083,-126.767"/>
<polygon fill="midnightblue" stroke="midnightblue" points="398.465,-130.251 408.249,-126.187 398.066,-123.262 398.465,-130.251"/>
</g>
<!-- Node18 -->
<g id="node18" class="node"><title>Node18</title>
<g id="a_node18"><a xlink:href="DatabaseInterface_8h.html" target="_top" xlink:title="QualityControl/DatabaseInterface.h">
<polygon fill="none" stroke="black" points="106,-224.5 106,-243.5 276,-243.5 276,-224.5 106,-224.5"/>
<text text-anchor="middle" x="191" y="-231.5" font-family="Helvetica,sans-Serif" font-size="10.00">QualityControl/DatabaseInterface.h</text>
</a>
</g>
</g>
<!-- Node2&#45;&gt;Node18 -->
<g id="edge19" class="edge"><title>Node2&#45;&gt;Node18</title>
<path fill="none" stroke="midnightblue" d="M502.338,-359.951C442.149,-356.306 350.639,-345.012 279,-311 270.844,-307.128 231.109,-271.55 207.916,-250.472"/>
<polygon fill="midnightblue" stroke="midnightblue" points="210.231,-247.846 200.482,-243.698 205.516,-253.02 210.231,-247.846"/>
</g>
<!-- Node20 -->
<g id="node20" class="node"><title>Node20</title>
<g id="a_node20"><a xlink:href="QcInfoLogger_8h.html" target="_top" xlink:title="QualityControl/QcInfoLogger.h">
<polygon fill="none" stroke="black" points="389.5,-286 389.5,-305 538.5,-305 538.5,-286 389.5,-286"/>
<text text-anchor="middle" x="464" y="-293" font-family="Helvetica,sans-Serif" font-size="10.00">QualityControl/QcInfoLogger.h</text>
</a>
</g>
</g>
<!-- Node2&#45;&gt;Node20 -->
<g id="edge24" class="edge"><title>Node2&#45;&gt;Node20</title>
<path fill="none" stroke="midnightblue" d="M552.244,-352.734C535.268,-341.916 506.186,-323.383 486.073,-310.566"/>
<polygon fill="midnightblue" stroke="midnightblue" points="487.852,-307.55 477.538,-305.127 484.09,-313.453 487.852,-307.55"/>
</g>
<!-- Node9&#45;&gt;Node10 -->
<g id="edge9" class="edge"><title>Node9&#45;&gt;Node10</title>
<path fill="none" stroke="midnightblue" d="M552.825,-168.324C540.153,-159.979 520.767,-147.212 505.794,-137.352"/>
<polygon fill="midnightblue" stroke="midnightblue" points="507.419,-134.231 497.142,-131.655 503.569,-140.078 507.419,-134.231"/>
</g>
<!-- Node15 -->
<g id="node15" class="node"><title>Node15</title>
<g id="a_node15"><a xlink:href="Quality_8h.html" target="_top" xlink:title="QualityControl/Quality.h">
<polygon fill="none" stroke="black" points="546.5,-56.5 546.5,-75.5 667.5,-75.5 667.5,-56.5 546.5,-56.5"/>
<text text-anchor="middle" x="607" y="-63.5" font-family="Helvetica,sans-Serif" font-size="10.00">QualityControl/Quality.h</text>
</a>
</g>
</g>
<!-- Node9&#45;&gt;Node15 -->
<g id="edge18" class="edge"><title>Node9&#45;&gt;Node15</title>
<path fill="none" stroke="midnightblue" d="M569.217,-168.368C575.864,-150.537 591.235,-109.295 600.19,-85.2717"/>
<polygon fill="midnightblue" stroke="midnightblue" points="603.585,-86.1841 603.798,-75.5914 597.026,-83.7393 603.585,-86.1841"/>
</g>
<!-- Node11 -->
<g id="node11" class="node"><title>Node11</title>
<polygon fill="none" stroke="#bfbfbf" points="368,-56.5 368,-75.5 422,-75.5 422,-56.5 368,-56.5"/>
<text text-anchor="middle" x="395" y="-63.5" font-family="Helvetica,sans-Serif" font-size="10.00">iostream</text>
</g>
<!-- Node10&#45;&gt;Node11 -->
<g id="edge10" class="edge"><title>Node10&#45;&gt;Node11</title>
<path fill="none" stroke="midnightblue" d="M469.701,-112.324C455.817,-103.9 434.508,-90.9709 418.196,-81.0741"/>
<polygon fill="midnightblue" stroke="midnightblue" points="419.629,-77.8495 409.264,-75.6545 415.998,-83.8341 419.629,-77.8495"/>
</g>
<!-- Node12 -->
<g id="node12" class="node"><title>Node12</title>
<polygon fill="none" stroke="#bfbfbf" points="493.5,-56.5 493.5,-75.5 528.5,-75.5 528.5,-56.5 493.5,-56.5"/>
<text text-anchor="middle" x="511" y="-63.5" font-family="Helvetica,sans-Serif" font-size="10.00">map</text>
</g>
<!-- Node10&#45;&gt;Node12 -->
<g id="edge11" class="edge"><title>Node10&#45;&gt;Node12</title>
<path fill="none" stroke="midnightblue" d="M488.459,-112.083C492.154,-104.691 497.523,-93.9533 502.094,-84.8111"/>
<polygon fill="midnightblue" stroke="midnightblue" points="505.283,-86.2606 506.624,-75.7511 499.022,-83.1301 505.283,-86.2606"/>
</g>
<!-- Node13 -->
<g id="node13" class="node"><title>Node13</title>
<polygon fill="none" stroke="#bfbfbf" points="469.5,-0.5 469.5,-19.5 528.5,-19.5 528.5,-0.5 469.5,-0.5"/>
<text text-anchor="middle" x="499" y="-7.5" font-family="Helvetica,sans-Serif" font-size="10.00">TObject.h</text>
</g>
<!-- Node10&#45;&gt;Node13 -->
<g id="edge12" class="edge"><title>Node10&#45;&gt;Node13</title>
<path fill="none" stroke="midnightblue" d="M483.104,-112.096C482.039,-99.5072 480.782,-75.8274 484,-56 485.468,-46.9568 488.492,-37.275 491.444,-29.2176"/>
<polygon fill="midnightblue" stroke="midnightblue" points="494.763,-30.3393 495.144,-19.7514 488.244,-27.7907 494.763,-30.3393"/>
</g>
<!-- Node10&#45;&gt;Node14 -->
<g id="edge13" class="edge"><title>Node10&#45;&gt;Node14</title>
<path fill="none" stroke="midnightblue" d="M419.668,-112.444C344.986,-102.51 222.341,-86.1981 146.092,-76.0566"/>
<polygon fill="midnightblue" stroke="midnightblue" points="146.485,-72.5781 136.111,-74.729 145.562,-79.517 146.485,-72.5781"/>
</g>
<!-- Node10&#45;&gt;Node15 -->
<g id="edge14" class="edge"><title>Node10&#45;&gt;Node15</title>
<path fill="none" stroke="midnightblue" d="M503.49,-112.444C523.642,-103.596 555.323,-89.6875 578.331,-79.5865"/>
<polygon fill="midnightblue" stroke="midnightblue" points="579.852,-82.7411 587.601,-75.5164 577.038,-76.3316 579.852,-82.7411"/>
</g>
<!-- Node15&#45;&gt;Node13 -->
<g id="edge15" class="edge"><title>Node15&#45;&gt;Node13</title>
<path fill="none" stroke="midnightblue" d="M589.648,-56.324C572.328,-47.6641 545.485,-34.2424 525.498,-24.249"/>
<polygon fill="midnightblue" stroke="midnightblue" points="526.819,-20.9962 516.309,-19.6545 523.688,-27.2572 526.819,-20.9962"/>
</g>
<!-- Node16 -->
<g id="node16" class="node"><title>Node16</title>
<polygon fill="none" stroke="#bfbfbf" points="581,-0.5 581,-19.5 633,-19.5 633,-0.5 581,-0.5"/>
<text text-anchor="middle" x="607" y="-7.5" font-family="Helvetica,sans-Serif" font-size="10.00">ostream</text>
</g>
<!-- Node15&#45;&gt;Node16 -->
<g id="edge16" class="edge"><title>Node15&#45;&gt;Node16</title>
<path fill="none" stroke="midnightblue" d="M607,-56.083C607,-49.0059 607,-38.8611 607,-29.9865"/>
<polygon fill="midnightblue" stroke="midnightblue" points="610.5,-29.751 607,-19.7511 603.5,-29.7511 610.5,-29.751"/>
</g>
<!-- Node17 -->
<g id="node17" class="node"><title>Node17</title>
<polygon fill="none" stroke="#bfbfbf" points="967.5,-0.5 967.5,-19.5 1008.5,-19.5 1008.5,-0.5 967.5,-0.5"/>
<text text-anchor="middle" x="988" y="-7.5" font-family="Helvetica,sans-Serif" font-size="10.00">string</text>
</g>
<!-- Node15&#45;&gt;Node17 -->
<g id="edge17" class="edge"><title>Node15&#45;&gt;Node17</title>
<path fill="none" stroke="midnightblue" d="M667.371,-56.4435C749.687,-44.7767 894.098,-24.309 957.12,-15.3767"/>
<polygon fill="midnightblue" stroke="midnightblue" points="957.802,-18.815 967.212,-13.9463 956.82,-11.8843 957.802,-18.815"/>
</g>
<!-- Node18&#45;&gt;Node4 -->
<g id="edge21" class="edge"><title>Node18&#45;&gt;Node4</title>
<path fill="none" stroke="midnightblue" d="M211.916,-224.444C233.736,-215.517 268.15,-201.439 292.892,-191.317"/>
<polygon fill="midnightblue" stroke="midnightblue" points="294.252,-194.542 302.182,-187.516 291.601,-188.063 294.252,-194.542"/>
</g>
<!-- Node18&#45;&gt;Node10 -->
<g id="edge20" class="edge"><title>Node18&#45;&gt;Node10</title>
<path fill="none" stroke="midnightblue" d="M201.028,-224.434C217.867,-210.495 253.39,-182.961 288,-168 326.832,-151.213 372.815,-140.236 410.48,-133.33"/>
<polygon fill="midnightblue" stroke="midnightblue" points="411.133,-136.769 420.367,-131.574 409.909,-129.876 411.133,-136.769"/>
</g>
<!-- Node19 -->
<g id="node19" class="node"><title>Node19</title>
<polygon fill="none" stroke="#bfbfbf" points="149.5,-168.5 149.5,-187.5 232.5,-187.5 232.5,-168.5 149.5,-168.5"/>
<text text-anchor="middle" x="191" y="-175.5" font-family="Helvetica,sans-Serif" font-size="10.00">unordered_map</text>
</g>
<!-- Node18&#45;&gt;Node19 -->
<g id="edge22" class="edge"><title>Node18&#45;&gt;Node19</title>
<path fill="none" stroke="midnightblue" d="M191,-224.083C191,-217.006 191,-206.861 191,-197.986"/>
<polygon fill="midnightblue" stroke="midnightblue" points="194.5,-197.751 191,-187.751 187.5,-197.751 194.5,-197.751"/>
</g>
<!-- Node20&#45;&gt;Node11 -->
<g id="edge41" class="edge"><title>Node20&#45;&gt;Node11</title>
<path fill="none" stroke="midnightblue" d="M445.37,-285.874C429.852,-277.566 408.768,-263.401 399,-244 372.672,-191.71 383.307,-119.249 390.477,-85.5775"/>
<polygon fill="midnightblue" stroke="midnightblue" points="393.911,-86.2582 392.717,-75.7309 387.086,-84.7052 393.911,-86.2582"/>
</g>
<!-- Node21 -->
<g id="node21" class="node"><title>Node21</title>
<g id="a_node21"><a xlink:href="TaskInterface_8h.html" target="_top" xlink:title="TaskInterface.h">
<polygon fill="none" stroke="black" points="938.5,-224.5 938.5,-243.5 1023.5,-243.5 1023.5,-224.5 938.5,-224.5"/>
<text text-anchor="middle" x="981" y="-231.5" font-family="Helvetica,sans-Serif" font-size="10.00">TaskInterface.h</text>
</a>
</g>
</g>
<!-- Node20&#45;&gt;Node21 -->
<g id="edge25" class="edge"><title>Node20&#45;&gt;Node21</title>
<path fill="none" stroke="midnightblue" d="M534.373,-285.993C550.973,-284.007 568.609,-281.913 585,-280 707.744,-265.672 851.964,-249.433 927.952,-240.924"/>
<polygon fill="midnightblue" stroke="midnightblue" points="928.664,-244.366 938.212,-239.775 927.885,-237.41 928.664,-244.366"/>
</g>
<!-- Node31 -->
<g id="node31" class="node"><title>Node31</title>
<polygon fill="none" stroke="#bfbfbf" points="408,-224.5 408,-243.5 538,-243.5 538,-224.5 408,-224.5"/>
<text text-anchor="middle" x="473" y="-231.5" font-family="Helvetica,sans-Serif" font-size="10.00">InfoLogger/InfoLogger.hxx</text>
</g>
<!-- Node20&#45;&gt;Node31 -->
<g id="edge40" class="edge"><title>Node20&#45;&gt;Node31</title>
<path fill="none" stroke="midnightblue" d="M465.289,-285.975C466.559,-277.58 468.541,-264.481 470.177,-253.663"/>
<polygon fill="midnightblue" stroke="midnightblue" points="473.678,-253.92 471.713,-243.509 466.757,-252.873 473.678,-253.92"/>
</g>
<!-- Node21&#45;&gt;Node4 -->
<g id="edge26" class="edge"><title>Node21&#45;&gt;Node4</title>
<path fill="none" stroke="midnightblue" d="M938.334,-229.499C817.221,-219.559 472.763,-191.291 359.554,-182"/>
<polygon fill="midnightblue" stroke="midnightblue" points="359.588,-178.491 349.335,-181.161 359.015,-185.468 359.588,-178.491"/>
</g>
<!-- Node22 -->
<g id="node22" class="node"><title>Node22</title>
<polygon fill="none" stroke="#bfbfbf" points="1008.5,-168.5 1008.5,-187.5 1057.5,-187.5 1057.5,-168.5 1008.5,-168.5"/>
<text text-anchor="middle" x="1033" y="-175.5" font-family="Helvetica,sans-Serif" font-size="10.00">cassert</text>
</g>
<!-- Node21&#45;&gt;Node22 -->
<g id="edge27" class="edge"><title>Node21&#45;&gt;Node22</title>
<path fill="none" stroke="midnightblue" d="M989.587,-224.083C997.159,-216.22 1008.38,-204.569 1017.51,-195.081"/>
<polygon fill="midnightblue" stroke="midnightblue" points="1020.16,-197.382 1024.57,-187.751 1015.12,-192.527 1020.16,-197.382"/>
</g>
<!-- Node23 -->
<g id="node23" class="node"><title>Node23</title>
<polygon fill="none" stroke="#bfbfbf" points="1075.5,-168.5 1075.5,-187.5 1200.5,-187.5 1200.5,-168.5 1075.5,-168.5"/>
<text text-anchor="middle" x="1138" y="-175.5" font-family="Helvetica,sans-Serif" font-size="10.00">Framework/InitContext.h</text>
</g>
<!-- Node21&#45;&gt;Node23 -->
<g id="edge28" class="edge"><title>Node21&#45;&gt;Node23</title>
<path fill="none" stroke="midnightblue" d="M1005.88,-224.444C1032.29,-215.359 1074.22,-200.939 1103.74,-190.783"/>
<polygon fill="midnightblue" stroke="midnightblue" points="1104.92,-194.079 1113.24,-187.516 1102.64,-187.459 1104.92,-194.079"/>
</g>
<!-- Node24 -->
<g id="node24" class="node"><title>Node24</title>
<polygon fill="none" stroke="#bfbfbf" points="1219,-168.5 1219,-187.5 1379,-187.5 1379,-168.5 1219,-168.5"/>
<text text-anchor="middle" x="1299" y="-175.5" font-family="Helvetica,sans-Serif" font-size="10.00">Framework/ProcessingContext.h</text>
</g>
<!-- Node21&#45;&gt;Node24 -->
<g id="edge29" class="edge"><title>Node21&#45;&gt;Node24</title>
<path fill="none" stroke="midnightblue" d="M1023.56,-225.773C1078.87,-216.381 1175.79,-199.923 1238.67,-189.245"/>
<polygon fill="midnightblue" stroke="midnightblue" points="1239.57,-192.643 1248.84,-187.518 1238.4,-185.741 1239.57,-192.643"/>
</g>
<!-- Node25 -->
<g id="node25" class="node"><title>Node25</title>
<g id="a_node25"><a xlink:href="Activity_8h.html" target="_top" xlink:title="QualityControl/Activity.h">
<polygon fill="none" stroke="black" points="867.5,-168.5 867.5,-187.5 990.5,-187.5 990.5,-168.5 867.5,-168.5"/>
<text text-anchor="middle" x="929" y="-175.5" font-family="Helvetica,sans-Serif" font-size="10.00">QualityControl/Activity.h</text>
</a>
</g>
</g>
<!-- Node21&#45;&gt;Node25 -->
<g id="edge30" class="edge"><title>Node21&#45;&gt;Node25</title>
<path fill="none" stroke="midnightblue" d="M972.413,-224.083C964.841,-216.22 953.622,-204.569 944.486,-195.081"/>
<polygon fill="midnightblue" stroke="midnightblue" points="946.885,-192.527 937.427,-187.751 941.842,-197.382 946.885,-192.527"/>
</g>
<!-- Node26 -->
<g id="node26" class="node"><title>Node26</title>
<g id="a_node26"><a xlink:href="ObjectsManager_8h.html" target="_top" xlink:title="QualityControl/ObjectsManager.h">
<polygon fill="none" stroke="black" points="688.5,-168.5 688.5,-187.5 849.5,-187.5 849.5,-168.5 688.5,-168.5"/>
<text text-anchor="middle" x="769" y="-175.5" font-family="Helvetica,sans-Serif" font-size="10.00">QualityControl/ObjectsManager.h</text>
</a>
</g>
</g>
<!-- Node21&#45;&gt;Node26 -->
<g id="edge31" class="edge"><title>Node21&#45;&gt;Node26</title>
<path fill="none" stroke="midnightblue" d="M947.408,-224.444C910.813,-215.122 852.162,-200.183 812.174,-189.997"/>
<polygon fill="midnightblue" stroke="midnightblue" points="812.989,-186.593 802.435,-187.516 811.261,-193.377 812.989,-186.593"/>
</g>
<!-- Node26&#45;&gt;Node10 -->
<g id="edge32" class="edge"><title>Node26&#45;&gt;Node10</title>
<path fill="none" stroke="midnightblue" d="M723.841,-168.444C673.706,-158.944 592.78,-143.611 538.994,-133.42"/>
<polygon fill="midnightblue" stroke="midnightblue" points="539.425,-129.939 528.948,-131.516 538.121,-136.817 539.425,-129.939"/>
</g>
<!-- Node26&#45;&gt;Node15 -->
<g id="edge33" class="edge"><title>Node26&#45;&gt;Node15</title>
<path fill="none" stroke="midnightblue" d="M723.291,-168.424C698.032,-161.845 667.34,-150.624 645,-132 630.134,-119.607 619.753,-99.806 613.641,-85.312"/>
<polygon fill="midnightblue" stroke="midnightblue" points="616.851,-83.9105 609.943,-75.8778 610.334,-86.4654 616.851,-83.9105"/>
</g>
<!-- Node26&#45;&gt;Node17 -->
<g id="edge39" class="edge"><title>Node26&#45;&gt;Node17</title>
<path fill="none" stroke="midnightblue" d="M847.137,-168.48C895.819,-161.516 952.275,-149.859 969,-132 994.956,-104.284 993.946,-56.3581 990.96,-29.9037"/>
<polygon fill="midnightblue" stroke="midnightblue" points="994.39,-29.1481 989.586,-19.705 987.453,-30.0829 994.39,-29.1481"/>
</g>
<!-- Node27 -->
<g id="node27" class="node"><title>Node27</title>
<g id="a_node27"><a xlink:href="TaskConfig_8h.html" target="_top" xlink:title="QualityControl/TaskConfig.h">
<polygon fill="none" stroke="black" points="1016,-112.5 1016,-131.5 1156,-131.5 1156,-112.5 1016,-112.5"/>
<text text-anchor="middle" x="1086" y="-119.5" font-family="Helvetica,sans-Serif" font-size="10.00">QualityControl/TaskConfig.h</text>
</a>
</g>
</g>
<!-- Node26&#45;&gt;Node27 -->
<g id="edge34" class="edge"><title>Node26&#45;&gt;Node27</title>
<path fill="none" stroke="midnightblue" d="M819.23,-168.444C875.341,-158.885 966.13,-143.419 1025.95,-133.23"/>
<polygon fill="midnightblue" stroke="midnightblue" points="1026.74,-136.646 1036.01,-131.516 1025.56,-129.745 1026.74,-136.646"/>
</g>
<!-- Node28 -->
<g id="node28" class="node"><title>Node28</title>
<polygon fill="none" stroke="#bfbfbf" points="890.5,-112.5 890.5,-131.5 959.5,-131.5 959.5,-112.5 890.5,-112.5"/>
<text text-anchor="middle" x="925" y="-119.5" font-family="Helvetica,sans-Serif" font-size="10.00">TObjArray.h</text>
</g>
<!-- Node26&#45;&gt;Node28 -->
<g id="edge36" class="edge"><title>Node26&#45;&gt;Node28</title>
<path fill="none" stroke="midnightblue" d="M793.719,-168.444C819.848,-159.399 861.259,-145.064 890.576,-134.916"/>
<polygon fill="midnightblue" stroke="midnightblue" points="892.092,-138.095 900.397,-131.516 889.802,-131.48 892.092,-138.095"/>
</g>
<!-- Node29 -->
<g id="node29" class="node"><title>Node29</title>
<polygon fill="none" stroke="#bfbfbf" points="654.5,-112.5 654.5,-131.5 725.5,-131.5 725.5,-112.5 654.5,-112.5"/>
<text text-anchor="middle" x="690" y="-119.5" font-family="Helvetica,sans-Serif" font-size="10.00">TObjString.h</text>
</g>
<!-- Node26&#45;&gt;Node29 -->
<g id="edge37" class="edge"><title>Node26&#45;&gt;Node29</title>
<path fill="none" stroke="midnightblue" d="M756.307,-168.324C744.099,-159.979 725.422,-147.212 710.997,-137.352"/>
<polygon fill="midnightblue" stroke="midnightblue" points="712.892,-134.408 702.661,-131.655 708.942,-140.187 712.892,-134.408"/>
</g>
<!-- Node30 -->
<g id="node30" class="node"><title>Node30</title>
<polygon fill="none" stroke="#bfbfbf" points="744,-112.5 744,-131.5 872,-131.5 872,-112.5 744,-112.5"/>
<text text-anchor="middle" x="808" y="-119.5" font-family="Helvetica,sans-Serif" font-size="10.00">boost/concept_check.hpp</text>
</g>
<!-- Node26&#45;&gt;Node30 -->
<g id="edge38" class="edge"><title>Node26&#45;&gt;Node30</title>
<path fill="none" stroke="midnightblue" d="M775.44,-168.083C780.949,-160.455 789.031,-149.264 795.765,-139.941"/>
<polygon fill="midnightblue" stroke="midnightblue" points="798.662,-141.907 801.68,-131.751 792.987,-137.809 798.662,-141.907"/>
</g>
<!-- Node27&#45;&gt;Node17 -->
<g id="edge35" class="edge"><title>Node27&#45;&gt;Node17</title>
<path fill="none" stroke="midnightblue" d="M1078.31,-112.368C1061.99,-94.0547 1023.68,-51.0489 1002.58,-27.3624"/>
<polygon fill="midnightblue" stroke="midnightblue" points="1004.92,-24.7298 995.654,-19.5914 999.693,-29.3863 1004.92,-24.7298"/>
</g>
<!-- Node38&#45;&gt;Node4 -->
<g id="edge50" class="edge"><title>Node38&#45;&gt;Node4</title>
<path fill="none" stroke="midnightblue" d="M193.978,-285.976C222.568,-278.717 258.965,-265.869 285,-244 299.82,-231.552 310.208,-211.76 316.334,-197.283"/>
<polygon fill="midnightblue" stroke="midnightblue" points="319.636,-198.449 320.044,-187.862 313.123,-195.884 319.636,-198.449"/>
</g>
<!-- Node38&#45;&gt;Node14 -->
<g id="edge51" class="edge"><title>Node38&#45;&gt;Node14</title>
<path fill="none" stroke="midnightblue" d="M135.803,-285.822C123.477,-276.921 105.711,-261.874 97,-244 71.3231,-191.314 73.2618,-119.555 75.9922,-85.8933"/>
<polygon fill="midnightblue" stroke="midnightblue" points="79.5019,-85.9513 76.947,-75.6692 72.5323,-85.3004 79.5019,-85.9513"/>
</g>
<!-- Node38&#45;&gt;Node18 -->
<g id="edge52" class="edge"><title>Node38&#45;&gt;Node18</title>
<path fill="none" stroke="midnightblue" d="M155.018,-285.975C161.255,-277.138 171.173,-263.089 179.018,-251.975"/>
<polygon fill="midnightblue" stroke="midnightblue" points="182.086,-253.697 184.994,-243.509 176.367,-249.66 182.086,-253.697"/>
</g>
<!-- Node39&#45;&gt;Node5 -->
<g id="edge58" class="edge"><title>Node39&#45;&gt;Node5</title>
<path fill="none" stroke="midnightblue" d="M1097.72,-352.994C1039.48,-343.873 945.997,-328.341 866,-311 861.221,-309.964 856.235,-308.798 851.292,-307.588"/>
<polygon fill="midnightblue" stroke="midnightblue" points="851.841,-304.117 841.29,-305.072 850.134,-310.906 851.841,-304.117"/>
</g>
<!-- Node39&#45;&gt;Node6 -->
<g id="edge63" class="edge"><title>Node39&#45;&gt;Node6</title>
<path fill="none" stroke="midnightblue" d="M1125.85,-352.869C1093.21,-342.862 1038.63,-326.127 997.394,-313.484"/>
<polygon fill="midnightblue" stroke="midnightblue" points="998.34,-310.113 987.753,-310.528 996.288,-316.806 998.34,-310.113"/>
</g>
<!-- Node39&#45;&gt;Node7 -->
<g id="edge59" class="edge"><title>Node39&#45;&gt;Node7</title>
<path fill="none" stroke="midnightblue" d="M1143.62,-352.734C1131.15,-342.208 1110.03,-324.379 1094.91,-311.617"/>
<polygon fill="midnightblue" stroke="midnightblue" points="1097.12,-308.903 1087.22,-305.127 1092.6,-314.252 1097.12,-308.903"/>
</g>
<!-- Node39&#45;&gt;Node8 -->
<g id="edge62" class="edge"><title>Node39&#45;&gt;Node8</title>
<path fill="none" stroke="midnightblue" d="M1082.15,-353.351C1002.17,-344.059 869.132,-327.949 755,-311 746.285,-309.706 737.085,-308.24 728.084,-306.751"/>
<polygon fill="midnightblue" stroke="midnightblue" points="728.483,-303.269 718.041,-305.067 727.325,-310.172 728.483,-303.269"/>
</g>
<!-- Node39&#45;&gt;Node21 -->
<g id="edge65" class="edge"><title>Node39&#45;&gt;Node21</title>
<path fill="none" stroke="midnightblue" d="M1154.63,-352.565C1155.27,-335.975 1154.17,-300.262 1135,-280 1108.98,-252.497 1067.17,-241.514 1033.67,-237.261"/>
<polygon fill="midnightblue" stroke="midnightblue" points="1033.9,-233.765 1023.57,-236.147 1033.13,-240.722 1033.9,-233.765"/>
</g>
<!-- Node39&#45;&gt;Node27 -->
<g id="edge64" class="edge"><title>Node39&#45;&gt;Node27</title>
<path fill="none" stroke="midnightblue" d="M1201.64,-352.999C1275.51,-339.707 1409.63,-315.094 1413,-311 1421.76,-300.366 1414.51,-293.695 1413,-280 1407.41,-229.304 1425.33,-202.749 1388,-168 1356.71,-138.88 1245.01,-128.59 1166.62,-124.963"/>
<polygon fill="midnightblue" stroke="midnightblue" points="1166.41,-121.451 1156.27,-124.514 1166.11,-128.444 1166.41,-121.451"/>
</g>
<!-- Node40 -->
<g id="node40" class="node"><title>Node40</title>
<polygon fill="none" stroke="#bfbfbf" points="1182,-280.5 1182,-310.5 1284,-310.5 1284,-280.5 1182,-280.5"/>
<text text-anchor="start" x="1190" y="-298.5" font-family="Helvetica,sans-Serif" font-size="10.00">boost/accumulators</text>
<text text-anchor="middle" x="1233" y="-287.5" font-family="Helvetica,sans-Serif" font-size="10.00">/accumulators.hpp</text>
</g>
<!-- Node39&#45;&gt;Node40 -->
<g id="edge54" class="edge"><title>Node39&#45;&gt;Node40</title>
<path fill="none" stroke="midnightblue" d="M1164.65,-352.734C1175.74,-343.611 1193.5,-329.004 1208.13,-316.963"/>
<polygon fill="midnightblue" stroke="midnightblue" points="1210.38,-319.645 1215.88,-310.589 1205.93,-314.24 1210.38,-319.645"/>
</g>
<!-- Node41 -->
<g id="node41" class="node"><title>Node41</title>
<polygon fill="none" stroke="#bfbfbf" points="1302,-280.5 1302,-310.5 1404,-310.5 1404,-280.5 1302,-280.5"/>
<text text-anchor="start" x="1310" y="-298.5" font-family="Helvetica,sans-Serif" font-size="10.00">boost/accumulators</text>
<text text-anchor="middle" x="1353" y="-287.5" font-family="Helvetica,sans-Serif" font-size="10.00">/statistics.hpp</text>
</g>
<!-- Node39&#45;&gt;Node41 -->
<g id="edge55" class="edge"><title>Node39&#45;&gt;Node41</title>
<path fill="none" stroke="midnightblue" d="M1180.43,-352.869C1210.93,-342.904 1261.87,-326.268 1300.51,-313.644"/>
<polygon fill="midnightblue" stroke="midnightblue" points="1301.63,-316.96 1310.05,-310.528 1299.46,-310.306 1301.63,-316.96"/>
</g>
<!-- Node42 -->
<g id="node42" class="node"><title>Node42</title>
<polygon fill="none" stroke="#bfbfbf" points="1460,-286 1460,-305 1540,-305 1540,-286 1460,-286"/>
<text text-anchor="middle" x="1500" y="-293" font-family="Helvetica,sans-Serif" font-size="10.00">boost/asio.hpp</text>
</g>
<!-- Node39&#45;&gt;Node42 -->
<g id="edge56" class="edge"><title>Node39&#45;&gt;Node42</title>
<path fill="none" stroke="midnightblue" d="M1201.53,-352.925C1212.52,-350.961 1224.16,-348.894 1235,-347 1328.71,-330.618 1353.07,-331.358 1446,-311 1450.67,-309.976 1455.55,-308.809 1460.37,-307.592"/>
<polygon fill="midnightblue" stroke="midnightblue" points="1461.33,-310.959 1470.13,-305.054 1459.57,-304.185 1461.33,-310.959"/>
</g>
<!-- Node43 -->
<g id="node43" class="node"><title>Node43</title>
<polygon fill="none" stroke="#bfbfbf" points="1558,-280.5 1558,-310.5 1658,-310.5 1658,-280.5 1558,-280.5"/>
<text text-anchor="start" x="1566" y="-298.5" font-family="Helvetica,sans-Serif" font-size="10.00">boost/serialization</text>
<text text-anchor="middle" x="1608" y="-287.5" font-family="Helvetica,sans-Serif" font-size="10.00">/array_wrapper.hpp</text>
</g>
<!-- Node39&#45;&gt;Node43 -->
<g id="edge57" class="edge"><title>Node39&#45;&gt;Node43</title>
<path fill="none" stroke="midnightblue" d="M1198.9,-352.942C1210.63,-350.85 1223.27,-348.721 1235,-347 1370.73,-327.092 1408.96,-335.397 1547.71,-311.084"/>
<polygon fill="midnightblue" stroke="midnightblue" points="1548.65,-314.473 1557.88,-309.276 1547.42,-307.581 1548.65,-314.473"/>
</g>
<!-- Node44 -->
<g id="node44" class="node"><title>Node44</title>
<polygon fill="none" stroke="#bfbfbf" points="1676,-286 1676,-305 1840,-305 1840,-286 1676,-286"/>
<text text-anchor="middle" x="1758" y="-293" font-family="Helvetica,sans-Serif" font-size="10.00">Framework/DataProcessorSpec.h</text>
</g>
<!-- Node39&#45;&gt;Node44 -->
<g id="edge60" class="edge"><title>Node39&#45;&gt;Node44</title>
<path fill="none" stroke="midnightblue" d="M1197.18,-352.994C1209.37,-350.804 1222.68,-348.613 1235,-347 1426.04,-321.997 1475.73,-334.175 1667,-311 1677.35,-309.746 1688.33,-308.191 1698.94,-306.569"/>
<polygon fill="midnightblue" stroke="midnightblue" points="1699.64,-310.003 1708.98,-305.001 1698.56,-303.087 1699.64,-310.003"/>
</g>
<!-- Node45 -->
<g id="node45" class="node"><title>Node45</title>
<polygon fill="none" stroke="#bfbfbf" points="1858.5,-286 1858.5,-305 2011.5,-305 2011.5,-286 1858.5,-286"/>
<text text-anchor="middle" x="1935" y="-293" font-family="Helvetica,sans-Serif" font-size="10.00">Framework/CompletionPolicy.h</text>
</g>
<!-- Node39&#45;&gt;Node45 -->
<g id="edge61" class="edge"><title>Node39&#45;&gt;Node45</title>
<path fill="none" stroke="midnightblue" d="M1196.32,-352.948C1208.74,-350.703 1222.37,-348.495 1235,-347 1506.46,-314.859 1577.38,-341.769 1849,-311 1859.04,-309.862 1869.69,-308.332 1879.96,-306.692"/>
<polygon fill="midnightblue" stroke="midnightblue" points="1880.75,-310.107 1890.05,-305.024 1879.61,-303.201 1880.75,-310.107"/>
</g>
</g>
</svg>
        <g id="navigator" transform="translate(0 0)" fill="#404254">
                <rect fill="#f2f5e9" fill-opacity="0.5" stroke="#606060" stroke-width=".5" x="0" y="0" width="60" height="60"/>
                <use id="zoomplus" xlink:href="#zoomPlus" x="17" y="9" onmousedown="handleZoom(evt,'in')"/>
                <use id="zoomminus" xlink:href="#zoomMin" x="42" y="9" onmousedown="handleZoom(evt,'out')"/>
                <use id="reset" xlink:href="#resetDef" x="30" y="36" onmousedown="handleReset()"/>
                <g id="arrowUp" xlink:href="#dirArrow" transform="translate(30 24)" onmousedown="handlePan(0,-1)">
                  <use xlink:href="#rim" fill="#404040">
                        <set attributeName="fill" to="#808080" begin="arrowUp.mouseover" end="arrowUp.mouseout"/>
                  </use>
                  <path fill="none" stroke="white" stroke-width="1.5" d="M0,-3.0v7 M-2.5,-0.5L0,-3.0L2.5,-0.5"/>
                </g>
                <g id="arrowRight" xlink:href="#dirArrow" transform="rotate(90) translate(36 -43)" onmousedown="handlePan(1,0)">
                  <use xlink:href="#rim" fill="#404040">
                        <set attributeName="fill" to="#808080" begin="arrowRight.mouseover" end="arrowRight.mouseout"/>
                  </use>
                  <path fill="none" stroke="white" stroke-width="1.5" d="M0,-3.0v7 M-2.5,-0.5L0,-3.0L2.5,-0.5"/>
                </g>
                <g id="arrowDown" xlink:href="#dirArrow" transform="rotate(180) translate(-30 -48)" onmousedown="handlePan(0,1)">
                  <use xlink:href="#rim" fill="#404040">
                        <set attributeName="fill" to="#808080" begin="arrowDown.mouseover" end="arrowDown.mouseout"/>
                  </use>
                  <path fill="none" stroke="white" stroke-width="1.5" d="M0,-3.0v7 M-2.5,-0.5L0,-3.0L2.5,-0.5"/>
                </g>
                <g id="arrowLeft" xlink:href="#dirArrow" transform="rotate(270) translate(-36 17)" onmousedown="handlePan(-1,0)">
                  <use xlink:href="#rim" fill="#404040">
                        <set attributeName="fill" to="#808080" begin="arrowLeft.mouseover" end="arrowLeft.mouseout"/>
                  </use>
                  <path fill="none" stroke="white" stroke-width="1.5" d="M0,-3.0v7 M-2.5,-0.5L0,-3.0L2.5,-0.5"/>
                </g>
        </g>
        <svg viewBox="0 0 15 15" width="100%" height="30px" preserveAspectRatio="xMaxYMin meet">
         <g id="arrow_out" transform="scale(0.3 0.3)">
          <a xlink:href="Checker_8cxx__incl_org.svg" target="_base">
           <rect id="button" ry="5" rx="5" y="6" x="6" height="38" width="38"
                fill="#f2f5e9" fill-opacity="0.5" stroke="#606060" stroke-width="1.0"/>
           <path id="arrow"
             d="M 11.500037,31.436501 C 11.940474,20.09759 22.043105,11.32322 32.158766,21.979434 L 37.068811,17.246167 C 37.068811,17.246167 37.088388,32 37.088388,32 L 22.160133,31.978069 C 22.160133,31.978069 26.997745,27.140456 26.997745,27.140456 C 18.528582,18.264221 13.291696,25.230495 11.500037,31.436501 z"
             style="fill:#404040;"/>
          </a>
         </g>
        </svg>
</svg>
