<?xml version="1.0" encoding="UTF-8" standalone="no"?>
<!DOCTYPE svg PUBLIC "-//W3C//DTD SVG 1.1//EN"
 "http://www.w3.org/Graphics/SVG/1.1/DTD/svg11.dtd">
<!-- Generated by graphviz version 2.38.0 (20140413.2041)
 -->
<!-- Title: Framework/src/CheckInterface.cxx Pages: 1 -->
<svg width="486pt" height="252pt"
 viewBox="0.00 0.00 485.50 252.00" xmlns="http://www.w3.org/2000/svg" xmlns:xlink="http://www.w3.org/1999/xlink">
<g id="graph0" class="graph" transform="scale(1 1) rotate(0) translate(4 248)">
<title>Framework/src/CheckInterface.cxx</title>
<!-- Node1 -->
<g id="node1" class="node"><title>Node1</title>
<polygon fill="#bfbfbf" stroke="black" points="307.5,-224.5 307.5,-243.5 477.5,-243.5 477.5,-224.5 307.5,-224.5"/>
<text text-anchor="middle" x="392.5" y="-231.5" font-family="Helvetica,sans-Serif" font-size="10.00">Framework/src/CheckInterface.cxx</text>
</g>
<!-- Node2 -->
<g id="node2" class="node"><title>Node2</title>
<g id="a_node2"><a xlink:href="CheckInterface_8h.html" target="_top" xlink:title="QualityControl/CheckInterface.h">
<polygon fill="none" stroke="black" points="207,-168.5 207,-187.5 364,-187.5 364,-168.5 207,-168.5"/>
<text text-anchor="middle" x="285.5" y="-175.5" font-family="Helvetica,sans-Serif" font-size="10.00">QualityControl/CheckInterface.h</text>
</a>
</g>
</g>
<!-- Node1&#45;&gt;Node2 -->
<g id="edge1" class="edge"><title>Node1&#45;&gt;Node2</title>
<path fill="none" stroke="midnightblue" d="M375.309,-224.324C358.149,-215.664 331.554,-202.242 311.753,-192.249"/>
<polygon fill="midnightblue" stroke="midnightblue" points="313.153,-189.035 302.649,-187.655 309.999,-195.285 313.153,-189.035"/>
</g>
<!-- Node4 -->
<g id="node4" class="node"><title>Node4</title>
<polygon fill="none" stroke="#bfbfbf" points="365.5,-56.5 365.5,-75.5 419.5,-75.5 419.5,-56.5 365.5,-56.5"/>
<text text-anchor="middle" x="392.5" y="-63.5" font-family="Helvetica,sans-Serif" font-size="10.00">iostream</text>
</g>
<!-- Node1&#45;&gt;Node4 -->
<g id="edge13" class="edge"><title>Node1&#45;&gt;Node4</title>
<path fill="none" stroke="midnightblue" d="M392.5,-224.075C392.5,-197.945 392.5,-121.211 392.5,-85.577"/>
<polygon fill="midnightblue" stroke="midnightblue" points="396,-85.5681 392.5,-75.5681 389,-85.5681 396,-85.5681"/>
</g>
<!-- Node11 -->
<g id="node11" class="node"><title>Node11</title>
<polygon fill="none" stroke="#bfbfbf" points="420.5,-168.5 420.5,-187.5 476.5,-187.5 476.5,-168.5 420.5,-168.5"/>
<text text-anchor="middle" x="448.5" y="-175.5" font-family="Helvetica,sans-Serif" font-size="10.00">TClass.h</text>
</g>
<!-- Node1&#45;&gt;Node11 -->
<g id="edge12" class="edge"><title>Node1&#45;&gt;Node11</title>
<path fill="none" stroke="midnightblue" d="M401.497,-224.324C409.694,-216.42 422.006,-204.548 431.972,-194.938"/>
<polygon fill="midnightblue" stroke="midnightblue" points="434.57,-197.295 439.339,-187.834 429.711,-192.256 434.57,-197.295"/>
</g>
<!-- Node3 -->
<g id="node3" class="node"><title>Node3</title>
<g id="a_node3"><a xlink:href="MonitorObject_8h.html" target="_top" xlink:title="QualityControl/MonitorObject.h">
<polygon fill="none" stroke="black" points="211,-112.5 211,-131.5 362,-131.5 362,-112.5 211,-112.5"/>
<text text-anchor="middle" x="286.5" y="-119.5" font-family="Helvetica,sans-Serif" font-size="10.00">QualityControl/MonitorObject.h</text>
</a>
</g>
</g>
<!-- Node2&#45;&gt;Node3 -->
<g id="edge2" class="edge"><title>Node2&#45;&gt;Node3</title>
<path fill="none" stroke="midnightblue" d="M285.665,-168.083C285.796,-161.006 285.984,-150.861 286.148,-141.986"/>
<polygon fill="midnightblue" stroke="midnightblue" points="289.652,-141.814 286.338,-131.751 282.653,-141.685 289.652,-141.814"/>
</g>
<!-- Node8 -->
<g id="node8" class="node"><title>Node8</title>
<g id="a_node8"><a xlink:href="Quality_8h.html" target="_top" xlink:title="QualityControl/Quality.h">
<polygon fill="none" stroke="black" points="0,-56.5 0,-75.5 121,-75.5 121,-56.5 0,-56.5"/>
<text text-anchor="middle" x="60.5" y="-63.5" font-family="Helvetica,sans-Serif" font-size="10.00">QualityControl/Quality.h</text>
</a>
</g>
</g>
<!-- Node2&#45;&gt;Node8 -->
<g id="edge11" class="edge"><title>Node2&#45;&gt;Node8</title>
<path fill="none" stroke="midnightblue" d="M267.845,-168.368C228.577,-149.171 133.813,-102.842 87.2422,-80.074"/>
<polygon fill="midnightblue" stroke="midnightblue" points="88.5945,-76.8392 78.0734,-75.5914 85.52,-83.1279 88.5945,-76.8392"/>
</g>
<!-- Node3&#45;&gt;Node4 -->
<g id="edge3" class="edge"><title>Node3&#45;&gt;Node4</title>
<path fill="none" stroke="midnightblue" d="M303.531,-112.324C320.53,-103.664 346.876,-90.2424 366.493,-80.249"/>
<polygon fill="midnightblue" stroke="midnightblue" points="368.19,-83.3125 375.512,-75.6545 365.012,-77.0752 368.19,-83.3125"/>
</g>
<!-- Node5 -->
<g id="node5" class="node"><title>Node5</title>
<polygon fill="none" stroke="#bfbfbf" points="274,-56.5 274,-75.5 309,-75.5 309,-56.5 274,-56.5"/>
<text text-anchor="middle" x="291.5" y="-63.5" font-family="Helvetica,sans-Serif" font-size="10.00">map</text>
</g>
<!-- Node3&#45;&gt;Node5 -->
<g id="edge4" class="edge"><title>Node3&#45;&gt;Node5</title>
<path fill="none" stroke="midnightblue" d="M287.326,-112.083C287.981,-105.006 288.92,-94.8611 289.742,-85.9865"/>
<polygon fill="midnightblue" stroke="midnightblue" points="293.253,-86.0312 290.69,-75.7511 286.283,-85.3858 293.253,-86.0312"/>
</g>
<!-- Node6 -->
<g id="node6" class="node"><title>Node6</title>
<polygon fill="none" stroke="#bfbfbf" points="220,-0.5 220,-19.5 279,-19.5 279,-0.5 220,-0.5"/>
<text text-anchor="middle" x="249.5" y="-7.5" font-family="Helvetica,sans-Serif" font-size="10.00">TObject.h</text>
</g>
<!-- Node3&#45;&gt;Node6 -->
<g id="edge5" class="edge"><title>Node3&#45;&gt;Node6</title>
<path fill="none" stroke="midnightblue" d="M296.138,-112.479C309.083,-99.9551 329.284,-75.9075 318.5,-56 310.751,-41.6958 296.266,-31.2188 282.56,-23.992"/>
<polygon fill="midnightblue" stroke="midnightblue" points="283.814,-20.7104 273.288,-19.501 280.762,-27.0103 283.814,-20.7104"/>
</g>
<!-- Node7 -->
<g id="node7" class="node"><title>Node7</title>
<polygon fill="none" stroke="#bfbfbf" points="139.5,-56.5 139.5,-75.5 255.5,-75.5 255.5,-56.5 139.5,-56.5"/>
<text text-anchor="middle" x="197.5" y="-63.5" font-family="Helvetica,sans-Serif" font-size="10.00">Common/Exceptions.h</text>
</g>
<!-- Node3&#45;&gt;Node7 -->
<g id="edge6" class="edge"><title>Node3&#45;&gt;Node7</title>
<path fill="none" stroke="midnightblue" d="M272.201,-112.324C258.317,-103.9 237.008,-90.9709 220.696,-81.0741"/>
<polygon fill="midnightblue" stroke="midnightblue" points="222.129,-77.8495 211.764,-75.6545 218.498,-83.8341 222.129,-77.8495"/>
</g>
<!-- Node3&#45;&gt;Node8 -->
<g id="edge7" class="edge"><title>Node3&#45;&gt;Node8</title>
<path fill="none" stroke="midnightblue" d="M250.69,-112.444C211.512,-103.083 148.623,-88.0561 105.985,-77.868"/>
<polygon fill="midnightblue" stroke="midnightblue" points="106.682,-74.4363 96.1428,-75.5164 105.056,-81.2446 106.682,-74.4363"/>
</g>
<!-- Node8&#45;&gt;Node6 -->
<g id="edge8" class="edge"><title>Node8&#45;&gt;Node6</title>
<path fill="none" stroke="midnightblue" d="M90.4476,-56.4435C122.658,-47.2406 174.034,-32.5617 209.642,-22.3879"/>
<polygon fill="midnightblue" stroke="midnightblue" points="211.039,-25.629 219.692,-19.5164 209.116,-18.8984 211.039,-25.629"/>
</g>
<!-- Node9 -->
<g id="node9" class="node"><title>Node9</title>
<polygon fill="none" stroke="#bfbfbf" points="2.5,-0.5 2.5,-19.5 54.5,-19.5 54.5,-0.5 2.5,-0.5"/>
<text text-anchor="middle" x="28.5" y="-7.5" font-family="Helvetica,sans-Serif" font-size="10.00">ostream</text>
</g>
<!-- Node8&#45;&gt;Node9 -->
<g id="edge9" class="edge"><title>Node8&#45;&gt;Node9</title>
<path fill="none" stroke="midnightblue" d="M55.2159,-56.083C50.789,-48.6127 44.3367,-37.7244 38.8821,-28.5199"/>
<polygon fill="midnightblue" stroke="midnightblue" points="41.7949,-26.5697 33.6858,-19.7511 35.7729,-30.1383 41.7949,-26.5697"/>
</g>
<!-- Node10 -->
<g id="node10" class="node"><title>Node10</title>
<polygon fill="none" stroke="#bfbfbf" points="73,-0.5 73,-19.5 114,-19.5 114,-0.5 73,-0.5"/>
<text text-anchor="middle" x="93.5" y="-7.5" font-family="Helvetica,sans-Serif" font-size="10.00">string</text>
</g>
<!-- Node8&#45;&gt;Node10 -->
<g id="edge10" class="edge"><title>Node8&#45;&gt;Node10</title>
<path fill="none" stroke="midnightblue" d="M65.9493,-56.083C70.5145,-48.6127 77.1684,-37.7244 82.7934,-28.5199"/>
<polygon fill="midnightblue" stroke="midnightblue" points="85.9241,-30.109 88.1521,-19.7511 79.9511,-26.4588 85.9241,-30.109"/>
</g>
</g>
</svg>
