<?xml version="1.0" encoding="UTF-8" standalone="no"?>
<!DOCTYPE svg PUBLIC "-//W3C//DTD SVG 1.1//EN"
 "http://www.w3.org/Graphics/SVG/1.1/DTD/svg11.dtd">
<!-- Generated by graphviz version 2.38.0 (20140413.2041)
 -->
<!-- Title: Framework/include/QualityControl/CheckInterface.h Pages: 1 -->
<!--zoomable 173 -->
<svg id="main" version="1.1" xmlns="http://www.w3.org/2000/svg" xmlns:xlink="http://www.w3.org/1999/xlink" xml:space="preserve" onload="init(evt)">
<style type="text/css"><![CDATA[
.edge:hover path { stroke: red; }
.edge:hover polygon { stroke: red; fill: red; }
]]></style>
<script type="text/javascript"><![CDATA[
var edges = document.getElementsByTagName('g');
if (edges && edges.length) {
  for (var i=0;i<edges.length;i++) {
    if (edges[i].id.substr(0,4)=='edge') {
      edges[i].setAttribute('class','edge');
    }
  }
}
]]></script>
        <defs>
                <circle id="rim" cx="0" cy="0" r="7"/>
                <circle id="rim2" cx="0" cy="0" r="3.5"/>
                <g id="zoomPlus">
                        <use xlink:href="#rim" fill="#404040">
                                <set attributeName="fill" to="#808080" begin="zoomplus.mouseover" end="zoomplus.mouseout"/>
                        </use>
                        <path d="M-4,0h8M0,-4v8" fill="none" stroke="white" stroke-width="1.5" pointer-events="none"/>
                </g>
                <g id="zoomMin">
                        <use xlink:href="#rim" fill="#404040">
                                <set attributeName="fill" to="#808080" begin="zoomminus.mouseover" end="zoomminus.mouseout"/>
                        </use>
                        <path d="M-4,0h8" fill="none" stroke="white" stroke-width="1.5" pointer-events="none"/>
                </g>
                <g id="dirArrow">
                        <path fill="none" stroke="white" stroke-width="1.5" d="M0,-3.0v7 M-2.5,-0.5L0,-3.0L2.5,-0.5"/>
                </g>
               <g id="resetDef">
                       <use xlink:href="#rim2" fill="#404040">
                               <set attributeName="fill" to="#808080" begin="reset.mouseover" end="reset.mouseout"/>
                       </use>
               </g>
        </defs>

<script type="text/javascript">
var viewWidth = 1833;
var viewHeight = 173;
var sectionId = 'dynsection-1';
</script>
<script xlink:href="svgpan.js"/>
<svg id="graph" class="graph">
<g id="viewport">
<title>Framework/include/QualityControl/CheckInterface.h</title>
<!-- Node1 -->
<g id="node1" class="node"><title>Node1</title>
<polygon fill="#bfbfbf" stroke="black" points="1149.5,-134.5 1149.5,-164.5 1282.5,-164.5 1282.5,-134.5 1149.5,-134.5"/>
<text text-anchor="start" x="1157.5" y="-152.5" font-family="Helvetica,sans-Serif" font-size="10.00">Framework/include/Quality</text>
<text text-anchor="middle" x="1216" y="-141.5" font-family="Helvetica,sans-Serif" font-size="10.00">Control/CheckInterface.h</text>
</g>
<!-- Node2 -->
<g id="node2" class="node"><title>Node2</title>
<g id="a_node2"><a xlink:href="Checker_8h.html" target="_top" xlink:title="Framework/include/Quality\lControl/Checker.h">
<polygon fill="none" stroke="black" points="441.5,-67.5 441.5,-97.5 574.5,-97.5 574.5,-67.5 441.5,-67.5"/>
<text text-anchor="start" x="449.5" y="-85.5" font-family="Helvetica,sans-Serif" font-size="10.00">Framework/include/Quality</text>
<text text-anchor="middle" x="508" y="-74.5" font-family="Helvetica,sans-Serif" font-size="10.00">Control/Checker.h</text>
</a>
</g>
</g>
<!-- Node1&#45;&gt;Node2 -->
<g id="edge1" class="edge"><title>Node1&#45;&gt;Node2</title>
<path fill="none" stroke="midnightblue" d="M1139.21,-141.45C999.597,-128.632 706.481,-101.722 574.687,-89.6224"/>
<polygon fill="midnightblue" stroke="midnightblue" points="1139.11,-144.956 1149.39,-142.385 1139.75,-137.985 1139.11,-144.956"/>
</g>
<!-- Node8 -->
<g id="node8" class="node"><title>Node8</title>
<g id="a_node8"><a xlink:href="CheckInterface_8cxx.html" target="_top" xlink:title="Framework/src/CheckInterface.cxx">
<polygon fill="none" stroke="black" points="807,-73 807,-92 977,-92 977,-73 807,-73"/>
<text text-anchor="middle" x="892" y="-80" font-family="Helvetica,sans-Serif" font-size="10.00">Framework/src/CheckInterface.cxx</text>
</a>
</g>
</g>
<!-- Node1&#45;&gt;Node8 -->
<g id="edge7" class="edge"><title>Node1&#45;&gt;Node8</title>
<path fill="none" stroke="midnightblue" d="M1139.21,-133.094C1075.18,-120.249 986.337,-102.426 934.433,-92.0127"/>
<polygon fill="midnightblue" stroke="midnightblue" points="1138.77,-136.575 1149.26,-135.111 1140.14,-129.712 1138.77,-136.575"/>
</g>
<!-- Node9 -->
<g id="node9" class="node"><title>Node9</title>
<g id="a_node9"><a xlink:href="MeanIsAbove_8h.html" target="_top" xlink:title="Modules/Common/include\l/Common/MeanIsAbove.h">
<polygon fill="none" stroke="black" points="995.5,-67.5 995.5,-97.5 1126.5,-97.5 1126.5,-67.5 995.5,-67.5"/>
<text text-anchor="start" x="1003.5" y="-85.5" font-family="Helvetica,sans-Serif" font-size="10.00">Modules/Common/include</text>
<text text-anchor="middle" x="1061" y="-74.5" font-family="Helvetica,sans-Serif" font-size="10.00">/Common/MeanIsAbove.h</text>
</a>
</g>
</g>
<!-- Node1&#45;&gt;Node9 -->
<g id="edge8" class="edge"><title>Node1&#45;&gt;Node9</title>
<path fill="none" stroke="midnightblue" d="M1172.85,-130.407C1148.11,-120.029 1117.5,-107.195 1094.57,-97.5765"/>
<polygon fill="midnightblue" stroke="midnightblue" points="1171.79,-133.756 1182.37,-134.396 1174.5,-127.301 1171.79,-133.756"/>
</g>
<!-- Node12 -->
<g id="node12" class="node"><title>Node12</title>
<g id="a_node12"><a xlink:href="NonEmpty_8h.html" target="_top" xlink:title="Modules/Common/include\l/Common/NonEmpty.h">
<polygon fill="none" stroke="black" points="1151,-67.5 1151,-97.5 1281,-97.5 1281,-67.5 1151,-67.5"/>
<text text-anchor="start" x="1159" y="-85.5" font-family="Helvetica,sans-Serif" font-size="10.00">Modules/Common/include</text>
<text text-anchor="middle" x="1216" y="-74.5" font-family="Helvetica,sans-Serif" font-size="10.00">/Common/NonEmpty.h</text>
</a>
</g>
</g>
<!-- Node1&#45;&gt;Node12 -->
<g id="edge11" class="edge"><title>Node1&#45;&gt;Node12</title>
<path fill="none" stroke="midnightblue" d="M1216,-124.108C1216,-115.154 1216,-105.323 1216,-97.5765"/>
<polygon fill="midnightblue" stroke="midnightblue" points="1212.5,-124.396 1216,-134.396 1219.5,-124.396 1212.5,-124.396"/>
</g>
<!-- Node15 -->
<g id="node15" class="node"><title>Node15</title>
<g id="a_node15"><a xlink:href="EverIncreasingGraph_8h.html" target="_top" xlink:title="Modules/Daq/include\l/Daq/EverIncreasingGraph.h">
<polygon fill="none" stroke="black" points="1311,-67.5 1311,-97.5 1451,-97.5 1451,-67.5 1311,-67.5"/>
<text text-anchor="start" x="1319" y="-85.5" font-family="Helvetica,sans-Serif" font-size="10.00">Modules/Daq/include</text>
<text text-anchor="middle" x="1381" y="-74.5" font-family="Helvetica,sans-Serif" font-size="10.00">/Daq/EverIncreasingGraph.h</text>
</a>
</g>
</g>
<!-- Node1&#45;&gt;Node15 -->
<g id="edge14" class="edge"><title>Node1&#45;&gt;Node15</title>
<path fill="none" stroke="midnightblue" d="M1261.23,-130.682C1287.69,-120.257 1320.63,-107.281 1345.27,-97.5765"/>
<polygon fill="midnightblue" stroke="midnightblue" points="1259.82,-127.474 1251.8,-134.396 1262.39,-133.987 1259.82,-127.474"/>
</g>
<!-- Node17 -->
<g id="node17" class="node"><title>Node17</title>
<g id="a_node17"><a xlink:href="FakeCheck_8h.html" target="_top" xlink:title="Modules/Example/include\l/Example/FakeCheck.h">
<polygon fill="none" stroke="black" points="1494,-67.5 1494,-97.5 1622,-97.5 1622,-67.5 1494,-67.5"/>
<text text-anchor="start" x="1502" y="-85.5" font-family="Helvetica,sans-Serif" font-size="10.00">Modules/Example/include</text>
<text text-anchor="middle" x="1558" y="-74.5" font-family="Helvetica,sans-Serif" font-size="10.00">/Example/FakeCheck.h</text>
</a>
</g>
</g>
<!-- Node1&#45;&gt;Node17 -->
<g id="edge16" class="edge"><title>Node1&#45;&gt;Node17</title>
<path fill="none" stroke="midnightblue" d="M1292.64,-133.934C1353.17,-122.43 1436.66,-106.561 1493.73,-95.7147"/>
<polygon fill="midnightblue" stroke="midnightblue" points="1291.92,-130.507 1282.75,-135.813 1293.23,-137.384 1291.92,-130.507"/>
</g>
<!-- Node19 -->
<g id="node19" class="node"><title>Node19</title>
<g id="a_node19"><a xlink:href="SkeletonCheck_8h.html" target="_top" xlink:title="Modules/Skeleton/include\l/Skeleton/SkeletonCheck.h">
<polygon fill="none" stroke="black" points="1689,-67.5 1689,-97.5 1825,-97.5 1825,-67.5 1689,-67.5"/>
<text text-anchor="start" x="1697" y="-85.5" font-family="Helvetica,sans-Serif" font-size="10.00">Modules/Skeleton/include</text>
<text text-anchor="middle" x="1757" y="-74.5" font-family="Helvetica,sans-Serif" font-size="10.00">/Skeleton/SkeletonCheck.h</text>
</a>
</g>
</g>
<!-- Node1&#45;&gt;Node19 -->
<g id="edge18" class="edge"><title>Node1&#45;&gt;Node19</title>
<path fill="none" stroke="midnightblue" d="M1292.58,-139.299C1398.43,-126.582 1587.78,-103.831 1688.92,-91.6797"/>
<polygon fill="midnightblue" stroke="midnightblue" points="1292.12,-135.829 1282.61,-140.497 1292.95,-142.779 1292.12,-135.829"/>
</g>
<!-- Node3 -->
<g id="node3" class="node"><title>Node3</title>
<g id="a_node3"><a xlink:href="Checker_8cxx.html" target="_top" xlink:title="Framework/src/Checker.cxx">
<polygon fill="none" stroke="black" points="0,-6 0,-25 140,-25 140,-6 0,-6"/>
<text text-anchor="middle" x="70" y="-13" font-family="Helvetica,sans-Serif" font-size="10.00">Framework/src/Checker.cxx</text>
</a>
</g>
</g>
<!-- Node2&#45;&gt;Node3 -->
<g id="edge2" class="edge"><title>Node2&#45;&gt;Node3</title>
<path fill="none" stroke="midnightblue" d="M431.377,-71.6645C358.597,-62.0992 246.167,-46.7444 149,-31 137.85,-29.1934 125.848,-27.0784 114.648,-25.031"/>
<polygon fill="midnightblue" stroke="midnightblue" points="431.008,-75.1459 441.378,-72.9752 431.918,-68.2053 431.008,-75.1459"/>
</g>
<!-- Node4 -->
<g id="node4" class="node"><title>Node4</title>
<g id="a_node4"><a xlink:href="CheckerFactory_8cxx.html" target="_top" xlink:title="Framework/src/CheckerFactory.cxx">
<polygon fill="none" stroke="black" points="158.5,-6 158.5,-25 331.5,-25 331.5,-6 158.5,-6"/>
<text text-anchor="middle" x="245" y="-13" font-family="Helvetica,sans-Serif" font-size="10.00">Framework/src/CheckerFactory.cxx</text>
</a>
</g>
</g>
<!-- Node2&#45;&gt;Node4 -->
<g id="edge3" class="edge"><title>Node2&#45;&gt;Node4</title>
<path fill="none" stroke="midnightblue" d="M441.519,-65.0694C389.945,-52.3228 320.539,-35.1694 279.508,-25.0287"/>
<polygon fill="midnightblue" stroke="midnightblue" points="440.709,-68.4744 451.257,-67.476 442.389,-61.6789 440.709,-68.4744"/>
</g>
<!-- Node5 -->
<g id="node5" class="node"><title>Node5</title>
<g id="a_node5"><a xlink:href="runBasic_8cxx.html" target="_top" xlink:title="This is an executable showing QC Task&#39;s usage in Data Processing Layer. ">
<polygon fill="none" stroke="black" points="350,-6 350,-25 492,-25 492,-6 350,-6"/>
<text text-anchor="middle" x="421" y="-13" font-family="Helvetica,sans-Serif" font-size="10.00">Framework/src/runBasic.cxx</text>
</a>
</g>
</g>
<!-- Node2&#45;&gt;Node5 -->
<g id="edge4" class="edge"><title>Node2&#45;&gt;Node5</title>
<path fill="none" stroke="midnightblue" d="M481.02,-61.3425C464.785,-49.2128 444.944,-34.389 432.637,-25.1945"/>
<polygon fill="midnightblue" stroke="midnightblue" points="479.016,-64.2145 489.122,-67.396 483.206,-58.6068 479.016,-64.2145"/>
</g>
<!-- Node6 -->
<g id="node6" class="node"><title>Node6</title>
<g id="a_node6"><a xlink:href="runMergerTest_8cxx.html" target="_top" xlink:title="This is DPL workflow to see HistoMerger in action. ">
<polygon fill="none" stroke="black" points="510.5,-6 510.5,-25 677.5,-25 677.5,-6 510.5,-6"/>
<text text-anchor="middle" x="594" y="-13" font-family="Helvetica,sans-Serif" font-size="10.00">Framework/src/runMergerTest.cxx</text>
</a>
</g>
</g>
<!-- Node2&#45;&gt;Node6 -->
<g id="edge5" class="edge"><title>Node2&#45;&gt;Node6</title>
<path fill="none" stroke="midnightblue" d="M534.67,-61.3425C550.719,-49.2128 570.332,-34.389 582.496,-25.1945"/>
<polygon fill="midnightblue" stroke="midnightblue" points="532.528,-58.5741 526.661,-67.396 536.749,-64.1585 532.528,-58.5741"/>
</g>
<!-- Node7 -->
<g id="node7" class="node"><title>Node7</title>
<g id="a_node7"><a xlink:href="runReadout_8cxx.html" target="_top" xlink:title="This is an executable showing QC Task&#39;s usage in Data Processing Layer with Readout as external data ...">
<polygon fill="none" stroke="black" points="696,-6 696,-25 850,-25 850,-6 696,-6"/>
<text text-anchor="middle" x="773" y="-13" font-family="Helvetica,sans-Serif" font-size="10.00">Framework/src/runReadout.cxx</text>
</a>
</g>
</g>
<!-- Node2&#45;&gt;Node7 -->
<g id="edge6" class="edge"><title>Node2&#45;&gt;Node7</title>
<path fill="none" stroke="midnightblue" d="M574.986,-65.0694C626.953,-52.3228 696.886,-35.1694 738.229,-25.0287"/>
<polygon fill="midnightblue" stroke="midnightblue" points="574.053,-61.6945 565.175,-67.476 575.721,-68.4929 574.053,-61.6945"/>
</g>
<!-- Node10 -->
<g id="node10" class="node"><title>Node10</title>
<g id="a_node10"><a xlink:href="MeanIsAbove_8cxx.html" target="_top" xlink:title="Modules/Common/src\l/MeanIsAbove.cxx">
<polygon fill="none" stroke="black" points="868.5,-0.5 868.5,-30.5 981.5,-30.5 981.5,-0.5 868.5,-0.5"/>
<text text-anchor="start" x="876.5" y="-18.5" font-family="Helvetica,sans-Serif" font-size="10.00">Modules/Common/src</text>
<text text-anchor="middle" x="925" y="-7.5" font-family="Helvetica,sans-Serif" font-size="10.00">/MeanIsAbove.cxx</text>
</a>
</g>
</g>
<!-- Node9&#45;&gt;Node10 -->
<g id="edge9" class="edge"><title>Node9&#45;&gt;Node10</title>
<path fill="none" stroke="midnightblue" d="M1022.28,-62.9921C1000.72,-52.6892 974.311,-40.0677 954.452,-30.5765"/>
<polygon fill="midnightblue" stroke="midnightblue" points="1020.96,-66.2416 1031.49,-67.396 1023.98,-59.9258 1020.96,-66.2416"/>
</g>
<!-- Node11 -->
<g id="node11" class="node"><title>Node11</title>
<polygon fill="none" stroke="#bfbfbf" points="1000,-0.5 1000,-30.5 1116,-30.5 1116,-0.5 1000,-0.5"/>
<text text-anchor="start" x="1008" y="-18.5" font-family="Helvetica,sans-Serif" font-size="10.00">Modules/Common/test</text>
<text text-anchor="middle" x="1058" y="-7.5" font-family="Helvetica,sans-Serif" font-size="10.00">/testMeanIsAbove.cxx</text>
</g>
<!-- Node9&#45;&gt;Node11 -->
<g id="edge10" class="edge"><title>Node9&#45;&gt;Node11</title>
<path fill="none" stroke="midnightblue" d="M1059.89,-57.4029C1059.47,-48.3703 1059.01,-38.4078 1058.65,-30.5765"/>
<polygon fill="midnightblue" stroke="midnightblue" points="1056.39,-57.568 1060.35,-67.396 1063.38,-57.2452 1056.39,-57.568"/>
</g>
<!-- Node13 -->
<g id="node13" class="node"><title>Node13</title>
<g id="a_node13"><a xlink:href="NonEmpty_8cxx.html" target="_top" xlink:title="Modules/Common/src\l/NonEmpty.cxx">
<polygon fill="none" stroke="black" points="1134.5,-0.5 1134.5,-30.5 1247.5,-30.5 1247.5,-0.5 1134.5,-0.5"/>
<text text-anchor="start" x="1142.5" y="-18.5" font-family="Helvetica,sans-Serif" font-size="10.00">Modules/Common/src</text>
<text text-anchor="middle" x="1191" y="-7.5" font-family="Helvetica,sans-Serif" font-size="10.00">/NonEmpty.cxx</text>
</a>
</g>
</g>
<!-- Node12&#45;&gt;Node13 -->
<g id="edge12" class="edge"><title>Node12&#45;&gt;Node13</title>
<path fill="none" stroke="midnightblue" d="M1206.96,-57.9907C1203.42,-48.8044 1199.49,-38.5781 1196.41,-30.5765"/>
<polygon fill="midnightblue" stroke="midnightblue" points="1203.72,-59.319 1210.58,-67.396 1210.25,-56.8061 1203.72,-59.319"/>
</g>
<!-- Node14 -->
<g id="node14" class="node"><title>Node14</title>
<g id="a_node14"><a xlink:href="testNonEmpty_8cxx.html" target="_top" xlink:title="Modules/Common/test\l/testNonEmpty.cxx">
<polygon fill="none" stroke="black" points="1266,-0.5 1266,-30.5 1382,-30.5 1382,-0.5 1266,-0.5"/>
<text text-anchor="start" x="1274" y="-18.5" font-family="Helvetica,sans-Serif" font-size="10.00">Modules/Common/test</text>
<text text-anchor="middle" x="1324" y="-7.5" font-family="Helvetica,sans-Serif" font-size="10.00">/testNonEmpty.cxx</text>
</a>
</g>
</g>
<!-- Node12&#45;&gt;Node14 -->
<g id="edge13" class="edge"><title>Node12&#45;&gt;Node14</title>
<path fill="none" stroke="midnightblue" d="M1248.37,-62.0151C1265.18,-51.8999 1285.34,-39.7698 1300.61,-30.5765"/>
<polygon fill="midnightblue" stroke="midnightblue" points="1246.2,-59.2405 1239.43,-67.396 1249.81,-65.2381 1246.2,-59.2405"/>
</g>
<!-- Node16 -->
<g id="node16" class="node"><title>Node16</title>
<g id="a_node16"><a xlink:href="EverIncreasingGraph_8cxx.html" target="_top" xlink:title="Modules/Daq/src/EverIncreasing\lGraph.cxx">
<polygon fill="none" stroke="black" points="1399.5,-0.5 1399.5,-30.5 1558.5,-30.5 1558.5,-0.5 1399.5,-0.5"/>
<text text-anchor="start" x="1407.5" y="-18.5" font-family="Helvetica,sans-Serif" font-size="10.00">Modules/Daq/src/EverIncreasing</text>
<text text-anchor="middle" x="1479" y="-7.5" font-family="Helvetica,sans-Serif" font-size="10.00">Graph.cxx</text>
</a>
</g>
</g>
<!-- Node15&#45;&gt;Node16 -->
<g id="edge15" class="edge"><title>Node15&#45;&gt;Node16</title>
<path fill="none" stroke="midnightblue" d="M1410.8,-61.7337C1425.97,-51.6755 1444.04,-39.6847 1457.78,-30.5765"/>
<polygon fill="midnightblue" stroke="midnightblue" points="1408.66,-58.9518 1402.26,-67.396 1412.53,-64.7853 1408.66,-58.9518"/>
</g>
<!-- Node18 -->
<g id="node18" class="node"><title>Node18</title>
<g id="a_node18"><a xlink:href="FakeCheck_8cxx.html" target="_top" xlink:title="Modules/Example/src\l/FakeCheck.cxx">
<polygon fill="none" stroke="black" points="1576.5,-0.5 1576.5,-30.5 1687.5,-30.5 1687.5,-0.5 1576.5,-0.5"/>
<text text-anchor="start" x="1584.5" y="-18.5" font-family="Helvetica,sans-Serif" font-size="10.00">Modules/Example/src</text>
<text text-anchor="middle" x="1632" y="-7.5" font-family="Helvetica,sans-Serif" font-size="10.00">/FakeCheck.cxx</text>
</a>
</g>
</g>
<!-- Node17&#45;&gt;Node18 -->
<g id="edge17" class="edge"><title>Node17&#45;&gt;Node18</title>
<path fill="none" stroke="midnightblue" d="M1581.8,-60.5978C1592.97,-50.7831 1605.99,-39.3442 1615.97,-30.5765"/>
<polygon fill="midnightblue" stroke="midnightblue" points="1579.26,-58.1669 1574.06,-67.396 1583.88,-63.4261 1579.26,-58.1669"/>
</g>
<!-- Node20 -->
<g id="node20" class="node"><title>Node20</title>
<g id="a_node20"><a xlink:href="SkeletonCheck_8cxx.html" target="_top" xlink:title="Modules/Skeleton/src\l/SkeletonCheck.cxx">
<polygon fill="none" stroke="black" points="1705.5,-0.5 1705.5,-30.5 1816.5,-30.5 1816.5,-0.5 1705.5,-0.5"/>
<text text-anchor="start" x="1713.5" y="-18.5" font-family="Helvetica,sans-Serif" font-size="10.00">Modules/Skeleton/src</text>
<text text-anchor="middle" x="1761" y="-7.5" font-family="Helvetica,sans-Serif" font-size="10.00">/SkeletonCheck.cxx</text>
</a>
</g>
</g>
<!-- Node19&#45;&gt;Node20 -->
<g id="edge19" class="edge"><title>Node19&#45;&gt;Node20</title>
<path fill="none" stroke="midnightblue" d="M1758.48,-57.4029C1759.04,-48.3703 1759.65,-38.4078 1760.13,-30.5765"/>
<polygon fill="midnightblue" stroke="midnightblue" points="1754.99,-57.1998 1757.87,-67.396 1761.98,-57.6299 1754.99,-57.1998"/>
</g>
</g>
</svg>
        <g id="navigator" transform="translate(0 0)" fill="#404254">
                <rect fill="#f2f5e9" fill-opacity="0.5" stroke="#606060" stroke-width=".5" x="0" y="0" width="60" height="60"/>
                <use id="zoomplus" xlink:href="#zoomPlus" x="17" y="9" onmousedown="handleZoom(evt,'in')"/>
                <use id="zoomminus" xlink:href="#zoomMin" x="42" y="9" onmousedown="handleZoom(evt,'out')"/>
                <use id="reset" xlink:href="#resetDef" x="30" y="36" onmousedown="handleReset()"/>
                <g id="arrowUp" xlink:href="#dirArrow" transform="translate(30 24)" onmousedown="handlePan(0,-1)">
                  <use xlink:href="#rim" fill="#404040">
                        <set attributeName="fill" to="#808080" begin="arrowUp.mouseover" end="arrowUp.mouseout"/>
                  </use>
                  <path fill="none" stroke="white" stroke-width="1.5" d="M0,-3.0v7 M-2.5,-0.5L0,-3.0L2.5,-0.5"/>
                </g>
                <g id="arrowRight" xlink:href="#dirArrow" transform="rotate(90) translate(36 -43)" onmousedown="handlePan(1,0)">
                  <use xlink:href="#rim" fill="#404040">
                        <set attributeName="fill" to="#808080" begin="arrowRight.mouseover" end="arrowRight.mouseout"/>
                  </use>
                  <path fill="none" stroke="white" stroke-width="1.5" d="M0,-3.0v7 M-2.5,-0.5L0,-3.0L2.5,-0.5"/>
                </g>
                <g id="arrowDown" xlink:href="#dirArrow" transform="rotate(180) translate(-30 -48)" onmousedown="handlePan(0,1)">
                  <use xlink:href="#rim" fill="#404040">
                        <set attributeName="fill" to="#808080" begin="arrowDown.mouseover" end="arrowDown.mouseout"/>
                  </use>
                  <path fill="none" stroke="white" stroke-width="1.5" d="M0,-3.0v7 M-2.5,-0.5L0,-3.0L2.5,-0.5"/>
                </g>
                <g id="arrowLeft" xlink:href="#dirArrow" transform="rotate(270) translate(-36 17)" onmousedown="handlePan(-1,0)">
                  <use xlink:href="#rim" fill="#404040">
                        <set attributeName="fill" to="#808080" begin="arrowLeft.mouseover" end="arrowLeft.mouseout"/>
                  </use>
                  <path fill="none" stroke="white" stroke-width="1.5" d="M0,-3.0v7 M-2.5,-0.5L0,-3.0L2.5,-0.5"/>
                </g>
        </g>
        <svg viewBox="0 0 15 15" width="100%" height="30px" preserveAspectRatio="xMaxYMin meet">
         <g id="arrow_out" transform="scale(0.3 0.3)">
          <a xlink:href="CheckInterface_8h__dep__incl_org.svg" target="_base">
           <rect id="button" ry="5" rx="5" y="6" x="6" height="38" width="38"
                fill="#f2f5e9" fill-opacity="0.5" stroke="#606060" stroke-width="1.0"/>
           <path id="arrow"
             d="M 11.500037,31.436501 C 11.940474,20.09759 22.043105,11.32322 32.158766,21.979434 L 37.068811,17.246167 C 37.068811,17.246167 37.088388,32 37.088388,32 L 22.160133,31.978069 C 22.160133,31.978069 26.997745,27.140456 26.997745,27.140456 C 18.528582,18.264221 13.291696,25.230495 11.500037,31.436501 z"
             style="fill:#404040;"/>
          </a>
         </g>
        </svg>
</svg>
