<?xml version="1.0" encoding="UTF-8" standalone="no"?>
<!DOCTYPE svg PUBLIC "-//W3C//DTD SVG 1.1//EN"
 "http://www.w3.org/Graphics/SVG/1.1/DTD/svg11.dtd">
<!-- Generated by graphviz version 2.38.0 (20140413.2041)
 -->
<!-- Title: Framework/include/QualityControl/Checker.h Pages: 1 -->
<!--zoomable 386 -->
<svg id="main" version="1.1" xmlns="http://www.w3.org/2000/svg" xmlns:xlink="http://www.w3.org/1999/xlink" xml:space="preserve" onload="init(evt)">
<style type="text/css"><![CDATA[
.edge:hover path { stroke: red; }
.edge:hover polygon { stroke: red; fill: red; }
]]></style>
<script type="text/javascript"><![CDATA[
var edges = document.getElementsByTagName('g');
if (edges && edges.length) {
  for (var i=0;i<edges.length;i++) {
    if (edges[i].id.substr(0,4)=='edge') {
      edges[i].setAttribute('class','edge');
    }
  }
}
]]></script>
        <defs>
                <circle id="rim" cx="0" cy="0" r="7"/>
                <circle id="rim2" cx="0" cy="0" r="3.5"/>
                <g id="zoomPlus">
                        <use xlink:href="#rim" fill="#404040">
                                <set attributeName="fill" to="#808080" begin="zoomplus.mouseover" end="zoomplus.mouseout"/>
                        </use>
                        <path d="M-4,0h8M0,-4v8" fill="none" stroke="white" stroke-width="1.5" pointer-events="none"/>
                </g>
                <g id="zoomMin">
                        <use xlink:href="#rim" fill="#404040">
                                <set attributeName="fill" to="#808080" begin="zoomminus.mouseover" end="zoomminus.mouseout"/>
                        </use>
                        <path d="M-4,0h8" fill="none" stroke="white" stroke-width="1.5" pointer-events="none"/>
                </g>
                <g id="dirArrow">
                        <path fill="none" stroke="white" stroke-width="1.5" d="M0,-3.0v7 M-2.5,-0.5L0,-3.0L2.5,-0.5"/>
                </g>
               <g id="resetDef">
                       <use xlink:href="#rim2" fill="#404040">
                               <set attributeName="fill" to="#808080" begin="reset.mouseover" end="reset.mouseout"/>
                       </use>
               </g>
        </defs>

<script type="text/javascript">
var viewWidth = 1781;
var viewHeight = 386;
var sectionId = 'dynsection-0';
</script>
<script xlink:href="svgpan.js"/>
<svg id="graph" class="graph">
<g id="viewport">
<title>Framework/include/QualityControl/Checker.h</title>
<!-- Node1 -->
<g id="node1" class="node"><title>Node1</title>
<polygon fill="#bfbfbf" stroke="black" points="419.5,-347.5 419.5,-377.5 552.5,-377.5 552.5,-347.5 419.5,-347.5"/>
<text text-anchor="start" x="427.5" y="-365.5" font-family="Helvetica,sans-Serif" font-size="10.00">Framework/include/Quality</text>
<text text-anchor="middle" x="486" y="-354.5" font-family="Helvetica,sans-Serif" font-size="10.00">Control/Checker.h</text>
</g>
<!-- Node2 -->
<g id="node2" class="node"><title>Node2</title>
<polygon fill="none" stroke="#bfbfbf" points="0,-286 0,-305 46,-305 46,-286 0,-286"/>
<text text-anchor="middle" x="23" y="-293" font-family="Helvetica,sans-Serif" font-size="10.00">chrono</text>
</g>
<!-- Node1&#45;&gt;Node2 -->
<g id="edge1" class="edge"><title>Node1&#45;&gt;Node2</title>
<path fill="none" stroke="midnightblue" d="M419.373,-358.862C334.713,-354.318 184.612,-342.254 60,-311 57.3316,-310.331 54.5967,-309.518 51.8809,-308.623"/>
<polygon fill="midnightblue" stroke="midnightblue" points="52.8751,-305.26 42.2811,-305.129 50.4812,-311.838 52.8751,-305.26"/>
</g>
<!-- Node3 -->
<g id="node3" class="node"><title>Node3</title>
<polygon fill="none" stroke="#bfbfbf" points="674,-168.5 674,-187.5 726,-187.5 726,-168.5 674,-168.5"/>
<text text-anchor="middle" x="700" y="-175.5" font-family="Helvetica,sans-Serif" font-size="10.00">memory</text>
</g>
<!-- Node1&#45;&gt;Node3 -->
<g id="edge2" class="edge"><title>Node1&#45;&gt;Node3</title>
<path fill="none" stroke="midnightblue" d="M552.606,-356.862C588.312,-351.071 630.664,-338.409 659,-311 690.531,-280.5 697.937,-226.247 699.594,-197.719"/>
<polygon fill="midnightblue" stroke="midnightblue" points="703.1,-197.653 700,-187.522 696.105,-197.375 703.1,-197.653"/>
</g>
<!-- Node4 -->
<g id="node4" class="node"><title>Node4</title>
<polygon fill="none" stroke="#bfbfbf" points="102,-286 102,-305 194,-305 194,-286 102,-286"/>
<text text-anchor="middle" x="148" y="-293" font-family="Helvetica,sans-Serif" font-size="10.00">Common/Timer.h</text>
</g>
<!-- Node1&#45;&gt;Node4 -->
<g id="edge3" class="edge"><title>Node1&#45;&gt;Node4</title>
<path fill="none" stroke="midnightblue" d="M419.368,-351.178C361.828,-341.89 276.591,-327.238 203,-311 198.305,-309.964 193.407,-308.798 188.552,-307.588"/>
<polygon fill="midnightblue" stroke="midnightblue" points="189.283,-304.162 178.727,-305.072 187.546,-310.943 189.283,-304.162"/>
</g>
<!-- Node5 -->
<g id="node5" class="node"><title>Node5</title>
<polygon fill="none" stroke="#bfbfbf" points="212.5,-280.5 212.5,-310.5 347.5,-310.5 347.5,-280.5 212.5,-280.5"/>
<text text-anchor="start" x="220.5" y="-298.5" font-family="Helvetica,sans-Serif" font-size="10.00">Configuration/Configuration</text>
<text text-anchor="middle" x="280" y="-287.5" font-family="Helvetica,sans-Serif" font-size="10.00">Interface.h</text>
</g>
<!-- Node1&#45;&gt;Node5 -->
<g id="edge4" class="edge"><title>Node1&#45;&gt;Node5</title>
<path fill="none" stroke="midnightblue" d="M441.555,-347.476C410.12,-337.557 367.791,-324.201 334.346,-313.648"/>
<polygon fill="midnightblue" stroke="midnightblue" points="335.31,-310.282 324.721,-310.611 333.204,-316.958 335.31,-310.282"/>
</g>
<!-- Node6 -->
<g id="node6" class="node"><title>Node6</title>
<polygon fill="none" stroke="#bfbfbf" points="366,-286 366,-305 464,-305 464,-286 366,-286"/>
<text text-anchor="middle" x="415" y="-293" font-family="Helvetica,sans-Serif" font-size="10.00">Framework/Task.h</text>
</g>
<!-- Node1&#45;&gt;Node6 -->
<g id="edge5" class="edge"><title>Node1&#45;&gt;Node6</title>
<path fill="none" stroke="midnightblue" d="M470.594,-347.396C459.195,-336.96 443.674,-322.751 431.928,-311.998"/>
<polygon fill="midnightblue" stroke="midnightblue" points="434.236,-309.366 424.497,-305.195 429.51,-314.529 434.236,-309.366"/>
</g>
<!-- Node7 -->
<g id="node7" class="node"><title>Node7</title>
<polygon fill="none" stroke="#bfbfbf" points="482.5,-286 482.5,-305 633.5,-305 633.5,-286 482.5,-286"/>
<text text-anchor="middle" x="558" y="-293" font-family="Helvetica,sans-Serif" font-size="10.00">Monitoring/MonitoringFactory.h</text>
</g>
<!-- Node1&#45;&gt;Node7 -->
<g id="edge6" class="edge"><title>Node1&#45;&gt;Node7</title>
<path fill="none" stroke="midnightblue" d="M501.623,-347.396C513.183,-336.96 528.922,-322.751 540.833,-311.998"/>
<polygon fill="midnightblue" stroke="midnightblue" points="543.292,-314.494 548.369,-305.195 538.601,-309.298 543.292,-314.494"/>
</g>
<!-- Node8 -->
<g id="node8" class="node"><title>Node8</title>
<g id="a_node8"><a xlink:href="CheckInterface_8h.html" target="_top" xlink:title="QualityControl/CheckInterface.h">
<polygon fill="none" stroke="black" points="1311.5,-168.5 1311.5,-187.5 1468.5,-187.5 1468.5,-168.5 1311.5,-168.5"/>
<text text-anchor="middle" x="1390" y="-175.5" font-family="Helvetica,sans-Serif" font-size="10.00">QualityControl/CheckInterface.h</text>
</a>
</g>
</g>
<!-- Node1&#45;&gt;Node8 -->
<g id="edge7" class="edge"><title>Node1&#45;&gt;Node8</title>
<path fill="none" stroke="midnightblue" d="M552.645,-357.281C639.46,-351.008 795.664,-337.059 927,-311 1090.2,-278.618 1279.55,-216.783 1355.7,-190.879"/>
<polygon fill="midnightblue" stroke="midnightblue" points="1356.93,-194.158 1365.26,-187.613 1354.66,-187.534 1356.93,-194.158"/>
</g>
<!-- Node9 -->
<g id="node9" class="node"><title>Node9</title>
<g id="a_node9"><a xlink:href="MonitorObject_8h.html" target="_top" xlink:title="QualityControl/MonitorObject.h">
<polygon fill="none" stroke="black" points="574.5,-112.5 574.5,-131.5 725.5,-131.5 725.5,-112.5 574.5,-112.5"/>
<text text-anchor="middle" x="650" y="-119.5" font-family="Helvetica,sans-Serif" font-size="10.00">QualityControl/MonitorObject.h</text>
</a>
</g>
</g>
<!-- Node1&#45;&gt;Node9 -->
<g id="edge22" class="edge"><title>Node1&#45;&gt;Node9</title>
<path fill="none" stroke="midnightblue" d="M419.086,-357.652C312.549,-350.835 114.156,-335.049 93,-311 83.8996,-300.655 84.6835,-290.985 93,-280 151.351,-202.928 436.709,-153.013 574.822,-132.977"/>
<polygon fill="midnightblue" stroke="midnightblue" points="575.508,-136.414 584.909,-131.529 574.513,-129.485 575.508,-136.414"/>
</g>
<!-- Node17 -->
<g id="node17" class="node"><title>Node17</title>
<g id="a_node17"><a xlink:href="DatabaseInterface_8h.html" target="_top" xlink:title="QualityControl/DatabaseInterface.h">
<polygon fill="none" stroke="black" points="502,-224.5 502,-243.5 672,-243.5 672,-224.5 502,-224.5"/>
<text text-anchor="middle" x="587" y="-231.5" font-family="Helvetica,sans-Serif" font-size="10.00">QualityControl/DatabaseInterface.h</text>
</a>
</g>
</g>
<!-- Node1&#45;&gt;Node17 -->
<g id="edge18" class="edge"><title>Node1&#45;&gt;Node17</title>
<path fill="none" stroke="midnightblue" d="M552.689,-357.561C585.184,-351.872 621.571,-339.086 642,-311 650.104,-299.858 647.9,-292.451 642,-280 635.872,-267.068 624.006,-256.617 612.859,-249.053"/>
<polygon fill="midnightblue" stroke="midnightblue" points="614.528,-245.968 604.198,-243.614 610.805,-251.896 614.528,-245.968"/>
</g>
<!-- Node19 -->
<g id="node19" class="node"><title>Node19</title>
<g id="a_node19"><a xlink:href="QcInfoLogger_8h.html" target="_top" xlink:title="QualityControl/QcInfoLogger.h">
<polygon fill="none" stroke="black" points="769.5,-286 769.5,-305 918.5,-305 918.5,-286 769.5,-286"/>
<text text-anchor="middle" x="844" y="-293" font-family="Helvetica,sans-Serif" font-size="10.00">QualityControl/QcInfoLogger.h</text>
</a>
</g>
</g>
<!-- Node1&#45;&gt;Node19 -->
<g id="edge23" class="edge"><title>Node1&#45;&gt;Node19</title>
<path fill="none" stroke="midnightblue" d="M552.917,-349.35C620.441,-337.09 723.571,-318.366 787.227,-306.808"/>
<polygon fill="midnightblue" stroke="midnightblue" points="787.879,-310.247 797.093,-305.017 786.628,-303.36 787.879,-310.247"/>
</g>
<!-- Node8&#45;&gt;Node9 -->
<g id="edge8" class="edge"><title>Node8&#45;&gt;Node9</title>
<path fill="none" stroke="midnightblue" d="M1311.29,-168.736C1308.49,-168.481 1305.72,-168.235 1303,-168 1100.1,-150.519 861.267,-135.46 736.244,-127.999"/>
<polygon fill="midnightblue" stroke="midnightblue" points="736.163,-124.488 725.973,-127.388 735.747,-131.476 736.163,-124.488"/>
</g>
<!-- Node14 -->
<g id="node14" class="node"><title>Node14</title>
<g id="a_node14"><a xlink:href="Quality_8h.html" target="_top" xlink:title="QualityControl/Quality.h">
<polygon fill="none" stroke="black" points="1145.5,-56.5 1145.5,-75.5 1266.5,-75.5 1266.5,-56.5 1145.5,-56.5"/>
<text text-anchor="middle" x="1206" y="-63.5" font-family="Helvetica,sans-Serif" font-size="10.00">QualityControl/Quality.h</text>
</a>
</g>
</g>
<!-- Node8&#45;&gt;Node14 -->
<g id="edge17" class="edge"><title>Node8&#45;&gt;Node14</title>
<path fill="none" stroke="midnightblue" d="M1337.57,-168.426C1295.53,-160.541 1240.99,-147.707 1225,-132 1212.82,-120.04 1208.35,-100.739 1206.75,-86.2705"/>
<polygon fill="midnightblue" stroke="midnightblue" points="1210.22,-85.6555 1206,-75.9357 1203.24,-86.1633 1210.22,-85.6555"/>
</g>
<!-- Node10 -->
<g id="node10" class="node"><title>Node10</title>
<polygon fill="none" stroke="#bfbfbf" points="754,-56.5 754,-75.5 808,-75.5 808,-56.5 754,-56.5"/>
<text text-anchor="middle" x="781" y="-63.5" font-family="Helvetica,sans-Serif" font-size="10.00">iostream</text>
</g>
<!-- Node9&#45;&gt;Node10 -->
<g id="edge9" class="edge"><title>Node9&#45;&gt;Node10</title>
<path fill="none" stroke="midnightblue" d="M670.757,-112.444C692.316,-103.557 726.263,-89.5632 750.794,-79.4514"/>
<polygon fill="midnightblue" stroke="midnightblue" points="752.428,-82.5634 760.34,-75.5164 749.761,-76.0917 752.428,-82.5634"/>
</g>
<!-- Node11 -->
<g id="node11" class="node"><title>Node11</title>
<polygon fill="none" stroke="#bfbfbf" points="700.5,-56.5 700.5,-75.5 735.5,-75.5 735.5,-56.5 700.5,-56.5"/>
<text text-anchor="middle" x="718" y="-63.5" font-family="Helvetica,sans-Serif" font-size="10.00">map</text>
</g>
<!-- Node9&#45;&gt;Node11 -->
<g id="edge10" class="edge"><title>Node9&#45;&gt;Node11</title>
<path fill="none" stroke="midnightblue" d="M660.925,-112.324C671.175,-104.185 686.721,-91.8395 699.001,-82.0874"/>
<polygon fill="midnightblue" stroke="midnightblue" points="701.221,-84.7937 706.876,-75.8339 696.868,-79.3119 701.221,-84.7937"/>
</g>
<!-- Node12 -->
<g id="node12" class="node"><title>Node12</title>
<polygon fill="none" stroke="#bfbfbf" points="818.5,-0.5 818.5,-19.5 877.5,-19.5 877.5,-0.5 818.5,-0.5"/>
<text text-anchor="middle" x="848" y="-7.5" font-family="Helvetica,sans-Serif" font-size="10.00">TObject.h</text>
</g>
<!-- Node9&#45;&gt;Node12 -->
<g id="edge11" class="edge"><title>Node9&#45;&gt;Node12</title>
<path fill="none" stroke="midnightblue" d="M617.879,-112.434C583.085,-101.626 535.269,-81.3495 557,-56 588.91,-18.7759 736.375,-12.0704 808.314,-11.048"/>
<polygon fill="midnightblue" stroke="midnightblue" points="808.397,-14.5474 818.357,-10.9354 808.318,-7.5478 808.397,-14.5474"/>
</g>
<!-- Node13 -->
<g id="node13" class="node"><title>Node13</title>
<polygon fill="none" stroke="#bfbfbf" points="566,-56.5 566,-75.5 682,-75.5 682,-56.5 566,-56.5"/>
<text text-anchor="middle" x="624" y="-63.5" font-family="Helvetica,sans-Serif" font-size="10.00">Common/Exceptions.h</text>
</g>
<!-- Node9&#45;&gt;Node13 -->
<g id="edge12" class="edge"><title>Node9&#45;&gt;Node13</title>
<path fill="none" stroke="midnightblue" d="M645.707,-112.083C642.148,-104.691 636.978,-93.9533 632.576,-84.8111"/>
<polygon fill="midnightblue" stroke="midnightblue" points="635.705,-83.2427 628.213,-75.7511 629.398,-86.2795 635.705,-83.2427"/>
</g>
<!-- Node9&#45;&gt;Node14 -->
<g id="edge13" class="edge"><title>Node9&#45;&gt;Node14</title>
<path fill="none" stroke="midnightblue" d="M725.563,-113.661C833.318,-103.196 1029.7,-84.1228 1134.93,-73.9028"/>
<polygon fill="midnightblue" stroke="midnightblue" points="1135.51,-77.3623 1145.13,-72.9119 1134.84,-70.395 1135.51,-77.3623"/>
</g>
<!-- Node14&#45;&gt;Node12 -->
<g id="edge14" class="edge"><title>Node14&#45;&gt;Node12</title>
<path fill="none" stroke="midnightblue" d="M1149.27,-56.4435C1076.25,-45.4287 951.218,-26.5692 887.637,-16.9788"/>
<polygon fill="midnightblue" stroke="midnightblue" points="888.02,-13.497 877.61,-15.4662 886.976,-20.4187 888.02,-13.497"/>
</g>
<!-- Node15 -->
<g id="node15" class="node"><title>Node15</title>
<polygon fill="none" stroke="#bfbfbf" points="1180,-0.5 1180,-19.5 1232,-19.5 1232,-0.5 1180,-0.5"/>
<text text-anchor="middle" x="1206" y="-7.5" font-family="Helvetica,sans-Serif" font-size="10.00">ostream</text>
</g>
<!-- Node14&#45;&gt;Node15 -->
<g id="edge15" class="edge"><title>Node14&#45;&gt;Node15</title>
<path fill="none" stroke="midnightblue" d="M1206,-56.083C1206,-49.0059 1206,-38.8611 1206,-29.9865"/>
<polygon fill="midnightblue" stroke="midnightblue" points="1209.5,-29.751 1206,-19.7511 1202.5,-29.7511 1209.5,-29.751"/>
</g>
<!-- Node16 -->
<g id="node16" class="node"><title>Node16</title>
<polygon fill="none" stroke="#bfbfbf" points="1584.5,-0.5 1584.5,-19.5 1625.5,-19.5 1625.5,-0.5 1584.5,-0.5"/>
<text text-anchor="middle" x="1605" y="-7.5" font-family="Helvetica,sans-Serif" font-size="10.00">string</text>
</g>
<!-- Node14&#45;&gt;Node16 -->
<g id="edge16" class="edge"><title>Node14&#45;&gt;Node16</title>
<path fill="none" stroke="midnightblue" d="M1266.6,-56.7986C1352.92,-45.116 1508.12,-24.1119 1574.03,-15.1911"/>
<polygon fill="midnightblue" stroke="midnightblue" points="1574.74,-18.6268 1584.18,-13.8172 1573.8,-11.6901 1574.74,-18.6268"/>
</g>
<!-- Node17&#45;&gt;Node3 -->
<g id="edge20" class="edge"><title>Node17&#45;&gt;Node3</title>
<path fill="none" stroke="midnightblue" d="M604.905,-224.444C623.254,-215.675 652.005,-201.935 673.094,-191.858"/>
<polygon fill="midnightblue" stroke="midnightblue" points="674.665,-194.986 682.179,-187.516 671.647,-188.67 674.665,-194.986"/>
</g>
<!-- Node17&#45;&gt;Node9 -->
<g id="edge19" class="edge"><title>Node17&#45;&gt;Node9</title>
<path fill="none" stroke="midnightblue" d="M596.116,-224.447C604.78,-215.907 617.688,-202.061 626,-188 634.609,-173.438 641.001,-155.261 645.015,-141.834"/>
<polygon fill="midnightblue" stroke="midnightblue" points="648.483,-142.431 647.824,-131.856 641.745,-140.534 648.483,-142.431"/>
</g>
<!-- Node18 -->
<g id="node18" class="node"><title>Node18</title>
<polygon fill="none" stroke="#bfbfbf" points="534.5,-168.5 534.5,-187.5 617.5,-187.5 617.5,-168.5 534.5,-168.5"/>
<text text-anchor="middle" x="576" y="-175.5" font-family="Helvetica,sans-Serif" font-size="10.00">unordered_map</text>
</g>
<!-- Node17&#45;&gt;Node18 -->
<g id="edge21" class="edge"><title>Node17&#45;&gt;Node18</title>
<path fill="none" stroke="midnightblue" d="M585.184,-224.083C583.726,-216.927 581.629,-206.635 579.807,-197.691"/>
<polygon fill="midnightblue" stroke="midnightblue" points="583.208,-196.851 577.783,-187.751 576.349,-198.248 583.208,-196.851"/>
</g>
<!-- Node19&#45;&gt;Node10 -->
<g id="edge40" class="edge"><title>Node19&#45;&gt;Node10</title>
<path fill="none" stroke="midnightblue" d="M851.263,-285.995C862.28,-272.006 880.571,-243.73 867,-224 841.647,-187.141 798.353,-224.859 773,-188 751.703,-157.038 763.995,-110.426 773.389,-85.0412"/>
<polygon fill="midnightblue" stroke="midnightblue" points="776.712,-86.1557 777.131,-75.5692 770.201,-83.5835 776.712,-86.1557"/>
</g>
<!-- Node20 -->
<g id="node20" class="node"><title>Node20</title>
<g id="a_node20"><a xlink:href="TaskInterface_8h.html" target="_top" xlink:title="TaskInterface.h">
<polygon fill="none" stroke="black" points="979.5,-224.5 979.5,-243.5 1064.5,-243.5 1064.5,-224.5 979.5,-224.5"/>
<text text-anchor="middle" x="1022" y="-231.5" font-family="Helvetica,sans-Serif" font-size="10.00">TaskInterface.h</text>
</a>
</g>
</g>
<!-- Node19&#45;&gt;Node20 -->
<g id="edge24" class="edge"><title>Node19&#45;&gt;Node20</title>
<path fill="none" stroke="midnightblue" d="M869.503,-285.975C900.301,-275.68 952.265,-258.31 986.848,-246.75"/>
<polygon fill="midnightblue" stroke="midnightblue" points="988.17,-249.999 996.544,-243.509 985.95,-243.36 988.17,-249.999"/>
</g>
<!-- Node30 -->
<g id="node30" class="node"><title>Node30</title>
<polygon fill="none" stroke="#bfbfbf" points="728,-224.5 728,-243.5 858,-243.5 858,-224.5 728,-224.5"/>
<text text-anchor="middle" x="793" y="-231.5" font-family="Helvetica,sans-Serif" font-size="10.00">InfoLogger/InfoLogger.hxx</text>
</g>
<!-- Node19&#45;&gt;Node30 -->
<g id="edge39" class="edge"><title>Node19&#45;&gt;Node30</title>
<path fill="none" stroke="midnightblue" d="M836.693,-285.975C828.967,-276.962 816.592,-262.525 806.982,-251.312"/>
<polygon fill="midnightblue" stroke="midnightblue" points="809.459,-248.824 800.294,-243.509 804.144,-253.379 809.459,-248.824"/>
</g>
<!-- Node20&#45;&gt;Node3 -->
<g id="edge25" class="edge"><title>Node20&#45;&gt;Node3</title>
<path fill="none" stroke="midnightblue" d="M979.241,-225.829C915.332,-215.112 796.026,-195.104 736.185,-185.068"/>
<polygon fill="midnightblue" stroke="midnightblue" points="736.515,-181.575 726.074,-183.373 735.357,-188.478 736.515,-181.575"/>
</g>
<!-- Node21 -->
<g id="node21" class="node"><title>Node21</title>
<polygon fill="none" stroke="#bfbfbf" points="1101.5,-168.5 1101.5,-187.5 1150.5,-187.5 1150.5,-168.5 1101.5,-168.5"/>
<text text-anchor="middle" x="1126" y="-175.5" font-family="Helvetica,sans-Serif" font-size="10.00">cassert</text>
</g>
<!-- Node20&#45;&gt;Node21 -->
<g id="edge26" class="edge"><title>Node20&#45;&gt;Node21</title>
<path fill="none" stroke="midnightblue" d="M1038.71,-224.324C1055.31,-215.703 1081,-202.364 1100.22,-192.386"/>
<polygon fill="midnightblue" stroke="midnightblue" points="1102.07,-195.369 1109.33,-187.655 1098.84,-189.156 1102.07,-195.369"/>
</g>
<!-- Node22 -->
<g id="node22" class="node"><title>Node22</title>
<polygon fill="none" stroke="#bfbfbf" points="1168.5,-168.5 1168.5,-187.5 1293.5,-187.5 1293.5,-168.5 1168.5,-168.5"/>
<text text-anchor="middle" x="1231" y="-175.5" font-family="Helvetica,sans-Serif" font-size="10.00">Framework/InitContext.h</text>
</g>
<!-- Node20&#45;&gt;Node22 -->
<g id="edge27" class="edge"><title>Node20&#45;&gt;Node22</title>
<path fill="none" stroke="midnightblue" d="M1055.12,-224.444C1091.12,-215.142 1148.77,-200.246 1188.19,-190.062"/>
<polygon fill="midnightblue" stroke="midnightblue" points="1189.23,-193.407 1198.04,-187.516 1187.48,-186.629 1189.23,-193.407"/>
</g>
<!-- Node23 -->
<g id="node23" class="node"><title>Node23</title>
<polygon fill="none" stroke="#bfbfbf" points="782,-168.5 782,-187.5 942,-187.5 942,-168.5 782,-168.5"/>
<text text-anchor="middle" x="862" y="-175.5" font-family="Helvetica,sans-Serif" font-size="10.00">Framework/ProcessingContext.h</text>
</g>
<!-- Node20&#45;&gt;Node23 -->
<g id="edge28" class="edge"><title>Node20&#45;&gt;Node23</title>
<path fill="none" stroke="midnightblue" d="M996.648,-224.444C969.731,-215.359 927.004,-200.939 896.913,-190.783"/>
<polygon fill="midnightblue" stroke="midnightblue" points="897.828,-187.398 887.234,-187.516 895.59,-194.031 897.828,-187.398"/>
</g>
<!-- Node24 -->
<g id="node24" class="node"><title>Node24</title>
<g id="a_node24"><a xlink:href="Activity_8h.html" target="_top" xlink:title="QualityControl/Activity.h">
<polygon fill="none" stroke="black" points="960.5,-168.5 960.5,-187.5 1083.5,-187.5 1083.5,-168.5 960.5,-168.5"/>
<text text-anchor="middle" x="1022" y="-175.5" font-family="Helvetica,sans-Serif" font-size="10.00">QualityControl/Activity.h</text>
</a>
</g>
</g>
<!-- Node20&#45;&gt;Node24 -->
<g id="edge29" class="edge"><title>Node20&#45;&gt;Node24</title>
<path fill="none" stroke="midnightblue" d="M1022,-224.083C1022,-217.006 1022,-206.861 1022,-197.986"/>
<polygon fill="midnightblue" stroke="midnightblue" points="1025.5,-197.751 1022,-187.751 1018.5,-197.751 1025.5,-197.751"/>
</g>
<!-- Node25 -->
<g id="node25" class="node"><title>Node25</title>
<g id="a_node25"><a xlink:href="ObjectsManager_8h.html" target="_top" xlink:title="QualityControl/ObjectsManager.h">
<polygon fill="none" stroke="black" points="1486.5,-168.5 1486.5,-187.5 1647.5,-187.5 1647.5,-168.5 1486.5,-168.5"/>
<text text-anchor="middle" x="1567" y="-175.5" font-family="Helvetica,sans-Serif" font-size="10.00">QualityControl/ObjectsManager.h</text>
</a>
</g>
</g>
<!-- Node20&#45;&gt;Node25 -->
<g id="edge30" class="edge"><title>Node20&#45;&gt;Node25</title>
<path fill="none" stroke="midnightblue" d="M1064.75,-228.816C1143.77,-221.074 1318.31,-203.94 1476.1,-188.188"/>
<polygon fill="midnightblue" stroke="midnightblue" points="1476.87,-191.629 1486.47,-187.152 1476.17,-184.663 1476.87,-191.629"/>
</g>
<!-- Node25&#45;&gt;Node9 -->
<g id="edge31" class="edge"><title>Node25&#45;&gt;Node9</title>
<path fill="none" stroke="midnightblue" d="M1486.48,-168.689C1483.62,-168.447 1480.79,-168.217 1478,-168 1207.39,-146.975 886.255,-132.51 735.807,-126.347"/>
<polygon fill="midnightblue" stroke="midnightblue" points="735.844,-122.846 725.709,-125.936 735.558,-129.84 735.844,-122.846"/>
</g>
<!-- Node25&#45;&gt;Node14 -->
<g id="edge32" class="edge"><title>Node25&#45;&gt;Node14</title>
<path fill="none" stroke="midnightblue" d="M1567.24,-168.27C1567.11,-154.096 1564.6,-126.231 1548,-112 1508.47,-78.1192 1364.88,-69.5028 1276.82,-67.4614"/>
<polygon fill="midnightblue" stroke="midnightblue" points="1276.7,-63.9582 1266.63,-67.2487 1276.55,-70.9567 1276.7,-63.9582"/>
</g>
<!-- Node25&#45;&gt;Node16 -->
<g id="edge38" class="edge"><title>Node25&#45;&gt;Node16</title>
<path fill="none" stroke="midnightblue" d="M1569.04,-168.075C1575.02,-141.945 1592.59,-65.2106 1600.75,-29.577"/>
<polygon fill="midnightblue" stroke="midnightblue" points="1604.22,-30.097 1603.04,-19.5681 1597.4,-28.5349 1604.22,-30.097"/>
</g>
<!-- Node26 -->
<g id="node26" class="node"><title>Node26</title>
<g id="a_node26"><a xlink:href="TaskConfig_8h.html" target="_top" xlink:title="QualityControl/TaskConfig.h">
<polygon fill="none" stroke="black" points="1633,-56.5 1633,-75.5 1773,-75.5 1773,-56.5 1633,-56.5"/>
<text text-anchor="middle" x="1703" y="-63.5" font-family="Helvetica,sans-Serif" font-size="10.00">QualityControl/TaskConfig.h</text>
</a>
</g>
</g>
<!-- Node25&#45;&gt;Node26 -->
<g id="edge33" class="edge"><title>Node25&#45;&gt;Node26</title>
<path fill="none" stroke="midnightblue" d="M1577.67,-168.368C1600.71,-149.733 1655.36,-105.532 1684.29,-82.1338"/>
<polygon fill="midnightblue" stroke="midnightblue" points="1686.8,-84.6014 1692.38,-75.5914 1682.4,-79.1589 1686.8,-84.6014"/>
</g>
<!-- Node27 -->
<g id="node27" class="node"><title>Node27</title>
<polygon fill="none" stroke="#bfbfbf" points="1380.5,-112.5 1380.5,-131.5 1449.5,-131.5 1449.5,-112.5 1380.5,-112.5"/>
<text text-anchor="middle" x="1415" y="-119.5" font-family="Helvetica,sans-Serif" font-size="10.00">TObjArray.h</text>
</g>
<!-- Node25&#45;&gt;Node27 -->
<g id="edge35" class="edge"><title>Node25&#45;&gt;Node27</title>
<path fill="none" stroke="midnightblue" d="M1542.92,-168.444C1517.46,-159.399 1477.11,-145.064 1448.54,-134.916"/>
<polygon fill="midnightblue" stroke="midnightblue" points="1449.57,-131.566 1438.97,-131.516 1447.22,-138.162 1449.57,-131.566"/>
</g>
<!-- Node28 -->
<g id="node28" class="node"><title>Node28</title>
<polygon fill="none" stroke="#bfbfbf" points="1467.5,-112.5 1467.5,-131.5 1538.5,-131.5 1538.5,-112.5 1467.5,-112.5"/>
<text text-anchor="middle" x="1503" y="-119.5" font-family="Helvetica,sans-Serif" font-size="10.00">TObjString.h</text>
</g>
<!-- Node25&#45;&gt;Node28 -->
<g id="edge36" class="edge"><title>Node25&#45;&gt;Node28</title>
<path fill="none" stroke="midnightblue" d="M1556.72,-168.324C1547.16,-160.263 1532.72,-148.077 1521.22,-138.369"/>
<polygon fill="midnightblue" stroke="midnightblue" points="1523.37,-135.608 1513.47,-131.834 1518.86,-140.958 1523.37,-135.608"/>
</g>
<!-- Node29 -->
<g id="node29" class="node"><title>Node29</title>
<polygon fill="none" stroke="#bfbfbf" points="1234,-112.5 1234,-131.5 1362,-131.5 1362,-112.5 1234,-112.5"/>
<text text-anchor="middle" x="1298" y="-119.5" font-family="Helvetica,sans-Serif" font-size="10.00">boost/concept_check.hpp</text>
</g>
<!-- Node25&#45;&gt;Node29 -->
<g id="edge37" class="edge"><title>Node25&#45;&gt;Node29</title>
<path fill="none" stroke="midnightblue" d="M1524.38,-168.444C1477.25,-158.984 1401.31,-143.738 1350.54,-133.547"/>
<polygon fill="midnightblue" stroke="midnightblue" points="1350.92,-130.053 1340.42,-131.516 1349.54,-136.916 1350.92,-130.053"/>
</g>
<!-- Node26&#45;&gt;Node16 -->
<g id="edge34" class="edge"><title>Node26&#45;&gt;Node16</title>
<path fill="none" stroke="midnightblue" d="M1687.25,-56.324C1671.68,-47.7428 1647.62,-34.486 1629.54,-24.5224"/>
<polygon fill="midnightblue" stroke="midnightblue" points="1631.15,-21.4152 1620.71,-19.6545 1627.78,-27.546 1631.15,-21.4152"/>
</g>
</g>
</svg>
        <g id="navigator" transform="translate(0 0)" fill="#404254">
                <rect fill="#f2f5e9" fill-opacity="0.5" stroke="#606060" stroke-width=".5" x="0" y="0" width="60" height="60"/>
                <use id="zoomplus" xlink:href="#zoomPlus" x="17" y="9" onmousedown="handleZoom(evt,'in')"/>
                <use id="zoomminus" xlink:href="#zoomMin" x="42" y="9" onmousedown="handleZoom(evt,'out')"/>
                <use id="reset" xlink:href="#resetDef" x="30" y="36" onmousedown="handleReset()"/>
                <g id="arrowUp" xlink:href="#dirArrow" transform="translate(30 24)" onmousedown="handlePan(0,-1)">
                  <use xlink:href="#rim" fill="#404040">
                        <set attributeName="fill" to="#808080" begin="arrowUp.mouseover" end="arrowUp.mouseout"/>
                  </use>
                  <path fill="none" stroke="white" stroke-width="1.5" d="M0,-3.0v7 M-2.5,-0.5L0,-3.0L2.5,-0.5"/>
                </g>
                <g id="arrowRight" xlink:href="#dirArrow" transform="rotate(90) translate(36 -43)" onmousedown="handlePan(1,0)">
                  <use xlink:href="#rim" fill="#404040">
                        <set attributeName="fill" to="#808080" begin="arrowRight.mouseover" end="arrowRight.mouseout"/>
                  </use>
                  <path fill="none" stroke="white" stroke-width="1.5" d="M0,-3.0v7 M-2.5,-0.5L0,-3.0L2.5,-0.5"/>
                </g>
                <g id="arrowDown" xlink:href="#dirArrow" transform="rotate(180) translate(-30 -48)" onmousedown="handlePan(0,1)">
                  <use xlink:href="#rim" fill="#404040">
                        <set attributeName="fill" to="#808080" begin="arrowDown.mouseover" end="arrowDown.mouseout"/>
                  </use>
                  <path fill="none" stroke="white" stroke-width="1.5" d="M0,-3.0v7 M-2.5,-0.5L0,-3.0L2.5,-0.5"/>
                </g>
                <g id="arrowLeft" xlink:href="#dirArrow" transform="rotate(270) translate(-36 17)" onmousedown="handlePan(-1,0)">
                  <use xlink:href="#rim" fill="#404040">
                        <set attributeName="fill" to="#808080" begin="arrowLeft.mouseover" end="arrowLeft.mouseout"/>
                  </use>
                  <path fill="none" stroke="white" stroke-width="1.5" d="M0,-3.0v7 M-2.5,-0.5L0,-3.0L2.5,-0.5"/>
                </g>
        </g>
        <svg viewBox="0 0 15 15" width="100%" height="30px" preserveAspectRatio="xMaxYMin meet">
         <g id="arrow_out" transform="scale(0.3 0.3)">
          <a xlink:href="Checker_8h__incl_org.svg" target="_base">
           <rect id="button" ry="5" rx="5" y="6" x="6" height="38" width="38"
                fill="#f2f5e9" fill-opacity="0.5" stroke="#606060" stroke-width="1.0"/>
           <path id="arrow"
             d="M 11.500037,31.436501 C 11.940474,20.09759 22.043105,11.32322 32.158766,21.979434 L 37.068811,17.246167 C 37.068811,17.246167 37.088388,32 37.088388,32 L 22.160133,31.978069 C 22.160133,31.978069 26.997745,27.140456 26.997745,27.140456 C 18.528582,18.264221 13.291696,25.230495 11.500037,31.436501 z"
             style="fill:#404040;"/>
          </a>
         </g>
        </svg>
</svg>
