<?xml version="1.0" encoding="UTF-8" standalone="no"?>
<!DOCTYPE svg PUBLIC "-//W3C//DTD SVG 1.1//EN"
 "http://www.w3.org/Graphics/SVG/1.1/DTD/svg11.dtd">
<!-- Generated by graphviz version 2.38.0 (20140413.2041)
 -->
<!-- Title: o2::quality_control::checker::CheckInterface Pages: 1 -->
<svg width="824pt" height="325pt"
 viewBox="0.00 0.00 824.00 325.00" xmlns="http://www.w3.org/2000/svg" xmlns:xlink="http://www.w3.org/1999/xlink">
<g id="graph0" class="graph" transform="scale(1 1) rotate(0) translate(4 321)">
<title>o2::quality_control::checker::CheckInterface</title>
<!-- Node1 -->
<g id="node1" class="node"><title>Node1</title>
<polygon fill="#bfbfbf" stroke="black" points="371,-182.5 371,-316.5 501,-316.5 501,-182.5 371,-182.5"/>
<text text-anchor="start" x="379" y="-304.5" font-family="Helvetica,sans-Serif" font-size="10.00">o2::quality_control</text>
<text text-anchor="middle" x="436" y="-293.5" font-family="Helvetica,sans-Serif" font-size="10.00">::checker::CheckInterface</text>
<polyline fill="none" stroke="black" points="371,-286.5 501,-286.5 "/>
<text text-anchor="middle" x="436" y="-274.5" font-family="Helvetica,sans-Serif" font-size="10.00"> </text>
<polyline fill="none" stroke="black" points="371,-267.5 501,-267.5 "/>
<text text-anchor="start" x="379" y="-255.5" font-family="Helvetica,sans-Serif" font-size="10.00">+ CheckInterface()</text>
<text text-anchor="start" x="379" y="-244.5" font-family="Helvetica,sans-Serif" font-size="10.00">+ ~CheckInterface()</text>
<text text-anchor="start" x="379" y="-233.5" font-family="Helvetica,sans-Serif" font-size="10.00">+ configure()</text>
<text text-anchor="start" x="379" y="-222.5" font-family="Helvetica,sans-Serif" font-size="10.00">+ check()</text>
<text text-anchor="start" x="379" y="-211.5" font-family="Helvetica,sans-Serif" font-size="10.00">+ beautify()</text>
<text text-anchor="start" x="379" y="-200.5" font-family="Helvetica,sans-Serif" font-size="10.00">+ getAcceptedType()</text>
<text text-anchor="start" x="379" y="-189.5" font-family="Helvetica,sans-Serif" font-size="10.00">+ isObjectCheckable()</text>
</g>
<!-- Node2 -->
<g id="node2" class="node"><title>Node2</title>
<g id="a_node2"><a xlink:href="classo2_1_1quality__control__modules_1_1common_1_1MeanIsAbove.html" target="_top" xlink:title="Check whether the mean of the plot is above a certain limit. ">
<polygon fill="none" stroke="black" points="0,-11.5 0,-134.5 168,-134.5 168,-11.5 0,-11.5"/>
<text text-anchor="start" x="8" y="-122.5" font-family="Helvetica,sans-Serif" font-size="10.00">o2::quality_control</text>
<text text-anchor="middle" x="84" y="-111.5" font-family="Helvetica,sans-Serif" font-size="10.00">_modules::common::MeanIsAbove</text>
<polyline fill="none" stroke="black" points="0,-104.5 168,-104.5 "/>
<text text-anchor="middle" x="84" y="-92.5" font-family="Helvetica,sans-Serif" font-size="10.00"> </text>
<polyline fill="none" stroke="black" points="0,-85.5 168,-85.5 "/>
<text text-anchor="start" x="8" y="-73.5" font-family="Helvetica,sans-Serif" font-size="10.00">+ MeanIsAbove()</text>
<text text-anchor="start" x="8" y="-62.5" font-family="Helvetica,sans-Serif" font-size="10.00">+ ~MeanIsAbove()</text>
<text text-anchor="start" x="8" y="-51.5" font-family="Helvetica,sans-Serif" font-size="10.00">+ configure()</text>
<text text-anchor="start" x="8" y="-40.5" font-family="Helvetica,sans-Serif" font-size="10.00">+ check()</text>
<text text-anchor="start" x="8" y="-29.5" font-family="Helvetica,sans-Serif" font-size="10.00">+ beautify()</text>
<text text-anchor="start" x="8" y="-18.5" font-family="Helvetica,sans-Serif" font-size="10.00">+ getAcceptedType()</text>
</a>
</g>
</g>
<!-- Node1&#45;&gt;Node2 -->
<g id="edge1" class="edge"><title>Node1&#45;&gt;Node2</title>
<path fill="none" stroke="midnightblue" d="M361.199,-225.182C308.048,-207.131 235.939,-179.576 177,-146 170.879,-142.513 164.719,-138.658 158.641,-134.598"/>
<polygon fill="none" stroke="midnightblue" points="360.302,-228.573 370.896,-228.441 362.532,-221.938 360.302,-228.573"/>
</g>
<!-- Node3 -->
<g id="node3" class="node"><title>Node3</title>
<g id="a_node3"><a xlink:href="classo2_1_1quality__control__modules_1_1common_1_1NonEmpty.html" target="_top" xlink:title="Check whether a plot is empty or not. ">
<polygon fill="none" stroke="black" points="186.5,-6 186.5,-140 341.5,-140 341.5,-6 186.5,-6"/>
<text text-anchor="start" x="194.5" y="-128" font-family="Helvetica,sans-Serif" font-size="10.00">o2::quality_control</text>
<text text-anchor="middle" x="264" y="-117" font-family="Helvetica,sans-Serif" font-size="10.00">_modules::common::NonEmpty</text>
<polyline fill="none" stroke="black" points="186.5,-110 341.5,-110 "/>
<text text-anchor="middle" x="264" y="-98" font-family="Helvetica,sans-Serif" font-size="10.00"> </text>
<polyline fill="none" stroke="black" points="186.5,-91 341.5,-91 "/>
<text text-anchor="start" x="194.5" y="-79" font-family="Helvetica,sans-Serif" font-size="10.00">+ NonEmpty()</text>
<text text-anchor="start" x="194.5" y="-68" font-family="Helvetica,sans-Serif" font-size="10.00">+ ~NonEmpty()</text>
<text text-anchor="start" x="194.5" y="-57" font-family="Helvetica,sans-Serif" font-size="10.00">+ configure()</text>
<text text-anchor="start" x="194.5" y="-46" font-family="Helvetica,sans-Serif" font-size="10.00">+ check()</text>
<text text-anchor="start" x="194.5" y="-35" font-family="Helvetica,sans-Serif" font-size="10.00">+ beautify()</text>
<text text-anchor="start" x="194.5" y="-24" font-family="Helvetica,sans-Serif" font-size="10.00">+ getAcceptedType()</text>
<text text-anchor="start" x="194.5" y="-13" font-family="Helvetica,sans-Serif" font-size="10.00">+ ClassDefOverride()</text>
</a>
</g>
</g>
<!-- Node1&#45;&gt;Node3 -->
<g id="edge2" class="edge"><title>Node1&#45;&gt;Node3</title>
<path fill="none" stroke="midnightblue" d="M363.851,-175.303C352.329,-163.612 340.465,-151.576 329.118,-140.064"/>
<polygon fill="none" stroke="midnightblue" points="361.462,-177.864 370.974,-182.529 366.447,-172.95 361.462,-177.864"/>
</g>
<!-- Node4 -->
<g id="node4" class="node"><title>Node4</title>
<g id="a_node4"><a xlink:href="classo2_1_1quality__control__modules_1_1daq_1_1EverIncreasingGraph.html" target="_top" xlink:title="Check whether a plot is empty or not. ">
<polygon fill="none" stroke="black" points="360,-6 360,-140 512,-140 512,-6 360,-6"/>
<text text-anchor="start" x="368" y="-128" font-family="Helvetica,sans-Serif" font-size="10.00">o2::quality_control</text>
<text text-anchor="start" x="368" y="-117" font-family="Helvetica,sans-Serif" font-size="10.00">_modules::daq::EverIncreasing</text>
<text text-anchor="middle" x="436" y="-106" font-family="Helvetica,sans-Serif" font-size="10.00">Graph</text>
<polyline fill="none" stroke="black" points="360,-99 512,-99 "/>
<text text-anchor="middle" x="436" y="-87" font-family="Helvetica,sans-Serif" font-size="10.00"> </text>
<polyline fill="none" stroke="black" points="360,-80 512,-80 "/>
<text text-anchor="start" x="368" y="-68" font-family="Helvetica,sans-Serif" font-size="10.00">+ EverIncreasingGraph()</text>
<text text-anchor="start" x="368" y="-57" font-family="Helvetica,sans-Serif" font-size="10.00">+ ~EverIncreasingGraph()</text>
<text text-anchor="start" x="368" y="-46" font-family="Helvetica,sans-Serif" font-size="10.00">+ configure()</text>
<text text-anchor="start" x="368" y="-35" font-family="Helvetica,sans-Serif" font-size="10.00">+ check()</text>
<text text-anchor="start" x="368" y="-24" font-family="Helvetica,sans-Serif" font-size="10.00">+ beautify()</text>
<text text-anchor="start" x="368" y="-13" font-family="Helvetica,sans-Serif" font-size="10.00">+ getAcceptedType()</text>
</a>
</g>
</g>
<!-- Node1&#45;&gt;Node4 -->
<g id="edge3" class="edge"><title>Node1&#45;&gt;Node4</title>
<path fill="none" stroke="midnightblue" d="M436,-171.988C436,-161.422 436,-150.643 436,-140.284"/>
<polygon fill="none" stroke="midnightblue" points="432.5,-172.031 436,-182.031 439.5,-172.031 432.5,-172.031"/>
</g>
<!-- Node5 -->
<g id="node5" class="node"><title>Node5</title>
<g id="a_node5"><a xlink:href="classo2_1_1quality__control__modules_1_1example_1_1FakeCheck.html" target="_top" xlink:title="Check whether a plot is empty or not. ">
<polygon fill="none" stroke="black" points="530,-6 530,-140 688,-140 688,-6 530,-6"/>
<text text-anchor="start" x="538" y="-128" font-family="Helvetica,sans-Serif" font-size="10.00">o2::quality_control</text>
<text text-anchor="middle" x="609" y="-117" font-family="Helvetica,sans-Serif" font-size="10.00">_modules::example::FakeCheck</text>
<polyline fill="none" stroke="black" points="530,-110 688,-110 "/>
<text text-anchor="middle" x="609" y="-98" font-family="Helvetica,sans-Serif" font-size="10.00"> </text>
<polyline fill="none" stroke="black" points="530,-91 688,-91 "/>
<text text-anchor="start" x="538" y="-79" font-family="Helvetica,sans-Serif" font-size="10.00">+ FakeCheck()</text>
<text text-anchor="start" x="538" y="-68" font-family="Helvetica,sans-Serif" font-size="10.00">+ ~FakeCheck()</text>
<text text-anchor="start" x="538" y="-57" font-family="Helvetica,sans-Serif" font-size="10.00">+ configure()</text>
<text text-anchor="start" x="538" y="-46" font-family="Helvetica,sans-Serif" font-size="10.00">+ check()</text>
<text text-anchor="start" x="538" y="-35" font-family="Helvetica,sans-Serif" font-size="10.00">+ beautify()</text>
<text text-anchor="start" x="538" y="-24" font-family="Helvetica,sans-Serif" font-size="10.00">+ getAcceptedType()</text>
<text text-anchor="start" x="538" y="-13" font-family="Helvetica,sans-Serif" font-size="10.00">+ ClassDefOverride()</text>
</a>
</g>
</g>
<!-- Node1&#45;&gt;Node5 -->
<g id="edge4" class="edge"><title>Node1&#45;&gt;Node5</title>
<path fill="none" stroke="midnightblue" d="M508.568,-175.303C520.158,-163.612 532.09,-151.576 543.504,-140.064"/>
<polygon fill="none" stroke="midnightblue" points="505.959,-172.963 501.404,-182.529 510.93,-177.892 505.959,-172.963"/>
</g>
<!-- Node6 -->
<g id="node6" class="node"><title>Node6</title>
<g id="a_node6"><a xlink:href="classo2_1_1quality__control__modules_1_1skeleton_1_1SkeletonCheck.html" target="_top" xlink:title="Check whether a plot is empty or not. ">
<polygon fill="none" stroke="black" points="706,-0.5 706,-145.5 816,-145.5 816,-0.5 706,-0.5"/>
<text text-anchor="start" x="714" y="-133.5" font-family="Helvetica,sans-Serif" font-size="10.00">o2::quality_control</text>
<text text-anchor="start" x="714" y="-122.5" font-family="Helvetica,sans-Serif" font-size="10.00">_modules::skeleton::</text>
<text text-anchor="middle" x="761" y="-111.5" font-family="Helvetica,sans-Serif" font-size="10.00">SkeletonCheck</text>
<polyline fill="none" stroke="black" points="706,-104.5 816,-104.5 "/>
<text text-anchor="middle" x="761" y="-92.5" font-family="Helvetica,sans-Serif" font-size="10.00"> </text>
<polyline fill="none" stroke="black" points="706,-85.5 816,-85.5 "/>
<text text-anchor="start" x="714" y="-73.5" font-family="Helvetica,sans-Serif" font-size="10.00">+ SkeletonCheck()</text>
<text text-anchor="start" x="714" y="-62.5" font-family="Helvetica,sans-Serif" font-size="10.00">+ ~SkeletonCheck()</text>
<text text-anchor="start" x="714" y="-51.5" font-family="Helvetica,sans-Serif" font-size="10.00">+ configure()</text>
<text text-anchor="start" x="714" y="-40.5" font-family="Helvetica,sans-Serif" font-size="10.00">+ check()</text>
<text text-anchor="start" x="714" y="-29.5" font-family="Helvetica,sans-Serif" font-size="10.00">+ beautify()</text>
<text text-anchor="start" x="714" y="-18.5" font-family="Helvetica,sans-Serif" font-size="10.00">+ getAcceptedType()</text>
<text text-anchor="start" x="714" y="-7.5" font-family="Helvetica,sans-Serif" font-size="10.00">+ ClassDefOverride()</text>
</a>
</g>
</g>
<!-- Node1&#45;&gt;Node6 -->
<g id="edge5" class="edge"><title>Node1&#45;&gt;Node6</title>
<path fill="none" stroke="midnightblue" d="M510.659,-229.392C565.491,-213.027 640.035,-185.745 697,-146 700.018,-143.895 702.989,-141.619 705.9,-139.219"/>
<polygon fill="none" stroke="midnightblue" points="509.616,-226.051 501.004,-232.222 511.585,-232.768 509.616,-226.051"/>
</g>
</g>
</svg>
