<?xml version="1.0" encoding="UTF-8" standalone="no"?>
<!DOCTYPE svg PUBLIC "-//W3C//DTD SVG 1.1//EN"
 "http://www.w3.org/Graphics/SVG/1.1/DTD/svg11.dtd">
<!-- Generated by graphviz version 2.38.0 (20140413.2041)
 -->
<!-- Title: Framework/include/QualityControl/DatabaseInterface.h Pages: 1 -->
<!--zoomable 240 -->
<svg id="main" version="1.1" xmlns="http://www.w3.org/2000/svg" xmlns:xlink="http://www.w3.org/1999/xlink" xml:space="preserve" onload="init(evt)">
<style type="text/css"><![CDATA[
.edge:hover path { stroke: red; }
.edge:hover polygon { stroke: red; fill: red; }
]]></style>
<script type="text/javascript"><![CDATA[
var edges = document.getElementsByTagName('g');
if (edges && edges.length) {
  for (var i=0;i<edges.length;i++) {
    if (edges[i].id.substr(0,4)=='edge') {
      edges[i].setAttribute('class','edge');
    }
  }
}
]]></script>
        <defs>
                <circle id="rim" cx="0" cy="0" r="7"/>
                <circle id="rim2" cx="0" cy="0" r="3.5"/>
                <g id="zoomPlus">
                        <use xlink:href="#rim" fill="#404040">
                                <set attributeName="fill" to="#808080" begin="zoomplus.mouseover" end="zoomplus.mouseout"/>
                        </use>
                        <path d="M-4,0h8M0,-4v8" fill="none" stroke="white" stroke-width="1.5" pointer-events="none"/>
                </g>
                <g id="zoomMin">
                        <use xlink:href="#rim" fill="#404040">
                                <set attributeName="fill" to="#808080" begin="zoomminus.mouseover" end="zoomminus.mouseout"/>
                        </use>
                        <path d="M-4,0h8" fill="none" stroke="white" stroke-width="1.5" pointer-events="none"/>
                </g>
                <g id="dirArrow">
                        <path fill="none" stroke="white" stroke-width="1.5" d="M0,-3.0v7 M-2.5,-0.5L0,-3.0L2.5,-0.5"/>
                </g>
               <g id="resetDef">
                       <use xlink:href="#rim2" fill="#404040">
                               <set attributeName="fill" to="#808080" begin="reset.mouseover" end="reset.mouseout"/>
                       </use>
               </g>
        </defs>

<script type="text/javascript">
var viewWidth = 2059;
var viewHeight = 240;
var sectionId = 'dynsection-1';
</script>
<script xlink:href="svgpan.js"/>
<svg id="graph" class="graph">
<g id="viewport">
<title>Framework/include/QualityControl/DatabaseInterface.h</title>
<!-- Node1 -->
<g id="node1" class="node"><title>Node1</title>
<polygon fill="#bfbfbf" stroke="black" points="1001,-201.5 1001,-231.5 1141,-231.5 1141,-201.5 1001,-201.5"/>
<text text-anchor="start" x="1009" y="-219.5" font-family="Helvetica,sans-Serif" font-size="10.00">Framework/include/Quality</text>
<text text-anchor="middle" x="1071" y="-208.5" font-family="Helvetica,sans-Serif" font-size="10.00">Control/DatabaseInterface.h</text>
</g>
<!-- Node2 -->
<g id="node2" class="node"><title>Node2</title>
<g id="a_node2"><a xlink:href="CcdbDatabase_8h.html" target="_top" xlink:title="Framework/include/Quality\lControl/CcdbDatabase.h">
<polygon fill="none" stroke="black" points="343.5,-134.5 343.5,-164.5 476.5,-164.5 476.5,-134.5 343.5,-134.5"/>
<text text-anchor="start" x="351.5" y="-152.5" font-family="Helvetica,sans-Serif" font-size="10.00">Framework/include/Quality</text>
<text text-anchor="middle" x="410" y="-141.5" font-family="Helvetica,sans-Serif" font-size="10.00">Control/CcdbDatabase.h</text>
</a>
</g>
</g>
<!-- Node1&#45;&gt;Node2 -->
<g id="edge1" class="edge"><title>Node1&#45;&gt;Node2</title>
<path fill="none" stroke="midnightblue" d="M990.861,-207.619C859.175,-194.67 599.428,-169.128 476.93,-157.082"/>
<polygon fill="midnightblue" stroke="midnightblue" points="990.593,-211.11 1000.89,-208.605 991.278,-204.143 990.593,-211.11"/>
</g>
<!-- Node9 -->
<g id="node9" class="node"><title>Node9</title>
<g id="a_node9"><a xlink:href="Checker_8h.html" target="_top" xlink:title="Framework/include/Quality\lControl/Checker.h">
<polygon fill="none" stroke="black" points="1269.5,-134.5 1269.5,-164.5 1402.5,-164.5 1402.5,-134.5 1269.5,-134.5"/>
<text text-anchor="start" x="1277.5" y="-152.5" font-family="Helvetica,sans-Serif" font-size="10.00">Framework/include/Quality</text>
<text text-anchor="middle" x="1336" y="-141.5" font-family="Helvetica,sans-Serif" font-size="10.00">Control/Checker.h</text>
</a>
</g>
</g>
<!-- Node1&#45;&gt;Node9 -->
<g id="edge9" class="edge"><title>Node1&#45;&gt;Node9</title>
<path fill="none" stroke="midnightblue" d="M1138.06,-199.052C1181.38,-188.425 1237.17,-174.741 1278.47,-164.611"/>
<polygon fill="midnightblue" stroke="midnightblue" points="1137.05,-195.694 1128.17,-201.476 1138.72,-202.493 1137.05,-195.694"/>
</g>
<!-- Node15 -->
<g id="node15" class="node"><title>Node15</title>
<g id="a_node15"><a xlink:href="DatabaseFactory_8h.html" target="_top" xlink:title="Framework/include/Quality\lControl/DatabaseFactory.h">
<polygon fill="none" stroke="black" points="770,-134.5 770,-164.5 904,-164.5 904,-134.5 770,-134.5"/>
<text text-anchor="start" x="778" y="-152.5" font-family="Helvetica,sans-Serif" font-size="10.00">Framework/include/Quality</text>
<text text-anchor="middle" x="837" y="-141.5" font-family="Helvetica,sans-Serif" font-size="10.00">Control/DatabaseFactory.h</text>
</a>
</g>
</g>
<!-- Node1&#45;&gt;Node15 -->
<g id="edge15" class="edge"><title>Node1&#45;&gt;Node15</title>
<path fill="none" stroke="midnightblue" d="M1010.57,-198.715C972.494,-188.137 923.885,-174.635 887.799,-164.611"/>
<polygon fill="midnightblue" stroke="midnightblue" points="1009.94,-202.172 1020.51,-201.476 1011.82,-195.427 1009.94,-202.172"/>
</g>
<!-- Node17 -->
<g id="node17" class="node"><title>Node17</title>
<g id="a_node17"><a xlink:href="MySqlDatabase_8h.html" target="_top" xlink:title="Framework/include/Quality\lControl/MySqlDatabase.h">
<polygon fill="none" stroke="black" points="1704.5,-134.5 1704.5,-164.5 1837.5,-164.5 1837.5,-134.5 1704.5,-134.5"/>
<text text-anchor="start" x="1712.5" y="-152.5" font-family="Helvetica,sans-Serif" font-size="10.00">Framework/include/Quality</text>
<text text-anchor="middle" x="1771" y="-141.5" font-family="Helvetica,sans-Serif" font-size="10.00">Control/MySqlDatabase.h</text>
</a>
</g>
</g>
<!-- Node1&#45;&gt;Node17 -->
<g id="edge21" class="edge"><title>Node1&#45;&gt;Node17</title>
<path fill="none" stroke="midnightblue" d="M1151.19,-208.054C1290.54,-195.114 1574.88,-168.711 1704.25,-156.698"/>
<polygon fill="midnightblue" stroke="midnightblue" points="1150.63,-204.59 1141,-209 1151.28,-211.56 1150.63,-204.59"/>
</g>
<!-- Node3 -->
<g id="node3" class="node"><title>Node3</title>
<g id="a_node3"><a xlink:href="CcdbDatabase_8cxx.html" target="_top" xlink:title="Framework/src/CcdbDatabase.cxx">
<polygon fill="none" stroke="black" points="157.5,-73 157.5,-92 326.5,-92 326.5,-73 157.5,-73"/>
<text text-anchor="middle" x="242" y="-80" font-family="Helvetica,sans-Serif" font-size="10.00">Framework/src/CcdbDatabase.cxx</text>
</a>
</g>
</g>
<!-- Node2&#45;&gt;Node3 -->
<g id="edge2" class="edge"><title>Node2&#45;&gt;Node3</title>
<path fill="none" stroke="midnightblue" d="M364.211,-130.784C331.636,-118.181 289.32,-101.808 263.987,-92.007"/>
<polygon fill="midnightblue" stroke="midnightblue" points="362.957,-134.052 373.547,-134.396 365.483,-127.523 362.957,-134.052"/>
</g>
<!-- Node4 -->
<g id="node4" class="node"><title>Node4</title>
<g id="a_node4"><a xlink:href="DatabaseFactory_8cxx.html" target="_top" xlink:title="Framework/src/DatabaseFactory.cxx">
<polygon fill="none" stroke="black" points="568.5,-73 568.5,-92 747.5,-92 747.5,-73 568.5,-73"/>
<text text-anchor="middle" x="658" y="-80" font-family="Helvetica,sans-Serif" font-size="10.00">Framework/src/DatabaseFactory.cxx</text>
</a>
</g>
</g>
<!-- Node2&#45;&gt;Node4 -->
<g id="edge3" class="edge"><title>Node2&#45;&gt;Node4</title>
<path fill="none" stroke="midnightblue" d="M473.296,-131.91C521.866,-119.18 586.93,-102.127 625.46,-92.0287"/>
<polygon fill="midnightblue" stroke="midnightblue" points="472.293,-128.555 463.507,-134.476 474.068,-135.326 472.293,-128.555"/>
</g>
<!-- Node5 -->
<g id="node5" class="node"><title>Node5</title>
<g id="a_node5"><a xlink:href="RepositoryBenchmark_8h.html" target="_top" xlink:title="Framework/src/Repository\lBenchmark.h">
<polygon fill="none" stroke="black" points="7,-67.5 7,-97.5 139,-97.5 139,-67.5 7,-67.5"/>
<text text-anchor="start" x="15" y="-85.5" font-family="Helvetica,sans-Serif" font-size="10.00">Framework/src/Repository</text>
<text text-anchor="middle" x="73" y="-74.5" font-family="Helvetica,sans-Serif" font-size="10.00">Benchmark.h</text>
</a>
</g>
</g>
<!-- Node2&#45;&gt;Node5 -->
<g id="edge4" class="edge"><title>Node2&#45;&gt;Node5</title>
<path fill="none" stroke="midnightblue" d="M333.37,-133.742C281.131,-123.678 210.385,-110.043 148,-98 145.135,-97.447 142.209,-96.8819 139.253,-96.311"/>
<polygon fill="midnightblue" stroke="midnightblue" points="332.751,-137.187 343.233,-135.641 334.075,-130.313 332.751,-137.187"/>
</g>
<!-- Node6 -->
<g id="node6" class="node"><title>Node6</title>
<g id="a_node6"><a xlink:href="RepositoryBenchmark_8cxx.html" target="_top" xlink:title="Framework/src/Repository\lBenchmark.cxx">
<polygon fill="none" stroke="black" points="288,-0.5 288,-30.5 420,-30.5 420,-0.5 288,-0.5"/>
<text text-anchor="start" x="296" y="-18.5" font-family="Helvetica,sans-Serif" font-size="10.00">Framework/src/Repository</text>
<text text-anchor="middle" x="354" y="-7.5" font-family="Helvetica,sans-Serif" font-size="10.00">Benchmark.cxx</text>
</a>
</g>
</g>
<!-- Node2&#45;&gt;Node6 -->
<g id="edge7" class="edge"><title>Node2&#45;&gt;Node6</title>
<path fill="none" stroke="midnightblue" d="M390.073,-126.326C383.456,-117.953 376.609,-108.018 372,-98 361.764,-75.7532 357.198,-47.3609 355.277,-30.6324"/>
<polygon fill="midnightblue" stroke="midnightblue" points="387.452,-128.649 396.522,-134.125 392.846,-124.188 387.452,-128.649"/>
</g>
<!-- Node8 -->
<g id="node8" class="node"><title>Node8</title>
<g id="a_node8"><a xlink:href="testDbFactory_8cxx.html" target="_top" xlink:title="Framework/test/testDbFactory.cxx">
<polygon fill="none" stroke="black" points="381.5,-73 381.5,-92 550.5,-92 550.5,-73 381.5,-73"/>
<text text-anchor="middle" x="466" y="-80" font-family="Helvetica,sans-Serif" font-size="10.00">Framework/test/testDbFactory.cxx</text>
</a>
</g>
</g>
<!-- Node2&#45;&gt;Node8 -->
<g id="edge8" class="edge"><title>Node2&#45;&gt;Node8</title>
<path fill="none" stroke="midnightblue" d="M428.819,-126.657C438.978,-114.865 450.951,-100.967 458.509,-92.1945"/>
<polygon fill="midnightblue" stroke="midnightblue" points="426.027,-124.535 422.151,-134.396 431.33,-129.104 426.027,-124.535"/>
</g>
<!-- Node5&#45;&gt;Node6 -->
<g id="edge5" class="edge"><title>Node5&#45;&gt;Node6</title>
<path fill="none" stroke="midnightblue" d="M143.528,-65.1856C189.549,-54.5403 249.018,-40.7841 292.997,-30.6109"/>
<polygon fill="midnightblue" stroke="midnightblue" points="142.581,-61.8123 133.627,-67.476 144.158,-68.6322 142.581,-61.8123"/>
</g>
<!-- Node7 -->
<g id="node7" class="node"><title>Node7</title>
<g id="a_node7"><a xlink:href="runRepositoryBenchmark_8cxx.html" target="_top" xlink:title="Framework/src/runRepository\lBenchmark.cxx">
<polygon fill="none" stroke="black" points="0,-0.5 0,-30.5 146,-30.5 146,-0.5 0,-0.5"/>
<text text-anchor="start" x="8" y="-18.5" font-family="Helvetica,sans-Serif" font-size="10.00">Framework/src/runRepository</text>
<text text-anchor="middle" x="73" y="-7.5" font-family="Helvetica,sans-Serif" font-size="10.00">Benchmark.cxx</text>
</a>
</g>
</g>
<!-- Node5&#45;&gt;Node7 -->
<g id="edge6" class="edge"><title>Node5&#45;&gt;Node7</title>
<path fill="none" stroke="midnightblue" d="M73,-57.1081C73,-48.1539 73,-38.3227 73,-30.5765"/>
<polygon fill="midnightblue" stroke="midnightblue" points="69.5001,-57.3959 73,-67.396 76.5001,-57.396 69.5001,-57.3959"/>
</g>
<!-- Node10 -->
<g id="node10" class="node"><title>Node10</title>
<g id="a_node10"><a xlink:href="Checker_8cxx.html" target="_top" xlink:title="Framework/src/Checker.cxx">
<polygon fill="none" stroke="black" points="1010,-73 1010,-92 1150,-92 1150,-73 1010,-73"/>
<text text-anchor="middle" x="1080" y="-80" font-family="Helvetica,sans-Serif" font-size="10.00">Framework/src/Checker.cxx</text>
</a>
</g>
</g>
<!-- Node9&#45;&gt;Node10 -->
<g id="edge10" class="edge"><title>Node9&#45;&gt;Node10</title>
<path fill="none" stroke="midnightblue" d="M1270.98,-131.99C1220.81,-119.252 1153.45,-102.148 1113.59,-92.0287"/>
<polygon fill="midnightblue" stroke="midnightblue" points="1270.21,-135.407 1280.77,-134.476 1271.94,-128.623 1270.21,-135.407"/>
</g>
<!-- Node11 -->
<g id="node11" class="node"><title>Node11</title>
<g id="a_node11"><a xlink:href="CheckerFactory_8cxx.html" target="_top" xlink:title="Framework/src/CheckerFactory.cxx">
<polygon fill="none" stroke="black" points="1340.5,-73 1340.5,-92 1513.5,-92 1513.5,-73 1340.5,-73"/>
<text text-anchor="middle" x="1427" y="-80" font-family="Helvetica,sans-Serif" font-size="10.00">Framework/src/CheckerFactory.cxx</text>
</a>
</g>
</g>
<!-- Node9&#45;&gt;Node11 -->
<g id="edge11" class="edge"><title>Node9&#45;&gt;Node11</title>
<path fill="none" stroke="midnightblue" d="M1364.27,-128.306C1381.36,-116.1 1402.25,-101.177 1415.09,-92.007"/>
<polygon fill="midnightblue" stroke="midnightblue" points="1361.85,-125.735 1355.75,-134.396 1365.92,-131.432 1361.85,-125.735"/>
</g>
<!-- Node12 -->
<g id="node12" class="node"><title>Node12</title>
<g id="a_node12"><a xlink:href="runBasic_8cxx.html" target="_top" xlink:title="This is an executable showing QC Task&#39;s usage in Data Processing Layer. ">
<polygon fill="none" stroke="black" points="1532,-73 1532,-92 1674,-92 1674,-73 1532,-73"/>
<text text-anchor="middle" x="1603" y="-80" font-family="Helvetica,sans-Serif" font-size="10.00">Framework/src/runBasic.cxx</text>
</a>
</g>
</g>
<!-- Node9&#45;&gt;Node12 -->
<g id="edge12" class="edge"><title>Node9&#45;&gt;Node12</title>
<path fill="none" stroke="midnightblue" d="M1403.49,-132.069C1455.85,-119.323 1526.31,-102.169 1567.97,-92.0287"/>
<polygon fill="midnightblue" stroke="midnightblue" points="1402.49,-128.71 1393.61,-134.476 1404.15,-135.511 1402.49,-128.71"/>
</g>
<!-- Node13 -->
<g id="node13" class="node"><title>Node13</title>
<g id="a_node13"><a xlink:href="runMergerTest_8cxx.html" target="_top" xlink:title="This is DPL workflow to see HistoMerger in action. ">
<polygon fill="none" stroke="black" points="1692.5,-73 1692.5,-92 1859.5,-92 1859.5,-73 1692.5,-73"/>
<text text-anchor="middle" x="1776" y="-80" font-family="Helvetica,sans-Serif" font-size="10.00">Framework/src/runMergerTest.cxx</text>
</a>
</g>
</g>
<!-- Node9&#45;&gt;Node13 -->
<g id="edge13" class="edge"><title>Node9&#45;&gt;Node13</title>
<path fill="none" stroke="midnightblue" d="M1412.66,-137.572C1482.99,-127.491 1590.05,-112.009 1683,-98 1695.6,-96.1004 1709.16,-94.0123 1721.92,-92.0268"/>
<polygon fill="midnightblue" stroke="midnightblue" points="1411.95,-134.136 1402.55,-139.019 1412.95,-141.066 1411.95,-134.136"/>
</g>
<!-- Node14 -->
<g id="node14" class="node"><title>Node14</title>
<g id="a_node14"><a xlink:href="runReadout_8cxx.html" target="_top" xlink:title="This is an executable showing QC Task&#39;s usage in Data Processing Layer with Readout as external data ...">
<polygon fill="none" stroke="black" points="1168,-73 1168,-92 1322,-92 1322,-73 1168,-73"/>
<text text-anchor="middle" x="1245" y="-80" font-family="Helvetica,sans-Serif" font-size="10.00">Framework/src/runReadout.cxx</text>
</a>
</g>
</g>
<!-- Node9&#45;&gt;Node14 -->
<g id="edge14" class="edge"><title>Node9&#45;&gt;Node14</title>
<path fill="none" stroke="midnightblue" d="M1307.73,-128.306C1290.64,-116.1 1269.75,-101.177 1256.91,-92.007"/>
<polygon fill="midnightblue" stroke="midnightblue" points="1306.08,-131.432 1316.25,-134.396 1310.15,-125.735 1306.08,-131.432"/>
</g>
<!-- Node15&#45;&gt;Node4 -->
<g id="edge17" class="edge"><title>Node15&#45;&gt;Node4</title>
<path fill="none" stroke="midnightblue" d="M788.659,-130.946C753.893,-118.321 708.534,-101.85 681.427,-92.007"/>
<polygon fill="midnightblue" stroke="midnightblue" points="787.566,-134.273 798.16,-134.396 789.955,-127.693 787.566,-134.273"/>
</g>
<!-- Node15&#45;&gt;Node6 -->
<g id="edge18" class="edge"><title>Node15&#45;&gt;Node6</title>
<path fill="none" stroke="midnightblue" d="M818.218,-126.595C799.182,-104.972 770.526,-74.1379 756,-67 698.393,-38.6937 518.62,-25.0813 420.139,-19.598"/>
<polygon fill="midnightblue" stroke="midnightblue" points="815.782,-129.127 824.993,-134.362 821.057,-124.525 815.782,-129.127"/>
</g>
<!-- Node15&#45;&gt;Node8 -->
<g id="edge20" class="edge"><title>Node15&#45;&gt;Node8</title>
<path fill="none" stroke="midnightblue" d="M759.645,-134.947C685.866,-122.021 577.013,-102.95 514.653,-92.0241"/>
<polygon fill="midnightblue" stroke="midnightblue" points="759.361,-138.451 769.815,-136.729 760.569,-131.556 759.361,-138.451"/>
</g>
<!-- Node15&#45;&gt;Node10 -->
<g id="edge16" class="edge"><title>Node15&#45;&gt;Node10</title>
<path fill="none" stroke="midnightblue" d="M899.319,-131.83C946.877,-119.109 1010.44,-102.106 1048.12,-92.0287"/>
<polygon fill="midnightblue" stroke="midnightblue" points="898.184,-128.511 889.428,-134.476 899.993,-135.273 898.184,-128.511"/>
</g>
<!-- Node16 -->
<g id="node16" class="node"><title>Node16</title>
<g id="a_node16"><a xlink:href="testCcdbDatabase_8cxx.html" target="_top" xlink:title="Framework/test/testCcdbDatabase.cxx">
<polygon fill="none" stroke="black" points="804,-73 804,-92 992,-92 992,-73 804,-73"/>
<text text-anchor="middle" x="898" y="-80" font-family="Helvetica,sans-Serif" font-size="10.00">Framework/test/testCcdbDatabase.cxx</text>
</a>
</g>
</g>
<!-- Node15&#45;&gt;Node16 -->
<g id="edge19" class="edge"><title>Node15&#45;&gt;Node16</title>
<path fill="none" stroke="midnightblue" d="M857.18,-126.997C868.314,-115.132 881.529,-101.052 889.841,-92.1945"/>
<polygon fill="midnightblue" stroke="midnightblue" points="854.527,-124.709 850.236,-134.396 859.631,-129.499 854.527,-124.709"/>
</g>
<!-- Node18 -->
<g id="node18" class="node"><title>Node18</title>
<g id="a_node18"><a xlink:href="MySqlDatabase_8cxx.html" target="_top" xlink:title="Framework/src/MySqlDatabase.cxx">
<polygon fill="none" stroke="black" points="1877.5,-73 1877.5,-92 2050.5,-92 2050.5,-73 1877.5,-73"/>
<text text-anchor="middle" x="1964" y="-80" font-family="Helvetica,sans-Serif" font-size="10.00">Framework/src/MySqlDatabase.cxx</text>
</a>
</g>
</g>
<!-- Node17&#45;&gt;Node18 -->
<g id="edge22" class="edge"><title>Node17&#45;&gt;Node18</title>
<path fill="none" stroke="midnightblue" d="M1822.64,-131.108C1860.19,-118.462 1909.39,-101.892 1938.74,-92.007"/>
<polygon fill="midnightblue" stroke="midnightblue" points="1821.24,-127.887 1812.88,-134.396 1823.47,-134.521 1821.24,-127.887"/>
</g>
</g>
</svg>
        <g id="navigator" transform="translate(0 0)" fill="#404254">
                <rect fill="#f2f5e9" fill-opacity="0.5" stroke="#606060" stroke-width=".5" x="0" y="0" width="60" height="60"/>
                <use id="zoomplus" xlink:href="#zoomPlus" x="17" y="9" onmousedown="handleZoom(evt,'in')"/>
                <use id="zoomminus" xlink:href="#zoomMin" x="42" y="9" onmousedown="handleZoom(evt,'out')"/>
                <use id="reset" xlink:href="#resetDef" x="30" y="36" onmousedown="handleReset()"/>
                <g id="arrowUp" xlink:href="#dirArrow" transform="translate(30 24)" onmousedown="handlePan(0,-1)">
                  <use xlink:href="#rim" fill="#404040">
                        <set attributeName="fill" to="#808080" begin="arrowUp.mouseover" end="arrowUp.mouseout"/>
                  </use>
                  <path fill="none" stroke="white" stroke-width="1.5" d="M0,-3.0v7 M-2.5,-0.5L0,-3.0L2.5,-0.5"/>
                </g>
                <g id="arrowRight" xlink:href="#dirArrow" transform="rotate(90) translate(36 -43)" onmousedown="handlePan(1,0)">
                  <use xlink:href="#rim" fill="#404040">
                        <set attributeName="fill" to="#808080" begin="arrowRight.mouseover" end="arrowRight.mouseout"/>
                  </use>
                  <path fill="none" stroke="white" stroke-width="1.5" d="M0,-3.0v7 M-2.5,-0.5L0,-3.0L2.5,-0.5"/>
                </g>
                <g id="arrowDown" xlink:href="#dirArrow" transform="rotate(180) translate(-30 -48)" onmousedown="handlePan(0,1)">
                  <use xlink:href="#rim" fill="#404040">
                        <set attributeName="fill" to="#808080" begin="arrowDown.mouseover" end="arrowDown.mouseout"/>
                  </use>
                  <path fill="none" stroke="white" stroke-width="1.5" d="M0,-3.0v7 M-2.5,-0.5L0,-3.0L2.5,-0.5"/>
                </g>
                <g id="arrowLeft" xlink:href="#dirArrow" transform="rotate(270) translate(-36 17)" onmousedown="handlePan(-1,0)">
                  <use xlink:href="#rim" fill="#404040">
                        <set attributeName="fill" to="#808080" begin="arrowLeft.mouseover" end="arrowLeft.mouseout"/>
                  </use>
                  <path fill="none" stroke="white" stroke-width="1.5" d="M0,-3.0v7 M-2.5,-0.5L0,-3.0L2.5,-0.5"/>
                </g>
        </g>
        <svg viewBox="0 0 15 15" width="100%" height="30px" preserveAspectRatio="xMaxYMin meet">
         <g id="arrow_out" transform="scale(0.3 0.3)">
          <a xlink:href="DatabaseInterface_8h__dep__incl_org.svg" target="_base">
           <rect id="button" ry="5" rx="5" y="6" x="6" height="38" width="38"
                fill="#f2f5e9" fill-opacity="0.5" stroke="#606060" stroke-width="1.0"/>
           <path id="arrow"
             d="M 11.500037,31.436501 C 11.940474,20.09759 22.043105,11.32322 32.158766,21.979434 L 37.068811,17.246167 C 37.068811,17.246167 37.088388,32 37.088388,32 L 22.160133,31.978069 C 22.160133,31.978069 26.997745,27.140456 26.997745,27.140456 C 18.528582,18.264221 13.291696,25.230495 11.500037,31.436501 z"
             style="fill:#404040;"/>
          </a>
         </g>
        </svg>
</svg>
