<?xml version="1.0" encoding="UTF-8" standalone="no"?>
<!DOCTYPE svg PUBLIC "-//W3C//DTD SVG 1.1//EN"
 "http://www.w3.org/Graphics/SVG/1.1/DTD/svg11.dtd">
<!-- Generated by graphviz version 2.38.0 (20140413.2041)
 -->
<!-- Title: Framework/src/DatabaseFactory.cxx Pages: 1 -->
<svg width="1364pt" height="364pt"
 viewBox="0.00 0.00 1364.00 364.00" xmlns="http://www.w3.org/2000/svg" xmlns:xlink="http://www.w3.org/1999/xlink">
<g id="graph0" class="graph" transform="scale(1 1) rotate(0) translate(4 360)">
<title>Framework/src/DatabaseFactory.cxx</title>
<!-- Node1 -->
<g id="node1" class="node"><title>Node1</title>
<polygon fill="#bfbfbf" stroke="black" points="296.5,-336.5 296.5,-355.5 475.5,-355.5 475.5,-336.5 296.5,-336.5"/>
<text text-anchor="middle" x="386" y="-343.5" font-family="Helvetica,sans-Serif" font-size="10.00">Framework/src/DatabaseFactory.cxx</text>
</g>
<!-- Node2 -->
<g id="node2" class="node"><title>Node2</title>
<polygon fill="none" stroke="#bfbfbf" points="0,-280.5 0,-299.5 52,-299.5 52,-280.5 0,-280.5"/>
<text text-anchor="middle" x="26" y="-287.5" font-family="Helvetica,sans-Serif" font-size="10.00">sstream</text>
</g>
<!-- Node1&#45;&gt;Node2 -->
<g id="edge1" class="edge"><title>Node1&#45;&gt;Node2</title>
<path fill="none" stroke="midnightblue" d="M313.287,-336.492C248.251,-328.474 150.442,-315.41 66,-300 64.7396,-299.77 63.4586,-299.528 62.1663,-299.276"/>
<polygon fill="midnightblue" stroke="midnightblue" points="62.6889,-295.81 52.1874,-297.214 61.2718,-302.666 62.6889,-295.81"/>
</g>
<!-- Node3 -->
<g id="node3" class="node"><title>Node3</title>
<g id="a_node3"><a xlink:href="CcdbDatabase_8h.html" target="_top" xlink:title="QualityControl/CcdbDatabase.h">
<polygon fill="none" stroke="black" points="108.5,-280.5 108.5,-299.5 263.5,-299.5 263.5,-280.5 108.5,-280.5"/>
<text text-anchor="middle" x="186" y="-287.5" font-family="Helvetica,sans-Serif" font-size="10.00">QualityControl/CcdbDatabase.h</text>
</a>
</g>
</g>
<!-- Node1&#45;&gt;Node3 -->
<g id="edge2" class="edge"><title>Node1&#45;&gt;Node3</title>
<path fill="none" stroke="midnightblue" d="M354.309,-336.444C319.932,-327.162 264.923,-312.309 227.211,-302.127"/>
<polygon fill="midnightblue" stroke="midnightblue" points="228.109,-298.744 217.542,-299.516 226.284,-305.502 228.109,-298.744"/>
</g>
<!-- Node10 -->
<g id="node10" class="node"><title>Node10</title>
<polygon fill="none" stroke="#bfbfbf" points="315,-56.5 315,-75.5 431,-75.5 431,-56.5 315,-56.5"/>
<text text-anchor="middle" x="373" y="-63.5" font-family="Helvetica,sans-Serif" font-size="10.00">Common/Exceptions.h</text>
</g>
<!-- Node1&#45;&gt;Node10 -->
<g id="edge19" class="edge"><title>Node1&#45;&gt;Node10</title>
<path fill="none" stroke="midnightblue" d="M296.281,-341.258C223.258,-336.386 127.745,-325.261 99,-300 76.3916,-280.132 80,-265.098 80,-235 80,-235 80,-235 80,-177 80,-128.067 225.045,-93.5371 311.032,-77.3666"/>
<polygon fill="midnightblue" stroke="midnightblue" points="311.758,-80.7917 320.955,-75.5324 310.485,-73.9083 311.758,-80.7917"/>
</g>
<!-- Node16 -->
<g id="node16" class="node"><title>Node16</title>
<polygon fill="none" stroke="#bfbfbf" points="282,-280.5 282,-299.5 338,-299.5 338,-280.5 282,-280.5"/>
<text text-anchor="middle" x="310" y="-287.5" font-family="Helvetica,sans-Serif" font-size="10.00">TClass.h</text>
</g>
<!-- Node1&#45;&gt;Node16 -->
<g id="edge16" class="edge"><title>Node1&#45;&gt;Node16</title>
<path fill="none" stroke="midnightblue" d="M373.789,-336.324C362.224,-328.107 344.625,-315.602 330.839,-305.807"/>
<polygon fill="midnightblue" stroke="midnightblue" points="332.612,-302.773 322.433,-299.834 328.557,-308.479 332.612,-302.773"/>
</g>
<!-- Node17 -->
<g id="node17" class="node"><title>Node17</title>
<polygon fill="none" stroke="#bfbfbf" points="356.5,-280.5 356.5,-299.5 415.5,-299.5 415.5,-280.5 356.5,-280.5"/>
<text text-anchor="middle" x="386" y="-287.5" font-family="Helvetica,sans-Serif" font-size="10.00">TROOT.h</text>
</g>
<!-- Node1&#45;&gt;Node17 -->
<g id="edge17" class="edge"><title>Node1&#45;&gt;Node17</title>
<path fill="none" stroke="midnightblue" d="M386,-336.083C386,-329.006 386,-318.861 386,-309.986"/>
<polygon fill="midnightblue" stroke="midnightblue" points="389.5,-309.751 386,-299.751 382.5,-309.751 389.5,-309.751"/>
</g>
<!-- Node18 -->
<g id="node18" class="node"><title>Node18</title>
<polygon fill="none" stroke="#bfbfbf" points="433.5,-280.5 433.5,-299.5 498.5,-299.5 498.5,-280.5 433.5,-280.5"/>
<text text-anchor="middle" x="466" y="-287.5" font-family="Helvetica,sans-Serif" font-size="10.00">TSystem.h</text>
</g>
<!-- Node1&#45;&gt;Node18 -->
<g id="edge18" class="edge"><title>Node1&#45;&gt;Node18</title>
<path fill="none" stroke="midnightblue" d="M398.853,-336.324C411.216,-327.979 430.13,-315.212 444.737,-305.352"/>
<polygon fill="midnightblue" stroke="midnightblue" points="446.848,-308.15 453.179,-299.655 442.932,-302.348 446.848,-308.15"/>
</g>
<!-- Node19 -->
<g id="node19" class="node"><title>Node19</title>
<g id="a_node19"><a xlink:href="DatabaseFactory_8h.html" target="_top" xlink:title="QualityControl/DatabaseFactory.h">
<polygon fill="none" stroke="black" points="516.5,-280.5 516.5,-299.5 681.5,-299.5 681.5,-280.5 516.5,-280.5"/>
<text text-anchor="middle" x="599" y="-287.5" font-family="Helvetica,sans-Serif" font-size="10.00">QualityControl/DatabaseFactory.h</text>
</a>
</g>
</g>
<!-- Node1&#45;&gt;Node19 -->
<g id="edge20" class="edge"><title>Node1&#45;&gt;Node19</title>
<path fill="none" stroke="midnightblue" d="M419.75,-336.444C456.518,-327.122 515.446,-312.183 555.622,-301.997"/>
<polygon fill="midnightblue" stroke="midnightblue" points="556.574,-305.367 565.407,-299.516 554.854,-298.581 556.574,-305.367"/>
</g>
<!-- Node20 -->
<g id="node20" class="node"><title>Node20</title>
<g id="a_node20"><a xlink:href="QcInfoLogger_8h.html" target="_top" xlink:title="QualityControl/QcInfoLogger.h">
<polygon fill="none" stroke="black" points="699.5,-280.5 699.5,-299.5 848.5,-299.5 848.5,-280.5 699.5,-280.5"/>
<text text-anchor="middle" x="774" y="-287.5" font-family="Helvetica,sans-Serif" font-size="10.00">QualityControl/QcInfoLogger.h</text>
</a>
</g>
</g>
<!-- Node1&#45;&gt;Node20 -->
<g id="edge24" class="edge"><title>Node1&#45;&gt;Node20</title>
<path fill="none" stroke="midnightblue" d="M447.48,-336.444C516.868,-326.786 629.583,-311.099 702.754,-300.916"/>
<polygon fill="midnightblue" stroke="midnightblue" points="703.386,-304.362 712.808,-299.516 702.421,-297.428 703.386,-304.362"/>
</g>
<!-- Node21 -->
<g id="node21" class="node"><title>Node21</title>
<g id="a_node21"><a xlink:href="TaskInterface_8h.html" target="_top" xlink:title="TaskInterface.h">
<polygon fill="none" stroke="black" points="844.5,-224.5 844.5,-243.5 929.5,-243.5 929.5,-224.5 844.5,-224.5"/>
<text text-anchor="middle" x="887" y="-231.5" font-family="Helvetica,sans-Serif" font-size="10.00">TaskInterface.h</text>
</a>
</g>
</g>
<!-- Node1&#45;&gt;Node21 -->
<g id="edge42" class="edge"><title>Node1&#45;&gt;Node21</title>
<path fill="none" stroke="midnightblue" d="M475.744,-341.285C604.018,-335.25 827.731,-321.751 858,-300 873.019,-289.207 880.389,-268.816 883.92,-253.739"/>
<polygon fill="midnightblue" stroke="midnightblue" points="887.357,-254.403 885.868,-243.914 880.49,-253.042 887.357,-254.403"/>
</g>
<!-- Node4 -->
<g id="node4" class="node"><title>Node4</title>
<polygon fill="none" stroke="#bfbfbf" points="138.5,-224.5 138.5,-243.5 233.5,-243.5 233.5,-224.5 138.5,-224.5"/>
<text text-anchor="middle" x="186" y="-231.5" font-family="Helvetica,sans-Serif" font-size="10.00">CCDB/CcdbApi.h</text>
</g>
<!-- Node3&#45;&gt;Node4 -->
<g id="edge3" class="edge"><title>Node3&#45;&gt;Node4</title>
<path fill="none" stroke="midnightblue" d="M186,-280.083C186,-273.006 186,-262.861 186,-253.986"/>
<polygon fill="midnightblue" stroke="midnightblue" points="189.5,-253.751 186,-243.751 182.5,-253.751 189.5,-253.751"/>
</g>
<!-- Node5 -->
<g id="node5" class="node"><title>Node5</title>
<g id="a_node5"><a xlink:href="DatabaseInterface_8h.html" target="_top" xlink:title="QualityControl/DatabaseInterface.h">
<polygon fill="none" stroke="black" points="401,-224.5 401,-243.5 571,-243.5 571,-224.5 401,-224.5"/>
<text text-anchor="middle" x="486" y="-231.5" font-family="Helvetica,sans-Serif" font-size="10.00">QualityControl/DatabaseInterface.h</text>
</a>
</g>
</g>
<!-- Node3&#45;&gt;Node5 -->
<g id="edge4" class="edge"><title>Node3&#45;&gt;Node5</title>
<path fill="none" stroke="midnightblue" d="M233.536,-280.444C286.528,-270.905 372.203,-255.483 428.817,-245.293"/>
<polygon fill="midnightblue" stroke="midnightblue" points="429.465,-248.733 438.687,-243.516 428.225,-241.843 429.465,-248.733"/>
</g>
<!-- Node6 -->
<g id="node6" class="node"><title>Node6</title>
<g id="a_node6"><a xlink:href="MonitorObject_8h.html" target="_top" xlink:title="QualityControl/MonitorObject.h">
<polygon fill="none" stroke="black" points="457.5,-112.5 457.5,-131.5 608.5,-131.5 608.5,-112.5 457.5,-112.5"/>
<text text-anchor="middle" x="533" y="-119.5" font-family="Helvetica,sans-Serif" font-size="10.00">QualityControl/MonitorObject.h</text>
</a>
</g>
</g>
<!-- Node5&#45;&gt;Node6 -->
<g id="edge5" class="edge"><title>Node5&#45;&gt;Node6</title>
<path fill="none" stroke="midnightblue" d="M491.184,-224.231C496.341,-215.301 504.288,-200.964 510,-188 516.787,-172.596 523.058,-154.501 527.332,-141.321"/>
<polygon fill="midnightblue" stroke="midnightblue" points="530.737,-142.162 530.419,-131.571 524.063,-140.048 530.737,-142.162"/>
</g>
<!-- Node14 -->
<g id="node14" class="node"><title>Node14</title>
<polygon fill="none" stroke="#bfbfbf" points="557,-168.5 557,-187.5 609,-187.5 609,-168.5 557,-168.5"/>
<text text-anchor="middle" x="583" y="-175.5" font-family="Helvetica,sans-Serif" font-size="10.00">memory</text>
</g>
<!-- Node5&#45;&gt;Node14 -->
<g id="edge14" class="edge"><title>Node5&#45;&gt;Node14</title>
<path fill="none" stroke="midnightblue" d="M501.585,-224.324C516.999,-215.743 540.812,-202.486 558.71,-192.522"/>
<polygon fill="midnightblue" stroke="midnightblue" points="560.419,-195.577 567.454,-187.655 557.014,-189.461 560.419,-195.577"/>
</g>
<!-- Node15 -->
<g id="node15" class="node"><title>Node15</title>
<polygon fill="none" stroke="#bfbfbf" points="417.5,-168.5 417.5,-187.5 500.5,-187.5 500.5,-168.5 417.5,-168.5"/>
<text text-anchor="middle" x="459" y="-175.5" font-family="Helvetica,sans-Serif" font-size="10.00">unordered_map</text>
</g>
<!-- Node5&#45;&gt;Node15 -->
<g id="edge15" class="edge"><title>Node5&#45;&gt;Node15</title>
<path fill="none" stroke="midnightblue" d="M481.541,-224.083C477.846,-216.691 472.477,-205.953 467.906,-196.811"/>
<polygon fill="midnightblue" stroke="midnightblue" points="470.978,-195.13 463.376,-187.751 464.717,-198.261 470.978,-195.13"/>
</g>
<!-- Node7 -->
<g id="node7" class="node"><title>Node7</title>
<polygon fill="none" stroke="#bfbfbf" points="562,-56.5 562,-75.5 616,-75.5 616,-56.5 562,-56.5"/>
<text text-anchor="middle" x="589" y="-63.5" font-family="Helvetica,sans-Serif" font-size="10.00">iostream</text>
</g>
<!-- Node6&#45;&gt;Node7 -->
<g id="edge6" class="edge"><title>Node6&#45;&gt;Node7</title>
<path fill="none" stroke="midnightblue" d="M541.997,-112.324C550.194,-104.42 562.506,-92.5482 572.472,-82.9377"/>
<polygon fill="midnightblue" stroke="midnightblue" points="575.07,-85.2947 579.839,-75.8339 570.211,-80.2558 575.07,-85.2947"/>
</g>
<!-- Node8 -->
<g id="node8" class="node"><title>Node8</title>
<polygon fill="none" stroke="#bfbfbf" points="470.5,-56.5 470.5,-75.5 505.5,-75.5 505.5,-56.5 470.5,-56.5"/>
<text text-anchor="middle" x="488" y="-63.5" font-family="Helvetica,sans-Serif" font-size="10.00">map</text>
</g>
<!-- Node6&#45;&gt;Node8 -->
<g id="edge7" class="edge"><title>Node6&#45;&gt;Node8</title>
<path fill="none" stroke="midnightblue" d="M525.569,-112.083C519.147,-104.377 509.694,-93.0333 501.878,-83.6531"/>
<polygon fill="midnightblue" stroke="midnightblue" points="504.383,-81.1927 495.293,-75.7511 499.006,-85.674 504.383,-81.1927"/>
</g>
<!-- Node9 -->
<g id="node9" class="node"><title>Node9</title>
<polygon fill="none" stroke="#bfbfbf" points="548.5,-0.5 548.5,-19.5 607.5,-19.5 607.5,-0.5 548.5,-0.5"/>
<text text-anchor="middle" x="578" y="-7.5" font-family="Helvetica,sans-Serif" font-size="10.00">TObject.h</text>
</g>
<!-- Node6&#45;&gt;Node9 -->
<g id="edge8" class="edge"><title>Node6&#45;&gt;Node9</title>
<path fill="none" stroke="midnightblue" d="M535.039,-112.385C538.166,-99.7437 544.669,-75.5514 553,-56 557.029,-46.5448 562.483,-36.5036 567.269,-28.311"/>
<polygon fill="midnightblue" stroke="midnightblue" points="570.3,-30.0619 572.455,-19.6885 564.301,-26.4541 570.3,-30.0619"/>
</g>
<!-- Node6&#45;&gt;Node10 -->
<g id="edge9" class="edge"><title>Node6&#45;&gt;Node10</title>
<path fill="none" stroke="midnightblue" d="M507.648,-112.444C480.731,-103.359 438.004,-88.9388 407.913,-78.7831"/>
<polygon fill="midnightblue" stroke="midnightblue" points="408.828,-75.3981 398.234,-75.5164 406.59,-82.0305 408.828,-75.3981"/>
</g>
<!-- Node11 -->
<g id="node11" class="node"><title>Node11</title>
<g id="a_node11"><a xlink:href="Quality_8h.html" target="_top" xlink:title="QualityControl/Quality.h">
<polygon fill="none" stroke="black" points="634.5,-56.5 634.5,-75.5 755.5,-75.5 755.5,-56.5 634.5,-56.5"/>
<text text-anchor="middle" x="695" y="-63.5" font-family="Helvetica,sans-Serif" font-size="10.00">QualityControl/Quality.h</text>
</a>
</g>
</g>
<!-- Node6&#45;&gt;Node11 -->
<g id="edge10" class="edge"><title>Node6&#45;&gt;Node11</title>
<path fill="none" stroke="midnightblue" d="M558.669,-112.444C585.923,-103.359 629.184,-88.9388 659.651,-78.7831"/>
<polygon fill="midnightblue" stroke="midnightblue" points="661.071,-81.9992 669.451,-75.5164 658.857,-75.3584 661.071,-81.9992"/>
</g>
<!-- Node11&#45;&gt;Node9 -->
<g id="edge11" class="edge"><title>Node11&#45;&gt;Node9</title>
<path fill="none" stroke="midnightblue" d="M676.461,-56.4435C657.377,-47.6356 627.425,-33.8116 605.564,-23.722"/>
<polygon fill="midnightblue" stroke="midnightblue" points="606.999,-20.5292 596.452,-19.5164 604.065,-26.8849 606.999,-20.5292"/>
</g>
<!-- Node12 -->
<g id="node12" class="node"><title>Node12</title>
<polygon fill="none" stroke="#bfbfbf" points="669,-0.5 669,-19.5 721,-19.5 721,-0.5 669,-0.5"/>
<text text-anchor="middle" x="695" y="-7.5" font-family="Helvetica,sans-Serif" font-size="10.00">ostream</text>
</g>
<!-- Node11&#45;&gt;Node12 -->
<g id="edge12" class="edge"><title>Node11&#45;&gt;Node12</title>
<path fill="none" stroke="midnightblue" d="M695,-56.083C695,-49.0059 695,-38.8611 695,-29.9865"/>
<polygon fill="midnightblue" stroke="midnightblue" points="698.5,-29.751 695,-19.7511 691.5,-29.7511 698.5,-29.751"/>
</g>
<!-- Node13 -->
<g id="node13" class="node"><title>Node13</title>
<polygon fill="none" stroke="#bfbfbf" points="763.5,-0.5 763.5,-19.5 804.5,-19.5 804.5,-0.5 763.5,-0.5"/>
<text text-anchor="middle" x="784" y="-7.5" font-family="Helvetica,sans-Serif" font-size="10.00">string</text>
</g>
<!-- Node11&#45;&gt;Node13 -->
<g id="edge13" class="edge"><title>Node11&#45;&gt;Node13</title>
<path fill="none" stroke="midnightblue" d="M709.299,-56.324C723.183,-47.9002 744.492,-34.9709 760.804,-25.0741"/>
<polygon fill="midnightblue" stroke="midnightblue" points="763.002,-27.8341 769.736,-19.6545 759.371,-21.8495 763.002,-27.8341"/>
</g>
<!-- Node19&#45;&gt;Node5 -->
<g id="edge23" class="edge"><title>Node19&#45;&gt;Node5</title>
<path fill="none" stroke="midnightblue" d="M581.095,-280.444C562.746,-271.675 533.995,-257.935 512.906,-247.858"/>
<polygon fill="midnightblue" stroke="midnightblue" points="514.353,-244.67 503.821,-243.516 511.335,-250.986 514.353,-244.67"/>
</g>
<!-- Node19&#45;&gt;Node10 -->
<g id="edge22" class="edge"><title>Node19&#45;&gt;Node10</title>
<path fill="none" stroke="midnightblue" d="M516.483,-280.908C466.299,-274.185 408.742,-262.639 392,-244 352.12,-199.602 361.593,-121.475 368.655,-85.7638"/>
<polygon fill="midnightblue" stroke="midnightblue" points="372.126,-86.2674 370.798,-75.7562 365.282,-84.8019 372.126,-86.2674"/>
</g>
<!-- Node19&#45;&gt;Node14 -->
<g id="edge21" class="edge"><title>Node19&#45;&gt;Node14</title>
<path fill="none" stroke="midnightblue" d="M597.745,-280.368C595.162,-262.617 589.206,-221.666 585.705,-197.597"/>
<polygon fill="midnightblue" stroke="midnightblue" points="589.153,-196.983 584.25,-187.591 582.226,-197.991 589.153,-196.983"/>
</g>
<!-- Node20&#45;&gt;Node7 -->
<g id="edge41" class="edge"><title>Node20&#45;&gt;Node7</title>
<path fill="none" stroke="midnightblue" d="M748.235,-280.415C729.436,-273.111 704.319,-261.07 687,-244 666.891,-224.18 670.113,-213.006 657,-188 639.369,-154.377 636.973,-144.885 618,-112 612.601,-102.641 606.125,-92.5028 600.664,-84.2226"/>
<polygon fill="midnightblue" stroke="midnightblue" points="603.506,-82.1757 595.041,-75.8042 597.685,-86.0638 603.506,-82.1757"/>
</g>
<!-- Node20&#45;&gt;Node21 -->
<g id="edge25" class="edge"><title>Node20&#45;&gt;Node21</title>
<path fill="none" stroke="midnightblue" d="M791.905,-280.444C810.254,-271.675 839.005,-257.935 860.094,-247.858"/>
<polygon fill="midnightblue" stroke="midnightblue" points="861.665,-250.986 869.179,-243.516 858.647,-244.67 861.665,-250.986"/>
</g>
<!-- Node31 -->
<g id="node31" class="node"><title>Node31</title>
<polygon fill="none" stroke="#bfbfbf" points="696,-224.5 696,-243.5 826,-243.5 826,-224.5 696,-224.5"/>
<text text-anchor="middle" x="761" y="-231.5" font-family="Helvetica,sans-Serif" font-size="10.00">InfoLogger/InfoLogger.hxx</text>
</g>
<!-- Node20&#45;&gt;Node31 -->
<g id="edge40" class="edge"><title>Node20&#45;&gt;Node31</title>
<path fill="none" stroke="midnightblue" d="M771.853,-280.083C770.131,-272.927 767.653,-262.635 765.5,-253.691"/>
<polygon fill="midnightblue" stroke="midnightblue" points="768.85,-252.654 763.107,-243.751 762.045,-254.293 768.85,-252.654"/>
</g>
<!-- Node21&#45;&gt;Node14 -->
<g id="edge26" class="edge"><title>Node21&#45;&gt;Node14</title>
<path fill="none" stroke="midnightblue" d="M844.41,-225.435C784.261,-214.75 675.487,-195.429 619.091,-185.411"/>
<polygon fill="midnightblue" stroke="midnightblue" points="619.652,-181.956 609.194,-183.653 618.428,-188.848 619.652,-181.956"/>
</g>
<!-- Node22 -->
<g id="node22" class="node"><title>Node22</title>
<polygon fill="none" stroke="#bfbfbf" points="985.5,-168.5 985.5,-187.5 1034.5,-187.5 1034.5,-168.5 985.5,-168.5"/>
<text text-anchor="middle" x="1010" y="-175.5" font-family="Helvetica,sans-Serif" font-size="10.00">cassert</text>
</g>
<!-- Node21&#45;&gt;Node22 -->
<g id="edge27" class="edge"><title>Node21&#45;&gt;Node22</title>
<path fill="none" stroke="midnightblue" d="M906.49,-224.444C926.642,-215.596 958.323,-201.687 981.331,-191.586"/>
<polygon fill="midnightblue" stroke="midnightblue" points="982.852,-194.741 990.601,-187.516 980.038,-188.332 982.852,-194.741"/>
</g>
<!-- Node23 -->
<g id="node23" class="node"><title>Node23</title>
<polygon fill="none" stroke="#bfbfbf" points="1052.5,-168.5 1052.5,-187.5 1177.5,-187.5 1177.5,-168.5 1052.5,-168.5"/>
<text text-anchor="middle" x="1115" y="-175.5" font-family="Helvetica,sans-Serif" font-size="10.00">Framework/InitContext.h</text>
</g>
<!-- Node21&#45;&gt;Node23 -->
<g id="edge28" class="edge"><title>Node21&#45;&gt;Node23</title>
<path fill="none" stroke="midnightblue" d="M923.127,-224.444C962.651,-215.083 1026.1,-200.056 1069.11,-189.868"/>
<polygon fill="midnightblue" stroke="midnightblue" points="1070.12,-193.227 1079.04,-187.516 1068.5,-186.415 1070.12,-193.227"/>
</g>
<!-- Node24 -->
<g id="node24" class="node"><title>Node24</title>
<polygon fill="none" stroke="#bfbfbf" points="1196,-168.5 1196,-187.5 1356,-187.5 1356,-168.5 1196,-168.5"/>
<text text-anchor="middle" x="1276" y="-175.5" font-family="Helvetica,sans-Serif" font-size="10.00">Framework/ProcessingContext.h</text>
</g>
<!-- Node21&#45;&gt;Node24 -->
<g id="edge29" class="edge"><title>Node21&#45;&gt;Node24</title>
<path fill="none" stroke="midnightblue" d="M929.743,-227.067C995.988,-217.871 1124.18,-200.075 1204.64,-188.907"/>
<polygon fill="midnightblue" stroke="midnightblue" points="1205.26,-192.353 1214.69,-187.511 1204.3,-185.419 1205.26,-192.353"/>
</g>
<!-- Node25 -->
<g id="node25" class="node"><title>Node25</title>
<g id="a_node25"><a xlink:href="Activity_8h.html" target="_top" xlink:title="QualityControl/Activity.h">
<polygon fill="none" stroke="black" points="665.5,-168.5 665.5,-187.5 788.5,-187.5 788.5,-168.5 665.5,-168.5"/>
<text text-anchor="middle" x="727" y="-175.5" font-family="Helvetica,sans-Serif" font-size="10.00">QualityControl/Activity.h</text>
</a>
</g>
</g>
<!-- Node21&#45;&gt;Node25 -->
<g id="edge30" class="edge"><title>Node21&#45;&gt;Node25</title>
<path fill="none" stroke="midnightblue" d="M861.648,-224.444C834.731,-215.359 792.004,-200.939 761.913,-190.783"/>
<polygon fill="midnightblue" stroke="midnightblue" points="762.828,-187.398 752.234,-187.516 760.59,-194.031 762.828,-187.398"/>
</g>
<!-- Node26 -->
<g id="node26" class="node"><title>Node26</title>
<g id="a_node26"><a xlink:href="ObjectsManager_8h.html" target="_top" xlink:title="QualityControl/ObjectsManager.h">
<polygon fill="none" stroke="black" points="806.5,-168.5 806.5,-187.5 967.5,-187.5 967.5,-168.5 806.5,-168.5"/>
<text text-anchor="middle" x="887" y="-175.5" font-family="Helvetica,sans-Serif" font-size="10.00">QualityControl/ObjectsManager.h</text>
</a>
</g>
</g>
<!-- Node21&#45;&gt;Node26 -->
<g id="edge31" class="edge"><title>Node21&#45;&gt;Node26</title>
<path fill="none" stroke="midnightblue" d="M887,-224.083C887,-217.006 887,-206.861 887,-197.986"/>
<polygon fill="midnightblue" stroke="midnightblue" points="890.5,-197.751 887,-187.751 883.5,-197.751 890.5,-197.751"/>
</g>
<!-- Node26&#45;&gt;Node6 -->
<g id="edge32" class="edge"><title>Node26&#45;&gt;Node6</title>
<path fill="none" stroke="midnightblue" d="M830.908,-168.444C767.859,-158.826 665.603,-143.228 598.824,-133.041"/>
<polygon fill="midnightblue" stroke="midnightblue" points="599.243,-129.565 588.83,-131.516 598.188,-136.484 599.243,-129.565"/>
</g>
<!-- Node26&#45;&gt;Node11 -->
<g id="edge33" class="edge"><title>Node26&#45;&gt;Node11</title>
<path fill="none" stroke="midnightblue" d="M856.348,-168.428C831.936,-160.859 797.429,-148.465 770,-132 747.065,-118.232 724.364,-97.2578 710.049,-82.8811"/>
<polygon fill="midnightblue" stroke="midnightblue" points="712.497,-80.3782 703.01,-75.6605 707.484,-85.2643 712.497,-80.3782"/>
</g>
<!-- Node26&#45;&gt;Node13 -->
<g id="edge39" class="edge"><title>Node26&#45;&gt;Node13</title>
<path fill="none" stroke="midnightblue" d="M876.083,-168.436C865.594,-159.888 849.662,-146.037 838,-132 819.244,-109.425 815.008,-102.781 803,-76 796.236,-60.9138 791.17,-42.7881 787.977,-29.5145"/>
<polygon fill="midnightblue" stroke="midnightblue" points="791.371,-28.6537 785.74,-19.6791 784.545,-30.2063 791.371,-28.6537"/>
</g>
<!-- Node27 -->
<g id="node27" class="node"><title>Node27</title>
<g id="a_node27"><a xlink:href="TaskConfig_8h.html" target="_top" xlink:title="QualityControl/TaskConfig.h">
<polygon fill="none" stroke="black" points="812,-56.5 812,-75.5 952,-75.5 952,-56.5 812,-56.5"/>
<text text-anchor="middle" x="882" y="-63.5" font-family="Helvetica,sans-Serif" font-size="10.00">QualityControl/TaskConfig.h</text>
</a>
</g>
</g>
<!-- Node26&#45;&gt;Node27 -->
<g id="edge34" class="edge"><title>Node26&#45;&gt;Node27</title>
<path fill="none" stroke="midnightblue" d="M874.503,-168.302C864.126,-160.251 850.113,-147.245 844,-132 836.91,-114.317 850.21,-95.6995 862.982,-82.9438"/>
<polygon fill="midnightblue" stroke="midnightblue" points="865.717,-85.1812 870.678,-75.8198 860.962,-80.0441 865.717,-85.1812"/>
</g>
<!-- Node28 -->
<g id="node28" class="node"><title>Node28</title>
<polygon fill="none" stroke="#bfbfbf" points="852.5,-112.5 852.5,-131.5 921.5,-131.5 921.5,-112.5 852.5,-112.5"/>
<text text-anchor="middle" x="887" y="-119.5" font-family="Helvetica,sans-Serif" font-size="10.00">TObjArray.h</text>
</g>
<!-- Node26&#45;&gt;Node28 -->
<g id="edge36" class="edge"><title>Node26&#45;&gt;Node28</title>
<path fill="none" stroke="midnightblue" d="M887,-168.083C887,-161.006 887,-150.861 887,-141.986"/>
<polygon fill="midnightblue" stroke="midnightblue" points="890.5,-141.751 887,-131.751 883.5,-141.751 890.5,-141.751"/>
</g>
<!-- Node29 -->
<g id="node29" class="node"><title>Node29</title>
<polygon fill="none" stroke="#bfbfbf" points="939.5,-112.5 939.5,-131.5 1010.5,-131.5 1010.5,-112.5 939.5,-112.5"/>
<text text-anchor="middle" x="975" y="-119.5" font-family="Helvetica,sans-Serif" font-size="10.00">TObjString.h</text>
</g>
<!-- Node26&#45;&gt;Node29 -->
<g id="edge37" class="edge"><title>Node26&#45;&gt;Node29</title>
<path fill="none" stroke="midnightblue" d="M901.139,-168.324C914.866,-159.9 935.936,-146.971 952.064,-137.074"/>
<polygon fill="midnightblue" stroke="midnightblue" points="954.204,-139.868 960.896,-131.655 950.543,-133.902 954.204,-139.868"/>
</g>
<!-- Node30 -->
<g id="node30" class="node"><title>Node30</title>
<polygon fill="none" stroke="#bfbfbf" points="1029,-112.5 1029,-131.5 1157,-131.5 1157,-112.5 1029,-112.5"/>
<text text-anchor="middle" x="1093" y="-119.5" font-family="Helvetica,sans-Serif" font-size="10.00">boost/concept_check.hpp</text>
</g>
<!-- Node26&#45;&gt;Node30 -->
<g id="edge38" class="edge"><title>Node26&#45;&gt;Node30</title>
<path fill="none" stroke="midnightblue" d="M919.641,-168.444C955.05,-159.162 1011.71,-144.309 1050.55,-134.127"/>
<polygon fill="midnightblue" stroke="midnightblue" points="1051.73,-137.438 1060.51,-131.516 1049.95,-130.667 1051.73,-137.438"/>
</g>
<!-- Node27&#45;&gt;Node13 -->
<g id="edge35" class="edge"><title>Node27&#45;&gt;Node13</title>
<path fill="none" stroke="midnightblue" d="M866.255,-56.324C850.681,-47.7428 826.623,-34.486 808.541,-24.5224"/>
<polygon fill="midnightblue" stroke="midnightblue" points="810.154,-21.4152 799.706,-19.6545 806.776,-27.546 810.154,-21.4152"/>
</g>
</g>
</svg>
