<?xml version="1.0" encoding="UTF-8" standalone="no"?>
<!DOCTYPE svg PUBLIC "-//W3C//DTD SVG 1.1//EN"
 "http://www.w3.org/Graphics/SVG/1.1/DTD/svg11.dtd">
<!-- Generated by graphviz version 2.38.0 (20140413.2041)
 -->
<!-- Title: Framework/include/QualityControl/DatabaseFactory.h Pages: 1 -->
<svg width="445pt" height="263pt"
 viewBox="0.00 0.00 445.00 263.00" xmlns="http://www.w3.org/2000/svg" xmlns:xlink="http://www.w3.org/1999/xlink">
<g id="graph0" class="graph" transform="scale(1 1) rotate(0) translate(4 259)">
<title>Framework/include/QualityControl/DatabaseFactory.h</title>
<!-- Node1 -->
<g id="node1" class="node"><title>Node1</title>
<polygon fill="#bfbfbf" stroke="black" points="37,-224.5 37,-254.5 171,-254.5 171,-224.5 37,-224.5"/>
<text text-anchor="start" x="45" y="-242.5" font-family="Helvetica,sans-Serif" font-size="10.00">Framework/include/Quality</text>
<text text-anchor="middle" x="104" y="-231.5" font-family="Helvetica,sans-Serif" font-size="10.00">Control/DatabaseFactory.h</text>
</g>
<!-- Node2 -->
<g id="node2" class="node"><title>Node2</title>
<polygon fill="none" stroke="#bfbfbf" points="78,-112.5 78,-131.5 130,-131.5 130,-112.5 78,-112.5"/>
<text text-anchor="middle" x="104" y="-119.5" font-family="Helvetica,sans-Serif" font-size="10.00">memory</text>
</g>
<!-- Node1&#45;&gt;Node2 -->
<g id="edge1" class="edge"><title>Node1&#45;&gt;Node2</title>
<path fill="none" stroke="midnightblue" d="M104,-224.337C104,-203.622 104,-165.016 104,-141.899"/>
<polygon fill="midnightblue" stroke="midnightblue" points="107.5,-141.669 104,-131.669 100.5,-141.669 107.5,-141.669"/>
</g>
<!-- Node3 -->
<g id="node3" class="node"><title>Node3</title>
<polygon fill="none" stroke="#bfbfbf" points="0,-56.5 0,-75.5 116,-75.5 116,-56.5 0,-56.5"/>
<text text-anchor="middle" x="58" y="-63.5" font-family="Helvetica,sans-Serif" font-size="10.00">Common/Exceptions.h</text>
</g>
<!-- Node1&#45;&gt;Node3 -->
<g id="edge2" class="edge"><title>Node1&#45;&gt;Node3</title>
<path fill="none" stroke="midnightblue" d="M98.55,-224.23C90.9921,-203.981 77.3216,-165.629 69,-132 65.2151,-116.705 62.3198,-99.0618 60.4519,-86.0199"/>
<polygon fill="midnightblue" stroke="midnightblue" points="63.8938,-85.3552 59.0784,-75.9179 56.9576,-86.2983 63.8938,-85.3552"/>
</g>
<!-- Node4 -->
<g id="node4" class="node"><title>Node4</title>
<g id="a_node4"><a xlink:href="DatabaseInterface_8h.html" target="_top" xlink:title="QualityControl/DatabaseInterface.h">
<polygon fill="none" stroke="black" points="135,-168.5 135,-187.5 305,-187.5 305,-168.5 135,-168.5"/>
<text text-anchor="middle" x="220" y="-175.5" font-family="Helvetica,sans-Serif" font-size="10.00">QualityControl/DatabaseInterface.h</text>
</a>
</g>
</g>
<!-- Node1&#45;&gt;Node4 -->
<g id="edge3" class="edge"><title>Node1&#45;&gt;Node4</title>
<path fill="none" stroke="midnightblue" d="M131.49,-224.399C150.432,-214.684 175.442,-201.855 194.044,-192.314"/>
<polygon fill="midnightblue" stroke="midnightblue" points="195.821,-195.336 203.121,-187.658 192.626,-189.108 195.821,-195.336"/>
</g>
<!-- Node4&#45;&gt;Node2 -->
<g id="edge13" class="edge"><title>Node4&#45;&gt;Node2</title>
<path fill="none" stroke="midnightblue" d="M201.619,-168.444C182.784,-159.675 153.269,-145.935 131.621,-135.858"/>
<polygon fill="midnightblue" stroke="midnightblue" points="132.838,-132.564 122.295,-131.516 129.883,-138.91 132.838,-132.564"/>
</g>
<!-- Node5 -->
<g id="node5" class="node"><title>Node5</title>
<g id="a_node5"><a xlink:href="MonitorObject_8h.html" target="_top" xlink:title="QualityControl/MonitorObject.h">
<polygon fill="none" stroke="black" points="148.5,-112.5 148.5,-131.5 299.5,-131.5 299.5,-112.5 148.5,-112.5"/>
<text text-anchor="middle" x="224" y="-119.5" font-family="Helvetica,sans-Serif" font-size="10.00">QualityControl/MonitorObject.h</text>
</a>
</g>
</g>
<!-- Node4&#45;&gt;Node5 -->
<g id="edge4" class="edge"><title>Node4&#45;&gt;Node5</title>
<path fill="none" stroke="midnightblue" d="M220.661,-168.083C221.185,-161.006 221.936,-150.861 222.594,-141.986"/>
<polygon fill="midnightblue" stroke="midnightblue" points="226.103,-141.982 223.352,-131.751 219.123,-141.465 226.103,-141.982"/>
</g>
<!-- Node12 -->
<g id="node12" class="node"><title>Node12</title>
<polygon fill="none" stroke="#bfbfbf" points="317.5,-112.5 317.5,-131.5 400.5,-131.5 400.5,-112.5 317.5,-112.5"/>
<text text-anchor="middle" x="359" y="-119.5" font-family="Helvetica,sans-Serif" font-size="10.00">unordered_map</text>
</g>
<!-- Node4&#45;&gt;Node12 -->
<g id="edge14" class="edge"><title>Node4&#45;&gt;Node12</title>
<path fill="none" stroke="midnightblue" d="M242.025,-168.444C265.104,-159.478 301.562,-145.314 327.641,-135.183"/>
<polygon fill="midnightblue" stroke="midnightblue" points="329.024,-138.4 337.078,-131.516 326.489,-131.875 329.024,-138.4"/>
</g>
<!-- Node5&#45;&gt;Node3 -->
<g id="edge8" class="edge"><title>Node5&#45;&gt;Node3</title>
<path fill="none" stroke="midnightblue" d="M197.697,-112.444C169.649,-103.32 125.056,-88.8133 93.8158,-78.6509"/>
<polygon fill="midnightblue" stroke="midnightblue" points="94.7724,-75.2816 84.1801,-75.5164 92.6069,-81.9383 94.7724,-75.2816"/>
</g>
<!-- Node6 -->
<g id="node6" class="node"><title>Node6</title>
<polygon fill="none" stroke="#bfbfbf" points="383,-56.5 383,-75.5 437,-75.5 437,-56.5 383,-56.5"/>
<text text-anchor="middle" x="410" y="-63.5" font-family="Helvetica,sans-Serif" font-size="10.00">iostream</text>
</g>
<!-- Node5&#45;&gt;Node6 -->
<g id="edge5" class="edge"><title>Node5&#45;&gt;Node6</title>
<path fill="none" stroke="midnightblue" d="M253.472,-112.444C285.824,-103.051 337.822,-87.9549 372.919,-77.7654"/>
<polygon fill="midnightblue" stroke="midnightblue" points="374.156,-81.0509 382.784,-74.9015 372.204,-74.3285 374.156,-81.0509"/>
</g>
<!-- Node7 -->
<g id="node7" class="node"><title>Node7</title>
<polygon fill="none" stroke="#bfbfbf" points="151.5,-56.5 151.5,-75.5 186.5,-75.5 186.5,-56.5 151.5,-56.5"/>
<text text-anchor="middle" x="169" y="-63.5" font-family="Helvetica,sans-Serif" font-size="10.00">map</text>
</g>
<!-- Node5&#45;&gt;Node7 -->
<g id="edge6" class="edge"><title>Node5&#45;&gt;Node7</title>
<path fill="none" stroke="midnightblue" d="M214.918,-112.083C206.829,-104.141 194.805,-92.3354 185.09,-82.7973"/>
<polygon fill="midnightblue" stroke="midnightblue" points="187.501,-80.2595 177.913,-75.7511 182.597,-85.2545 187.501,-80.2595"/>
</g>
<!-- Node8 -->
<g id="node8" class="node"><title>Node8</title>
<polygon fill="none" stroke="#bfbfbf" points="190.5,-0.5 190.5,-19.5 249.5,-19.5 249.5,-0.5 190.5,-0.5"/>
<text text-anchor="middle" x="220" y="-7.5" font-family="Helvetica,sans-Serif" font-size="10.00">TObject.h</text>
</g>
<!-- Node5&#45;&gt;Node8 -->
<g id="edge7" class="edge"><title>Node5&#45;&gt;Node8</title>
<path fill="none" stroke="midnightblue" d="M223.686,-112.368C223.041,-94.617 221.552,-53.6664 220.676,-29.5974"/>
<polygon fill="midnightblue" stroke="midnightblue" points="224.174,-29.4576 220.312,-19.5914 217.178,-29.712 224.174,-29.4576"/>
</g>
<!-- Node9 -->
<g id="node9" class="node"><title>Node9</title>
<g id="a_node9"><a xlink:href="Quality_8h.html" target="_top" xlink:title="QualityControl/Quality.h">
<polygon fill="none" stroke="black" points="243.5,-56.5 243.5,-75.5 364.5,-75.5 364.5,-56.5 243.5,-56.5"/>
<text text-anchor="middle" x="304" y="-63.5" font-family="Helvetica,sans-Serif" font-size="10.00">QualityControl/Quality.h</text>
</a>
</g>
</g>
<!-- Node5&#45;&gt;Node9 -->
<g id="edge9" class="edge"><title>Node5&#45;&gt;Node9</title>
<path fill="none" stroke="midnightblue" d="M236.853,-112.324C249.216,-103.979 268.13,-91.2122 282.737,-81.3524"/>
<polygon fill="midnightblue" stroke="midnightblue" points="284.848,-84.1503 291.179,-75.6545 280.932,-78.3483 284.848,-84.1503"/>
</g>
<!-- Node9&#45;&gt;Node8 -->
<g id="edge10" class="edge"><title>Node9&#45;&gt;Node8</title>
<path fill="none" stroke="midnightblue" d="M290.504,-56.324C277.4,-47.9002 257.288,-34.9709 241.893,-25.0741"/>
<polygon fill="midnightblue" stroke="midnightblue" points="243.767,-22.118 233.463,-19.6545 239.982,-28.0063 243.767,-22.118"/>
</g>
<!-- Node10 -->
<g id="node10" class="node"><title>Node10</title>
<polygon fill="none" stroke="#bfbfbf" points="337,-0.5 337,-19.5 389,-19.5 389,-0.5 337,-0.5"/>
<text text-anchor="middle" x="363" y="-7.5" font-family="Helvetica,sans-Serif" font-size="10.00">ostream</text>
</g>
<!-- Node9&#45;&gt;Node10 -->
<g id="edge11" class="edge"><title>Node9&#45;&gt;Node10</title>
<path fill="none" stroke="midnightblue" d="M313.479,-56.324C322.201,-48.3414 335.343,-36.3128 345.898,-26.6529"/>
<polygon fill="midnightblue" stroke="midnightblue" points="348.334,-29.1674 353.348,-19.8339 343.608,-24.0036 348.334,-29.1674"/>
</g>
<!-- Node11 -->
<g id="node11" class="node"><title>Node11</title>
<polygon fill="none" stroke="#bfbfbf" points="277.5,-0.5 277.5,-19.5 318.5,-19.5 318.5,-0.5 277.5,-0.5"/>
<text text-anchor="middle" x="298" y="-7.5" font-family="Helvetica,sans-Serif" font-size="10.00">string</text>
</g>
<!-- Node9&#45;&gt;Node11 -->
<g id="edge12" class="edge"><title>Node9&#45;&gt;Node11</title>
<path fill="none" stroke="midnightblue" d="M303.009,-56.083C302.214,-48.9272 301.071,-38.6353 300.077,-29.6911"/>
<polygon fill="midnightblue" stroke="midnightblue" points="303.555,-29.3034 298.972,-19.7511 296.598,-30.0765 303.555,-29.3034"/>
</g>
</g>
</svg>
