<?xml version="1.0" encoding="UTF-8" standalone="no"?>
<!DOCTYPE svg PUBLIC "-//W3C//DTD SVG 1.1//EN"
 "http://www.w3.org/Graphics/SVG/1.1/DTD/svg11.dtd">
<!-- Generated by graphviz version 2.38.0 (20140413.2041)
 -->
<!-- Title: Modules Pages: 1 -->
<svg width="387pt" height="132pt"
 viewBox="0.00 0.00 387.00 132.00" xmlns="http://www.w3.org/2000/svg" xmlns:xlink="http://www.w3.org/1999/xlink">
<g id="graph0" class="graph" transform="scale(1 1) rotate(0) translate(4 128)">
<title>Modules</title>
<g id="clust1" class="cluster"><title>clusterdir_f2541a3b18981391fa76fac5599e978a</title>
<g id="a_clust1"><a xlink:href="dir_f2541a3b18981391fa76fac5599e978a.html" target="_top">
<polygon fill="#eeeeff" stroke="black" points="8,-64 8,-116 371,-116 371,-64 8,-64"/>
</a>
</g>
</g>
<!-- dir_f2541a3b18981391fa76fac5599e978a -->
<g id="node1" class="node"><title>dir_f2541a3b18981391fa76fac5599e978a</title>
<text text-anchor="middle" x="336" y="-87.5" font-family="Helvetica,sans-Serif" font-size="10.00">Modules</text>
</g>
<!-- dir_6b8bd6c02904bc94839ef977dfbf16fd -->
<g id="node2" class="node"><title>dir_6b8bd6c02904bc94839ef977dfbf16fd</title>
<g id="a_node2"><a xlink:href="dir_6b8bd6c02904bc94839ef977dfbf16fd.html" target="_top" xlink:title="Common">
<polygon fill="white" stroke="red" points="291,-108 235,-108 235,-72 291,-72 291,-108"/>
<text text-anchor="middle" x="263" y="-87.5" font-family="Helvetica,sans-Serif" font-size="10.00">Common</text>
</a>
</g>
</g>
<!-- dir_bcbb2cf9a3d3d83e5515c82071a07177 -->
<g id="node6" class="node"><title>dir_bcbb2cf9a3d3d83e5515c82071a07177</title>
<g id="a_node6"><a xlink:href="dir_bcbb2cf9a3d3d83e5515c82071a07177.html" target="_top" xlink:title="Framework">
<polygon fill="none" stroke="red" points="185.5,-36 120.5,-36 120.5,-0 185.5,-0 185.5,-36"/>
<text text-anchor="middle" x="153" y="-15.5" font-family="Helvetica,sans-Serif" font-size="10.00">Framework</text>
</a>
</g>
</g>
<!-- dir_6b8bd6c02904bc94839ef977dfbf16fd&#45;&gt;dir_bcbb2cf9a3d3d83e5515c82071a07177 -->
<g id="edge3" class="edge"><title>dir_6b8bd6c02904bc94839ef977dfbf16fd&#45;&gt;dir_bcbb2cf9a3d3d83e5515c82071a07177</title>
<path fill="none" stroke="black" d="M238.017,-71.9131C234.016,-69.2367 229.908,-66.5231 226,-64 214.339,-56.4707 201.489,-48.457 189.863,-41.3103"/>
<polygon fill="black" stroke="black" points="191.607,-38.2741 181.251,-36.0366 187.951,-44.2438 191.607,-38.2741"/>
<g id="a_edge3&#45;headlabel"><a xlink:href="dir_000004_000000.html" target="_top" xlink:title="6">
<text text-anchor="middle" x="196.155" y="-35.23" font-family="Helvetica,sans-Serif" font-size="10.00">6</text>
</a>
</g>
</g>
<!-- dir_b4be303506ebb37c6dc24696436a6ab8 -->
<g id="node3" class="node"><title>dir_b4be303506ebb37c6dc24696436a6ab8</title>
<g id="a_node3"><a xlink:href="dir_b4be303506ebb37c6dc24696436a6ab8.html" target="_top" xlink:title="Daq">
<polygon fill="white" stroke="red" points="217,-108 163,-108 163,-72 217,-72 217,-108"/>
<text text-anchor="middle" x="190" y="-87.5" font-family="Helvetica,sans-Serif" font-size="10.00">Daq</text>
</a>
</g>
</g>
<!-- dir_b4be303506ebb37c6dc24696436a6ab8&#45;&gt;dir_bcbb2cf9a3d3d83e5515c82071a07177 -->
<g id="edge4" class="edge"><title>dir_b4be303506ebb37c6dc24696436a6ab8&#45;&gt;dir_bcbb2cf9a3d3d83e5515c82071a07177</title>
<path fill="none" stroke="black" d="M180.854,-71.6966C176.597,-63.6436 171.444,-53.8945 166.734,-44.9824"/>
<polygon fill="black" stroke="black" points="169.808,-43.3097 162.041,-36.1043 163.62,-46.5809 169.808,-43.3097"/>
<g id="a_edge4&#45;headlabel"><a xlink:href="dir_000007_000000.html" target="_top" xlink:title="6">
<text text-anchor="middle" x="173.998" y="-42.6609" font-family="Helvetica,sans-Serif" font-size="10.00">6</text>
</a>
</g>
</g>
<!-- dir_5273b6b5b4e75477d91e3579fb65d936 -->
<g id="node4" class="node"><title>dir_5273b6b5b4e75477d91e3579fb65d936</title>
<g id="a_node4"><a xlink:href="dir_5273b6b5b4e75477d91e3579fb65d936.html" target="_top" xlink:title="Example">
<polygon fill="white" stroke="red" points="144.5,-108 89.5,-108 89.5,-72 144.5,-72 144.5,-108"/>
<text text-anchor="middle" x="117" y="-87.5" font-family="Helvetica,sans-Serif" font-size="10.00">Example</text>
</a>
</g>
</g>
<!-- dir_5273b6b5b4e75477d91e3579fb65d936&#45;&gt;dir_bcbb2cf9a3d3d83e5515c82071a07177 -->
<g id="edge1" class="edge"><title>dir_5273b6b5b4e75477d91e3579fb65d936&#45;&gt;dir_bcbb2cf9a3d3d83e5515c82071a07177</title>
<path fill="none" stroke="black" d="M125.899,-71.6966C129.997,-63.7284 134.949,-54.0995 139.493,-45.2641"/>
<polygon fill="black" stroke="black" points="142.742,-46.598 144.203,-36.1043 136.517,-43.3965 142.742,-46.598"/>
<g id="a_edge1&#45;headlabel"><a xlink:href="dir_000010_000000.html" target="_top" xlink:title="10">
<text text-anchor="middle" x="143.623" y="-48.5931" font-family="Helvetica,sans-Serif" font-size="10.00">10</text>
</a>
</g>
</g>
<!-- dir_cc72967e88078b463843b5977855e60d -->
<g id="node5" class="node"><title>dir_cc72967e88078b463843b5977855e60d</title>
<g id="a_node5"><a xlink:href="dir_cc72967e88078b463843b5977855e60d.html" target="_top" xlink:title="Skeleton">
<polygon fill="white" stroke="red" points="71.5,-108 16.5,-108 16.5,-72 71.5,-72 71.5,-108"/>
<text text-anchor="middle" x="44" y="-87.5" font-family="Helvetica,sans-Serif" font-size="10.00">Skeleton</text>
</a>
</g>
</g>
<!-- dir_cc72967e88078b463843b5977855e60d&#45;&gt;dir_bcbb2cf9a3d3d83e5515c82071a07177 -->
<g id="edge2" class="edge"><title>dir_cc72967e88078b463843b5977855e60d&#45;&gt;dir_bcbb2cf9a3d3d83e5515c82071a07177</title>
<path fill="none" stroke="black" d="M68.9971,-71.9343C72.9958,-69.2552 77.1001,-66.5351 81,-64 92.4098,-56.5831 104.954,-48.6634 116.33,-41.5681"/>
<polygon fill="black" stroke="black" points="118.515,-44.3315 125.16,-36.0798 114.819,-38.3864 118.515,-44.3315"/>
<g id="a_edge2&#45;headlabel"><a xlink:href="dir_000013_000000.html" target="_top" xlink:title="7">
<text text-anchor="middle" x="116.96" y="-46.1405" font-family="Helvetica,sans-Serif" font-size="10.00">7</text>
</a>
</g>
</g>
</g>
</svg>
