<?xml version="1.0" encoding="UTF-8" standalone="no"?>
<!DOCTYPE svg PUBLIC "-//W3C//DTD SVG 1.1//EN"
 "http://www.w3.org/Graphics/SVG/1.1/DTD/svg11.dtd">
<!-- Generated by graphviz version 2.38.0 (20140413.2041)
 -->
<!-- Title: Modules/Common Pages: 1 -->
<svg width="256pt" height="231pt"
 viewBox="0.00 0.00 256.00 231.00" xmlns="http://www.w3.org/2000/svg" xmlns:xlink="http://www.w3.org/1999/xlink">
<g id="graph0" class="graph" transform="scale(1 1) rotate(0) translate(4 227)">
<title>Modules/Common</title>
<g id="clust1" class="cluster"><title>clusterdir_f2541a3b18981391fa76fac5599e978a</title>
<g id="a_clust1"><a xlink:href="dir_f2541a3b18981391fa76fac5599e978a.html" target="_top" xlink:title="Modules">
<polygon fill="#ddddee" stroke="black" points="8,-56 8,-215 240,-215 240,-56 8,-56"/>
<text text-anchor="middle" x="124" y="-203" font-family="Helvetica,sans-Serif" font-size="10.00">Modules</text>
</a>
</g>
</g>
<g id="clust2" class="cluster"><title>clusterdir_6b8bd6c02904bc94839ef977dfbf16fd</title>
<g id="a_clust2"><a xlink:href="dir_6b8bd6c02904bc94839ef977dfbf16fd.html" target="_top">
<polygon fill="#eeeeff" stroke="black" points="16,-64 16,-188 232,-188 232,-64 16,-64"/>
</a>
</g>
</g>
<!-- dir_6b8bd6c02904bc94839ef977dfbf16fd -->
<g id="node1" class="node"><title>dir_6b8bd6c02904bc94839ef977dfbf16fd</title>
<text text-anchor="middle" x="196" y="-159.5" font-family="Helvetica,sans-Serif" font-size="10.00">Common</text>
</g>
<!-- dir_caae62af8a804fdc9eaf1a3e87248c28 -->
<g id="node2" class="node"><title>dir_caae62af8a804fdc9eaf1a3e87248c28</title>
<g id="a_node2"><a xlink:href="dir_caae62af8a804fdc9eaf1a3e87248c28.html" target="_top" xlink:title="include">
<polygon fill="white" stroke="red" points="114,-108 60,-108 60,-72 114,-72 114,-108"/>
<text text-anchor="middle" x="87" y="-87.5" font-family="Helvetica,sans-Serif" font-size="10.00">include</text>
</a>
</g>
</g>
<!-- dir_bcbb2cf9a3d3d83e5515c82071a07177 -->
<g id="node5" class="node"><title>dir_bcbb2cf9a3d3d83e5515c82071a07177</title>
<g id="a_node5"><a xlink:href="dir_bcbb2cf9a3d3d83e5515c82071a07177.html" target="_top" xlink:title="Framework">
<polygon fill="none" stroke="red" points="119.5,-36 54.5,-36 54.5,-0 119.5,-0 119.5,-36"/>
<text text-anchor="middle" x="87" y="-15.5" font-family="Helvetica,sans-Serif" font-size="10.00">Framework</text>
</a>
</g>
</g>
<!-- dir_caae62af8a804fdc9eaf1a3e87248c28&#45;&gt;dir_bcbb2cf9a3d3d83e5515c82071a07177 -->
<g id="edge2" class="edge"><title>dir_caae62af8a804fdc9eaf1a3e87248c28&#45;&gt;dir_bcbb2cf9a3d3d83e5515c82071a07177</title>
<path fill="none" stroke="black" d="M87,-71.6966C87,-63.9827 87,-54.7125 87,-46.1124"/>
<polygon fill="black" stroke="black" points="90.5001,-46.1043 87,-36.1043 83.5001,-46.1044 90.5001,-46.1043"/>
<g id="a_edge2&#45;headlabel"><a xlink:href="dir_000005_000000.html" target="_top" xlink:title="6">
<text text-anchor="middle" x="93.3393" y="-47.199" font-family="Helvetica,sans-Serif" font-size="10.00">6</text>
</a>
</g>
</g>
<!-- dir_39fd16a0c3d54cee094bb407b65e6942 -->
<g id="node3" class="node"><title>dir_39fd16a0c3d54cee094bb407b65e6942</title>
<g id="a_node3"><a xlink:href="dir_39fd16a0c3d54cee094bb407b65e6942.html" target="_top" xlink:title="src">
<polygon fill="white" stroke="black" points="150,-180 96,-180 96,-144 150,-144 150,-180"/>
<text text-anchor="middle" x="123" y="-159.5" font-family="Helvetica,sans-Serif" font-size="10.00">src</text>
</a>
</g>
</g>
<!-- dir_39fd16a0c3d54cee094bb407b65e6942&#45;&gt;dir_caae62af8a804fdc9eaf1a3e87248c28 -->
<g id="edge1" class="edge"><title>dir_39fd16a0c3d54cee094bb407b65e6942&#45;&gt;dir_caae62af8a804fdc9eaf1a3e87248c28</title>
<path fill="none" stroke="black" d="M114.101,-143.697C110.003,-135.728 105.051,-126.1 100.507,-117.264"/>
<polygon fill="black" stroke="black" points="103.483,-115.396 95.7965,-108.104 97.2575,-118.598 103.483,-115.396"/>
<g id="a_edge1&#45;headlabel"><a xlink:href="dir_000020_000005.html" target="_top" xlink:title="2">
<text text-anchor="middle" x="107.651" y="-114.795" font-family="Helvetica,sans-Serif" font-size="10.00">2</text>
</a>
</g>
</g>
<!-- dir_27999782bc6f94329efb152568d588f7 -->
<g id="node4" class="node"><title>dir_27999782bc6f94329efb152568d588f7</title>
<g id="a_node4"><a xlink:href="dir_27999782bc6f94329efb152568d588f7.html" target="_top" xlink:title="test">
<polygon fill="white" stroke="black" points="78,-180 24,-180 24,-144 78,-144 78,-180"/>
<text text-anchor="middle" x="51" y="-159.5" font-family="Helvetica,sans-Serif" font-size="10.00">test</text>
</a>
</g>
</g>
<!-- dir_27999782bc6f94329efb152568d588f7&#45;&gt;dir_caae62af8a804fdc9eaf1a3e87248c28 -->
<g id="edge3" class="edge"><title>dir_27999782bc6f94329efb152568d588f7&#45;&gt;dir_caae62af8a804fdc9eaf1a3e87248c28</title>
<path fill="none" stroke="black" d="M59.8989,-143.697C63.9968,-135.728 68.9488,-126.1 73.4927,-117.264"/>
<polygon fill="black" stroke="black" points="76.7425,-118.598 78.2035,-108.104 70.5174,-115.396 76.7425,-118.598"/>
<g id="a_edge3&#45;headlabel"><a xlink:href="dir_000021_000005.html" target="_top" xlink:title="2">
<text text-anchor="middle" x="77.6235" y="-120.593" font-family="Helvetica,sans-Serif" font-size="10.00">2</text>
</a>
</g>
</g>
</g>
</svg>
