<?xml version="1.0" encoding="UTF-8" standalone="no"?>
<!DOCTYPE svg PUBLIC "-//W3C//DTD SVG 1.1//EN"
 "http://www.w3.org/Graphics/SVG/1.1/DTD/svg11.dtd">
<!-- Generated by graphviz version 2.38.0 (20140413.2041)
 -->
<!-- Title: Modules/Daq/include/Daq/EverIncreasingGraph.h Pages: 1 -->
<svg width="428pt" height="263pt"
 viewBox="0.00 0.00 427.50 263.00" xmlns="http://www.w3.org/2000/svg" xmlns:xlink="http://www.w3.org/1999/xlink">
<g id="graph0" class="graph" transform="scale(1 1) rotate(0) translate(4 259)">
<title>Modules/Daq/include/Daq/EverIncreasingGraph.h</title>
<!-- Node1 -->
<g id="node1" class="node"><title>Node1</title>
<polygon fill="#bfbfbf" stroke="black" points="128,-224.5 128,-254.5 268,-254.5 268,-224.5 128,-224.5"/>
<text text-anchor="start" x="136" y="-242.5" font-family="Helvetica,sans-Serif" font-size="10.00">Modules/Daq/include</text>
<text text-anchor="middle" x="198" y="-231.5" font-family="Helvetica,sans-Serif" font-size="10.00">/Daq/EverIncreasingGraph.h</text>
</g>
<!-- Node2 -->
<g id="node2" class="node"><title>Node2</title>
<polygon fill="none" stroke="#bfbfbf" points="3.5,-168.5 3.5,-187.5 116.5,-187.5 116.5,-168.5 3.5,-168.5"/>
<text text-anchor="middle" x="60" y="-175.5" font-family="Helvetica,sans-Serif" font-size="10.00">Common/DataBlock.h</text>
</g>
<!-- Node1&#45;&gt;Node2 -->
<g id="edge1" class="edge"><title>Node1&#45;&gt;Node2</title>
<path fill="none" stroke="midnightblue" d="M165.296,-224.399C142.245,-214.461 111.64,-201.265 89.3684,-191.662"/>
<polygon fill="midnightblue" stroke="midnightblue" points="90.6488,-188.403 80.0802,-187.658 87.8773,-194.831 90.6488,-188.403"/>
</g>
<!-- Node3 -->
<g id="node3" class="node"><title>Node3</title>
<g id="a_node3"><a xlink:href="CheckInterface_8h.html" target="_top" xlink:title="QualityControl/CheckInterface.h">
<polygon fill="none" stroke="black" points="173.5,-168.5 173.5,-187.5 330.5,-187.5 330.5,-168.5 173.5,-168.5"/>
<text text-anchor="middle" x="252" y="-175.5" font-family="Helvetica,sans-Serif" font-size="10.00">QualityControl/CheckInterface.h</text>
</a>
</g>
</g>
<!-- Node1&#45;&gt;Node3 -->
<g id="edge2" class="edge"><title>Node1&#45;&gt;Node3</title>
<path fill="none" stroke="midnightblue" d="M210.797,-224.399C218.725,-215.664 228.936,-204.413 237.21,-195.296"/>
<polygon fill="midnightblue" stroke="midnightblue" points="240.014,-197.415 244.143,-187.658 234.83,-192.711 240.014,-197.415"/>
</g>
<!-- Node4 -->
<g id="node4" class="node"><title>Node4</title>
<g id="a_node4"><a xlink:href="MonitorObject_8h.html" target="_top" xlink:title="QualityControl/MonitorObject.h">
<polygon fill="none" stroke="black" points="69.5,-112.5 69.5,-131.5 220.5,-131.5 220.5,-112.5 69.5,-112.5"/>
<text text-anchor="middle" x="145" y="-119.5" font-family="Helvetica,sans-Serif" font-size="10.00">QualityControl/MonitorObject.h</text>
</a>
</g>
</g>
<!-- Node1&#45;&gt;Node4 -->
<g id="edge13" class="edge"><title>Node1&#45;&gt;Node4</title>
<path fill="none" stroke="midnightblue" d="M186.614,-224.193C179.317,-214.453 170.103,-201.014 164,-188 156.981,-173.031 151.94,-154.894 148.822,-141.586"/>
<polygon fill="midnightblue" stroke="midnightblue" points="152.218,-140.735 146.654,-131.719 145.381,-142.237 152.218,-140.735"/>
</g>
<!-- Node9 -->
<g id="node9" class="node"><title>Node9</title>
<g id="a_node9"><a xlink:href="Quality_8h.html" target="_top" xlink:title="QualityControl/Quality.h">
<polygon fill="none" stroke="black" points="298.5,-56.5 298.5,-75.5 419.5,-75.5 419.5,-56.5 298.5,-56.5"/>
<text text-anchor="middle" x="359" y="-63.5" font-family="Helvetica,sans-Serif" font-size="10.00">QualityControl/Quality.h</text>
</a>
</g>
</g>
<!-- Node1&#45;&gt;Node9 -->
<g id="edge14" class="edge"><title>Node1&#45;&gt;Node9</title>
<path fill="none" stroke="midnightblue" d="M268.31,-228.602C294.133,-221.459 321.343,-209.163 339,-188 363.359,-158.805 363.466,-111.464 361.303,-85.498"/>
<polygon fill="midnightblue" stroke="midnightblue" points="364.779,-85.0878 360.264,-75.503 357.816,-85.8111 364.779,-85.0878"/>
</g>
<!-- Node3&#45;&gt;Node4 -->
<g id="edge3" class="edge"><title>Node3&#45;&gt;Node4</title>
<path fill="none" stroke="midnightblue" d="M234.809,-168.324C217.649,-159.664 191.054,-146.242 171.253,-136.249"/>
<polygon fill="midnightblue" stroke="midnightblue" points="172.653,-133.035 162.149,-131.655 169.499,-139.285 172.653,-133.035"/>
</g>
<!-- Node3&#45;&gt;Node9 -->
<g id="edge12" class="edge"><title>Node3&#45;&gt;Node9</title>
<path fill="none" stroke="midnightblue" d="M260.396,-168.368C278.289,-149.974 320.411,-106.671 343.386,-83.0519"/>
<polygon fill="midnightblue" stroke="midnightblue" points="346.179,-85.2 350.643,-75.5914 341.161,-80.3192 346.179,-85.2"/>
</g>
<!-- Node5 -->
<g id="node5" class="node"><title>Node5</title>
<polygon fill="none" stroke="#bfbfbf" points="0,-56.5 0,-75.5 54,-75.5 54,-56.5 0,-56.5"/>
<text text-anchor="middle" x="27" y="-63.5" font-family="Helvetica,sans-Serif" font-size="10.00">iostream</text>
</g>
<!-- Node4&#45;&gt;Node5 -->
<g id="edge4" class="edge"><title>Node4&#45;&gt;Node5</title>
<path fill="none" stroke="midnightblue" d="M126.303,-112.444C107.056,-103.636 76.8475,-89.8116 54.7999,-79.722"/>
<polygon fill="midnightblue" stroke="midnightblue" points="56.1595,-76.4951 45.61,-75.5164 53.2466,-82.8603 56.1595,-76.4951"/>
</g>
<!-- Node6 -->
<g id="node6" class="node"><title>Node6</title>
<polygon fill="none" stroke="#bfbfbf" points="72.5,-56.5 72.5,-75.5 107.5,-75.5 107.5,-56.5 72.5,-56.5"/>
<text text-anchor="middle" x="90" y="-63.5" font-family="Helvetica,sans-Serif" font-size="10.00">map</text>
</g>
<!-- Node4&#45;&gt;Node6 -->
<g id="edge5" class="edge"><title>Node4&#45;&gt;Node6</title>
<path fill="none" stroke="midnightblue" d="M135.918,-112.083C127.829,-104.141 115.805,-92.3354 106.09,-82.7973"/>
<polygon fill="midnightblue" stroke="midnightblue" points="108.501,-80.2595 98.9131,-75.7511 103.597,-85.2545 108.501,-80.2595"/>
</g>
<!-- Node7 -->
<g id="node7" class="node"><title>Node7</title>
<polygon fill="none" stroke="#bfbfbf" points="180.5,-0.5 180.5,-19.5 239.5,-19.5 239.5,-0.5 180.5,-0.5"/>
<text text-anchor="middle" x="210" y="-7.5" font-family="Helvetica,sans-Serif" font-size="10.00">TObject.h</text>
</g>
<!-- Node4&#45;&gt;Node7 -->
<g id="edge6" class="edge"><title>Node4&#45;&gt;Node7</title>
<path fill="none" stroke="midnightblue" d="M144.441,-112.37C143.988,-99.2853 144.696,-74.0449 155,-56 162.193,-43.404 174.38,-32.8863 185.456,-25.1947"/>
<polygon fill="midnightblue" stroke="midnightblue" points="187.511,-28.0334 193.984,-19.6463 183.693,-22.1658 187.511,-28.0334"/>
</g>
<!-- Node8 -->
<g id="node8" class="node"><title>Node8</title>
<polygon fill="none" stroke="#bfbfbf" points="164,-56.5 164,-75.5 280,-75.5 280,-56.5 164,-56.5"/>
<text text-anchor="middle" x="222" y="-63.5" font-family="Helvetica,sans-Serif" font-size="10.00">Common/Exceptions.h</text>
</g>
<!-- Node4&#45;&gt;Node8 -->
<g id="edge7" class="edge"><title>Node4&#45;&gt;Node8</title>
<path fill="none" stroke="midnightblue" d="M157.371,-112.324C169.158,-104.058 187.132,-91.4527 201.136,-81.6322"/>
<polygon fill="midnightblue" stroke="midnightblue" points="203.482,-84.2619 209.659,-75.6545 199.462,-78.5307 203.482,-84.2619"/>
</g>
<!-- Node4&#45;&gt;Node9 -->
<g id="edge8" class="edge"><title>Node4&#45;&gt;Node9</title>
<path fill="none" stroke="midnightblue" d="M178.909,-112.444C215.849,-103.122 275.054,-88.1828 315.418,-77.9972"/>
<polygon fill="midnightblue" stroke="midnightblue" points="316.41,-81.3568 325.25,-75.5164 314.697,-74.5695 316.41,-81.3568"/>
</g>
<!-- Node9&#45;&gt;Node7 -->
<g id="edge9" class="edge"><title>Node9&#45;&gt;Node7</title>
<path fill="none" stroke="midnightblue" d="M335.391,-56.4435C310.542,-47.4381 271.226,-33.1891 243.246,-23.049"/>
<polygon fill="midnightblue" stroke="midnightblue" points="244.093,-19.6332 233.499,-19.5164 241.708,-26.2144 244.093,-19.6332"/>
</g>
<!-- Node10 -->
<g id="node10" class="node"><title>Node10</title>
<polygon fill="none" stroke="#bfbfbf" points="300,-0.5 300,-19.5 352,-19.5 352,-0.5 300,-0.5"/>
<text text-anchor="middle" x="326" y="-7.5" font-family="Helvetica,sans-Serif" font-size="10.00">ostream</text>
</g>
<!-- Node9&#45;&gt;Node10 -->
<g id="edge10" class="edge"><title>Node9&#45;&gt;Node10</title>
<path fill="none" stroke="midnightblue" d="M353.551,-56.083C348.986,-48.6127 342.332,-37.7244 336.707,-28.5199"/>
<polygon fill="midnightblue" stroke="midnightblue" points="339.549,-26.4588 331.348,-19.7511 333.576,-30.109 339.549,-26.4588"/>
</g>
<!-- Node11 -->
<g id="node11" class="node"><title>Node11</title>
<polygon fill="none" stroke="#bfbfbf" points="370.5,-0.5 370.5,-19.5 411.5,-19.5 411.5,-0.5 370.5,-0.5"/>
<text text-anchor="middle" x="391" y="-7.5" font-family="Helvetica,sans-Serif" font-size="10.00">string</text>
</g>
<!-- Node9&#45;&gt;Node11 -->
<g id="edge11" class="edge"><title>Node9&#45;&gt;Node11</title>
<path fill="none" stroke="midnightblue" d="M364.284,-56.083C368.711,-48.6127 375.163,-37.7244 380.618,-28.5199"/>
<polygon fill="midnightblue" stroke="midnightblue" points="383.727,-30.1383 385.814,-19.7511 377.705,-26.5697 383.727,-30.1383"/>
</g>
</g>
</svg>
