<?xml version="1.0" encoding="UTF-8" standalone="no"?>
<!DOCTYPE svg PUBLIC "-//W3C//DTD SVG 1.1//EN"
 "http://www.w3.org/Graphics/SVG/1.1/DTD/svg11.dtd">
<!-- Generated by graphviz version 2.38.0 (20140413.2041)
 -->
<!-- Title: Modules/Example/src/ExampleTask.cxx Pages: 1 -->
<svg width="1068pt" height="375pt"
 viewBox="0.00 0.00 1067.50 375.00" xmlns="http://www.w3.org/2000/svg" xmlns:xlink="http://www.w3.org/1999/xlink">
<g id="graph0" class="graph" transform="scale(1 1) rotate(0) translate(4 371)">
<title>Modules/Example/src/ExampleTask.cxx</title>
<!-- Node1 -->
<g id="node1" class="node"><title>Node1</title>
<polygon fill="#bfbfbf" stroke="black" points="701,-336.5 701,-366.5 812,-366.5 812,-336.5 701,-336.5"/>
<text text-anchor="start" x="709" y="-354.5" font-family="Helvetica,sans-Serif" font-size="10.00">Modules/Example/src</text>
<text text-anchor="middle" x="756.5" y="-343.5" font-family="Helvetica,sans-Serif" font-size="10.00">/ExampleTask.cxx</text>
</g>
<!-- Node2 -->
<g id="node2" class="node"><title>Node2</title>
<g id="a_node2"><a xlink:href="ExampleTask_8h.html" target="_top" xlink:title="Example/ExampleTask.h">
<polygon fill="none" stroke="black" points="388.5,-280.5 388.5,-299.5 514.5,-299.5 514.5,-280.5 388.5,-280.5"/>
<text text-anchor="middle" x="451.5" y="-287.5" font-family="Helvetica,sans-Serif" font-size="10.00">Example/ExampleTask.h</text>
</a>
</g>
</g>
<!-- Node1&#45;&gt;Node2 -->
<g id="edge1" class="edge"><title>Node1&#45;&gt;Node2</title>
<path fill="none" stroke="midnightblue" d="M700.913,-339.656C645.27,-328.801 560.234,-312.212 505.249,-301.486"/>
<polygon fill="midnightblue" stroke="midnightblue" points="505.831,-298.033 495.346,-299.554 504.491,-304.904 505.831,-298.033"/>
</g>
<!-- Node22 -->
<g id="node22" class="node"><title>Node22</title>
<g id="a_node22"><a xlink:href="QcInfoLogger_8h.html" target="_top" xlink:title="QualityControl/QcInfoLogger.h">
<polygon fill="none" stroke="black" points="533,-280.5 533,-299.5 682,-299.5 682,-280.5 533,-280.5"/>
<text text-anchor="middle" x="607.5" y="-287.5" font-family="Helvetica,sans-Serif" font-size="10.00">QualityControl/QcInfoLogger.h</text>
</a>
</g>
</g>
<!-- Node1&#45;&gt;Node22 -->
<g id="edge25" class="edge"><title>Node1&#45;&gt;Node22</title>
<path fill="none" stroke="midnightblue" d="M721.189,-336.399C696.078,-326.372 662.663,-313.028 638.565,-303.405"/>
<polygon fill="midnightblue" stroke="midnightblue" points="639.766,-300.116 629.181,-299.658 637.17,-306.617 639.766,-300.116"/>
</g>
<!-- Node24 -->
<g id="node24" class="node"><title>Node24</title>
<polygon fill="none" stroke="#bfbfbf" points="700,-280.5 700,-299.5 813,-299.5 813,-280.5 700,-280.5"/>
<text text-anchor="middle" x="756.5" y="-287.5" font-family="Helvetica,sans-Serif" font-size="10.00">Common/DataBlock.h</text>
</g>
<!-- Node1&#45;&gt;Node24 -->
<g id="edge29" class="edge"><title>Node1&#45;&gt;Node24</title>
<path fill="none" stroke="midnightblue" d="M756.5,-336.399C756.5,-328.466 756.5,-318.458 756.5,-309.858"/>
<polygon fill="midnightblue" stroke="midnightblue" points="760,-309.658 756.5,-299.658 753,-309.658 760,-309.658"/>
</g>
<!-- Node25 -->
<g id="node25" class="node"><title>Node25</title>
<polygon fill="none" stroke="#bfbfbf" points="831,-280.5 831,-299.5 896,-299.5 896,-280.5 831,-280.5"/>
<text text-anchor="middle" x="863.5" y="-287.5" font-family="Helvetica,sans-Serif" font-size="10.00">TCanvas.h</text>
</g>
<!-- Node1&#45;&gt;Node25 -->
<g id="edge30" class="edge"><title>Node1&#45;&gt;Node25</title>
<path fill="none" stroke="midnightblue" d="M781.858,-336.399C799.169,-326.773 821.976,-314.09 839.084,-304.577"/>
<polygon fill="midnightblue" stroke="midnightblue" points="840.892,-307.577 847.931,-299.658 837.49,-301.459 840.892,-307.577"/>
</g>
<!-- Node26 -->
<g id="node26" class="node"><title>Node26</title>
<polygon fill="none" stroke="#bfbfbf" points="914.5,-280.5 914.5,-299.5 958.5,-299.5 958.5,-280.5 914.5,-280.5"/>
<text text-anchor="middle" x="936.5" y="-287.5" font-family="Helvetica,sans-Serif" font-size="10.00">TH1.h</text>
</g>
<!-- Node1&#45;&gt;Node26 -->
<g id="edge31" class="edge"><title>Node1&#45;&gt;Node26</title>
<path fill="none" stroke="midnightblue" d="M799.157,-336.399C831.52,-325.702 875.301,-311.23 904.651,-301.528"/>
<polygon fill="midnightblue" stroke="midnightblue" points="905.993,-304.771 914.389,-298.309 903.796,-298.124 905.993,-304.771"/>
</g>
<!-- Node3 -->
<g id="node3" class="node"><title>Node3</title>
<g id="a_node3"><a xlink:href="TaskInterface_8h.html" target="_top" xlink:title="QualityControl/TaskInterface.h">
<polygon fill="none" stroke="black" points="375.5,-224.5 375.5,-243.5 525.5,-243.5 525.5,-224.5 375.5,-224.5"/>
<text text-anchor="middle" x="450.5" y="-231.5" font-family="Helvetica,sans-Serif" font-size="10.00">QualityControl/TaskInterface.h</text>
</a>
</g>
</g>
<!-- Node2&#45;&gt;Node3 -->
<g id="edge2" class="edge"><title>Node2&#45;&gt;Node3</title>
<path fill="none" stroke="midnightblue" d="M451.335,-280.083C451.204,-273.006 451.016,-262.861 450.852,-253.986"/>
<polygon fill="midnightblue" stroke="midnightblue" points="454.347,-253.685 450.662,-243.751 447.348,-253.814 454.347,-253.685"/>
</g>
<!-- Node4 -->
<g id="node4" class="node"><title>Node4</title>
<polygon fill="none" stroke="#bfbfbf" points="709.5,-168.5 709.5,-187.5 761.5,-187.5 761.5,-168.5 709.5,-168.5"/>
<text text-anchor="middle" x="735.5" y="-175.5" font-family="Helvetica,sans-Serif" font-size="10.00">memory</text>
</g>
<!-- Node3&#45;&gt;Node4 -->
<g id="edge3" class="edge"><title>Node3&#45;&gt;Node4</title>
<path fill="none" stroke="midnightblue" d="M504.37,-224.481C552.972,-216.528 626.622,-203.821 699.383,-188.123"/>
<polygon fill="midnightblue" stroke="midnightblue" points="700.15,-191.538 709.176,-185.99 698.661,-184.698 700.15,-191.538"/>
</g>
<!-- Node5 -->
<g id="node5" class="node"><title>Node5</title>
<polygon fill="none" stroke="#bfbfbf" points="0,-168.5 0,-187.5 49,-187.5 49,-168.5 0,-168.5"/>
<text text-anchor="middle" x="24.5" y="-175.5" font-family="Helvetica,sans-Serif" font-size="10.00">cassert</text>
</g>
<!-- Node3&#45;&gt;Node5 -->
<g id="edge4" class="edge"><title>Node3&#45;&gt;Node5</title>
<path fill="none" stroke="midnightblue" d="M375.376,-227.816C298.15,-221.715 174.342,-209.79 59.306,-188.111"/>
<polygon fill="midnightblue" stroke="midnightblue" points="59.751,-184.633 49.2713,-186.19 58.4351,-191.508 59.751,-184.633"/>
</g>
<!-- Node6 -->
<g id="node6" class="node"><title>Node6</title>
<polygon fill="none" stroke="#bfbfbf" points="67,-168.5 67,-187.5 192,-187.5 192,-168.5 67,-168.5"/>
<text text-anchor="middle" x="129.5" y="-175.5" font-family="Helvetica,sans-Serif" font-size="10.00">Framework/InitContext.h</text>
</g>
<!-- Node3&#45;&gt;Node6 -->
<g id="edge5" class="edge"><title>Node3&#45;&gt;Node6</title>
<path fill="none" stroke="midnightblue" d="M399.637,-224.444C342.817,-214.885 250.883,-199.419 190.31,-189.23"/>
<polygon fill="midnightblue" stroke="midnightblue" points="190.568,-185.724 180.125,-187.516 189.406,-192.627 190.568,-185.724"/>
</g>
<!-- Node7 -->
<g id="node7" class="node"><title>Node7</title>
<polygon fill="none" stroke="#bfbfbf" points="210.5,-168.5 210.5,-187.5 370.5,-187.5 370.5,-168.5 210.5,-168.5"/>
<text text-anchor="middle" x="290.5" y="-175.5" font-family="Helvetica,sans-Serif" font-size="10.00">Framework/ProcessingContext.h</text>
</g>
<!-- Node3&#45;&gt;Node7 -->
<g id="edge6" class="edge"><title>Node3&#45;&gt;Node7</title>
<path fill="none" stroke="midnightblue" d="M425.148,-224.444C398.231,-215.359 355.504,-200.939 325.413,-190.783"/>
<polygon fill="midnightblue" stroke="midnightblue" points="326.328,-187.398 315.734,-187.516 324.09,-194.031 326.328,-187.398"/>
</g>
<!-- Node8 -->
<g id="node8" class="node"><title>Node8</title>
<g id="a_node8"><a xlink:href="Activity_8h.html" target="_top" xlink:title="QualityControl/Activity.h">
<polygon fill="none" stroke="black" points="389,-168.5 389,-187.5 512,-187.5 512,-168.5 389,-168.5"/>
<text text-anchor="middle" x="450.5" y="-175.5" font-family="Helvetica,sans-Serif" font-size="10.00">QualityControl/Activity.h</text>
</a>
</g>
</g>
<!-- Node3&#45;&gt;Node8 -->
<g id="edge7" class="edge"><title>Node3&#45;&gt;Node8</title>
<path fill="none" stroke="midnightblue" d="M450.5,-224.083C450.5,-217.006 450.5,-206.861 450.5,-197.986"/>
<polygon fill="midnightblue" stroke="midnightblue" points="454,-197.751 450.5,-187.751 447,-197.751 454,-197.751"/>
</g>
<!-- Node9 -->
<g id="node9" class="node"><title>Node9</title>
<g id="a_node9"><a xlink:href="ObjectsManager_8h.html" target="_top" xlink:title="QualityControl/ObjectsManager.h">
<polygon fill="none" stroke="black" points="530,-168.5 530,-187.5 691,-187.5 691,-168.5 530,-168.5"/>
<text text-anchor="middle" x="610.5" y="-175.5" font-family="Helvetica,sans-Serif" font-size="10.00">QualityControl/ObjectsManager.h</text>
</a>
</g>
</g>
<!-- Node3&#45;&gt;Node9 -->
<g id="edge8" class="edge"><title>Node3&#45;&gt;Node9</title>
<path fill="none" stroke="midnightblue" d="M475.852,-224.444C502.769,-215.359 545.496,-200.939 575.587,-190.783"/>
<polygon fill="midnightblue" stroke="midnightblue" points="576.91,-194.031 585.266,-187.516 574.672,-187.398 576.91,-194.031"/>
</g>
<!-- Node10 -->
<g id="node10" class="node"><title>Node10</title>
<g id="a_node10"><a xlink:href="MonitorObject_8h.html" target="_top" xlink:title="QualityControl/MonitorObject.h">
<polygon fill="none" stroke="black" points="855,-112.5 855,-131.5 1006,-131.5 1006,-112.5 855,-112.5"/>
<text text-anchor="middle" x="930.5" y="-119.5" font-family="Helvetica,sans-Serif" font-size="10.00">QualityControl/MonitorObject.h</text>
</a>
</g>
</g>
<!-- Node9&#45;&gt;Node10 -->
<g id="edge9" class="edge"><title>Node9&#45;&gt;Node10</title>
<path fill="none" stroke="midnightblue" d="M661.205,-168.444C717.847,-158.885 809.496,-143.419 869.879,-133.23"/>
<polygon fill="midnightblue" stroke="midnightblue" points="870.754,-136.632 880.032,-131.516 869.589,-129.729 870.754,-136.632"/>
</g>
<!-- Node15 -->
<g id="node15" class="node"><title>Node15</title>
<g id="a_node15"><a xlink:href="Quality_8h.html" target="_top" xlink:title="QualityControl/Quality.h">
<polygon fill="none" stroke="black" points="628,-56.5 628,-75.5 749,-75.5 749,-56.5 628,-56.5"/>
<text text-anchor="middle" x="688.5" y="-63.5" font-family="Helvetica,sans-Serif" font-size="10.00">QualityControl/Quality.h</text>
</a>
</g>
</g>
<!-- Node9&#45;&gt;Node15 -->
<g id="edge18" class="edge"><title>Node9&#45;&gt;Node15</title>
<path fill="none" stroke="midnightblue" d="M580.16,-168.415C547.595,-157.656 502.997,-137.494 522.5,-112 534.5,-96.3133 578.426,-84.8224 618.077,-77.3798"/>
<polygon fill="midnightblue" stroke="midnightblue" points="618.828,-80.8008 628.044,-75.5747 617.581,-73.9129 618.828,-80.8008"/>
</g>
<!-- Node17 -->
<g id="node17" class="node"><title>Node17</title>
<polygon fill="none" stroke="#bfbfbf" points="505,-0.5 505,-19.5 546,-19.5 546,-0.5 505,-0.5"/>
<text text-anchor="middle" x="525.5" y="-7.5" font-family="Helvetica,sans-Serif" font-size="10.00">string</text>
</g>
<!-- Node9&#45;&gt;Node17 -->
<g id="edge24" class="edge"><title>Node9&#45;&gt;Node17</title>
<path fill="none" stroke="midnightblue" d="M576.162,-168.443C535.191,-156.05 469.356,-128.596 446.5,-76 435.215,-50.031 468.622,-31.1985 495.434,-20.6851"/>
<polygon fill="midnightblue" stroke="midnightblue" points="496.746,-23.9319 504.919,-17.1903 494.326,-17.3636 496.746,-23.9319"/>
</g>
<!-- Node18 -->
<g id="node18" class="node"><title>Node18</title>
<g id="a_node18"><a xlink:href="TaskConfig_8h.html" target="_top" xlink:title="QualityControl/TaskConfig.h">
<polygon fill="none" stroke="black" points="455.5,-56.5 455.5,-75.5 595.5,-75.5 595.5,-56.5 455.5,-56.5"/>
<text text-anchor="middle" x="525.5" y="-63.5" font-family="Helvetica,sans-Serif" font-size="10.00">QualityControl/TaskConfig.h</text>
</a>
</g>
</g>
<!-- Node9&#45;&gt;Node18 -->
<g id="edge19" class="edge"><title>Node9&#45;&gt;Node18</title>
<path fill="none" stroke="midnightblue" d="M569.029,-168.497C548.914,-162.06 526.547,-150.952 514.5,-132 505.595,-117.992 510.311,-98.9934 516.072,-85.1553"/>
<polygon fill="midnightblue" stroke="midnightblue" points="519.406,-86.2881 520.473,-75.7471 513.065,-83.322 519.406,-86.2881"/>
</g>
<!-- Node19 -->
<g id="node19" class="node"><title>Node19</title>
<polygon fill="none" stroke="#bfbfbf" points="532,-112.5 532,-131.5 601,-131.5 601,-112.5 532,-112.5"/>
<text text-anchor="middle" x="566.5" y="-119.5" font-family="Helvetica,sans-Serif" font-size="10.00">TObjArray.h</text>
</g>
<!-- Node9&#45;&gt;Node19 -->
<g id="edge21" class="edge"><title>Node9&#45;&gt;Node19</title>
<path fill="none" stroke="midnightblue" d="M603.234,-168.083C596.955,-160.377 587.712,-149.033 580.069,-139.653"/>
<polygon fill="midnightblue" stroke="midnightblue" points="582.661,-137.293 573.631,-131.751 577.234,-141.714 582.661,-137.293"/>
</g>
<!-- Node20 -->
<g id="node20" class="node"><title>Node20</title>
<polygon fill="none" stroke="#bfbfbf" points="619,-112.5 619,-131.5 690,-131.5 690,-112.5 619,-112.5"/>
<text text-anchor="middle" x="654.5" y="-119.5" font-family="Helvetica,sans-Serif" font-size="10.00">TObjString.h</text>
</g>
<!-- Node9&#45;&gt;Node20 -->
<g id="edge22" class="edge"><title>Node9&#45;&gt;Node20</title>
<path fill="none" stroke="midnightblue" d="M617.766,-168.083C624.045,-160.377 633.288,-149.033 640.931,-139.653"/>
<polygon fill="midnightblue" stroke="midnightblue" points="643.766,-141.714 647.369,-131.751 638.339,-137.293 643.766,-141.714"/>
</g>
<!-- Node21 -->
<g id="node21" class="node"><title>Node21</title>
<polygon fill="none" stroke="#bfbfbf" points="708.5,-112.5 708.5,-131.5 836.5,-131.5 836.5,-112.5 708.5,-112.5"/>
<text text-anchor="middle" x="772.5" y="-119.5" font-family="Helvetica,sans-Serif" font-size="10.00">boost/concept_check.hpp</text>
</g>
<!-- Node9&#45;&gt;Node21 -->
<g id="edge23" class="edge"><title>Node9&#45;&gt;Node21</title>
<path fill="none" stroke="midnightblue" d="M636.169,-168.444C663.423,-159.359 706.684,-144.939 737.151,-134.783"/>
<polygon fill="midnightblue" stroke="midnightblue" points="738.571,-137.999 746.951,-131.516 736.357,-131.358 738.571,-137.999"/>
</g>
<!-- Node11 -->
<g id="node11" class="node"><title>Node11</title>
<polygon fill="none" stroke="#bfbfbf" points="1005.5,-56.5 1005.5,-75.5 1059.5,-75.5 1059.5,-56.5 1005.5,-56.5"/>
<text text-anchor="middle" x="1032.5" y="-63.5" font-family="Helvetica,sans-Serif" font-size="10.00">iostream</text>
</g>
<!-- Node10&#45;&gt;Node11 -->
<g id="edge10" class="edge"><title>Node10&#45;&gt;Node11</title>
<path fill="none" stroke="midnightblue" d="M946.888,-112.324C963.171,-103.703 988.367,-90.3643 1007.22,-80.3855"/>
<polygon fill="midnightblue" stroke="midnightblue" points="1008.95,-83.4267 1016.15,-75.6545 1005.68,-77.2402 1008.95,-83.4267"/>
</g>
<!-- Node12 -->
<g id="node12" class="node"><title>Node12</title>
<polygon fill="none" stroke="#bfbfbf" points="950,-56.5 950,-75.5 985,-75.5 985,-56.5 950,-56.5"/>
<text text-anchor="middle" x="967.5" y="-63.5" font-family="Helvetica,sans-Serif" font-size="10.00">map</text>
</g>
<!-- Node10&#45;&gt;Node12 -->
<g id="edge11" class="edge"><title>Node10&#45;&gt;Node12</title>
<path fill="none" stroke="midnightblue" d="M936.61,-112.083C941.782,-104.534 949.346,-93.4948 955.694,-84.2298"/>
<polygon fill="midnightblue" stroke="midnightblue" points="958.739,-85.9787 961.504,-75.7511 952.964,-82.0221 958.739,-85.9787"/>
</g>
<!-- Node13 -->
<g id="node13" class="node"><title>Node13</title>
<polygon fill="none" stroke="#bfbfbf" points="744,-0.5 744,-19.5 803,-19.5 803,-0.5 744,-0.5"/>
<text text-anchor="middle" x="773.5" y="-7.5" font-family="Helvetica,sans-Serif" font-size="10.00">TObject.h</text>
</g>
<!-- Node10&#45;&gt;Node13 -->
<g id="edge12" class="edge"><title>Node10&#45;&gt;Node13</title>
<path fill="none" stroke="midnightblue" d="M882.555,-112.459C857.521,-105.969 827.764,-94.8225 806.5,-76 792.605,-63.7005 783.801,-44.1671 778.815,-29.7211"/>
<polygon fill="midnightblue" stroke="midnightblue" points="782.058,-28.364 775.725,-19.8699 775.378,-30.4591 782.058,-28.364"/>
</g>
<!-- Node14 -->
<g id="node14" class="node"><title>Node14</title>
<polygon fill="none" stroke="#bfbfbf" points="815.5,-56.5 815.5,-75.5 931.5,-75.5 931.5,-56.5 815.5,-56.5"/>
<text text-anchor="middle" x="873.5" y="-63.5" font-family="Helvetica,sans-Serif" font-size="10.00">Common/Exceptions.h</text>
</g>
<!-- Node10&#45;&gt;Node14 -->
<g id="edge13" class="edge"><title>Node10&#45;&gt;Node14</title>
<path fill="none" stroke="midnightblue" d="M921.342,-112.324C912.999,-104.42 900.468,-92.5482 890.323,-82.9377"/>
<polygon fill="midnightblue" stroke="midnightblue" points="892.491,-80.1705 882.825,-75.8339 887.677,-85.2522 892.491,-80.1705"/>
</g>
<!-- Node10&#45;&gt;Node15 -->
<g id="edge14" class="edge"><title>Node10&#45;&gt;Node15</title>
<path fill="none" stroke="midnightblue" d="M892.154,-112.444C850.027,-103.043 782.294,-87.9291 736.628,-77.7393"/>
<polygon fill="midnightblue" stroke="midnightblue" points="737.188,-74.2784 726.666,-75.5164 735.664,-81.1103 737.188,-74.2784"/>
</g>
<!-- Node15&#45;&gt;Node13 -->
<g id="edge15" class="edge"><title>Node15&#45;&gt;Node13</title>
<path fill="none" stroke="midnightblue" d="M702.157,-56.324C715.416,-47.9002 735.768,-34.9709 751.346,-25.0741"/>
<polygon fill="midnightblue" stroke="midnightblue" points="753.313,-27.9711 759.877,-19.6545 749.56,-22.0626 753.313,-27.9711"/>
</g>
<!-- Node16 -->
<g id="node16" class="node"><title>Node16</title>
<polygon fill="none" stroke="#bfbfbf" points="662.5,-0.5 662.5,-19.5 714.5,-19.5 714.5,-0.5 662.5,-0.5"/>
<text text-anchor="middle" x="688.5" y="-7.5" font-family="Helvetica,sans-Serif" font-size="10.00">ostream</text>
</g>
<!-- Node15&#45;&gt;Node16 -->
<g id="edge16" class="edge"><title>Node15&#45;&gt;Node16</title>
<path fill="none" stroke="midnightblue" d="M688.5,-56.083C688.5,-49.0059 688.5,-38.8611 688.5,-29.9865"/>
<polygon fill="midnightblue" stroke="midnightblue" points="692,-29.751 688.5,-19.7511 685,-29.7511 692,-29.751"/>
</g>
<!-- Node15&#45;&gt;Node17 -->
<g id="edge17" class="edge"><title>Node15&#45;&gt;Node17</title>
<path fill="none" stroke="midnightblue" d="M662.672,-56.4435C633.638,-46.8247 586.546,-31.2238 555.797,-21.0372"/>
<polygon fill="midnightblue" stroke="midnightblue" points="556.639,-17.6291 546.046,-17.8067 554.438,-24.2739 556.639,-17.6291"/>
</g>
<!-- Node18&#45;&gt;Node17 -->
<g id="edge20" class="edge"><title>Node18&#45;&gt;Node17</title>
<path fill="none" stroke="midnightblue" d="M525.5,-56.083C525.5,-49.0059 525.5,-38.8611 525.5,-29.9865"/>
<polygon fill="midnightblue" stroke="midnightblue" points="529,-29.751 525.5,-19.7511 522,-29.7511 529,-29.751"/>
</g>
<!-- Node22&#45;&gt;Node3 -->
<g id="edge26" class="edge"><title>Node22&#45;&gt;Node3</title>
<path fill="none" stroke="midnightblue" d="M582.623,-280.444C556.211,-271.359 514.285,-256.939 484.758,-246.783"/>
<polygon fill="midnightblue" stroke="midnightblue" points="485.855,-243.459 475.261,-243.516 483.579,-250.079 485.855,-243.459"/>
</g>
<!-- Node22&#45;&gt;Node11 -->
<g id="edge28" class="edge"><title>Node22&#45;&gt;Node11</title>
<path fill="none" stroke="midnightblue" d="M682.349,-280.813C774.216,-266.731 928.481,-229.309 1015.5,-132 1026.79,-119.376 1030.74,-100.164 1032.05,-85.8974"/>
<polygon fill="midnightblue" stroke="midnightblue" points="1035.55,-85.9165 1032.62,-75.7362 1028.56,-85.5244 1035.55,-85.9165"/>
</g>
<!-- Node23 -->
<g id="node23" class="node"><title>Node23</title>
<polygon fill="none" stroke="#bfbfbf" points="543.5,-224.5 543.5,-243.5 673.5,-243.5 673.5,-224.5 543.5,-224.5"/>
<text text-anchor="middle" x="608.5" y="-231.5" font-family="Helvetica,sans-Serif" font-size="10.00">InfoLogger/InfoLogger.hxx</text>
</g>
<!-- Node22&#45;&gt;Node23 -->
<g id="edge27" class="edge"><title>Node22&#45;&gt;Node23</title>
<path fill="none" stroke="midnightblue" d="M607.665,-280.083C607.796,-273.006 607.984,-262.861 608.148,-253.986"/>
<polygon fill="midnightblue" stroke="midnightblue" points="611.652,-253.814 608.338,-243.751 604.653,-253.685 611.652,-253.814"/>
</g>
</g>
</svg>
