<?xml version="1.0" encoding="UTF-8" standalone="no"?>
<!DOCTYPE svg PUBLIC "-//W3C//DTD SVG 1.1//EN"
 "http://www.w3.org/Graphics/SVG/1.1/DTD/svg11.dtd">
<!-- Generated by graphviz version 2.38.0 (20140413.2041)
 -->
<!-- Title: Modules/Example/src/FakeCheck.cxx Pages: 1 -->
<svg width="428pt" height="319pt"
 viewBox="0.00 0.00 427.50 319.00" xmlns="http://www.w3.org/2000/svg" xmlns:xlink="http://www.w3.org/1999/xlink">
<g id="graph0" class="graph" transform="scale(1 1) rotate(0) translate(4 315)">
<title>Modules/Example/src/FakeCheck.cxx</title>
<!-- Node1 -->
<g id="node1" class="node"><title>Node1</title>
<polygon fill="#bfbfbf" stroke="black" points="245.5,-280.5 245.5,-310.5 356.5,-310.5 356.5,-280.5 245.5,-280.5"/>
<text text-anchor="start" x="253.5" y="-298.5" font-family="Helvetica,sans-Serif" font-size="10.00">Modules/Example/src</text>
<text text-anchor="middle" x="301" y="-287.5" font-family="Helvetica,sans-Serif" font-size="10.00">/FakeCheck.cxx</text>
</g>
<!-- Node2 -->
<g id="node2" class="node"><title>Node2</title>
<g id="a_node2"><a xlink:href="FakeCheck_8h.html" target="_top" xlink:title="Example/FakeCheck.h">
<polygon fill="none" stroke="black" points="194,-224.5 194,-243.5 310,-243.5 310,-224.5 194,-224.5"/>
<text text-anchor="middle" x="252" y="-231.5" font-family="Helvetica,sans-Serif" font-size="10.00">Example/FakeCheck.h</text>
</a>
</g>
</g>
<!-- Node1&#45;&gt;Node2 -->
<g id="edge1" class="edge"><title>Node1&#45;&gt;Node2</title>
<path fill="none" stroke="midnightblue" d="M289.388,-280.399C282.267,-271.753 273.117,-260.642 265.651,-251.576"/>
<polygon fill="midnightblue" stroke="midnightblue" points="268.189,-249.152 259.13,-243.658 262.785,-253.602 268.189,-249.152"/>
</g>
<!-- Node12 -->
<g id="node12" class="node"><title>Node12</title>
<polygon fill="none" stroke="#bfbfbf" points="328,-224.5 328,-243.5 372,-243.5 372,-224.5 328,-224.5"/>
<text text-anchor="middle" x="350" y="-231.5" font-family="Helvetica,sans-Serif" font-size="10.00">TH1.h</text>
</g>
<!-- Node1&#45;&gt;Node12 -->
<g id="edge15" class="edge"><title>Node1&#45;&gt;Node12</title>
<path fill="none" stroke="midnightblue" d="M312.612,-280.399C319.733,-271.753 328.883,-260.642 336.349,-251.576"/>
<polygon fill="midnightblue" stroke="midnightblue" points="339.215,-253.602 342.87,-243.658 333.811,-249.152 339.215,-253.602"/>
</g>
<!-- Node3 -->
<g id="node3" class="node"><title>Node3</title>
<g id="a_node3"><a xlink:href="CheckInterface_8h.html" target="_top" xlink:title="QualityControl/CheckInterface.h">
<polygon fill="none" stroke="black" points="173.5,-168.5 173.5,-187.5 330.5,-187.5 330.5,-168.5 173.5,-168.5"/>
<text text-anchor="middle" x="252" y="-175.5" font-family="Helvetica,sans-Serif" font-size="10.00">QualityControl/CheckInterface.h</text>
</a>
</g>
</g>
<!-- Node2&#45;&gt;Node3 -->
<g id="edge2" class="edge"><title>Node2&#45;&gt;Node3</title>
<path fill="none" stroke="midnightblue" d="M252,-224.083C252,-217.006 252,-206.861 252,-197.986"/>
<polygon fill="midnightblue" stroke="midnightblue" points="255.5,-197.751 252,-187.751 248.5,-197.751 255.5,-197.751"/>
</g>
<!-- Node4 -->
<g id="node4" class="node"><title>Node4</title>
<g id="a_node4"><a xlink:href="MonitorObject_8h.html" target="_top" xlink:title="QualityControl/MonitorObject.h">
<polygon fill="none" stroke="black" points="69.5,-112.5 69.5,-131.5 220.5,-131.5 220.5,-112.5 69.5,-112.5"/>
<text text-anchor="middle" x="145" y="-119.5" font-family="Helvetica,sans-Serif" font-size="10.00">QualityControl/MonitorObject.h</text>
</a>
</g>
</g>
<!-- Node2&#45;&gt;Node4 -->
<g id="edge13" class="edge"><title>Node2&#45;&gt;Node4</title>
<path fill="none" stroke="midnightblue" d="M221.926,-224.459C202.783,-217.556 178.877,-205.98 164,-188 153.118,-174.849 148.468,-155.708 146.481,-141.601"/>
<polygon fill="midnightblue" stroke="midnightblue" points="149.952,-141.14 145.391,-131.577 142.993,-141.897 149.952,-141.14"/>
</g>
<!-- Node9 -->
<g id="node9" class="node"><title>Node9</title>
<g id="a_node9"><a xlink:href="Quality_8h.html" target="_top" xlink:title="QualityControl/Quality.h">
<polygon fill="none" stroke="black" points="298.5,-56.5 298.5,-75.5 419.5,-75.5 419.5,-56.5 298.5,-56.5"/>
<text text-anchor="middle" x="359" y="-63.5" font-family="Helvetica,sans-Serif" font-size="10.00">QualityControl/Quality.h</text>
</a>
</g>
</g>
<!-- Node2&#45;&gt;Node9 -->
<g id="edge14" class="edge"><title>Node2&#45;&gt;Node9</title>
<path fill="none" stroke="midnightblue" d="M283.742,-224.487C302.738,-217.725 325.701,-206.293 339,-188 361.149,-157.534 362.237,-111.392 360.795,-85.7889"/>
<polygon fill="midnightblue" stroke="midnightblue" points="364.269,-85.3066 360.021,-75.6005 357.289,-85.8369 364.269,-85.3066"/>
</g>
<!-- Node3&#45;&gt;Node4 -->
<g id="edge3" class="edge"><title>Node3&#45;&gt;Node4</title>
<path fill="none" stroke="midnightblue" d="M234.809,-168.324C217.649,-159.664 191.054,-146.242 171.253,-136.249"/>
<polygon fill="midnightblue" stroke="midnightblue" points="172.653,-133.035 162.149,-131.655 169.499,-139.285 172.653,-133.035"/>
</g>
<!-- Node3&#45;&gt;Node9 -->
<g id="edge12" class="edge"><title>Node3&#45;&gt;Node9</title>
<path fill="none" stroke="midnightblue" d="M260.396,-168.368C278.289,-149.974 320.411,-106.671 343.386,-83.0519"/>
<polygon fill="midnightblue" stroke="midnightblue" points="346.179,-85.2 350.643,-75.5914 341.161,-80.3192 346.179,-85.2"/>
</g>
<!-- Node5 -->
<g id="node5" class="node"><title>Node5</title>
<polygon fill="none" stroke="#bfbfbf" points="0,-56.5 0,-75.5 54,-75.5 54,-56.5 0,-56.5"/>
<text text-anchor="middle" x="27" y="-63.5" font-family="Helvetica,sans-Serif" font-size="10.00">iostream</text>
</g>
<!-- Node4&#45;&gt;Node5 -->
<g id="edge4" class="edge"><title>Node4&#45;&gt;Node5</title>
<path fill="none" stroke="midnightblue" d="M126.303,-112.444C107.056,-103.636 76.8475,-89.8116 54.7999,-79.722"/>
<polygon fill="midnightblue" stroke="midnightblue" points="56.1595,-76.4951 45.61,-75.5164 53.2466,-82.8603 56.1595,-76.4951"/>
</g>
<!-- Node6 -->
<g id="node6" class="node"><title>Node6</title>
<polygon fill="none" stroke="#bfbfbf" points="72.5,-56.5 72.5,-75.5 107.5,-75.5 107.5,-56.5 72.5,-56.5"/>
<text text-anchor="middle" x="90" y="-63.5" font-family="Helvetica,sans-Serif" font-size="10.00">map</text>
</g>
<!-- Node4&#45;&gt;Node6 -->
<g id="edge5" class="edge"><title>Node4&#45;&gt;Node6</title>
<path fill="none" stroke="midnightblue" d="M135.918,-112.083C127.829,-104.141 115.805,-92.3354 106.09,-82.7973"/>
<polygon fill="midnightblue" stroke="midnightblue" points="108.501,-80.2595 98.9131,-75.7511 103.597,-85.2545 108.501,-80.2595"/>
</g>
<!-- Node7 -->
<g id="node7" class="node"><title>Node7</title>
<polygon fill="none" stroke="#bfbfbf" points="180.5,-0.5 180.5,-19.5 239.5,-19.5 239.5,-0.5 180.5,-0.5"/>
<text text-anchor="middle" x="210" y="-7.5" font-family="Helvetica,sans-Serif" font-size="10.00">TObject.h</text>
</g>
<!-- Node4&#45;&gt;Node7 -->
<g id="edge6" class="edge"><title>Node4&#45;&gt;Node7</title>
<path fill="none" stroke="midnightblue" d="M144.441,-112.37C143.988,-99.2853 144.696,-74.0449 155,-56 162.193,-43.404 174.38,-32.8863 185.456,-25.1947"/>
<polygon fill="midnightblue" stroke="midnightblue" points="187.511,-28.0334 193.984,-19.6463 183.693,-22.1658 187.511,-28.0334"/>
</g>
<!-- Node8 -->
<g id="node8" class="node"><title>Node8</title>
<polygon fill="none" stroke="#bfbfbf" points="164,-56.5 164,-75.5 280,-75.5 280,-56.5 164,-56.5"/>
<text text-anchor="middle" x="222" y="-63.5" font-family="Helvetica,sans-Serif" font-size="10.00">Common/Exceptions.h</text>
</g>
<!-- Node4&#45;&gt;Node8 -->
<g id="edge7" class="edge"><title>Node4&#45;&gt;Node8</title>
<path fill="none" stroke="midnightblue" d="M157.371,-112.324C169.158,-104.058 187.132,-91.4527 201.136,-81.6322"/>
<polygon fill="midnightblue" stroke="midnightblue" points="203.482,-84.2619 209.659,-75.6545 199.462,-78.5307 203.482,-84.2619"/>
</g>
<!-- Node4&#45;&gt;Node9 -->
<g id="edge8" class="edge"><title>Node4&#45;&gt;Node9</title>
<path fill="none" stroke="midnightblue" d="M178.909,-112.444C215.849,-103.122 275.054,-88.1828 315.418,-77.9972"/>
<polygon fill="midnightblue" stroke="midnightblue" points="316.41,-81.3568 325.25,-75.5164 314.697,-74.5695 316.41,-81.3568"/>
</g>
<!-- Node9&#45;&gt;Node7 -->
<g id="edge9" class="edge"><title>Node9&#45;&gt;Node7</title>
<path fill="none" stroke="midnightblue" d="M335.391,-56.4435C310.542,-47.4381 271.226,-33.1891 243.246,-23.049"/>
<polygon fill="midnightblue" stroke="midnightblue" points="244.093,-19.6332 233.499,-19.5164 241.708,-26.2144 244.093,-19.6332"/>
</g>
<!-- Node10 -->
<g id="node10" class="node"><title>Node10</title>
<polygon fill="none" stroke="#bfbfbf" points="300,-0.5 300,-19.5 352,-19.5 352,-0.5 300,-0.5"/>
<text text-anchor="middle" x="326" y="-7.5" font-family="Helvetica,sans-Serif" font-size="10.00">ostream</text>
</g>
<!-- Node9&#45;&gt;Node10 -->
<g id="edge10" class="edge"><title>Node9&#45;&gt;Node10</title>
<path fill="none" stroke="midnightblue" d="M353.551,-56.083C348.986,-48.6127 342.332,-37.7244 336.707,-28.5199"/>
<polygon fill="midnightblue" stroke="midnightblue" points="339.549,-26.4588 331.348,-19.7511 333.576,-30.109 339.549,-26.4588"/>
</g>
<!-- Node11 -->
<g id="node11" class="node"><title>Node11</title>
<polygon fill="none" stroke="#bfbfbf" points="370.5,-0.5 370.5,-19.5 411.5,-19.5 411.5,-0.5 370.5,-0.5"/>
<text text-anchor="middle" x="391" y="-7.5" font-family="Helvetica,sans-Serif" font-size="10.00">string</text>
</g>
<!-- Node9&#45;&gt;Node11 -->
<g id="edge11" class="edge"><title>Node9&#45;&gt;Node11</title>
<path fill="none" stroke="midnightblue" d="M364.284,-56.083C368.711,-48.6127 375.163,-37.7244 380.618,-28.5199"/>
<polygon fill="midnightblue" stroke="midnightblue" points="383.727,-30.1383 385.814,-19.7511 377.705,-26.5697 383.727,-30.1383"/>
</g>
</g>
</svg>
