<?xml version="1.0" encoding="UTF-8" standalone="no"?>
<!DOCTYPE svg PUBLIC "-//W3C//DTD SVG 1.1//EN"
 "http://www.w3.org/Graphics/SVG/1.1/DTD/svg11.dtd">
<!-- Generated by graphviz version 2.38.0 (20140413.2041)
 -->
<!-- Title: Framework/src/HistoMerger.cxx Pages: 1 -->
<svg width="924pt" height="252pt"
 viewBox="0.00 0.00 923.50 252.00" xmlns="http://www.w3.org/2000/svg" xmlns:xlink="http://www.w3.org/1999/xlink">
<g id="graph0" class="graph" transform="scale(1 1) rotate(0) translate(4 248)">
<title>Framework/src/HistoMerger.cxx</title>
<!-- Node1 -->
<g id="node1" class="node"><title>Node1</title>
<polygon fill="#bfbfbf" stroke="black" points="369.5,-224.5 369.5,-243.5 526.5,-243.5 526.5,-224.5 369.5,-224.5"/>
<text text-anchor="middle" x="448" y="-231.5" font-family="Helvetica,sans-Serif" font-size="10.00">Framework/src/HistoMerger.cxx</text>
</g>
<!-- Node2 -->
<g id="node2" class="node"><title>Node2</title>
<g id="a_node2"><a xlink:href="HistoMerger_8h.html" target="_top" xlink:title="QualityControl/HistoMerger.h">
<polygon fill="none" stroke="black" points="219.5,-168.5 219.5,-187.5 362.5,-187.5 362.5,-168.5 219.5,-168.5"/>
<text text-anchor="middle" x="291" y="-175.5" font-family="Helvetica,sans-Serif" font-size="10.00">QualityControl/HistoMerger.h</text>
</a>
</g>
</g>
<!-- Node1&#45;&gt;Node2 -->
<g id="edge1" class="edge"><title>Node1&#45;&gt;Node2</title>
<path fill="none" stroke="midnightblue" d="M423.123,-224.444C396.711,-215.359 354.785,-200.939 325.258,-190.783"/>
<polygon fill="midnightblue" stroke="midnightblue" points="326.355,-187.459 315.761,-187.516 324.079,-194.079 326.355,-187.459"/>
</g>
<!-- Node17 -->
<g id="node17" class="node"><title>Node17</title>
<polygon fill="none" stroke="#bfbfbf" points="381,-168.5 381,-187.5 515,-187.5 515,-168.5 381,-168.5"/>
<text text-anchor="middle" x="448" y="-175.5" font-family="Helvetica,sans-Serif" font-size="10.00">Framework/DataRefUtils.h</text>
</g>
<!-- Node1&#45;&gt;Node17 -->
<g id="edge17" class="edge"><title>Node1&#45;&gt;Node17</title>
<path fill="none" stroke="midnightblue" d="M448,-224.083C448,-217.006 448,-206.861 448,-197.986"/>
<polygon fill="midnightblue" stroke="midnightblue" points="451.5,-197.751 448,-187.751 444.5,-197.751 451.5,-197.751"/>
</g>
<!-- Node18 -->
<g id="node18" class="node"><title>Node18</title>
<polygon fill="none" stroke="#bfbfbf" points="533.5,-168.5 533.5,-187.5 602.5,-187.5 602.5,-168.5 533.5,-168.5"/>
<text text-anchor="middle" x="568" y="-175.5" font-family="Helvetica,sans-Serif" font-size="10.00">TObjArray.h</text>
</g>
<!-- Node1&#45;&gt;Node18 -->
<g id="edge18" class="edge"><title>Node1&#45;&gt;Node18</title>
<path fill="none" stroke="midnightblue" d="M467.014,-224.444C486.588,-215.636 517.308,-201.812 539.729,-191.722"/>
<polygon fill="midnightblue" stroke="midnightblue" points="541.392,-194.812 549.075,-187.516 538.519,-188.428 541.392,-194.812"/>
</g>
<!-- Node3 -->
<g id="node3" class="node"><title>Node3</title>
<polygon fill="none" stroke="#bfbfbf" points="0,-112.5 0,-131.5 52,-131.5 52,-112.5 0,-112.5"/>
<text text-anchor="middle" x="26" y="-119.5" font-family="Helvetica,sans-Serif" font-size="10.00">memory</text>
</g>
<!-- Node2&#45;&gt;Node3 -->
<g id="edge2" class="edge"><title>Node2&#45;&gt;Node3</title>
<path fill="none" stroke="midnightblue" d="M242.812,-168.42C198.344,-160.312 130.258,-147.418 62.3486,-132.208"/>
<polygon fill="midnightblue" stroke="midnightblue" points="62.8585,-128.735 52.3333,-129.947 61.3172,-135.563 62.8585,-128.735"/>
</g>
<!-- Node4 -->
<g id="node4" class="node"><title>Node4</title>
<polygon fill="none" stroke="#bfbfbf" points="70,-112.5 70,-131.5 114,-131.5 114,-112.5 70,-112.5"/>
<text text-anchor="middle" x="92" y="-119.5" font-family="Helvetica,sans-Serif" font-size="10.00">vector</text>
</g>
<!-- Node2&#45;&gt;Node4 -->
<g id="edge3" class="edge"><title>Node2&#45;&gt;Node4</title>
<path fill="none" stroke="midnightblue" d="M258.425,-168.49C226.524,-160.108 176.294,-146.785 124.1,-132.268"/>
<polygon fill="midnightblue" stroke="midnightblue" points="124.908,-128.86 114.335,-129.545 123.027,-135.603 124.908,-128.86"/>
</g>
<!-- Node5 -->
<g id="node5" class="node"><title>Node5</title>
<polygon fill="none" stroke="#bfbfbf" points="132,-112.5 132,-131.5 224,-131.5 224,-112.5 132,-112.5"/>
<text text-anchor="middle" x="178" y="-119.5" font-family="Helvetica,sans-Serif" font-size="10.00">Common/Timer.h</text>
</g>
<!-- Node2&#45;&gt;Node5 -->
<g id="edge4" class="edge"><title>Node2&#45;&gt;Node5</title>
<path fill="none" stroke="midnightblue" d="M273.095,-168.444C254.746,-159.675 225.995,-145.935 204.906,-135.858"/>
<polygon fill="midnightblue" stroke="midnightblue" points="206.353,-132.67 195.821,-131.516 203.335,-138.986 206.353,-132.67"/>
</g>
<!-- Node6 -->
<g id="node6" class="node"><title>Node6</title>
<polygon fill="none" stroke="#bfbfbf" points="242,-112.5 242,-131.5 340,-131.5 340,-112.5 242,-112.5"/>
<text text-anchor="middle" x="291" y="-119.5" font-family="Helvetica,sans-Serif" font-size="10.00">Framework/Task.h</text>
</g>
<!-- Node2&#45;&gt;Node6 -->
<g id="edge5" class="edge"><title>Node2&#45;&gt;Node6</title>
<path fill="none" stroke="midnightblue" d="M291,-168.083C291,-161.006 291,-150.861 291,-141.986"/>
<polygon fill="midnightblue" stroke="midnightblue" points="294.5,-141.751 291,-131.751 287.5,-141.751 294.5,-141.751"/>
</g>
<!-- Node7 -->
<g id="node7" class="node"><title>Node7</title>
<polygon fill="none" stroke="#bfbfbf" points="358.5,-112.5 358.5,-131.5 475.5,-131.5 475.5,-112.5 358.5,-112.5"/>
<text text-anchor="middle" x="417" y="-119.5" font-family="Helvetica,sans-Serif" font-size="10.00">Headers/DataHeader.h</text>
</g>
<!-- Node2&#45;&gt;Node7 -->
<g id="edge6" class="edge"><title>Node2&#45;&gt;Node7</title>
<path fill="none" stroke="midnightblue" d="M310.965,-168.444C331.609,-159.596 364.063,-145.687 387.632,-135.586"/>
<polygon fill="midnightblue" stroke="midnightblue" points="389.316,-138.673 397.128,-131.516 386.558,-132.239 389.316,-138.673"/>
</g>
<!-- Node8 -->
<g id="node8" class="node"><title>Node8</title>
<polygon fill="none" stroke="#bfbfbf" points="494,-112.5 494,-131.5 538,-131.5 538,-112.5 494,-112.5"/>
<text text-anchor="middle" x="516" y="-119.5" font-family="Helvetica,sans-Serif" font-size="10.00">TH1.h</text>
</g>
<!-- Node2&#45;&gt;Node8 -->
<g id="edge7" class="edge"><title>Node2&#45;&gt;Node8</title>
<path fill="none" stroke="midnightblue" d="M330.54,-168.492C367.78,-160.332 425.336,-147.341 483.902,-132.186"/>
<polygon fill="midnightblue" stroke="midnightblue" points="484.895,-135.544 493.689,-129.635 483.13,-128.77 484.895,-135.544"/>
</g>
<!-- Node9 -->
<g id="node9" class="node"><title>Node9</title>
<g id="a_node9"><a xlink:href="MonitorObject_8h.html" target="_top" xlink:title="QualityControl/MonitorObject.h">
<polygon fill="none" stroke="black" points="556.5,-112.5 556.5,-131.5 707.5,-131.5 707.5,-112.5 556.5,-112.5"/>
<text text-anchor="middle" x="632" y="-119.5" font-family="Helvetica,sans-Serif" font-size="10.00">QualityControl/MonitorObject.h</text>
</a>
</g>
</g>
<!-- Node2&#45;&gt;Node9 -->
<g id="edge8" class="edge"><title>Node2&#45;&gt;Node9</title>
<path fill="none" stroke="midnightblue" d="M345.032,-168.444C405.641,-158.846 503.862,-143.292 568.197,-133.104"/>
<polygon fill="midnightblue" stroke="midnightblue" points="568.891,-136.538 578.22,-131.516 567.796,-129.624 568.891,-136.538"/>
</g>
<!-- Node10 -->
<g id="node10" class="node"><title>Node10</title>
<polygon fill="none" stroke="#bfbfbf" points="496,-56.5 496,-75.5 550,-75.5 550,-56.5 496,-56.5"/>
<text text-anchor="middle" x="523" y="-63.5" font-family="Helvetica,sans-Serif" font-size="10.00">iostream</text>
</g>
<!-- Node9&#45;&gt;Node10 -->
<g id="edge9" class="edge"><title>Node9&#45;&gt;Node10</title>
<path fill="none" stroke="midnightblue" d="M614.487,-112.324C596.928,-103.625 569.669,-90.1202 549.469,-80.113"/>
<polygon fill="midnightblue" stroke="midnightblue" points="550.984,-76.9575 540.469,-75.6545 547.876,-83.23 550.984,-76.9575"/>
</g>
<!-- Node11 -->
<g id="node11" class="node"><title>Node11</title>
<polygon fill="none" stroke="#bfbfbf" points="568.5,-56.5 568.5,-75.5 603.5,-75.5 603.5,-56.5 568.5,-56.5"/>
<text text-anchor="middle" x="586" y="-63.5" font-family="Helvetica,sans-Serif" font-size="10.00">map</text>
</g>
<!-- Node9&#45;&gt;Node11 -->
<g id="edge10" class="edge"><title>Node9&#45;&gt;Node11</title>
<path fill="none" stroke="midnightblue" d="M624.404,-112.083C617.773,-104.298 607.979,-92.8015 599.942,-83.3665"/>
<polygon fill="midnightblue" stroke="midnightblue" points="602.604,-81.0939 593.455,-75.7511 597.275,-85.6332 602.604,-81.0939"/>
</g>
<!-- Node12 -->
<g id="node12" class="node"><title>Node12</title>
<polygon fill="none" stroke="#bfbfbf" points="660.5,-0.5 660.5,-19.5 719.5,-19.5 719.5,-0.5 660.5,-0.5"/>
<text text-anchor="middle" x="690" y="-7.5" font-family="Helvetica,sans-Serif" font-size="10.00">TObject.h</text>
</g>
<!-- Node9&#45;&gt;Node12 -->
<g id="edge11" class="edge"><title>Node9&#45;&gt;Node12</title>
<path fill="none" stroke="midnightblue" d="M633.351,-112.128C635.591,-99.1666 640.868,-74.5796 651,-56 656.791,-45.3806 665.435,-35.0685 673.114,-27.0009"/>
<polygon fill="midnightblue" stroke="midnightblue" points="675.755,-29.3092 680.331,-19.7534 670.795,-24.37 675.755,-29.3092"/>
</g>
<!-- Node13 -->
<g id="node13" class="node"><title>Node13</title>
<polygon fill="none" stroke="#bfbfbf" points="660,-56.5 660,-75.5 776,-75.5 776,-56.5 660,-56.5"/>
<text text-anchor="middle" x="718" y="-63.5" font-family="Helvetica,sans-Serif" font-size="10.00">Common/Exceptions.h</text>
</g>
<!-- Node9&#45;&gt;Node13 -->
<g id="edge12" class="edge"><title>Node9&#45;&gt;Node13</title>
<path fill="none" stroke="midnightblue" d="M645.817,-112.324C659.233,-103.9 679.824,-90.9709 695.586,-81.0741"/>
<polygon fill="midnightblue" stroke="midnightblue" points="697.609,-83.9364 704.217,-75.6545 693.887,-78.0081 697.609,-83.9364"/>
</g>
<!-- Node14 -->
<g id="node14" class="node"><title>Node14</title>
<g id="a_node14"><a xlink:href="Quality_8h.html" target="_top" xlink:title="QualityControl/Quality.h">
<polygon fill="none" stroke="black" points="794.5,-56.5 794.5,-75.5 915.5,-75.5 915.5,-56.5 794.5,-56.5"/>
<text text-anchor="middle" x="855" y="-63.5" font-family="Helvetica,sans-Serif" font-size="10.00">QualityControl/Quality.h</text>
</a>
</g>
</g>
<!-- Node9&#45;&gt;Node14 -->
<g id="edge13" class="edge"><title>Node9&#45;&gt;Node14</title>
<path fill="none" stroke="midnightblue" d="M667.335,-112.444C705.911,-103.102 767.785,-88.1194 809.853,-77.9326"/>
<polygon fill="midnightblue" stroke="midnightblue" points="810.935,-81.2717 819.83,-75.5164 809.287,-74.4683 810.935,-81.2717"/>
</g>
<!-- Node14&#45;&gt;Node12 -->
<g id="edge14" class="edge"><title>Node14&#45;&gt;Node12</title>
<path fill="none" stroke="midnightblue" d="M828.855,-56.4435C800.977,-47.3196 756.652,-32.8133 725.6,-22.6509"/>
<polygon fill="midnightblue" stroke="midnightblue" points="726.615,-19.3005 716.022,-19.5164 724.438,-25.9533 726.615,-19.3005"/>
</g>
<!-- Node15 -->
<g id="node15" class="node"><title>Node15</title>
<polygon fill="none" stroke="#bfbfbf" points="796,-0.5 796,-19.5 848,-19.5 848,-0.5 796,-0.5"/>
<text text-anchor="middle" x="822" y="-7.5" font-family="Helvetica,sans-Serif" font-size="10.00">ostream</text>
</g>
<!-- Node14&#45;&gt;Node15 -->
<g id="edge15" class="edge"><title>Node14&#45;&gt;Node15</title>
<path fill="none" stroke="midnightblue" d="M849.551,-56.083C844.986,-48.6127 838.332,-37.7244 832.707,-28.5199"/>
<polygon fill="midnightblue" stroke="midnightblue" points="835.549,-26.4588 827.348,-19.7511 829.576,-30.109 835.549,-26.4588"/>
</g>
<!-- Node16 -->
<g id="node16" class="node"><title>Node16</title>
<polygon fill="none" stroke="#bfbfbf" points="866.5,-0.5 866.5,-19.5 907.5,-19.5 907.5,-0.5 866.5,-0.5"/>
<text text-anchor="middle" x="887" y="-7.5" font-family="Helvetica,sans-Serif" font-size="10.00">string</text>
</g>
<!-- Node14&#45;&gt;Node16 -->
<g id="edge16" class="edge"><title>Node14&#45;&gt;Node16</title>
<path fill="none" stroke="midnightblue" d="M860.284,-56.083C864.711,-48.6127 871.163,-37.7244 876.618,-28.5199"/>
<polygon fill="midnightblue" stroke="midnightblue" points="879.727,-30.1383 881.814,-19.7511 873.705,-26.5697 879.727,-30.1383"/>
</g>
</g>
</svg>
