<?xml version="1.0" encoding="UTF-8" standalone="no"?>
<!DOCTYPE svg PUBLIC "-//W3C//DTD SVG 1.1//EN"
 "http://www.w3.org/Graphics/SVG/1.1/DTD/svg11.dtd">
<!-- Generated by graphviz version 2.38.0 (20140413.2041)
 -->
<!-- Title: Framework/include/QualityControl/HistoMerger.h Pages: 1 -->
<svg width="924pt" height="207pt"
 viewBox="0.00 0.00 923.50 207.00" xmlns="http://www.w3.org/2000/svg" xmlns:xlink="http://www.w3.org/1999/xlink">
<g id="graph0" class="graph" transform="scale(1 1) rotate(0) translate(4 203)">
<title>Framework/include/QualityControl/HistoMerger.h</title>
<!-- Node1 -->
<g id="node1" class="node"><title>Node1</title>
<polygon fill="#bfbfbf" stroke="black" points="224.5,-168.5 224.5,-198.5 357.5,-198.5 357.5,-168.5 224.5,-168.5"/>
<text text-anchor="start" x="232.5" y="-186.5" font-family="Helvetica,sans-Serif" font-size="10.00">Framework/include/Quality</text>
<text text-anchor="middle" x="291" y="-175.5" font-family="Helvetica,sans-Serif" font-size="10.00">Control/HistoMerger.h</text>
</g>
<!-- Node2 -->
<g id="node2" class="node"><title>Node2</title>
<polygon fill="none" stroke="#bfbfbf" points="0,-112.5 0,-131.5 52,-131.5 52,-112.5 0,-112.5"/>
<text text-anchor="middle" x="26" y="-119.5" font-family="Helvetica,sans-Serif" font-size="10.00">memory</text>
</g>
<!-- Node1&#45;&gt;Node2 -->
<g id="edge1" class="edge"><title>Node1&#45;&gt;Node2</title>
<path fill="none" stroke="midnightblue" d="M224.429,-168.538C180.854,-159.247 122.431,-146.506 62.3888,-132.273"/>
<polygon fill="midnightblue" stroke="midnightblue" points="62.8871,-128.794 52.3484,-129.882 61.2657,-135.603 62.8871,-128.794"/>
</g>
<!-- Node3 -->
<g id="node3" class="node"><title>Node3</title>
<polygon fill="none" stroke="#bfbfbf" points="70,-112.5 70,-131.5 114,-131.5 114,-112.5 70,-112.5"/>
<text text-anchor="middle" x="92" y="-119.5" font-family="Helvetica,sans-Serif" font-size="10.00">vector</text>
</g>
<!-- Node1&#45;&gt;Node3 -->
<g id="edge2" class="edge"><title>Node1&#45;&gt;Node3</title>
<path fill="none" stroke="midnightblue" d="M244.092,-168.475C207.076,-157.407 156.432,-142.265 123.962,-132.556"/>
<polygon fill="midnightblue" stroke="midnightblue" points="124.682,-129.119 114.098,-129.607 122.677,-135.825 124.682,-129.119"/>
</g>
<!-- Node4 -->
<g id="node4" class="node"><title>Node4</title>
<polygon fill="none" stroke="#bfbfbf" points="132,-112.5 132,-131.5 224,-131.5 224,-112.5 132,-112.5"/>
<text text-anchor="middle" x="178" y="-119.5" font-family="Helvetica,sans-Serif" font-size="10.00">Common/Timer.h</text>
</g>
<!-- Node1&#45;&gt;Node4 -->
<g id="edge3" class="edge"><title>Node1&#45;&gt;Node4</title>
<path fill="none" stroke="midnightblue" d="M264.221,-168.399C245.938,-158.773 221.852,-146.09 203.785,-136.577"/>
<polygon fill="midnightblue" stroke="midnightblue" points="204.922,-133.22 194.443,-131.658 201.66,-139.414 204.922,-133.22"/>
</g>
<!-- Node5 -->
<g id="node5" class="node"><title>Node5</title>
<polygon fill="none" stroke="#bfbfbf" points="242,-112.5 242,-131.5 340,-131.5 340,-112.5 242,-112.5"/>
<text text-anchor="middle" x="291" y="-119.5" font-family="Helvetica,sans-Serif" font-size="10.00">Framework/Task.h</text>
</g>
<!-- Node1&#45;&gt;Node5 -->
<g id="edge4" class="edge"><title>Node1&#45;&gt;Node5</title>
<path fill="none" stroke="midnightblue" d="M291,-168.399C291,-160.466 291,-150.458 291,-141.858"/>
<polygon fill="midnightblue" stroke="midnightblue" points="294.5,-141.658 291,-131.658 287.5,-141.658 294.5,-141.658"/>
</g>
<!-- Node6 -->
<g id="node6" class="node"><title>Node6</title>
<polygon fill="none" stroke="#bfbfbf" points="358.5,-112.5 358.5,-131.5 475.5,-131.5 475.5,-112.5 358.5,-112.5"/>
<text text-anchor="middle" x="417" y="-119.5" font-family="Helvetica,sans-Serif" font-size="10.00">Headers/DataHeader.h</text>
</g>
<!-- Node1&#45;&gt;Node6 -->
<g id="edge5" class="edge"><title>Node1&#45;&gt;Node6</title>
<path fill="none" stroke="midnightblue" d="M320.86,-168.399C341.623,-158.595 369.1,-145.619 389.361,-136.052"/>
<polygon fill="midnightblue" stroke="midnightblue" points="391.118,-139.093 398.666,-131.658 388.129,-132.763 391.118,-139.093"/>
</g>
<!-- Node7 -->
<g id="node7" class="node"><title>Node7</title>
<polygon fill="none" stroke="#bfbfbf" points="494,-112.5 494,-131.5 538,-131.5 538,-112.5 494,-112.5"/>
<text text-anchor="middle" x="516" y="-119.5" font-family="Helvetica,sans-Serif" font-size="10.00">TH1.h</text>
</g>
<!-- Node1&#45;&gt;Node7 -->
<g id="edge6" class="edge"><title>Node1&#45;&gt;Node7</title>
<path fill="none" stroke="midnightblue" d="M346.72,-168.435C383.28,-159.105 432.367,-146.388 484.002,-132.225"/>
<polygon fill="midnightblue" stroke="midnightblue" points="484.957,-135.592 493.67,-129.564 483.1,-128.843 484.957,-135.592"/>
</g>
<!-- Node8 -->
<g id="node8" class="node"><title>Node8</title>
<g id="a_node8"><a xlink:href="MonitorObject_8h.html" target="_top" xlink:title="QualityControl/MonitorObject.h">
<polygon fill="none" stroke="black" points="556.5,-112.5 556.5,-131.5 707.5,-131.5 707.5,-112.5 556.5,-112.5"/>
<text text-anchor="middle" x="632" y="-119.5" font-family="Helvetica,sans-Serif" font-size="10.00">QualityControl/MonitorObject.h</text>
</a>
</g>
</g>
<!-- Node1&#45;&gt;Node8 -->
<g id="edge7" class="edge"><title>Node1&#45;&gt;Node8</title>
<path fill="none" stroke="midnightblue" d="M357.558,-170.887C420.22,-159.953 513.172,-143.734 573.177,-133.264"/>
<polygon fill="midnightblue" stroke="midnightblue" points="573.998,-136.674 583.248,-131.507 572.795,-129.778 573.998,-136.674"/>
</g>
<!-- Node9 -->
<g id="node9" class="node"><title>Node9</title>
<polygon fill="none" stroke="#bfbfbf" points="496,-56.5 496,-75.5 550,-75.5 550,-56.5 496,-56.5"/>
<text text-anchor="middle" x="523" y="-63.5" font-family="Helvetica,sans-Serif" font-size="10.00">iostream</text>
</g>
<!-- Node8&#45;&gt;Node9 -->
<g id="edge8" class="edge"><title>Node8&#45;&gt;Node9</title>
<path fill="none" stroke="midnightblue" d="M614.487,-112.324C596.928,-103.625 569.669,-90.1202 549.469,-80.113"/>
<polygon fill="midnightblue" stroke="midnightblue" points="550.984,-76.9575 540.469,-75.6545 547.876,-83.23 550.984,-76.9575"/>
</g>
<!-- Node10 -->
<g id="node10" class="node"><title>Node10</title>
<polygon fill="none" stroke="#bfbfbf" points="568.5,-56.5 568.5,-75.5 603.5,-75.5 603.5,-56.5 568.5,-56.5"/>
<text text-anchor="middle" x="586" y="-63.5" font-family="Helvetica,sans-Serif" font-size="10.00">map</text>
</g>
<!-- Node8&#45;&gt;Node10 -->
<g id="edge9" class="edge"><title>Node8&#45;&gt;Node10</title>
<path fill="none" stroke="midnightblue" d="M624.404,-112.083C617.773,-104.298 607.979,-92.8015 599.942,-83.3665"/>
<polygon fill="midnightblue" stroke="midnightblue" points="602.604,-81.0939 593.455,-75.7511 597.275,-85.6332 602.604,-81.0939"/>
</g>
<!-- Node11 -->
<g id="node11" class="node"><title>Node11</title>
<polygon fill="none" stroke="#bfbfbf" points="660.5,-0.5 660.5,-19.5 719.5,-19.5 719.5,-0.5 660.5,-0.5"/>
<text text-anchor="middle" x="690" y="-7.5" font-family="Helvetica,sans-Serif" font-size="10.00">TObject.h</text>
</g>
<!-- Node8&#45;&gt;Node11 -->
<g id="edge10" class="edge"><title>Node8&#45;&gt;Node11</title>
<path fill="none" stroke="midnightblue" d="M633.351,-112.128C635.591,-99.1666 640.868,-74.5796 651,-56 656.791,-45.3806 665.435,-35.0685 673.114,-27.0009"/>
<polygon fill="midnightblue" stroke="midnightblue" points="675.755,-29.3092 680.331,-19.7534 670.795,-24.37 675.755,-29.3092"/>
</g>
<!-- Node12 -->
<g id="node12" class="node"><title>Node12</title>
<polygon fill="none" stroke="#bfbfbf" points="660,-56.5 660,-75.5 776,-75.5 776,-56.5 660,-56.5"/>
<text text-anchor="middle" x="718" y="-63.5" font-family="Helvetica,sans-Serif" font-size="10.00">Common/Exceptions.h</text>
</g>
<!-- Node8&#45;&gt;Node12 -->
<g id="edge11" class="edge"><title>Node8&#45;&gt;Node12</title>
<path fill="none" stroke="midnightblue" d="M645.817,-112.324C659.233,-103.9 679.824,-90.9709 695.586,-81.0741"/>
<polygon fill="midnightblue" stroke="midnightblue" points="697.609,-83.9364 704.217,-75.6545 693.887,-78.0081 697.609,-83.9364"/>
</g>
<!-- Node13 -->
<g id="node13" class="node"><title>Node13</title>
<g id="a_node13"><a xlink:href="Quality_8h.html" target="_top" xlink:title="QualityControl/Quality.h">
<polygon fill="none" stroke="black" points="794.5,-56.5 794.5,-75.5 915.5,-75.5 915.5,-56.5 794.5,-56.5"/>
<text text-anchor="middle" x="855" y="-63.5" font-family="Helvetica,sans-Serif" font-size="10.00">QualityControl/Quality.h</text>
</a>
</g>
</g>
<!-- Node8&#45;&gt;Node13 -->
<g id="edge12" class="edge"><title>Node8&#45;&gt;Node13</title>
<path fill="none" stroke="midnightblue" d="M667.335,-112.444C705.911,-103.102 767.785,-88.1194 809.853,-77.9326"/>
<polygon fill="midnightblue" stroke="midnightblue" points="810.935,-81.2717 819.83,-75.5164 809.287,-74.4683 810.935,-81.2717"/>
</g>
<!-- Node13&#45;&gt;Node11 -->
<g id="edge13" class="edge"><title>Node13&#45;&gt;Node11</title>
<path fill="none" stroke="midnightblue" d="M828.855,-56.4435C800.977,-47.3196 756.652,-32.8133 725.6,-22.6509"/>
<polygon fill="midnightblue" stroke="midnightblue" points="726.615,-19.3005 716.022,-19.5164 724.438,-25.9533 726.615,-19.3005"/>
</g>
<!-- Node14 -->
<g id="node14" class="node"><title>Node14</title>
<polygon fill="none" stroke="#bfbfbf" points="796,-0.5 796,-19.5 848,-19.5 848,-0.5 796,-0.5"/>
<text text-anchor="middle" x="822" y="-7.5" font-family="Helvetica,sans-Serif" font-size="10.00">ostream</text>
</g>
<!-- Node13&#45;&gt;Node14 -->
<g id="edge14" class="edge"><title>Node13&#45;&gt;Node14</title>
<path fill="none" stroke="midnightblue" d="M849.551,-56.083C844.986,-48.6127 838.332,-37.7244 832.707,-28.5199"/>
<polygon fill="midnightblue" stroke="midnightblue" points="835.549,-26.4588 827.348,-19.7511 829.576,-30.109 835.549,-26.4588"/>
</g>
<!-- Node15 -->
<g id="node15" class="node"><title>Node15</title>
<polygon fill="none" stroke="#bfbfbf" points="866.5,-0.5 866.5,-19.5 907.5,-19.5 907.5,-0.5 866.5,-0.5"/>
<text text-anchor="middle" x="887" y="-7.5" font-family="Helvetica,sans-Serif" font-size="10.00">string</text>
</g>
<!-- Node13&#45;&gt;Node15 -->
<g id="edge15" class="edge"><title>Node13&#45;&gt;Node15</title>
<path fill="none" stroke="midnightblue" d="M860.284,-56.083C864.711,-48.6127 871.163,-37.7244 876.618,-28.5199"/>
<polygon fill="midnightblue" stroke="midnightblue" points="879.727,-30.1383 881.814,-19.7511 873.705,-26.5697 879.727,-30.1383"/>
</g>
</g>
</svg>
