<?xml version="1.0" encoding="UTF-8" standalone="no"?>
<!DOCTYPE svg PUBLIC "-//W3C//DTD SVG 1.1//EN"
 "http://www.w3.org/Graphics/SVG/1.1/DTD/svg11.dtd">
<!-- Generated by graphviz version 2.38.0 (20140413.2041)
 -->
<!-- Title: Framework/src/InformationServiceDump.cxx Pages: 1 -->
<svg width="807pt" height="162pt"
 viewBox="0.00 0.00 807.00 162.00" xmlns="http://www.w3.org/2000/svg" xmlns:xlink="http://www.w3.org/1999/xlink">
<g id="graph0" class="graph" transform="scale(1 1) rotate(0) translate(4 158)">
<title>Framework/src/InformationServiceDump.cxx</title>
<!-- Node1 -->
<g id="node1" class="node"><title>Node1</title>
<polygon fill="#bfbfbf" stroke="black" points="353,-123.5 353,-153.5 487,-153.5 487,-123.5 353,-123.5"/>
<text text-anchor="start" x="361" y="-141.5" font-family="Helvetica,sans-Serif" font-size="10.00">Framework/src/Information</text>
<text text-anchor="middle" x="420" y="-130.5" font-family="Helvetica,sans-Serif" font-size="10.00">ServiceDump.cxx</text>
</g>
<!-- Node2 -->
<g id="node2" class="node"><title>Node2</title>
<g id="a_node2"><a xlink:href="InformationServiceDump_8h.html" target="_top" xlink:title="InformationServiceDump.h">
<polygon fill="none" stroke="black" points="28.5,-62 28.5,-81 161.5,-81 161.5,-62 28.5,-62"/>
<text text-anchor="middle" x="95" y="-69" font-family="Helvetica,sans-Serif" font-size="10.00">InformationServiceDump.h</text>
</a>
</g>
</g>
<!-- Node1&#45;&gt;Node2 -->
<g id="edge1" class="edge"><title>Node1&#45;&gt;Node2</title>
<path fill="none" stroke="midnightblue" d="M352.66,-124.032C291.923,-111.885 203.803,-94.2606 147.966,-83.0932"/>
<polygon fill="midnightblue" stroke="midnightblue" points="148.422,-79.6151 137.93,-81.0859 147.049,-86.4792 148.422,-79.6151"/>
</g>
<!-- Node5 -->
<g id="node5" class="node"><title>Node5</title>
<polygon fill="none" stroke="#bfbfbf" points="179.5,-56.5 179.5,-86.5 292.5,-86.5 292.5,-56.5 179.5,-56.5"/>
<text text-anchor="start" x="187.5" y="-74.5" font-family="Helvetica,sans-Serif" font-size="10.00">boost/date_time/posix</text>
<text text-anchor="middle" x="236" y="-63.5" font-family="Helvetica,sans-Serif" font-size="10.00">_time/posix_time.hpp</text>
</g>
<!-- Node1&#45;&gt;Node5 -->
<g id="edge4" class="edge"><title>Node1&#45;&gt;Node5</title>
<path fill="none" stroke="midnightblue" d="M380.075,-123.396C352.346,-113.601 315.208,-100.481 285.582,-90.0153"/>
<polygon fill="midnightblue" stroke="midnightblue" points="286.442,-86.6073 275.847,-86.5765 284.11,-93.2076 286.442,-86.6073"/>
</g>
<!-- Node6 -->
<g id="node6" class="node"><title>Node6</title>
<polygon fill="none" stroke="#bfbfbf" points="310.5,-56.5 310.5,-86.5 411.5,-86.5 411.5,-56.5 310.5,-56.5"/>
<text text-anchor="start" x="318.5" y="-74.5" font-family="Helvetica,sans-Serif" font-size="10.00">boost/property_tree</text>
<text text-anchor="middle" x="361" y="-63.5" font-family="Helvetica,sans-Serif" font-size="10.00">/json_parser.hpp</text>
</g>
<!-- Node1&#45;&gt;Node6 -->
<g id="edge5" class="edge"><title>Node1&#45;&gt;Node6</title>
<path fill="none" stroke="midnightblue" d="M407.198,-123.396C399.466,-114.878 389.453,-103.847 380.727,-94.2328"/>
<polygon fill="midnightblue" stroke="midnightblue" points="383.09,-91.6287 373.777,-86.5765 377.907,-96.3335 383.09,-91.6287"/>
</g>
<!-- Node7 -->
<g id="node7" class="node"><title>Node7</title>
<polygon fill="none" stroke="#bfbfbf" points="429.5,-56.5 429.5,-86.5 530.5,-86.5 530.5,-56.5 429.5,-56.5"/>
<text text-anchor="start" x="437.5" y="-74.5" font-family="Helvetica,sans-Serif" font-size="10.00">boost/property_tree</text>
<text text-anchor="middle" x="480" y="-63.5" font-family="Helvetica,sans-Serif" font-size="10.00">/ptree.hpp</text>
</g>
<!-- Node1&#45;&gt;Node7 -->
<g id="edge6" class="edge"><title>Node1&#45;&gt;Node7</title>
<path fill="none" stroke="midnightblue" d="M433.019,-123.396C440.96,-114.793 451.268,-103.626 460.205,-93.9448"/>
<polygon fill="midnightblue" stroke="midnightblue" points="462.795,-96.2986 467.006,-86.5765 457.652,-91.5506 462.795,-96.2986"/>
</g>
<!-- Node8 -->
<g id="node8" class="node"><title>Node8</title>
<polygon fill="none" stroke="#bfbfbf" points="549,-62 549,-81 635,-81 635,-62 549,-62"/>
<text text-anchor="middle" x="592" y="-69" font-family="Helvetica,sans-Serif" font-size="10.00">FairMQLogger.h</text>
</g>
<!-- Node1&#45;&gt;Node8 -->
<g id="edge7" class="edge"><title>Node1&#45;&gt;Node8</title>
<path fill="none" stroke="midnightblue" d="M457.321,-123.396C487.901,-111.84 530.725,-95.6562 559.815,-84.6629"/>
<polygon fill="midnightblue" stroke="midnightblue" points="561.372,-87.8161 569.489,-81.007 558.898,-81.2681 561.372,-87.8161"/>
</g>
<!-- Node9 -->
<g id="node9" class="node"><title>Node9</title>
<polygon fill="none" stroke="#bfbfbf" points="653,-62 653,-81 799,-81 799,-62 653,-62"/>
<text text-anchor="middle" x="726" y="-69" font-family="Helvetica,sans-Serif" font-size="10.00">options/FairMQProgOptions.h</text>
</g>
<!-- Node1&#45;&gt;Node9 -->
<g id="edge8" class="edge"><title>Node1&#45;&gt;Node9</title>
<path fill="none" stroke="midnightblue" d="M486.021,-123.476C543.012,-111.37 624.113,-94.1427 675.899,-83.1424"/>
<polygon fill="midnightblue" stroke="midnightblue" points="676.795,-86.5302 685.85,-81.0287 675.341,-79.6829 676.795,-86.5302"/>
</g>
<!-- Node3 -->
<g id="node3" class="node"><title>Node3</title>
<polygon fill="none" stroke="#bfbfbf" points="0,-0.5 0,-19.5 88,-19.5 88,-0.5 0,-0.5"/>
<text text-anchor="middle" x="44" y="-7.5" font-family="Helvetica,sans-Serif" font-size="10.00">FairMQDevice.h</text>
</g>
<!-- Node2&#45;&gt;Node3 -->
<g id="edge2" class="edge"><title>Node2&#45;&gt;Node3</title>
<path fill="none" stroke="midnightblue" d="M87.6929,-61.9751C79.9672,-52.9617 67.5925,-38.5246 57.9816,-27.3118"/>
<polygon fill="midnightblue" stroke="midnightblue" points="60.4589,-24.8239 51.2935,-19.5091 55.144,-29.3795 60.4589,-24.8239"/>
</g>
<!-- Node4 -->
<g id="node4" class="node"><title>Node4</title>
<polygon fill="none" stroke="#bfbfbf" points="106,-0.5 106,-19.5 186,-19.5 186,-0.5 106,-0.5"/>
<text text-anchor="middle" x="146" y="-7.5" font-family="Helvetica,sans-Serif" font-size="10.00">boost/asio.hpp</text>
</g>
<!-- Node2&#45;&gt;Node4 -->
<g id="edge3" class="edge"><title>Node2&#45;&gt;Node4</title>
<path fill="none" stroke="midnightblue" d="M102.307,-61.9751C110.033,-52.9617 122.408,-38.5246 132.018,-27.3118"/>
<polygon fill="midnightblue" stroke="midnightblue" points="134.856,-29.3795 138.706,-19.5091 129.541,-24.8239 134.856,-29.3795"/>
</g>
</g>
</svg>
