<?xml version="1.0" encoding="UTF-8" standalone="no"?>
<!DOCTYPE svg PUBLIC "-//W3C//DTD SVG 1.1//EN"
 "http://www.w3.org/Graphics/SVG/1.1/DTD/svg11.dtd">
<!-- Generated by graphviz version 2.38.0 (20140413.2041)
 -->
<!-- Title: Framework/src/InformationServiceDump.h Pages: 1 -->
<svg width="194pt" height="95pt"
 viewBox="0.00 0.00 194.00 95.00" xmlns="http://www.w3.org/2000/svg" xmlns:xlink="http://www.w3.org/1999/xlink">
<g id="graph0" class="graph" transform="scale(1 1) rotate(0) translate(4 91)">
<title>Framework/src/InformationServiceDump.h</title>
<!-- Node1 -->
<g id="node1" class="node"><title>Node1</title>
<polygon fill="#bfbfbf" stroke="black" points="28,-56.5 28,-86.5 162,-86.5 162,-56.5 28,-56.5"/>
<text text-anchor="start" x="36" y="-74.5" font-family="Helvetica,sans-Serif" font-size="10.00">Framework/src/Information</text>
<text text-anchor="middle" x="95" y="-63.5" font-family="Helvetica,sans-Serif" font-size="10.00">ServiceDump.h</text>
</g>
<!-- Node2 -->
<g id="node2" class="node"><title>Node2</title>
<polygon fill="none" stroke="#bfbfbf" points="0,-0.5 0,-19.5 88,-19.5 88,-0.5 0,-0.5"/>
<text text-anchor="middle" x="44" y="-7.5" font-family="Helvetica,sans-Serif" font-size="10.00">FairMQDevice.h</text>
</g>
<!-- Node1&#45;&gt;Node2 -->
<g id="edge1" class="edge"><title>Node1&#45;&gt;Node2</title>
<path fill="none" stroke="midnightblue" d="M82.9137,-56.3993C75.4264,-47.6641 65.7822,-36.4126 57.9682,-27.2962"/>
<polygon fill="midnightblue" stroke="midnightblue" points="60.5863,-24.9726 51.421,-19.6578 55.2715,-29.5281 60.5863,-24.9726"/>
</g>
<!-- Node3 -->
<g id="node3" class="node"><title>Node3</title>
<polygon fill="none" stroke="#bfbfbf" points="106,-0.5 106,-19.5 186,-19.5 186,-0.5 106,-0.5"/>
<text text-anchor="middle" x="146" y="-7.5" font-family="Helvetica,sans-Serif" font-size="10.00">boost/asio.hpp</text>
</g>
<!-- Node1&#45;&gt;Node3 -->
<g id="edge2" class="edge"><title>Node1&#45;&gt;Node3</title>
<path fill="none" stroke="midnightblue" d="M107.086,-56.3993C114.574,-47.6641 124.218,-36.4126 132.032,-27.2962"/>
<polygon fill="midnightblue" stroke="midnightblue" points="134.729,-29.5281 138.579,-19.6578 129.414,-24.9726 134.729,-29.5281"/>
</g>
</g>
</svg>
