<?xml version="1.0" encoding="UTF-8" standalone="no"?>
<!DOCTYPE svg PUBLIC "-//W3C//DTD SVG 1.1//EN"
 "http://www.w3.org/Graphics/SVG/1.1/DTD/svg11.dtd">
<!-- Generated by graphviz version 2.38.0 (20140413.2041)
 -->
<!-- Title: Framework/src/InformationService.cxx Pages: 1 -->
<!--zoomable 386 -->
<svg id="main" version="1.1" xmlns="http://www.w3.org/2000/svg" xmlns:xlink="http://www.w3.org/1999/xlink" xml:space="preserve" onload="init(evt)">
<style type="text/css"><![CDATA[
.edge:hover path { stroke: red; }
.edge:hover polygon { stroke: red; fill: red; }
]]></style>
<script type="text/javascript"><![CDATA[
var edges = document.getElementsByTagName('g');
if (edges && edges.length) {
  for (var i=0;i<edges.length;i++) {
    if (edges[i].id.substr(0,4)=='edge') {
      edges[i].setAttribute('class','edge');
    }
  }
}
]]></script>
        <defs>
                <circle id="rim" cx="0" cy="0" r="7"/>
                <circle id="rim2" cx="0" cy="0" r="3.5"/>
                <g id="zoomPlus">
                        <use xlink:href="#rim" fill="#404040">
                                <set attributeName="fill" to="#808080" begin="zoomplus.mouseover" end="zoomplus.mouseout"/>
                        </use>
                        <path d="M-4,0h8M0,-4v8" fill="none" stroke="white" stroke-width="1.5" pointer-events="none"/>
                </g>
                <g id="zoomMin">
                        <use xlink:href="#rim" fill="#404040">
                                <set attributeName="fill" to="#808080" begin="zoomminus.mouseover" end="zoomminus.mouseout"/>
                        </use>
                        <path d="M-4,0h8" fill="none" stroke="white" stroke-width="1.5" pointer-events="none"/>
                </g>
                <g id="dirArrow">
                        <path fill="none" stroke="white" stroke-width="1.5" d="M0,-3.0v7 M-2.5,-0.5L0,-3.0L2.5,-0.5"/>
                </g>
               <g id="resetDef">
                       <use xlink:href="#rim2" fill="#404040">
                               <set attributeName="fill" to="#808080" begin="reset.mouseover" end="reset.mouseout"/>
                       </use>
               </g>
        </defs>

<script type="text/javascript">
var viewWidth = 1652;
var viewHeight = 386;
var sectionId = 'dynsection-0';
</script>
<script xlink:href="svgpan.js"/>
<svg id="graph" class="graph">
<g id="viewport">
<title>Framework/src/InformationService.cxx</title>
<!-- Node1 -->
<g id="node1" class="node"><title>Node1</title>
<polygon fill="#bfbfbf" stroke="black" points="1321.5,-347.5 1321.5,-377.5 1455.5,-377.5 1455.5,-347.5 1321.5,-347.5"/>
<text text-anchor="start" x="1329.5" y="-365.5" font-family="Helvetica,sans-Serif" font-size="10.00">Framework/src/Information</text>
<text text-anchor="middle" x="1388.5" y="-354.5" font-family="Helvetica,sans-Serif" font-size="10.00">Service.cxx</text>
</g>
<!-- Node2 -->
<g id="node2" class="node"><title>Node2</title>
<g id="a_node2"><a xlink:href="InformationService_8h.html" target="_top" xlink:title="InformationService.h">
<polygon fill="none" stroke="black" points="1267,-291.5 1267,-310.5 1374,-310.5 1374,-291.5 1267,-291.5"/>
<text text-anchor="middle" x="1320.5" y="-298.5" font-family="Helvetica,sans-Serif" font-size="10.00">InformationService.h</text>
</a>
</g>
</g>
<!-- Node1&#45;&gt;Node2 -->
<g id="edge1" class="edge"><title>Node1&#45;&gt;Node2</title>
<path fill="none" stroke="midnightblue" d="M1372.38,-347.399C1362.1,-338.397 1348.75,-326.721 1338.17,-317.465"/>
<polygon fill="midnightblue" stroke="midnightblue" points="1340.23,-314.609 1330.39,-310.658 1335.62,-319.877 1340.23,-314.609"/>
</g>
<!-- Node8 -->
<g id="node8" class="node"><title>Node8</title>
<g id="a_node8"><a xlink:href="QcInfoLogger_8h.html" target="_top" xlink:title="QualityControl/QcInfoLogger.h">
<polygon fill="none" stroke="black" points="1006,-291.5 1006,-310.5 1155,-310.5 1155,-291.5 1006,-291.5"/>
<text text-anchor="middle" x="1080.5" y="-298.5" font-family="Helvetica,sans-Serif" font-size="10.00">QualityControl/QcInfoLogger.h</text>
</a>
</g>
</g>
<!-- Node1&#45;&gt;Node8 -->
<g id="edge7" class="edge"><title>Node1&#45;&gt;Node8</title>
<path fill="none" stroke="midnightblue" d="M1321.29,-348.516C1265.37,-337.713 1186.77,-322.53 1134.78,-312.487"/>
<polygon fill="midnightblue" stroke="midnightblue" points="1135.24,-309.01 1124.75,-310.549 1133.91,-315.883 1135.24,-309.01"/>
</g>
<!-- Node28 -->
<g id="node28" class="node"><title>Node28</title>
<polygon fill="none" stroke="#bfbfbf" points="1392,-291.5 1392,-310.5 1523,-310.5 1523,-291.5 1392,-291.5"/>
<text text-anchor="middle" x="1457.5" y="-298.5" font-family="Helvetica,sans-Serif" font-size="10.00">boost/token_functions.hpp</text>
</g>
<!-- Node1&#45;&gt;Node28 -->
<g id="edge33" class="edge"><title>Node1&#45;&gt;Node28</title>
<path fill="none" stroke="midnightblue" d="M1404.85,-347.399C1415.4,-338.308 1429.1,-326.49 1439.88,-317.191"/>
<polygon fill="midnightblue" stroke="midnightblue" points="1442.17,-319.839 1447.46,-310.658 1437.6,-314.538 1442.17,-319.839"/>
</g>
<!-- Node29 -->
<g id="node29" class="node"><title>Node29</title>
<polygon fill="none" stroke="#bfbfbf" points="1541.5,-291.5 1541.5,-310.5 1643.5,-310.5 1643.5,-291.5 1541.5,-291.5"/>
<text text-anchor="middle" x="1592.5" y="-298.5" font-family="Helvetica,sans-Serif" font-size="10.00">boost/tokenizer.hpp</text>
</g>
<!-- Node1&#45;&gt;Node29 -->
<g id="edge34" class="edge"><title>Node1&#45;&gt;Node29</title>
<path fill="none" stroke="midnightblue" d="M1436.59,-347.475C1472.24,-337.075 1520.23,-323.078 1553.51,-313.372"/>
<polygon fill="midnightblue" stroke="midnightblue" points="1554.72,-316.666 1563.34,-310.506 1552.76,-309.946 1554.72,-316.666"/>
</g>
<!-- Node3 -->
<g id="node3" class="node"><title>Node3</title>
<polygon fill="none" stroke="#bfbfbf" points="1449.5,-230 1449.5,-249 1537.5,-249 1537.5,-230 1449.5,-230"/>
<text text-anchor="middle" x="1493.5" y="-237" font-family="Helvetica,sans-Serif" font-size="10.00">FairMQDevice.h</text>
</g>
<!-- Node2&#45;&gt;Node3 -->
<g id="edge2" class="edge"><title>Node2&#45;&gt;Node3</title>
<path fill="none" stroke="midnightblue" d="M1345.29,-291.475C1375.09,-281.225 1425.29,-263.959 1458.9,-252.399"/>
<polygon fill="midnightblue" stroke="midnightblue" points="1460.44,-255.571 1468.76,-249.009 1458.16,-248.952 1460.44,-255.571"/>
</g>
<!-- Node4 -->
<g id="node4" class="node"><title>Node4</title>
<polygon fill="none" stroke="#bfbfbf" points="1062.5,-230 1062.5,-249 1192.5,-249 1192.5,-230 1062.5,-230"/>
<text text-anchor="middle" x="1127.5" y="-237" font-family="Helvetica,sans-Serif" font-size="10.00">InfoLogger/InfoLogger.hxx</text>
</g>
<!-- Node2&#45;&gt;Node4 -->
<g id="edge3" class="edge"><title>Node2&#45;&gt;Node4</title>
<path fill="none" stroke="midnightblue" d="M1292.85,-291.475C1259.31,-281.136 1202.63,-263.661 1165.13,-252.102"/>
<polygon fill="midnightblue" stroke="midnightblue" points="1165.69,-248.611 1155.1,-249.009 1163.63,-255.3 1165.69,-248.611"/>
</g>
<!-- Node5 -->
<g id="node5" class="node"><title>Node5</title>
<polygon fill="none" stroke="#bfbfbf" points="1555.5,-230 1555.5,-249 1635.5,-249 1635.5,-230 1555.5,-230"/>
<text text-anchor="middle" x="1595.5" y="-237" font-family="Helvetica,sans-Serif" font-size="10.00">boost/asio.hpp</text>
</g>
<!-- Node2&#45;&gt;Node5 -->
<g id="edge4" class="edge"><title>Node2&#45;&gt;Node5</title>
<path fill="none" stroke="midnightblue" d="M1370.16,-291.456C1416.15,-283.228 1486.3,-269.868 1546.5,-255 1550.36,-254.046 1554.38,-252.981 1558.37,-251.874"/>
<polygon fill="midnightblue" stroke="midnightblue" points="1559.5,-255.191 1568.15,-249.073 1557.57,-248.461 1559.5,-255.191"/>
</g>
<!-- Node6 -->
<g id="node6" class="node"><title>Node6</title>
<polygon fill="none" stroke="#bfbfbf" points="1211,-224.5 1211,-254.5 1312,-254.5 1312,-224.5 1211,-224.5"/>
<text text-anchor="start" x="1219" y="-242.5" font-family="Helvetica,sans-Serif" font-size="10.00">boost/property_tree</text>
<text text-anchor="middle" x="1261.5" y="-231.5" font-family="Helvetica,sans-Serif" font-size="10.00">/json_parser.hpp</text>
</g>
<!-- Node2&#45;&gt;Node6 -->
<g id="edge5" class="edge"><title>Node2&#45;&gt;Node6</title>
<path fill="none" stroke="midnightblue" d="M1312.05,-291.475C1304.35,-283.718 1292.68,-271.943 1282.49,-261.665"/>
<polygon fill="midnightblue" stroke="midnightblue" points="1284.93,-259.159 1275.41,-254.523 1279.96,-264.088 1284.93,-259.159"/>
</g>
<!-- Node7 -->
<g id="node7" class="node"><title>Node7</title>
<polygon fill="none" stroke="#bfbfbf" points="1330,-224.5 1330,-254.5 1431,-254.5 1431,-224.5 1330,-224.5"/>
<text text-anchor="start" x="1338" y="-242.5" font-family="Helvetica,sans-Serif" font-size="10.00">boost/property_tree</text>
<text text-anchor="middle" x="1380.5" y="-231.5" font-family="Helvetica,sans-Serif" font-size="10.00">/ptree.hpp</text>
</g>
<!-- Node2&#45;&gt;Node7 -->
<g id="edge6" class="edge"><title>Node2&#45;&gt;Node7</title>
<path fill="none" stroke="midnightblue" d="M1329.1,-291.475C1336.92,-283.718 1348.79,-271.943 1359.16,-261.665"/>
<polygon fill="midnightblue" stroke="midnightblue" points="1361.72,-264.05 1366.36,-254.523 1356.79,-259.079 1361.72,-264.05"/>
</g>
<!-- Node8&#45;&gt;Node4 -->
<g id="edge31" class="edge"><title>Node8&#45;&gt;Node4</title>
<path fill="none" stroke="midnightblue" d="M1087.23,-291.475C1094.28,-282.55 1105.53,-268.307 1114.35,-257.143"/>
<polygon fill="midnightblue" stroke="midnightblue" points="1117.33,-259.026 1120.78,-249.009 1111.83,-254.687 1117.33,-259.026"/>
</g>
<!-- Node9 -->
<g id="node9" class="node"><title>Node9</title>
<g id="a_node9"><a xlink:href="TaskInterface_8h.html" target="_top" xlink:title="TaskInterface.h">
<polygon fill="none" stroke="black" points="408,-230 408,-249 493,-249 493,-230 408,-230"/>
<text text-anchor="middle" x="450.5" y="-237" font-family="Helvetica,sans-Serif" font-size="10.00">TaskInterface.h</text>
</a>
</g>
</g>
<!-- Node8&#45;&gt;Node9 -->
<g id="edge8" class="edge"><title>Node8&#45;&gt;Node9</title>
<path fill="none" stroke="midnightblue" d="M1005.76,-292.941C876.642,-280.747 614.937,-256.03 503.101,-245.468"/>
<polygon fill="midnightblue" stroke="midnightblue" points="503.359,-241.977 493.074,-244.521 502.7,-248.946 503.359,-241.977"/>
</g>
<!-- Node17 -->
<g id="node17" class="node"><title>Node17</title>
<polygon fill="none" stroke="#bfbfbf" points="996.5,-56.5 996.5,-75.5 1050.5,-75.5 1050.5,-56.5 996.5,-56.5"/>
<text text-anchor="middle" x="1023.5" y="-63.5" font-family="Helvetica,sans-Serif" font-size="10.00">iostream</text>
</g>
<!-- Node8&#45;&gt;Node17 -->
<g id="edge32" class="edge"><title>Node8&#45;&gt;Node17</title>
<path fill="none" stroke="midnightblue" d="M1073.83,-291.212C1067.56,-282.497 1058.43,-268.526 1053.5,-255 1031.85,-195.57 1025.8,-119.937 1024.13,-85.5349"/>
<polygon fill="midnightblue" stroke="midnightblue" points="1027.63,-85.3776 1023.72,-75.5317 1020.63,-85.6686 1027.63,-85.3776"/>
</g>
<!-- Node10 -->
<g id="node10" class="node"><title>Node10</title>
<polygon fill="none" stroke="#bfbfbf" points="709.5,-168.5 709.5,-187.5 761.5,-187.5 761.5,-168.5 709.5,-168.5"/>
<text text-anchor="middle" x="735.5" y="-175.5" font-family="Helvetica,sans-Serif" font-size="10.00">memory</text>
</g>
<!-- Node9&#45;&gt;Node10 -->
<g id="edge9" class="edge"><title>Node9&#45;&gt;Node10</title>
<path fill="none" stroke="midnightblue" d="M493.111,-230.597C540.94,-221.57 621.08,-205.979 699.159,-188.22"/>
<polygon fill="midnightblue" stroke="midnightblue" points="700.196,-191.573 709.163,-185.93 698.634,-184.75 700.196,-191.573"/>
</g>
<!-- Node11 -->
<g id="node11" class="node"><title>Node11</title>
<polygon fill="none" stroke="#bfbfbf" points="0,-168.5 0,-187.5 49,-187.5 49,-168.5 0,-168.5"/>
<text text-anchor="middle" x="24.5" y="-175.5" font-family="Helvetica,sans-Serif" font-size="10.00">cassert</text>
</g>
<!-- Node9&#45;&gt;Node11 -->
<g id="edge10" class="edge"><title>Node9&#45;&gt;Node11</title>
<path fill="none" stroke="midnightblue" d="M407.733,-234.96C336.972,-228.677 191.002,-213.925 59.1495,-188.112"/>
<polygon fill="midnightblue" stroke="midnightblue" points="59.7686,-184.667 49.2786,-186.153 58.4061,-191.533 59.7686,-184.667"/>
</g>
<!-- Node12 -->
<g id="node12" class="node"><title>Node12</title>
<polygon fill="none" stroke="#bfbfbf" points="67,-168.5 67,-187.5 192,-187.5 192,-168.5 67,-168.5"/>
<text text-anchor="middle" x="129.5" y="-175.5" font-family="Helvetica,sans-Serif" font-size="10.00">Framework/InitContext.h</text>
</g>
<!-- Node9&#45;&gt;Node12 -->
<g id="edge11" class="edge"><title>Node9&#45;&gt;Node12</title>
<path fill="none" stroke="midnightblue" d="M407.874,-230.599C350.685,-219.998 248.998,-201.15 185.632,-189.404"/>
<polygon fill="midnightblue" stroke="midnightblue" points="185.89,-185.893 175.419,-187.512 184.614,-192.776 185.89,-185.893"/>
</g>
<!-- Node13 -->
<g id="node13" class="node"><title>Node13</title>
<polygon fill="none" stroke="#bfbfbf" points="210.5,-168.5 210.5,-187.5 370.5,-187.5 370.5,-168.5 210.5,-168.5"/>
<text text-anchor="middle" x="290.5" y="-175.5" font-family="Helvetica,sans-Serif" font-size="10.00">Framework/ProcessingContext.h</text>
</g>
<!-- Node9&#45;&gt;Node13 -->
<g id="edge12" class="edge"><title>Node9&#45;&gt;Node13</title>
<path fill="none" stroke="midnightblue" d="M427.576,-229.975C400.13,-219.769 353.984,-202.608 322.901,-191.049"/>
<polygon fill="midnightblue" stroke="midnightblue" points="323.974,-187.714 313.382,-187.509 321.535,-194.275 323.974,-187.714"/>
</g>
<!-- Node14 -->
<g id="node14" class="node"><title>Node14</title>
<g id="a_node14"><a xlink:href="Activity_8h.html" target="_top" xlink:title="QualityControl/Activity.h">
<polygon fill="none" stroke="black" points="389,-168.5 389,-187.5 512,-187.5 512,-168.5 389,-168.5"/>
<text text-anchor="middle" x="450.5" y="-175.5" font-family="Helvetica,sans-Serif" font-size="10.00">QualityControl/Activity.h</text>
</a>
</g>
</g>
<!-- Node9&#45;&gt;Node14 -->
<g id="edge13" class="edge"><title>Node9&#45;&gt;Node14</title>
<path fill="none" stroke="midnightblue" d="M450.5,-229.975C450.5,-221.58 450.5,-208.481 450.5,-197.663"/>
<polygon fill="midnightblue" stroke="midnightblue" points="454,-197.509 450.5,-187.509 447,-197.509 454,-197.509"/>
</g>
<!-- Node15 -->
<g id="node15" class="node"><title>Node15</title>
<g id="a_node15"><a xlink:href="ObjectsManager_8h.html" target="_top" xlink:title="QualityControl/ObjectsManager.h">
<polygon fill="none" stroke="black" points="530,-168.5 530,-187.5 691,-187.5 691,-168.5 530,-168.5"/>
<text text-anchor="middle" x="610.5" y="-175.5" font-family="Helvetica,sans-Serif" font-size="10.00">QualityControl/ObjectsManager.h</text>
</a>
</g>
</g>
<!-- Node9&#45;&gt;Node15 -->
<g id="edge14" class="edge"><title>Node9&#45;&gt;Node15</title>
<path fill="none" stroke="midnightblue" d="M473.424,-229.975C500.87,-219.769 547.016,-202.608 578.099,-191.049"/>
<polygon fill="midnightblue" stroke="midnightblue" points="579.465,-194.275 587.618,-187.509 577.026,-187.714 579.465,-194.275"/>
</g>
<!-- Node16 -->
<g id="node16" class="node"><title>Node16</title>
<g id="a_node16"><a xlink:href="MonitorObject_8h.html" target="_top" xlink:title="QualityControl/MonitorObject.h">
<polygon fill="none" stroke="black" points="855,-112.5 855,-131.5 1006,-131.5 1006,-112.5 855,-112.5"/>
<text text-anchor="middle" x="930.5" y="-119.5" font-family="Helvetica,sans-Serif" font-size="10.00">QualityControl/MonitorObject.h</text>
</a>
</g>
</g>
<!-- Node15&#45;&gt;Node16 -->
<g id="edge15" class="edge"><title>Node15&#45;&gt;Node16</title>
<path fill="none" stroke="midnightblue" d="M661.205,-168.444C717.847,-158.885 809.496,-143.419 869.879,-133.23"/>
<polygon fill="midnightblue" stroke="midnightblue" points="870.754,-136.632 880.032,-131.516 869.589,-129.729 870.754,-136.632"/>
</g>
<!-- Node21 -->
<g id="node21" class="node"><title>Node21</title>
<g id="a_node21"><a xlink:href="Quality_8h.html" target="_top" xlink:title="QualityControl/Quality.h">
<polygon fill="none" stroke="black" points="514,-56.5 514,-75.5 635,-75.5 635,-56.5 514,-56.5"/>
<text text-anchor="middle" x="574.5" y="-63.5" font-family="Helvetica,sans-Serif" font-size="10.00">QualityControl/Quality.h</text>
</a>
</g>
</g>
<!-- Node15&#45;&gt;Node21 -->
<g id="edge24" class="edge"><title>Node15&#45;&gt;Node21</title>
<path fill="none" stroke="midnightblue" d="M575.487,-168.445C556.566,-161.844 534.816,-150.594 523.5,-132 512.157,-113.362 532.299,-93.9248 550.515,-81.2179"/>
<polygon fill="midnightblue" stroke="midnightblue" points="552.712,-83.9629 559.156,-75.5536 548.874,-78.1085 552.712,-83.9629"/>
</g>
<!-- Node23 -->
<g id="node23" class="node"><title>Node23</title>
<polygon fill="none" stroke="#bfbfbf" points="445,-0.5 445,-19.5 486,-19.5 486,-0.5 445,-0.5"/>
<text text-anchor="middle" x="465.5" y="-7.5" font-family="Helvetica,sans-Serif" font-size="10.00">string</text>
</g>
<!-- Node15&#45;&gt;Node23 -->
<g id="edge30" class="edge"><title>Node15&#45;&gt;Node23</title>
<path fill="none" stroke="midnightblue" d="M578.72,-168.464C558.344,-161.564 532.601,-149.988 515.5,-132 487.669,-102.727 474.384,-55.79 468.86,-29.8174"/>
<polygon fill="midnightblue" stroke="midnightblue" points="472.253,-28.9302 466.896,-19.7895 465.384,-30.2758 472.253,-28.9302"/>
</g>
<!-- Node24 -->
<g id="node24" class="node"><title>Node24</title>
<g id="a_node24"><a xlink:href="TaskConfig_8h.html" target="_top" xlink:title="QualityControl/TaskConfig.h">
<polygon fill="none" stroke="black" points="297.5,-56.5 297.5,-75.5 437.5,-75.5 437.5,-56.5 297.5,-56.5"/>
<text text-anchor="middle" x="367.5" y="-63.5" font-family="Helvetica,sans-Serif" font-size="10.00">QualityControl/TaskConfig.h</text>
</a>
</g>
</g>
<!-- Node15&#45;&gt;Node24 -->
<g id="edge25" class="edge"><title>Node15&#45;&gt;Node24</title>
<path fill="none" stroke="midnightblue" d="M562.828,-168.496C530.29,-161.514 486.848,-149.83 451.5,-132 425.704,-118.988 400.017,-97.5537 383.97,-82.882"/>
<polygon fill="midnightblue" stroke="midnightblue" points="386.203,-80.1782 376.507,-75.9065 381.423,-85.2921 386.203,-80.1782"/>
</g>
<!-- Node25 -->
<g id="node25" class="node"><title>Node25</title>
<polygon fill="none" stroke="#bfbfbf" points="532,-112.5 532,-131.5 601,-131.5 601,-112.5 532,-112.5"/>
<text text-anchor="middle" x="566.5" y="-119.5" font-family="Helvetica,sans-Serif" font-size="10.00">TObjArray.h</text>
</g>
<!-- Node15&#45;&gt;Node25 -->
<g id="edge27" class="edge"><title>Node15&#45;&gt;Node25</title>
<path fill="none" stroke="midnightblue" d="M603.234,-168.083C596.955,-160.377 587.712,-149.033 580.069,-139.653"/>
<polygon fill="midnightblue" stroke="midnightblue" points="582.661,-137.293 573.631,-131.751 577.234,-141.714 582.661,-137.293"/>
</g>
<!-- Node26 -->
<g id="node26" class="node"><title>Node26</title>
<polygon fill="none" stroke="#bfbfbf" points="619,-112.5 619,-131.5 690,-131.5 690,-112.5 619,-112.5"/>
<text text-anchor="middle" x="654.5" y="-119.5" font-family="Helvetica,sans-Serif" font-size="10.00">TObjString.h</text>
</g>
<!-- Node15&#45;&gt;Node26 -->
<g id="edge28" class="edge"><title>Node15&#45;&gt;Node26</title>
<path fill="none" stroke="midnightblue" d="M617.766,-168.083C624.045,-160.377 633.288,-149.033 640.931,-139.653"/>
<polygon fill="midnightblue" stroke="midnightblue" points="643.766,-141.714 647.369,-131.751 638.339,-137.293 643.766,-141.714"/>
</g>
<!-- Node27 -->
<g id="node27" class="node"><title>Node27</title>
<polygon fill="none" stroke="#bfbfbf" points="708.5,-112.5 708.5,-131.5 836.5,-131.5 836.5,-112.5 708.5,-112.5"/>
<text text-anchor="middle" x="772.5" y="-119.5" font-family="Helvetica,sans-Serif" font-size="10.00">boost/concept_check.hpp</text>
</g>
<!-- Node15&#45;&gt;Node27 -->
<g id="edge29" class="edge"><title>Node15&#45;&gt;Node27</title>
<path fill="none" stroke="midnightblue" d="M636.169,-168.444C663.423,-159.359 706.684,-144.939 737.151,-134.783"/>
<polygon fill="midnightblue" stroke="midnightblue" points="738.571,-137.999 746.951,-131.516 736.357,-131.358 738.571,-137.999"/>
</g>
<!-- Node16&#45;&gt;Node17 -->
<g id="edge16" class="edge"><title>Node16&#45;&gt;Node17</title>
<path fill="none" stroke="midnightblue" d="M945.442,-112.324C960.085,-103.822 982.634,-90.7288 999.738,-80.7975"/>
<polygon fill="midnightblue" stroke="midnightblue" points="1001.7,-83.7027 1008.6,-75.6545 998.19,-77.6491 1001.7,-83.7027"/>
</g>
<!-- Node18 -->
<g id="node18" class="node"><title>Node18</title>
<polygon fill="none" stroke="#bfbfbf" points="923,-56.5 923,-75.5 958,-75.5 958,-56.5 923,-56.5"/>
<text text-anchor="middle" x="940.5" y="-63.5" font-family="Helvetica,sans-Serif" font-size="10.00">map</text>
</g>
<!-- Node16&#45;&gt;Node18 -->
<g id="edge17" class="edge"><title>Node16&#45;&gt;Node18</title>
<path fill="none" stroke="midnightblue" d="M932.151,-112.083C933.476,-104.927 935.382,-94.6353 937.039,-85.6911"/>
<polygon fill="midnightblue" stroke="midnightblue" points="940.5,-86.2212 938.879,-75.7511 933.617,-84.9466 940.5,-86.2212"/>
</g>
<!-- Node19 -->
<g id="node19" class="node"><title>Node19</title>
<polygon fill="none" stroke="#bfbfbf" points="658,-0.5 658,-19.5 717,-19.5 717,-0.5 658,-0.5"/>
<text text-anchor="middle" x="687.5" y="-7.5" font-family="Helvetica,sans-Serif" font-size="10.00">TObject.h</text>
</g>
<!-- Node16&#45;&gt;Node19 -->
<g id="edge18" class="edge"><title>Node16&#45;&gt;Node19</title>
<path fill="none" stroke="midnightblue" d="M888.776,-112.431C857.676,-105.135 814.683,-93.0977 779.5,-76 751.536,-62.4101 722.822,-40.6304 705.075,-26.0746"/>
<polygon fill="midnightblue" stroke="midnightblue" points="707.214,-23.3009 697.295,-19.5768 702.727,-28.6735 707.214,-23.3009"/>
</g>
<!-- Node20 -->
<g id="node20" class="node"><title>Node20</title>
<polygon fill="none" stroke="#bfbfbf" points="788.5,-56.5 788.5,-75.5 904.5,-75.5 904.5,-56.5 788.5,-56.5"/>
<text text-anchor="middle" x="846.5" y="-63.5" font-family="Helvetica,sans-Serif" font-size="10.00">Common/Exceptions.h</text>
</g>
<!-- Node16&#45;&gt;Node20 -->
<g id="edge19" class="edge"><title>Node16&#45;&gt;Node20</title>
<path fill="none" stroke="midnightblue" d="M917.004,-112.324C903.9,-103.9 883.788,-90.9709 868.393,-81.0741"/>
<polygon fill="midnightblue" stroke="midnightblue" points="870.267,-78.118 859.963,-75.6545 866.482,-84.0063 870.267,-78.118"/>
</g>
<!-- Node16&#45;&gt;Node21 -->
<g id="edge20" class="edge"><title>Node16&#45;&gt;Node21</title>
<path fill="none" stroke="midnightblue" d="M874.091,-112.444C810.685,-102.826 707.852,-87.2275 640.696,-77.0409"/>
<polygon fill="midnightblue" stroke="midnightblue" points="641.057,-73.5558 630.645,-75.5164 640.007,-80.4766 641.057,-73.5558"/>
</g>
<!-- Node21&#45;&gt;Node19 -->
<g id="edge21" class="edge"><title>Node21&#45;&gt;Node19</title>
<path fill="none" stroke="midnightblue" d="M592.405,-56.4435C610.754,-47.6751 639.505,-33.9355 660.594,-23.8579"/>
<polygon fill="midnightblue" stroke="midnightblue" points="662.165,-26.9862 669.679,-19.5164 659.147,-20.6703 662.165,-26.9862"/>
</g>
<!-- Node22 -->
<g id="node22" class="node"><title>Node22</title>
<polygon fill="none" stroke="#bfbfbf" points="548.5,-0.5 548.5,-19.5 600.5,-19.5 600.5,-0.5 548.5,-0.5"/>
<text text-anchor="middle" x="574.5" y="-7.5" font-family="Helvetica,sans-Serif" font-size="10.00">ostream</text>
</g>
<!-- Node21&#45;&gt;Node22 -->
<g id="edge22" class="edge"><title>Node21&#45;&gt;Node22</title>
<path fill="none" stroke="midnightblue" d="M574.5,-56.083C574.5,-49.0059 574.5,-38.8611 574.5,-29.9865"/>
<polygon fill="midnightblue" stroke="midnightblue" points="578,-29.751 574.5,-19.7511 571,-29.7511 578,-29.751"/>
</g>
<!-- Node21&#45;&gt;Node23 -->
<g id="edge23" class="edge"><title>Node21&#45;&gt;Node23</title>
<path fill="none" stroke="midnightblue" d="M556.987,-56.324C539.428,-47.6247 512.169,-34.1202 491.969,-24.113"/>
<polygon fill="midnightblue" stroke="midnightblue" points="493.484,-20.9575 482.969,-19.6545 490.376,-27.23 493.484,-20.9575"/>
</g>
<!-- Node24&#45;&gt;Node23 -->
<g id="edge26" class="edge"><title>Node24&#45;&gt;Node23</title>
<path fill="none" stroke="midnightblue" d="M383.245,-56.324C398.819,-47.7428 422.877,-34.486 440.959,-24.5224"/>
<polygon fill="midnightblue" stroke="midnightblue" points="442.724,-27.546 449.794,-19.6545 439.346,-21.4152 442.724,-27.546"/>
</g>
</g>
</svg>
        <g id="navigator" transform="translate(0 0)" fill="#404254">
                <rect fill="#f2f5e9" fill-opacity="0.5" stroke="#606060" stroke-width=".5" x="0" y="0" width="60" height="60"/>
                <use id="zoomplus" xlink:href="#zoomPlus" x="17" y="9" onmousedown="handleZoom(evt,'in')"/>
                <use id="zoomminus" xlink:href="#zoomMin" x="42" y="9" onmousedown="handleZoom(evt,'out')"/>
                <use id="reset" xlink:href="#resetDef" x="30" y="36" onmousedown="handleReset()"/>
                <g id="arrowUp" xlink:href="#dirArrow" transform="translate(30 24)" onmousedown="handlePan(0,-1)">
                  <use xlink:href="#rim" fill="#404040">
                        <set attributeName="fill" to="#808080" begin="arrowUp.mouseover" end="arrowUp.mouseout"/>
                  </use>
                  <path fill="none" stroke="white" stroke-width="1.5" d="M0,-3.0v7 M-2.5,-0.5L0,-3.0L2.5,-0.5"/>
                </g>
                <g id="arrowRight" xlink:href="#dirArrow" transform="rotate(90) translate(36 -43)" onmousedown="handlePan(1,0)">
                  <use xlink:href="#rim" fill="#404040">
                        <set attributeName="fill" to="#808080" begin="arrowRight.mouseover" end="arrowRight.mouseout"/>
                  </use>
                  <path fill="none" stroke="white" stroke-width="1.5" d="M0,-3.0v7 M-2.5,-0.5L0,-3.0L2.5,-0.5"/>
                </g>
                <g id="arrowDown" xlink:href="#dirArrow" transform="rotate(180) translate(-30 -48)" onmousedown="handlePan(0,1)">
                  <use xlink:href="#rim" fill="#404040">
                        <set attributeName="fill" to="#808080" begin="arrowDown.mouseover" end="arrowDown.mouseout"/>
                  </use>
                  <path fill="none" stroke="white" stroke-width="1.5" d="M0,-3.0v7 M-2.5,-0.5L0,-3.0L2.5,-0.5"/>
                </g>
                <g id="arrowLeft" xlink:href="#dirArrow" transform="rotate(270) translate(-36 17)" onmousedown="handlePan(-1,0)">
                  <use xlink:href="#rim" fill="#404040">
                        <set attributeName="fill" to="#808080" begin="arrowLeft.mouseover" end="arrowLeft.mouseout"/>
                  </use>
                  <path fill="none" stroke="white" stroke-width="1.5" d="M0,-3.0v7 M-2.5,-0.5L0,-3.0L2.5,-0.5"/>
                </g>
        </g>
        <svg viewBox="0 0 15 15" width="100%" height="30px" preserveAspectRatio="xMaxYMin meet">
         <g id="arrow_out" transform="scale(0.3 0.3)">
          <a xlink:href="InformationService_8cxx__incl_org.svg" target="_base">
           <rect id="button" ry="5" rx="5" y="6" x="6" height="38" width="38"
                fill="#f2f5e9" fill-opacity="0.5" stroke="#606060" stroke-width="1.0"/>
           <path id="arrow"
             d="M 11.500037,31.436501 C 11.940474,20.09759 22.043105,11.32322 32.158766,21.979434 L 37.068811,17.246167 C 37.068811,17.246167 37.088388,32 37.088388,32 L 22.160133,31.978069 C 22.160133,31.978069 26.997745,27.140456 26.997745,27.140456 C 18.528582,18.264221 13.291696,25.230495 11.500037,31.436501 z"
             style="fill:#404040;"/>
          </a>
         </g>
        </svg>
</svg>
