<?xml version="1.0" encoding="UTF-8" standalone="no"?>
<!DOCTYPE svg PUBLIC "-//W3C//DTD SVG 1.1//EN"
 "http://www.w3.org/Graphics/SVG/1.1/DTD/svg11.dtd">
<!-- Generated by graphviz version 2.38.0 (20140413.2041)
 -->
<!-- Title: Graphical Class Hierarchy Pages: 1 -->
<svg width="330pt" height="246pt"
 viewBox="0.00 0.00 330.00 245.50" xmlns="http://www.w3.org/2000/svg" xmlns:xlink="http://www.w3.org/1999/xlink">
<g id="graph0" class="graph" transform="scale(1 1) rotate(0) translate(4 241.5)">
<title>Graphical Class Hierarchy</title>
<!-- Node1 -->
<g id="node1" class="node"><title>Node1</title>
<g id="a_node1"><a xlink:href="classo2_1_1quality__control_1_1core_1_1TaskInterface.html" target="_top" xlink:title="Skeleton of a QC task. ">
<polygon fill="none" stroke="black" points="0,-109 0,-139 107,-139 107,-109 0,-109"/>
<text text-anchor="start" x="8" y="-127" font-family="Helvetica,sans-Serif" font-size="10.00">o2::quality_control</text>
<text text-anchor="middle" x="53.5" y="-116" font-family="Helvetica,sans-Serif" font-size="10.00">::core::TaskInterface</text>
</a>
</g>
</g>
<!-- Node2 -->
<g id="node2" class="node"><title>Node2</title>
<g id="a_node2"><a xlink:href="classo2_1_1quality__control_1_1Test_1_1TestTask.html" target="_top" xlink:title="o2::quality_control\l::Test::TestTask">
<polygon fill="none" stroke="black" points="184.5,-207 184.5,-237 280.5,-237 280.5,-207 184.5,-207"/>
<text text-anchor="start" x="192.5" y="-225" font-family="Helvetica,sans-Serif" font-size="10.00">o2::quality_control</text>
<text text-anchor="middle" x="232.5" y="-214" font-family="Helvetica,sans-Serif" font-size="10.00">::Test::TestTask</text>
</a>
</g>
</g>
<!-- Node1&#45;&gt;Node2 -->
<g id="edge1" class="edge"><title>Node1&#45;&gt;Node2</title>
<path fill="none" stroke="midnightblue" d="M75.5253,-146.161C92.339,-162.671 117.281,-184.591 143,-198 155.704,-204.624 170.414,-209.557 184.149,-213.169"/>
<polygon fill="midnightblue" stroke="midnightblue" points="77.9354,-143.621 68.3985,-139.006 72.9759,-148.561 77.9354,-143.621"/>
</g>
<!-- Node3 -->
<g id="node3" class="node"><title>Node3</title>
<g id="a_node3"><a xlink:href="classo2_1_1quality__control__modules_1_1daq_1_1DaqTask.html" target="_top" xlink:title="Example Quality Control Task It is final because there is no reason to derive from it...">
<polygon fill="none" stroke="black" points="169.5,-158 169.5,-188 295.5,-188 295.5,-158 169.5,-158"/>
<text text-anchor="start" x="177.5" y="-176" font-family="Helvetica,sans-Serif" font-size="10.00">o2::quality_control</text>
<text text-anchor="middle" x="232.5" y="-165" font-family="Helvetica,sans-Serif" font-size="10.00">_modules::daq::DaqTask</text>
</a>
</g>
</g>
<!-- Node1&#45;&gt;Node3 -->
<g id="edge2" class="edge"><title>Node1&#45;&gt;Node3</title>
<path fill="none" stroke="midnightblue" d="M117.092,-141.77C125.79,-144.213 134.615,-146.679 143,-149 153.586,-151.931 164.895,-155.025 175.768,-157.982"/>
<polygon fill="midnightblue" stroke="midnightblue" points="117.93,-138.37 107.356,-139.029 116.033,-145.108 117.93,-138.37"/>
</g>
<!-- Node4 -->
<g id="node4" class="node"><title>Node4</title>
<g id="a_node4"><a xlink:href="classo2_1_1quality__control__modules_1_1example_1_1BenchmarkTask.html" target="_top" xlink:title="Quality Control Task for benchmarking It publishes a number of TH1F (configurable, see example.ini in module QualityControl). The histos are reset and refilled (1000 random) at EOC. They have 1000 bins. The monitoring of data blocks is empty (sleep 100 ms). ">
<polygon fill="none" stroke="black" points="143,-109 143,-139 322,-139 322,-109 143,-109"/>
<text text-anchor="start" x="151" y="-127" font-family="Helvetica,sans-Serif" font-size="10.00">o2::quality_control</text>
<text text-anchor="middle" x="232.5" y="-116" font-family="Helvetica,sans-Serif" font-size="10.00">_modules::example::BenchmarkTask</text>
</a>
</g>
</g>
<!-- Node1&#45;&gt;Node4 -->
<g id="edge3" class="edge"><title>Node1&#45;&gt;Node4</title>
<path fill="none" stroke="midnightblue" d="M117.149,-124C125.522,-124 134.233,-124 142.944,-124"/>
<polygon fill="midnightblue" stroke="midnightblue" points="117.127,-120.5 107.127,-124 117.127,-127.5 117.127,-120.5"/>
</g>
<!-- Node5 -->
<g id="node5" class="node"><title>Node5</title>
<g id="a_node5"><a xlink:href="classo2_1_1quality__control__modules_1_1example_1_1ExampleTask.html" target="_top" xlink:title="Example Quality Control Task It is final because there is no reason to derive from it...">
<polygon fill="none" stroke="black" points="149,-60 149,-90 316,-90 316,-60 149,-60"/>
<text text-anchor="start" x="157" y="-78" font-family="Helvetica,sans-Serif" font-size="10.00">o2::quality_control</text>
<text text-anchor="middle" x="232.5" y="-67" font-family="Helvetica,sans-Serif" font-size="10.00">_modules::example::ExampleTask</text>
</a>
</g>
</g>
<!-- Node1&#45;&gt;Node5 -->
<g id="edge4" class="edge"><title>Node1&#45;&gt;Node5</title>
<path fill="none" stroke="midnightblue" d="M116.919,-106.72C136.6,-101.272 158.171,-95.3002 177.236,-90.0224"/>
<polygon fill="midnightblue" stroke="midnightblue" points="115.83,-103.39 107.127,-109.431 117.698,-110.136 115.83,-103.39"/>
</g>
<!-- Node6 -->
<g id="node6" class="node"><title>Node6</title>
<g id="a_node6"><a xlink:href="classo2_1_1quality__control__modules_1_1skeleton_1_1SkeletonTask.html" target="_top" xlink:title="Example Quality Control DPL Task It is final because there is no reason to derive from it...">
<polygon fill="none" stroke="black" points="179,-0.5 179,-41.5 286,-41.5 286,-0.5 179,-0.5"/>
<text text-anchor="start" x="187" y="-29.5" font-family="Helvetica,sans-Serif" font-size="10.00">o2::quality_control</text>
<text text-anchor="start" x="187" y="-18.5" font-family="Helvetica,sans-Serif" font-size="10.00">_modules::skeleton::</text>
<text text-anchor="middle" x="232.5" y="-7.5" font-family="Helvetica,sans-Serif" font-size="10.00">SkeletonTask</text>
</a>
</g>
</g>
<!-- Node1&#45;&gt;Node6 -->
<g id="edge5" class="edge"><title>Node1&#45;&gt;Node6</title>
<path fill="none" stroke="midnightblue" d="M76.4333,-102.017C93.3906,-86.0401 118.104,-64.8693 143,-51 154.055,-44.8416 166.589,-39.6509 178.674,-35.41"/>
<polygon fill="midnightblue" stroke="midnightblue" points="74.0043,-99.4975 69.2151,-108.948 78.8525,-104.547 74.0043,-99.4975"/>
</g>
</g>
</svg>
