<?xml version="1.0" encoding="UTF-8" standalone="no"?>
<!DOCTYPE svg PUBLIC "-//W3C//DTD SVG 1.1//EN"
 "http://www.w3.org/Graphics/SVG/1.1/DTD/svg11.dtd">
<!-- Generated by graphviz version 2.38.0 (20140413.2041)
 -->
<!-- Title: Graphical Class Hierarchy Pages: 1 -->
<svg width="342pt" height="256pt"
 viewBox="0.00 0.00 342.00 255.50" xmlns="http://www.w3.org/2000/svg" xmlns:xlink="http://www.w3.org/1999/xlink">
<g id="graph0" class="graph" transform="scale(1 1) rotate(0) translate(4 251.5)">
<title>Graphical Class Hierarchy</title>
<!-- Node1 -->
<g id="node1" class="node"><title>Node1</title>
<g id="a_node1"><a xlink:href="classo2_1_1quality__control_1_1checker_1_1CheckInterface.html" target="_top" xlink:title="Skeleton of a check. ">
<polygon fill="none" stroke="black" points="0,-114 0,-144 130,-144 130,-114 0,-114"/>
<text text-anchor="start" x="8" y="-132" font-family="Helvetica,sans-Serif" font-size="10.00">o2::quality_control</text>
<text text-anchor="middle" x="65" y="-121" font-family="Helvetica,sans-Serif" font-size="10.00">::checker::CheckInterface</text>
</a>
</g>
</g>
<!-- Node2 -->
<g id="node2" class="node"><title>Node2</title>
<g id="a_node2"><a xlink:href="classo2_1_1quality__control__modules_1_1common_1_1MeanIsAbove.html" target="_top" xlink:title="Check whether the mean of the plot is above a certain limit. ">
<polygon fill="none" stroke="black" points="166,-217 166,-247 334,-247 334,-217 166,-217"/>
<text text-anchor="start" x="174" y="-235" font-family="Helvetica,sans-Serif" font-size="10.00">o2::quality_control</text>
<text text-anchor="middle" x="250" y="-224" font-family="Helvetica,sans-Serif" font-size="10.00">_modules::common::MeanIsAbove</text>
</a>
</g>
</g>
<!-- Node1&#45;&gt;Node2 -->
<g id="edge1" class="edge"><title>Node1&#45;&gt;Node2</title>
<path fill="none" stroke="midnightblue" d="M88.6212,-151.13C107.799,-168.785 136.775,-192.969 166,-208 172.536,-211.362 179.611,-214.316 186.779,-216.895"/>
<polygon fill="midnightblue" stroke="midnightblue" points="90.9666,-148.531 81.2773,-144.245 86.179,-153.638 90.9666,-148.531"/>
</g>
<!-- Node3 -->
<g id="node3" class="node"><title>Node3</title>
<g id="a_node3"><a xlink:href="classo2_1_1quality__control__modules_1_1common_1_1NonEmpty.html" target="_top" xlink:title="Check whether a plot is empty or not. ">
<polygon fill="none" stroke="black" points="172.5,-168 172.5,-198 327.5,-198 327.5,-168 172.5,-168"/>
<text text-anchor="start" x="180.5" y="-186" font-family="Helvetica,sans-Serif" font-size="10.00">o2::quality_control</text>
<text text-anchor="middle" x="250" y="-175" font-family="Helvetica,sans-Serif" font-size="10.00">_modules::common::NonEmpty</text>
</a>
</g>
</g>
<!-- Node1&#45;&gt;Node3 -->
<g id="edge2" class="edge"><title>Node1&#45;&gt;Node3</title>
<path fill="none" stroke="midnightblue" d="M125.774,-147.038C139.012,-151.004 152.976,-155.164 166,-159 175.928,-161.925 186.534,-165.016 196.731,-167.972"/>
<polygon fill="midnightblue" stroke="midnightblue" points="126.403,-143.573 115.819,-144.052 124.392,-150.278 126.403,-143.573"/>
</g>
<!-- Node4 -->
<g id="node4" class="node"><title>Node4</title>
<g id="a_node4"><a xlink:href="classo2_1_1quality__control__modules_1_1daq_1_1EverIncreasingGraph.html" target="_top" xlink:title="Check whether a plot is empty or not. ">
<polygon fill="none" stroke="black" points="174,-108.5 174,-149.5 326,-149.5 326,-108.5 174,-108.5"/>
<text text-anchor="start" x="182" y="-137.5" font-family="Helvetica,sans-Serif" font-size="10.00">o2::quality_control</text>
<text text-anchor="start" x="182" y="-126.5" font-family="Helvetica,sans-Serif" font-size="10.00">_modules::daq::EverIncreasing</text>
<text text-anchor="middle" x="250" y="-115.5" font-family="Helvetica,sans-Serif" font-size="10.00">Graph</text>
</a>
</g>
</g>
<!-- Node1&#45;&gt;Node4 -->
<g id="edge3" class="edge"><title>Node1&#45;&gt;Node4</title>
<path fill="none" stroke="midnightblue" d="M140.072,-129C151.165,-129 162.612,-129 173.729,-129"/>
<polygon fill="midnightblue" stroke="midnightblue" points="140.005,-125.5 130.005,-129 140.004,-132.5 140.005,-125.5"/>
</g>
<!-- Node5 -->
<g id="node5" class="node"><title>Node5</title>
<g id="a_node5"><a xlink:href="classo2_1_1quality__control__modules_1_1example_1_1FakeCheck.html" target="_top" xlink:title="Check whether a plot is empty or not. ">
<polygon fill="none" stroke="black" points="171,-60 171,-90 329,-90 329,-60 171,-60"/>
<text text-anchor="start" x="179" y="-78" font-family="Helvetica,sans-Serif" font-size="10.00">o2::quality_control</text>
<text text-anchor="middle" x="250" y="-67" font-family="Helvetica,sans-Serif" font-size="10.00">_modules::example::FakeCheck</text>
</a>
</g>
</g>
<!-- Node1&#45;&gt;Node5 -->
<g id="edge4" class="edge"><title>Node1&#45;&gt;Node5</title>
<path fill="none" stroke="midnightblue" d="M125.774,-110.962C139.012,-106.996 152.976,-102.836 166,-99 175.928,-96.0754 186.534,-92.9839 196.731,-90.0278"/>
<polygon fill="midnightblue" stroke="midnightblue" points="124.392,-107.722 115.819,-113.948 126.403,-114.427 124.392,-107.722"/>
</g>
<!-- Node6 -->
<g id="node6" class="node"><title>Node6</title>
<g id="a_node6"><a xlink:href="classo2_1_1quality__control__modules_1_1skeleton_1_1SkeletonCheck.html" target="_top" xlink:title="Check whether a plot is empty or not. ">
<polygon fill="none" stroke="black" points="196.5,-0.5 196.5,-41.5 303.5,-41.5 303.5,-0.5 196.5,-0.5"/>
<text text-anchor="start" x="204.5" y="-29.5" font-family="Helvetica,sans-Serif" font-size="10.00">o2::quality_control</text>
<text text-anchor="start" x="204.5" y="-18.5" font-family="Helvetica,sans-Serif" font-size="10.00">_modules::skeleton::</text>
<text text-anchor="middle" x="250" y="-7.5" font-family="Helvetica,sans-Serif" font-size="10.00">SkeletonCheck</text>
</a>
</g>
</g>
<!-- Node1&#45;&gt;Node6 -->
<g id="edge5" class="edge"><title>Node1&#45;&gt;Node6</title>
<path fill="none" stroke="midnightblue" d="M89.8869,-106.825C109.243,-89.7662 137.837,-66.5554 166,-51 175.389,-45.8144 185.849,-41.2216 196.092,-37.2852"/>
<polygon fill="midnightblue" stroke="midnightblue" points="87.3017,-104.441 82.1849,-113.719 91.9703,-109.657 87.3017,-104.441"/>
</g>
</g>
</svg>
