<?xml version="1.0" encoding="UTF-8" standalone="no"?>
<!DOCTYPE svg PUBLIC "-//W3C//DTD SVG 1.1//EN"
 "http://www.w3.org/Graphics/SVG/1.1/DTD/svg11.dtd">
<!-- Generated by graphviz version 2.38.0 (20140413.2041)
 -->
<!-- Title: Modules/Common/src/MeanIsAbove.cxx Pages: 1 -->
<svg width="746pt" height="330pt"
 viewBox="0.00 0.00 745.50 330.00" xmlns="http://www.w3.org/2000/svg" xmlns:xlink="http://www.w3.org/1999/xlink">
<g id="graph0" class="graph" transform="scale(1 1) rotate(0) translate(4 326)">
<title>Modules/Common/src/MeanIsAbove.cxx</title>
<!-- Node1 -->
<g id="node1" class="node"><title>Node1</title>
<polygon fill="#bfbfbf" stroke="black" points="405.5,-291.5 405.5,-321.5 518.5,-321.5 518.5,-291.5 405.5,-291.5"/>
<text text-anchor="start" x="413.5" y="-309.5" font-family="Helvetica,sans-Serif" font-size="10.00">Modules/Common/src</text>
<text text-anchor="middle" x="462" y="-298.5" font-family="Helvetica,sans-Serif" font-size="10.00">/MeanIsAbove.cxx</text>
</g>
<!-- Node2 -->
<g id="node2" class="node"><title>Node2</title>
<g id="a_node2"><a xlink:href="MeanIsAbove_8h.html" target="_top" xlink:title="Common/MeanIsAbove.h">
<polygon fill="none" stroke="black" points="188,-230 188,-249 316,-249 316,-230 188,-230"/>
<text text-anchor="middle" x="252" y="-237" font-family="Helvetica,sans-Serif" font-size="10.00">Common/MeanIsAbove.h</text>
</a>
</g>
</g>
<!-- Node1&#45;&gt;Node2 -->
<g id="edge1" class="edge"><title>Node1&#45;&gt;Node2</title>
<path fill="none" stroke="midnightblue" d="M416.692,-291.476C378.721,-279.723 325.155,-263.143 289.543,-252.12"/>
<polygon fill="midnightblue" stroke="midnightblue" points="290.142,-248.642 279.554,-249.029 288.072,-255.329 290.142,-248.642"/>
</g>
<!-- Node12 -->
<g id="node12" class="node"><title>Node12</title>
<polygon fill="none" stroke="#bfbfbf" points="334,-230 334,-249 390,-249 390,-230 334,-230"/>
<text text-anchor="middle" x="362" y="-237" font-family="Helvetica,sans-Serif" font-size="10.00">TClass.h</text>
</g>
<!-- Node1&#45;&gt;Node12 -->
<g id="edge15" class="edge"><title>Node1&#45;&gt;Node12</title>
<path fill="none" stroke="midnightblue" d="M440.301,-291.396C423.532,-280.496 400.429,-265.479 383.667,-254.584"/>
<polygon fill="midnightblue" stroke="midnightblue" points="385.38,-251.522 375.088,-249.007 381.565,-257.391 385.38,-251.522"/>
</g>
<!-- Node13 -->
<g id="node13" class="node"><title>Node13</title>
<polygon fill="none" stroke="#bfbfbf" points="408,-230 408,-249 452,-249 452,-230 408,-230"/>
<text text-anchor="middle" x="430" y="-237" font-family="Helvetica,sans-Serif" font-size="10.00">TH1.h</text>
</g>
<!-- Node1&#45;&gt;Node13 -->
<g id="edge16" class="edge"><title>Node1&#45;&gt;Node13</title>
<path fill="none" stroke="midnightblue" d="M455.056,-291.396C450.265,-281.662 443.857,-268.646 438.721,-258.214"/>
<polygon fill="midnightblue" stroke="midnightblue" points="441.837,-256.62 434.28,-249.195 435.557,-259.712 441.837,-256.62"/>
</g>
<!-- Node14 -->
<g id="node14" class="node"><title>Node14</title>
<polygon fill="none" stroke="#bfbfbf" points="470.5,-230 470.5,-249 519.5,-249 519.5,-230 470.5,-230"/>
<text text-anchor="middle" x="495" y="-237" font-family="Helvetica,sans-Serif" font-size="10.00">TLine.h</text>
</g>
<!-- Node1&#45;&gt;Node14 -->
<g id="edge17" class="edge"><title>Node1&#45;&gt;Node14</title>
<path fill="none" stroke="midnightblue" d="M469.161,-291.396C474.102,-281.662 480.71,-268.646 486.007,-258.214"/>
<polygon fill="midnightblue" stroke="midnightblue" points="489.18,-259.696 490.586,-249.195 482.938,-256.527 489.18,-259.696"/>
</g>
<!-- Node15 -->
<g id="node15" class="node"><title>Node15</title>
<polygon fill="none" stroke="#bfbfbf" points="537.5,-230 537.5,-249 584.5,-249 584.5,-230 537.5,-230"/>
<text text-anchor="middle" x="561" y="-237" font-family="Helvetica,sans-Serif" font-size="10.00">TList.h</text>
</g>
<!-- Node1&#45;&gt;Node15 -->
<g id="edge18" class="edge"><title>Node1&#45;&gt;Node15</title>
<path fill="none" stroke="midnightblue" d="M483.482,-291.396C500.084,-280.496 522.956,-265.479 539.55,-254.584"/>
<polygon fill="midnightblue" stroke="midnightblue" points="541.605,-257.421 548.043,-249.007 537.763,-251.57 541.605,-257.421"/>
</g>
<!-- Node16 -->
<g id="node16" class="node"><title>Node16</title>
<polygon fill="none" stroke="#bfbfbf" points="602.5,-224.5 602.5,-254.5 737.5,-254.5 737.5,-224.5 602.5,-224.5"/>
<text text-anchor="start" x="610.5" y="-242.5" font-family="Helvetica,sans-Serif" font-size="10.00">Configuration/Configuration</text>
<text text-anchor="middle" x="670" y="-231.5" font-family="Helvetica,sans-Serif" font-size="10.00">Factory.h</text>
</g>
<!-- Node1&#45;&gt;Node16 -->
<g id="edge19" class="edge"><title>Node1&#45;&gt;Node16</title>
<path fill="none" stroke="midnightblue" d="M506.877,-291.476C538.616,-281.557 581.357,-268.201 615.126,-257.648"/>
<polygon fill="midnightblue" stroke="midnightblue" points="616.344,-260.934 624.845,-254.611 614.256,-254.253 616.344,-260.934"/>
</g>
<!-- Node3 -->
<g id="node3" class="node"><title>Node3</title>
<g id="a_node3"><a xlink:href="CheckInterface_8h.html" target="_top" xlink:title="QualityControl/CheckInterface.h">
<polygon fill="none" stroke="black" points="173.5,-168.5 173.5,-187.5 330.5,-187.5 330.5,-168.5 173.5,-168.5"/>
<text text-anchor="middle" x="252" y="-175.5" font-family="Helvetica,sans-Serif" font-size="10.00">QualityControl/CheckInterface.h</text>
</a>
</g>
</g>
<!-- Node2&#45;&gt;Node3 -->
<g id="edge2" class="edge"><title>Node2&#45;&gt;Node3</title>
<path fill="none" stroke="midnightblue" d="M252,-229.975C252,-221.58 252,-208.481 252,-197.663"/>
<polygon fill="midnightblue" stroke="midnightblue" points="255.5,-197.509 252,-187.509 248.5,-197.509 255.5,-197.509"/>
</g>
<!-- Node4 -->
<g id="node4" class="node"><title>Node4</title>
<g id="a_node4"><a xlink:href="MonitorObject_8h.html" target="_top" xlink:title="QualityControl/MonitorObject.h">
<polygon fill="none" stroke="black" points="69.5,-112.5 69.5,-131.5 220.5,-131.5 220.5,-112.5 69.5,-112.5"/>
<text text-anchor="middle" x="145" y="-119.5" font-family="Helvetica,sans-Serif" font-size="10.00">QualityControl/MonitorObject.h</text>
</a>
</g>
</g>
<!-- Node2&#45;&gt;Node4 -->
<g id="edge13" class="edge"><title>Node2&#45;&gt;Node4</title>
<path fill="none" stroke="midnightblue" d="M226.438,-229.894C206.659,-221.974 180.021,-208.342 164,-188 153.554,-174.736 148.848,-155.898 146.73,-141.915"/>
<polygon fill="midnightblue" stroke="midnightblue" points="150.2,-141.448 145.526,-131.94 143.25,-142.287 150.2,-141.448"/>
</g>
<!-- Node9 -->
<g id="node9" class="node"><title>Node9</title>
<g id="a_node9"><a xlink:href="Quality_8h.html" target="_top" xlink:title="QualityControl/Quality.h">
<polygon fill="none" stroke="black" points="298.5,-56.5 298.5,-75.5 419.5,-75.5 419.5,-56.5 298.5,-56.5"/>
<text text-anchor="middle" x="359" y="-63.5" font-family="Helvetica,sans-Serif" font-size="10.00">QualityControl/Quality.h</text>
</a>
</g>
</g>
<!-- Node2&#45;&gt;Node9 -->
<g id="edge14" class="edge"><title>Node2&#45;&gt;Node9</title>
<path fill="none" stroke="midnightblue" d="M279.181,-229.843C298.969,-222.086 324.71,-208.694 339,-188 360.403,-157.005 361.776,-111.066 360.581,-85.6375"/>
<polygon fill="midnightblue" stroke="midnightblue" points="364.065,-85.273 359.915,-75.525 357.08,-85.7336 364.065,-85.273"/>
</g>
<!-- Node3&#45;&gt;Node4 -->
<g id="edge3" class="edge"><title>Node3&#45;&gt;Node4</title>
<path fill="none" stroke="midnightblue" d="M234.809,-168.324C217.649,-159.664 191.054,-146.242 171.253,-136.249"/>
<polygon fill="midnightblue" stroke="midnightblue" points="172.653,-133.035 162.149,-131.655 169.499,-139.285 172.653,-133.035"/>
</g>
<!-- Node3&#45;&gt;Node9 -->
<g id="edge12" class="edge"><title>Node3&#45;&gt;Node9</title>
<path fill="none" stroke="midnightblue" d="M260.396,-168.368C278.289,-149.974 320.411,-106.671 343.386,-83.0519"/>
<polygon fill="midnightblue" stroke="midnightblue" points="346.179,-85.2 350.643,-75.5914 341.161,-80.3192 346.179,-85.2"/>
</g>
<!-- Node5 -->
<g id="node5" class="node"><title>Node5</title>
<polygon fill="none" stroke="#bfbfbf" points="0,-56.5 0,-75.5 54,-75.5 54,-56.5 0,-56.5"/>
<text text-anchor="middle" x="27" y="-63.5" font-family="Helvetica,sans-Serif" font-size="10.00">iostream</text>
</g>
<!-- Node4&#45;&gt;Node5 -->
<g id="edge4" class="edge"><title>Node4&#45;&gt;Node5</title>
<path fill="none" stroke="midnightblue" d="M126.303,-112.444C107.056,-103.636 76.8475,-89.8116 54.7999,-79.722"/>
<polygon fill="midnightblue" stroke="midnightblue" points="56.1595,-76.4951 45.61,-75.5164 53.2466,-82.8603 56.1595,-76.4951"/>
</g>
<!-- Node6 -->
<g id="node6" class="node"><title>Node6</title>
<polygon fill="none" stroke="#bfbfbf" points="72.5,-56.5 72.5,-75.5 107.5,-75.5 107.5,-56.5 72.5,-56.5"/>
<text text-anchor="middle" x="90" y="-63.5" font-family="Helvetica,sans-Serif" font-size="10.00">map</text>
</g>
<!-- Node4&#45;&gt;Node6 -->
<g id="edge5" class="edge"><title>Node4&#45;&gt;Node6</title>
<path fill="none" stroke="midnightblue" d="M135.918,-112.083C127.829,-104.141 115.805,-92.3354 106.09,-82.7973"/>
<polygon fill="midnightblue" stroke="midnightblue" points="108.501,-80.2595 98.9131,-75.7511 103.597,-85.2545 108.501,-80.2595"/>
</g>
<!-- Node7 -->
<g id="node7" class="node"><title>Node7</title>
<polygon fill="none" stroke="#bfbfbf" points="180.5,-0.5 180.5,-19.5 239.5,-19.5 239.5,-0.5 180.5,-0.5"/>
<text text-anchor="middle" x="210" y="-7.5" font-family="Helvetica,sans-Serif" font-size="10.00">TObject.h</text>
</g>
<!-- Node4&#45;&gt;Node7 -->
<g id="edge6" class="edge"><title>Node4&#45;&gt;Node7</title>
<path fill="none" stroke="midnightblue" d="M144.441,-112.37C143.988,-99.2853 144.696,-74.0449 155,-56 162.193,-43.404 174.38,-32.8863 185.456,-25.1947"/>
<polygon fill="midnightblue" stroke="midnightblue" points="187.511,-28.0334 193.984,-19.6463 183.693,-22.1658 187.511,-28.0334"/>
</g>
<!-- Node8 -->
<g id="node8" class="node"><title>Node8</title>
<polygon fill="none" stroke="#bfbfbf" points="164,-56.5 164,-75.5 280,-75.5 280,-56.5 164,-56.5"/>
<text text-anchor="middle" x="222" y="-63.5" font-family="Helvetica,sans-Serif" font-size="10.00">Common/Exceptions.h</text>
</g>
<!-- Node4&#45;&gt;Node8 -->
<g id="edge7" class="edge"><title>Node4&#45;&gt;Node8</title>
<path fill="none" stroke="midnightblue" d="M157.371,-112.324C169.158,-104.058 187.132,-91.4527 201.136,-81.6322"/>
<polygon fill="midnightblue" stroke="midnightblue" points="203.482,-84.2619 209.659,-75.6545 199.462,-78.5307 203.482,-84.2619"/>
</g>
<!-- Node4&#45;&gt;Node9 -->
<g id="edge8" class="edge"><title>Node4&#45;&gt;Node9</title>
<path fill="none" stroke="midnightblue" d="M178.909,-112.444C215.849,-103.122 275.054,-88.1828 315.418,-77.9972"/>
<polygon fill="midnightblue" stroke="midnightblue" points="316.41,-81.3568 325.25,-75.5164 314.697,-74.5695 316.41,-81.3568"/>
</g>
<!-- Node9&#45;&gt;Node7 -->
<g id="edge9" class="edge"><title>Node9&#45;&gt;Node7</title>
<path fill="none" stroke="midnightblue" d="M335.391,-56.4435C310.542,-47.4381 271.226,-33.1891 243.246,-23.049"/>
<polygon fill="midnightblue" stroke="midnightblue" points="244.093,-19.6332 233.499,-19.5164 241.708,-26.2144 244.093,-19.6332"/>
</g>
<!-- Node10 -->
<g id="node10" class="node"><title>Node10</title>
<polygon fill="none" stroke="#bfbfbf" points="300,-0.5 300,-19.5 352,-19.5 352,-0.5 300,-0.5"/>
<text text-anchor="middle" x="326" y="-7.5" font-family="Helvetica,sans-Serif" font-size="10.00">ostream</text>
</g>
<!-- Node9&#45;&gt;Node10 -->
<g id="edge10" class="edge"><title>Node9&#45;&gt;Node10</title>
<path fill="none" stroke="midnightblue" d="M353.551,-56.083C348.986,-48.6127 342.332,-37.7244 336.707,-28.5199"/>
<polygon fill="midnightblue" stroke="midnightblue" points="339.549,-26.4588 331.348,-19.7511 333.576,-30.109 339.549,-26.4588"/>
</g>
<!-- Node11 -->
<g id="node11" class="node"><title>Node11</title>
<polygon fill="none" stroke="#bfbfbf" points="370.5,-0.5 370.5,-19.5 411.5,-19.5 411.5,-0.5 370.5,-0.5"/>
<text text-anchor="middle" x="391" y="-7.5" font-family="Helvetica,sans-Serif" font-size="10.00">string</text>
</g>
<!-- Node9&#45;&gt;Node11 -->
<g id="edge11" class="edge"><title>Node9&#45;&gt;Node11</title>
<path fill="none" stroke="midnightblue" d="M364.284,-56.083C368.711,-48.6127 375.163,-37.7244 380.618,-28.5199"/>
<polygon fill="midnightblue" stroke="midnightblue" points="383.727,-30.1383 385.814,-19.7511 377.705,-26.5697 383.727,-30.1383"/>
</g>
</g>
</svg>
