<?xml version="1.0" encoding="UTF-8" standalone="no"?>
<!DOCTYPE svg PUBLIC "-//W3C//DTD SVG 1.1//EN"
 "http://www.w3.org/Graphics/SVG/1.1/DTD/svg11.dtd">
<!-- Generated by graphviz version 2.38.0 (20140413.2041)
 -->
<!-- Title: Framework/src/MonitorObject.cxx Pages: 1 -->
<svg width="428pt" height="196pt"
 viewBox="0.00 0.00 428.00 196.00" xmlns="http://www.w3.org/2000/svg" xmlns:xlink="http://www.w3.org/1999/xlink">
<g id="graph0" class="graph" transform="scale(1 1) rotate(0) translate(4 192)">
<title>Framework/src/MonitorObject.cxx</title>
<!-- Node1 -->
<g id="node1" class="node"><title>Node1</title>
<polygon fill="#bfbfbf" stroke="black" points="54,-168.5 54,-187.5 218,-187.5 218,-168.5 54,-168.5"/>
<text text-anchor="middle" x="136" y="-175.5" font-family="Helvetica,sans-Serif" font-size="10.00">Framework/src/MonitorObject.cxx</text>
</g>
<!-- Node2 -->
<g id="node2" class="node"><title>Node2</title>
<polygon fill="none" stroke="#bfbfbf" points="0,-56.5 0,-75.5 54,-75.5 54,-56.5 0,-56.5"/>
<text text-anchor="middle" x="27" y="-63.5" font-family="Helvetica,sans-Serif" font-size="10.00">iostream</text>
</g>
<!-- Node1&#45;&gt;Node2 -->
<g id="edge1" class="edge"><title>Node1&#45;&gt;Node2</title>
<path fill="none" stroke="midnightblue" d="M108.941,-168.491C90.371,-161.402 66.3929,-149.593 51,-132 39.4995,-118.856 33.3242,-99.7137 30.133,-85.6049"/>
<polygon fill="midnightblue" stroke="midnightblue" points="33.5263,-84.72 28.1688,-75.5796 26.6569,-86.066 33.5263,-84.72"/>
</g>
<!-- Node3 -->
<g id="node3" class="node"><title>Node3</title>
<g id="a_node3"><a xlink:href="MonitorObject_8h.html" target="_top" xlink:title="QualityControl/MonitorObject.h">
<polygon fill="none" stroke="black" points="60.5,-112.5 60.5,-131.5 211.5,-131.5 211.5,-112.5 60.5,-112.5"/>
<text text-anchor="middle" x="136" y="-119.5" font-family="Helvetica,sans-Serif" font-size="10.00">QualityControl/MonitorObject.h</text>
</a>
</g>
</g>
<!-- Node1&#45;&gt;Node3 -->
<g id="edge2" class="edge"><title>Node1&#45;&gt;Node3</title>
<path fill="none" stroke="midnightblue" d="M136,-168.083C136,-161.006 136,-150.861 136,-141.986"/>
<polygon fill="midnightblue" stroke="midnightblue" points="139.5,-141.751 136,-131.751 132.5,-141.751 139.5,-141.751"/>
</g>
<!-- Node6 -->
<g id="node6" class="node"><title>Node6</title>
<polygon fill="none" stroke="#bfbfbf" points="304,-56.5 304,-75.5 420,-75.5 420,-56.5 304,-56.5"/>
<text text-anchor="middle" x="362" y="-63.5" font-family="Helvetica,sans-Serif" font-size="10.00">Common/Exceptions.h</text>
</g>
<!-- Node1&#45;&gt;Node6 -->
<g id="edge11" class="edge"><title>Node1&#45;&gt;Node6</title>
<path fill="none" stroke="midnightblue" d="M153.734,-168.368C193.176,-149.171 288.361,-102.842 335.139,-80.074"/>
<polygon fill="midnightblue" stroke="midnightblue" points="336.889,-83.1149 344.349,-75.5914 333.825,-76.8208 336.889,-83.1149"/>
</g>
<!-- Node3&#45;&gt;Node2 -->
<g id="edge3" class="edge"><title>Node3&#45;&gt;Node2</title>
<path fill="none" stroke="midnightblue" d="M118.487,-112.324C100.928,-103.625 73.6686,-90.1202 53.4688,-80.113"/>
<polygon fill="midnightblue" stroke="midnightblue" points="54.9837,-76.9575 44.4693,-75.6545 51.8762,-83.23 54.9837,-76.9575"/>
</g>
<!-- Node4 -->
<g id="node4" class="node"><title>Node4</title>
<polygon fill="none" stroke="#bfbfbf" points="72.5,-56.5 72.5,-75.5 107.5,-75.5 107.5,-56.5 72.5,-56.5"/>
<text text-anchor="middle" x="90" y="-63.5" font-family="Helvetica,sans-Serif" font-size="10.00">map</text>
</g>
<!-- Node3&#45;&gt;Node4 -->
<g id="edge4" class="edge"><title>Node3&#45;&gt;Node4</title>
<path fill="none" stroke="midnightblue" d="M128.404,-112.083C121.773,-104.298 111.979,-92.8015 103.942,-83.3665"/>
<polygon fill="midnightblue" stroke="midnightblue" points="106.604,-81.0939 97.4546,-75.7511 101.275,-85.6332 106.604,-81.0939"/>
</g>
<!-- Node5 -->
<g id="node5" class="node"><title>Node5</title>
<polygon fill="none" stroke="#bfbfbf" points="110.5,-0.5 110.5,-19.5 169.5,-19.5 169.5,-0.5 110.5,-0.5"/>
<text text-anchor="middle" x="140" y="-7.5" font-family="Helvetica,sans-Serif" font-size="10.00">TObject.h</text>
</g>
<!-- Node3&#45;&gt;Node5 -->
<g id="edge5" class="edge"><title>Node3&#45;&gt;Node5</title>
<path fill="none" stroke="midnightblue" d="M136.314,-112.368C136.959,-94.617 138.448,-53.6664 139.324,-29.5974"/>
<polygon fill="midnightblue" stroke="midnightblue" points="142.822,-29.712 139.688,-19.5914 135.826,-29.4576 142.822,-29.712"/>
</g>
<!-- Node3&#45;&gt;Node6 -->
<g id="edge6" class="edge"><title>Node3&#45;&gt;Node6</title>
<path fill="none" stroke="midnightblue" d="M171.81,-112.444C210.988,-103.083 273.877,-88.0561 316.515,-77.868"/>
<polygon fill="midnightblue" stroke="midnightblue" points="317.444,-81.2446 326.357,-75.5164 315.818,-74.4363 317.444,-81.2446"/>
</g>
<!-- Node7 -->
<g id="node7" class="node"><title>Node7</title>
<g id="a_node7"><a xlink:href="Quality_8h.html" target="_top" xlink:title="QualityControl/Quality.h">
<polygon fill="none" stroke="black" points="164.5,-56.5 164.5,-75.5 285.5,-75.5 285.5,-56.5 164.5,-56.5"/>
<text text-anchor="middle" x="225" y="-63.5" font-family="Helvetica,sans-Serif" font-size="10.00">QualityControl/Quality.h</text>
</a>
</g>
</g>
<!-- Node3&#45;&gt;Node7 -->
<g id="edge7" class="edge"><title>Node3&#45;&gt;Node7</title>
<path fill="none" stroke="midnightblue" d="M150.299,-112.324C164.183,-103.9 185.492,-90.9709 201.804,-81.0741"/>
<polygon fill="midnightblue" stroke="midnightblue" points="204.002,-83.8341 210.736,-75.6545 200.371,-77.8495 204.002,-83.8341"/>
</g>
<!-- Node7&#45;&gt;Node5 -->
<g id="edge8" class="edge"><title>Node7&#45;&gt;Node5</title>
<path fill="none" stroke="midnightblue" d="M211.343,-56.324C198.084,-47.9002 177.732,-34.9709 162.154,-25.0741"/>
<polygon fill="midnightblue" stroke="midnightblue" points="163.94,-22.0626 153.623,-19.6545 160.187,-27.9711 163.94,-22.0626"/>
</g>
<!-- Node8 -->
<g id="node8" class="node"><title>Node8</title>
<polygon fill="none" stroke="#bfbfbf" points="195,-0.5 195,-19.5 247,-19.5 247,-0.5 195,-0.5"/>
<text text-anchor="middle" x="221" y="-7.5" font-family="Helvetica,sans-Serif" font-size="10.00">ostream</text>
</g>
<!-- Node7&#45;&gt;Node8 -->
<g id="edge9" class="edge"><title>Node7&#45;&gt;Node8</title>
<path fill="none" stroke="midnightblue" d="M224.339,-56.083C223.815,-49.0059 223.064,-38.8611 222.406,-29.9865"/>
<polygon fill="midnightblue" stroke="midnightblue" points="225.877,-29.4652 221.648,-19.7511 218.897,-29.9823 225.877,-29.4652"/>
</g>
<!-- Node9 -->
<g id="node9" class="node"><title>Node9</title>
<polygon fill="none" stroke="#bfbfbf" points="265.5,-0.5 265.5,-19.5 306.5,-19.5 306.5,-0.5 265.5,-0.5"/>
<text text-anchor="middle" x="286" y="-7.5" font-family="Helvetica,sans-Serif" font-size="10.00">string</text>
</g>
<!-- Node7&#45;&gt;Node9 -->
<g id="edge10" class="edge"><title>Node7&#45;&gt;Node9</title>
<path fill="none" stroke="midnightblue" d="M234.801,-56.324C243.818,-48.3414 257.406,-36.3128 268.318,-26.6529"/>
<polygon fill="midnightblue" stroke="midnightblue" points="270.853,-29.083 276.021,-19.8339 266.213,-23.8416 270.853,-29.083"/>
</g>
</g>
</svg>
