<?xml version="1.0" encoding="UTF-8" standalone="no"?>
<!DOCTYPE svg PUBLIC "-//W3C//DTD SVG 1.1//EN"
 "http://www.w3.org/Graphics/SVG/1.1/DTD/svg11.dtd">
<!-- Generated by graphviz version 2.38.0 (20140413.2041)
 -->
<!-- Title: Framework/src/MySqlDatabase.cxx Pages: 1 -->
<!--zoomable 364 -->
<svg id="main" version="1.1" xmlns="http://www.w3.org/2000/svg" xmlns:xlink="http://www.w3.org/1999/xlink" xml:space="preserve" onload="init(evt)">
<style type="text/css"><![CDATA[
.edge:hover path { stroke: red; }
.edge:hover polygon { stroke: red; fill: red; }
]]></style>
<script type="text/javascript"><![CDATA[
var edges = document.getElementsByTagName('g');
if (edges && edges.length) {
  for (var i=0;i<edges.length;i++) {
    if (edges[i].id.substr(0,4)=='edge') {
      edges[i].setAttribute('class','edge');
    }
  }
}
]]></script>
        <defs>
                <circle id="rim" cx="0" cy="0" r="7"/>
                <circle id="rim2" cx="0" cy="0" r="3.5"/>
                <g id="zoomPlus">
                        <use xlink:href="#rim" fill="#404040">
                                <set attributeName="fill" to="#808080" begin="zoomplus.mouseover" end="zoomplus.mouseout"/>
                        </use>
                        <path d="M-4,0h8M0,-4v8" fill="none" stroke="white" stroke-width="1.5" pointer-events="none"/>
                </g>
                <g id="zoomMin">
                        <use xlink:href="#rim" fill="#404040">
                                <set attributeName="fill" to="#808080" begin="zoomminus.mouseover" end="zoomminus.mouseout"/>
                        </use>
                        <path d="M-4,0h8" fill="none" stroke="white" stroke-width="1.5" pointer-events="none"/>
                </g>
                <g id="dirArrow">
                        <path fill="none" stroke="white" stroke-width="1.5" d="M0,-3.0v7 M-2.5,-0.5L0,-3.0L2.5,-0.5"/>
                </g>
               <g id="resetDef">
                       <use xlink:href="#rim2" fill="#404040">
                               <set attributeName="fill" to="#808080" begin="reset.mouseover" end="reset.mouseout"/>
                       </use>
               </g>
        </defs>

<script type="text/javascript">
var viewWidth = 1648;
var viewHeight = 364;
var sectionId = 'dynsection-0';
</script>
<script xlink:href="svgpan.js"/>
<svg id="graph" class="graph">
<g id="viewport">
<title>Framework/src/MySqlDatabase.cxx</title>
<!-- Node1 -->
<g id="node1" class="node"><title>Node1</title>
<polygon fill="#bfbfbf" stroke="black" points="340.5,-336.5 340.5,-355.5 513.5,-355.5 513.5,-336.5 340.5,-336.5"/>
<text text-anchor="middle" x="427" y="-343.5" font-family="Helvetica,sans-Serif" font-size="10.00">Framework/src/MySqlDatabase.cxx</text>
</g>
<!-- Node2 -->
<g id="node2" class="node"><title>Node2</title>
<polygon fill="none" stroke="#bfbfbf" points="0,-280.5 0,-299.5 52,-299.5 52,-280.5 0,-280.5"/>
<text text-anchor="middle" x="26" y="-287.5" font-family="Helvetica,sans-Serif" font-size="10.00">sstream</text>
</g>
<!-- Node1&#45;&gt;Node2 -->
<g id="edge1" class="edge"><title>Node1&#45;&gt;Node2</title>
<path fill="none" stroke="midnightblue" d="M340.361,-337.534C268.289,-330.59 162.884,-318.738 62.3201,-300.04"/>
<polygon fill="midnightblue" stroke="midnightblue" points="62.7666,-296.563 52.2913,-298.149 61.4697,-303.442 62.7666,-296.563"/>
</g>
<!-- Node3 -->
<g id="node3" class="node"><title>Node3</title>
<polygon fill="none" stroke="#bfbfbf" points="70.5,-280.5 70.5,-299.5 141.5,-299.5 141.5,-280.5 70.5,-280.5"/>
<text text-anchor="middle" x="106" y="-287.5" font-family="Helvetica,sans-Serif" font-size="10.00">TMessage.h</text>
</g>
<!-- Node1&#45;&gt;Node3 -->
<g id="edge2" class="edge"><title>Node1&#45;&gt;Node3</title>
<path fill="none" stroke="midnightblue" d="M371.13,-336.491C317.485,-328.185 233.916,-314.893 151.839,-300.099"/>
<polygon fill="midnightblue" stroke="midnightblue" points="152.303,-296.626 141.839,-298.288 151.055,-303.514 152.303,-296.626"/>
</g>
<!-- Node4 -->
<g id="node4" class="node"><title>Node4</title>
<polygon fill="none" stroke="#bfbfbf" points="160,-280.5 160,-299.5 252,-299.5 252,-280.5 160,-280.5"/>
<text text-anchor="middle" x="206" y="-287.5" font-family="Helvetica,sans-Serif" font-size="10.00">TMySQLResult.h</text>
</g>
<!-- Node1&#45;&gt;Node4 -->
<g id="edge3" class="edge"><title>Node1&#45;&gt;Node4</title>
<path fill="none" stroke="midnightblue" d="M391.982,-336.444C353.752,-327.102 292.433,-312.119 250.743,-301.933"/>
<polygon fill="midnightblue" stroke="midnightblue" points="251.399,-298.49 240.854,-299.516 249.738,-305.29 251.399,-298.49"/>
</g>
<!-- Node5 -->
<g id="node5" class="node"><title>Node5</title>
<polygon fill="none" stroke="#bfbfbf" points="270,-280.5 270,-299.5 354,-299.5 354,-280.5 270,-280.5"/>
<text text-anchor="middle" x="312" y="-287.5" font-family="Helvetica,sans-Serif" font-size="10.00">TMySQLRow.h</text>
</g>
<!-- Node1&#45;&gt;Node5 -->
<g id="edge4" class="edge"><title>Node1&#45;&gt;Node5</title>
<path fill="none" stroke="midnightblue" d="M408.778,-336.444C390.104,-327.675 360.844,-313.935 339.383,-303.858"/>
<polygon fill="midnightblue" stroke="midnightblue" points="340.676,-300.599 330.137,-299.516 337.701,-306.935 340.676,-300.599"/>
</g>
<!-- Node6 -->
<g id="node6" class="node"><title>Node6</title>
<polygon fill="none" stroke="#bfbfbf" points="372.5,-280.5 372.5,-299.5 481.5,-299.5 481.5,-280.5 372.5,-280.5"/>
<text text-anchor="middle" x="427" y="-287.5" font-family="Helvetica,sans-Serif" font-size="10.00">TMySQLStatement.h</text>
</g>
<!-- Node1&#45;&gt;Node6 -->
<g id="edge5" class="edge"><title>Node1&#45;&gt;Node6</title>
<path fill="none" stroke="midnightblue" d="M427,-336.083C427,-329.006 427,-318.861 427,-309.986"/>
<polygon fill="midnightblue" stroke="midnightblue" points="430.5,-309.751 427,-299.751 423.5,-309.751 430.5,-309.751"/>
</g>
<!-- Node7 -->
<g id="node7" class="node"><title>Node7</title>
<polygon fill="none" stroke="#bfbfbf" points="500,-280.5 500,-299.5 584,-299.5 584,-280.5 500,-280.5"/>
<text text-anchor="middle" x="542" y="-287.5" font-family="Helvetica,sans-Serif" font-size="10.00">TBufferJSON.h</text>
</g>
<!-- Node1&#45;&gt;Node7 -->
<g id="edge6" class="edge"><title>Node1&#45;&gt;Node7</title>
<path fill="none" stroke="midnightblue" d="M445.222,-336.444C463.896,-327.675 493.156,-313.935 514.617,-303.858"/>
<polygon fill="midnightblue" stroke="midnightblue" points="516.299,-306.935 523.863,-299.516 513.324,-300.599 516.299,-306.935"/>
</g>
<!-- Node8 -->
<g id="node8" class="node"><title>Node8</title>
<polygon fill="none" stroke="#bfbfbf" points="569,-56.5 569,-75.5 685,-75.5 685,-56.5 569,-56.5"/>
<text text-anchor="middle" x="627" y="-63.5" font-family="Helvetica,sans-Serif" font-size="10.00">Common/Exceptions.h</text>
</g>
<!-- Node1&#45;&gt;Node8 -->
<g id="edge7" class="edge"><title>Node1&#45;&gt;Node8</title>
<path fill="none" stroke="midnightblue" d="M513.908,-338.337C542.285,-332.115 571.893,-320.696 593,-300 614.491,-278.928 612,-265.098 612,-235 612,-235 612,-235 612,-177 612,-144.502 618.507,-107.095 622.949,-85.343"/>
<polygon fill="midnightblue" stroke="midnightblue" points="626.385,-86.0128 625.039,-75.5039 619.538,-84.5586 626.385,-86.0128"/>
</g>
<!-- Node9 -->
<g id="node9" class="node"><title>Node9</title>
<g id="a_node9"><a xlink:href="MySqlDatabase_8h.html" target="_top" xlink:title="QualityControl/MySqlDatabase.h">
<polygon fill="none" stroke="black" points="720,-280.5 720,-299.5 880,-299.5 880,-280.5 720,-280.5"/>
<text text-anchor="middle" x="800" y="-287.5" font-family="Helvetica,sans-Serif" font-size="10.00">QualityControl/MySqlDatabase.h</text>
</a>
</g>
</g>
<!-- Node1&#45;&gt;Node9 -->
<g id="edge8" class="edge"><title>Node1&#45;&gt;Node9</title>
<path fill="none" stroke="midnightblue" d="M486.103,-336.444C552.672,-326.806 660.723,-311.163 731.076,-300.978"/>
<polygon fill="midnightblue" stroke="midnightblue" points="731.778,-304.413 741.174,-299.516 730.775,-297.485 731.778,-304.413"/>
</g>
<!-- Node22 -->
<g id="node22" class="node"><title>Node22</title>
<g id="a_node22"><a xlink:href="QcInfoLogger_8h.html" target="_top" xlink:title="QualityControl/QcInfoLogger.h">
<polygon fill="none" stroke="black" points="1026.5,-280.5 1026.5,-299.5 1175.5,-299.5 1175.5,-280.5 1026.5,-280.5"/>
<text text-anchor="middle" x="1101" y="-287.5" font-family="Helvetica,sans-Serif" font-size="10.00">QualityControl/QcInfoLogger.h</text>
</a>
</g>
</g>
<!-- Node1&#45;&gt;Node22 -->
<g id="edge23" class="edge"><title>Node1&#45;&gt;Node22</title>
<path fill="none" stroke="midnightblue" d="M513.734,-338.051C643.633,-327.644 887.182,-308.131 1016.04,-297.807"/>
<polygon fill="midnightblue" stroke="midnightblue" points="1016.56,-301.276 1026.25,-296.989 1016,-294.299 1016.56,-301.276"/>
</g>
<!-- Node10 -->
<g id="node10" class="node"><title>Node10</title>
<polygon fill="none" stroke="#bfbfbf" points="828,-224.5 828,-243.5 920,-243.5 920,-224.5 828,-224.5"/>
<text text-anchor="middle" x="874" y="-231.5" font-family="Helvetica,sans-Serif" font-size="10.00">Common/Timer.h</text>
</g>
<!-- Node9&#45;&gt;Node10 -->
<g id="edge9" class="edge"><title>Node9&#45;&gt;Node10</title>
<path fill="none" stroke="midnightblue" d="M811.889,-280.324C823.15,-272.107 840.287,-259.602 853.709,-249.807"/>
<polygon fill="midnightblue" stroke="midnightblue" points="855.88,-252.556 861.894,-243.834 851.753,-246.901 855.88,-252.556"/>
</g>
<!-- Node11 -->
<g id="node11" class="node"><title>Node11</title>
<g id="a_node11"><a xlink:href="DatabaseInterface_8h.html" target="_top" xlink:title="QualityControl/DatabaseInterface.h">
<polygon fill="none" stroke="black" points="640,-224.5 640,-243.5 810,-243.5 810,-224.5 640,-224.5"/>
<text text-anchor="middle" x="725" y="-231.5" font-family="Helvetica,sans-Serif" font-size="10.00">QualityControl/DatabaseInterface.h</text>
</a>
</g>
</g>
<!-- Node9&#45;&gt;Node11 -->
<g id="edge10" class="edge"><title>Node9&#45;&gt;Node11</title>
<path fill="none" stroke="midnightblue" d="M787.95,-280.324C776.537,-272.107 759.169,-259.602 745.565,-249.807"/>
<polygon fill="midnightblue" stroke="midnightblue" points="747.43,-246.837 737.269,-243.834 743.34,-252.517 747.43,-246.837"/>
</g>
<!-- Node21 -->
<g id="node21" class="node"><title>Node21</title>
<polygon fill="none" stroke="#bfbfbf" points="938,-224.5 938,-243.5 1030,-243.5 1030,-224.5 938,-224.5"/>
<text text-anchor="middle" x="984" y="-231.5" font-family="Helvetica,sans-Serif" font-size="10.00">TMySQLServer.h</text>
</g>
<!-- Node9&#45;&gt;Node21 -->
<g id="edge22" class="edge"><title>Node9&#45;&gt;Node21</title>
<path fill="none" stroke="midnightblue" d="M829.155,-280.444C860.513,-271.241 910.531,-256.562 945.197,-246.388"/>
<polygon fill="midnightblue" stroke="midnightblue" points="946.371,-249.691 954.981,-243.516 944.4,-242.974 946.371,-249.691"/>
</g>
<!-- Node12 -->
<g id="node12" class="node"><title>Node12</title>
<g id="a_node12"><a xlink:href="MonitorObject_8h.html" target="_top" xlink:title="QualityControl/MonitorObject.h">
<polygon fill="none" stroke="black" points="733.5,-112.5 733.5,-131.5 884.5,-131.5 884.5,-112.5 733.5,-112.5"/>
<text text-anchor="middle" x="809" y="-119.5" font-family="Helvetica,sans-Serif" font-size="10.00">QualityControl/MonitorObject.h</text>
</a>
</g>
</g>
<!-- Node11&#45;&gt;Node12 -->
<g id="edge11" class="edge"><title>Node11&#45;&gt;Node12</title>
<path fill="none" stroke="midnightblue" d="M723.425,-224.2C721.535,-210.893 719.874,-185.367 731,-168 740.498,-153.174 756.736,-142.684 771.945,-135.583"/>
<polygon fill="midnightblue" stroke="midnightblue" points="773.412,-138.762 781.212,-131.592 770.643,-132.333 773.412,-138.762"/>
</g>
<!-- Node19 -->
<g id="node19" class="node"><title>Node19</title>
<polygon fill="none" stroke="#bfbfbf" points="841,-168.5 841,-187.5 893,-187.5 893,-168.5 841,-168.5"/>
<text text-anchor="middle" x="867" y="-175.5" font-family="Helvetica,sans-Serif" font-size="10.00">memory</text>
</g>
<!-- Node11&#45;&gt;Node19 -->
<g id="edge20" class="edge"><title>Node11&#45;&gt;Node19</title>
<path fill="none" stroke="midnightblue" d="M747.5,-224.444C771.077,-215.478 808.322,-201.314 834.964,-191.183"/>
<polygon fill="midnightblue" stroke="midnightblue" points="836.502,-194.342 844.605,-187.516 834.014,-187.8 836.502,-194.342"/>
</g>
<!-- Node20 -->
<g id="node20" class="node"><title>Node20</title>
<polygon fill="none" stroke="#bfbfbf" points="739.5,-168.5 739.5,-187.5 822.5,-187.5 822.5,-168.5 739.5,-168.5"/>
<text text-anchor="middle" x="781" y="-175.5" font-family="Helvetica,sans-Serif" font-size="10.00">unordered_map</text>
</g>
<!-- Node11&#45;&gt;Node20 -->
<g id="edge21" class="edge"><title>Node11&#45;&gt;Node20</title>
<path fill="none" stroke="midnightblue" d="M733.997,-224.324C742.194,-216.42 754.506,-204.548 764.472,-194.938"/>
<polygon fill="midnightblue" stroke="midnightblue" points="767.07,-197.295 771.839,-187.834 762.211,-192.256 767.07,-197.295"/>
</g>
<!-- Node12&#45;&gt;Node8 -->
<g id="edge15" class="edge"><title>Node12&#45;&gt;Node8</title>
<path fill="none" stroke="midnightblue" d="M780.162,-112.444C749.144,-103.241 699.671,-88.5617 665.382,-78.3879"/>
<polygon fill="midnightblue" stroke="midnightblue" points="666.286,-75.0055 655.704,-75.5164 664.295,-81.7164 666.286,-75.0055"/>
</g>
<!-- Node13 -->
<g id="node13" class="node"><title>Node13</title>
<polygon fill="none" stroke="#bfbfbf" points="845,-56.5 845,-75.5 899,-75.5 899,-56.5 845,-56.5"/>
<text text-anchor="middle" x="872" y="-63.5" font-family="Helvetica,sans-Serif" font-size="10.00">iostream</text>
</g>
<!-- Node12&#45;&gt;Node13 -->
<g id="edge12" class="edge"><title>Node12&#45;&gt;Node13</title>
<path fill="none" stroke="midnightblue" d="M819.122,-112.324C828.526,-104.263 842.744,-92.0765 854.069,-82.3695"/>
<polygon fill="midnightblue" stroke="midnightblue" points="856.379,-84.9993 861.694,-75.8339 851.823,-79.6844 856.379,-84.9993"/>
</g>
<!-- Node14 -->
<g id="node14" class="node"><title>Node14</title>
<polygon fill="none" stroke="#bfbfbf" points="791.5,-56.5 791.5,-75.5 826.5,-75.5 826.5,-56.5 791.5,-56.5"/>
<text text-anchor="middle" x="809" y="-63.5" font-family="Helvetica,sans-Serif" font-size="10.00">map</text>
</g>
<!-- Node12&#45;&gt;Node14 -->
<g id="edge13" class="edge"><title>Node12&#45;&gt;Node14</title>
<path fill="none" stroke="midnightblue" d="M809,-112.083C809,-105.006 809,-94.8611 809,-85.9865"/>
<polygon fill="midnightblue" stroke="midnightblue" points="812.5,-85.751 809,-75.7511 805.5,-85.7511 812.5,-85.751"/>
</g>
<!-- Node15 -->
<g id="node15" class="node"><title>Node15</title>
<polygon fill="none" stroke="#bfbfbf" points="804.5,-0.5 804.5,-19.5 863.5,-19.5 863.5,-0.5 804.5,-0.5"/>
<text text-anchor="middle" x="834" y="-7.5" font-family="Helvetica,sans-Serif" font-size="10.00">TObject.h</text>
</g>
<!-- Node12&#45;&gt;Node15 -->
<g id="edge14" class="edge"><title>Node12&#45;&gt;Node15</title>
<path fill="none" stroke="midnightblue" d="M801.107,-112.488C790.511,-99.9749 774.001,-75.9408 783,-56 788.616,-43.5553 799.563,-33.1723 809.879,-25.5273"/>
<polygon fill="midnightblue" stroke="midnightblue" points="812.006,-28.3123 818.266,-19.7643 808.042,-22.5431 812.006,-28.3123"/>
</g>
<!-- Node16 -->
<g id="node16" class="node"><title>Node16</title>
<g id="a_node16"><a xlink:href="Quality_8h.html" target="_top" xlink:title="QualityControl/Quality.h">
<polygon fill="none" stroke="black" points="917.5,-56.5 917.5,-75.5 1038.5,-75.5 1038.5,-56.5 917.5,-56.5"/>
<text text-anchor="middle" x="978" y="-63.5" font-family="Helvetica,sans-Serif" font-size="10.00">QualityControl/Quality.h</text>
</a>
</g>
</g>
<!-- Node12&#45;&gt;Node16 -->
<g id="edge16" class="edge"><title>Node12&#45;&gt;Node16</title>
<path fill="none" stroke="midnightblue" d="M835.779,-112.444C864.333,-103.32 909.733,-88.8133 941.537,-78.6509"/>
<polygon fill="midnightblue" stroke="midnightblue" points="942.886,-81.8941 951.347,-75.5164 940.756,-75.2262 942.886,-81.8941"/>
</g>
<!-- Node16&#45;&gt;Node15 -->
<g id="edge17" class="edge"><title>Node16&#45;&gt;Node15</title>
<path fill="none" stroke="midnightblue" d="M955.183,-56.4435C931.168,-47.4381 893.171,-33.1891 866.131,-23.049"/>
<polygon fill="midnightblue" stroke="midnightblue" points="867.303,-19.7506 856.71,-19.5164 864.845,-26.3049 867.303,-19.7506"/>
</g>
<!-- Node17 -->
<g id="node17" class="node"><title>Node17</title>
<polygon fill="none" stroke="#bfbfbf" points="952,-0.5 952,-19.5 1004,-19.5 1004,-0.5 952,-0.5"/>
<text text-anchor="middle" x="978" y="-7.5" font-family="Helvetica,sans-Serif" font-size="10.00">ostream</text>
</g>
<!-- Node16&#45;&gt;Node17 -->
<g id="edge18" class="edge"><title>Node16&#45;&gt;Node17</title>
<path fill="none" stroke="midnightblue" d="M978,-56.083C978,-49.0059 978,-38.8611 978,-29.9865"/>
<polygon fill="midnightblue" stroke="midnightblue" points="981.5,-29.751 978,-19.7511 974.5,-29.7511 981.5,-29.751"/>
</g>
<!-- Node18 -->
<g id="node18" class="node"><title>Node18</title>
<polygon fill="none" stroke="#bfbfbf" points="1248.5,-0.5 1248.5,-19.5 1289.5,-19.5 1289.5,-0.5 1248.5,-0.5"/>
<text text-anchor="middle" x="1269" y="-7.5" font-family="Helvetica,sans-Serif" font-size="10.00">string</text>
</g>
<!-- Node16&#45;&gt;Node18 -->
<g id="edge19" class="edge"><title>Node16&#45;&gt;Node18</title>
<path fill="none" stroke="midnightblue" d="M1024.11,-56.4435C1083.96,-45.3378 1186.78,-26.2573 1238.05,-16.7433"/>
<polygon fill="midnightblue" stroke="midnightblue" points="1238.98,-20.1304 1248.17,-14.8646 1237.7,-13.2479 1238.98,-20.1304"/>
</g>
<!-- Node22&#45;&gt;Node13 -->
<g id="edge40" class="edge"><title>Node22&#45;&gt;Node13</title>
<path fill="none" stroke="midnightblue" d="M1094.74,-280.202C1084.53,-266.432 1062.99,-239.738 1039,-224 1000.2,-198.55 976.421,-217.974 941,-188 932.172,-180.529 898.009,-116.659 881.303,-84.8498"/>
<polygon fill="midnightblue" stroke="midnightblue" points="884.285,-82.9984 876.547,-75.7609 878.083,-86.2439 884.285,-82.9984"/>
</g>
<!-- Node23 -->
<g id="node23" class="node"><title>Node23</title>
<g id="a_node23"><a xlink:href="TaskInterface_8h.html" target="_top" xlink:title="TaskInterface.h">
<polygon fill="none" stroke="black" points="1100.5,-224.5 1100.5,-243.5 1185.5,-243.5 1185.5,-224.5 1100.5,-224.5"/>
<text text-anchor="middle" x="1143" y="-231.5" font-family="Helvetica,sans-Serif" font-size="10.00">TaskInterface.h</text>
</a>
</g>
</g>
<!-- Node22&#45;&gt;Node23 -->
<g id="edge24" class="edge"><title>Node22&#45;&gt;Node23</title>
<path fill="none" stroke="midnightblue" d="M1107.94,-280.083C1113.93,-272.377 1122.75,-261.033 1130.05,-251.653"/>
<polygon fill="midnightblue" stroke="midnightblue" points="1132.82,-253.793 1136.19,-243.751 1127.29,-249.496 1132.82,-253.793"/>
</g>
<!-- Node33 -->
<g id="node33" class="node"><title>Node33</title>
<polygon fill="none" stroke="#bfbfbf" points="1204,-224.5 1204,-243.5 1334,-243.5 1334,-224.5 1204,-224.5"/>
<text text-anchor="middle" x="1269" y="-231.5" font-family="Helvetica,sans-Serif" font-size="10.00">InfoLogger/InfoLogger.hxx</text>
</g>
<!-- Node22&#45;&gt;Node33 -->
<g id="edge39" class="edge"><title>Node22&#45;&gt;Node33</title>
<path fill="none" stroke="midnightblue" d="M1127.62,-280.444C1156.01,-271.32 1201.14,-256.813 1232.75,-246.651"/>
<polygon fill="midnightblue" stroke="midnightblue" points="1234.06,-249.909 1242.5,-243.516 1231.91,-243.244 1234.06,-249.909"/>
</g>
<!-- Node23&#45;&gt;Node19 -->
<g id="edge25" class="edge"><title>Node23&#45;&gt;Node19</title>
<path fill="none" stroke="midnightblue" d="M1100.48,-224.681C1046.44,-214.108 954.086,-196.039 903.234,-186.089"/>
<polygon fill="midnightblue" stroke="midnightblue" points="903.827,-182.639 893.341,-184.154 902.483,-189.509 903.827,-182.639"/>
</g>
<!-- Node24 -->
<g id="node24" class="node"><title>Node24</title>
<polygon fill="none" stroke="#bfbfbf" points="1269.5,-168.5 1269.5,-187.5 1318.5,-187.5 1318.5,-168.5 1269.5,-168.5"/>
<text text-anchor="middle" x="1294" y="-175.5" font-family="Helvetica,sans-Serif" font-size="10.00">cassert</text>
</g>
<!-- Node23&#45;&gt;Node24 -->
<g id="edge26" class="edge"><title>Node23&#45;&gt;Node24</title>
<path fill="none" stroke="midnightblue" d="M1166.93,-224.444C1192.22,-215.399 1232.3,-201.064 1260.68,-190.916"/>
<polygon fill="midnightblue" stroke="midnightblue" points="1261.95,-194.179 1270.19,-187.516 1259.59,-187.588 1261.95,-194.179"/>
</g>
<!-- Node25 -->
<g id="node25" class="node"><title>Node25</title>
<polygon fill="none" stroke="#bfbfbf" points="1336.5,-168.5 1336.5,-187.5 1461.5,-187.5 1461.5,-168.5 1336.5,-168.5"/>
<text text-anchor="middle" x="1399" y="-175.5" font-family="Helvetica,sans-Serif" font-size="10.00">Framework/InitContext.h</text>
</g>
<!-- Node23&#45;&gt;Node25 -->
<g id="edge27" class="edge"><title>Node23&#45;&gt;Node25</title>
<path fill="none" stroke="midnightblue" d="M1183.56,-224.444C1228.32,-215.004 1300.38,-199.802 1348.7,-189.611"/>
<polygon fill="midnightblue" stroke="midnightblue" points="1349.56,-193.005 1358.63,-187.516 1348.12,-186.156 1349.56,-193.005"/>
</g>
<!-- Node26 -->
<g id="node26" class="node"><title>Node26</title>
<polygon fill="none" stroke="#bfbfbf" points="1480,-168.5 1480,-187.5 1640,-187.5 1640,-168.5 1480,-168.5"/>
<text text-anchor="middle" x="1560" y="-175.5" font-family="Helvetica,sans-Serif" font-size="10.00">Framework/ProcessingContext.h</text>
</g>
<!-- Node23&#45;&gt;Node26 -->
<g id="edge28" class="edge"><title>Node23&#45;&gt;Node26</title>
<path fill="none" stroke="midnightblue" d="M1185.54,-225.464C1188.74,-224.95 1191.92,-224.456 1195,-224 1289.25,-210.042 1397.65,-197.066 1471.67,-188.67"/>
<polygon fill="midnightblue" stroke="midnightblue" points="1472.34,-192.116 1481.89,-187.516 1471.56,-185.161 1472.34,-192.116"/>
</g>
<!-- Node27 -->
<g id="node27" class="node"><title>Node27</title>
<g id="a_node27"><a xlink:href="Activity_8h.html" target="_top" xlink:title="QualityControl/Activity.h">
<polygon fill="none" stroke="black" points="949.5,-168.5 949.5,-187.5 1072.5,-187.5 1072.5,-168.5 949.5,-168.5"/>
<text text-anchor="middle" x="1011" y="-175.5" font-family="Helvetica,sans-Serif" font-size="10.00">QualityControl/Activity.h</text>
</a>
</g>
</g>
<!-- Node23&#45;&gt;Node27 -->
<g id="edge29" class="edge"><title>Node23&#45;&gt;Node27</title>
<path fill="none" stroke="midnightblue" d="M1122.08,-224.444C1100.26,-215.517 1065.85,-201.439 1041.11,-191.317"/>
<polygon fill="midnightblue" stroke="midnightblue" points="1042.4,-188.063 1031.82,-187.516 1039.75,-194.542 1042.4,-188.063"/>
</g>
<!-- Node28 -->
<g id="node28" class="node"><title>Node28</title>
<g id="a_node28"><a xlink:href="ObjectsManager_8h.html" target="_top" xlink:title="QualityControl/ObjectsManager.h">
<polygon fill="none" stroke="black" points="1090.5,-168.5 1090.5,-187.5 1251.5,-187.5 1251.5,-168.5 1090.5,-168.5"/>
<text text-anchor="middle" x="1171" y="-175.5" font-family="Helvetica,sans-Serif" font-size="10.00">QualityControl/ObjectsManager.h</text>
</a>
</g>
</g>
<!-- Node23&#45;&gt;Node28 -->
<g id="edge30" class="edge"><title>Node23&#45;&gt;Node28</title>
<path fill="none" stroke="midnightblue" d="M1147.62,-224.083C1151.46,-216.691 1157.02,-205.953 1161.76,-196.811"/>
<polygon fill="midnightblue" stroke="midnightblue" points="1164.97,-198.24 1166.46,-187.751 1158.75,-195.018 1164.97,-198.24"/>
</g>
<!-- Node28&#45;&gt;Node12 -->
<g id="edge31" class="edge"><title>Node28&#45;&gt;Node12</title>
<path fill="none" stroke="midnightblue" d="M1113.64,-168.444C1049.17,-158.826 944.599,-143.228 876.311,-133.041"/>
<polygon fill="midnightblue" stroke="midnightblue" points="876.499,-129.53 866.092,-131.516 875.466,-136.454 876.499,-129.53"/>
</g>
<!-- Node28&#45;&gt;Node16 -->
<g id="edge32" class="edge"><title>Node28&#45;&gt;Node16</title>
<path fill="none" stroke="midnightblue" d="M1104.26,-168.448C1058.66,-161.191 1003.74,-149.196 988,-132 976.808,-119.772 975.095,-100.507 975.708,-86.1197"/>
<polygon fill="midnightblue" stroke="midnightblue" points="979.221,-86.1109 976.562,-75.8551 972.245,-85.5303 979.221,-86.1109"/>
</g>
<!-- Node28&#45;&gt;Node18 -->
<g id="edge38" class="edge"><title>Node28&#45;&gt;Node18</title>
<path fill="none" stroke="midnightblue" d="M1249.66,-168.462C1276.55,-162.1 1305.09,-151.073 1326,-132 1351.98,-108.302 1365.67,-86.4021 1348,-56 1337.59,-38.0899 1317.09,-26.7164 1299.58,-19.8846"/>
<polygon fill="midnightblue" stroke="midnightblue" points="1300.31,-16.4296 1289.72,-16.3719 1297.96,-23.0239 1300.31,-16.4296"/>
</g>
<!-- Node29 -->
<g id="node29" class="node"><title>Node29</title>
<g id="a_node29"><a xlink:href="TaskConfig_8h.html" target="_top" xlink:title="QualityControl/TaskConfig.h">
<polygon fill="none" stroke="black" points="1199,-56.5 1199,-75.5 1339,-75.5 1339,-56.5 1199,-56.5"/>
<text text-anchor="middle" x="1269" y="-63.5" font-family="Helvetica,sans-Serif" font-size="10.00">QualityControl/TaskConfig.h</text>
</a>
</g>
</g>
<!-- Node28&#45;&gt;Node29 -->
<g id="edge33" class="edge"><title>Node28&#45;&gt;Node29</title>
<path fill="none" stroke="midnightblue" d="M1251.78,-168.599C1274.22,-162.112 1296.2,-150.974 1310,-132 1322.03,-115.461 1304.95,-95.4248 1289.32,-82.0085"/>
<polygon fill="midnightblue" stroke="midnightblue" points="1291.41,-79.2024 1281.43,-75.6497 1287.02,-84.6515 1291.41,-79.2024"/>
</g>
<!-- Node30 -->
<g id="node30" class="node"><title>Node30</title>
<polygon fill="none" stroke="#bfbfbf" points="996.5,-112.5 996.5,-131.5 1065.5,-131.5 1065.5,-112.5 996.5,-112.5"/>
<text text-anchor="middle" x="1031" y="-119.5" font-family="Helvetica,sans-Serif" font-size="10.00">TObjArray.h</text>
</g>
<!-- Node28&#45;&gt;Node30 -->
<g id="edge35" class="edge"><title>Node28&#45;&gt;Node30</title>
<path fill="none" stroke="midnightblue" d="M1148.82,-168.444C1125.57,-159.478 1088.85,-145.314 1062.58,-135.183"/>
<polygon fill="midnightblue" stroke="midnightblue" points="1063.67,-131.85 1053.08,-131.516 1061.15,-138.381 1063.67,-131.85"/>
</g>
<!-- Node31 -->
<g id="node31" class="node"><title>Node31</title>
<polygon fill="none" stroke="#bfbfbf" points="1083.5,-112.5 1083.5,-131.5 1154.5,-131.5 1154.5,-112.5 1083.5,-112.5"/>
<text text-anchor="middle" x="1119" y="-119.5" font-family="Helvetica,sans-Serif" font-size="10.00">TObjString.h</text>
</g>
<!-- Node28&#45;&gt;Node31 -->
<g id="edge36" class="edge"><title>Node28&#45;&gt;Node31</title>
<path fill="none" stroke="midnightblue" d="M1162.41,-168.083C1154.84,-160.22 1143.62,-148.569 1134.49,-139.081"/>
<polygon fill="midnightblue" stroke="midnightblue" points="1136.88,-136.527 1127.43,-131.751 1131.84,-141.382 1136.88,-136.527"/>
</g>
<!-- Node32 -->
<g id="node32" class="node"><title>Node32</title>
<polygon fill="none" stroke="#bfbfbf" points="1173,-112.5 1173,-131.5 1301,-131.5 1301,-112.5 1173,-112.5"/>
<text text-anchor="middle" x="1237" y="-119.5" font-family="Helvetica,sans-Serif" font-size="10.00">boost/concept_check.hpp</text>
</g>
<!-- Node28&#45;&gt;Node32 -->
<g id="edge37" class="edge"><title>Node28&#45;&gt;Node32</title>
<path fill="none" stroke="midnightblue" d="M1181.6,-168.324C1191.46,-160.263 1206.35,-148.077 1218.22,-138.369"/>
<polygon fill="midnightblue" stroke="midnightblue" points="1220.68,-140.875 1226.2,-131.834 1216.25,-135.457 1220.68,-140.875"/>
</g>
<!-- Node29&#45;&gt;Node18 -->
<g id="edge34" class="edge"><title>Node29&#45;&gt;Node18</title>
<path fill="none" stroke="midnightblue" d="M1269,-56.083C1269,-49.0059 1269,-38.8611 1269,-29.9865"/>
<polygon fill="midnightblue" stroke="midnightblue" points="1272.5,-29.751 1269,-19.7511 1265.5,-29.7511 1272.5,-29.751"/>
</g>
</g>
</svg>
        <g id="navigator" transform="translate(0 0)" fill="#404254">
                <rect fill="#f2f5e9" fill-opacity="0.5" stroke="#606060" stroke-width=".5" x="0" y="0" width="60" height="60"/>
                <use id="zoomplus" xlink:href="#zoomPlus" x="17" y="9" onmousedown="handleZoom(evt,'in')"/>
                <use id="zoomminus" xlink:href="#zoomMin" x="42" y="9" onmousedown="handleZoom(evt,'out')"/>
                <use id="reset" xlink:href="#resetDef" x="30" y="36" onmousedown="handleReset()"/>
                <g id="arrowUp" xlink:href="#dirArrow" transform="translate(30 24)" onmousedown="handlePan(0,-1)">
                  <use xlink:href="#rim" fill="#404040">
                        <set attributeName="fill" to="#808080" begin="arrowUp.mouseover" end="arrowUp.mouseout"/>
                  </use>
                  <path fill="none" stroke="white" stroke-width="1.5" d="M0,-3.0v7 M-2.5,-0.5L0,-3.0L2.5,-0.5"/>
                </g>
                <g id="arrowRight" xlink:href="#dirArrow" transform="rotate(90) translate(36 -43)" onmousedown="handlePan(1,0)">
                  <use xlink:href="#rim" fill="#404040">
                        <set attributeName="fill" to="#808080" begin="arrowRight.mouseover" end="arrowRight.mouseout"/>
                  </use>
                  <path fill="none" stroke="white" stroke-width="1.5" d="M0,-3.0v7 M-2.5,-0.5L0,-3.0L2.5,-0.5"/>
                </g>
                <g id="arrowDown" xlink:href="#dirArrow" transform="rotate(180) translate(-30 -48)" onmousedown="handlePan(0,1)">
                  <use xlink:href="#rim" fill="#404040">
                        <set attributeName="fill" to="#808080" begin="arrowDown.mouseover" end="arrowDown.mouseout"/>
                  </use>
                  <path fill="none" stroke="white" stroke-width="1.5" d="M0,-3.0v7 M-2.5,-0.5L0,-3.0L2.5,-0.5"/>
                </g>
                <g id="arrowLeft" xlink:href="#dirArrow" transform="rotate(270) translate(-36 17)" onmousedown="handlePan(-1,0)">
                  <use xlink:href="#rim" fill="#404040">
                        <set attributeName="fill" to="#808080" begin="arrowLeft.mouseover" end="arrowLeft.mouseout"/>
                  </use>
                  <path fill="none" stroke="white" stroke-width="1.5" d="M0,-3.0v7 M-2.5,-0.5L0,-3.0L2.5,-0.5"/>
                </g>
        </g>
        <svg viewBox="0 0 15 15" width="100%" height="30px" preserveAspectRatio="xMaxYMin meet">
         <g id="arrow_out" transform="scale(0.3 0.3)">
          <a xlink:href="MySqlDatabase_8cxx__incl_org.svg" target="_base">
           <rect id="button" ry="5" rx="5" y="6" x="6" height="38" width="38"
                fill="#f2f5e9" fill-opacity="0.5" stroke="#606060" stroke-width="1.0"/>
           <path id="arrow"
             d="M 11.500037,31.436501 C 11.940474,20.09759 22.043105,11.32322 32.158766,21.979434 L 37.068811,17.246167 C 37.068811,17.246167 37.088388,32 37.088388,32 L 22.160133,31.978069 C 22.160133,31.978069 26.997745,27.140456 26.997745,27.140456 C 18.528582,18.264221 13.291696,25.230495 11.500037,31.436501 z"
             style="fill:#404040;"/>
          </a>
         </g>
        </svg>
</svg>
