<?xml version="1.0" encoding="UTF-8" standalone="no"?>
<!DOCTYPE svg PUBLIC "-//W3C//DTD SVG 1.1//EN"
 "http://www.w3.org/Graphics/SVG/1.1/DTD/svg11.dtd">
<!-- Generated by graphviz version 2.38.0 (20140413.2041)
 -->
<!-- Title: Framework/src/ObjectsManager.cxx Pages: 1 -->
<!--zoomable 364 -->
<svg id="main" version="1.1" xmlns="http://www.w3.org/2000/svg" xmlns:xlink="http://www.w3.org/1999/xlink" xml:space="preserve" onload="init(evt)">
<style type="text/css"><![CDATA[
.edge:hover path { stroke: red; }
.edge:hover polygon { stroke: red; fill: red; }
]]></style>
<script type="text/javascript"><![CDATA[
var edges = document.getElementsByTagName('g');
if (edges && edges.length) {
  for (var i=0;i<edges.length;i++) {
    if (edges[i].id.substr(0,4)=='edge') {
      edges[i].setAttribute('class','edge');
    }
  }
}
]]></script>
        <defs>
                <circle id="rim" cx="0" cy="0" r="7"/>
                <circle id="rim2" cx="0" cy="0" r="3.5"/>
                <g id="zoomPlus">
                        <use xlink:href="#rim" fill="#404040">
                                <set attributeName="fill" to="#808080" begin="zoomplus.mouseover" end="zoomplus.mouseout"/>
                        </use>
                        <path d="M-4,0h8M0,-4v8" fill="none" stroke="white" stroke-width="1.5" pointer-events="none"/>
                </g>
                <g id="zoomMin">
                        <use xlink:href="#rim" fill="#404040">
                                <set attributeName="fill" to="#808080" begin="zoomminus.mouseover" end="zoomminus.mouseout"/>
                        </use>
                        <path d="M-4,0h8" fill="none" stroke="white" stroke-width="1.5" pointer-events="none"/>
                </g>
                <g id="dirArrow">
                        <path fill="none" stroke="white" stroke-width="1.5" d="M0,-3.0v7 M-2.5,-0.5L0,-3.0L2.5,-0.5"/>
                </g>
               <g id="resetDef">
                       <use xlink:href="#rim2" fill="#404040">
                               <set attributeName="fill" to="#808080" begin="reset.mouseover" end="reset.mouseout"/>
                       </use>
               </g>
        </defs>

<script type="text/javascript">
var viewWidth = 1384;
var viewHeight = 364;
var sectionId = 'dynsection-0';
</script>
<script xlink:href="svgpan.js"/>
<svg id="graph" class="graph">
<g id="viewport">
<title>Framework/src/ObjectsManager.cxx</title>
<!-- Node1 -->
<g id="node1" class="node"><title>Node1</title>
<polygon fill="#bfbfbf" stroke="black" points="649.5,-336.5 649.5,-355.5 824.5,-355.5 824.5,-336.5 649.5,-336.5"/>
<text text-anchor="middle" x="737" y="-343.5" font-family="Helvetica,sans-Serif" font-size="10.00">Framework/src/ObjectsManager.cxx</text>
</g>
<!-- Node2 -->
<g id="node2" class="node"><title>Node2</title>
<g id="a_node2"><a xlink:href="ObjectsManager_8h.html" target="_top" xlink:title="QualityControl/ObjectsManager.h">
<polygon fill="none" stroke="black" points="276.5,-168.5 276.5,-187.5 437.5,-187.5 437.5,-168.5 276.5,-168.5"/>
<text text-anchor="middle" x="357" y="-175.5" font-family="Helvetica,sans-Serif" font-size="10.00">QualityControl/ObjectsManager.h</text>
</a>
</g>
</g>
<!-- Node1&#45;&gt;Node2 -->
<g id="edge1" class="edge"><title>Node1&#45;&gt;Node2</title>
<path fill="none" stroke="midnightblue" d="M717.37,-336.425C654.827,-309.103 460.015,-224.001 385.962,-191.652"/>
<polygon fill="midnightblue" stroke="midnightblue" points="387.306,-188.42 376.741,-187.624 384.504,-194.834 387.306,-188.42"/>
</g>
<!-- Node7 -->
<g id="node7" class="node"><title>Node7</title>
<polygon fill="none" stroke="#bfbfbf" points="1037,-56.5 1037,-75.5 1153,-75.5 1153,-56.5 1037,-56.5"/>
<text text-anchor="middle" x="1095" y="-63.5" font-family="Helvetica,sans-Serif" font-size="10.00">Common/Exceptions.h</text>
</g>
<!-- Node1&#45;&gt;Node7 -->
<g id="edge18" class="edge"><title>Node1&#45;&gt;Node7</title>
<path fill="none" stroke="midnightblue" d="M824.51,-338.897C999.516,-325.515 1376,-290.3 1376,-235 1376,-235 1376,-235 1376,-177 1376,-129.537 1235.23,-94.1558 1152.96,-77.5307"/>
<polygon fill="midnightblue" stroke="midnightblue" points="1153.48,-74.0648 1142.99,-75.5488 1152.11,-80.9306 1153.48,-74.0648"/>
</g>
<!-- Node15 -->
<g id="node15" class="node"><title>Node15</title>
<g id="a_node15"><a xlink:href="QcInfoLogger_8h.html" target="_top" xlink:title="QualityControl/QcInfoLogger.h">
<polygon fill="none" stroke="black" points="662.5,-280.5 662.5,-299.5 811.5,-299.5 811.5,-280.5 662.5,-280.5"/>
<text text-anchor="middle" x="737" y="-287.5" font-family="Helvetica,sans-Serif" font-size="10.00">QualityControl/QcInfoLogger.h</text>
</a>
</g>
</g>
<!-- Node1&#45;&gt;Node15 -->
<g id="edge19" class="edge"><title>Node1&#45;&gt;Node15</title>
<path fill="none" stroke="midnightblue" d="M737,-336.083C737,-329.006 737,-318.861 737,-309.986"/>
<polygon fill="midnightblue" stroke="midnightblue" points="740.5,-309.751 737,-299.751 733.5,-309.751 740.5,-309.751"/>
</g>
<!-- Node3 -->
<g id="node3" class="node"><title>Node3</title>
<g id="a_node3"><a xlink:href="MonitorObject_8h.html" target="_top" xlink:title="QualityControl/MonitorObject.h">
<polygon fill="none" stroke="black" points="557.5,-112.5 557.5,-131.5 708.5,-131.5 708.5,-112.5 557.5,-112.5"/>
<text text-anchor="middle" x="633" y="-119.5" font-family="Helvetica,sans-Serif" font-size="10.00">QualityControl/MonitorObject.h</text>
</a>
</g>
</g>
<!-- Node2&#45;&gt;Node3 -->
<g id="edge2" class="edge"><title>Node2&#45;&gt;Node3</title>
<path fill="none" stroke="midnightblue" d="M400.733,-168.444C449.183,-158.964 527.329,-143.675 579.418,-133.483"/>
<polygon fill="midnightblue" stroke="midnightblue" points="580.33,-136.871 589.472,-131.516 578.986,-130.002 580.33,-136.871"/>
</g>
<!-- Node8 -->
<g id="node8" class="node"><title>Node8</title>
<g id="a_node8"><a xlink:href="Quality_8h.html" target="_top" xlink:title="QualityControl/Quality.h">
<polygon fill="none" stroke="black" points="313.5,-56.5 313.5,-75.5 434.5,-75.5 434.5,-56.5 313.5,-56.5"/>
<text text-anchor="middle" x="374" y="-63.5" font-family="Helvetica,sans-Serif" font-size="10.00">QualityControl/Quality.h</text>
</a>
</g>
</g>
<!-- Node2&#45;&gt;Node8 -->
<g id="edge11" class="edge"><title>Node2&#45;&gt;Node8</title>
<path fill="none" stroke="midnightblue" d="M295.204,-168.441C250.748,-159.563 202.308,-142.557 225,-112 243.158,-87.5479 274.21,-75.9043 303.282,-70.5304"/>
<polygon fill="midnightblue" stroke="midnightblue" points="304.147,-73.9359 313.458,-68.8803 303.026,-67.0261 304.147,-73.9359"/>
</g>
<!-- Node10 -->
<g id="node10" class="node"><title>Node10</title>
<polygon fill="none" stroke="#bfbfbf" points="147.5,-0.5 147.5,-19.5 188.5,-19.5 188.5,-0.5 147.5,-0.5"/>
<text text-anchor="middle" x="168" y="-7.5" font-family="Helvetica,sans-Serif" font-size="10.00">string</text>
</g>
<!-- Node2&#45;&gt;Node10 -->
<g id="edge17" class="edge"><title>Node2&#45;&gt;Node10</title>
<path fill="none" stroke="midnightblue" d="M291.17,-168.433C265.074,-162.108 236.473,-151.113 216,-132 186.5,-104.461 174.8,-56.4651 170.421,-29.9522"/>
<polygon fill="midnightblue" stroke="midnightblue" points="173.836,-29.1166 168.924,-19.7292 166.91,-30.1308 173.836,-29.1166"/>
</g>
<!-- Node11 -->
<g id="node11" class="node"><title>Node11</title>
<g id="a_node11"><a xlink:href="TaskConfig_8h.html" target="_top" xlink:title="QualityControl/TaskConfig.h">
<polygon fill="none" stroke="black" points="0,-56.5 0,-75.5 140,-75.5 140,-56.5 0,-56.5"/>
<text text-anchor="middle" x="70" y="-63.5" font-family="Helvetica,sans-Serif" font-size="10.00">QualityControl/TaskConfig.h</text>
</a>
</g>
</g>
<!-- Node2&#45;&gt;Node11 -->
<g id="edge12" class="edge"><title>Node2&#45;&gt;Node11</title>
<path fill="none" stroke="midnightblue" d="M282.11,-168.443C242.636,-161.971 194.203,-150.846 154,-132 127.555,-119.603 101.678,-97.6641 85.7894,-82.7362"/>
<polygon fill="midnightblue" stroke="midnightblue" points="88.0711,-80.0743 78.4412,-75.6566 83.2143,-85.1154 88.0711,-80.0743"/>
</g>
<!-- Node12 -->
<g id="node12" class="node"><title>Node12</title>
<polygon fill="none" stroke="#bfbfbf" points="234.5,-112.5 234.5,-131.5 303.5,-131.5 303.5,-112.5 234.5,-112.5"/>
<text text-anchor="middle" x="269" y="-119.5" font-family="Helvetica,sans-Serif" font-size="10.00">TObjArray.h</text>
</g>
<!-- Node2&#45;&gt;Node12 -->
<g id="edge14" class="edge"><title>Node2&#45;&gt;Node12</title>
<path fill="none" stroke="midnightblue" d="M342.861,-168.324C329.134,-159.9 308.064,-146.971 291.936,-137.074"/>
<polygon fill="midnightblue" stroke="midnightblue" points="293.457,-133.902 283.104,-131.655 289.796,-139.868 293.457,-133.902"/>
</g>
<!-- Node13 -->
<g id="node13" class="node"><title>Node13</title>
<polygon fill="none" stroke="#bfbfbf" points="321.5,-112.5 321.5,-131.5 392.5,-131.5 392.5,-112.5 321.5,-112.5"/>
<text text-anchor="middle" x="357" y="-119.5" font-family="Helvetica,sans-Serif" font-size="10.00">TObjString.h</text>
</g>
<!-- Node2&#45;&gt;Node13 -->
<g id="edge15" class="edge"><title>Node2&#45;&gt;Node13</title>
<path fill="none" stroke="midnightblue" d="M357,-168.083C357,-161.006 357,-150.861 357,-141.986"/>
<polygon fill="midnightblue" stroke="midnightblue" points="360.5,-141.751 357,-131.751 353.5,-141.751 360.5,-141.751"/>
</g>
<!-- Node14 -->
<g id="node14" class="node"><title>Node14</title>
<polygon fill="none" stroke="#bfbfbf" points="411,-112.5 411,-131.5 539,-131.5 539,-112.5 411,-112.5"/>
<text text-anchor="middle" x="475" y="-119.5" font-family="Helvetica,sans-Serif" font-size="10.00">boost/concept_check.hpp</text>
</g>
<!-- Node2&#45;&gt;Node14 -->
<g id="edge16" class="edge"><title>Node2&#45;&gt;Node14</title>
<path fill="none" stroke="midnightblue" d="M375.697,-168.444C394.944,-159.636 425.152,-145.812 447.2,-135.722"/>
<polygon fill="midnightblue" stroke="midnightblue" points="448.753,-138.86 456.39,-131.516 445.84,-132.495 448.753,-138.86"/>
</g>
<!-- Node4 -->
<g id="node4" class="node"><title>Node4</title>
<polygon fill="none" stroke="#bfbfbf" points="685,-56.5 685,-75.5 739,-75.5 739,-56.5 685,-56.5"/>
<text text-anchor="middle" x="712" y="-63.5" font-family="Helvetica,sans-Serif" font-size="10.00">iostream</text>
</g>
<!-- Node3&#45;&gt;Node4 -->
<g id="edge3" class="edge"><title>Node3&#45;&gt;Node4</title>
<path fill="none" stroke="midnightblue" d="M645.693,-112.324C657.901,-103.979 676.578,-91.2122 691.003,-81.3524"/>
<polygon fill="midnightblue" stroke="midnightblue" points="693.058,-84.1871 699.339,-75.6545 689.108,-78.4082 693.058,-84.1871"/>
</g>
<!-- Node5 -->
<g id="node5" class="node"><title>Node5</title>
<polygon fill="none" stroke="#bfbfbf" points="569.5,-56.5 569.5,-75.5 604.5,-75.5 604.5,-56.5 569.5,-56.5"/>
<text text-anchor="middle" x="587" y="-63.5" font-family="Helvetica,sans-Serif" font-size="10.00">map</text>
</g>
<!-- Node3&#45;&gt;Node5 -->
<g id="edge4" class="edge"><title>Node3&#45;&gt;Node5</title>
<path fill="none" stroke="midnightblue" d="M625.404,-112.083C618.773,-104.298 608.979,-92.8015 600.942,-83.3665"/>
<polygon fill="midnightblue" stroke="midnightblue" points="603.604,-81.0939 594.455,-75.7511 598.275,-85.6332 603.604,-81.0939"/>
</g>
<!-- Node6 -->
<g id="node6" class="node"><title>Node6</title>
<polygon fill="none" stroke="#bfbfbf" points="510.5,-0.5 510.5,-19.5 569.5,-19.5 569.5,-0.5 510.5,-0.5"/>
<text text-anchor="middle" x="540" y="-7.5" font-family="Helvetica,sans-Serif" font-size="10.00">TObject.h</text>
</g>
<!-- Node3&#45;&gt;Node6 -->
<g id="edge5" class="edge"><title>Node3&#45;&gt;Node6</title>
<path fill="none" stroke="midnightblue" d="M632.249,-112.107C630.71,-98.679 626.148,-72.9963 613,-56 602.239,-42.0899 585.866,-31.4357 571.351,-23.9942"/>
<polygon fill="midnightblue" stroke="midnightblue" points="572.687,-20.7529 562.159,-19.5662 569.649,-27.0593 572.687,-20.7529"/>
</g>
<!-- Node3&#45;&gt;Node7 -->
<g id="edge6" class="edge"><title>Node3&#45;&gt;Node7</title>
<path fill="none" stroke="midnightblue" d="M705.95,-112.473C793.914,-102.192 940.618,-85.0447 1026.53,-75.0032"/>
<polygon fill="midnightblue" stroke="midnightblue" points="1027.17,-78.4521 1036.7,-73.8148 1026.36,-71.4994 1027.17,-78.4521"/>
</g>
<!-- Node3&#45;&gt;Node8 -->
<g id="edge7" class="edge"><title>Node3&#45;&gt;Node8</title>
<path fill="none" stroke="midnightblue" d="M591.961,-112.444C546.684,-103.004 473.773,-87.802 424.894,-77.6111"/>
<polygon fill="midnightblue" stroke="midnightblue" points="425.351,-74.1312 414.847,-75.5164 423.922,-80.9839 425.351,-74.1312"/>
</g>
<!-- Node8&#45;&gt;Node6 -->
<g id="edge8" class="edge"><title>Node8&#45;&gt;Node6</title>
<path fill="none" stroke="midnightblue" d="M400.303,-56.4435C428.351,-47.3196 472.944,-32.8133 504.184,-22.6509"/>
<polygon fill="midnightblue" stroke="midnightblue" points="505.393,-25.9383 513.82,-19.5164 503.228,-19.2816 505.393,-25.9383"/>
</g>
<!-- Node9 -->
<g id="node9" class="node"><title>Node9</title>
<polygon fill="none" stroke="#bfbfbf" points="348,-0.5 348,-19.5 400,-19.5 400,-0.5 348,-0.5"/>
<text text-anchor="middle" x="374" y="-7.5" font-family="Helvetica,sans-Serif" font-size="10.00">ostream</text>
</g>
<!-- Node8&#45;&gt;Node9 -->
<g id="edge9" class="edge"><title>Node8&#45;&gt;Node9</title>
<path fill="none" stroke="midnightblue" d="M374,-56.083C374,-49.0059 374,-38.8611 374,-29.9865"/>
<polygon fill="midnightblue" stroke="midnightblue" points="377.5,-29.751 374,-19.7511 370.5,-29.7511 377.5,-29.751"/>
</g>
<!-- Node8&#45;&gt;Node10 -->
<g id="edge10" class="edge"><title>Node8&#45;&gt;Node10</title>
<path fill="none" stroke="midnightblue" d="M341.359,-56.4435C302.16,-46.1681 236.919,-29.066 198.635,-19.0305"/>
<polygon fill="midnightblue" stroke="midnightblue" points="199.156,-15.549 188.596,-16.3989 197.381,-22.3202 199.156,-15.549"/>
</g>
<!-- Node11&#45;&gt;Node10 -->
<g id="edge13" class="edge"><title>Node11&#45;&gt;Node10</title>
<path fill="none" stroke="midnightblue" d="M85.7454,-56.324C101.319,-47.7428 125.377,-34.486 143.459,-24.5224"/>
<polygon fill="midnightblue" stroke="midnightblue" points="145.224,-27.546 152.294,-19.6545 141.846,-21.4152 145.224,-27.546"/>
</g>
<!-- Node15&#45;&gt;Node4 -->
<g id="edge28" class="edge"><title>Node15&#45;&gt;Node4</title>
<path fill="none" stroke="midnightblue" d="M736.02,-280.297C732.341,-247.633 719.305,-131.866 714.135,-85.9573"/>
<polygon fill="midnightblue" stroke="midnightblue" points="717.598,-85.4292 713,-75.8837 710.642,-86.2126 717.598,-85.4292"/>
</g>
<!-- Node16 -->
<g id="node16" class="node"><title>Node16</title>
<g id="a_node16"><a xlink:href="TaskInterface_8h.html" target="_top" xlink:title="TaskInterface.h">
<polygon fill="none" stroke="black" points="962.5,-224.5 962.5,-243.5 1047.5,-243.5 1047.5,-224.5 962.5,-224.5"/>
<text text-anchor="middle" x="1005" y="-231.5" font-family="Helvetica,sans-Serif" font-size="10.00">TaskInterface.h</text>
</a>
</g>
</g>
<!-- Node15&#45;&gt;Node16 -->
<g id="edge20" class="edge"><title>Node15&#45;&gt;Node16</title>
<path fill="none" stroke="midnightblue" d="M779.465,-280.444C826.413,-270.984 902.076,-255.738 952.654,-245.547"/>
<polygon fill="midnightblue" stroke="midnightblue" points="953.622,-248.923 962.733,-243.516 952.239,-242.061 953.622,-248.923"/>
</g>
<!-- Node22 -->
<g id="node22" class="node"><title>Node22</title>
<polygon fill="none" stroke="#bfbfbf" points="579,-224.5 579,-243.5 709,-243.5 709,-224.5 579,-224.5"/>
<text text-anchor="middle" x="644" y="-231.5" font-family="Helvetica,sans-Serif" font-size="10.00">InfoLogger/InfoLogger.hxx</text>
</g>
<!-- Node15&#45;&gt;Node22 -->
<g id="edge27" class="edge"><title>Node15&#45;&gt;Node22</title>
<path fill="none" stroke="midnightblue" d="M722.058,-280.324C707.415,-271.822 684.866,-258.729 667.762,-248.797"/>
<polygon fill="midnightblue" stroke="midnightblue" points="669.31,-245.649 658.905,-243.655 665.795,-251.703 669.31,-245.649"/>
</g>
<!-- Node16&#45;&gt;Node2 -->
<g id="edge26" class="edge"><title>Node16&#45;&gt;Node2</title>
<path fill="none" stroke="midnightblue" d="M962.483,-229.457C858.476,-220.79 589.39,-198.366 447.554,-186.546"/>
<polygon fill="midnightblue" stroke="midnightblue" points="447.822,-183.056 437.566,-185.714 447.24,-190.032 447.822,-183.056"/>
</g>
<!-- Node17 -->
<g id="node17" class="node"><title>Node17</title>
<polygon fill="none" stroke="#bfbfbf" points="1085,-168.5 1085,-187.5 1137,-187.5 1137,-168.5 1085,-168.5"/>
<text text-anchor="middle" x="1111" y="-175.5" font-family="Helvetica,sans-Serif" font-size="10.00">memory</text>
</g>
<!-- Node16&#45;&gt;Node17 -->
<g id="edge21" class="edge"><title>Node16&#45;&gt;Node17</title>
<path fill="none" stroke="midnightblue" d="M1022.03,-224.324C1039.03,-215.664 1065.38,-202.242 1084.99,-192.249"/>
<polygon fill="midnightblue" stroke="midnightblue" points="1086.69,-195.312 1094.01,-187.655 1083.51,-189.075 1086.69,-195.312"/>
</g>
<!-- Node18 -->
<g id="node18" class="node"><title>Node18</title>
<polygon fill="none" stroke="#bfbfbf" points="1155.5,-168.5 1155.5,-187.5 1204.5,-187.5 1204.5,-168.5 1155.5,-168.5"/>
<text text-anchor="middle" x="1180" y="-175.5" font-family="Helvetica,sans-Serif" font-size="10.00">cassert</text>
</g>
<!-- Node16&#45;&gt;Node18 -->
<g id="edge22" class="edge"><title>Node16&#45;&gt;Node18</title>
<path fill="none" stroke="midnightblue" d="M1032.73,-224.444C1063.3,-215.011 1112.51,-199.824 1145.54,-189.634"/>
<polygon fill="midnightblue" stroke="midnightblue" points="1146.71,-192.936 1155.23,-186.643 1144.64,-186.248 1146.71,-192.936"/>
</g>
<!-- Node19 -->
<g id="node19" class="node"><title>Node19</title>
<polygon fill="none" stroke="#bfbfbf" points="1222.5,-168.5 1222.5,-187.5 1347.5,-187.5 1347.5,-168.5 1222.5,-168.5"/>
<text text-anchor="middle" x="1285" y="-175.5" font-family="Helvetica,sans-Serif" font-size="10.00">Framework/InitContext.h</text>
</g>
<!-- Node16&#45;&gt;Node19 -->
<g id="edge23" class="edge"><title>Node16&#45;&gt;Node19</title>
<path fill="none" stroke="midnightblue" d="M1047.53,-224.799C1096.54,-215.347 1177.18,-199.793 1230.69,-189.474"/>
<polygon fill="midnightblue" stroke="midnightblue" points="1231.53,-192.877 1240.68,-187.547 1230.2,-186.004 1231.53,-192.877"/>
</g>
<!-- Node20 -->
<g id="node20" class="node"><title>Node20</title>
<polygon fill="none" stroke="#bfbfbf" points="765,-168.5 765,-187.5 925,-187.5 925,-168.5 765,-168.5"/>
<text text-anchor="middle" x="845" y="-175.5" font-family="Helvetica,sans-Serif" font-size="10.00">Framework/ProcessingContext.h</text>
</g>
<!-- Node16&#45;&gt;Node20 -->
<g id="edge24" class="edge"><title>Node16&#45;&gt;Node20</title>
<path fill="none" stroke="midnightblue" d="M979.648,-224.444C952.731,-215.359 910.004,-200.939 879.913,-190.783"/>
<polygon fill="midnightblue" stroke="midnightblue" points="880.828,-187.398 870.234,-187.516 878.59,-194.031 880.828,-187.398"/>
</g>
<!-- Node21 -->
<g id="node21" class="node"><title>Node21</title>
<g id="a_node21"><a xlink:href="Activity_8h.html" target="_top" xlink:title="QualityControl/Activity.h">
<polygon fill="none" stroke="black" points="943.5,-168.5 943.5,-187.5 1066.5,-187.5 1066.5,-168.5 943.5,-168.5"/>
<text text-anchor="middle" x="1005" y="-175.5" font-family="Helvetica,sans-Serif" font-size="10.00">QualityControl/Activity.h</text>
</a>
</g>
</g>
<!-- Node16&#45;&gt;Node21 -->
<g id="edge25" class="edge"><title>Node16&#45;&gt;Node21</title>
<path fill="none" stroke="midnightblue" d="M1005,-224.083C1005,-217.006 1005,-206.861 1005,-197.986"/>
<polygon fill="midnightblue" stroke="midnightblue" points="1008.5,-197.751 1005,-187.751 1001.5,-197.751 1008.5,-197.751"/>
</g>
</g>
</svg>
        <g id="navigator" transform="translate(0 0)" fill="#404254">
                <rect fill="#f2f5e9" fill-opacity="0.5" stroke="#606060" stroke-width=".5" x="0" y="0" width="60" height="60"/>
                <use id="zoomplus" xlink:href="#zoomPlus" x="17" y="9" onmousedown="handleZoom(evt,'in')"/>
                <use id="zoomminus" xlink:href="#zoomMin" x="42" y="9" onmousedown="handleZoom(evt,'out')"/>
                <use id="reset" xlink:href="#resetDef" x="30" y="36" onmousedown="handleReset()"/>
                <g id="arrowUp" xlink:href="#dirArrow" transform="translate(30 24)" onmousedown="handlePan(0,-1)">
                  <use xlink:href="#rim" fill="#404040">
                        <set attributeName="fill" to="#808080" begin="arrowUp.mouseover" end="arrowUp.mouseout"/>
                  </use>
                  <path fill="none" stroke="white" stroke-width="1.5" d="M0,-3.0v7 M-2.5,-0.5L0,-3.0L2.5,-0.5"/>
                </g>
                <g id="arrowRight" xlink:href="#dirArrow" transform="rotate(90) translate(36 -43)" onmousedown="handlePan(1,0)">
                  <use xlink:href="#rim" fill="#404040">
                        <set attributeName="fill" to="#808080" begin="arrowRight.mouseover" end="arrowRight.mouseout"/>
                  </use>
                  <path fill="none" stroke="white" stroke-width="1.5" d="M0,-3.0v7 M-2.5,-0.5L0,-3.0L2.5,-0.5"/>
                </g>
                <g id="arrowDown" xlink:href="#dirArrow" transform="rotate(180) translate(-30 -48)" onmousedown="handlePan(0,1)">
                  <use xlink:href="#rim" fill="#404040">
                        <set attributeName="fill" to="#808080" begin="arrowDown.mouseover" end="arrowDown.mouseout"/>
                  </use>
                  <path fill="none" stroke="white" stroke-width="1.5" d="M0,-3.0v7 M-2.5,-0.5L0,-3.0L2.5,-0.5"/>
                </g>
                <g id="arrowLeft" xlink:href="#dirArrow" transform="rotate(270) translate(-36 17)" onmousedown="handlePan(-1,0)">
                  <use xlink:href="#rim" fill="#404040">
                        <set attributeName="fill" to="#808080" begin="arrowLeft.mouseover" end="arrowLeft.mouseout"/>
                  </use>
                  <path fill="none" stroke="white" stroke-width="1.5" d="M0,-3.0v7 M-2.5,-0.5L0,-3.0L2.5,-0.5"/>
                </g>
        </g>
        <svg viewBox="0 0 15 15" width="100%" height="30px" preserveAspectRatio="xMaxYMin meet">
         <g id="arrow_out" transform="scale(0.3 0.3)">
          <a xlink:href="ObjectsManager_8cxx__incl_org.svg" target="_base">
           <rect id="button" ry="5" rx="5" y="6" x="6" height="38" width="38"
                fill="#f2f5e9" fill-opacity="0.5" stroke="#606060" stroke-width="1.0"/>
           <path id="arrow"
             d="M 11.500037,31.436501 C 11.940474,20.09759 22.043105,11.32322 32.158766,21.979434 L 37.068811,17.246167 C 37.068811,17.246167 37.088388,32 37.088388,32 L 22.160133,31.978069 C 22.160133,31.978069 26.997745,27.140456 26.997745,27.140456 C 18.528582,18.264221 13.291696,25.230495 11.500037,31.436501 z"
             style="fill:#404040;"/>
          </a>
         </g>
        </svg>
</svg>
