<?xml version="1.0" encoding="UTF-8" standalone="no"?>
<!DOCTYPE svg PUBLIC "-//W3C//DTD SVG 1.1//EN"
 "http://www.w3.org/Graphics/SVG/1.1/DTD/svg11.dtd">
<!-- Generated by graphviz version 2.38.0 (20140413.2041)
 -->
<!-- Title: Framework/include/QualityControl/ObjectsManager.h Pages: 1 -->
<!--zoomable 307 -->
<svg id="main" version="1.1" xmlns="http://www.w3.org/2000/svg" xmlns:xlink="http://www.w3.org/1999/xlink" xml:space="preserve" onload="init(evt)">
<style type="text/css"><![CDATA[
.edge:hover path { stroke: red; }
.edge:hover polygon { stroke: red; fill: red; }
]]></style>
<script type="text/javascript"><![CDATA[
var edges = document.getElementsByTagName('g');
if (edges && edges.length) {
  for (var i=0;i<edges.length;i++) {
    if (edges[i].id.substr(0,4)=='edge') {
      edges[i].setAttribute('class','edge');
    }
  }
}
]]></script>
        <defs>
                <circle id="rim" cx="0" cy="0" r="7"/>
                <circle id="rim2" cx="0" cy="0" r="3.5"/>
                <g id="zoomPlus">
                        <use xlink:href="#rim" fill="#404040">
                                <set attributeName="fill" to="#808080" begin="zoomplus.mouseover" end="zoomplus.mouseout"/>
                        </use>
                        <path d="M-4,0h8M0,-4v8" fill="none" stroke="white" stroke-width="1.5" pointer-events="none"/>
                </g>
                <g id="zoomMin">
                        <use xlink:href="#rim" fill="#404040">
                                <set attributeName="fill" to="#808080" begin="zoomminus.mouseover" end="zoomminus.mouseout"/>
                        </use>
                        <path d="M-4,0h8" fill="none" stroke="white" stroke-width="1.5" pointer-events="none"/>
                </g>
                <g id="dirArrow">
                        <path fill="none" stroke="white" stroke-width="1.5" d="M0,-3.0v7 M-2.5,-0.5L0,-3.0L2.5,-0.5"/>
                </g>
               <g id="resetDef">
                       <use xlink:href="#rim2" fill="#404040">
                               <set attributeName="fill" to="#808080" begin="reset.mouseover" end="reset.mouseout"/>
                       </use>
               </g>
        </defs>

<script type="text/javascript">
var viewWidth = 2557;
var viewHeight = 307;
var sectionId = 'dynsection-1';
</script>
<script xlink:href="svgpan.js"/>
<svg id="graph" class="graph">
<g id="viewport">
<title>Framework/include/QualityControl/ObjectsManager.h</title>
<!-- Node1 -->
<g id="node1" class="node"><title>Node1</title>
<polygon fill="#bfbfbf" stroke="black" points="1962.5,-268.5 1962.5,-298.5 2095.5,-298.5 2095.5,-268.5 1962.5,-268.5"/>
<text text-anchor="start" x="1970.5" y="-286.5" font-family="Helvetica,sans-Serif" font-size="10.00">Framework/include/Quality</text>
<text text-anchor="middle" x="2029" y="-275.5" font-family="Helvetica,sans-Serif" font-size="10.00">Control/ObjectsManager.h</text>
</g>
<!-- Node2 -->
<g id="node2" class="node"><title>Node2</title>
<g id="a_node2"><a xlink:href="TaskInterface_8h.html" target="_top" xlink:title="Framework/include/Quality\lControl/TaskInterface.h">
<polygon fill="none" stroke="black" points="1557.5,-201.5 1557.5,-231.5 1690.5,-231.5 1690.5,-201.5 1557.5,-201.5"/>
<text text-anchor="start" x="1565.5" y="-219.5" font-family="Helvetica,sans-Serif" font-size="10.00">Framework/include/Quality</text>
<text text-anchor="middle" x="1624" y="-208.5" font-family="Helvetica,sans-Serif" font-size="10.00">Control/TaskInterface.h</text>
</a>
</g>
</g>
<!-- Node1&#45;&gt;Node2 -->
<g id="edge1" class="edge"><title>Node1&#45;&gt;Node2</title>
<path fill="none" stroke="midnightblue" d="M1952.19,-270.172C1876.63,-258.046 1762.47,-239.724 1690.64,-228.195"/>
<polygon fill="midnightblue" stroke="midnightblue" points="1951.69,-273.638 1962.12,-271.767 1952.8,-266.726 1951.69,-273.638"/>
</g>
<!-- Node14 -->
<g id="node14" class="node"><title>Node14</title>
<polygon fill="none" stroke="#bfbfbf" points="0,-0.5 0,-30.5 114,-30.5 114,-0.5 0,-0.5"/>
<text text-anchor="start" x="8" y="-18.5" font-family="Helvetica,sans-Serif" font-size="10.00">Modules/Example/test</text>
<text text-anchor="middle" x="57" y="-7.5" font-family="Helvetica,sans-Serif" font-size="10.00">/testFactory.cxx</text>
</g>
<!-- Node1&#45;&gt;Node14 -->
<g id="edge51" class="edge"><title>Node1&#45;&gt;Node14</title>
<path fill="none" stroke="midnightblue" d="M1952.34,-282.53C1611.73,-282.039 245.468,-273.29 91,-165 47.9033,-134.787 51.2635,-61.8127 54.8965,-30.8141"/>
<polygon fill="midnightblue" stroke="midnightblue" points="1952.35,-286.029 1962.36,-282.542 1952.36,-279.029 1952.35,-286.029"/>
</g>
<!-- Node21 -->
<g id="node21" class="node"><title>Node21</title>
<g id="a_node21"><a xlink:href="ObjectsManager_8cxx.html" target="_top" xlink:title="Framework/src/ObjectsManager.cxx">
<polygon fill="none" stroke="black" points="1981.5,-73 1981.5,-92 2156.5,-92 2156.5,-73 1981.5,-73"/>
<text text-anchor="middle" x="2069" y="-80" font-family="Helvetica,sans-Serif" font-size="10.00">Framework/src/ObjectsManager.cxx</text>
</a>
</g>
</g>
<!-- Node1&#45;&gt;Node21 -->
<g id="edge48" class="edge"><title>Node1&#45;&gt;Node21</title>
<path fill="none" stroke="midnightblue" d="M2033.88,-258.244C2042.8,-213.823 2061.4,-121.314 2067.22,-92.3601"/>
<polygon fill="midnightblue" stroke="midnightblue" points="2030.42,-257.695 2031.88,-268.188 2037.28,-259.074 2030.42,-257.695"/>
</g>
<!-- Node36 -->
<g id="node36" class="node"><title>Node36</title>
<polygon fill="none" stroke="#bfbfbf" points="2057,-201.5 2057,-231.5 2195,-231.5 2195,-201.5 2057,-201.5"/>
<text text-anchor="start" x="2065" y="-219.5" font-family="Helvetica,sans-Serif" font-size="10.00">Framework/test/testObjects</text>
<text text-anchor="middle" x="2126" y="-208.5" font-family="Helvetica,sans-Serif" font-size="10.00">Manager.cxx</text>
</g>
<!-- Node1&#45;&gt;Node36 -->
<g id="edge49" class="edge"><title>Node1&#45;&gt;Node36</title>
<path fill="none" stroke="midnightblue" d="M2058.5,-262.734C2073.51,-252.676 2091.4,-240.685 2104.99,-231.577"/>
<polygon fill="midnightblue" stroke="midnightblue" points="2056.41,-259.922 2050.05,-268.396 2060.3,-265.737 2056.41,-259.922"/>
</g>
<!-- Node37 -->
<g id="node37" class="node"><title>Node37</title>
<g id="a_node37"><a xlink:href="testPublisher_8cxx.html" target="_top" xlink:title="Framework/test/testPublisher.cxx">
<polygon fill="none" stroke="black" points="2213,-207 2213,-226 2377,-226 2377,-207 2213,-207"/>
<text text-anchor="middle" x="2295" y="-214" font-family="Helvetica,sans-Serif" font-size="10.00">Framework/test/testPublisher.cxx</text>
</a>
</g>
</g>
<!-- Node1&#45;&gt;Node37 -->
<g id="edge50" class="edge"><title>Node1&#45;&gt;Node37</title>
<path fill="none" stroke="midnightblue" d="M2096.24,-266.069C2148.4,-253.323 2218.6,-236.169 2260.1,-226.029"/>
<polygon fill="midnightblue" stroke="midnightblue" points="2095.27,-262.702 2086.39,-268.476 2096.94,-269.502 2095.27,-262.702"/>
</g>
<!-- Node3 -->
<g id="node3" class="node"><title>Node3</title>
<g id="a_node3"><a xlink:href="QcInfoLogger_8h.html" target="_top" xlink:title="Framework/include/Quality\lControl/QcInfoLogger.h">
<polygon fill="none" stroke="black" points="1169.5,-134.5 1169.5,-164.5 1302.5,-164.5 1302.5,-134.5 1169.5,-134.5"/>
<text text-anchor="start" x="1177.5" y="-152.5" font-family="Helvetica,sans-Serif" font-size="10.00">Framework/include/Quality</text>
<text text-anchor="middle" x="1236" y="-141.5" font-family="Helvetica,sans-Serif" font-size="10.00">Control/QcInfoLogger.h</text>
</a>
</g>
</g>
<!-- Node2&#45;&gt;Node3 -->
<g id="edge2" class="edge"><title>Node2&#45;&gt;Node3</title>
<path fill="none" stroke="midnightblue" d="M1547.03,-202.606C1475.7,-190.657 1370.68,-173.062 1302.8,-161.691"/>
<polygon fill="midnightblue" stroke="midnightblue" points="1546.86,-206.126 1557.3,-204.326 1548.02,-199.222 1546.86,-206.126"/>
</g>
<!-- Node12 -->
<g id="node12" class="node"><title>Node12</title>
<g id="a_node12"><a xlink:href="testQCTask_8cxx.html" target="_top" xlink:title="Framework/test/testQCTask.cxx">
<polygon fill="none" stroke="black" points="1389,-6 1389,-25 1549,-25 1549,-6 1389,-6"/>
<text text-anchor="middle" x="1469" y="-13" font-family="Helvetica,sans-Serif" font-size="10.00">Framework/test/testQCTask.cxx</text>
</a>
</g>
</g>
<!-- Node2&#45;&gt;Node12 -->
<g id="edge35" class="edge"><title>Node2&#45;&gt;Node12</title>
<path fill="none" stroke="midnightblue" d="M1700.67,-213.968C1782.58,-210.519 1904.63,-199.545 1934,-165 1944.7,-152.416 1954.59,-90.4068 1933,-67 1904.62,-36.2307 1599.51,-36.3683 1558,-31 1544.96,-29.3135 1530.89,-27.1726 1517.88,-25.0571"/>
<polygon fill="midnightblue" stroke="midnightblue" points="1700.5,-210.472 1690.64,-214.362 1700.77,-217.467 1700.5,-210.472"/>
</g>
<!-- Node18 -->
<g id="node18" class="node"><title>Node18</title>
<g id="a_node18"><a xlink:href="DatabaseFactory_8cxx.html" target="_top" xlink:title="Framework/src/DatabaseFactory.cxx">
<polygon fill="none" stroke="black" points="1616.5,-73 1616.5,-92 1795.5,-92 1795.5,-73 1616.5,-73"/>
<text text-anchor="middle" x="1706" y="-80" font-family="Helvetica,sans-Serif" font-size="10.00">Framework/src/DatabaseFactory.cxx</text>
</a>
</g>
</g>
<!-- Node2&#45;&gt;Node18 -->
<g id="edge33" class="edge"><title>Node2&#45;&gt;Node18</title>
<path fill="none" stroke="midnightblue" d="M1605.22,-193.095C1593.3,-175.994 1582.16,-152.334 1594,-134 1608.47,-111.605 1635.51,-99.0401 1659.4,-92.0448"/>
<polygon fill="midnightblue" stroke="midnightblue" points="1602.62,-195.46 1611.41,-201.376 1608.23,-191.27 1602.62,-195.46"/>
</g>
<!-- Node28 -->
<g id="node28" class="node"><title>Node28</title>
<g id="a_node28"><a xlink:href="TaskRunner_8h.html" target="_top" xlink:title="Framework/include/Quality\lControl/TaskRunner.h">
<polygon fill="none" stroke="black" points="2174.5,-67.5 2174.5,-97.5 2307.5,-97.5 2307.5,-67.5 2174.5,-67.5"/>
<text text-anchor="start" x="2182.5" y="-85.5" font-family="Helvetica,sans-Serif" font-size="10.00">Framework/include/Quality</text>
<text text-anchor="middle" x="2241" y="-74.5" font-family="Helvetica,sans-Serif" font-size="10.00">Control/TaskRunner.h</text>
</a>
</g>
</g>
<!-- Node2&#45;&gt;Node28 -->
<g id="edge28" class="edge"><title>Node2&#45;&gt;Node28</title>
<path fill="none" stroke="midnightblue" d="M1700.63,-207.397C1770.52,-199.256 1876.39,-185.037 1967,-165 2051.08,-146.407 2147.04,-115.581 2200.17,-97.6442"/>
<polygon fill="midnightblue" stroke="midnightblue" points="1700.12,-203.932 1690.59,-208.554 1700.92,-210.886 1700.12,-203.932"/>
</g>
<!-- Node31 -->
<g id="node31" class="node"><title>Node31</title>
<g id="a_node31"><a xlink:href="TaskInterface_8cxx.html" target="_top" xlink:title="Framework/src/TaskInterface.cxx">
<polygon fill="none" stroke="black" points="1761,-140 1761,-159 1925,-159 1925,-140 1761,-140"/>
<text text-anchor="middle" x="1843" y="-147" font-family="Helvetica,sans-Serif" font-size="10.00">Framework/src/TaskInterface.cxx</text>
</a>
</g>
</g>
<!-- Node2&#45;&gt;Node31 -->
<g id="edge34" class="edge"><title>Node2&#45;&gt;Node31</title>
<path fill="none" stroke="midnightblue" d="M1680.97,-198.59C1723.74,-185.896 1780.52,-169.043 1814.26,-159.029"/>
<polygon fill="midnightblue" stroke="midnightblue" points="1679.84,-195.275 1671.25,-201.476 1681.83,-201.986 1679.84,-195.275"/>
</g>
<!-- Node32 -->
<g id="node32" class="node"><title>Node32</title>
<g id="a_node32"><a xlink:href="DaqTask_8h.html" target="_top" xlink:title="Modules/Daq/include\l/Daq/DaqTask.h">
<polygon fill="none" stroke="black" points="313,-134.5 313,-164.5 421,-164.5 421,-134.5 313,-134.5"/>
<text text-anchor="start" x="321" y="-152.5" font-family="Helvetica,sans-Serif" font-size="10.00">Modules/Daq/include</text>
<text text-anchor="middle" x="367" y="-141.5" font-family="Helvetica,sans-Serif" font-size="10.00">/Daq/DaqTask.h</text>
</a>
</g>
</g>
<!-- Node2&#45;&gt;Node32 -->
<g id="edge36" class="edge"><title>Node2&#45;&gt;Node32</title>
<path fill="none" stroke="midnightblue" d="M1547.07,-214.287C1362.74,-210.904 881.369,-199.248 481,-165 461.42,-163.325 440.03,-160.792 421.122,-158.31"/>
<polygon fill="midnightblue" stroke="midnightblue" points="1547.14,-217.789 1557.2,-214.47 1547.27,-210.79 1547.14,-217.789"/>
</g>
<!-- Node33 -->
<g id="node33" class="node"><title>Node33</title>
<g id="a_node33"><a xlink:href="BenchmarkTask_8h.html" target="_top" xlink:title="Modules/Example/include\l/Example/BenchmarkTask.h">
<polygon fill="none" stroke="black" points="1603,-134.5 1603,-164.5 1743,-164.5 1743,-134.5 1603,-134.5"/>
<text text-anchor="start" x="1611" y="-152.5" font-family="Helvetica,sans-Serif" font-size="10.00">Modules/Example/include</text>
<text text-anchor="middle" x="1673" y="-141.5" font-family="Helvetica,sans-Serif" font-size="10.00">/Example/BenchmarkTask.h</text>
</a>
</g>
</g>
<!-- Node2&#45;&gt;Node33 -->
<g id="edge39" class="edge"><title>Node2&#45;&gt;Node33</title>
<path fill="none" stroke="midnightblue" d="M1640.84,-193.157C1647.99,-183.679 1656.1,-172.919 1662.39,-164.577"/>
<polygon fill="midnightblue" stroke="midnightblue" points="1637.86,-191.304 1634.63,-201.396 1643.45,-195.518 1637.86,-191.304"/>
</g>
<!-- Node34 -->
<g id="node34" class="node"><title>Node34</title>
<g id="a_node34"><a xlink:href="ExampleTask_8h.html" target="_top" xlink:title="Modules/Example/include\l/Example/ExampleTask.h">
<polygon fill="none" stroke="black" points="100.5,-134.5 100.5,-164.5 229.5,-164.5 229.5,-134.5 100.5,-134.5"/>
<text text-anchor="start" x="108.5" y="-152.5" font-family="Helvetica,sans-Serif" font-size="10.00">Modules/Example/include</text>
<text text-anchor="middle" x="165" y="-141.5" font-family="Helvetica,sans-Serif" font-size="10.00">/Example/ExampleTask.h</text>
</a>
</g>
</g>
<!-- Node2&#45;&gt;Node34 -->
<g id="edge41" class="edge"><title>Node2&#45;&gt;Node34</title>
<path fill="none" stroke="midnightblue" d="M1547.03,-214.322C1343.72,-210.828 775.614,-198.584 304,-165 279.677,-163.268 253.029,-160.661 229.631,-158.133"/>
<polygon fill="midnightblue" stroke="midnightblue" points="1547.24,-217.826 1557.3,-214.496 1547.36,-210.827 1547.24,-217.826"/>
</g>
<!-- Node35 -->
<g id="node35" class="node"><title>Node35</title>
<g id="a_node35"><a xlink:href="SkeletonTask_8h.html" target="_top" xlink:title="Modules/Skeleton/include\l/Skeleton/SkeletonTask.h">
<polygon fill="none" stroke="black" points="490.5,-134.5 490.5,-164.5 619.5,-164.5 619.5,-134.5 490.5,-134.5"/>
<text text-anchor="start" x="498.5" y="-152.5" font-family="Helvetica,sans-Serif" font-size="10.00">Modules/Skeleton/include</text>
<text text-anchor="middle" x="555" y="-141.5" font-family="Helvetica,sans-Serif" font-size="10.00">/Skeleton/SkeletonTask.h</text>
</a>
</g>
</g>
<!-- Node2&#45;&gt;Node35 -->
<g id="edge45" class="edge"><title>Node2&#45;&gt;Node35</title>
<path fill="none" stroke="midnightblue" d="M1546.94,-210.814C1345.62,-198.573 806.601,-165.798 619.803,-154.44"/>
<polygon fill="midnightblue" stroke="midnightblue" points="1546.94,-214.32 1557.13,-211.434 1547.36,-207.333 1546.94,-214.32"/>
</g>
<!-- Node4 -->
<g id="node4" class="node"><title>Node4</title>
<g id="a_node4"><a xlink:href="Checker_8h.html" target="_top" xlink:title="Framework/include/Quality\lControl/Checker.h">
<polygon fill="none" stroke="black" points="1312.5,-67.5 1312.5,-97.5 1445.5,-97.5 1445.5,-67.5 1312.5,-67.5"/>
<text text-anchor="start" x="1320.5" y="-85.5" font-family="Helvetica,sans-Serif" font-size="10.00">Framework/include/Quality</text>
<text text-anchor="middle" x="1379" y="-74.5" font-family="Helvetica,sans-Serif" font-size="10.00">Control/Checker.h</text>
</a>
</g>
</g>
<!-- Node3&#45;&gt;Node4 -->
<g id="edge3" class="edge"><title>Node3&#45;&gt;Node4</title>
<path fill="none" stroke="midnightblue" d="M1276.41,-130.131C1299.13,-119.802 1327.06,-107.11 1348.03,-97.5765"/>
<polygon fill="midnightblue" stroke="midnightblue" points="1274.68,-127.072 1267.03,-134.396 1277.58,-133.444 1274.68,-127.072"/>
</g>
<!-- Node10 -->
<g id="node10" class="node"><title>Node10</title>
<g id="a_node10"><a xlink:href="TaskFactory_8h.html" target="_top" xlink:title="Framework/include/Quality\lControl/TaskFactory.h">
<polygon fill="none" stroke="black" points="1122.5,-67.5 1122.5,-97.5 1255.5,-97.5 1255.5,-67.5 1122.5,-67.5"/>
<text text-anchor="start" x="1130.5" y="-85.5" font-family="Helvetica,sans-Serif" font-size="10.00">Framework/include/Quality</text>
<text text-anchor="middle" x="1189" y="-74.5" font-family="Helvetica,sans-Serif" font-size="10.00">Control/TaskFactory.h</text>
</a>
</g>
</g>
<!-- Node3&#45;&gt;Node10 -->
<g id="edge9" class="edge"><title>Node3&#45;&gt;Node10</title>
<path fill="none" stroke="midnightblue" d="M1219.84,-126.157C1212.99,-116.679 1205.21,-105.919 1199.18,-97.5765"/>
<polygon fill="midnightblue" stroke="midnightblue" points="1217.11,-128.343 1225.8,-134.396 1222.78,-124.242 1217.11,-128.343"/>
</g>
<!-- Node11 -->
<g id="node11" class="node"><title>Node11</title>
<g id="a_node11"><a xlink:href="TaskRunner_8cxx.html" target="_top" xlink:title="Framework/src/TaskRunner.cxx">
<polygon fill="none" stroke="black" points="1028.5,-6 1028.5,-25 1185.5,-25 1185.5,-6 1028.5,-6"/>
<text text-anchor="middle" x="1107" y="-13" font-family="Helvetica,sans-Serif" font-size="10.00">Framework/src/TaskRunner.cxx</text>
</a>
</g>
</g>
<!-- Node3&#45;&gt;Node11 -->
<g id="edge22" class="edge"><title>Node3&#45;&gt;Node11</title>
<path fill="none" stroke="midnightblue" d="M1254.28,-125.93C1266.01,-108.553 1276.83,-84.6062 1264,-67 1250.72,-48.7779 1194.35,-33.8626 1152.94,-25.0825"/>
<polygon fill="midnightblue" stroke="midnightblue" points="1251.22,-124.196 1248.19,-134.35 1256.89,-128.299 1251.22,-124.196"/>
</g>
<!-- Node3&#45;&gt;Node18 -->
<g id="edge17" class="edge"><title>Node3&#45;&gt;Node18</title>
<path fill="none" stroke="midnightblue" d="M1313.02,-138.248C1388.08,-128.202 1505.42,-112.353 1607,-98 1620.42,-96.1045 1634.85,-94.0179 1648.43,-92.0328"/>
<polygon fill="midnightblue" stroke="midnightblue" points="1312.16,-134.832 1302.71,-139.626 1313.09,-141.77 1312.16,-134.832"/>
</g>
<!-- Node19 -->
<g id="node19" class="node"><title>Node19</title>
<g id="a_node19"><a xlink:href="InformationService_8cxx.html" target="_top" xlink:title="Framework/src/Information\lService.cxx">
<polygon fill="none" stroke="black" points="1464,-67.5 1464,-97.5 1598,-97.5 1598,-67.5 1464,-67.5"/>
<text text-anchor="start" x="1472" y="-85.5" font-family="Helvetica,sans-Serif" font-size="10.00">Framework/src/Information</text>
<text text-anchor="middle" x="1531" y="-74.5" font-family="Helvetica,sans-Serif" font-size="10.00">Service.cxx</text>
</a>
</g>
</g>
<!-- Node3&#45;&gt;Node19 -->
<g id="edge18" class="edge"><title>Node3&#45;&gt;Node19</title>
<path fill="none" stroke="midnightblue" d="M1309.45,-132.316C1357.94,-121.633 1420.83,-107.775 1467.21,-97.5549"/>
<polygon fill="midnightblue" stroke="midnightblue" points="1308.66,-128.906 1299.65,-134.476 1310.17,-135.742 1308.66,-128.906"/>
</g>
<!-- Node20 -->
<g id="node20" class="node"><title>Node20</title>
<g id="a_node20"><a xlink:href="MySqlDatabase_8cxx.html" target="_top" xlink:title="Framework/src/MySqlDatabase.cxx">
<polygon fill="none" stroke="black" points="628.5,-73 628.5,-92 801.5,-92 801.5,-73 628.5,-73"/>
<text text-anchor="middle" x="715" y="-80" font-family="Helvetica,sans-Serif" font-size="10.00">Framework/src/MySqlDatabase.cxx</text>
</a>
</g>
</g>
<!-- Node3&#45;&gt;Node20 -->
<g id="edge19" class="edge"><title>Node3&#45;&gt;Node20</title>
<path fill="none" stroke="midnightblue" d="M1159.19,-140.113C1074,-130.639 932.531,-114.394 811,-98 797.469,-96.1748 782.89,-94.0529 769.281,-92.0049"/>
<polygon fill="midnightblue" stroke="midnightblue" points="1158.97,-143.61 1169.3,-141.235 1159.75,-136.653 1158.97,-143.61"/>
</g>
<!-- Node3&#45;&gt;Node21 -->
<g id="edge20" class="edge"><title>Node3&#45;&gt;Node21</title>
<path fill="none" stroke="midnightblue" d="M1313,-143.777C1441.55,-135.7 1707.99,-118.141 1933,-98 1952.63,-96.2429 1973.83,-94.101 1993.51,-92.0085"/>
<polygon fill="midnightblue" stroke="midnightblue" points="1312.62,-140.294 1302.86,-144.412 1313.06,-147.28 1312.62,-140.294"/>
</g>
<!-- Node22 -->
<g id="node22" class="node"><title>Node22</title>
<g id="a_node22"><a xlink:href="RepositoryBenchmark_8cxx.html" target="_top" xlink:title="Framework/src/Repository\lBenchmark.cxx">
<polygon fill="none" stroke="black" points="820,-67.5 820,-97.5 952,-97.5 952,-67.5 820,-67.5"/>
<text text-anchor="start" x="828" y="-85.5" font-family="Helvetica,sans-Serif" font-size="10.00">Framework/src/Repository</text>
<text text-anchor="middle" x="886" y="-74.5" font-family="Helvetica,sans-Serif" font-size="10.00">Benchmark.cxx</text>
</a>
</g>
</g>
<!-- Node3&#45;&gt;Node22 -->
<g id="edge21" class="edge"><title>Node3&#45;&gt;Node22</title>
<path fill="none" stroke="midnightblue" d="M1159.23,-134.602C1104.06,-124.564 1027.91,-110.611 961,-98 958.133,-97.4596 955.205,-96.905 952.247,-96.3426"/>
<polygon fill="midnightblue" stroke="midnightblue" points="1158.82,-138.084 1169.28,-136.429 1160.07,-131.197 1158.82,-138.084"/>
</g>
<!-- Node23 -->
<g id="node23" class="node"><title>Node23</title>
<g id="a_node23"><a xlink:href="testQcInfoLogger_8cxx.html" target="_top" xlink:title="Framework/test/testQcInfo\lLogger.cxx">
<polygon fill="none" stroke="black" points="970,-67.5 970,-97.5 1104,-97.5 1104,-67.5 970,-67.5"/>
<text text-anchor="start" x="978" y="-85.5" font-family="Helvetica,sans-Serif" font-size="10.00">Framework/test/testQcInfo</text>
<text text-anchor="middle" x="1037" y="-74.5" font-family="Helvetica,sans-Serif" font-size="10.00">Logger.cxx</text>
</a>
</g>
</g>
<!-- Node3&#45;&gt;Node23 -->
<g id="edge23" class="edge"><title>Node3&#45;&gt;Node23</title>
<path fill="none" stroke="midnightblue" d="M1183.12,-131.228C1150.93,-120.713 1110.33,-107.451 1080.1,-97.5765"/>
<polygon fill="midnightblue" stroke="midnightblue" points="1182.23,-134.618 1192.82,-134.396 1184.4,-127.964 1182.23,-134.618"/>
</g>
<!-- Node24 -->
<g id="node24" class="node"><title>Node24</title>
<g id="a_node24"><a xlink:href="DaqTask_8cxx.html" target="_top" xlink:title="Modules/Daq/src/DaqTask.cxx">
<polygon fill="none" stroke="black" points="291,-73 291,-92 443,-92 443,-73 291,-73"/>
<text text-anchor="middle" x="367" y="-80" font-family="Helvetica,sans-Serif" font-size="10.00">Modules/Daq/src/DaqTask.cxx</text>
</a>
</g>
</g>
<!-- Node3&#45;&gt;Node24 -->
<g id="edge24" class="edge"><title>Node3&#45;&gt;Node24</title>
<path fill="none" stroke="midnightblue" d="M1159.03,-144.555C1023.59,-137.332 733.917,-120.619 490,-98 471.801,-96.3124 452.128,-94.1469 433.965,-92.007"/>
<polygon fill="midnightblue" stroke="midnightblue" points="1159.12,-148.065 1169.29,-145.1 1159.49,-141.075 1159.12,-148.065"/>
</g>
<!-- Node25 -->
<g id="node25" class="node"><title>Node25</title>
<g id="a_node25"><a xlink:href="BenchmarkTask_8cxx.html" target="_top" xlink:title="Modules/Example/src\l/BenchmarkTask.cxx">
<polygon fill="none" stroke="black" points="1813.5,-67.5 1813.5,-97.5 1924.5,-97.5 1924.5,-67.5 1813.5,-67.5"/>
<text text-anchor="start" x="1821.5" y="-85.5" font-family="Helvetica,sans-Serif" font-size="10.00">Modules/Example/src</text>
<text text-anchor="middle" x="1869" y="-74.5" font-family="Helvetica,sans-Serif" font-size="10.00">/BenchmarkTask.cxx</text>
</a>
</g>
</g>
<!-- Node3&#45;&gt;Node25 -->
<g id="edge25" class="edge"><title>Node3&#45;&gt;Node25</title>
<path fill="none" stroke="midnightblue" d="M1313.1,-144.849C1422.7,-138.934 1629.62,-125.083 1804,-98 1807.08,-97.5209 1810.24,-96.9816 1813.42,-96.4"/>
<polygon fill="midnightblue" stroke="midnightblue" points="1312.6,-141.371 1302.8,-145.397 1312.97,-148.361 1312.6,-141.371"/>
</g>
<!-- Node26 -->
<g id="node26" class="node"><title>Node26</title>
<g id="a_node26"><a xlink:href="ExampleTask_8cxx.html" target="_top" xlink:title="Modules/Example/src\l/ExampleTask.cxx">
<polygon fill="none" stroke="black" points="161.5,-67.5 161.5,-97.5 272.5,-97.5 272.5,-67.5 161.5,-67.5"/>
<text text-anchor="start" x="169.5" y="-85.5" font-family="Helvetica,sans-Serif" font-size="10.00">Modules/Example/src</text>
<text text-anchor="middle" x="217" y="-74.5" font-family="Helvetica,sans-Serif" font-size="10.00">/ExampleTask.cxx</text>
</a>
</g>
</g>
<!-- Node3&#45;&gt;Node26 -->
<g id="edge26" class="edge"><title>Node3&#45;&gt;Node26</title>
<path fill="none" stroke="midnightblue" d="M1159.04,-148.758C996.342,-148.355 605.793,-142.37 282,-98 278.907,-97.5762 275.744,-97.0805 272.559,-96.5327"/>
<polygon fill="midnightblue" stroke="midnightblue" points="1159.42,-152.259 1169.43,-148.777 1159.43,-145.259 1159.42,-152.259"/>
</g>
<!-- Node27 -->
<g id="node27" class="node"><title>Node27</title>
<g id="a_node27"><a xlink:href="SkeletonTask_8cxx.html" target="_top" xlink:title="Modules/Skeleton/src\l/SkeletonTask.cxx">
<polygon fill="none" stroke="black" points="499.5,-67.5 499.5,-97.5 610.5,-97.5 610.5,-67.5 499.5,-67.5"/>
<text text-anchor="start" x="507.5" y="-85.5" font-family="Helvetica,sans-Serif" font-size="10.00">Modules/Skeleton/src</text>
<text text-anchor="middle" x="555" y="-74.5" font-family="Helvetica,sans-Serif" font-size="10.00">/SkeletonTask.cxx</text>
</a>
</g>
</g>
<!-- Node3&#45;&gt;Node27 -->
<g id="edge27" class="edge"><title>Node3&#45;&gt;Node27</title>
<path fill="none" stroke="midnightblue" d="M1159.15,-145.697C1042.03,-140.639 812.094,-127.625 619,-98 616.297,-97.5854 613.539,-97.121 610.759,-96.62"/>
<polygon fill="midnightblue" stroke="midnightblue" points="1159.3,-149.206 1169.44,-146.133 1159.6,-142.212 1159.3,-149.206"/>
</g>
<!-- Node5 -->
<g id="node5" class="node"><title>Node5</title>
<g id="a_node5"><a xlink:href="Checker_8cxx.html" target="_top" xlink:title="Framework/src/Checker.cxx">
<polygon fill="none" stroke="black" points="2091,-6 2091,-25 2231,-25 2231,-6 2091,-6"/>
<text text-anchor="middle" x="2161" y="-13" font-family="Helvetica,sans-Serif" font-size="10.00">Framework/src/Checker.cxx</text>
</a>
</g>
</g>
<!-- Node4&#45;&gt;Node5 -->
<g id="edge4" class="edge"><title>Node4&#45;&gt;Node5</title>
<path fill="none" stroke="midnightblue" d="M1455.63,-67.0509C1733.75,-33.5002 1808.11,-63.8694 2082,-31 2094.32,-29.5212 2107.62,-27.3181 2119.74,-25.0731"/>
<polygon fill="midnightblue" stroke="midnightblue" points="1455.15,-63.5834 1445.65,-68.2716 1456,-70.5316 1455.15,-63.5834"/>
</g>
<!-- Node6 -->
<g id="node6" class="node"><title>Node6</title>
<g id="a_node6"><a xlink:href="CheckerFactory_8cxx.html" target="_top" xlink:title="Framework/src/CheckerFactory.cxx">
<polygon fill="none" stroke="black" points="1739.5,-6 1739.5,-25 1912.5,-25 1912.5,-6 1739.5,-6"/>
<text text-anchor="middle" x="1826" y="-13" font-family="Helvetica,sans-Serif" font-size="10.00">Framework/src/CheckerFactory.cxx</text>
</a>
</g>
</g>
<!-- Node4&#45;&gt;Node6 -->
<g id="edge5" class="edge"><title>Node4&#45;&gt;Node6</title>
<path fill="none" stroke="midnightblue" d="M1455.85,-66.9236C1578.41,-47.469 1611.16,-47.7519 1730,-31 1743.27,-29.1296 1757.56,-27.0225 1770.95,-25.0061"/>
<polygon fill="midnightblue" stroke="midnightblue" points="1455.01,-63.5129 1445.69,-68.5484 1456.12,-70.4251 1455.01,-63.5129"/>
</g>
<!-- Node7 -->
<g id="node7" class="node"><title>Node7</title>
<g id="a_node7"><a xlink:href="runBasic_8cxx.html" target="_top" xlink:title="This is an executable showing QC Task&#39;s usage in Data Processing Layer. ">
<polygon fill="none" stroke="black" points="1931,-6 1931,-25 2073,-25 2073,-6 1931,-6"/>
<text text-anchor="middle" x="2002" y="-13" font-family="Helvetica,sans-Serif" font-size="10.00">Framework/src/runBasic.cxx</text>
</a>
</g>
</g>
<!-- Node4&#45;&gt;Node7 -->
<g id="edge6" class="edge"><title>Node4&#45;&gt;Node7</title>
<path fill="none" stroke="midnightblue" d="M1455.63,-67.0281C1662.62,-40.039 1718.17,-56.9235 1921,-31 1933.33,-29.4243 1946.63,-27.2449 1958.83,-25.0542"/>
<polygon fill="midnightblue" stroke="midnightblue" points="1455.11,-63.566 1445.66,-68.3468 1456.03,-70.5056 1455.11,-63.566"/>
</g>
<!-- Node8 -->
<g id="node8" class="node"><title>Node8</title>
<g id="a_node8"><a xlink:href="runMergerTest_8cxx.html" target="_top" xlink:title="This is DPL workflow to see HistoMerger in action. ">
<polygon fill="none" stroke="black" points="1203.5,-6 1203.5,-25 1370.5,-25 1370.5,-6 1203.5,-6"/>
<text text-anchor="middle" x="1287" y="-13" font-family="Helvetica,sans-Serif" font-size="10.00">Framework/src/runMergerTest.cxx</text>
</a>
</g>
</g>
<!-- Node4&#45;&gt;Node8 -->
<g id="edge7" class="edge"><title>Node4&#45;&gt;Node8</title>
<path fill="none" stroke="midnightblue" d="M1350.42,-61.3056C1333.14,-49.0999 1312.02,-34.1772 1299.04,-25.007"/>
<polygon fill="midnightblue" stroke="midnightblue" points="1348.85,-64.4841 1359.04,-67.396 1352.89,-58.7671 1348.85,-64.4841"/>
</g>
<!-- Node9 -->
<g id="node9" class="node"><title>Node9</title>
<g id="a_node9"><a xlink:href="runReadout_8cxx.html" target="_top" xlink:title="This is an executable showing QC Task&#39;s usage in Data Processing Layer with Readout as external data ...">
<polygon fill="none" stroke="black" points="1567,-6 1567,-25 1721,-25 1721,-6 1567,-6"/>
<text text-anchor="middle" x="1644" y="-13" font-family="Helvetica,sans-Serif" font-size="10.00">Framework/src/runReadout.cxx</text>
</a>
</g>
</g>
<!-- Node4&#45;&gt;Node9 -->
<g id="edge8" class="edge"><title>Node4&#45;&gt;Node9</title>
<path fill="none" stroke="midnightblue" d="M1445.99,-65.0694C1497.95,-52.3228 1567.89,-35.1694 1609.23,-25.0287"/>
<polygon fill="midnightblue" stroke="midnightblue" points="1445.05,-61.6945 1436.17,-67.476 1446.72,-68.4929 1445.05,-61.6945"/>
</g>
<!-- Node10&#45;&gt;Node11 -->
<g id="edge10" class="edge"><title>Node10&#45;&gt;Node11</title>
<path fill="none" stroke="midnightblue" d="M1163.15,-61.008C1147.93,-48.9412 1129.46,-34.3046 1117.97,-25.1945"/>
<polygon fill="midnightblue" stroke="midnightblue" points="1161.2,-63.9268 1171.21,-67.396 1165.54,-58.4412 1161.2,-63.9268"/>
</g>
<!-- Node10&#45;&gt;Node12 -->
<g id="edge11" class="edge"><title>Node10&#45;&gt;Node12</title>
<path fill="none" stroke="midnightblue" d="M1259.44,-65.1489C1314.38,-52.3942 1388.49,-35.1905 1432.26,-25.0287"/>
<polygon fill="midnightblue" stroke="midnightblue" points="1258.36,-61.8053 1249.41,-67.476 1259.94,-68.624 1258.36,-61.8053"/>
</g>
<!-- Node13 -->
<g id="node13" class="node"><title>Node13</title>
<g id="a_node13"><a xlink:href="testQcDaq_8cxx.html" target="_top" xlink:title="Modules/Daq/test/testQcDaq.cxx">
<polygon fill="none" stroke="black" points="493.5,-6 493.5,-25 656.5,-25 656.5,-6 493.5,-6"/>
<text text-anchor="middle" x="575" y="-13" font-family="Helvetica,sans-Serif" font-size="10.00">Modules/Daq/test/testQcDaq.cxx</text>
</a>
</g>
</g>
<!-- Node10&#45;&gt;Node13 -->
<g id="edge12" class="edge"><title>Node10&#45;&gt;Node13</title>
<path fill="none" stroke="midnightblue" d="M1112.41,-67.0079C939.841,-42.9069 894.214,-47.0288 725,-31 702.861,-28.9028 678.886,-26.5998 656.737,-24.4587"/>
<polygon fill="midnightblue" stroke="midnightblue" points="1111.94,-70.4769 1122.33,-68.4054 1112.92,-63.5452 1111.94,-70.4769"/>
</g>
<!-- Node10&#45;&gt;Node14 -->
<g id="edge13" class="edge"><title>Node10&#45;&gt;Node14</title>
<path fill="none" stroke="midnightblue" d="M1112.21,-67.0466C722.396,-22.7562 620.359,-54.8696 233,-31 193.219,-28.5486 148.454,-24.8478 114.027,-21.7986"/>
<polygon fill="midnightblue" stroke="midnightblue" points="1112.02,-70.5476 1122.36,-68.2088 1112.82,-63.5931 1112.02,-70.5476"/>
</g>
<!-- Node15 -->
<g id="node15" class="node"><title>Node15</title>
<g id="a_node15"><a xlink:href="testQcExample_8cxx.html" target="_top" xlink:title="Modules/Example/test\l/testQcExample.cxx">
<polygon fill="none" stroke="black" points="242,-0.5 242,-30.5 356,-30.5 356,-0.5 242,-0.5"/>
<text text-anchor="start" x="250" y="-18.5" font-family="Helvetica,sans-Serif" font-size="10.00">Modules/Example/test</text>
<text text-anchor="middle" x="299" y="-7.5" font-family="Helvetica,sans-Serif" font-size="10.00">/testQcExample.cxx</text>
</a>
</g>
</g>
<!-- Node10&#45;&gt;Node15 -->
<g id="edge14" class="edge"><title>Node10&#45;&gt;Node15</title>
<path fill="none" stroke="midnightblue" d="M1112.34,-67.0416C833.388,-33.0869 760.098,-49.719 484,-31 441.089,-28.0907 392.623,-24.2725 356.065,-21.2845"/>
<polygon fill="midnightblue" stroke="midnightblue" points="1112,-70.5258 1122.35,-68.2709 1112.85,-63.578 1112,-70.5258"/>
</g>
<!-- Node16 -->
<g id="node16" class="node"><title>Node16</title>
<polygon fill="none" stroke="#bfbfbf" points="896,-0.5 896,-30.5 1010,-30.5 1010,-0.5 896,-0.5"/>
<text text-anchor="start" x="904" y="-18.5" font-family="Helvetica,sans-Serif" font-size="10.00">Modules/Skeleton/test</text>
<text text-anchor="middle" x="953" y="-7.5" font-family="Helvetica,sans-Serif" font-size="10.00">/.testEmpty.cxx</text>
</g>
<!-- Node10&#45;&gt;Node16 -->
<g id="edge15" class="edge"><title>Node10&#45;&gt;Node16</title>
<path fill="none" stroke="midnightblue" d="M1128.06,-64.7149C1089.65,-54.1373 1040.63,-40.6348 1004.23,-30.6109"/>
<polygon fill="midnightblue" stroke="midnightblue" points="1127.51,-68.1949 1138.08,-67.476 1129.37,-61.4462 1127.51,-68.1949"/>
</g>
<!-- Node17 -->
<g id="node17" class="node"><title>Node17</title>
<g id="a_node17"><a xlink:href="testQcSkeleton_8cxx.html" target="_top" xlink:title="Modules/Skeleton/test\l/testQcSkeleton.cxx">
<polygon fill="none" stroke="black" points="734,-0.5 734,-30.5 848,-30.5 848,-0.5 734,-0.5"/>
<text text-anchor="start" x="742" y="-18.5" font-family="Helvetica,sans-Serif" font-size="10.00">Modules/Skeleton/test</text>
<text text-anchor="middle" x="791" y="-7.5" font-family="Helvetica,sans-Serif" font-size="10.00">/testQcSkeleton.cxx</text>
</a>
</g>
</g>
<!-- Node10&#45;&gt;Node17 -->
<g id="edge16" class="edge"><title>Node10&#45;&gt;Node17</title>
<path fill="none" stroke="midnightblue" d="M1112.34,-66.9311C1049.07,-56.1666 922.573,-36.6386 848.313,-25.2558"/>
<polygon fill="midnightblue" stroke="midnightblue" points="1111.85,-70.3982 1122.29,-68.6445 1113.03,-63.4996 1111.85,-70.3982"/>
</g>
<!-- Node28&#45;&gt;Node5 -->
<g id="edge29" class="edge"><title>Node28&#45;&gt;Node5</title>
<path fill="none" stroke="midnightblue" d="M2215.78,-61.008C2200.93,-48.9412 2182.91,-34.3046 2171.7,-25.1945"/>
<polygon fill="midnightblue" stroke="midnightblue" points="2213.67,-63.8064 2223.64,-67.396 2218.09,-58.3736 2213.67,-63.8064"/>
</g>
<!-- Node28&#45;&gt;Node11 -->
<g id="edge31" class="edge"><title>Node28&#45;&gt;Node11</title>
<path fill="none" stroke="midnightblue" d="M2164.14,-67.0464C1734.12,-19.2661 1620.29,-74.2469 1194,-31 1180.14,-29.5936 1165.14,-27.3549 1151.56,-25.0532"/>
<polygon fill="midnightblue" stroke="midnightblue" points="2164.03,-70.5558 2174.36,-68.1942 2164.81,-63.5996 2164.03,-70.5558"/>
</g>
<!-- Node29 -->
<g id="node29" class="node"><title>Node29</title>
<polygon fill="none" stroke="#bfbfbf" points="2249.5,-0.5 2249.5,-30.5 2392.5,-30.5 2392.5,-0.5 2249.5,-0.5"/>
<text text-anchor="start" x="2257.5" y="-18.5" font-family="Helvetica,sans-Serif" font-size="10.00">Framework/src/Infrastructure</text>
<text text-anchor="middle" x="2321" y="-7.5" font-family="Helvetica,sans-Serif" font-size="10.00">Generator.cxx</text>
</g>
<!-- Node28&#45;&gt;Node29 -->
<g id="edge30" class="edge"><title>Node28&#45;&gt;Node29</title>
<path fill="none" stroke="midnightblue" d="M2266.37,-60.8832C2278.53,-51.0054 2292.78,-39.4293 2303.68,-30.5765"/>
<polygon fill="midnightblue" stroke="midnightblue" points="2263.91,-58.3736 2258.36,-67.396 2268.33,-63.8064 2263.91,-58.3736"/>
</g>
<!-- Node30 -->
<g id="node30" class="node"><title>Node30</title>
<g id="a_node30"><a xlink:href="TaskRunnerFactory_8cxx.html" target="_top" xlink:title="Framework/src/TaskRunner\lFactory.cxx">
<polygon fill="none" stroke="black" points="2411,-0.5 2411,-30.5 2549,-30.5 2549,-0.5 2411,-0.5"/>
<text text-anchor="start" x="2419" y="-18.5" font-family="Helvetica,sans-Serif" font-size="10.00">Framework/src/TaskRunner</text>
<text text-anchor="middle" x="2480" y="-7.5" font-family="Helvetica,sans-Serif" font-size="10.00">Factory.cxx</text>
</a>
</g>
</g>
<!-- Node28&#45;&gt;Node30 -->
<g id="edge32" class="edge"><title>Node28&#45;&gt;Node30</title>
<path fill="none" stroke="midnightblue" d="M2302.22,-64.8498C2341.19,-54.2523 2391.1,-40.6775 2428.12,-30.6109"/>
<polygon fill="midnightblue" stroke="midnightblue" points="2301.3,-61.4743 2292.57,-67.476 2303.13,-68.2289 2301.3,-61.4743"/>
</g>
<!-- Node32&#45;&gt;Node13 -->
<g id="edge38" class="edge"><title>Node32&#45;&gt;Node13</title>
<path fill="none" stroke="midnightblue" d="M302.849,-142.15C246.47,-135.088 170.588,-121.46 152,-98 143.444,-87.2011 142.853,-77.3036 152,-67 163.201,-54.3824 373.406,-34.09 493.186,-23.4778"/>
<polygon fill="midnightblue" stroke="midnightblue" points="302.429,-145.625 312.777,-143.352 303.27,-138.676 302.429,-145.625"/>
</g>
<!-- Node32&#45;&gt;Node24 -->
<g id="edge37" class="edge"><title>Node32&#45;&gt;Node24</title>
<path fill="none" stroke="midnightblue" d="M367,-124.25C367,-113.017 367,-100.377 367,-92.1945"/>
<polygon fill="midnightblue" stroke="midnightblue" points="363.5,-124.396 367,-134.396 370.5,-124.396 363.5,-124.396"/>
</g>
<!-- Node33&#45;&gt;Node25 -->
<g id="edge40" class="edge"><title>Node33&#45;&gt;Node25</title>
<path fill="none" stroke="midnightblue" d="M1725.08,-131.228C1756.79,-120.713 1796.78,-107.451 1826.55,-97.5765"/>
<polygon fill="midnightblue" stroke="midnightblue" points="1723.92,-127.926 1715.53,-134.396 1726.12,-134.57 1723.92,-127.926"/>
</g>
<!-- Node34&#45;&gt;Node14 -->
<g id="edge43" class="edge"><title>Node34&#45;&gt;Node14</title>
<path fill="none" stroke="midnightblue" d="M119.99,-129.521C105.782,-121.606 91.1571,-111.143 81,-98 65.4864,-77.9259 59.9852,-48.0359 58.0454,-30.582"/>
<polygon fill="midnightblue" stroke="midnightblue" points="118.734,-132.814 129.216,-134.357 121.984,-126.614 118.734,-132.814"/>
</g>
<!-- Node34&#45;&gt;Node15 -->
<g id="edge44" class="edge"><title>Node34&#45;&gt;Node15</title>
<path fill="none" stroke="midnightblue" d="M139.546,-127.411C122.088,-110.367 104.486,-86.1465 119,-67 133.95,-47.278 194.964,-33.1324 241.855,-24.918"/>
<polygon fill="midnightblue" stroke="midnightblue" points="137.209,-130.017 146.926,-134.241 141.964,-124.88 137.209,-130.017"/>
</g>
<!-- Node34&#45;&gt;Node26 -->
<g id="edge42" class="edge"><title>Node34&#45;&gt;Node26</title>
<path fill="none" stroke="midnightblue" d="M182.642,-126.447C190.281,-116.899 198.997,-106.004 205.739,-97.5765"/>
<polygon fill="midnightblue" stroke="midnightblue" points="179.797,-124.401 176.283,-134.396 185.263,-128.774 179.797,-124.401"/>
</g>
<!-- Node35&#45;&gt;Node17 -->
<g id="edge47" class="edge"><title>Node35&#45;&gt;Node17</title>
<path fill="none" stroke="midnightblue" d="M521.912,-128.905C497.889,-112.234 472.431,-87.7623 490,-67 497.84,-57.7347 648.688,-35.8578 733.791,-24.1722"/>
<polygon fill="midnightblue" stroke="midnightblue" points="520.009,-131.843 530.276,-134.458 523.88,-126.011 520.009,-131.843"/>
</g>
<!-- Node35&#45;&gt;Node27 -->
<g id="edge46" class="edge"><title>Node35&#45;&gt;Node27</title>
<path fill="none" stroke="midnightblue" d="M555,-124.108C555,-115.154 555,-105.323 555,-97.5765"/>
<polygon fill="midnightblue" stroke="midnightblue" points="551.5,-124.396 555,-134.396 558.5,-124.396 551.5,-124.396"/>
</g>
</g>
</svg>
        <g id="navigator" transform="translate(0 0)" fill="#404254">
                <rect fill="#f2f5e9" fill-opacity="0.5" stroke="#606060" stroke-width=".5" x="0" y="0" width="60" height="60"/>
                <use id="zoomplus" xlink:href="#zoomPlus" x="17" y="9" onmousedown="handleZoom(evt,'in')"/>
                <use id="zoomminus" xlink:href="#zoomMin" x="42" y="9" onmousedown="handleZoom(evt,'out')"/>
                <use id="reset" xlink:href="#resetDef" x="30" y="36" onmousedown="handleReset()"/>
                <g id="arrowUp" xlink:href="#dirArrow" transform="translate(30 24)" onmousedown="handlePan(0,-1)">
                  <use xlink:href="#rim" fill="#404040">
                        <set attributeName="fill" to="#808080" begin="arrowUp.mouseover" end="arrowUp.mouseout"/>
                  </use>
                  <path fill="none" stroke="white" stroke-width="1.5" d="M0,-3.0v7 M-2.5,-0.5L0,-3.0L2.5,-0.5"/>
                </g>
                <g id="arrowRight" xlink:href="#dirArrow" transform="rotate(90) translate(36 -43)" onmousedown="handlePan(1,0)">
                  <use xlink:href="#rim" fill="#404040">
                        <set attributeName="fill" to="#808080" begin="arrowRight.mouseover" end="arrowRight.mouseout"/>
                  </use>
                  <path fill="none" stroke="white" stroke-width="1.5" d="M0,-3.0v7 M-2.5,-0.5L0,-3.0L2.5,-0.5"/>
                </g>
                <g id="arrowDown" xlink:href="#dirArrow" transform="rotate(180) translate(-30 -48)" onmousedown="handlePan(0,1)">
                  <use xlink:href="#rim" fill="#404040">
                        <set attributeName="fill" to="#808080" begin="arrowDown.mouseover" end="arrowDown.mouseout"/>
                  </use>
                  <path fill="none" stroke="white" stroke-width="1.5" d="M0,-3.0v7 M-2.5,-0.5L0,-3.0L2.5,-0.5"/>
                </g>
                <g id="arrowLeft" xlink:href="#dirArrow" transform="rotate(270) translate(-36 17)" onmousedown="handlePan(-1,0)">
                  <use xlink:href="#rim" fill="#404040">
                        <set attributeName="fill" to="#808080" begin="arrowLeft.mouseover" end="arrowLeft.mouseout"/>
                  </use>
                  <path fill="none" stroke="white" stroke-width="1.5" d="M0,-3.0v7 M-2.5,-0.5L0,-3.0L2.5,-0.5"/>
                </g>
        </g>
        <svg viewBox="0 0 15 15" width="100%" height="30px" preserveAspectRatio="xMaxYMin meet">
         <g id="arrow_out" transform="scale(0.3 0.3)">
          <a xlink:href="ObjectsManager_8h__dep__incl_org.svg" target="_base">
           <rect id="button" ry="5" rx="5" y="6" x="6" height="38" width="38"
                fill="#f2f5e9" fill-opacity="0.5" stroke="#606060" stroke-width="1.0"/>
           <path id="arrow"
             d="M 11.500037,31.436501 C 11.940474,20.09759 22.043105,11.32322 32.158766,21.979434 L 37.068811,17.246167 C 37.068811,17.246167 37.088388,32 37.088388,32 L 22.160133,31.978069 C 22.160133,31.978069 26.997745,27.140456 26.997745,27.140456 C 18.528582,18.264221 13.291696,25.230495 11.500037,31.436501 z"
             style="fill:#404040;"/>
          </a>
         </g>
        </svg>
</svg>
