<?xml version="1.0" encoding="UTF-8" standalone="no"?>
<!DOCTYPE svg PUBLIC "-//W3C//DTD SVG 1.1//EN"
 "http://www.w3.org/Graphics/SVG/1.1/DTD/svg11.dtd">
<!-- Generated by graphviz version 2.38.0 (20140413.2041)
 -->
<!-- Title: Framework/include/QualityControl/QcInfoLogger.h Pages: 1 -->
<!--zoomable 173 -->
<svg id="main" version="1.1" xmlns="http://www.w3.org/2000/svg" xmlns:xlink="http://www.w3.org/1999/xlink" xml:space="preserve" onload="init(evt)">
<style type="text/css"><![CDATA[
.edge:hover path { stroke: red; }
.edge:hover polygon { stroke: red; fill: red; }
]]></style>
<script type="text/javascript"><![CDATA[
var edges = document.getElementsByTagName('g');
if (edges && edges.length) {
  for (var i=0;i<edges.length;i++) {
    if (edges[i].id.substr(0,4)=='edge') {
      edges[i].setAttribute('class','edge');
    }
  }
}
]]></script>
        <defs>
                <circle id="rim" cx="0" cy="0" r="7"/>
                <circle id="rim2" cx="0" cy="0" r="3.5"/>
                <g id="zoomPlus">
                        <use xlink:href="#rim" fill="#404040">
                                <set attributeName="fill" to="#808080" begin="zoomplus.mouseover" end="zoomplus.mouseout"/>
                        </use>
                        <path d="M-4,0h8M0,-4v8" fill="none" stroke="white" stroke-width="1.5" pointer-events="none"/>
                </g>
                <g id="zoomMin">
                        <use xlink:href="#rim" fill="#404040">
                                <set attributeName="fill" to="#808080" begin="zoomminus.mouseover" end="zoomminus.mouseout"/>
                        </use>
                        <path d="M-4,0h8" fill="none" stroke="white" stroke-width="1.5" pointer-events="none"/>
                </g>
                <g id="dirArrow">
                        <path fill="none" stroke="white" stroke-width="1.5" d="M0,-3.0v7 M-2.5,-0.5L0,-3.0L2.5,-0.5"/>
                </g>
               <g id="resetDef">
                       <use xlink:href="#rim2" fill="#404040">
                               <set attributeName="fill" to="#808080" begin="reset.mouseover" end="reset.mouseout"/>
                       </use>
               </g>
        </defs>

<script type="text/javascript">
var viewWidth = 2973;
var viewHeight = 173;
var sectionId = 'dynsection-1';
</script>
<script xlink:href="svgpan.js"/>
<svg id="graph" class="graph">
<g id="viewport">
<title>Framework/include/QualityControl/QcInfoLogger.h</title>
<!-- Node1 -->
<g id="node1" class="node"><title>Node1</title>
<polygon fill="#bfbfbf" stroke="black" points="1950.5,-134.5 1950.5,-164.5 2083.5,-164.5 2083.5,-134.5 1950.5,-134.5"/>
<text text-anchor="start" x="1958.5" y="-152.5" font-family="Helvetica,sans-Serif" font-size="10.00">Framework/include/Quality</text>
<text text-anchor="middle" x="2017" y="-141.5" font-family="Helvetica,sans-Serif" font-size="10.00">Control/QcInfoLogger.h</text>
</g>
<!-- Node2 -->
<g id="node2" class="node"><title>Node2</title>
<g id="a_node2"><a xlink:href="Checker_8h.html" target="_top" xlink:title="Framework/include/Quality\lControl/Checker.h">
<polygon fill="none" stroke="black" points="440.5,-67.5 440.5,-97.5 573.5,-97.5 573.5,-67.5 440.5,-67.5"/>
<text text-anchor="start" x="448.5" y="-85.5" font-family="Helvetica,sans-Serif" font-size="10.00">Framework/include/Quality</text>
<text text-anchor="middle" x="507" y="-74.5" font-family="Helvetica,sans-Serif" font-size="10.00">Control/Checker.h</text>
</a>
</g>
</g>
<!-- Node1&#45;&gt;Node2 -->
<g id="edge1" class="edge"><title>Node1&#45;&gt;Node2</title>
<path fill="none" stroke="midnightblue" d="M1939.97,-145.184C1677.45,-133.884 820.466,-96.9936 573.914,-86.3804"/>
<polygon fill="midnightblue" stroke="midnightblue" points="1940.03,-148.69 1950.17,-145.623 1940.33,-141.696 1940.03,-148.69"/>
</g>
<!-- Node8 -->
<g id="node8" class="node"><title>Node8</title>
<g id="a_node8"><a xlink:href="TaskFactory_8h.html" target="_top" xlink:title="Framework/include/Quality\lControl/TaskFactory.h">
<polygon fill="none" stroke="black" points="1237.5,-67.5 1237.5,-97.5 1370.5,-97.5 1370.5,-67.5 1237.5,-67.5"/>
<text text-anchor="start" x="1245.5" y="-85.5" font-family="Helvetica,sans-Serif" font-size="10.00">Framework/include/Quality</text>
<text text-anchor="middle" x="1304" y="-74.5" font-family="Helvetica,sans-Serif" font-size="10.00">Control/TaskFactory.h</text>
</a>
</g>
</g>
<!-- Node1&#45;&gt;Node8 -->
<g id="edge7" class="edge"><title>Node1&#45;&gt;Node8</title>
<path fill="none" stroke="midnightblue" d="M1940.07,-145.122C1820.04,-139.241 1581.11,-125.074 1380,-98 1376.94,-97.5878 1373.81,-97.1326 1370.66,-96.6455"/>
<polygon fill="midnightblue" stroke="midnightblue" points="1940.1,-148.628 1950.26,-145.616 1940.44,-141.636 1940.1,-148.628"/>
</g>
<!-- Node9 -->
<g id="node9" class="node"><title>Node9</title>
<g id="a_node9"><a xlink:href="TaskRunner_8cxx.html" target="_top" xlink:title="Framework/src/TaskRunner.cxx">
<polygon fill="none" stroke="black" points="868.5,-6 868.5,-25 1025.5,-25 1025.5,-6 868.5,-6"/>
<text text-anchor="middle" x="947" y="-13" font-family="Helvetica,sans-Serif" font-size="10.00">Framework/src/TaskRunner.cxx</text>
</a>
</g>
</g>
<!-- Node1&#45;&gt;Node9 -->
<g id="edge20" class="edge"><title>Node1&#45;&gt;Node9</title>
<path fill="none" stroke="midnightblue" d="M1939.95,-149.087C1798.14,-148.946 1486.74,-142.951 1229,-98 1130.6,-80.8384 1017.57,-42.1817 969.995,-25.0041"/>
<polygon fill="midnightblue" stroke="midnightblue" points="1940.27,-152.587 1950.27,-149.087 1940.27,-145.587 1940.27,-152.587"/>
</g>
<!-- Node16 -->
<g id="node16" class="node"><title>Node16</title>
<g id="a_node16"><a xlink:href="DatabaseFactory_8cxx.html" target="_top" xlink:title="Framework/src/DatabaseFactory.cxx">
<polygon fill="none" stroke="black" points="1388.5,-73 1388.5,-92 1567.5,-92 1567.5,-73 1388.5,-73"/>
<text text-anchor="middle" x="1478" y="-80" font-family="Helvetica,sans-Serif" font-size="10.00">Framework/src/DatabaseFactory.cxx</text>
</a>
</g>
</g>
<!-- Node1&#45;&gt;Node16 -->
<g id="edge15" class="edge"><title>Node1&#45;&gt;Node16</title>
<path fill="none" stroke="midnightblue" d="M1940.05,-140.403C1852.16,-130.983 1704.06,-114.592 1577,-98 1563.05,-96.1781 1548.01,-94.0574 1533.98,-92.0095"/>
<polygon fill="midnightblue" stroke="midnightblue" points="1939.89,-143.905 1950.21,-141.489 1940.63,-136.945 1939.89,-143.905"/>
</g>
<!-- Node17 -->
<g id="node17" class="node"><title>Node17</title>
<g id="a_node17"><a xlink:href="InformationService_8cxx.html" target="_top" xlink:title="Framework/src/Information\lService.cxx">
<polygon fill="none" stroke="black" points="1586,-67.5 1586,-97.5 1720,-97.5 1720,-67.5 1586,-67.5"/>
<text text-anchor="start" x="1594" y="-85.5" font-family="Helvetica,sans-Serif" font-size="10.00">Framework/src/Information</text>
<text text-anchor="middle" x="1653" y="-74.5" font-family="Helvetica,sans-Serif" font-size="10.00">Service.cxx</text>
</a>
</g>
</g>
<!-- Node1&#45;&gt;Node17 -->
<g id="edge16" class="edge"><title>Node1&#45;&gt;Node17</title>
<path fill="none" stroke="midnightblue" d="M1940.11,-135.228C1882.29,-125.185 1801.14,-110.956 1730,-98 1726.79,-97.415 1723.5,-96.8123 1720.18,-96.2003"/>
<polygon fill="midnightblue" stroke="midnightblue" points="1939.82,-138.729 1950.27,-136.991 1941.02,-131.832 1939.82,-138.729"/>
</g>
<!-- Node18 -->
<g id="node18" class="node"><title>Node18</title>
<g id="a_node18"><a xlink:href="MySqlDatabase_8cxx.html" target="_top" xlink:title="Framework/src/MySqlDatabase.cxx">
<polygon fill="none" stroke="black" points="1738.5,-73 1738.5,-92 1911.5,-92 1911.5,-73 1738.5,-73"/>
<text text-anchor="middle" x="1825" y="-80" font-family="Helvetica,sans-Serif" font-size="10.00">Framework/src/MySqlDatabase.cxx</text>
</a>
</g>
</g>
<!-- Node1&#45;&gt;Node18 -->
<g id="edge17" class="edge"><title>Node1&#45;&gt;Node18</title>
<path fill="none" stroke="midnightblue" d="M1965.63,-131.108C1928.27,-118.462 1879.33,-101.892 1850.13,-92.007"/>
<polygon fill="midnightblue" stroke="midnightblue" points="1964.74,-134.504 1975.34,-134.396 1966.99,-127.874 1964.74,-134.504"/>
</g>
<!-- Node19 -->
<g id="node19" class="node"><title>Node19</title>
<g id="a_node19"><a xlink:href="ObjectsManager_8cxx.html" target="_top" xlink:title="Framework/src/ObjectsManager.cxx">
<polygon fill="none" stroke="black" points="1929.5,-73 1929.5,-92 2104.5,-92 2104.5,-73 1929.5,-73"/>
<text text-anchor="middle" x="2017" y="-80" font-family="Helvetica,sans-Serif" font-size="10.00">Framework/src/ObjectsManager.cxx</text>
</a>
</g>
</g>
<!-- Node1&#45;&gt;Node19 -->
<g id="edge18" class="edge"><title>Node1&#45;&gt;Node19</title>
<path fill="none" stroke="midnightblue" d="M2017,-124.25C2017,-113.017 2017,-100.377 2017,-92.1945"/>
<polygon fill="midnightblue" stroke="midnightblue" points="2013.5,-124.396 2017,-134.396 2020.5,-124.396 2013.5,-124.396"/>
</g>
<!-- Node20 -->
<g id="node20" class="node"><title>Node20</title>
<g id="a_node20"><a xlink:href="RepositoryBenchmark_8cxx.html" target="_top" xlink:title="Framework/src/Repository\lBenchmark.cxx">
<polygon fill="none" stroke="black" points="2123,-67.5 2123,-97.5 2255,-97.5 2255,-67.5 2123,-67.5"/>
<text text-anchor="start" x="2131" y="-85.5" font-family="Helvetica,sans-Serif" font-size="10.00">Framework/src/Repository</text>
<text text-anchor="middle" x="2189" y="-74.5" font-family="Helvetica,sans-Serif" font-size="10.00">Benchmark.cxx</text>
</a>
</g>
</g>
<!-- Node1&#45;&gt;Node20 -->
<g id="edge19" class="edge"><title>Node1&#45;&gt;Node20</title>
<path fill="none" stroke="midnightblue" d="M2063.79,-130.819C2091.43,-120.371 2125.96,-107.323 2151.75,-97.5765"/>
<polygon fill="midnightblue" stroke="midnightblue" points="2062.44,-127.587 2054.32,-134.396 2064.91,-134.135 2062.44,-127.587"/>
</g>
<!-- Node21 -->
<g id="node21" class="node"><title>Node21</title>
<g id="a_node21"><a xlink:href="testQcInfoLogger_8cxx.html" target="_top" xlink:title="Framework/test/testQcInfo\lLogger.cxx">
<polygon fill="none" stroke="black" points="2273,-67.5 2273,-97.5 2407,-97.5 2407,-67.5 2273,-67.5"/>
<text text-anchor="start" x="2281" y="-85.5" font-family="Helvetica,sans-Serif" font-size="10.00">Framework/test/testQcInfo</text>
<text text-anchor="middle" x="2340" y="-74.5" font-family="Helvetica,sans-Serif" font-size="10.00">Logger.cxx</text>
</a>
</g>
</g>
<!-- Node1&#45;&gt;Node21 -->
<g id="edge21" class="edge"><title>Node1&#45;&gt;Node21</title>
<path fill="none" stroke="midnightblue" d="M2093.5,-133.105C2148.06,-122.126 2220.72,-107.504 2273,-96.9835"/>
<polygon fill="midnightblue" stroke="midnightblue" points="2092.65,-129.707 2083.53,-135.111 2094.03,-136.569 2092.65,-129.707"/>
</g>
<!-- Node22 -->
<g id="node22" class="node"><title>Node22</title>
<g id="a_node22"><a xlink:href="DaqTask_8cxx.html" target="_top" xlink:title="Modules/Daq/src/DaqTask.cxx">
<polygon fill="none" stroke="black" points="2425,-73 2425,-92 2577,-92 2577,-73 2425,-73"/>
<text text-anchor="middle" x="2501" y="-80" font-family="Helvetica,sans-Serif" font-size="10.00">Modules/Daq/src/DaqTask.cxx</text>
</a>
</g>
</g>
<!-- Node1&#45;&gt;Node22 -->
<g id="edge22" class="edge"><title>Node1&#45;&gt;Node22</title>
<path fill="none" stroke="midnightblue" d="M2093.88,-139.765C2174.33,-130.392 2304.23,-114.598 2416,-98 2427.99,-96.2188 2440.91,-94.1131 2452.96,-92.0666"/>
<polygon fill="midnightblue" stroke="midnightblue" points="2093.36,-136.301 2083.84,-140.932 2094.17,-143.255 2093.36,-136.301"/>
</g>
<!-- Node23 -->
<g id="node23" class="node"><title>Node23</title>
<g id="a_node23"><a xlink:href="BenchmarkTask_8cxx.html" target="_top" xlink:title="Modules/Example/src\l/BenchmarkTask.cxx">
<polygon fill="none" stroke="black" points="2595.5,-67.5 2595.5,-97.5 2706.5,-97.5 2706.5,-67.5 2595.5,-67.5"/>
<text text-anchor="start" x="2603.5" y="-85.5" font-family="Helvetica,sans-Serif" font-size="10.00">Modules/Example/src</text>
<text text-anchor="middle" x="2651" y="-74.5" font-family="Helvetica,sans-Serif" font-size="10.00">/BenchmarkTask.cxx</text>
</a>
</g>
</g>
<!-- Node1&#45;&gt;Node23 -->
<g id="edge23" class="edge"><title>Node1&#45;&gt;Node23</title>
<path fill="none" stroke="midnightblue" d="M2094.24,-144.859C2204.03,-138.954 2411.32,-125.116 2586,-98 2589.08,-97.5211 2592.24,-96.982 2595.42,-96.4006"/>
<polygon fill="midnightblue" stroke="midnightblue" points="2093.72,-141.381 2083.92,-145.405 2094.09,-148.371 2093.72,-141.381"/>
</g>
<!-- Node24 -->
<g id="node24" class="node"><title>Node24</title>
<g id="a_node24"><a xlink:href="ExampleTask_8cxx.html" target="_top" xlink:title="Modules/Example/src\l/ExampleTask.cxx">
<polygon fill="none" stroke="black" points="2724.5,-67.5 2724.5,-97.5 2835.5,-97.5 2835.5,-67.5 2724.5,-67.5"/>
<text text-anchor="start" x="2732.5" y="-85.5" font-family="Helvetica,sans-Serif" font-size="10.00">Modules/Example/src</text>
<text text-anchor="middle" x="2780" y="-74.5" font-family="Helvetica,sans-Serif" font-size="10.00">/ExampleTask.cxx</text>
</a>
</g>
</g>
<!-- Node1&#45;&gt;Node24 -->
<g id="edge24" class="edge"><title>Node1&#45;&gt;Node24</title>
<path fill="none" stroke="midnightblue" d="M2094.06,-146.724C2223.29,-142.899 2491.61,-131.331 2716,-98 2718.7,-97.5983 2721.46,-97.1444 2724.25,-96.6517"/>
<polygon fill="midnightblue" stroke="midnightblue" points="2093.76,-143.231 2083.87,-147.018 2093.96,-150.228 2093.76,-143.231"/>
</g>
<!-- Node25 -->
<g id="node25" class="node"><title>Node25</title>
<g id="a_node25"><a xlink:href="SkeletonTask_8cxx.html" target="_top" xlink:title="Modules/Skeleton/src\l/SkeletonTask.cxx">
<polygon fill="none" stroke="black" points="2853.5,-67.5 2853.5,-97.5 2964.5,-97.5 2964.5,-67.5 2853.5,-67.5"/>
<text text-anchor="start" x="2861.5" y="-85.5" font-family="Helvetica,sans-Serif" font-size="10.00">Modules/Skeleton/src</text>
<text text-anchor="middle" x="2909" y="-74.5" font-family="Helvetica,sans-Serif" font-size="10.00">/SkeletonTask.cxx</text>
</a>
</g>
</g>
<!-- Node1&#45;&gt;Node25 -->
<g id="edge25" class="edge"><title>Node1&#45;&gt;Node25</title>
<path fill="none" stroke="midnightblue" d="M2093.89,-147.955C2240.65,-146 2570.54,-137.197 2845,-98 2847.71,-97.6134 2850.47,-97.1719 2853.25,-96.6891"/>
<polygon fill="midnightblue" stroke="midnightblue" points="2093.6,-144.458 2083.64,-148.084 2093.69,-151.458 2093.6,-144.458"/>
</g>
<!-- Node3 -->
<g id="node3" class="node"><title>Node3</title>
<g id="a_node3"><a xlink:href="Checker_8cxx.html" target="_top" xlink:title="Framework/src/Checker.cxx">
<polygon fill="none" stroke="black" points="0,-6 0,-25 140,-25 140,-6 0,-6"/>
<text text-anchor="middle" x="70" y="-13" font-family="Helvetica,sans-Serif" font-size="10.00">Framework/src/Checker.cxx</text>
</a>
</g>
</g>
<!-- Node2&#45;&gt;Node3 -->
<g id="edge2" class="edge"><title>Node2&#45;&gt;Node3</title>
<path fill="none" stroke="midnightblue" d="M430.259,-71.6095C357.673,-62.0334 245.751,-46.696 149,-31 137.851,-29.1912 125.848,-27.0755 114.648,-25.028"/>
<polygon fill="midnightblue" stroke="midnightblue" points="429.863,-75.0875 440.235,-72.9219 430.777,-68.1473 429.863,-75.0875"/>
</g>
<!-- Node4 -->
<g id="node4" class="node"><title>Node4</title>
<g id="a_node4"><a xlink:href="CheckerFactory_8cxx.html" target="_top" xlink:title="Framework/src/CheckerFactory.cxx">
<polygon fill="none" stroke="black" points="158.5,-6 158.5,-25 331.5,-25 331.5,-6 158.5,-6"/>
<text text-anchor="middle" x="245" y="-13" font-family="Helvetica,sans-Serif" font-size="10.00">Framework/src/CheckerFactory.cxx</text>
</a>
</g>
</g>
<!-- Node2&#45;&gt;Node4 -->
<g id="edge3" class="edge"><title>Node2&#45;&gt;Node4</title>
<path fill="none" stroke="midnightblue" d="M440.452,-64.9899C389.106,-52.2516 320.167,-35.1484 279.377,-25.0287"/>
<polygon fill="midnightblue" stroke="midnightblue" points="439.924,-68.465 450.472,-67.476 441.609,-61.671 439.924,-68.465"/>
</g>
<!-- Node5 -->
<g id="node5" class="node"><title>Node5</title>
<g id="a_node5"><a xlink:href="runBasic_8cxx.html" target="_top" xlink:title="This is an executable showing QC Task&#39;s usage in Data Processing Layer. ">
<polygon fill="none" stroke="black" points="350,-6 350,-25 492,-25 492,-6 350,-6"/>
<text text-anchor="middle" x="421" y="-13" font-family="Helvetica,sans-Serif" font-size="10.00">Framework/src/runBasic.cxx</text>
</a>
</g>
</g>
<!-- Node2&#45;&gt;Node5 -->
<g id="edge4" class="edge"><title>Node2&#45;&gt;Node5</title>
<path fill="none" stroke="midnightblue" d="M480.33,-61.3425C464.281,-49.2128 444.668,-34.389 432.504,-25.1945"/>
<polygon fill="midnightblue" stroke="midnightblue" points="478.251,-64.1585 488.339,-67.396 482.472,-58.5741 478.251,-64.1585"/>
</g>
<!-- Node6 -->
<g id="node6" class="node"><title>Node6</title>
<g id="a_node6"><a xlink:href="runMergerTest_8cxx.html" target="_top" xlink:title="This is DPL workflow to see HistoMerger in action. ">
<polygon fill="none" stroke="black" points="510.5,-6 510.5,-25 677.5,-25 677.5,-6 510.5,-6"/>
<text text-anchor="middle" x="594" y="-13" font-family="Helvetica,sans-Serif" font-size="10.00">Framework/src/runMergerTest.cxx</text>
</a>
</g>
</g>
<!-- Node2&#45;&gt;Node6 -->
<g id="edge5" class="edge"><title>Node2&#45;&gt;Node6</title>
<path fill="none" stroke="midnightblue" d="M533.98,-61.3425C550.215,-49.2128 570.056,-34.389 582.363,-25.1945"/>
<polygon fill="midnightblue" stroke="midnightblue" points="531.794,-58.6068 525.878,-67.396 535.984,-64.2145 531.794,-58.6068"/>
</g>
<!-- Node7 -->
<g id="node7" class="node"><title>Node7</title>
<g id="a_node7"><a xlink:href="runReadout_8cxx.html" target="_top" xlink:title="This is an executable showing QC Task&#39;s usage in Data Processing Layer with Readout as external data ...">
<polygon fill="none" stroke="black" points="696,-6 696,-25 850,-25 850,-6 696,-6"/>
<text text-anchor="middle" x="773" y="-13" font-family="Helvetica,sans-Serif" font-size="10.00">Framework/src/runReadout.cxx</text>
</a>
</g>
</g>
<!-- Node2&#45;&gt;Node7 -->
<g id="edge6" class="edge"><title>Node2&#45;&gt;Node7</title>
<path fill="none" stroke="midnightblue" d="M574.239,-65.0694C626.402,-52.3228 696.599,-35.1694 738.098,-25.0287"/>
<polygon fill="midnightblue" stroke="midnightblue" points="573.274,-61.7022 564.391,-67.476 574.936,-68.5021 573.274,-61.7022"/>
</g>
<!-- Node8&#45;&gt;Node9 -->
<g id="edge8" class="edge"><title>Node8&#45;&gt;Node9</title>
<path fill="none" stroke="midnightblue" d="M1227.04,-67.4883C1156.09,-54.5702 1053.07,-35.8126 993.776,-25.0167"/>
<polygon fill="midnightblue" stroke="midnightblue" points="1226.8,-71.0023 1237.27,-69.3502 1228.06,-64.1155 1226.8,-71.0023"/>
</g>
<!-- Node10 -->
<g id="node10" class="node"><title>Node10</title>
<g id="a_node10"><a xlink:href="testQCTask_8cxx.html" target="_top" xlink:title="Framework/test/testQCTask.cxx">
<polygon fill="none" stroke="black" points="1044,-6 1044,-25 1204,-25 1204,-6 1044,-6"/>
<text text-anchor="middle" x="1124" y="-13" font-family="Helvetica,sans-Serif" font-size="10.00">Framework/test/testQCTask.cxx</text>
</a>
</g>
</g>
<!-- Node8&#45;&gt;Node10 -->
<g id="edge9" class="edge"><title>Node8&#45;&gt;Node10</title>
<path fill="none" stroke="midnightblue" d="M1255.39,-63.9459C1220.43,-51.3213 1174.82,-34.8502 1147.56,-25.007"/>
<polygon fill="midnightblue" stroke="midnightblue" points="1254.35,-67.2914 1264.94,-67.396 1256.73,-60.7075 1254.35,-67.2914"/>
</g>
<!-- Node11 -->
<g id="node11" class="node"><title>Node11</title>
<g id="a_node11"><a xlink:href="testQcDaq_8cxx.html" target="_top" xlink:title="Modules/Daq/test/testQcDaq.cxx">
<polygon fill="none" stroke="black" points="1222.5,-6 1222.5,-25 1385.5,-25 1385.5,-6 1222.5,-6"/>
<text text-anchor="middle" x="1304" y="-13" font-family="Helvetica,sans-Serif" font-size="10.00">Modules/Daq/test/testQcDaq.cxx</text>
</a>
</g>
</g>
<!-- Node8&#45;&gt;Node11 -->
<g id="edge10" class="edge"><title>Node8&#45;&gt;Node11</title>
<path fill="none" stroke="midnightblue" d="M1304,-57.2495C1304,-46.017 1304,-33.3767 1304,-25.1945"/>
<polygon fill="midnightblue" stroke="midnightblue" points="1300.5,-57.3959 1304,-67.396 1307.5,-57.396 1300.5,-57.3959"/>
</g>
<!-- Node12 -->
<g id="node12" class="node"><title>Node12</title>
<polygon fill="none" stroke="#bfbfbf" points="1404,-0.5 1404,-30.5 1518,-30.5 1518,-0.5 1404,-0.5"/>
<text text-anchor="start" x="1412" y="-18.5" font-family="Helvetica,sans-Serif" font-size="10.00">Modules/Example/test</text>
<text text-anchor="middle" x="1461" y="-7.5" font-family="Helvetica,sans-Serif" font-size="10.00">/testFactory.cxx</text>
</g>
<!-- Node8&#45;&gt;Node12 -->
<g id="edge11" class="edge"><title>Node8&#45;&gt;Node12</title>
<path fill="none" stroke="midnightblue" d="M1347.37,-63.5442C1372.49,-53.143 1403.66,-40.238 1427,-30.5765"/>
<polygon fill="midnightblue" stroke="midnightblue" points="1345.97,-60.3368 1338.07,-67.396 1348.64,-66.8045 1345.97,-60.3368"/>
</g>
<!-- Node13 -->
<g id="node13" class="node"><title>Node13</title>
<g id="a_node13"><a xlink:href="testQcExample_8cxx.html" target="_top" xlink:title="Modules/Example/test\l/testQcExample.cxx">
<polygon fill="none" stroke="black" points="1536,-0.5 1536,-30.5 1650,-30.5 1650,-0.5 1536,-0.5"/>
<text text-anchor="start" x="1544" y="-18.5" font-family="Helvetica,sans-Serif" font-size="10.00">Modules/Example/test</text>
<text text-anchor="middle" x="1593" y="-7.5" font-family="Helvetica,sans-Serif" font-size="10.00">/testQcExample.cxx</text>
</a>
</g>
</g>
<!-- Node8&#45;&gt;Node13 -->
<g id="edge12" class="edge"><title>Node8&#45;&gt;Node13</title>
<path fill="none" stroke="midnightblue" d="M1376.31,-65.2362C1425.58,-54.1539 1489.93,-39.6822 1535.67,-29.3949"/>
<polygon fill="midnightblue" stroke="midnightblue" points="1375.34,-61.8669 1366.35,-67.476 1376.88,-68.6963 1375.34,-61.8669"/>
</g>
<!-- Node14 -->
<g id="node14" class="node"><title>Node14</title>
<polygon fill="none" stroke="#bfbfbf" points="1668,-0.5 1668,-30.5 1782,-30.5 1782,-0.5 1668,-0.5"/>
<text text-anchor="start" x="1676" y="-18.5" font-family="Helvetica,sans-Serif" font-size="10.00">Modules/Skeleton/test</text>
<text text-anchor="middle" x="1725" y="-7.5" font-family="Helvetica,sans-Serif" font-size="10.00">/.testEmpty.cxx</text>
</g>
<!-- Node8&#45;&gt;Node14 -->
<g id="edge13" class="edge"><title>Node8&#45;&gt;Node14</title>
<path fill="none" stroke="midnightblue" d="M1380.61,-66.9717C1505.16,-47.5202 1538.95,-51.8907 1659,-31 1661.89,-30.4972 1664.84,-29.9543 1667.82,-29.3839"/>
<polygon fill="midnightblue" stroke="midnightblue" points="1380.02,-63.5218 1370.69,-68.5414 1381.11,-70.4358 1380.02,-63.5218"/>
</g>
<!-- Node15 -->
<g id="node15" class="node"><title>Node15</title>
<g id="a_node15"><a xlink:href="testQcSkeleton_8cxx.html" target="_top" xlink:title="Modules/Skeleton/test\l/testQcSkeleton.cxx">
<polygon fill="none" stroke="black" points="1800,-0.5 1800,-30.5 1914,-30.5 1914,-0.5 1800,-0.5"/>
<text text-anchor="start" x="1808" y="-18.5" font-family="Helvetica,sans-Serif" font-size="10.00">Modules/Skeleton/test</text>
<text text-anchor="middle" x="1857" y="-7.5" font-family="Helvetica,sans-Serif" font-size="10.00">/testQcSkeleton.cxx</text>
</a>
</g>
</g>
<!-- Node8&#45;&gt;Node15 -->
<g id="edge14" class="edge"><title>Node8&#45;&gt;Node15</title>
<path fill="none" stroke="midnightblue" d="M1380.6,-67.023C1563.36,-42.3675 1612.93,-58.2434 1791,-31 1793.9,-30.5565 1796.86,-30.0612 1799.85,-29.5287"/>
<polygon fill="midnightblue" stroke="midnightblue" points="1380.1,-63.5597 1370.66,-68.3859 1381.05,-70.4948 1380.1,-63.5597"/>
</g>
</g>
</svg>
        <g id="navigator" transform="translate(0 0)" fill="#404254">
                <rect fill="#f2f5e9" fill-opacity="0.5" stroke="#606060" stroke-width=".5" x="0" y="0" width="60" height="60"/>
                <use id="zoomplus" xlink:href="#zoomPlus" x="17" y="9" onmousedown="handleZoom(evt,'in')"/>
                <use id="zoomminus" xlink:href="#zoomMin" x="42" y="9" onmousedown="handleZoom(evt,'out')"/>
                <use id="reset" xlink:href="#resetDef" x="30" y="36" onmousedown="handleReset()"/>
                <g id="arrowUp" xlink:href="#dirArrow" transform="translate(30 24)" onmousedown="handlePan(0,-1)">
                  <use xlink:href="#rim" fill="#404040">
                        <set attributeName="fill" to="#808080" begin="arrowUp.mouseover" end="arrowUp.mouseout"/>
                  </use>
                  <path fill="none" stroke="white" stroke-width="1.5" d="M0,-3.0v7 M-2.5,-0.5L0,-3.0L2.5,-0.5"/>
                </g>
                <g id="arrowRight" xlink:href="#dirArrow" transform="rotate(90) translate(36 -43)" onmousedown="handlePan(1,0)">
                  <use xlink:href="#rim" fill="#404040">
                        <set attributeName="fill" to="#808080" begin="arrowRight.mouseover" end="arrowRight.mouseout"/>
                  </use>
                  <path fill="none" stroke="white" stroke-width="1.5" d="M0,-3.0v7 M-2.5,-0.5L0,-3.0L2.5,-0.5"/>
                </g>
                <g id="arrowDown" xlink:href="#dirArrow" transform="rotate(180) translate(-30 -48)" onmousedown="handlePan(0,1)">
                  <use xlink:href="#rim" fill="#404040">
                        <set attributeName="fill" to="#808080" begin="arrowDown.mouseover" end="arrowDown.mouseout"/>
                  </use>
                  <path fill="none" stroke="white" stroke-width="1.5" d="M0,-3.0v7 M-2.5,-0.5L0,-3.0L2.5,-0.5"/>
                </g>
                <g id="arrowLeft" xlink:href="#dirArrow" transform="rotate(270) translate(-36 17)" onmousedown="handlePan(-1,0)">
                  <use xlink:href="#rim" fill="#404040">
                        <set attributeName="fill" to="#808080" begin="arrowLeft.mouseover" end="arrowLeft.mouseout"/>
                  </use>
                  <path fill="none" stroke="white" stroke-width="1.5" d="M0,-3.0v7 M-2.5,-0.5L0,-3.0L2.5,-0.5"/>
                </g>
        </g>
        <svg viewBox="0 0 15 15" width="100%" height="30px" preserveAspectRatio="xMaxYMin meet">
         <g id="arrow_out" transform="scale(0.3 0.3)">
          <a xlink:href="QcInfoLogger_8h__dep__incl_org.svg" target="_base">
           <rect id="button" ry="5" rx="5" y="6" x="6" height="38" width="38"
                fill="#f2f5e9" fill-opacity="0.5" stroke="#606060" stroke-width="1.0"/>
           <path id="arrow"
             d="M 11.500037,31.436501 C 11.940474,20.09759 22.043105,11.32322 32.158766,21.979434 L 37.068811,17.246167 C 37.068811,17.246167 37.088388,32 37.088388,32 L 22.160133,31.978069 C 22.160133,31.978069 26.997745,27.140456 26.997745,27.140456 C 18.528582,18.264221 13.291696,25.230495 11.500037,31.436501 z"
             style="fill:#404040;"/>
          </a>
         </g>
        </svg>
</svg>
