<?xml version="1.0" encoding="UTF-8" standalone="no"?>
<!DOCTYPE svg PUBLIC "-//W3C//DTD SVG 1.1//EN"
 "http://www.w3.org/Graphics/SVG/1.1/DTD/svg11.dtd">
<!-- Generated by graphviz version 2.38.0 (20140413.2041)
 -->
<!-- Title: Framework/include/QualityControl/QcInfoLogger.h Pages: 1 -->
<!--zoomable 319 -->
<svg id="main" version="1.1" xmlns="http://www.w3.org/2000/svg" xmlns:xlink="http://www.w3.org/1999/xlink" xml:space="preserve" onload="init(evt)">
<style type="text/css"><![CDATA[
.edge:hover path { stroke: red; }
.edge:hover polygon { stroke: red; fill: red; }
]]></style>
<script type="text/javascript"><![CDATA[
var edges = document.getElementsByTagName('g');
if (edges && edges.length) {
  for (var i=0;i<edges.length;i++) {
    if (edges[i].id.substr(0,4)=='edge') {
      edges[i].setAttribute('class','edge');
    }
  }
}
]]></script>
        <defs>
                <circle id="rim" cx="0" cy="0" r="7"/>
                <circle id="rim2" cx="0" cy="0" r="3.5"/>
                <g id="zoomPlus">
                        <use xlink:href="#rim" fill="#404040">
                                <set attributeName="fill" to="#808080" begin="zoomplus.mouseover" end="zoomplus.mouseout"/>
                        </use>
                        <path d="M-4,0h8M0,-4v8" fill="none" stroke="white" stroke-width="1.5" pointer-events="none"/>
                </g>
                <g id="zoomMin">
                        <use xlink:href="#rim" fill="#404040">
                                <set attributeName="fill" to="#808080" begin="zoomminus.mouseover" end="zoomminus.mouseout"/>
                        </use>
                        <path d="M-4,0h8" fill="none" stroke="white" stroke-width="1.5" pointer-events="none"/>
                </g>
                <g id="dirArrow">
                        <path fill="none" stroke="white" stroke-width="1.5" d="M0,-3.0v7 M-2.5,-0.5L0,-3.0L2.5,-0.5"/>
                </g>
               <g id="resetDef">
                       <use xlink:href="#rim2" fill="#404040">
                               <set attributeName="fill" to="#808080" begin="reset.mouseover" end="reset.mouseout"/>
                       </use>
               </g>
        </defs>

<script type="text/javascript">
var viewWidth = 1201;
var viewHeight = 319;
var sectionId = 'dynsection-0';
</script>
<script xlink:href="svgpan.js"/>
<svg id="graph" class="graph">
<g id="viewport">
<title>Framework/include/QualityControl/QcInfoLogger.h</title>
<!-- Node1 -->
<g id="node1" class="node"><title>Node1</title>
<polygon fill="#bfbfbf" stroke="black" points="968,-280.5 968,-310.5 1101,-310.5 1101,-280.5 968,-280.5"/>
<text text-anchor="start" x="976" y="-298.5" font-family="Helvetica,sans-Serif" font-size="10.00">Framework/include/Quality</text>
<text text-anchor="middle" x="1034.5" y="-287.5" font-family="Helvetica,sans-Serif" font-size="10.00">Control/QcInfoLogger.h</text>
</g>
<!-- Node2 -->
<g id="node2" class="node"><title>Node2</title>
<g id="a_node2"><a xlink:href="TaskInterface_8h.html" target="_top" xlink:title="TaskInterface.h">
<polygon fill="none" stroke="black" points="408,-224.5 408,-243.5 493,-243.5 493,-224.5 408,-224.5"/>
<text text-anchor="middle" x="450.5" y="-231.5" font-family="Helvetica,sans-Serif" font-size="10.00">TaskInterface.h</text>
</a>
</g>
</g>
<!-- Node1&#45;&gt;Node2 -->
<g id="edge1" class="edge"><title>Node1&#45;&gt;Node2</title>
<path fill="none" stroke="midnightblue" d="M967.792,-287.704C850.634,-275.767 610.23,-251.274 503.531,-240.403"/>
<polygon fill="midnightblue" stroke="midnightblue" points="503.629,-236.895 493.326,-239.363 502.92,-243.859 503.629,-236.895"/>
</g>
<!-- Node10 -->
<g id="node10" class="node"><title>Node10</title>
<polygon fill="none" stroke="#bfbfbf" points="1005.5,-56.5 1005.5,-75.5 1059.5,-75.5 1059.5,-56.5 1005.5,-56.5"/>
<text text-anchor="middle" x="1032.5" y="-63.5" font-family="Helvetica,sans-Serif" font-size="10.00">iostream</text>
</g>
<!-- Node1&#45;&gt;Node10 -->
<g id="edge25" class="edge"><title>Node1&#45;&gt;Node10</title>
<path fill="none" stroke="midnightblue" d="M1034.37,-280.269C1034.03,-240.895 1033.06,-130.487 1032.67,-85.9655"/>
<polygon fill="midnightblue" stroke="midnightblue" points="1036.17,-85.8958 1032.58,-75.927 1029.17,-85.9574 1036.17,-85.8958"/>
</g>
<!-- Node21 -->
<g id="node21" class="node"><title>Node21</title>
<polygon fill="none" stroke="#bfbfbf" points="1062.5,-224.5 1062.5,-243.5 1192.5,-243.5 1192.5,-224.5 1062.5,-224.5"/>
<text text-anchor="middle" x="1127.5" y="-231.5" font-family="Helvetica,sans-Serif" font-size="10.00">InfoLogger/InfoLogger.hxx</text>
</g>
<!-- Node1&#45;&gt;Node21 -->
<g id="edge24" class="edge"><title>Node1&#45;&gt;Node21</title>
<path fill="none" stroke="midnightblue" d="M1056.54,-280.399C1071.31,-270.951 1090.68,-258.559 1105.45,-249.109"/>
<polygon fill="midnightblue" stroke="midnightblue" points="1107.43,-251.995 1113.97,-243.658 1103.66,-246.099 1107.43,-251.995"/>
</g>
<!-- Node3 -->
<g id="node3" class="node"><title>Node3</title>
<polygon fill="none" stroke="#bfbfbf" points="709.5,-168.5 709.5,-187.5 761.5,-187.5 761.5,-168.5 709.5,-168.5"/>
<text text-anchor="middle" x="735.5" y="-175.5" font-family="Helvetica,sans-Serif" font-size="10.00">memory</text>
</g>
<!-- Node2&#45;&gt;Node3 -->
<g id="edge2" class="edge"><title>Node2&#45;&gt;Node3</title>
<path fill="none" stroke="midnightblue" d="M493.154,-226.304C541.022,-218.572 621.198,-204.973 699.185,-188.164"/>
<polygon fill="midnightblue" stroke="midnightblue" points="700.149,-191.536 709.176,-185.99 698.661,-184.697 700.149,-191.536"/>
</g>
<!-- Node4 -->
<g id="node4" class="node"><title>Node4</title>
<polygon fill="none" stroke="#bfbfbf" points="0,-168.5 0,-187.5 49,-187.5 49,-168.5 0,-168.5"/>
<text text-anchor="middle" x="24.5" y="-175.5" font-family="Helvetica,sans-Serif" font-size="10.00">cassert</text>
</g>
<!-- Node2&#45;&gt;Node4 -->
<g id="edge3" class="edge"><title>Node2&#45;&gt;Node4</title>
<path fill="none" stroke="midnightblue" d="M407.724,-230.244C336.95,-225.22 190.962,-212.892 59.1398,-188.077"/>
<polygon fill="midnightblue" stroke="midnightblue" points="59.7506,-184.63 49.2713,-186.19 58.4362,-191.506 59.7506,-184.63"/>
</g>
<!-- Node5 -->
<g id="node5" class="node"><title>Node5</title>
<polygon fill="none" stroke="#bfbfbf" points="67,-168.5 67,-187.5 192,-187.5 192,-168.5 67,-168.5"/>
<text text-anchor="middle" x="129.5" y="-175.5" font-family="Helvetica,sans-Serif" font-size="10.00">Framework/InitContext.h</text>
</g>
<!-- Node2&#45;&gt;Node5 -->
<g id="edge4" class="edge"><title>Node2&#45;&gt;Node5</title>
<path fill="none" stroke="midnightblue" d="M407.874,-225.829C352.024,-216.434 253.735,-199.899 190.145,-189.202"/>
<polygon fill="midnightblue" stroke="midnightblue" points="190.691,-185.745 180.249,-187.537 189.529,-192.648 190.691,-185.745"/>
</g>
<!-- Node6 -->
<g id="node6" class="node"><title>Node6</title>
<polygon fill="none" stroke="#bfbfbf" points="210.5,-168.5 210.5,-187.5 370.5,-187.5 370.5,-168.5 210.5,-168.5"/>
<text text-anchor="middle" x="290.5" y="-175.5" font-family="Helvetica,sans-Serif" font-size="10.00">Framework/ProcessingContext.h</text>
</g>
<!-- Node2&#45;&gt;Node6 -->
<g id="edge5" class="edge"><title>Node2&#45;&gt;Node6</title>
<path fill="none" stroke="midnightblue" d="M425.148,-224.444C398.231,-215.359 355.504,-200.939 325.413,-190.783"/>
<polygon fill="midnightblue" stroke="midnightblue" points="326.328,-187.398 315.734,-187.516 324.09,-194.031 326.328,-187.398"/>
</g>
<!-- Node7 -->
<g id="node7" class="node"><title>Node7</title>
<g id="a_node7"><a xlink:href="Activity_8h.html" target="_top" xlink:title="QualityControl/Activity.h">
<polygon fill="none" stroke="black" points="389,-168.5 389,-187.5 512,-187.5 512,-168.5 389,-168.5"/>
<text text-anchor="middle" x="450.5" y="-175.5" font-family="Helvetica,sans-Serif" font-size="10.00">QualityControl/Activity.h</text>
</a>
</g>
</g>
<!-- Node2&#45;&gt;Node7 -->
<g id="edge6" class="edge"><title>Node2&#45;&gt;Node7</title>
<path fill="none" stroke="midnightblue" d="M450.5,-224.083C450.5,-217.006 450.5,-206.861 450.5,-197.986"/>
<polygon fill="midnightblue" stroke="midnightblue" points="454,-197.751 450.5,-187.751 447,-197.751 454,-197.751"/>
</g>
<!-- Node8 -->
<g id="node8" class="node"><title>Node8</title>
<g id="a_node8"><a xlink:href="ObjectsManager_8h.html" target="_top" xlink:title="QualityControl/ObjectsManager.h">
<polygon fill="none" stroke="black" points="530,-168.5 530,-187.5 691,-187.5 691,-168.5 530,-168.5"/>
<text text-anchor="middle" x="610.5" y="-175.5" font-family="Helvetica,sans-Serif" font-size="10.00">QualityControl/ObjectsManager.h</text>
</a>
</g>
</g>
<!-- Node2&#45;&gt;Node8 -->
<g id="edge7" class="edge"><title>Node2&#45;&gt;Node8</title>
<path fill="none" stroke="midnightblue" d="M475.852,-224.444C502.769,-215.359 545.496,-200.939 575.587,-190.783"/>
<polygon fill="midnightblue" stroke="midnightblue" points="576.91,-194.031 585.266,-187.516 574.672,-187.398 576.91,-194.031"/>
</g>
<!-- Node9 -->
<g id="node9" class="node"><title>Node9</title>
<g id="a_node9"><a xlink:href="MonitorObject_8h.html" target="_top" xlink:title="QualityControl/MonitorObject.h">
<polygon fill="none" stroke="black" points="855,-112.5 855,-131.5 1006,-131.5 1006,-112.5 855,-112.5"/>
<text text-anchor="middle" x="930.5" y="-119.5" font-family="Helvetica,sans-Serif" font-size="10.00">QualityControl/MonitorObject.h</text>
</a>
</g>
</g>
<!-- Node8&#45;&gt;Node9 -->
<g id="edge8" class="edge"><title>Node8&#45;&gt;Node9</title>
<path fill="none" stroke="midnightblue" d="M661.205,-168.444C717.847,-158.885 809.496,-143.419 869.879,-133.23"/>
<polygon fill="midnightblue" stroke="midnightblue" points="870.754,-136.632 880.032,-131.516 869.589,-129.729 870.754,-136.632"/>
</g>
<!-- Node14 -->
<g id="node14" class="node"><title>Node14</title>
<g id="a_node14"><a xlink:href="Quality_8h.html" target="_top" xlink:title="QualityControl/Quality.h">
<polygon fill="none" stroke="black" points="628,-56.5 628,-75.5 749,-75.5 749,-56.5 628,-56.5"/>
<text text-anchor="middle" x="688.5" y="-63.5" font-family="Helvetica,sans-Serif" font-size="10.00">QualityControl/Quality.h</text>
</a>
</g>
</g>
<!-- Node8&#45;&gt;Node14 -->
<g id="edge17" class="edge"><title>Node8&#45;&gt;Node14</title>
<path fill="none" stroke="midnightblue" d="M580.77,-168.451C548.531,-157.658 504.102,-137.397 523.5,-112 535.463,-96.3378 579.387,-84.8186 618.909,-77.3572"/>
<polygon fill="midnightblue" stroke="midnightblue" points="619.629,-80.7836 628.84,-75.5476 618.374,-73.897 619.629,-80.7836"/>
</g>
<!-- Node16 -->
<g id="node16" class="node"><title>Node16</title>
<polygon fill="none" stroke="#bfbfbf" points="505,-0.5 505,-19.5 546,-19.5 546,-0.5 505,-0.5"/>
<text text-anchor="middle" x="525.5" y="-7.5" font-family="Helvetica,sans-Serif" font-size="10.00">string</text>
</g>
<!-- Node8&#45;&gt;Node16 -->
<g id="edge23" class="edge"><title>Node8&#45;&gt;Node16</title>
<path fill="none" stroke="midnightblue" d="M576.09,-168.474C535.045,-156.113 469.135,-128.691 446.5,-76 435.324,-49.9839 468.704,-31.163 495.481,-20.665"/>
<polygon fill="midnightblue" stroke="midnightblue" points="496.779,-23.9169 504.952,-17.1759 494.359,-17.3484 496.779,-23.9169"/>
</g>
<!-- Node17 -->
<g id="node17" class="node"><title>Node17</title>
<g id="a_node17"><a xlink:href="TaskConfig_8h.html" target="_top" xlink:title="QualityControl/TaskConfig.h">
<polygon fill="none" stroke="black" points="455.5,-56.5 455.5,-75.5 595.5,-75.5 595.5,-56.5 455.5,-56.5"/>
<text text-anchor="middle" x="525.5" y="-63.5" font-family="Helvetica,sans-Serif" font-size="10.00">QualityControl/TaskConfig.h</text>
</a>
</g>
</g>
<!-- Node8&#45;&gt;Node17 -->
<g id="edge18" class="edge"><title>Node8&#45;&gt;Node17</title>
<path fill="none" stroke="midnightblue" d="M569.029,-168.497C548.914,-162.06 526.547,-150.952 514.5,-132 505.595,-117.992 510.311,-98.9934 516.072,-85.1553"/>
<polygon fill="midnightblue" stroke="midnightblue" points="519.406,-86.2881 520.473,-75.7471 513.065,-83.322 519.406,-86.2881"/>
</g>
<!-- Node18 -->
<g id="node18" class="node"><title>Node18</title>
<polygon fill="none" stroke="#bfbfbf" points="532,-112.5 532,-131.5 601,-131.5 601,-112.5 532,-112.5"/>
<text text-anchor="middle" x="566.5" y="-119.5" font-family="Helvetica,sans-Serif" font-size="10.00">TObjArray.h</text>
</g>
<!-- Node8&#45;&gt;Node18 -->
<g id="edge20" class="edge"><title>Node8&#45;&gt;Node18</title>
<path fill="none" stroke="midnightblue" d="M603.234,-168.083C596.955,-160.377 587.712,-149.033 580.069,-139.653"/>
<polygon fill="midnightblue" stroke="midnightblue" points="582.661,-137.293 573.631,-131.751 577.234,-141.714 582.661,-137.293"/>
</g>
<!-- Node19 -->
<g id="node19" class="node"><title>Node19</title>
<polygon fill="none" stroke="#bfbfbf" points="619,-112.5 619,-131.5 690,-131.5 690,-112.5 619,-112.5"/>
<text text-anchor="middle" x="654.5" y="-119.5" font-family="Helvetica,sans-Serif" font-size="10.00">TObjString.h</text>
</g>
<!-- Node8&#45;&gt;Node19 -->
<g id="edge21" class="edge"><title>Node8&#45;&gt;Node19</title>
<path fill="none" stroke="midnightblue" d="M617.766,-168.083C624.045,-160.377 633.288,-149.033 640.931,-139.653"/>
<polygon fill="midnightblue" stroke="midnightblue" points="643.766,-141.714 647.369,-131.751 638.339,-137.293 643.766,-141.714"/>
</g>
<!-- Node20 -->
<g id="node20" class="node"><title>Node20</title>
<polygon fill="none" stroke="#bfbfbf" points="708.5,-112.5 708.5,-131.5 836.5,-131.5 836.5,-112.5 708.5,-112.5"/>
<text text-anchor="middle" x="772.5" y="-119.5" font-family="Helvetica,sans-Serif" font-size="10.00">boost/concept_check.hpp</text>
</g>
<!-- Node8&#45;&gt;Node20 -->
<g id="edge22" class="edge"><title>Node8&#45;&gt;Node20</title>
<path fill="none" stroke="midnightblue" d="M636.169,-168.444C663.423,-159.359 706.684,-144.939 737.151,-134.783"/>
<polygon fill="midnightblue" stroke="midnightblue" points="738.571,-137.999 746.951,-131.516 736.357,-131.358 738.571,-137.999"/>
</g>
<!-- Node9&#45;&gt;Node10 -->
<g id="edge9" class="edge"><title>Node9&#45;&gt;Node10</title>
<path fill="none" stroke="midnightblue" d="M946.888,-112.324C963.171,-103.703 988.367,-90.3643 1007.22,-80.3855"/>
<polygon fill="midnightblue" stroke="midnightblue" points="1008.95,-83.4267 1016.15,-75.6545 1005.68,-77.2402 1008.95,-83.4267"/>
</g>
<!-- Node11 -->
<g id="node11" class="node"><title>Node11</title>
<polygon fill="none" stroke="#bfbfbf" points="950,-56.5 950,-75.5 985,-75.5 985,-56.5 950,-56.5"/>
<text text-anchor="middle" x="967.5" y="-63.5" font-family="Helvetica,sans-Serif" font-size="10.00">map</text>
</g>
<!-- Node9&#45;&gt;Node11 -->
<g id="edge10" class="edge"><title>Node9&#45;&gt;Node11</title>
<path fill="none" stroke="midnightblue" d="M936.61,-112.083C941.782,-104.534 949.346,-93.4948 955.694,-84.2298"/>
<polygon fill="midnightblue" stroke="midnightblue" points="958.739,-85.9787 961.504,-75.7511 952.964,-82.0221 958.739,-85.9787"/>
</g>
<!-- Node12 -->
<g id="node12" class="node"><title>Node12</title>
<polygon fill="none" stroke="#bfbfbf" points="744,-0.5 744,-19.5 803,-19.5 803,-0.5 744,-0.5"/>
<text text-anchor="middle" x="773.5" y="-7.5" font-family="Helvetica,sans-Serif" font-size="10.00">TObject.h</text>
</g>
<!-- Node9&#45;&gt;Node12 -->
<g id="edge11" class="edge"><title>Node9&#45;&gt;Node12</title>
<path fill="none" stroke="midnightblue" d="M882.555,-112.459C857.521,-105.969 827.764,-94.8225 806.5,-76 792.605,-63.7005 783.801,-44.1671 778.815,-29.7211"/>
<polygon fill="midnightblue" stroke="midnightblue" points="782.058,-28.364 775.725,-19.8699 775.378,-30.4591 782.058,-28.364"/>
</g>
<!-- Node13 -->
<g id="node13" class="node"><title>Node13</title>
<polygon fill="none" stroke="#bfbfbf" points="815.5,-56.5 815.5,-75.5 931.5,-75.5 931.5,-56.5 815.5,-56.5"/>
<text text-anchor="middle" x="873.5" y="-63.5" font-family="Helvetica,sans-Serif" font-size="10.00">Common/Exceptions.h</text>
</g>
<!-- Node9&#45;&gt;Node13 -->
<g id="edge12" class="edge"><title>Node9&#45;&gt;Node13</title>
<path fill="none" stroke="midnightblue" d="M921.342,-112.324C912.999,-104.42 900.468,-92.5482 890.323,-82.9377"/>
<polygon fill="midnightblue" stroke="midnightblue" points="892.491,-80.1705 882.825,-75.8339 887.677,-85.2522 892.491,-80.1705"/>
</g>
<!-- Node9&#45;&gt;Node14 -->
<g id="edge13" class="edge"><title>Node9&#45;&gt;Node14</title>
<path fill="none" stroke="midnightblue" d="M892.154,-112.444C850.027,-103.043 782.294,-87.9291 736.628,-77.7393"/>
<polygon fill="midnightblue" stroke="midnightblue" points="737.188,-74.2784 726.666,-75.5164 735.664,-81.1103 737.188,-74.2784"/>
</g>
<!-- Node14&#45;&gt;Node12 -->
<g id="edge14" class="edge"><title>Node14&#45;&gt;Node12</title>
<path fill="none" stroke="midnightblue" d="M702.157,-56.324C715.416,-47.9002 735.768,-34.9709 751.346,-25.0741"/>
<polygon fill="midnightblue" stroke="midnightblue" points="753.313,-27.9711 759.877,-19.6545 749.56,-22.0626 753.313,-27.9711"/>
</g>
<!-- Node15 -->
<g id="node15" class="node"><title>Node15</title>
<polygon fill="none" stroke="#bfbfbf" points="662.5,-0.5 662.5,-19.5 714.5,-19.5 714.5,-0.5 662.5,-0.5"/>
<text text-anchor="middle" x="688.5" y="-7.5" font-family="Helvetica,sans-Serif" font-size="10.00">ostream</text>
</g>
<!-- Node14&#45;&gt;Node15 -->
<g id="edge15" class="edge"><title>Node14&#45;&gt;Node15</title>
<path fill="none" stroke="midnightblue" d="M688.5,-56.083C688.5,-49.0059 688.5,-38.8611 688.5,-29.9865"/>
<polygon fill="midnightblue" stroke="midnightblue" points="692,-29.751 688.5,-19.7511 685,-29.7511 692,-29.751"/>
</g>
<!-- Node14&#45;&gt;Node16 -->
<g id="edge16" class="edge"><title>Node14&#45;&gt;Node16</title>
<path fill="none" stroke="midnightblue" d="M662.672,-56.4435C633.638,-46.8247 586.546,-31.2238 555.797,-21.0372"/>
<polygon fill="midnightblue" stroke="midnightblue" points="556.639,-17.6291 546.046,-17.8067 554.438,-24.2739 556.639,-17.6291"/>
</g>
<!-- Node17&#45;&gt;Node16 -->
<g id="edge19" class="edge"><title>Node17&#45;&gt;Node16</title>
<path fill="none" stroke="midnightblue" d="M525.5,-56.083C525.5,-49.0059 525.5,-38.8611 525.5,-29.9865"/>
<polygon fill="midnightblue" stroke="midnightblue" points="529,-29.751 525.5,-19.7511 522,-29.7511 529,-29.751"/>
</g>
</g>
</svg>
        <g id="navigator" transform="translate(0 0)" fill="#404254">
                <rect fill="#f2f5e9" fill-opacity="0.5" stroke="#606060" stroke-width=".5" x="0" y="0" width="60" height="60"/>
                <use id="zoomplus" xlink:href="#zoomPlus" x="17" y="9" onmousedown="handleZoom(evt,'in')"/>
                <use id="zoomminus" xlink:href="#zoomMin" x="42" y="9" onmousedown="handleZoom(evt,'out')"/>
                <use id="reset" xlink:href="#resetDef" x="30" y="36" onmousedown="handleReset()"/>
                <g id="arrowUp" xlink:href="#dirArrow" transform="translate(30 24)" onmousedown="handlePan(0,-1)">
                  <use xlink:href="#rim" fill="#404040">
                        <set attributeName="fill" to="#808080" begin="arrowUp.mouseover" end="arrowUp.mouseout"/>
                  </use>
                  <path fill="none" stroke="white" stroke-width="1.5" d="M0,-3.0v7 M-2.5,-0.5L0,-3.0L2.5,-0.5"/>
                </g>
                <g id="arrowRight" xlink:href="#dirArrow" transform="rotate(90) translate(36 -43)" onmousedown="handlePan(1,0)">
                  <use xlink:href="#rim" fill="#404040">
                        <set attributeName="fill" to="#808080" begin="arrowRight.mouseover" end="arrowRight.mouseout"/>
                  </use>
                  <path fill="none" stroke="white" stroke-width="1.5" d="M0,-3.0v7 M-2.5,-0.5L0,-3.0L2.5,-0.5"/>
                </g>
                <g id="arrowDown" xlink:href="#dirArrow" transform="rotate(180) translate(-30 -48)" onmousedown="handlePan(0,1)">
                  <use xlink:href="#rim" fill="#404040">
                        <set attributeName="fill" to="#808080" begin="arrowDown.mouseover" end="arrowDown.mouseout"/>
                  </use>
                  <path fill="none" stroke="white" stroke-width="1.5" d="M0,-3.0v7 M-2.5,-0.5L0,-3.0L2.5,-0.5"/>
                </g>
                <g id="arrowLeft" xlink:href="#dirArrow" transform="rotate(270) translate(-36 17)" onmousedown="handlePan(-1,0)">
                  <use xlink:href="#rim" fill="#404040">
                        <set attributeName="fill" to="#808080" begin="arrowLeft.mouseover" end="arrowLeft.mouseout"/>
                  </use>
                  <path fill="none" stroke="white" stroke-width="1.5" d="M0,-3.0v7 M-2.5,-0.5L0,-3.0L2.5,-0.5"/>
                </g>
        </g>
        <svg viewBox="0 0 15 15" width="100%" height="30px" preserveAspectRatio="xMaxYMin meet">
         <g id="arrow_out" transform="scale(0.3 0.3)">
          <a xlink:href="QcInfoLogger_8h__incl_org.svg" target="_base">
           <rect id="button" ry="5" rx="5" y="6" x="6" height="38" width="38"
                fill="#f2f5e9" fill-opacity="0.5" stroke="#606060" stroke-width="1.0"/>
           <path id="arrow"
             d="M 11.500037,31.436501 C 11.940474,20.09759 22.043105,11.32322 32.158766,21.979434 L 37.068811,17.246167 C 37.068811,17.246167 37.088388,32 37.088388,32 L 22.160133,31.978069 C 22.160133,31.978069 26.997745,27.140456 26.997745,27.140456 C 18.528582,18.264221 13.291696,25.230495 11.500037,31.436501 z"
             style="fill:#404040;"/>
          </a>
         </g>
        </svg>
</svg>
