<?xml version="1.0" encoding="UTF-8" standalone="no"?>
<!DOCTYPE svg PUBLIC "-//W3C//DTD SVG 1.1//EN"
 "http://www.w3.org/Graphics/SVG/1.1/DTD/svg11.dtd">
<!-- Generated by graphviz version 2.38.0 (20140413.2041)
 -->
<!-- Title: Framework/src/RepositoryBenchmark.cxx Pages: 1 -->
<svg width="1658pt" height="375pt"
 viewBox="0.00 0.00 1657.50 375.00" xmlns="http://www.w3.org/2000/svg" xmlns:xlink="http://www.w3.org/1999/xlink">
<g id="graph0" class="graph" transform="scale(1 1) rotate(0) translate(4 371)">
<title>Framework/src/RepositoryBenchmark.cxx</title>
<!-- Node1 -->
<g id="node1" class="node"><title>Node1</title>
<polygon fill="#bfbfbf" stroke="black" points="492,-336.5 492,-366.5 624,-366.5 624,-336.5 492,-336.5"/>
<text text-anchor="start" x="500" y="-354.5" font-family="Helvetica,sans-Serif" font-size="10.00">Framework/src/Repository</text>
<text text-anchor="middle" x="558" y="-343.5" font-family="Helvetica,sans-Serif" font-size="10.00">Benchmark.cxx</text>
</g>
<!-- Node2 -->
<g id="node2" class="node"><title>Node2</title>
<g id="a_node2"><a xlink:href="RepositoryBenchmark_8h.html" target="_top" xlink:title="RepositoryBenchmark.h">
<polygon fill="none" stroke="black" points="262,-280.5 262,-299.5 384,-299.5 384,-280.5 262,-280.5"/>
<text text-anchor="middle" x="323" y="-287.5" font-family="Helvetica,sans-Serif" font-size="10.00">RepositoryBenchmark.h</text>
</a>
</g>
</g>
<!-- Node1&#45;&gt;Node2 -->
<g id="edge1" class="edge"><title>Node1&#45;&gt;Node2</title>
<path fill="none" stroke="midnightblue" d="M502.606,-336.475C461.001,-325.941 404.819,-311.716 366.437,-301.998"/>
<polygon fill="midnightblue" stroke="midnightblue" points="367.15,-298.568 356.597,-299.506 365.432,-305.354 367.15,-298.568"/>
</g>
<!-- Node3 -->
<g id="node3" class="node"><title>Node3</title>
<g id="a_node3"><a xlink:href="CcdbDatabase_8h.html" target="_top" xlink:title="QualityControl/CcdbDatabase.h">
<polygon fill="none" stroke="black" points="470.5,-224.5 470.5,-243.5 625.5,-243.5 625.5,-224.5 470.5,-224.5"/>
<text text-anchor="middle" x="548" y="-231.5" font-family="Helvetica,sans-Serif" font-size="10.00">QualityControl/CcdbDatabase.h</text>
</a>
</g>
</g>
<!-- Node1&#45;&gt;Node3 -->
<g id="edge22" class="edge"><title>Node1&#45;&gt;Node3</title>
<path fill="none" stroke="midnightblue" d="M491.837,-339.932C468.64,-332.7 444.922,-320.518 431,-300 412.496,-272.729 450.405,-255.725 487.9,-245.982"/>
<polygon fill="midnightblue" stroke="midnightblue" points="489.016,-249.312 497.901,-243.541 487.357,-242.512 489.016,-249.312"/>
</g>
<!-- Node10 -->
<g id="node10" class="node"><title>Node10</title>
<polygon fill="none" stroke="#bfbfbf" points="471,-56.5 471,-75.5 587,-75.5 587,-56.5 471,-56.5"/>
<text text-anchor="middle" x="529" y="-63.5" font-family="Helvetica,sans-Serif" font-size="10.00">Common/Exceptions.h</text>
</g>
<!-- Node1&#45;&gt;Node10 -->
<g id="edge26" class="edge"><title>Node1&#45;&gt;Node10</title>
<path fill="none" stroke="midnightblue" d="M491.799,-350.565C343.99,-348.923 0,-334.423 0,-235 0,-235 0,-235 0,-177 0,-83.9982 317.371,-69.0736 460.467,-67.0711"/>
<polygon fill="midnightblue" stroke="midnightblue" points="460.918,-70.5659 470.875,-66.944 460.832,-63.5664 460.918,-70.5659"/>
</g>
<!-- Node20 -->
<g id="node20" class="node"><title>Node20</title>
<polygon fill="none" stroke="#bfbfbf" points="440,-280.5 440,-299.5 486,-299.5 486,-280.5 440,-280.5"/>
<text text-anchor="middle" x="463" y="-287.5" font-family="Helvetica,sans-Serif" font-size="10.00">chrono</text>
</g>
<!-- Node1&#45;&gt;Node20 -->
<g id="edge20" class="edge"><title>Node1&#45;&gt;Node20</title>
<path fill="none" stroke="midnightblue" d="M535.486,-336.399C520.401,-326.951 500.615,-314.559 485.527,-305.109"/>
<polygon fill="midnightblue" stroke="midnightblue" points="487.156,-302 476.823,-299.658 483.441,-307.932 487.156,-302"/>
</g>
<!-- Node21 -->
<g id="node21" class="node"><title>Node21</title>
<polygon fill="none" stroke="#bfbfbf" points="504,-280.5 504,-299.5 548,-299.5 548,-280.5 504,-280.5"/>
<text text-anchor="middle" x="526" y="-287.5" font-family="Helvetica,sans-Serif" font-size="10.00">thread</text>
</g>
<!-- Node1&#45;&gt;Node21 -->
<g id="edge21" class="edge"><title>Node1&#45;&gt;Node21</title>
<path fill="none" stroke="midnightblue" d="M550.416,-336.399C545.958,-328.11 540.281,-317.554 535.523,-308.708"/>
<polygon fill="midnightblue" stroke="midnightblue" points="538.475,-306.807 530.656,-299.658 532.31,-310.123 538.475,-306.807"/>
</g>
<!-- Node22 -->
<g id="node22" class="node"><title>Node22</title>
<polygon fill="none" stroke="#bfbfbf" points="566,-280.5 566,-299.5 616,-299.5 616,-280.5 566,-280.5"/>
<text text-anchor="middle" x="591" y="-287.5" font-family="Helvetica,sans-Serif" font-size="10.00">TH2F.h</text>
</g>
<!-- Node1&#45;&gt;Node22 -->
<g id="edge23" class="edge"><title>Node1&#45;&gt;Node22</title>
<path fill="none" stroke="midnightblue" d="M565.821,-336.399C570.468,-328.021 576.399,-317.327 581.337,-308.423"/>
<polygon fill="midnightblue" stroke="midnightblue" points="584.409,-310.1 586.198,-299.658 578.287,-306.705 584.409,-310.1"/>
</g>
<!-- Node23 -->
<g id="node23" class="node"><title>Node23</title>
<polygon fill="none" stroke="#bfbfbf" points="634,-280.5 634,-299.5 720,-299.5 720,-280.5 634,-280.5"/>
<text text-anchor="middle" x="677" y="-287.5" font-family="Helvetica,sans-Serif" font-size="10.00">FairMQLogger.h</text>
</g>
<!-- Node1&#45;&gt;Node23 -->
<g id="edge24" class="edge"><title>Node1&#45;&gt;Node23</title>
<path fill="none" stroke="midnightblue" d="M586.201,-336.399C605.722,-326.639 631.525,-313.737 650.635,-304.183"/>
<polygon fill="midnightblue" stroke="midnightblue" points="652.305,-307.26 659.684,-299.658 649.175,-300.999 652.305,-307.26"/>
</g>
<!-- Node24 -->
<g id="node24" class="node"><title>Node24</title>
<polygon fill="none" stroke="#bfbfbf" points="738,-280.5 738,-299.5 884,-299.5 884,-280.5 738,-280.5"/>
<text text-anchor="middle" x="811" y="-287.5" font-family="Helvetica,sans-Serif" font-size="10.00">options/FairMQProgOptions.h</text>
</g>
<!-- Node1&#45;&gt;Node24 -->
<g id="edge25" class="edge"><title>Node1&#45;&gt;Node24</title>
<path fill="none" stroke="midnightblue" d="M617.637,-336.475C662.714,-325.874 723.687,-311.534 765.025,-301.812"/>
<polygon fill="midnightblue" stroke="midnightblue" points="765.897,-305.203 774.83,-299.506 764.294,-298.389 765.897,-305.203"/>
</g>
<!-- Node25 -->
<g id="node25" class="node"><title>Node25</title>
<g id="a_node25"><a xlink:href="DatabaseFactory_8h.html" target="_top" xlink:title="QualityControl/DatabaseFactory.h">
<polygon fill="none" stroke="black" points="666.5,-224.5 666.5,-243.5 831.5,-243.5 831.5,-224.5 666.5,-224.5"/>
<text text-anchor="middle" x="749" y="-231.5" font-family="Helvetica,sans-Serif" font-size="10.00">QualityControl/DatabaseFactory.h</text>
</a>
</g>
</g>
<!-- Node1&#45;&gt;Node25 -->
<g id="edge27" class="edge"><title>Node1&#45;&gt;Node25</title>
<path fill="none" stroke="midnightblue" d="M624.317,-350.313C711.9,-348.492 859.047,-339.455 893,-300 917.669,-271.333 873.991,-254.691 828.433,-245.435"/>
<polygon fill="midnightblue" stroke="midnightblue" points="828.88,-241.958 818.4,-243.516 827.564,-248.833 828.88,-241.958"/>
</g>
<!-- Node26 -->
<g id="node26" class="node"><title>Node26</title>
<g id="a_node26"><a xlink:href="QcInfoLogger_8h.html" target="_top" xlink:title="QualityControl/QcInfoLogger.h">
<polygon fill="none" stroke="black" points="939.5,-280.5 939.5,-299.5 1088.5,-299.5 1088.5,-280.5 939.5,-280.5"/>
<text text-anchor="middle" x="1014" y="-287.5" font-family="Helvetica,sans-Serif" font-size="10.00">QualityControl/QcInfoLogger.h</text>
</a>
</g>
</g>
<!-- Node1&#45;&gt;Node26 -->
<g id="edge31" class="edge"><title>Node1&#45;&gt;Node26</title>
<path fill="none" stroke="midnightblue" d="M624.306,-341.848C707.824,-330.951 850.98,-312.271 938.585,-300.84"/>
<polygon fill="midnightblue" stroke="midnightblue" points="939.259,-304.282 948.722,-299.518 938.353,-297.341 939.259,-304.282"/>
</g>
<!-- Node2&#45;&gt;Node3 -->
<g id="edge2" class="edge"><title>Node2&#45;&gt;Node3</title>
<path fill="none" stroke="midnightblue" d="M358.652,-280.444C397.656,-271.083 460.266,-256.056 502.717,-245.868"/>
<polygon fill="midnightblue" stroke="midnightblue" points="503.608,-249.254 512.515,-243.516 501.974,-242.447 503.608,-249.254"/>
</g>
<!-- Node16 -->
<g id="node16" class="node"><title>Node16</title>
<polygon fill="none" stroke="#bfbfbf" points="28,-224.5 28,-243.5 116,-243.5 116,-224.5 28,-224.5"/>
<text text-anchor="middle" x="72" y="-231.5" font-family="Helvetica,sans-Serif" font-size="10.00">FairMQDevice.h</text>
</g>
<!-- Node2&#45;&gt;Node16 -->
<g id="edge16" class="edge"><title>Node2&#45;&gt;Node16</title>
<path fill="none" stroke="midnightblue" d="M283.228,-280.444C239.442,-271.023 168.986,-255.866 121.62,-245.675"/>
<polygon fill="midnightblue" stroke="midnightblue" points="122.098,-242.198 111.586,-243.516 120.626,-249.041 122.098,-242.198"/>
</g>
<!-- Node17 -->
<g id="node17" class="node"><title>Node17</title>
<polygon fill="none" stroke="#bfbfbf" points="134.5,-224.5 134.5,-243.5 285.5,-243.5 285.5,-224.5 134.5,-224.5"/>
<text text-anchor="middle" x="210" y="-231.5" font-family="Helvetica,sans-Serif" font-size="10.00">Monitoring/MonitoringFactory.h</text>
</g>
<!-- Node2&#45;&gt;Node17 -->
<g id="edge17" class="edge"><title>Node2&#45;&gt;Node17</title>
<path fill="none" stroke="midnightblue" d="M305.095,-280.444C286.746,-271.675 257.995,-257.935 236.906,-247.858"/>
<polygon fill="midnightblue" stroke="midnightblue" points="238.353,-244.67 227.821,-243.516 235.335,-250.986 238.353,-244.67"/>
</g>
<!-- Node18 -->
<g id="node18" class="node"><title>Node18</title>
<polygon fill="none" stroke="#bfbfbf" points="304,-224.5 304,-243.5 354,-243.5 354,-224.5 304,-224.5"/>
<text text-anchor="middle" x="329" y="-231.5" font-family="Helvetica,sans-Serif" font-size="10.00">TH1F.h</text>
</g>
<!-- Node2&#45;&gt;Node18 -->
<g id="edge18" class="edge"><title>Node2&#45;&gt;Node18</title>
<path fill="none" stroke="midnightblue" d="M323.991,-280.083C324.786,-272.927 325.929,-262.635 326.923,-253.691"/>
<polygon fill="midnightblue" stroke="midnightblue" points="330.402,-254.076 328.028,-243.751 323.445,-253.303 330.402,-254.076"/>
</g>
<!-- Node19 -->
<g id="node19" class="node"><title>Node19</title>
<polygon fill="none" stroke="#bfbfbf" points="372,-224.5 372,-243.5 452,-243.5 452,-224.5 372,-224.5"/>
<text text-anchor="middle" x="412" y="-231.5" font-family="Helvetica,sans-Serif" font-size="10.00">boost/asio.hpp</text>
</g>
<!-- Node2&#45;&gt;Node19 -->
<g id="edge19" class="edge"><title>Node2&#45;&gt;Node19</title>
<path fill="none" stroke="midnightblue" d="M337.299,-280.324C351.183,-271.9 372.492,-258.971 388.804,-249.074"/>
<polygon fill="midnightblue" stroke="midnightblue" points="391.002,-251.834 397.736,-243.655 387.371,-245.85 391.002,-251.834"/>
</g>
<!-- Node4 -->
<g id="node4" class="node"><title>Node4</title>
<polygon fill="none" stroke="#bfbfbf" points="405.5,-168.5 405.5,-187.5 500.5,-187.5 500.5,-168.5 405.5,-168.5"/>
<text text-anchor="middle" x="453" y="-175.5" font-family="Helvetica,sans-Serif" font-size="10.00">CCDB/CcdbApi.h</text>
</g>
<!-- Node3&#45;&gt;Node4 -->
<g id="edge3" class="edge"><title>Node3&#45;&gt;Node4</title>
<path fill="none" stroke="midnightblue" d="M532.737,-224.324C517.779,-215.822 494.745,-202.729 477.273,-192.797"/>
<polygon fill="midnightblue" stroke="midnightblue" points="478.649,-189.553 468.226,-187.655 475.19,-195.639 478.649,-189.553"/>
</g>
<!-- Node5 -->
<g id="node5" class="node"><title>Node5</title>
<g id="a_node5"><a xlink:href="DatabaseInterface_8h.html" target="_top" xlink:title="QualityControl/DatabaseInterface.h">
<polygon fill="none" stroke="black" points="557,-168.5 557,-187.5 727,-187.5 727,-168.5 557,-168.5"/>
<text text-anchor="middle" x="642" y="-175.5" font-family="Helvetica,sans-Serif" font-size="10.00">QualityControl/DatabaseInterface.h</text>
</a>
</g>
</g>
<!-- Node3&#45;&gt;Node5 -->
<g id="edge4" class="edge"><title>Node3&#45;&gt;Node5</title>
<path fill="none" stroke="midnightblue" d="M563.103,-224.324C577.903,-215.822 600.694,-202.729 617.982,-192.797"/>
<polygon fill="midnightblue" stroke="midnightblue" points="620.007,-195.671 626.935,-187.655 616.52,-189.601 620.007,-195.671"/>
</g>
<!-- Node6 -->
<g id="node6" class="node"><title>Node6</title>
<g id="a_node6"><a xlink:href="MonitorObject_8h.html" target="_top" xlink:title="QualityControl/MonitorObject.h">
<polygon fill="none" stroke="black" points="729.5,-112.5 729.5,-131.5 880.5,-131.5 880.5,-112.5 729.5,-112.5"/>
<text text-anchor="middle" x="805" y="-119.5" font-family="Helvetica,sans-Serif" font-size="10.00">QualityControl/MonitorObject.h</text>
</a>
</g>
</g>
<!-- Node5&#45;&gt;Node6 -->
<g id="edge5" class="edge"><title>Node5&#45;&gt;Node6</title>
<path fill="none" stroke="midnightblue" d="M667.828,-168.444C695.249,-159.359 738.777,-144.939 769.432,-134.783"/>
<polygon fill="midnightblue" stroke="midnightblue" points="770.901,-137.984 779.293,-131.516 768.7,-131.339 770.901,-137.984"/>
</g>
<!-- Node14 -->
<g id="node14" class="node"><title>Node14</title>
<polygon fill="none" stroke="#bfbfbf" points="659,-112.5 659,-131.5 711,-131.5 711,-112.5 659,-112.5"/>
<text text-anchor="middle" x="685" y="-119.5" font-family="Helvetica,sans-Serif" font-size="10.00">memory</text>
</g>
<!-- Node5&#45;&gt;Node14 -->
<g id="edge14" class="edge"><title>Node5&#45;&gt;Node14</title>
<path fill="none" stroke="midnightblue" d="M649.101,-168.083C655.237,-160.377 664.27,-149.033 671.739,-139.653"/>
<polygon fill="midnightblue" stroke="midnightblue" points="674.54,-141.754 678.032,-131.751 669.064,-137.394 674.54,-141.754"/>
</g>
<!-- Node15 -->
<g id="node15" class="node"><title>Node15</title>
<polygon fill="none" stroke="#bfbfbf" points="557.5,-112.5 557.5,-131.5 640.5,-131.5 640.5,-112.5 557.5,-112.5"/>
<text text-anchor="middle" x="599" y="-119.5" font-family="Helvetica,sans-Serif" font-size="10.00">unordered_map</text>
</g>
<!-- Node5&#45;&gt;Node15 -->
<g id="edge15" class="edge"><title>Node5&#45;&gt;Node15</title>
<path fill="none" stroke="midnightblue" d="M634.899,-168.083C628.763,-160.377 619.73,-149.033 612.261,-139.653"/>
<polygon fill="midnightblue" stroke="midnightblue" points="614.936,-137.394 605.968,-131.751 609.46,-141.754 614.936,-137.394"/>
</g>
<!-- Node7 -->
<g id="node7" class="node"><title>Node7</title>
<polygon fill="none" stroke="#bfbfbf" points="833,-56.5 833,-75.5 887,-75.5 887,-56.5 833,-56.5"/>
<text text-anchor="middle" x="860" y="-63.5" font-family="Helvetica,sans-Serif" font-size="10.00">iostream</text>
</g>
<!-- Node6&#45;&gt;Node7 -->
<g id="edge6" class="edge"><title>Node6&#45;&gt;Node7</title>
<path fill="none" stroke="midnightblue" d="M814.082,-112.083C822.171,-104.141 834.195,-92.3354 843.91,-82.7973"/>
<polygon fill="midnightblue" stroke="midnightblue" points="846.403,-85.2545 851.087,-75.7511 841.499,-80.2595 846.403,-85.2545"/>
</g>
<!-- Node8 -->
<g id="node8" class="node"><title>Node8</title>
<polygon fill="none" stroke="#bfbfbf" points="741.5,-56.5 741.5,-75.5 776.5,-75.5 776.5,-56.5 741.5,-56.5"/>
<text text-anchor="middle" x="759" y="-63.5" font-family="Helvetica,sans-Serif" font-size="10.00">map</text>
</g>
<!-- Node6&#45;&gt;Node8 -->
<g id="edge7" class="edge"><title>Node6&#45;&gt;Node8</title>
<path fill="none" stroke="midnightblue" d="M797.404,-112.083C790.773,-104.298 780.979,-92.8015 772.942,-83.3665"/>
<polygon fill="midnightblue" stroke="midnightblue" points="775.604,-81.0939 766.455,-75.7511 770.275,-85.6332 775.604,-81.0939"/>
</g>
<!-- Node9 -->
<g id="node9" class="node"><title>Node9</title>
<polygon fill="none" stroke="#bfbfbf" points="819.5,-0.5 819.5,-19.5 878.5,-19.5 878.5,-0.5 819.5,-0.5"/>
<text text-anchor="middle" x="849" y="-7.5" font-family="Helvetica,sans-Serif" font-size="10.00">TObject.h</text>
</g>
<!-- Node6&#45;&gt;Node9 -->
<g id="edge8" class="edge"><title>Node6&#45;&gt;Node9</title>
<path fill="none" stroke="midnightblue" d="M806.872,-112.378C809.763,-99.7291 815.842,-75.5269 824,-56 827.962,-46.5166 833.409,-36.4726 838.208,-28.2853"/>
<polygon fill="midnightblue" stroke="midnightblue" points="841.237,-30.0404 843.415,-19.6719 835.246,-26.4188 841.237,-30.0404"/>
</g>
<!-- Node6&#45;&gt;Node10 -->
<g id="edge9" class="edge"><title>Node6&#45;&gt;Node10</title>
<path fill="none" stroke="midnightblue" d="M761.267,-112.444C712.817,-102.964 634.671,-87.6747 582.582,-77.4835"/>
<polygon fill="midnightblue" stroke="midnightblue" points="583.014,-74.0017 572.528,-75.5164 581.67,-80.8715 583.014,-74.0017"/>
</g>
<!-- Node11 -->
<g id="node11" class="node"><title>Node11</title>
<g id="a_node11"><a xlink:href="Quality_8h.html" target="_top" xlink:title="QualityControl/Quality.h">
<polygon fill="none" stroke="black" points="905.5,-56.5 905.5,-75.5 1026.5,-75.5 1026.5,-56.5 905.5,-56.5"/>
<text text-anchor="middle" x="966" y="-63.5" font-family="Helvetica,sans-Serif" font-size="10.00">QualityControl/Quality.h</text>
</a>
</g>
</g>
<!-- Node6&#45;&gt;Node11 -->
<g id="edge10" class="edge"><title>Node6&#45;&gt;Node11</title>
<path fill="none" stroke="midnightblue" d="M830.511,-112.444C857.596,-103.359 900.59,-88.9388 930.869,-78.7831"/>
<polygon fill="midnightblue" stroke="midnightblue" points="932.24,-82.0148 940.608,-75.5164 930.014,-75.3781 932.24,-82.0148"/>
</g>
<!-- Node11&#45;&gt;Node9 -->
<g id="edge11" class="edge"><title>Node11&#45;&gt;Node9</title>
<path fill="none" stroke="midnightblue" d="M947.461,-56.4435C928.377,-47.6356 898.425,-33.8116 876.564,-23.722"/>
<polygon fill="midnightblue" stroke="midnightblue" points="877.999,-20.5292 867.452,-19.5164 875.065,-26.8849 877.999,-20.5292"/>
</g>
<!-- Node12 -->
<g id="node12" class="node"><title>Node12</title>
<polygon fill="none" stroke="#bfbfbf" points="940,-0.5 940,-19.5 992,-19.5 992,-0.5 940,-0.5"/>
<text text-anchor="middle" x="966" y="-7.5" font-family="Helvetica,sans-Serif" font-size="10.00">ostream</text>
</g>
<!-- Node11&#45;&gt;Node12 -->
<g id="edge12" class="edge"><title>Node11&#45;&gt;Node12</title>
<path fill="none" stroke="midnightblue" d="M966,-56.083C966,-49.0059 966,-38.8611 966,-29.9865"/>
<polygon fill="midnightblue" stroke="midnightblue" points="969.5,-29.751 966,-19.7511 962.5,-29.7511 969.5,-29.751"/>
</g>
<!-- Node13 -->
<g id="node13" class="node"><title>Node13</title>
<polygon fill="none" stroke="#bfbfbf" points="1110.5,-0.5 1110.5,-19.5 1151.5,-19.5 1151.5,-0.5 1110.5,-0.5"/>
<text text-anchor="middle" x="1131" y="-7.5" font-family="Helvetica,sans-Serif" font-size="10.00">string</text>
</g>
<!-- Node11&#45;&gt;Node13 -->
<g id="edge13" class="edge"><title>Node11&#45;&gt;Node13</title>
<path fill="none" stroke="midnightblue" d="M992.145,-56.4435C1021.54,-46.8247 1069.21,-31.2238 1100.33,-21.0372"/>
<polygon fill="midnightblue" stroke="midnightblue" points="1101.79,-24.2435 1110.2,-17.8067 1099.61,-17.5907 1101.79,-24.2435"/>
</g>
<!-- Node25&#45;&gt;Node5 -->
<g id="edge30" class="edge"><title>Node25&#45;&gt;Node5</title>
<path fill="none" stroke="midnightblue" d="M731.809,-224.324C714.649,-215.664 688.054,-202.242 668.253,-192.249"/>
<polygon fill="midnightblue" stroke="midnightblue" points="669.653,-189.035 659.149,-187.655 666.499,-195.285 669.653,-189.035"/>
</g>
<!-- Node25&#45;&gt;Node10 -->
<g id="edge29" class="edge"><title>Node25&#45;&gt;Node10</title>
<path fill="none" stroke="midnightblue" d="M670.209,-224.491C621.346,-217.544 564.784,-205.903 548,-188 522.029,-160.298 523.045,-112.366 526.036,-85.9075"/>
<polygon fill="midnightblue" stroke="midnightblue" points="529.543,-86.0851 527.412,-75.7069 522.606,-85.1491 529.543,-86.0851"/>
</g>
<!-- Node25&#45;&gt;Node14 -->
<g id="edge28" class="edge"><title>Node25&#45;&gt;Node14</title>
<path fill="none" stroke="midnightblue" d="M748.99,-224.396C748.615,-211.346 746.454,-186.149 736,-168 729.001,-155.85 717.521,-145.289 707.224,-137.457"/>
<polygon fill="midnightblue" stroke="midnightblue" points="709.143,-134.527 698.977,-131.546 705.065,-140.216 709.143,-134.527"/>
</g>
<!-- Node26&#45;&gt;Node7 -->
<g id="edge48" class="edge"><title>Node26&#45;&gt;Node7</title>
<path fill="none" stroke="midnightblue" d="M992.217,-280.388C975.871,-272.939 953.988,-260.724 940,-244 899.649,-195.758 917.516,-168.057 889,-112 884.101,-102.37 877.671,-92.2064 872.111,-83.9799"/>
<polygon fill="midnightblue" stroke="midnightblue" points="874.907,-81.8687 866.331,-75.6465 869.155,-85.8583 874.907,-81.8687"/>
</g>
<!-- Node27 -->
<g id="node27" class="node"><title>Node27</title>
<g id="a_node27"><a xlink:href="TaskInterface_8h.html" target="_top" xlink:title="TaskInterface.h">
<polygon fill="none" stroke="black" points="1119.5,-224.5 1119.5,-243.5 1204.5,-243.5 1204.5,-224.5 1119.5,-224.5"/>
<text text-anchor="middle" x="1162" y="-231.5" font-family="Helvetica,sans-Serif" font-size="10.00">TaskInterface.h</text>
</a>
</g>
</g>
<!-- Node26&#45;&gt;Node27 -->
<g id="edge32" class="edge"><title>Node26&#45;&gt;Node27</title>
<path fill="none" stroke="midnightblue" d="M1037.45,-280.444C1062.13,-271.438 1101.19,-257.189 1128.98,-247.049"/>
<polygon fill="midnightblue" stroke="midnightblue" points="1130.46,-250.232 1138.66,-243.516 1128.06,-243.656 1130.46,-250.232"/>
</g>
<!-- Node37 -->
<g id="node37" class="node"><title>Node37</title>
<polygon fill="none" stroke="#bfbfbf" points="949,-224.5 949,-243.5 1079,-243.5 1079,-224.5 949,-224.5"/>
<text text-anchor="middle" x="1014" y="-231.5" font-family="Helvetica,sans-Serif" font-size="10.00">InfoLogger/InfoLogger.hxx</text>
</g>
<!-- Node26&#45;&gt;Node37 -->
<g id="edge47" class="edge"><title>Node26&#45;&gt;Node37</title>
<path fill="none" stroke="midnightblue" d="M1014,-280.083C1014,-273.006 1014,-262.861 1014,-253.986"/>
<polygon fill="midnightblue" stroke="midnightblue" points="1017.5,-253.751 1014,-243.751 1010.5,-253.751 1017.5,-253.751"/>
</g>
<!-- Node27&#45;&gt;Node14 -->
<g id="edge33" class="edge"><title>Node27&#45;&gt;Node14</title>
<path fill="none" stroke="midnightblue" d="M1119.48,-224.429C1076.42,-215.654 1007.96,-201.434 949,-188 849.934,-165.428 823.226,-157.944 721.15,-132.274"/>
<polygon fill="midnightblue" stroke="midnightblue" points="721.916,-128.857 711.365,-129.815 720.21,-135.646 721.916,-128.857"/>
</g>
<!-- Node28 -->
<g id="node28" class="node"><title>Node28</title>
<polygon fill="none" stroke="#bfbfbf" points="1137.5,-168.5 1137.5,-187.5 1186.5,-187.5 1186.5,-168.5 1137.5,-168.5"/>
<text text-anchor="middle" x="1162" y="-175.5" font-family="Helvetica,sans-Serif" font-size="10.00">cassert</text>
</g>
<!-- Node27&#45;&gt;Node28 -->
<g id="edge34" class="edge"><title>Node27&#45;&gt;Node28</title>
<path fill="none" stroke="midnightblue" d="M1162,-224.083C1162,-217.006 1162,-206.861 1162,-197.986"/>
<polygon fill="midnightblue" stroke="midnightblue" points="1165.5,-197.751 1162,-187.751 1158.5,-197.751 1165.5,-197.751"/>
</g>
<!-- Node29 -->
<g id="node29" class="node"><title>Node29</title>
<polygon fill="none" stroke="#bfbfbf" points="1204.5,-168.5 1204.5,-187.5 1329.5,-187.5 1329.5,-168.5 1204.5,-168.5"/>
<text text-anchor="middle" x="1267" y="-175.5" font-family="Helvetica,sans-Serif" font-size="10.00">Framework/InitContext.h</text>
</g>
<!-- Node27&#45;&gt;Node29 -->
<g id="edge35" class="edge"><title>Node27&#45;&gt;Node29</title>
<path fill="none" stroke="midnightblue" d="M1178.87,-224.324C1195.71,-215.664 1221.81,-202.242 1241.24,-192.249"/>
<polygon fill="midnightblue" stroke="midnightblue" points="1242.88,-195.341 1250.17,-187.655 1239.68,-189.116 1242.88,-195.341"/>
</g>
<!-- Node30 -->
<g id="node30" class="node"><title>Node30</title>
<polygon fill="none" stroke="#bfbfbf" points="1348,-168.5 1348,-187.5 1508,-187.5 1508,-168.5 1348,-168.5"/>
<text text-anchor="middle" x="1428" y="-175.5" font-family="Helvetica,sans-Serif" font-size="10.00">Framework/ProcessingContext.h</text>
</g>
<!-- Node27&#45;&gt;Node30 -->
<g id="edge36" class="edge"><title>Node27&#45;&gt;Node30</title>
<path fill="none" stroke="midnightblue" d="M1204.15,-224.444C1250.75,-214.984 1325.84,-199.738 1376.05,-189.547"/>
<polygon fill="midnightblue" stroke="midnightblue" points="1376.94,-192.936 1386.05,-187.516 1375.55,-186.076 1376.94,-192.936"/>
</g>
<!-- Node31 -->
<g id="node31" class="node"><title>Node31</title>
<g id="a_node31"><a xlink:href="Activity_8h.html" target="_top" xlink:title="QualityControl/Activity.h">
<polygon fill="none" stroke="black" points="1526.5,-168.5 1526.5,-187.5 1649.5,-187.5 1649.5,-168.5 1526.5,-168.5"/>
<text text-anchor="middle" x="1588" y="-175.5" font-family="Helvetica,sans-Serif" font-size="10.00">QualityControl/Activity.h</text>
</a>
</g>
</g>
<!-- Node27&#45;&gt;Node31 -->
<g id="edge37" class="edge"><title>Node27&#45;&gt;Node31</title>
<path fill="none" stroke="midnightblue" d="M1204.8,-227.575C1277.83,-218.317 1427.27,-199.374 1516.42,-188.073"/>
<polygon fill="midnightblue" stroke="midnightblue" points="1516.97,-191.532 1526.45,-186.802 1516.09,-184.587 1516.97,-191.532"/>
</g>
<!-- Node32 -->
<g id="node32" class="node"><title>Node32</title>
<g id="a_node32"><a xlink:href="ObjectsManager_8h.html" target="_top" xlink:title="QualityControl/ObjectsManager.h">
<polygon fill="none" stroke="black" points="958.5,-168.5 958.5,-187.5 1119.5,-187.5 1119.5,-168.5 958.5,-168.5"/>
<text text-anchor="middle" x="1039" y="-175.5" font-family="Helvetica,sans-Serif" font-size="10.00">QualityControl/ObjectsManager.h</text>
</a>
</g>
</g>
<!-- Node27&#45;&gt;Node32 -->
<g id="edge38" class="edge"><title>Node27&#45;&gt;Node32</title>
<path fill="none" stroke="midnightblue" d="M1142.51,-224.444C1122.36,-215.596 1090.68,-201.687 1067.67,-191.586"/>
<polygon fill="midnightblue" stroke="midnightblue" points="1068.96,-188.332 1058.4,-187.516 1066.15,-194.741 1068.96,-188.332"/>
</g>
<!-- Node32&#45;&gt;Node6 -->
<g id="edge39" class="edge"><title>Node32&#45;&gt;Node6</title>
<path fill="none" stroke="midnightblue" d="M1001.92,-168.444C961.272,-159.063 895.968,-143.993 851.816,-133.804"/>
<polygon fill="midnightblue" stroke="midnightblue" points="852.435,-130.355 841.905,-131.516 850.861,-137.175 852.435,-130.355"/>
</g>
<!-- Node32&#45;&gt;Node11 -->
<g id="edge40" class="edge"><title>Node32&#45;&gt;Node11</title>
<path fill="none" stroke="midnightblue" d="M1012.79,-168.414C996.15,-161.445 975.943,-149.809 966,-132 958.178,-117.99 959.045,-99.491 961.362,-85.8114"/>
<polygon fill="midnightblue" stroke="midnightblue" points="964.864,-86.1639 963.49,-75.6585 958.013,-84.7277 964.864,-86.1639"/>
</g>
<!-- Node32&#45;&gt;Node13 -->
<g id="edge46" class="edge"><title>Node32&#45;&gt;Node13</title>
<path fill="none" stroke="midnightblue" d="M1107.95,-168.498C1190.86,-157.942 1319.88,-140.314 1327,-132 1379.2,-71.0064 1228.99,-31.2626 1161.73,-16.9506"/>
<polygon fill="midnightblue" stroke="midnightblue" points="1162.2,-13.4724 1151.69,-14.8726 1160.78,-20.3271 1162.2,-13.4724"/>
</g>
<!-- Node33 -->
<g id="node33" class="node"><title>Node33</title>
<g id="a_node33"><a xlink:href="TaskConfig_8h.html" target="_top" xlink:title="QualityControl/TaskConfig.h">
<polygon fill="none" stroke="black" points="1061,-56.5 1061,-75.5 1201,-75.5 1201,-56.5 1061,-56.5"/>
<text text-anchor="middle" x="1131" y="-63.5" font-family="Helvetica,sans-Serif" font-size="10.00">QualityControl/TaskConfig.h</text>
</a>
</g>
</g>
<!-- Node32&#45;&gt;Node33 -->
<g id="edge41" class="edge"><title>Node32&#45;&gt;Node33</title>
<path fill="none" stroke="midnightblue" d="M1061.23,-168.487C1077.53,-161.156 1099,-149.049 1112,-132 1122.24,-118.573 1126.97,-99.7554 1129.15,-85.8206"/>
<polygon fill="midnightblue" stroke="midnightblue" points="1132.62,-86.2489 1130.41,-75.8882 1125.68,-85.3687 1132.62,-86.2489"/>
</g>
<!-- Node34 -->
<g id="node34" class="node"><title>Node34</title>
<polygon fill="none" stroke="#bfbfbf" points="1159.5,-112.5 1159.5,-131.5 1228.5,-131.5 1228.5,-112.5 1159.5,-112.5"/>
<text text-anchor="middle" x="1194" y="-119.5" font-family="Helvetica,sans-Serif" font-size="10.00">TObjArray.h</text>
</g>
<!-- Node32&#45;&gt;Node34 -->
<g id="edge43" class="edge"><title>Node32&#45;&gt;Node34</title>
<path fill="none" stroke="midnightblue" d="M1063.56,-168.444C1089.52,-159.399 1130.67,-145.064 1159.8,-134.916"/>
<polygon fill="midnightblue" stroke="midnightblue" points="1161.26,-138.112 1169.55,-131.516 1158.96,-131.501 1161.26,-138.112"/>
</g>
<!-- Node35 -->
<g id="node35" class="node"><title>Node35</title>
<polygon fill="none" stroke="#bfbfbf" points="1246.5,-112.5 1246.5,-131.5 1317.5,-131.5 1317.5,-112.5 1246.5,-112.5"/>
<text text-anchor="middle" x="1282" y="-119.5" font-family="Helvetica,sans-Serif" font-size="10.00">TObjString.h</text>
</g>
<!-- Node32&#45;&gt;Node35 -->
<g id="edge44" class="edge"><title>Node32&#45;&gt;Node35</title>
<path fill="none" stroke="midnightblue" d="M1077.5,-168.444C1120.68,-158.85 1190.63,-143.304 1236.48,-133.116"/>
<polygon fill="midnightblue" stroke="midnightblue" points="1237.44,-136.488 1246.44,-130.902 1235.92,-129.654 1237.44,-136.488"/>
</g>
<!-- Node36 -->
<g id="node36" class="node"><title>Node36</title>
<polygon fill="none" stroke="#bfbfbf" points="975,-112.5 975,-131.5 1103,-131.5 1103,-112.5 975,-112.5"/>
<text text-anchor="middle" x="1039" y="-119.5" font-family="Helvetica,sans-Serif" font-size="10.00">boost/concept_check.hpp</text>
</g>
<!-- Node32&#45;&gt;Node36 -->
<g id="edge45" class="edge"><title>Node32&#45;&gt;Node36</title>
<path fill="none" stroke="midnightblue" d="M1039,-168.083C1039,-161.006 1039,-150.861 1039,-141.986"/>
<polygon fill="midnightblue" stroke="midnightblue" points="1042.5,-141.751 1039,-131.751 1035.5,-141.751 1042.5,-141.751"/>
</g>
<!-- Node33&#45;&gt;Node13 -->
<g id="edge42" class="edge"><title>Node33&#45;&gt;Node13</title>
<path fill="none" stroke="midnightblue" d="M1131,-56.083C1131,-49.0059 1131,-38.8611 1131,-29.9865"/>
<polygon fill="midnightblue" stroke="midnightblue" points="1134.5,-29.751 1131,-19.7511 1127.5,-29.7511 1134.5,-29.751"/>
</g>
</g>
</svg>
