<?xml version="1.0" encoding="UTF-8" standalone="no"?>
<!DOCTYPE svg PUBLIC "-//W3C//DTD SVG 1.1//EN"
 "http://www.w3.org/Graphics/SVG/1.1/DTD/svg11.dtd">
<!-- Generated by graphviz version 2.38.0 (20140413.2041)
 -->
<!-- Title: Framework/src/runBasic.cxx Pages: 1 -->
<svg width="2007pt" height="442pt"
 viewBox="0.00 0.00 2007.00 442.00" xmlns="http://www.w3.org/2000/svg" xmlns:xlink="http://www.w3.org/1999/xlink">
<g id="graph0" class="graph" transform="scale(1 1) rotate(0) translate(4 438)">
<title>Framework/src/runBasic.cxx</title>
<!-- Node1 -->
<g id="node1" class="node"><title>Node1</title>
<polygon fill="#bfbfbf" stroke="black" points="1395,-414.5 1395,-433.5 1537,-433.5 1537,-414.5 1395,-414.5"/>
<text text-anchor="middle" x="1466" y="-421.5" font-family="Helvetica,sans-Serif" font-size="10.00">Framework/src/runBasic.cxx</text>
</g>
<!-- Node2 -->
<g id="node2" class="node"><title>Node2</title>
<polygon fill="none" stroke="#bfbfbf" points="13,-353 13,-372 151,-372 151,-353 13,-353"/>
<text text-anchor="middle" x="82" y="-360" font-family="Helvetica,sans-Serif" font-size="10.00">Framework/DataSampling.h</text>
</g>
<!-- Node1&#45;&gt;Node2 -->
<g id="edge1" class="edge"><title>Node1&#45;&gt;Node2</title>
<path fill="none" stroke="midnightblue" d="M1394.76,-421.836C1159.17,-417.784 406.506,-403.15 165,-378 154.961,-376.955 144.304,-375.419 134.091,-373.734"/>
<polygon fill="midnightblue" stroke="midnightblue" points="134.514,-370.256 124.066,-372.012 133.329,-377.155 134.514,-370.256"/>
</g>
<!-- Node3 -->
<g id="node3" class="node"><title>Node3</title>
<g id="a_node3"><a xlink:href="InfrastructureGenerator_8h.html" target="_top" xlink:title="QualityControl/Infrastructure\lGenerator.h">
<polygon fill="none" stroke="black" points="1233,-347.5 1233,-377.5 1373,-377.5 1373,-347.5 1233,-347.5"/>
<text text-anchor="start" x="1241" y="-365.5" font-family="Helvetica,sans-Serif" font-size="10.00">QualityControl/Infrastructure</text>
<text text-anchor="middle" x="1303" y="-354.5" font-family="Helvetica,sans-Serif" font-size="10.00">Generator.h</text>
</a>
</g>
</g>
<!-- Node1&#45;&gt;Node3 -->
<g id="edge2" class="edge"><title>Node1&#45;&gt;Node3</title>
<path fill="none" stroke="midnightblue" d="M1442.65,-414.475C1418.82,-405.776 1381.15,-392.026 1350.94,-380.998"/>
<polygon fill="midnightblue" stroke="midnightblue" points="1352.01,-377.664 1341.42,-377.523 1349.61,-384.24 1352.01,-377.664"/>
</g>
<!-- Node7 -->
<g id="node7" class="node"><title>Node7</title>
<polygon fill="none" stroke="#bfbfbf" points="1391.5,-353 1391.5,-372 1462.5,-372 1462.5,-353 1391.5,-353"/>
<text text-anchor="middle" x="1427" y="-360" font-family="Helvetica,sans-Serif" font-size="10.00">FairLogger.h</text>
</g>
<!-- Node1&#45;&gt;Node7 -->
<g id="edge6" class="edge"><title>Node1&#45;&gt;Node7</title>
<path fill="none" stroke="midnightblue" d="M1460.41,-414.475C1454.62,-405.638 1445.41,-391.589 1438.13,-380.475"/>
<polygon fill="midnightblue" stroke="midnightblue" points="1440.99,-378.454 1432.58,-372.009 1435.13,-382.291 1440.99,-378.454"/>
</g>
<!-- Node8 -->
<g id="node8" class="node"><title>Node8</title>
<polygon fill="none" stroke="#bfbfbf" points="1481,-353 1481,-372 1531,-372 1531,-353 1481,-353"/>
<text text-anchor="middle" x="1506" y="-360" font-family="Helvetica,sans-Serif" font-size="10.00">TH1F.h</text>
</g>
<!-- Node1&#45;&gt;Node8 -->
<g id="edge7" class="edge"><title>Node1&#45;&gt;Node8</title>
<path fill="none" stroke="midnightblue" d="M1471.73,-414.475C1477.67,-405.638 1487.12,-391.589 1494.59,-380.475"/>
<polygon fill="midnightblue" stroke="midnightblue" points="1497.61,-382.261 1500.28,-372.009 1491.8,-378.355 1497.61,-382.261"/>
</g>
<!-- Node9 -->
<g id="node9" class="node"><title>Node9</title>
<polygon fill="none" stroke="#bfbfbf" points="295,-168.5 295,-187.5 347,-187.5 347,-168.5 295,-168.5"/>
<text text-anchor="middle" x="321" y="-175.5" font-family="Helvetica,sans-Serif" font-size="10.00">memory</text>
</g>
<!-- Node1&#45;&gt;Node9 -->
<g id="edge8" class="edge"><title>Node1&#45;&gt;Node9</title>
<path fill="none" stroke="midnightblue" d="M1394.91,-421.82C1199.25,-418.245 655.615,-406.013 479,-378 368.353,-360.45 303.878,-400.126 236,-311 205.074,-270.393 264.877,-218.561 299.219,-193.655"/>
<polygon fill="midnightblue" stroke="midnightblue" points="301.579,-196.275 307.733,-187.651 297.544,-190.554 301.579,-196.275"/>
</g>
<!-- Node10 -->
<g id="node10" class="node"><title>Node10</title>
<polygon fill="none" stroke="#bfbfbf" points="1549.5,-353 1549.5,-372 1598.5,-372 1598.5,-353 1549.5,-353"/>
<text text-anchor="middle" x="1574" y="-360" font-family="Helvetica,sans-Serif" font-size="10.00">random</text>
</g>
<!-- Node1&#45;&gt;Node10 -->
<g id="edge9" class="edge"><title>Node1&#45;&gt;Node10</title>
<path fill="none" stroke="midnightblue" d="M1481.47,-414.475C1499.28,-404.666 1528.74,-388.435 1549.63,-376.925"/>
<polygon fill="midnightblue" stroke="midnightblue" points="1551.49,-379.9 1558.55,-372.009 1548.11,-373.769 1551.49,-379.9"/>
</g>
<!-- Node11 -->
<g id="node11" class="node"><title>Node11</title>
<polygon fill="none" stroke="#bfbfbf" points="1617,-353 1617,-372 1777,-372 1777,-353 1617,-353"/>
<text text-anchor="middle" x="1697" y="-360" font-family="Helvetica,sans-Serif" font-size="10.00">Framework/runDataProcessing.h</text>
</g>
<!-- Node1&#45;&gt;Node11 -->
<g id="edge10" class="edge"><title>Node1&#45;&gt;Node11</title>
<path fill="none" stroke="midnightblue" d="M1499.1,-414.475C1539.92,-403.959 1609.41,-386.062 1654.24,-374.514"/>
<polygon fill="midnightblue" stroke="midnightblue" points="1655.15,-377.893 1663.96,-372.009 1653.41,-371.114 1655.15,-377.893"/>
</g>
<!-- Node12 -->
<g id="node12" class="node"><title>Node12</title>
<g id="a_node12"><a xlink:href="Checker_8h.html" target="_top" xlink:title="QualityControl/Checker.h">
<polygon fill="none" stroke="black" points="488.5,-353 488.5,-372 615.5,-372 615.5,-353 488.5,-353"/>
<text text-anchor="middle" x="552" y="-360" font-family="Helvetica,sans-Serif" font-size="10.00">QualityControl/Checker.h</text>
</a>
</g>
</g>
<!-- Node1&#45;&gt;Node12 -->
<g id="edge11" class="edge"><title>Node1&#45;&gt;Node12</title>
<path fill="none" stroke="midnightblue" d="M1394.66,-418.356C1224.84,-407.301 797.978,-379.513 625.754,-368.301"/>
<polygon fill="midnightblue" stroke="midnightblue" points="625.975,-364.808 615.768,-367.651 625.52,-371.794 625.975,-364.808"/>
</g>
<!-- Node40 -->
<g id="node40" class="node"><title>Node40</title>
<g id="a_node40"><a xlink:href="runnerUtils_8h.html" target="_top" xlink:title="runnerUtils.h">
<polygon fill="none" stroke="black" points="1795,-353 1795,-372 1867,-372 1867,-353 1795,-353"/>
<text text-anchor="middle" x="1831" y="-360" font-family="Helvetica,sans-Serif" font-size="10.00">runnerUtils.h</text>
</a>
</g>
</g>
<!-- Node1&#45;&gt;Node40 -->
<g id="edge52" class="edge"><title>Node1&#45;&gt;Node40</title>
<path fill="none" stroke="midnightblue" d="M1537.18,-416.536C1602.46,-409.773 1701.52,-397.399 1786,-378 1789.65,-377.161 1793.44,-376.159 1797.19,-375.08"/>
<polygon fill="midnightblue" stroke="midnightblue" points="1798.39,-378.374 1806.92,-372.1 1796.34,-371.68 1798.39,-378.374"/>
</g>
<!-- Node42 -->
<g id="node42" class="node"><title>Node42</title>
<g id="a_node42"><a xlink:href="ExamplePrinterSpec_8h.html" target="_top" xlink:title="ExamplePrinterSpec.h">
<polygon fill="none" stroke="black" points="1885,-353 1885,-372 1999,-372 1999,-353 1885,-353"/>
<text text-anchor="middle" x="1942" y="-360" font-family="Helvetica,sans-Serif" font-size="10.00">ExamplePrinterSpec.h</text>
</a>
</g>
</g>
<!-- Node1&#45;&gt;Node42 -->
<g id="edge54" class="edge"><title>Node1&#45;&gt;Node42</title>
<path fill="none" stroke="midnightblue" d="M1537.05,-417.523C1619.06,-410.666 1757.82,-397.41 1876,-378 1882.69,-376.901 1889.72,-375.56 1896.6,-374.141"/>
<polygon fill="midnightblue" stroke="midnightblue" points="1897.46,-377.536 1906.51,-372.027 1896,-370.69 1897.46,-377.536"/>
</g>
<!-- Node4 -->
<g id="node4" class="node"><title>Node4</title>
<polygon fill="none" stroke="#bfbfbf" points="1151.5,-0.5 1151.5,-19.5 1192.5,-19.5 1192.5,-0.5 1151.5,-0.5"/>
<text text-anchor="middle" x="1172" y="-7.5" font-family="Helvetica,sans-Serif" font-size="10.00">string</text>
</g>
<!-- Node3&#45;&gt;Node4 -->
<g id="edge3" class="edge"><title>Node3&#45;&gt;Node4</title>
<path fill="none" stroke="midnightblue" d="M1313.03,-347.478C1328.14,-324.926 1355,-278.691 1355,-235 1355,-235 1355,-235 1355,-121 1355,-90.9022 1357.46,-77.1051 1336,-56 1300.17,-20.7633 1239.49,-12.4896 1202.85,-10.9018"/>
<polygon fill="midnightblue" stroke="midnightblue" points="1202.84,-7.4002 1192.74,-10.6075 1202.64,-14.3972 1202.84,-7.4002"/>
</g>
<!-- Node5 -->
<g id="node5" class="node"><title>Node5</title>
<polygon fill="none" stroke="#bfbfbf" points="1383,-286 1383,-305 1523,-305 1523,-286 1383,-286"/>
<text text-anchor="middle" x="1453" y="-293" font-family="Helvetica,sans-Serif" font-size="10.00">Framework/WorkflowSpec.h</text>
</g>
<!-- Node3&#45;&gt;Node5 -->
<g id="edge4" class="edge"><title>Node3&#45;&gt;Node5</title>
<path fill="none" stroke="midnightblue" d="M1335.55,-347.396C1361.87,-335.991 1398.59,-320.079 1423.93,-309.098"/>
<polygon fill="midnightblue" stroke="midnightblue" points="1425.58,-312.195 1433.37,-305.007 1422.8,-305.772 1425.58,-312.195"/>
</g>
<!-- Node6 -->
<g id="node6" class="node"><title>Node6</title>
<polygon fill="none" stroke="#bfbfbf" points="1541.5,-286 1541.5,-305 1694.5,-305 1694.5,-286 1541.5,-286"/>
<text text-anchor="middle" x="1618" y="-293" font-family="Helvetica,sans-Serif" font-size="10.00">Framework/CompletionPolicy.h</text>
</g>
<!-- Node3&#45;&gt;Node6 -->
<g id="edge5" class="edge"><title>Node3&#45;&gt;Node6</title>
<path fill="none" stroke="midnightblue" d="M1370.96,-347.476C1429.75,-335.345 1513.46,-318.071 1566.76,-307.074"/>
<polygon fill="midnightblue" stroke="midnightblue" points="1567.58,-310.477 1576.67,-305.029 1566.17,-303.622 1567.58,-310.477"/>
</g>
<!-- Node12&#45;&gt;Node9 -->
<g id="edge13" class="edge"><title>Node12&#45;&gt;Node9</title>
<path fill="none" stroke="midnightblue" d="M529.052,-352.93C507.305,-344.208 474.296,-329.378 449,-311 401.203,-276.274 355.615,-222.766 334.024,-195.784"/>
<polygon fill="midnightblue" stroke="midnightblue" points="336.597,-193.395 327.653,-187.716 331.103,-197.733 336.597,-193.395"/>
</g>
<!-- Node13 -->
<g id="node13" class="node"><title>Node13</title>
<polygon fill="none" stroke="#bfbfbf" points="529,-286 529,-305 575,-305 575,-286 529,-286"/>
<text text-anchor="middle" x="552" y="-293" font-family="Helvetica,sans-Serif" font-size="10.00">chrono</text>
</g>
<!-- Node12&#45;&gt;Node13 -->
<g id="edge12" class="edge"><title>Node12&#45;&gt;Node13</title>
<path fill="none" stroke="midnightblue" d="M552,-352.734C552,-343.183 552,-327.618 552,-315.283"/>
<polygon fill="midnightblue" stroke="midnightblue" points="555.5,-315.127 552,-305.127 548.5,-315.127 555.5,-315.127"/>
</g>
<!-- Node14 -->
<g id="node14" class="node"><title>Node14</title>
<polygon fill="none" stroke="#bfbfbf" points="593,-286 593,-305 685,-305 685,-286 593,-286"/>
<text text-anchor="middle" x="639" y="-293" font-family="Helvetica,sans-Serif" font-size="10.00">Common/Timer.h</text>
</g>
<!-- Node12&#45;&gt;Node14 -->
<g id="edge14" class="edge"><title>Node12&#45;&gt;Node14</title>
<path fill="none" stroke="midnightblue" d="M563.733,-352.734C577.952,-342.111 602.127,-324.049 619.239,-311.264"/>
<polygon fill="midnightblue" stroke="midnightblue" points="621.536,-313.916 627.453,-305.127 617.347,-308.309 621.536,-313.916"/>
</g>
<!-- Node15 -->
<g id="node15" class="node"><title>Node15</title>
<polygon fill="none" stroke="#bfbfbf" points="703.5,-280.5 703.5,-310.5 838.5,-310.5 838.5,-280.5 703.5,-280.5"/>
<text text-anchor="start" x="711.5" y="-298.5" font-family="Helvetica,sans-Serif" font-size="10.00">Configuration/Configuration</text>
<text text-anchor="middle" x="771" y="-287.5" font-family="Helvetica,sans-Serif" font-size="10.00">Interface.h</text>
</g>
<!-- Node12&#45;&gt;Node15 -->
<g id="edge15" class="edge"><title>Node12&#45;&gt;Node15</title>
<path fill="none" stroke="midnightblue" d="M581.082,-352.869C614.868,-342.841 671.419,-326.056 714.046,-313.404"/>
<polygon fill="midnightblue" stroke="midnightblue" points="715.145,-316.729 723.736,-310.528 713.154,-310.018 715.145,-316.729"/>
</g>
<!-- Node16 -->
<g id="node16" class="node"><title>Node16</title>
<polygon fill="none" stroke="#bfbfbf" points="857,-286 857,-305 955,-305 955,-286 857,-286"/>
<text text-anchor="middle" x="906" y="-293" font-family="Helvetica,sans-Serif" font-size="10.00">Framework/Task.h</text>
</g>
<!-- Node12&#45;&gt;Node16 -->
<g id="edge16" class="edge"><title>Node12&#45;&gt;Node16</title>
<path fill="none" stroke="midnightblue" d="M609.056,-352.971C668.645,-343.774 764.719,-328.131 847,-311 852.16,-309.926 857.553,-308.718 862.893,-307.471"/>
<polygon fill="midnightblue" stroke="midnightblue" points="864.108,-310.779 873.018,-305.047 862.478,-303.971 864.108,-310.779"/>
</g>
<!-- Node17 -->
<g id="node17" class="node"><title>Node17</title>
<polygon fill="none" stroke="#bfbfbf" points="245.5,-286 245.5,-305 396.5,-305 396.5,-286 245.5,-286"/>
<text text-anchor="middle" x="321" y="-293" font-family="Helvetica,sans-Serif" font-size="10.00">Monitoring/MonitoringFactory.h</text>
</g>
<!-- Node12&#45;&gt;Node17 -->
<g id="edge17" class="edge"><title>Node12&#45;&gt;Node17</title>
<path fill="none" stroke="midnightblue" d="M521.325,-352.869C480.135,-341.278 406.869,-320.662 361.278,-307.834"/>
<polygon fill="midnightblue" stroke="midnightblue" points="362.008,-304.403 351.434,-305.064 360.112,-311.142 362.008,-304.403"/>
</g>
<!-- Node18 -->
<g id="node18" class="node"><title>Node18</title>
<g id="a_node18"><a xlink:href="CheckInterface_8h.html" target="_top" xlink:title="QualityControl/CheckInterface.h">
<polygon fill="none" stroke="black" points="422.5,-168.5 422.5,-187.5 579.5,-187.5 579.5,-168.5 422.5,-168.5"/>
<text text-anchor="middle" x="501" y="-175.5" font-family="Helvetica,sans-Serif" font-size="10.00">QualityControl/CheckInterface.h</text>
</a>
</g>
</g>
<!-- Node12&#45;&gt;Node18 -->
<g id="edge18" class="edge"><title>Node12&#45;&gt;Node18</title>
<path fill="none" stroke="midnightblue" d="M544.858,-352.808C537.373,-343.202 525.899,-326.967 520,-311 505.742,-272.406 502.123,-223.788 501.244,-197.659"/>
<polygon fill="midnightblue" stroke="midnightblue" points="504.742,-197.557 501.007,-187.642 497.744,-197.722 504.742,-197.557"/>
</g>
<!-- Node19 -->
<g id="node19" class="node"><title>Node19</title>
<g id="a_node19"><a xlink:href="MonitorObject_8h.html" target="_top" xlink:title="QualityControl/MonitorObject.h">
<polygon fill="none" stroke="black" points="473.5,-112.5 473.5,-131.5 624.5,-131.5 624.5,-112.5 473.5,-112.5"/>
<text text-anchor="middle" x="549" y="-119.5" font-family="Helvetica,sans-Serif" font-size="10.00">QualityControl/MonitorObject.h</text>
</a>
</g>
</g>
<!-- Node12&#45;&gt;Node19 -->
<g id="edge33" class="edge"><title>Node12&#45;&gt;Node19</title>
<path fill="none" stroke="midnightblue" d="M542.466,-352.843C507.057,-320.221 386.477,-204.714 413,-168 425.203,-151.108 443.987,-140.454 463.737,-133.762"/>
<polygon fill="midnightblue" stroke="midnightblue" points="464.943,-137.053 473.485,-130.786 462.899,-130.359 464.943,-137.053"/>
</g>
<!-- Node26 -->
<g id="node26" class="node"><title>Node26</title>
<g id="a_node26"><a xlink:href="DatabaseInterface_8h.html" target="_top" xlink:title="QualityControl/DatabaseInterface.h">
<polygon fill="none" stroke="black" points="0,-224.5 0,-243.5 170,-243.5 170,-224.5 0,-224.5"/>
<text text-anchor="middle" x="85" y="-231.5" font-family="Helvetica,sans-Serif" font-size="10.00">QualityControl/DatabaseInterface.h</text>
</a>
</g>
</g>
<!-- Node12&#45;&gt;Node26 -->
<g id="edge29" class="edge"><title>Node12&#45;&gt;Node26</title>
<path fill="none" stroke="midnightblue" d="M488.308,-357.101C423.519,-351.296 320.854,-338.404 236,-311 187.824,-295.441 136.012,-266.343 107.338,-249.016"/>
<polygon fill="midnightblue" stroke="midnightblue" points="108.895,-245.866 98.5396,-243.628 105.24,-251.835 108.895,-245.866"/>
</g>
<!-- Node28 -->
<g id="node28" class="node"><title>Node28</title>
<g id="a_node28"><a xlink:href="QcInfoLogger_8h.html" target="_top" xlink:title="QualityControl/QcInfoLogger.h">
<polygon fill="none" stroke="black" points="972.5,-286 972.5,-305 1121.5,-305 1121.5,-286 972.5,-286"/>
<text text-anchor="middle" x="1047" y="-293" font-family="Helvetica,sans-Serif" font-size="10.00">QualityControl/QcInfoLogger.h</text>
</a>
</g>
</g>
<!-- Node12&#45;&gt;Node28 -->
<g id="edge34" class="edge"><title>Node12&#45;&gt;Node28</title>
<path fill="none" stroke="midnightblue" d="M615.658,-354.716C696.722,-345.844 841.04,-329.264 964,-311 972.62,-309.72 981.724,-308.25 990.619,-306.748"/>
<polygon fill="midnightblue" stroke="midnightblue" points="991.271,-310.187 1000.54,-305.047 990.088,-303.288 991.271,-310.187"/>
</g>
<!-- Node18&#45;&gt;Node19 -->
<g id="edge19" class="edge"><title>Node18&#45;&gt;Node19</title>
<path fill="none" stroke="midnightblue" d="M508.926,-168.083C515.846,-160.298 526.065,-148.801 534.452,-139.367"/>
<polygon fill="midnightblue" stroke="midnightblue" points="537.194,-141.55 541.221,-131.751 531.962,-136.9 537.194,-141.55"/>
</g>
<!-- Node24 -->
<g id="node24" class="node"><title>Node24</title>
<g id="a_node24"><a xlink:href="Quality_8h.html" target="_top" xlink:title="QualityControl/Quality.h">
<polygon fill="none" stroke="black" points="623.5,-56.5 623.5,-75.5 744.5,-75.5 744.5,-56.5 623.5,-56.5"/>
<text text-anchor="middle" x="684" y="-63.5" font-family="Helvetica,sans-Serif" font-size="10.00">QualityControl/Quality.h</text>
</a>
</g>
</g>
<!-- Node18&#45;&gt;Node24 -->
<g id="edge28" class="edge"><title>Node18&#45;&gt;Node24</title>
<path fill="none" stroke="midnightblue" d="M545.869,-168.494C572.913,-161.792 607.033,-150.422 633,-132 650.658,-119.473 665.223,-99.122 674.203,-84.5278"/>
<polygon fill="midnightblue" stroke="midnightblue" points="677.22,-86.3024 679.275,-75.9088 671.187,-82.7524 677.22,-86.3024"/>
</g>
<!-- Node20 -->
<g id="node20" class="node"><title>Node20</title>
<polygon fill="none" stroke="#bfbfbf" points="1115,-56.5 1115,-75.5 1169,-75.5 1169,-56.5 1115,-56.5"/>
<text text-anchor="middle" x="1142" y="-63.5" font-family="Helvetica,sans-Serif" font-size="10.00">iostream</text>
</g>
<!-- Node19&#45;&gt;Node20 -->
<g id="edge20" class="edge"><title>Node19&#45;&gt;Node20</title>
<path fill="none" stroke="midnightblue" d="M624.706,-114.106C753.214,-102.404 1009.38,-79.0765 1104.93,-70.3755"/>
<polygon fill="midnightblue" stroke="midnightblue" points="1105.34,-73.8525 1114.99,-69.46 1104.71,-66.8813 1105.34,-73.8525"/>
</g>
<!-- Node21 -->
<g id="node21" class="node"><title>Node21</title>
<polygon fill="none" stroke="#bfbfbf" points="531.5,-56.5 531.5,-75.5 566.5,-75.5 566.5,-56.5 531.5,-56.5"/>
<text text-anchor="middle" x="549" y="-63.5" font-family="Helvetica,sans-Serif" font-size="10.00">map</text>
</g>
<!-- Node19&#45;&gt;Node21 -->
<g id="edge21" class="edge"><title>Node19&#45;&gt;Node21</title>
<path fill="none" stroke="midnightblue" d="M549,-112.083C549,-105.006 549,-94.8611 549,-85.9865"/>
<polygon fill="midnightblue" stroke="midnightblue" points="552.5,-85.751 549,-75.7511 545.5,-85.7511 552.5,-85.751"/>
</g>
<!-- Node22 -->
<g id="node22" class="node"><title>Node22</title>
<polygon fill="none" stroke="#bfbfbf" points="573.5,-0.5 573.5,-19.5 632.5,-19.5 632.5,-0.5 573.5,-0.5"/>
<text text-anchor="middle" x="603" y="-7.5" font-family="Helvetica,sans-Serif" font-size="10.00">TObject.h</text>
</g>
<!-- Node19&#45;&gt;Node22 -->
<g id="edge22" class="edge"><title>Node19&#45;&gt;Node22</title>
<path fill="none" stroke="midnightblue" d="M554.494,-112.205C559.985,-103.254 568.522,-88.9014 575,-76 582.831,-60.4039 590.591,-42.1057 595.949,-28.9043"/>
<polygon fill="midnightblue" stroke="midnightblue" points="599.223,-30.1435 599.686,-19.5588 592.723,-27.5444 599.223,-30.1435"/>
</g>
<!-- Node23 -->
<g id="node23" class="node"><title>Node23</title>
<polygon fill="none" stroke="#bfbfbf" points="397,-56.5 397,-75.5 513,-75.5 513,-56.5 397,-56.5"/>
<text text-anchor="middle" x="455" y="-63.5" font-family="Helvetica,sans-Serif" font-size="10.00">Common/Exceptions.h</text>
</g>
<!-- Node19&#45;&gt;Node23 -->
<g id="edge23" class="edge"><title>Node19&#45;&gt;Node23</title>
<path fill="none" stroke="midnightblue" d="M533.897,-112.324C519.097,-103.822 496.306,-90.7288 479.018,-80.7975"/>
<polygon fill="midnightblue" stroke="midnightblue" points="480.48,-77.6009 470.065,-75.6545 476.993,-83.6707 480.48,-77.6009"/>
</g>
<!-- Node19&#45;&gt;Node24 -->
<g id="edge24" class="edge"><title>Node19&#45;&gt;Node24</title>
<path fill="none" stroke="midnightblue" d="M570.391,-112.444C592.707,-103.517 627.903,-89.4387 653.208,-79.3168"/>
<polygon fill="midnightblue" stroke="midnightblue" points="654.724,-82.4801 662.709,-75.5164 652.124,-75.9807 654.724,-82.4801"/>
</g>
<!-- Node24&#45;&gt;Node4 -->
<g id="edge27" class="edge"><title>Node24&#45;&gt;Node4</title>
<path fill="none" stroke="midnightblue" d="M744.819,-58.27C849.749,-46.6589 1061.19,-23.2616 1140.76,-14.4564"/>
<polygon fill="midnightblue" stroke="midnightblue" points="1141.54,-17.8923 1151.09,-13.3136 1140.77,-10.9347 1141.54,-17.8923"/>
</g>
<!-- Node24&#45;&gt;Node22 -->
<g id="edge25" class="edge"><title>Node24&#45;&gt;Node22</title>
<path fill="none" stroke="midnightblue" d="M670.986,-56.324C658.468,-47.979 639.318,-35.2122 624.529,-25.3524"/>
<polygon fill="midnightblue" stroke="midnightblue" points="626.244,-22.2894 615.982,-19.6545 622.361,-28.1137 626.244,-22.2894"/>
</g>
<!-- Node25 -->
<g id="node25" class="node"><title>Node25</title>
<polygon fill="none" stroke="#bfbfbf" points="658,-0.5 658,-19.5 710,-19.5 710,-0.5 658,-0.5"/>
<text text-anchor="middle" x="684" y="-7.5" font-family="Helvetica,sans-Serif" font-size="10.00">ostream</text>
</g>
<!-- Node24&#45;&gt;Node25 -->
<g id="edge26" class="edge"><title>Node24&#45;&gt;Node25</title>
<path fill="none" stroke="midnightblue" d="M684,-56.083C684,-49.0059 684,-38.8611 684,-29.9865"/>
<polygon fill="midnightblue" stroke="midnightblue" points="687.5,-29.751 684,-19.7511 680.5,-29.7511 687.5,-29.751"/>
</g>
<!-- Node26&#45;&gt;Node9 -->
<g id="edge31" class="edge"><title>Node26&#45;&gt;Node9</title>
<path fill="none" stroke="midnightblue" d="M122.395,-224.444C166.915,-214.257 240.759,-197.36 284.763,-187.291"/>
<polygon fill="midnightblue" stroke="midnightblue" points="285.774,-190.651 294.741,-185.008 284.212,-183.827 285.774,-190.651"/>
</g>
<!-- Node26&#45;&gt;Node19 -->
<g id="edge30" class="edge"><title>Node26&#45;&gt;Node19</title>
<path fill="none" stroke="midnightblue" d="M107.903,-224.402C144.894,-210.787 220.292,-184.158 286,-168 348.544,-152.62 420.73,-140.673 473.635,-132.966"/>
<polygon fill="midnightblue" stroke="midnightblue" points="474.217,-136.418 483.616,-131.529 473.22,-129.489 474.217,-136.418"/>
</g>
<!-- Node27 -->
<g id="node27" class="node"><title>Node27</title>
<polygon fill="none" stroke="#bfbfbf" points="43.5,-168.5 43.5,-187.5 126.5,-187.5 126.5,-168.5 43.5,-168.5"/>
<text text-anchor="middle" x="85" y="-175.5" font-family="Helvetica,sans-Serif" font-size="10.00">unordered_map</text>
</g>
<!-- Node26&#45;&gt;Node27 -->
<g id="edge32" class="edge"><title>Node26&#45;&gt;Node27</title>
<path fill="none" stroke="midnightblue" d="M85,-224.083C85,-217.006 85,-206.861 85,-197.986"/>
<polygon fill="midnightblue" stroke="midnightblue" points="88.5001,-197.751 85,-187.751 81.5001,-197.751 88.5001,-197.751"/>
</g>
<!-- Node28&#45;&gt;Node20 -->
<g id="edge51" class="edge"><title>Node28&#45;&gt;Node20</title>
<path fill="none" stroke="midnightblue" d="M1116.23,-285.951C1175.41,-274.582 1257.13,-248.315 1297,-188 1331.89,-135.207 1234.98,-95.426 1178.85,-77.4934"/>
<polygon fill="midnightblue" stroke="midnightblue" points="1179.81,-74.1255 1169.22,-74.5016 1177.73,-80.8105 1179.81,-74.1255"/>
</g>
<!-- Node29 -->
<g id="node29" class="node"><title>Node29</title>
<g id="a_node29"><a xlink:href="TaskInterface_8h.html" target="_top" xlink:title="TaskInterface.h">
<polygon fill="none" stroke="black" points="971.5,-224.5 971.5,-243.5 1056.5,-243.5 1056.5,-224.5 971.5,-224.5"/>
<text text-anchor="middle" x="1014" y="-231.5" font-family="Helvetica,sans-Serif" font-size="10.00">TaskInterface.h</text>
</a>
</g>
</g>
<!-- Node28&#45;&gt;Node29 -->
<g id="edge35" class="edge"><title>Node28&#45;&gt;Node29</title>
<path fill="none" stroke="midnightblue" d="M1042.27,-285.975C1037.42,-277.227 1029.73,-263.369 1023.6,-252.309"/>
<polygon fill="midnightblue" stroke="midnightblue" points="1026.63,-250.557 1018.72,-243.509 1020.51,-253.952 1026.63,-250.557"/>
</g>
<!-- Node39 -->
<g id="node39" class="node"><title>Node39</title>
<polygon fill="none" stroke="#bfbfbf" points="823,-224.5 823,-243.5 953,-243.5 953,-224.5 823,-224.5"/>
<text text-anchor="middle" x="888" y="-231.5" font-family="Helvetica,sans-Serif" font-size="10.00">InfoLogger/InfoLogger.hxx</text>
</g>
<!-- Node28&#45;&gt;Node39 -->
<g id="edge50" class="edge"><title>Node28&#45;&gt;Node39</title>
<path fill="none" stroke="midnightblue" d="M1024.22,-285.975C996.945,-275.769 951.087,-258.608 920.199,-247.049"/>
<polygon fill="midnightblue" stroke="midnightblue" points="921.331,-243.736 910.739,-243.509 918.878,-250.292 921.331,-243.736"/>
</g>
<!-- Node29&#45;&gt;Node9 -->
<g id="edge36" class="edge"><title>Node29&#45;&gt;Node9</title>
<path fill="none" stroke="midnightblue" d="M971.487,-225.264C968.282,-224.797 965.093,-224.368 962,-224 719.189,-195.109 656.712,-207.906 413,-188 394.588,-186.496 374.133,-184.525 357.195,-182.811"/>
<polygon fill="midnightblue" stroke="midnightblue" points="357.457,-179.32 347.153,-181.783 356.745,-186.283 357.457,-179.32"/>
</g>
<!-- Node30 -->
<g id="node30" class="node"><title>Node30</title>
<polygon fill="none" stroke="#bfbfbf" points="1060.5,-168.5 1060.5,-187.5 1109.5,-187.5 1109.5,-168.5 1060.5,-168.5"/>
<text text-anchor="middle" x="1085" y="-175.5" font-family="Helvetica,sans-Serif" font-size="10.00">cassert</text>
</g>
<!-- Node29&#45;&gt;Node30 -->
<g id="edge37" class="edge"><title>Node29&#45;&gt;Node30</title>
<path fill="none" stroke="midnightblue" d="M1025.41,-224.324C1036.11,-216.185 1052.34,-203.839 1065.16,-194.087"/>
<polygon fill="midnightblue" stroke="midnightblue" points="1067.54,-196.673 1073.39,-187.834 1063.31,-191.102 1067.54,-196.673"/>
</g>
<!-- Node31 -->
<g id="node31" class="node"><title>Node31</title>
<polygon fill="none" stroke="#bfbfbf" points="597.5,-168.5 597.5,-187.5 722.5,-187.5 722.5,-168.5 597.5,-168.5"/>
<text text-anchor="middle" x="660" y="-175.5" font-family="Helvetica,sans-Serif" font-size="10.00">Framework/InitContext.h</text>
</g>
<!-- Node29&#45;&gt;Node31 -->
<g id="edge38" class="edge"><title>Node29&#45;&gt;Node31</title>
<path fill="none" stroke="midnightblue" d="M971.446,-225.551C968.251,-225.018 965.075,-224.495 962,-224 882.555,-211.208 791.141,-197.764 729.885,-188.939"/>
<polygon fill="midnightblue" stroke="midnightblue" points="730.339,-185.468 719.943,-187.509 729.343,-192.397 730.339,-185.468"/>
</g>
<!-- Node32 -->
<g id="node32" class="node"><title>Node32</title>
<polygon fill="none" stroke="#bfbfbf" points="741,-168.5 741,-187.5 901,-187.5 901,-168.5 741,-168.5"/>
<text text-anchor="middle" x="821" y="-175.5" font-family="Helvetica,sans-Serif" font-size="10.00">Framework/ProcessingContext.h</text>
</g>
<!-- Node29&#45;&gt;Node32 -->
<g id="edge39" class="edge"><title>Node29&#45;&gt;Node32</title>
<path fill="none" stroke="midnightblue" d="M983.419,-224.444C950.385,-215.201 897.612,-200.436 861.234,-190.257"/>
<polygon fill="midnightblue" stroke="midnightblue" points="862.012,-186.84 851.438,-187.516 860.125,-193.582 862.012,-186.84"/>
</g>
<!-- Node33 -->
<g id="node33" class="node"><title>Node33</title>
<g id="a_node33"><a xlink:href="Activity_8h.html" target="_top" xlink:title="QualityControl/Activity.h">
<polygon fill="none" stroke="black" points="919.5,-168.5 919.5,-187.5 1042.5,-187.5 1042.5,-168.5 919.5,-168.5"/>
<text text-anchor="middle" x="981" y="-175.5" font-family="Helvetica,sans-Serif" font-size="10.00">QualityControl/Activity.h</text>
</a>
</g>
</g>
<!-- Node29&#45;&gt;Node33 -->
<g id="edge40" class="edge"><title>Node29&#45;&gt;Node33</title>
<path fill="none" stroke="midnightblue" d="M1008.55,-224.083C1003.99,-216.613 997.332,-205.724 991.707,-196.52"/>
<polygon fill="midnightblue" stroke="midnightblue" points="994.549,-194.459 986.348,-187.751 988.576,-198.109 994.549,-194.459"/>
</g>
<!-- Node34 -->
<g id="node34" class="node"><title>Node34</title>
<g id="a_node34"><a xlink:href="ObjectsManager_8h.html" target="_top" xlink:title="QualityControl/ObjectsManager.h">
<polygon fill="none" stroke="black" points="1127.5,-168.5 1127.5,-187.5 1288.5,-187.5 1288.5,-168.5 1127.5,-168.5"/>
<text text-anchor="middle" x="1208" y="-175.5" font-family="Helvetica,sans-Serif" font-size="10.00">QualityControl/ObjectsManager.h</text>
</a>
</g>
</g>
<!-- Node29&#45;&gt;Node34 -->
<g id="edge41" class="edge"><title>Node29&#45;&gt;Node34</title>
<path fill="none" stroke="midnightblue" d="M1044.74,-224.444C1077.94,-215.201 1130.99,-200.436 1167.56,-190.257"/>
<polygon fill="midnightblue" stroke="midnightblue" points="1168.71,-193.57 1177.4,-187.516 1166.83,-186.826 1168.71,-193.57"/>
</g>
<!-- Node34&#45;&gt;Node4 -->
<g id="edge49" class="edge"><title>Node34&#45;&gt;Node4</title>
<path fill="none" stroke="midnightblue" d="M1199.07,-168.341C1174.45,-144.422 1107.25,-79.0044 1106,-76 1102.58,-67.7961 1101.85,-63.8588 1106,-56 1113.74,-41.3555 1128.62,-30.5807 1142.3,-23.2524"/>
<polygon fill="midnightblue" stroke="midnightblue" points="1144.06,-26.2891 1151.47,-18.7243 1140.96,-20.0121 1144.06,-26.2891"/>
</g>
<!-- Node34&#45;&gt;Node19 -->
<g id="edge42" class="edge"><title>Node34&#45;&gt;Node19</title>
<path fill="none" stroke="midnightblue" d="M1127.05,-168.825C1124,-168.542 1120.97,-168.266 1118,-168 946.678,-152.661 746.087,-137.434 634.684,-129.22"/>
<polygon fill="midnightblue" stroke="midnightblue" points="634.745,-125.715 624.515,-128.471 634.231,-132.696 634.745,-125.715"/>
</g>
<!-- Node34&#45;&gt;Node24 -->
<g id="edge43" class="edge"><title>Node34&#45;&gt;Node24</title>
<path fill="none" stroke="midnightblue" d="M1128.75,-168.462C1080.49,-161.766 1018.1,-150.415 965,-132 946.968,-125.747 945.032,-118.253 927,-112 870.683,-92.4709 803.925,-80.8852 754.644,-74.3729"/>
<polygon fill="midnightblue" stroke="midnightblue" points="755.081,-70.9004 744.717,-73.0983 754.189,-77.8434 755.081,-70.9004"/>
</g>
<!-- Node35 -->
<g id="node35" class="node"><title>Node35</title>
<g id="a_node35"><a xlink:href="TaskConfig_8h.html" target="_top" xlink:title="QualityControl/TaskConfig.h">
<polygon fill="none" stroke="black" points="1187,-56.5 1187,-75.5 1327,-75.5 1327,-56.5 1187,-56.5"/>
<text text-anchor="middle" x="1257" y="-63.5" font-family="Helvetica,sans-Serif" font-size="10.00">QualityControl/TaskConfig.h</text>
</a>
</g>
</g>
<!-- Node34&#45;&gt;Node35 -->
<g id="edge44" class="edge"><title>Node34&#45;&gt;Node35</title>
<path fill="none" stroke="midnightblue" d="M1211.84,-168.368C1219.82,-150.456 1238.33,-108.923 1249,-84.9482"/>
<polygon fill="midnightblue" stroke="midnightblue" points="1252.3,-86.1503 1253.17,-75.5914 1245.91,-83.3019 1252.3,-86.1503"/>
</g>
<!-- Node36 -->
<g id="node36" class="node"><title>Node36</title>
<polygon fill="none" stroke="#bfbfbf" points="974.5,-112.5 974.5,-131.5 1043.5,-131.5 1043.5,-112.5 974.5,-112.5"/>
<text text-anchor="middle" x="1009" y="-119.5" font-family="Helvetica,sans-Serif" font-size="10.00">TObjArray.h</text>
</g>
<!-- Node34&#45;&gt;Node36 -->
<g id="edge46" class="edge"><title>Node34&#45;&gt;Node36</title>
<path fill="none" stroke="midnightblue" d="M1176.47,-168.444C1142.41,-159.201 1087.99,-144.436 1050.48,-134.257"/>
<polygon fill="midnightblue" stroke="midnightblue" points="1050.95,-130.758 1040.38,-131.516 1049.12,-137.513 1050.95,-130.758"/>
</g>
<!-- Node37 -->
<g id="node37" class="node"><title>Node37</title>
<polygon fill="none" stroke="#bfbfbf" points="1061.5,-112.5 1061.5,-131.5 1132.5,-131.5 1132.5,-112.5 1061.5,-112.5"/>
<text text-anchor="middle" x="1097" y="-119.5" font-family="Helvetica,sans-Serif" font-size="10.00">TObjString.h</text>
</g>
<!-- Node34&#45;&gt;Node37 -->
<g id="edge47" class="edge"><title>Node34&#45;&gt;Node37</title>
<path fill="none" stroke="midnightblue" d="M1190.17,-168.324C1172.28,-159.625 1144.52,-146.12 1123.95,-136.113"/>
<polygon fill="midnightblue" stroke="midnightblue" points="1125.31,-132.882 1114.79,-131.655 1122.25,-139.177 1125.31,-132.882"/>
</g>
<!-- Node38 -->
<g id="node38" class="node"><title>Node38</title>
<polygon fill="none" stroke="#bfbfbf" points="790,-112.5 790,-131.5 918,-131.5 918,-112.5 790,-112.5"/>
<text text-anchor="middle" x="854" y="-119.5" font-family="Helvetica,sans-Serif" font-size="10.00">boost/concept_check.hpp</text>
</g>
<!-- Node34&#45;&gt;Node38 -->
<g id="edge48" class="edge"><title>Node34&#45;&gt;Node38</title>
<path fill="none" stroke="midnightblue" d="M1151.91,-168.444C1088.86,-158.826 986.603,-143.228 919.824,-133.041"/>
<polygon fill="midnightblue" stroke="midnightblue" points="920.243,-129.565 909.83,-131.516 919.188,-136.484 920.243,-129.565"/>
</g>
<!-- Node35&#45;&gt;Node4 -->
<g id="edge45" class="edge"><title>Node35&#45;&gt;Node4</title>
<path fill="none" stroke="midnightblue" d="M1243.34,-56.324C1230.08,-47.9002 1209.73,-34.9709 1194.15,-25.0741"/>
<polygon fill="midnightblue" stroke="midnightblue" points="1195.94,-22.0626 1185.62,-19.6545 1192.19,-27.9711 1195.94,-22.0626"/>
</g>
<!-- Node41 -->
<g id="node41" class="node"><title>Node41</title>
<polygon fill="none" stroke="#bfbfbf" points="1763.5,-280.5 1763.5,-310.5 1898.5,-310.5 1898.5,-280.5 1763.5,-280.5"/>
<text text-anchor="start" x="1771.5" y="-298.5" font-family="Helvetica,sans-Serif" font-size="10.00">Configuration/Configuration</text>
<text text-anchor="middle" x="1831" y="-287.5" font-family="Helvetica,sans-Serif" font-size="10.00">Factory.h</text>
</g>
<!-- Node40&#45;&gt;Node41 -->
<g id="edge53" class="edge"><title>Node40&#45;&gt;Node41</title>
<path fill="none" stroke="midnightblue" d="M1831,-352.734C1831,-344.541 1831,-331.923 1831,-320.714"/>
<polygon fill="midnightblue" stroke="midnightblue" points="1834.5,-320.589 1831,-310.589 1827.5,-320.589 1834.5,-320.589"/>
</g>
</g>
</svg>
