<?xml version="1.0" encoding="UTF-8" standalone="no"?>
<!DOCTYPE svg PUBLIC "-//W3C//DTD SVG 1.1//EN"
 "http://www.w3.org/Graphics/SVG/1.1/DTD/svg11.dtd">
<!-- Generated by graphviz version 2.38.0 (20140413.2041)
 -->
<!-- Title: Framework/src/runInformationService.cxx Pages: 1 -->
<svg width="581pt" height="162pt"
 viewBox="0.00 0.00 580.50 162.00" xmlns="http://www.w3.org/2000/svg" xmlns:xlink="http://www.w3.org/1999/xlink">
<g id="graph0" class="graph" transform="scale(1 1) rotate(0) translate(4 158)">
<title>Framework/src/runInformationService.cxx</title>
<!-- Node1 -->
<g id="node1" class="node"><title>Node1</title>
<polygon fill="#bfbfbf" stroke="black" points="281.5,-123.5 281.5,-153.5 428.5,-153.5 428.5,-123.5 281.5,-123.5"/>
<text text-anchor="start" x="289.5" y="-141.5" font-family="Helvetica,sans-Serif" font-size="10.00">Framework/src/runInformation</text>
<text text-anchor="middle" x="355" y="-130.5" font-family="Helvetica,sans-Serif" font-size="10.00">Service.cxx</text>
</g>
<!-- Node2 -->
<g id="node2" class="node"><title>Node2</title>
<g id="a_node2"><a xlink:href="InformationService_8h.html" target="_top" xlink:title="InformationService.h">
<polygon fill="none" stroke="black" points="240.5,-67.5 240.5,-86.5 347.5,-86.5 347.5,-67.5 240.5,-67.5"/>
<text text-anchor="middle" x="294" y="-74.5" font-family="Helvetica,sans-Serif" font-size="10.00">InformationService.h</text>
</a>
</g>
</g>
<!-- Node1&#45;&gt;Node2 -->
<g id="edge1" class="edge"><title>Node1&#45;&gt;Node2</title>
<path fill="none" stroke="midnightblue" d="M340.544,-123.399C331.406,-114.486 319.581,-102.952 310.138,-93.7408"/>
<polygon fill="midnightblue" stroke="midnightblue" points="312.478,-91.1348 302.876,-86.6578 307.591,-96.1458 312.478,-91.1348"/>
</g>
<!-- Node8 -->
<g id="node8" class="node"><title>Node8</title>
<polygon fill="none" stroke="#bfbfbf" points="365.5,-67.5 365.5,-86.5 466.5,-86.5 466.5,-67.5 365.5,-67.5"/>
<text text-anchor="middle" x="416" y="-74.5" font-family="Helvetica,sans-Serif" font-size="10.00">runFairMQDevice.h</text>
</g>
<!-- Node1&#45;&gt;Node8 -->
<g id="edge7" class="edge"><title>Node1&#45;&gt;Node8</title>
<path fill="none" stroke="midnightblue" d="M369.456,-123.399C378.594,-114.486 390.419,-102.952 399.862,-93.7408"/>
<polygon fill="midnightblue" stroke="midnightblue" points="402.409,-96.1458 407.124,-86.6578 397.522,-91.1348 402.409,-96.1458"/>
</g>
<!-- Node3 -->
<g id="node3" class="node"><title>Node3</title>
<polygon fill="none" stroke="#bfbfbf" points="0,-6 0,-25 88,-25 88,-6 0,-6"/>
<text text-anchor="middle" x="44" y="-13" font-family="Helvetica,sans-Serif" font-size="10.00">FairMQDevice.h</text>
</g>
<!-- Node2&#45;&gt;Node3 -->
<g id="edge2" class="edge"><title>Node2&#45;&gt;Node3</title>
<path fill="none" stroke="midnightblue" d="M254.262,-67.4425C214.391,-58.7341 151.274,-44.6166 97,-31 92.8363,-29.9554 88.4987,-28.83 84.177,-27.6845"/>
<polygon fill="midnightblue" stroke="midnightblue" points="84.7773,-24.2216 74.2114,-25.0036 82.9589,-30.9813 84.7773,-24.2216"/>
</g>
<!-- Node4 -->
<g id="node4" class="node"><title>Node4</title>
<polygon fill="none" stroke="#bfbfbf" points="106,-6 106,-25 236,-25 236,-6 106,-6"/>
<text text-anchor="middle" x="171" y="-13" font-family="Helvetica,sans-Serif" font-size="10.00">InfoLogger/InfoLogger.hxx</text>
</g>
<!-- Node2&#45;&gt;Node4 -->
<g id="edge3" class="edge"><title>Node2&#45;&gt;Node4</title>
<path fill="none" stroke="midnightblue" d="M276.377,-67.4751C255.826,-57.5338 221.636,-40.9947 197.793,-29.461"/>
<polygon fill="midnightblue" stroke="midnightblue" points="199.116,-26.2131 188.59,-25.0091 196.068,-32.5145 199.116,-26.2131"/>
</g>
<!-- Node5 -->
<g id="node5" class="node"><title>Node5</title>
<polygon fill="none" stroke="#bfbfbf" points="254,-6 254,-25 334,-25 334,-6 254,-6"/>
<text text-anchor="middle" x="294" y="-13" font-family="Helvetica,sans-Serif" font-size="10.00">boost/asio.hpp</text>
</g>
<!-- Node2&#45;&gt;Node5 -->
<g id="edge4" class="edge"><title>Node2&#45;&gt;Node5</title>
<path fill="none" stroke="midnightblue" d="M294,-67.4751C294,-59.0803 294,-45.9806 294,-35.1631"/>
<polygon fill="midnightblue" stroke="midnightblue" points="297.5,-35.0091 294,-25.0091 290.5,-35.0091 297.5,-35.0091"/>
</g>
<!-- Node6 -->
<g id="node6" class="node"><title>Node6</title>
<polygon fill="none" stroke="#bfbfbf" points="352.5,-0.5 352.5,-30.5 453.5,-30.5 453.5,-0.5 352.5,-0.5"/>
<text text-anchor="start" x="360.5" y="-18.5" font-family="Helvetica,sans-Serif" font-size="10.00">boost/property_tree</text>
<text text-anchor="middle" x="403" y="-7.5" font-family="Helvetica,sans-Serif" font-size="10.00">/json_parser.hpp</text>
</g>
<!-- Node2&#45;&gt;Node6 -->
<g id="edge5" class="edge"><title>Node2&#45;&gt;Node6</title>
<path fill="none" stroke="midnightblue" d="M309.617,-67.4751C324.862,-59.1531 348.578,-46.2074 368.294,-35.445"/>
<polygon fill="midnightblue" stroke="midnightblue" points="370.21,-38.3865 377.311,-30.523 366.856,-32.2423 370.21,-38.3865"/>
</g>
<!-- Node7 -->
<g id="node7" class="node"><title>Node7</title>
<polygon fill="none" stroke="#bfbfbf" points="471.5,-0.5 471.5,-30.5 572.5,-30.5 572.5,-0.5 471.5,-0.5"/>
<text text-anchor="start" x="479.5" y="-18.5" font-family="Helvetica,sans-Serif" font-size="10.00">boost/property_tree</text>
<text text-anchor="middle" x="522" y="-7.5" font-family="Helvetica,sans-Serif" font-size="10.00">/ptree.hpp</text>
</g>
<!-- Node2&#45;&gt;Node7 -->
<g id="edge6" class="edge"><title>Node2&#45;&gt;Node7</title>
<path fill="none" stroke="midnightblue" d="M326.667,-67.4751C361.737,-58.3231 418.234,-43.5792 461.468,-32.2967"/>
<polygon fill="midnightblue" stroke="midnightblue" points="462.521,-35.6392 471.313,-29.7275 460.753,-28.8661 462.521,-35.6392"/>
</g>
</g>
</svg>
