<?xml version="1.0" encoding="UTF-8" standalone="no"?>
<!DOCTYPE svg PUBLIC "-//W3C//DTD SVG 1.1//EN"
 "http://www.w3.org/Graphics/SVG/1.1/DTD/svg11.dtd">
<!-- Generated by graphviz version 2.38.0 (20140413.2041)
 -->
<!-- Title: Framework/src/runInformationServiceDump.cxx Pages: 1 -->
<svg width="289pt" height="151pt"
 viewBox="0.00 0.00 288.50 151.00" xmlns="http://www.w3.org/2000/svg" xmlns:xlink="http://www.w3.org/1999/xlink">
<g id="graph0" class="graph" transform="scale(1 1) rotate(0) translate(4 147)">
<title>Framework/src/runInformationServiceDump.cxx</title>
<!-- Node1 -->
<g id="node1" class="node"><title>Node1</title>
<polygon fill="#bfbfbf" stroke="black" points="88.5,-112.5 88.5,-142.5 235.5,-142.5 235.5,-112.5 88.5,-112.5"/>
<text text-anchor="start" x="96.5" y="-130.5" font-family="Helvetica,sans-Serif" font-size="10.00">Framework/src/runInformation</text>
<text text-anchor="middle" x="162" y="-119.5" font-family="Helvetica,sans-Serif" font-size="10.00">ServiceDump.cxx</text>
</g>
<!-- Node2 -->
<g id="node2" class="node"><title>Node2</title>
<g id="a_node2"><a xlink:href="InformationServiceDump_8h.html" target="_top" xlink:title="InformationServiceDump.h">
<polygon fill="none" stroke="black" points="28.5,-56.5 28.5,-75.5 161.5,-75.5 161.5,-56.5 28.5,-56.5"/>
<text text-anchor="middle" x="95" y="-63.5" font-family="Helvetica,sans-Serif" font-size="10.00">InformationServiceDump.h</text>
</a>
</g>
</g>
<!-- Node1&#45;&gt;Node2 -->
<g id="edge1" class="edge"><title>Node1&#45;&gt;Node2</title>
<path fill="none" stroke="midnightblue" d="M146.122,-112.399C135.985,-103.397 122.838,-91.7214 112.415,-82.4652"/>
<polygon fill="midnightblue" stroke="midnightblue" points="114.55,-79.681 104.749,-75.6578 109.902,-84.915 114.55,-79.681"/>
</g>
<!-- Node5 -->
<g id="node5" class="node"><title>Node5</title>
<polygon fill="none" stroke="#bfbfbf" points="179.5,-56.5 179.5,-75.5 280.5,-75.5 280.5,-56.5 179.5,-56.5"/>
<text text-anchor="middle" x="230" y="-63.5" font-family="Helvetica,sans-Serif" font-size="10.00">runFairMQDevice.h</text>
</g>
<!-- Node1&#45;&gt;Node5 -->
<g id="edge4" class="edge"><title>Node1&#45;&gt;Node5</title>
<path fill="none" stroke="midnightblue" d="M178.115,-112.399C188.404,-103.397 201.747,-91.7214 212.326,-82.4652"/>
<polygon fill="midnightblue" stroke="midnightblue" points="214.884,-84.8769 220.105,-75.6578 210.275,-79.6088 214.884,-84.8769"/>
</g>
<!-- Node3 -->
<g id="node3" class="node"><title>Node3</title>
<polygon fill="none" stroke="#bfbfbf" points="0,-0.5 0,-19.5 88,-19.5 88,-0.5 0,-0.5"/>
<text text-anchor="middle" x="44" y="-7.5" font-family="Helvetica,sans-Serif" font-size="10.00">FairMQDevice.h</text>
</g>
<!-- Node2&#45;&gt;Node3 -->
<g id="edge2" class="edge"><title>Node2&#45;&gt;Node3</title>
<path fill="none" stroke="midnightblue" d="M86.5784,-56.083C79.1518,-48.2195 68.1483,-36.5688 59.1878,-27.0813"/>
<polygon fill="midnightblue" stroke="midnightblue" points="61.6757,-24.618 52.2649,-19.7511 56.5866,-29.4244 61.6757,-24.618"/>
</g>
<!-- Node4 -->
<g id="node4" class="node"><title>Node4</title>
<polygon fill="none" stroke="#bfbfbf" points="106,-0.5 106,-19.5 186,-19.5 186,-0.5 106,-0.5"/>
<text text-anchor="middle" x="146" y="-7.5" font-family="Helvetica,sans-Serif" font-size="10.00">boost/asio.hpp</text>
</g>
<!-- Node2&#45;&gt;Node4 -->
<g id="edge3" class="edge"><title>Node2&#45;&gt;Node4</title>
<path fill="none" stroke="midnightblue" d="M103.422,-56.083C110.848,-48.2195 121.852,-36.5688 130.812,-27.0813"/>
<polygon fill="midnightblue" stroke="midnightblue" points="133.413,-29.4244 137.735,-19.7511 128.324,-24.618 133.413,-29.4244"/>
</g>
</g>
</svg>
