<?xml version="1.0" encoding="UTF-8" standalone="no"?>
<!DOCTYPE svg PUBLIC "-//W3C//DTD SVG 1.1//EN"
 "http://www.w3.org/Graphics/SVG/1.1/DTD/svg11.dtd">
<!-- Generated by graphviz version 2.38.0 (20140413.2041)
 -->
<!-- Title: Framework/src/runMergerTest.cxx Pages: 1 -->
<svg width="1802pt" height="442pt"
 viewBox="0.00 0.00 1801.50 442.00" xmlns="http://www.w3.org/2000/svg" xmlns:xlink="http://www.w3.org/1999/xlink">
<g id="graph0" class="graph" transform="scale(1 1) rotate(0) translate(4 438)">
<title>Framework/src/runMergerTest.cxx</title>
<!-- Node1 -->
<g id="node1" class="node"><title>Node1</title>
<polygon fill="#bfbfbf" stroke="black" points="565,-414.5 565,-433.5 732,-433.5 732,-414.5 565,-414.5"/>
<text text-anchor="middle" x="648.5" y="-421.5" font-family="Helvetica,sans-Serif" font-size="10.00">Framework/src/runMergerTest.cxx</text>
</g>
<!-- Node2 -->
<g id="node2" class="node"><title>Node2</title>
<polygon fill="none" stroke="#bfbfbf" points="0,-353 0,-372 71,-372 71,-353 0,-353"/>
<text text-anchor="middle" x="35.5" y="-360" font-family="Helvetica,sans-Serif" font-size="10.00">FairLogger.h</text>
</g>
<!-- Node1&#45;&gt;Node2 -->
<g id="edge1" class="edge"><title>Node1&#45;&gt;Node2</title>
<path fill="none" stroke="midnightblue" d="M564.824,-421.587C454.255,-418.521 253.81,-408.803 85.5,-378 80.7491,-377.131 75.803,-375.992 70.9502,-374.735"/>
<polygon fill="midnightblue" stroke="midnightblue" points="71.7841,-371.335 61.2126,-372.036 69.9145,-378.08 71.7841,-371.335"/>
</g>
<!-- Node3 -->
<g id="node3" class="node"><title>Node3</title>
<polygon fill="none" stroke="#bfbfbf" points="41,-286 41,-305 194,-305 194,-286 41,-286"/>
<text text-anchor="middle" x="117.5" y="-293" font-family="Helvetica,sans-Serif" font-size="10.00">Framework/CompletionPolicy.h</text>
</g>
<!-- Node1&#45;&gt;Node3 -->
<g id="edge2" class="edge"><title>Node1&#45;&gt;Node3</title>
<path fill="none" stroke="midnightblue" d="M564.98,-421.937C423.299,-419.264 148.235,-409.971 118.5,-378 102.952,-361.283 106.604,-333.267 111.431,-314.833"/>
<polygon fill="midnightblue" stroke="midnightblue" points="114.787,-315.827 114.273,-305.245 108.075,-313.838 114.787,-315.827"/>
</g>
<!-- Node4 -->
<g id="node4" class="node"><title>Node4</title>
<polygon fill="none" stroke="#bfbfbf" points="460,-347.5 460,-377.5 605,-377.5 605,-347.5 460,-347.5"/>
<text text-anchor="start" x="468" y="-365.5" font-family="Helvetica,sans-Serif" font-size="10.00">Framework/CompletionPolicy</text>
<text text-anchor="middle" x="532.5" y="-354.5" font-family="Helvetica,sans-Serif" font-size="10.00">Helpers.h</text>
</g>
<!-- Node1&#45;&gt;Node4 -->
<g id="edge3" class="edge"><title>Node1&#45;&gt;Node4</title>
<path fill="none" stroke="midnightblue" d="M631.88,-414.475C615.509,-406.078 589.959,-392.973 568.866,-382.153"/>
<polygon fill="midnightblue" stroke="midnightblue" points="570.334,-378.973 559.839,-377.523 567.139,-385.201 570.334,-378.973"/>
</g>
<!-- Node5 -->
<g id="node5" class="node"><title>Node5</title>
<polygon fill="none" stroke="#bfbfbf" points="623.5,-353 623.5,-372 673.5,-372 673.5,-353 623.5,-353"/>
<text text-anchor="middle" x="648.5" y="-360" font-family="Helvetica,sans-Serif" font-size="10.00">TH1F.h</text>
</g>
<!-- Node1&#45;&gt;Node5 -->
<g id="edge4" class="edge"><title>Node1&#45;&gt;Node5</title>
<path fill="none" stroke="midnightblue" d="M648.5,-414.475C648.5,-406.08 648.5,-392.981 648.5,-382.163"/>
<polygon fill="midnightblue" stroke="midnightblue" points="652,-382.009 648.5,-372.009 645,-382.009 652,-382.009"/>
</g>
<!-- Node6 -->
<g id="node6" class="node"><title>Node6</title>
<polygon fill="none" stroke="#bfbfbf" points="927.5,-168.5 927.5,-187.5 979.5,-187.5 979.5,-168.5 927.5,-168.5"/>
<text text-anchor="middle" x="953.5" y="-175.5" font-family="Helvetica,sans-Serif" font-size="10.00">memory</text>
</g>
<!-- Node1&#45;&gt;Node6 -->
<g id="edge5" class="edge"><title>Node1&#45;&gt;Node6</title>
<path fill="none" stroke="midnightblue" d="M656.864,-414.478C664.727,-405.96 676.202,-392.131 682.5,-378 700.562,-337.476 673.24,-314.202 701.5,-280 708.889,-271.057 853.978,-216.126 920.583,-191.236"/>
<polygon fill="midnightblue" stroke="midnightblue" points="922.046,-194.426 930.191,-187.651 919.598,-187.868 922.046,-194.426"/>
</g>
<!-- Node7 -->
<g id="node7" class="node"><title>Node7</title>
<polygon fill="none" stroke="#bfbfbf" points="1538,-353 1538,-372 1587,-372 1587,-353 1538,-353"/>
<text text-anchor="middle" x="1562.5" y="-360" font-family="Helvetica,sans-Serif" font-size="10.00">random</text>
</g>
<!-- Node1&#45;&gt;Node7 -->
<g id="edge6" class="edge"><title>Node1&#45;&gt;Node7</title>
<path fill="none" stroke="midnightblue" d="M732.282,-422.572C922.033,-420.981 1379.73,-413.467 1529.5,-378 1531.86,-377.44 1534.27,-376.717 1536.65,-375.893"/>
<polygon fill="midnightblue" stroke="midnightblue" points="1538.14,-379.065 1546.12,-372.095 1535.54,-372.568 1538.14,-379.065"/>
</g>
<!-- Node8 -->
<g id="node8" class="node"><title>Node8</title>
<polygon fill="none" stroke="#bfbfbf" points="1605.5,-353 1605.5,-372 1765.5,-372 1765.5,-353 1605.5,-353"/>
<text text-anchor="middle" x="1685.5" y="-360" font-family="Helvetica,sans-Serif" font-size="10.00">Framework/runDataProcessing.h</text>
</g>
<!-- Node1&#45;&gt;Node8 -->
<g id="edge7" class="edge"><title>Node1&#45;&gt;Node8</title>
<path fill="none" stroke="midnightblue" d="M732.12,-422.23C897.605,-419.999 1278.39,-411.354 1596.5,-378 1607.23,-376.875 1618.63,-375.305 1629.56,-373.611"/>
<polygon fill="midnightblue" stroke="midnightblue" points="1630.12,-377.067 1639.44,-372.03 1629.01,-370.155 1630.12,-377.067"/>
</g>
<!-- Node9 -->
<g id="node9" class="node"><title>Node9</title>
<g id="a_node9"><a xlink:href="Checker_8h.html" target="_top" xlink:title="QualityControl/Checker.h">
<polygon fill="none" stroke="black" points="1044,-353 1044,-372 1171,-372 1171,-353 1044,-353"/>
<text text-anchor="middle" x="1107.5" y="-360" font-family="Helvetica,sans-Serif" font-size="10.00">QualityControl/Checker.h</text>
</a>
</g>
</g>
<!-- Node1&#45;&gt;Node9 -->
<g id="edge8" class="edge"><title>Node1&#45;&gt;Node9</title>
<path fill="none" stroke="midnightblue" d="M714.264,-414.475C798.878,-403.507 945.453,-384.506 1033.76,-373.059"/>
<polygon fill="midnightblue" stroke="midnightblue" points="1034.24,-376.526 1043.71,-371.77 1033.34,-369.584 1034.24,-376.526"/>
</g>
<!-- Node38 -->
<g id="node38" class="node"><title>Node38</title>
<g id="a_node38"><a xlink:href="CheckerFactory_8h.html" target="_top" xlink:title="QualityControl/CheckerFactory.h">
<polygon fill="none" stroke="black" points="281.5,-353 281.5,-372 441.5,-372 441.5,-353 281.5,-353"/>
<text text-anchor="middle" x="361.5" y="-360" font-family="Helvetica,sans-Serif" font-size="10.00">QualityControl/CheckerFactory.h</text>
</a>
</g>
</g>
<!-- Node1&#45;&gt;Node38 -->
<g id="edge49" class="edge"><title>Node1&#45;&gt;Node38</title>
<path fill="none" stroke="midnightblue" d="M607.38,-414.475C556.018,-403.827 468.144,-385.609 412.536,-374.081"/>
<polygon fill="midnightblue" stroke="midnightblue" points="413.046,-370.612 402.544,-372.009 411.625,-377.466 413.046,-370.612"/>
</g>
<!-- Node40 -->
<g id="node40" class="node"><title>Node40</title>
<g id="a_node40"><a xlink:href="HistoMerger_8h.html" target="_top" xlink:title="QualityControl/HistoMerger.h">
<polygon fill="none" stroke="black" points="1377,-353 1377,-372 1520,-372 1520,-353 1377,-353"/>
<text text-anchor="middle" x="1448.5" y="-360" font-family="Helvetica,sans-Serif" font-size="10.00">QualityControl/HistoMerger.h</text>
</a>
</g>
</g>
<!-- Node1&#45;&gt;Node40 -->
<g id="edge51" class="edge"><title>Node1&#45;&gt;Node40</title>
<path fill="none" stroke="midnightblue" d="M732.226,-416.773C886.45,-405.302 1213.6,-380.971 1366.51,-369.598"/>
<polygon fill="midnightblue" stroke="midnightblue" points="1367.06,-373.067 1376.77,-368.835 1366.54,-366.086 1367.06,-373.067"/>
</g>
<!-- Node44 -->
<g id="node44" class="node"><title>Node44</title>
<g id="a_node44"><a xlink:href="TaskRunnerFactory_8h.html" target="_top" xlink:title="QualityControl/TaskRunner\lFactory.h">
<polygon fill="none" stroke="black" points="128,-347.5 128,-377.5 263,-377.5 263,-347.5 128,-347.5"/>
<text text-anchor="start" x="136" y="-365.5" font-family="Helvetica,sans-Serif" font-size="10.00">QualityControl/TaskRunner</text>
<text text-anchor="middle" x="195.5" y="-354.5" font-family="Helvetica,sans-Serif" font-size="10.00">Factory.h</text>
</a>
</g>
</g>
<!-- Node1&#45;&gt;Node44 -->
<g id="edge59" class="edge"><title>Node1&#45;&gt;Node44</title>
<path fill="none" stroke="midnightblue" d="M564.652,-414.592C490.619,-406.794 379.54,-394.184 273.023,-378.013"/>
<polygon fill="midnightblue" stroke="midnightblue" points="273.477,-374.541 263.062,-376.488 272.417,-381.461 273.477,-374.541"/>
</g>
<!-- Node9&#45;&gt;Node6 -->
<g id="edge10" class="edge"><title>Node9&#45;&gt;Node6</title>
<path fill="none" stroke="midnightblue" d="M1107.38,-352.899C1106.78,-337.164 1103.68,-303.231 1088.5,-280 1061.66,-238.918 1012.07,-208.326 981.045,-192.105"/>
<polygon fill="midnightblue" stroke="midnightblue" points="982.558,-188.948 972.057,-187.537 979.386,-195.188 982.558,-188.948"/>
</g>
<!-- Node10 -->
<g id="node10" class="node"><title>Node10</title>
<polygon fill="none" stroke="#bfbfbf" points="1033.5,-286 1033.5,-305 1079.5,-305 1079.5,-286 1033.5,-286"/>
<text text-anchor="middle" x="1056.5" y="-293" font-family="Helvetica,sans-Serif" font-size="10.00">chrono</text>
</g>
<!-- Node9&#45;&gt;Node10 -->
<g id="edge9" class="edge"><title>Node9&#45;&gt;Node10</title>
<path fill="none" stroke="midnightblue" d="M1100.62,-352.734C1092.67,-342.598 1079.4,-325.69 1069.49,-313.056"/>
<polygon fill="midnightblue" stroke="midnightblue" points="1072.2,-310.834 1063.27,-305.127 1066.69,-315.155 1072.2,-310.834"/>
</g>
<!-- Node11 -->
<g id="node11" class="node"><title>Node11</title>
<polygon fill="none" stroke="#bfbfbf" points="1365.5,-286 1365.5,-305 1457.5,-305 1457.5,-286 1365.5,-286"/>
<text text-anchor="middle" x="1411.5" y="-293" font-family="Helvetica,sans-Serif" font-size="10.00">Common/Timer.h</text>
</g>
<!-- Node9&#45;&gt;Node11 -->
<g id="edge11" class="edge"><title>Node9&#45;&gt;Node11</title>
<path fill="none" stroke="midnightblue" d="M1153.56,-352.982C1203.67,-343.525 1286.05,-327.417 1356.5,-311 1361.13,-309.922 1365.95,-308.738 1370.75,-307.524"/>
<polygon fill="midnightblue" stroke="midnightblue" points="1371.65,-310.907 1380.45,-305.019 1369.9,-304.129 1371.65,-310.907"/>
</g>
<!-- Node12 -->
<g id="node12" class="node"><title>Node12</title>
<polygon fill="none" stroke="#bfbfbf" points="711,-280.5 711,-310.5 846,-310.5 846,-280.5 711,-280.5"/>
<text text-anchor="start" x="719" y="-298.5" font-family="Helvetica,sans-Serif" font-size="10.00">Configuration/Configuration</text>
<text text-anchor="middle" x="778.5" y="-287.5" font-family="Helvetica,sans-Serif" font-size="10.00">Interface.h</text>
</g>
<!-- Node9&#45;&gt;Node12 -->
<g id="edge12" class="edge"><title>Node9&#45;&gt;Node12</title>
<path fill="none" stroke="midnightblue" d="M1064.15,-352.936C1011.4,-342.513 921.347,-324.722 856.439,-311.898"/>
<polygon fill="midnightblue" stroke="midnightblue" points="856.736,-308.389 846.247,-309.885 855.379,-315.257 856.736,-308.389"/>
</g>
<!-- Node13 -->
<g id="node13" class="node"><title>Node13</title>
<polygon fill="none" stroke="#bfbfbf" points="1249.5,-286 1249.5,-305 1347.5,-305 1347.5,-286 1249.5,-286"/>
<text text-anchor="middle" x="1298.5" y="-293" font-family="Helvetica,sans-Serif" font-size="10.00">Framework/Task.h</text>
</g>
<!-- Node9&#45;&gt;Node13 -->
<g id="edge13" class="edge"><title>Node9&#45;&gt;Node13</title>
<path fill="none" stroke="midnightblue" d="M1132.86,-352.869C1166.49,-341.424 1225.98,-321.181 1263.76,-308.322"/>
<polygon fill="midnightblue" stroke="midnightblue" points="1265,-311.599 1273.34,-305.064 1262.74,-304.972 1265,-311.599"/>
</g>
<!-- Node14 -->
<g id="node14" class="node"><title>Node14</title>
<polygon fill="none" stroke="#bfbfbf" points="864,-286 864,-305 1015,-305 1015,-286 864,-286"/>
<text text-anchor="middle" x="939.5" y="-293" font-family="Helvetica,sans-Serif" font-size="10.00">Monitoring/MonitoringFactory.h</text>
</g>
<!-- Node9&#45;&gt;Node14 -->
<g id="edge14" class="edge"><title>Node9&#45;&gt;Node14</title>
<path fill="none" stroke="midnightblue" d="M1085.19,-352.869C1055.99,-341.571 1004.62,-321.696 971.338,-308.818"/>
<polygon fill="midnightblue" stroke="midnightblue" points="972.223,-305.408 961.634,-305.064 969.697,-311.936 972.223,-305.408"/>
</g>
<!-- Node15 -->
<g id="node15" class="node"><title>Node15</title>
<g id="a_node15"><a xlink:href="CheckInterface_8h.html" target="_top" xlink:title="QualityControl/CheckInterface.h">
<polygon fill="none" stroke="black" points="998,-168.5 998,-187.5 1155,-187.5 1155,-168.5 998,-168.5"/>
<text text-anchor="middle" x="1076.5" y="-175.5" font-family="Helvetica,sans-Serif" font-size="10.00">QualityControl/CheckInterface.h</text>
</a>
</g>
</g>
<!-- Node9&#45;&gt;Node15 -->
<g id="edge15" class="edge"><title>Node9&#45;&gt;Node15</title>
<path fill="none" stroke="midnightblue" d="M1111.19,-352.714C1120.02,-330.279 1140.32,-269.445 1121.5,-224 1116.58,-212.121 1106.83,-201.743 1097.67,-193.956"/>
<polygon fill="midnightblue" stroke="midnightblue" points="1099.58,-191.01 1089.56,-187.564 1095.25,-196.506 1099.58,-191.01"/>
</g>
<!-- Node16 -->
<g id="node16" class="node"><title>Node16</title>
<g id="a_node16"><a xlink:href="MonitorObject_8h.html" target="_top" xlink:title="QualityControl/MonitorObject.h">
<polygon fill="none" stroke="black" points="1020,-112.5 1020,-131.5 1171,-131.5 1171,-112.5 1020,-112.5"/>
<text text-anchor="middle" x="1095.5" y="-119.5" font-family="Helvetica,sans-Serif" font-size="10.00">QualityControl/MonitorObject.h</text>
</a>
</g>
</g>
<!-- Node9&#45;&gt;Node16 -->
<g id="edge30" class="edge"><title>Node9&#45;&gt;Node16</title>
<path fill="none" stroke="midnightblue" d="M1114.39,-352.907C1135.99,-324.848 1198.93,-233.925 1163.5,-168 1155.88,-153.815 1141.6,-143.352 1128.09,-136.103"/>
<polygon fill="midnightblue" stroke="midnightblue" points="1129.47,-132.879 1118.95,-131.592 1126.37,-139.156 1129.47,-132.879"/>
</g>
<!-- Node24 -->
<g id="node24" class="node"><title>Node24</title>
<g id="a_node24"><a xlink:href="DatabaseInterface_8h.html" target="_top" xlink:title="QualityControl/DatabaseInterface.h">
<polygon fill="none" stroke="black" points="1381.5,-224.5 1381.5,-243.5 1551.5,-243.5 1551.5,-224.5 1381.5,-224.5"/>
<text text-anchor="middle" x="1466.5" y="-231.5" font-family="Helvetica,sans-Serif" font-size="10.00">QualityControl/DatabaseInterface.h</text>
</a>
</g>
</g>
<!-- Node9&#45;&gt;Node24 -->
<g id="edge26" class="edge"><title>Node9&#45;&gt;Node24</title>
<path fill="none" stroke="midnightblue" d="M1124.08,-352.922C1142.4,-343.285 1172.58,-326.903 1197.5,-311 1217.36,-298.326 1218.9,-289.404 1240.5,-280 1281.5,-262.15 1329.79,-251.308 1371.18,-244.758"/>
<polygon fill="midnightblue" stroke="midnightblue" points="1371.91,-248.188 1381.27,-243.224 1370.86,-241.267 1371.91,-248.188"/>
</g>
<!-- Node26 -->
<g id="node26" class="node"><title>Node26</title>
<g id="a_node26"><a xlink:href="QcInfoLogger_8h.html" target="_top" xlink:title="QualityControl/QcInfoLogger.h">
<polygon fill="none" stroke="black" points="506,-286 506,-305 655,-305 655,-286 506,-286"/>
<text text-anchor="middle" x="580.5" y="-293" font-family="Helvetica,sans-Serif" font-size="10.00">QualityControl/QcInfoLogger.h</text>
</a>
</g>
</g>
<!-- Node9&#45;&gt;Node26 -->
<g id="edge31" class="edge"><title>Node9&#45;&gt;Node26</title>
<path fill="none" stroke="midnightblue" d="M1043.93,-353.659C947.626,-341.781 764.883,-319.242 659.945,-306.299"/>
<polygon fill="midnightblue" stroke="midnightblue" points="660.08,-302.789 649.727,-305.038 659.223,-309.736 660.08,-302.789"/>
</g>
<!-- Node15&#45;&gt;Node16 -->
<g id="edge16" class="edge"><title>Node15&#45;&gt;Node16</title>
<path fill="none" stroke="midnightblue" d="M1079.64,-168.083C1082.18,-160.849 1085.86,-150.409 1089.03,-141.397"/>
<polygon fill="midnightblue" stroke="midnightblue" points="1092.4,-142.346 1092.42,-131.751 1085.8,-140.023 1092.4,-142.346"/>
</g>
<!-- Node21 -->
<g id="node21" class="node"><title>Node21</title>
<g id="a_node21"><a xlink:href="Quality_8h.html" target="_top" xlink:title="QualityControl/Quality.h">
<polygon fill="none" stroke="black" points="835,-56.5 835,-75.5 956,-75.5 956,-56.5 835,-56.5"/>
<text text-anchor="middle" x="895.5" y="-63.5" font-family="Helvetica,sans-Serif" font-size="10.00">QualityControl/Quality.h</text>
</a>
</g>
</g>
<!-- Node15&#45;&gt;Node21 -->
<g id="edge25" class="edge"><title>Node15&#45;&gt;Node21</title>
<path fill="none" stroke="midnightblue" d="M1062.3,-168.368C1031.11,-149.412 956.383,-104.001 918.442,-80.9424"/>
<polygon fill="midnightblue" stroke="midnightblue" points="920,-77.794 909.637,-75.5914 916.365,-83.7759 920,-77.794"/>
</g>
<!-- Node17 -->
<g id="node17" class="node"><title>Node17</title>
<polygon fill="none" stroke="#bfbfbf" points="974.5,-56.5 974.5,-75.5 1028.5,-75.5 1028.5,-56.5 974.5,-56.5"/>
<text text-anchor="middle" x="1001.5" y="-63.5" font-family="Helvetica,sans-Serif" font-size="10.00">iostream</text>
</g>
<!-- Node16&#45;&gt;Node17 -->
<g id="edge17" class="edge"><title>Node16&#45;&gt;Node17</title>
<path fill="none" stroke="midnightblue" d="M1080.4,-112.324C1065.6,-103.822 1042.81,-90.7288 1025.52,-80.7975"/>
<polygon fill="midnightblue" stroke="midnightblue" points="1026.98,-77.6009 1016.57,-75.6545 1023.49,-83.6707 1026.98,-77.6009"/>
</g>
<!-- Node18 -->
<g id="node18" class="node"><title>Node18</title>
<polygon fill="none" stroke="#bfbfbf" points="1085,-56.5 1085,-75.5 1120,-75.5 1120,-56.5 1085,-56.5"/>
<text text-anchor="middle" x="1102.5" y="-63.5" font-family="Helvetica,sans-Serif" font-size="10.00">map</text>
</g>
<!-- Node16&#45;&gt;Node18 -->
<g id="edge18" class="edge"><title>Node16&#45;&gt;Node18</title>
<path fill="none" stroke="midnightblue" d="M1096.66,-112.083C1097.58,-104.927 1098.92,-94.6353 1100.08,-85.6911"/>
<polygon fill="midnightblue" stroke="midnightblue" points="1103.55,-86.1181 1101.37,-75.7511 1096.61,-85.2181 1103.55,-86.1181"/>
</g>
<!-- Node19 -->
<g id="node19" class="node"><title>Node19</title>
<polygon fill="none" stroke="#bfbfbf" points="983,-0.5 983,-19.5 1042,-19.5 1042,-0.5 983,-0.5"/>
<text text-anchor="middle" x="1012.5" y="-7.5" font-family="Helvetica,sans-Serif" font-size="10.00">TObject.h</text>
</g>
<!-- Node16&#45;&gt;Node19 -->
<g id="edge19" class="edge"><title>Node16&#45;&gt;Node19</title>
<path fill="none" stroke="midnightblue" d="M1088.99,-112.368C1075.23,-94.135 1043,-51.4257 1025.08,-27.6752"/>
<polygon fill="midnightblue" stroke="midnightblue" points="1027.8,-25.4659 1018.98,-19.5914 1022.21,-29.6821 1027.8,-25.4659"/>
</g>
<!-- Node20 -->
<g id="node20" class="node"><title>Node20</title>
<polygon fill="none" stroke="#bfbfbf" points="1138.5,-56.5 1138.5,-75.5 1254.5,-75.5 1254.5,-56.5 1138.5,-56.5"/>
<text text-anchor="middle" x="1196.5" y="-63.5" font-family="Helvetica,sans-Serif" font-size="10.00">Common/Exceptions.h</text>
</g>
<!-- Node16&#45;&gt;Node20 -->
<g id="edge20" class="edge"><title>Node16&#45;&gt;Node20</title>
<path fill="none" stroke="midnightblue" d="M1111.73,-112.324C1127.85,-103.703 1152.8,-90.3643 1171.46,-80.3855"/>
<polygon fill="midnightblue" stroke="midnightblue" points="1173.14,-83.456 1180.31,-75.6545 1169.84,-77.283 1173.14,-83.456"/>
</g>
<!-- Node16&#45;&gt;Node21 -->
<g id="edge21" class="edge"><title>Node16&#45;&gt;Node21</title>
<path fill="none" stroke="midnightblue" d="M1063.81,-112.444C1029.43,-103.162 974.423,-88.3093 936.711,-78.127"/>
<polygon fill="midnightblue" stroke="midnightblue" points="937.609,-74.7442 927.042,-75.5164 935.784,-81.5022 937.609,-74.7442"/>
</g>
<!-- Node21&#45;&gt;Node19 -->
<g id="edge22" class="edge"><title>Node21&#45;&gt;Node19</title>
<path fill="none" stroke="midnightblue" d="M914.039,-56.4435C933.123,-47.6356 963.075,-33.8116 984.936,-23.722"/>
<polygon fill="midnightblue" stroke="midnightblue" points="986.435,-26.8849 994.048,-19.5164 983.501,-20.5292 986.435,-26.8849"/>
</g>
<!-- Node22 -->
<g id="node22" class="node"><title>Node22</title>
<polygon fill="none" stroke="#bfbfbf" points="869.5,-0.5 869.5,-19.5 921.5,-19.5 921.5,-0.5 869.5,-0.5"/>
<text text-anchor="middle" x="895.5" y="-7.5" font-family="Helvetica,sans-Serif" font-size="10.00">ostream</text>
</g>
<!-- Node21&#45;&gt;Node22 -->
<g id="edge23" class="edge"><title>Node21&#45;&gt;Node22</title>
<path fill="none" stroke="midnightblue" d="M895.5,-56.083C895.5,-49.0059 895.5,-38.8611 895.5,-29.9865"/>
<polygon fill="midnightblue" stroke="midnightblue" points="899,-29.751 895.5,-19.7511 892,-29.7511 899,-29.751"/>
</g>
<!-- Node23 -->
<g id="node23" class="node"><title>Node23</title>
<polygon fill="none" stroke="#bfbfbf" points="726,-0.5 726,-19.5 767,-19.5 767,-0.5 726,-0.5"/>
<text text-anchor="middle" x="746.5" y="-7.5" font-family="Helvetica,sans-Serif" font-size="10.00">string</text>
</g>
<!-- Node21&#45;&gt;Node23 -->
<g id="edge24" class="edge"><title>Node21&#45;&gt;Node23</title>
<path fill="none" stroke="midnightblue" d="M871.891,-56.4435C846.165,-47.1203 804.932,-32.1768 776.827,-21.9911"/>
<polygon fill="midnightblue" stroke="midnightblue" points="777.714,-18.5898 767.12,-18.473 775.329,-25.1709 777.714,-18.5898"/>
</g>
<!-- Node24&#45;&gt;Node6 -->
<g id="edge28" class="edge"><title>Node24&#45;&gt;Node6</title>
<path fill="none" stroke="midnightblue" d="M1381.24,-225.145C1258.24,-213.791 1040.83,-193.634 989.693,-187.571"/>
<polygon fill="midnightblue" stroke="midnightblue" points="990.155,-184.101 979.776,-186.231 989.218,-191.038 990.155,-184.101"/>
</g>
<!-- Node24&#45;&gt;Node16 -->
<g id="edge27" class="edge"><title>Node24&#45;&gt;Node16</title>
<path fill="none" stroke="midnightblue" d="M1466.75,-224.263C1466.62,-210.079 1464.13,-182.201 1447.5,-168 1408.66,-134.836 1272.51,-125.754 1181.36,-123.471"/>
<polygon fill="midnightblue" stroke="midnightblue" points="1181.39,-119.971 1171.31,-123.242 1181.23,-126.969 1181.39,-119.971"/>
</g>
<!-- Node25 -->
<g id="node25" class="node"><title>Node25</title>
<polygon fill="none" stroke="#bfbfbf" points="1355,-168.5 1355,-187.5 1438,-187.5 1438,-168.5 1355,-168.5"/>
<text text-anchor="middle" x="1396.5" y="-175.5" font-family="Helvetica,sans-Serif" font-size="10.00">unordered_map</text>
</g>
<!-- Node24&#45;&gt;Node25 -->
<g id="edge29" class="edge"><title>Node24&#45;&gt;Node25</title>
<path fill="none" stroke="midnightblue" d="M1455.25,-224.324C1444.7,-216.185 1428.7,-203.839 1416.06,-194.087"/>
<polygon fill="midnightblue" stroke="midnightblue" points="1418.01,-191.171 1407.95,-187.834 1413.73,-196.713 1418.01,-191.171"/>
</g>
<!-- Node26&#45;&gt;Node17 -->
<g id="edge48" class="edge"><title>Node26&#45;&gt;Node17</title>
<path fill="none" stroke="midnightblue" d="M584.298,-285.877C591.494,-270.639 608.654,-239.137 633.5,-224 715.117,-174.276 757.774,-225.921 845.5,-188 904.52,-162.488 960.81,-109.391 986.679,-82.8368"/>
<polygon fill="midnightblue" stroke="midnightblue" points="989.31,-85.1503 993.7,-75.5079 984.255,-80.3079 989.31,-85.1503"/>
</g>
<!-- Node27 -->
<g id="node27" class="node"><title>Node27</title>
<g id="a_node27"><a xlink:href="TaskInterface_8h.html" target="_top" xlink:title="TaskInterface.h">
<polygon fill="none" stroke="black" points="501,-224.5 501,-243.5 586,-243.5 586,-224.5 501,-224.5"/>
<text text-anchor="middle" x="543.5" y="-231.5" font-family="Helvetica,sans-Serif" font-size="10.00">TaskInterface.h</text>
</a>
</g>
</g>
<!-- Node26&#45;&gt;Node27 -->
<g id="edge32" class="edge"><title>Node26&#45;&gt;Node27</title>
<path fill="none" stroke="midnightblue" d="M575.199,-285.975C569.759,-277.227 561.141,-263.369 554.264,-252.309"/>
<polygon fill="midnightblue" stroke="midnightblue" points="557.044,-250.153 548.791,-243.509 551.1,-253.849 557.044,-250.153"/>
</g>
<!-- Node37 -->
<g id="node37" class="node"><title>Node37</title>
<polygon fill="none" stroke="#bfbfbf" points="642.5,-224.5 642.5,-243.5 772.5,-243.5 772.5,-224.5 642.5,-224.5"/>
<text text-anchor="middle" x="707.5" y="-231.5" font-family="Helvetica,sans-Serif" font-size="10.00">InfoLogger/InfoLogger.hxx</text>
</g>
<!-- Node26&#45;&gt;Node37 -->
<g id="edge47" class="edge"><title>Node26&#45;&gt;Node37</title>
<path fill="none" stroke="midnightblue" d="M598.696,-285.975C620.009,-275.99 655.531,-259.348 680.163,-247.807"/>
<polygon fill="midnightblue" stroke="midnightblue" points="681.767,-250.921 689.338,-243.509 678.797,-244.582 681.767,-250.921"/>
</g>
<!-- Node27&#45;&gt;Node6 -->
<g id="edge33" class="edge"><title>Node27&#45;&gt;Node6</title>
<path fill="none" stroke="midnightblue" d="M586.217,-227.374C667.216,-216.706 841.779,-193.714 917.376,-183.758"/>
<polygon fill="midnightblue" stroke="midnightblue" points="917.909,-187.218 927.366,-182.442 916.995,-180.278 917.909,-187.218"/>
</g>
<!-- Node28 -->
<g id="node28" class="node"><title>Node28</title>
<polygon fill="none" stroke="#bfbfbf" points="287,-168.5 287,-187.5 336,-187.5 336,-168.5 287,-168.5"/>
<text text-anchor="middle" x="311.5" y="-175.5" font-family="Helvetica,sans-Serif" font-size="10.00">cassert</text>
</g>
<!-- Node27&#45;&gt;Node28 -->
<g id="edge34" class="edge"><title>Node27&#45;&gt;Node28</title>
<path fill="none" stroke="midnightblue" d="M503.356,-224.464C465.201,-216.23 405.978,-203.139 346.303,-188.379"/>
<polygon fill="midnightblue" stroke="midnightblue" points="346.885,-184.917 336.336,-185.899 345.195,-191.71 346.885,-184.917"/>
</g>
<!-- Node29 -->
<g id="node29" class="node"><title>Node29</title>
<polygon fill="none" stroke="#bfbfbf" points="354,-168.5 354,-187.5 479,-187.5 479,-168.5 354,-168.5"/>
<text text-anchor="middle" x="416.5" y="-175.5" font-family="Helvetica,sans-Serif" font-size="10.00">Framework/InitContext.h</text>
</g>
<!-- Node27&#45;&gt;Node29 -->
<g id="edge35" class="edge"><title>Node27&#45;&gt;Node29</title>
<path fill="none" stroke="midnightblue" d="M523.376,-224.444C502.476,-215.557 469.565,-201.563 445.784,-191.451"/>
<polygon fill="midnightblue" stroke="midnightblue" points="447.102,-188.208 436.529,-187.516 444.362,-194.65 447.102,-188.208"/>
</g>
<!-- Node30 -->
<g id="node30" class="node"><title>Node30</title>
<polygon fill="none" stroke="#bfbfbf" points="497.5,-168.5 497.5,-187.5 657.5,-187.5 657.5,-168.5 497.5,-168.5"/>
<text text-anchor="middle" x="577.5" y="-175.5" font-family="Helvetica,sans-Serif" font-size="10.00">Framework/ProcessingContext.h</text>
</g>
<!-- Node27&#45;&gt;Node30 -->
<g id="edge36" class="edge"><title>Node27&#45;&gt;Node30</title>
<path fill="none" stroke="midnightblue" d="M549.114,-224.083C553.867,-216.534 560.818,-205.495 566.652,-196.23"/>
<polygon fill="midnightblue" stroke="midnightblue" points="569.624,-198.078 571.99,-187.751 563.7,-194.349 569.624,-198.078"/>
</g>
<!-- Node31 -->
<g id="node31" class="node"><title>Node31</title>
<g id="a_node31"><a xlink:href="Activity_8h.html" target="_top" xlink:title="QualityControl/Activity.h">
<polygon fill="none" stroke="black" points="146,-168.5 146,-187.5 269,-187.5 269,-168.5 146,-168.5"/>
<text text-anchor="middle" x="207.5" y="-175.5" font-family="Helvetica,sans-Serif" font-size="10.00">QualityControl/Activity.h</text>
</a>
</g>
</g>
<!-- Node27&#45;&gt;Node31 -->
<g id="edge37" class="edge"><title>Node27&#45;&gt;Node31</title>
<path fill="none" stroke="midnightblue" d="M500.945,-226.161C442.745,-216.807 337.88,-199.954 270.543,-189.132"/>
<polygon fill="midnightblue" stroke="midnightblue" points="270.91,-185.646 260.481,-187.515 269.799,-192.557 270.91,-185.646"/>
</g>
<!-- Node32 -->
<g id="node32" class="node"><title>Node32</title>
<g id="a_node32"><a xlink:href="ObjectsManager_8h.html" target="_top" xlink:title="QualityControl/ObjectsManager.h">
<polygon fill="none" stroke="black" points="676,-168.5 676,-187.5 837,-187.5 837,-168.5 676,-168.5"/>
<text text-anchor="middle" x="756.5" y="-175.5" font-family="Helvetica,sans-Serif" font-size="10.00">QualityControl/ObjectsManager.h</text>
</a>
</g>
</g>
<!-- Node27&#45;&gt;Node32 -->
<g id="edge38" class="edge"><title>Node27&#45;&gt;Node32</title>
<path fill="none" stroke="midnightblue" d="M577.25,-224.444C614.018,-215.122 672.946,-200.183 713.122,-189.997"/>
<polygon fill="midnightblue" stroke="midnightblue" points="714.074,-193.367 722.907,-187.516 712.354,-186.581 714.074,-193.367"/>
</g>
<!-- Node32&#45;&gt;Node16 -->
<g id="edge39" class="edge"><title>Node32&#45;&gt;Node16</title>
<path fill="none" stroke="midnightblue" d="M810.216,-168.444C870.469,-158.846 968.114,-143.292 1032.07,-133.104"/>
<polygon fill="midnightblue" stroke="midnightblue" points="1032.71,-136.546 1042.04,-131.516 1031.61,-129.633 1032.71,-136.546"/>
</g>
<!-- Node32&#45;&gt;Node21 -->
<g id="edge40" class="edge"><title>Node32&#45;&gt;Node21</title>
<path fill="none" stroke="midnightblue" d="M750.987,-168.493C743.088,-155.122 730.829,-128.966 743.5,-112 754.639,-97.0852 796.452,-85.3673 833.409,-77.6325"/>
<polygon fill="midnightblue" stroke="midnightblue" points="834.566,-80.9694 843.674,-75.5572 833.179,-74.1082 834.566,-80.9694"/>
</g>
<!-- Node32&#45;&gt;Node23 -->
<g id="edge46" class="edge"><title>Node32&#45;&gt;Node23</title>
<path fill="none" stroke="midnightblue" d="M743.674,-168.314C722.216,-152.824 680.146,-118.079 667.5,-76 664.942,-67.4872 663.033,-63.685 667.5,-56 677.91,-38.0899 698.409,-26.7164 715.917,-19.8846"/>
<polygon fill="midnightblue" stroke="midnightblue" points="717.535,-23.0239 725.781,-16.3719 715.187,-16.4296 717.535,-23.0239"/>
</g>
<!-- Node33 -->
<g id="node33" class="node"><title>Node33</title>
<g id="a_node33"><a xlink:href="TaskConfig_8h.html" target="_top" xlink:title="QualityControl/TaskConfig.h">
<polygon fill="none" stroke="black" points="676.5,-56.5 676.5,-75.5 816.5,-75.5 816.5,-56.5 676.5,-56.5"/>
<text text-anchor="middle" x="746.5" y="-63.5" font-family="Helvetica,sans-Serif" font-size="10.00">QualityControl/TaskConfig.h</text>
</a>
</g>
</g>
<!-- Node32&#45;&gt;Node33 -->
<g id="edge41" class="edge"><title>Node32&#45;&gt;Node33</title>
<path fill="none" stroke="midnightblue" d="M742.713,-168.189C731.674,-160.241 716.998,-147.447 710.5,-132 703.127,-114.472 716.181,-95.5789 728.582,-82.7038"/>
<polygon fill="midnightblue" stroke="midnightblue" points="731.255,-84.9885 736.031,-75.531 726.4,-79.9462 731.255,-84.9885"/>
</g>
<!-- Node34 -->
<g id="node34" class="node"><title>Node34</title>
<polygon fill="none" stroke="#bfbfbf" points="753,-112.5 753,-131.5 822,-131.5 822,-112.5 753,-112.5"/>
<text text-anchor="middle" x="787.5" y="-119.5" font-family="Helvetica,sans-Serif" font-size="10.00">TObjArray.h</text>
</g>
<!-- Node32&#45;&gt;Node34 -->
<g id="edge43" class="edge"><title>Node32&#45;&gt;Node34</title>
<path fill="none" stroke="midnightblue" d="M761.619,-168.083C765.908,-160.613 772.158,-149.724 777.442,-140.52"/>
<polygon fill="midnightblue" stroke="midnightblue" points="780.533,-142.166 782.476,-131.751 774.462,-138.681 780.533,-142.166"/>
</g>
<!-- Node35 -->
<g id="node35" class="node"><title>Node35</title>
<polygon fill="none" stroke="#bfbfbf" points="840,-112.5 840,-131.5 911,-131.5 911,-112.5 840,-112.5"/>
<text text-anchor="middle" x="875.5" y="-119.5" font-family="Helvetica,sans-Serif" font-size="10.00">TObjString.h</text>
</g>
<!-- Node32&#45;&gt;Node35 -->
<g id="edge44" class="edge"><title>Node32&#45;&gt;Node35</title>
<path fill="none" stroke="midnightblue" d="M775.356,-168.444C794.766,-159.636 825.23,-145.812 847.465,-135.722"/>
<polygon fill="midnightblue" stroke="midnightblue" points="849.072,-138.836 856.732,-131.516 846.18,-132.462 849.072,-138.836"/>
</g>
<!-- Node36 -->
<g id="node36" class="node"><title>Node36</title>
<polygon fill="none" stroke="#bfbfbf" points="492.5,-112.5 492.5,-131.5 620.5,-131.5 620.5,-112.5 492.5,-112.5"/>
<text text-anchor="middle" x="556.5" y="-119.5" font-family="Helvetica,sans-Serif" font-size="10.00">boost/concept_check.hpp</text>
</g>
<!-- Node32&#45;&gt;Node36 -->
<g id="edge45" class="edge"><title>Node32&#45;&gt;Node36</title>
<path fill="none" stroke="midnightblue" d="M724.809,-168.444C690.432,-159.162 635.423,-144.309 597.711,-134.127"/>
<polygon fill="midnightblue" stroke="midnightblue" points="598.609,-130.744 588.042,-131.516 596.784,-137.502 598.609,-130.744"/>
</g>
<!-- Node33&#45;&gt;Node23 -->
<g id="edge42" class="edge"><title>Node33&#45;&gt;Node23</title>
<path fill="none" stroke="midnightblue" d="M746.5,-56.083C746.5,-49.0059 746.5,-38.8611 746.5,-29.9865"/>
<polygon fill="midnightblue" stroke="midnightblue" points="750,-29.751 746.5,-19.7511 743,-29.7511 750,-29.751"/>
</g>
<!-- Node39 -->
<g id="node39" class="node"><title>Node39</title>
<polygon fill="none" stroke="#bfbfbf" points="249.5,-286 249.5,-305 413.5,-305 413.5,-286 249.5,-286"/>
<text text-anchor="middle" x="331.5" y="-293" font-family="Helvetica,sans-Serif" font-size="10.00">Framework/DataProcessorSpec.h</text>
</g>
<!-- Node38&#45;&gt;Node39 -->
<g id="edge50" class="edge"><title>Node38&#45;&gt;Node39</title>
<path fill="none" stroke="midnightblue" d="M357.454,-352.734C352.956,-342.988 345.568,-326.981 339.822,-314.532"/>
<polygon fill="midnightblue" stroke="midnightblue" points="342.85,-312.74 335.482,-305.127 336.495,-315.674 342.85,-312.74"/>
</g>
<!-- Node40&#45;&gt;Node6 -->
<g id="edge52" class="edge"><title>Node40&#45;&gt;Node6</title>
<path fill="none" stroke="midnightblue" d="M1454.63,-352.788C1465.23,-336.569 1484.22,-301.451 1466.5,-280 1433.57,-240.13 1074.93,-203.237 989.781,-187.928"/>
<polygon fill="midnightblue" stroke="midnightblue" points="990.321,-184.467 979.831,-185.956 988.96,-191.334 990.321,-184.467"/>
</g>
<!-- Node40&#45;&gt;Node11 -->
<g id="edge54" class="edge"><title>Node40&#45;&gt;Node11</title>
<path fill="none" stroke="midnightblue" d="M1443.51,-352.734C1437.91,-342.89 1428.67,-326.66 1421.55,-314.159"/>
<polygon fill="midnightblue" stroke="midnightblue" points="1424.4,-312.087 1416.41,-305.127 1418.32,-315.549 1424.4,-312.087"/>
</g>
<!-- Node40&#45;&gt;Node13 -->
<g id="edge55" class="edge"><title>Node40&#45;&gt;Node13</title>
<path fill="none" stroke="midnightblue" d="M1428.58,-352.869C1402.81,-341.699 1357.68,-322.147 1327.95,-309.26"/>
<polygon fill="midnightblue" stroke="midnightblue" points="1329.07,-305.932 1318.5,-305.167 1326.29,-312.355 1329.07,-305.932"/>
</g>
<!-- Node40&#45;&gt;Node16 -->
<g id="edge58" class="edge"><title>Node40&#45;&gt;Node16</title>
<path fill="none" stroke="midnightblue" d="M1495.22,-352.983C1567.67,-339.668 1699.2,-315.024 1702.5,-311 1711.24,-300.35 1709.85,-291.651 1702.5,-280 1640.75,-182.159 1578.61,-200.26 1467.5,-168 1371.84,-140.225 1257.52,-129.577 1181.09,-125.505"/>
<polygon fill="midnightblue" stroke="midnightblue" points="1181.2,-122.005 1171.03,-124.995 1180.84,-128.997 1181.2,-122.005"/>
</g>
<!-- Node41 -->
<g id="node41" class="node"><title>Node41</title>
<polygon fill="none" stroke="#bfbfbf" points="1749.5,-286 1749.5,-305 1793.5,-305 1793.5,-286 1749.5,-286"/>
<text text-anchor="middle" x="1771.5" y="-293" font-family="Helvetica,sans-Serif" font-size="10.00">vector</text>
</g>
<!-- Node40&#45;&gt;Node41 -->
<g id="edge53" class="edge"><title>Node40&#45;&gt;Node41</title>
<path fill="none" stroke="midnightblue" d="M1496.04,-352.957C1507.02,-350.991 1518.67,-348.916 1529.5,-347 1621.02,-330.811 1646.12,-336.503 1735.5,-311 1737.94,-310.304 1740.44,-309.5 1742.93,-308.634"/>
<polygon fill="midnightblue" stroke="midnightblue" points="1744.21,-311.891 1752.33,-305.087 1741.74,-305.341 1744.21,-311.891"/>
</g>
<!-- Node42 -->
<g id="node42" class="node"><title>Node42</title>
<polygon fill="none" stroke="#bfbfbf" points="1514,-286 1514,-305 1631,-305 1631,-286 1514,-286"/>
<text text-anchor="middle" x="1572.5" y="-293" font-family="Helvetica,sans-Serif" font-size="10.00">Headers/DataHeader.h</text>
</g>
<!-- Node40&#45;&gt;Node42 -->
<g id="edge56" class="edge"><title>Node40&#45;&gt;Node42</title>
<path fill="none" stroke="midnightblue" d="M1464.97,-352.869C1485.9,-341.893 1522.28,-322.824 1546.86,-309.938"/>
<polygon fill="midnightblue" stroke="midnightblue" points="1548.73,-312.91 1555.97,-305.167 1545.48,-306.71 1548.73,-312.91"/>
</g>
<!-- Node43 -->
<g id="node43" class="node"><title>Node43</title>
<polygon fill="none" stroke="#bfbfbf" points="1649.5,-286 1649.5,-305 1693.5,-305 1693.5,-286 1649.5,-286"/>
<text text-anchor="middle" x="1671.5" y="-293" font-family="Helvetica,sans-Serif" font-size="10.00">TH1.h</text>
</g>
<!-- Node40&#45;&gt;Node43 -->
<g id="edge57" class="edge"><title>Node40&#45;&gt;Node43</title>
<path fill="none" stroke="midnightblue" d="M1489.61,-352.949C1528.93,-344.241 1589.62,-329.421 1640.5,-311 1642.11,-310.416 1643.76,-309.779 1645.4,-309.109"/>
<polygon fill="midnightblue" stroke="midnightblue" points="1646.93,-312.263 1654.68,-305.04 1644.11,-305.853 1646.93,-312.263"/>
</g>
<!-- Node44&#45;&gt;Node3 -->
<g id="edge60" class="edge"><title>Node44&#45;&gt;Node3</title>
<path fill="none" stroke="midnightblue" d="M178.575,-347.396C165.932,-336.86 148.673,-322.477 135.726,-311.689"/>
<polygon fill="midnightblue" stroke="midnightblue" points="137.856,-308.908 127.933,-305.195 133.375,-314.285 137.856,-308.908"/>
</g>
<!-- Node44&#45;&gt;Node39 -->
<g id="edge61" class="edge"><title>Node44&#45;&gt;Node39</title>
<path fill="none" stroke="midnightblue" d="M225.01,-347.396C248.662,-336.092 281.576,-320.361 304.53,-309.39"/>
<polygon fill="midnightblue" stroke="midnightblue" points="306.188,-312.477 313.701,-305.007 303.169,-306.161 306.188,-312.477"/>
</g>
</g>
</svg>
