<?xml version="1.0" encoding="UTF-8" standalone="no"?>
<!DOCTYPE svg PUBLIC "-//W3C//DTD SVG 1.1//EN"
 "http://www.w3.org/Graphics/SVG/1.1/DTD/svg11.dtd">
<!-- Generated by graphviz version 2.38.0 (20140413.2041)
 -->
<!-- Title: Framework/src/runRepositoryBenchmark.cxx Pages: 1 -->
<svg width="708pt" height="375pt"
 viewBox="0.00 0.00 708.00 375.00" xmlns="http://www.w3.org/2000/svg" xmlns:xlink="http://www.w3.org/1999/xlink">
<g id="graph0" class="graph" transform="scale(1 1) rotate(0) translate(4 371)">
<title>Framework/src/runRepositoryBenchmark.cxx</title>
<!-- Node1 -->
<g id="node1" class="node"><title>Node1</title>
<polygon fill="#bfbfbf" stroke="black" points="450,-336.5 450,-366.5 596,-366.5 596,-336.5 450,-336.5"/>
<text text-anchor="start" x="458" y="-354.5" font-family="Helvetica,sans-Serif" font-size="10.00">Framework/src/runRepository</text>
<text text-anchor="middle" x="523" y="-343.5" font-family="Helvetica,sans-Serif" font-size="10.00">Benchmark.cxx</text>
</g>
<!-- Node2 -->
<g id="node2" class="node"><title>Node2</title>
<g id="a_node2"><a xlink:href="RepositoryBenchmark_8h.html" target="_top" xlink:title="RepositoryBenchmark.h">
<polygon fill="none" stroke="black" points="397,-280.5 397,-299.5 519,-299.5 519,-280.5 397,-280.5"/>
<text text-anchor="middle" x="458" y="-287.5" font-family="Helvetica,sans-Serif" font-size="10.00">RepositoryBenchmark.h</text>
</a>
</g>
</g>
<!-- Node1&#45;&gt;Node2 -->
<g id="edge1" class="edge"><title>Node1&#45;&gt;Node2</title>
<path fill="none" stroke="midnightblue" d="M507.596,-336.399C497.761,-327.397 485.007,-315.721 474.895,-306.465"/>
<polygon fill="midnightblue" stroke="midnightblue" points="477.198,-303.828 467.458,-299.658 472.471,-308.992 477.198,-303.828"/>
</g>
<!-- Node20 -->
<g id="node20" class="node"><title>Node20</title>
<polygon fill="none" stroke="#bfbfbf" points="537.5,-280.5 537.5,-299.5 638.5,-299.5 638.5,-280.5 537.5,-280.5"/>
<text text-anchor="middle" x="588" y="-287.5" font-family="Helvetica,sans-Serif" font-size="10.00">runFairMQDevice.h</text>
</g>
<!-- Node1&#45;&gt;Node20 -->
<g id="edge20" class="edge"><title>Node1&#45;&gt;Node20</title>
<path fill="none" stroke="midnightblue" d="M538.404,-336.399C548.239,-327.397 560.993,-315.721 571.105,-306.465"/>
<polygon fill="midnightblue" stroke="midnightblue" points="573.529,-308.992 578.542,-299.658 568.802,-303.828 573.529,-308.992"/>
</g>
<!-- Node3 -->
<g id="node3" class="node"><title>Node3</title>
<g id="a_node3"><a xlink:href="CcdbDatabase_8h.html" target="_top" xlink:title="QualityControl/CcdbDatabase.h">
<polygon fill="none" stroke="black" points="102.5,-224.5 102.5,-243.5 257.5,-243.5 257.5,-224.5 102.5,-224.5"/>
<text text-anchor="middle" x="180" y="-231.5" font-family="Helvetica,sans-Serif" font-size="10.00">QualityControl/CcdbDatabase.h</text>
</a>
</g>
</g>
<!-- Node2&#45;&gt;Node3 -->
<g id="edge2" class="edge"><title>Node2&#45;&gt;Node3</title>
<path fill="none" stroke="midnightblue" d="M413.95,-280.444C365.149,-270.964 286.437,-255.675 233.97,-245.483"/>
<polygon fill="midnightblue" stroke="midnightblue" points="234.328,-241.988 223.844,-243.516 232.993,-248.859 234.328,-241.988"/>
</g>
<!-- Node16 -->
<g id="node16" class="node"><title>Node16</title>
<polygon fill="none" stroke="#bfbfbf" points="276,-224.5 276,-243.5 364,-243.5 364,-224.5 276,-224.5"/>
<text text-anchor="middle" x="320" y="-231.5" font-family="Helvetica,sans-Serif" font-size="10.00">FairMQDevice.h</text>
</g>
<!-- Node2&#45;&gt;Node16 -->
<g id="edge16" class="edge"><title>Node2&#45;&gt;Node16</title>
<path fill="none" stroke="midnightblue" d="M436.133,-280.444C413.221,-271.478 377.025,-257.314 351.134,-247.183"/>
<polygon fill="midnightblue" stroke="midnightblue" points="352.352,-243.901 341.764,-243.516 349.801,-250.42 352.352,-243.901"/>
</g>
<!-- Node17 -->
<g id="node17" class="node"><title>Node17</title>
<polygon fill="none" stroke="#bfbfbf" points="382.5,-224.5 382.5,-243.5 533.5,-243.5 533.5,-224.5 382.5,-224.5"/>
<text text-anchor="middle" x="458" y="-231.5" font-family="Helvetica,sans-Serif" font-size="10.00">Monitoring/MonitoringFactory.h</text>
</g>
<!-- Node2&#45;&gt;Node17 -->
<g id="edge17" class="edge"><title>Node2&#45;&gt;Node17</title>
<path fill="none" stroke="midnightblue" d="M458,-280.083C458,-273.006 458,-262.861 458,-253.986"/>
<polygon fill="midnightblue" stroke="midnightblue" points="461.5,-253.751 458,-243.751 454.5,-253.751 461.5,-253.751"/>
</g>
<!-- Node18 -->
<g id="node18" class="node"><title>Node18</title>
<polygon fill="none" stroke="#bfbfbf" points="552,-224.5 552,-243.5 602,-243.5 602,-224.5 552,-224.5"/>
<text text-anchor="middle" x="577" y="-231.5" font-family="Helvetica,sans-Serif" font-size="10.00">TH1F.h</text>
</g>
<!-- Node2&#45;&gt;Node18 -->
<g id="edge18" class="edge"><title>Node2&#45;&gt;Node18</title>
<path fill="none" stroke="midnightblue" d="M476.856,-280.444C496.266,-271.636 526.73,-257.812 548.965,-247.722"/>
<polygon fill="midnightblue" stroke="midnightblue" points="550.572,-250.836 558.232,-243.516 547.68,-244.462 550.572,-250.836"/>
</g>
<!-- Node19 -->
<g id="node19" class="node"><title>Node19</title>
<polygon fill="none" stroke="#bfbfbf" points="620,-224.5 620,-243.5 700,-243.5 700,-224.5 620,-224.5"/>
<text text-anchor="middle" x="660" y="-231.5" font-family="Helvetica,sans-Serif" font-size="10.00">boost/asio.hpp</text>
</g>
<!-- Node2&#45;&gt;Node19 -->
<g id="edge19" class="edge"><title>Node2&#45;&gt;Node19</title>
<path fill="none" stroke="midnightblue" d="M490.008,-280.444C524.729,-271.162 580.288,-256.309 618.377,-246.127"/>
<polygon fill="midnightblue" stroke="midnightblue" points="619.385,-249.48 628.142,-243.516 617.578,-242.718 619.385,-249.48"/>
</g>
<!-- Node4 -->
<g id="node4" class="node"><title>Node4</title>
<polygon fill="none" stroke="#bfbfbf" points="57.5,-168.5 57.5,-187.5 152.5,-187.5 152.5,-168.5 57.5,-168.5"/>
<text text-anchor="middle" x="105" y="-175.5" font-family="Helvetica,sans-Serif" font-size="10.00">CCDB/CcdbApi.h</text>
</g>
<!-- Node3&#45;&gt;Node4 -->
<g id="edge3" class="edge"><title>Node3&#45;&gt;Node4</title>
<path fill="none" stroke="midnightblue" d="M167.95,-224.324C156.537,-216.107 139.169,-203.602 125.565,-193.807"/>
<polygon fill="midnightblue" stroke="midnightblue" points="127.43,-190.837 117.269,-187.834 123.34,-196.517 127.43,-190.837"/>
</g>
<!-- Node5 -->
<g id="node5" class="node"><title>Node5</title>
<g id="a_node5"><a xlink:href="DatabaseInterface_8h.html" target="_top" xlink:title="QualityControl/DatabaseInterface.h">
<polygon fill="none" stroke="black" points="171,-168.5 171,-187.5 341,-187.5 341,-168.5 171,-168.5"/>
<text text-anchor="middle" x="256" y="-175.5" font-family="Helvetica,sans-Serif" font-size="10.00">QualityControl/DatabaseInterface.h</text>
</a>
</g>
</g>
<!-- Node3&#45;&gt;Node5 -->
<g id="edge4" class="edge"><title>Node3&#45;&gt;Node5</title>
<path fill="none" stroke="midnightblue" d="M192.211,-224.324C203.776,-216.107 221.375,-203.602 235.161,-193.807"/>
<polygon fill="midnightblue" stroke="midnightblue" points="237.443,-196.479 243.567,-187.834 233.388,-190.773 237.443,-196.479"/>
</g>
<!-- Node6 -->
<g id="node6" class="node"><title>Node6</title>
<g id="a_node6"><a xlink:href="MonitorObject_8h.html" target="_top" xlink:title="QualityControl/MonitorObject.h">
<polygon fill="none" stroke="black" points="60.5,-112.5 60.5,-131.5 211.5,-131.5 211.5,-112.5 60.5,-112.5"/>
<text text-anchor="middle" x="136" y="-119.5" font-family="Helvetica,sans-Serif" font-size="10.00">QualityControl/MonitorObject.h</text>
</a>
</g>
</g>
<!-- Node5&#45;&gt;Node6 -->
<g id="edge5" class="edge"><title>Node5&#45;&gt;Node6</title>
<path fill="none" stroke="midnightblue" d="M236.986,-168.444C217.412,-159.636 186.692,-145.812 164.271,-135.722"/>
<polygon fill="midnightblue" stroke="midnightblue" points="165.481,-132.428 154.925,-131.516 162.608,-138.812 165.481,-132.428"/>
</g>
<!-- Node14 -->
<g id="node14" class="node"><title>Node14</title>
<polygon fill="none" stroke="#bfbfbf" points="230,-112.5 230,-131.5 282,-131.5 282,-112.5 230,-112.5"/>
<text text-anchor="middle" x="256" y="-119.5" font-family="Helvetica,sans-Serif" font-size="10.00">memory</text>
</g>
<!-- Node5&#45;&gt;Node14 -->
<g id="edge14" class="edge"><title>Node5&#45;&gt;Node14</title>
<path fill="none" stroke="midnightblue" d="M256,-168.083C256,-161.006 256,-150.861 256,-141.986"/>
<polygon fill="midnightblue" stroke="midnightblue" points="259.5,-141.751 256,-131.751 252.5,-141.751 259.5,-141.751"/>
</g>
<!-- Node15 -->
<g id="node15" class="node"><title>Node15</title>
<polygon fill="none" stroke="#bfbfbf" points="300.5,-112.5 300.5,-131.5 383.5,-131.5 383.5,-112.5 300.5,-112.5"/>
<text text-anchor="middle" x="342" y="-119.5" font-family="Helvetica,sans-Serif" font-size="10.00">unordered_map</text>
</g>
<!-- Node5&#45;&gt;Node15 -->
<g id="edge15" class="edge"><title>Node5&#45;&gt;Node15</title>
<path fill="none" stroke="midnightblue" d="M269.817,-168.324C283.233,-159.9 303.824,-146.971 319.586,-137.074"/>
<polygon fill="midnightblue" stroke="midnightblue" points="321.609,-139.936 328.217,-131.655 317.887,-134.008 321.609,-139.936"/>
</g>
<!-- Node7 -->
<g id="node7" class="node"><title>Node7</title>
<polygon fill="none" stroke="#bfbfbf" points="0,-56.5 0,-75.5 54,-75.5 54,-56.5 0,-56.5"/>
<text text-anchor="middle" x="27" y="-63.5" font-family="Helvetica,sans-Serif" font-size="10.00">iostream</text>
</g>
<!-- Node6&#45;&gt;Node7 -->
<g id="edge6" class="edge"><title>Node6&#45;&gt;Node7</title>
<path fill="none" stroke="midnightblue" d="M118.487,-112.324C100.928,-103.625 73.6686,-90.1202 53.4688,-80.113"/>
<polygon fill="midnightblue" stroke="midnightblue" points="54.9837,-76.9575 44.4693,-75.6545 51.8762,-83.23 54.9837,-76.9575"/>
</g>
<!-- Node8 -->
<g id="node8" class="node"><title>Node8</title>
<polygon fill="none" stroke="#bfbfbf" points="72.5,-56.5 72.5,-75.5 107.5,-75.5 107.5,-56.5 72.5,-56.5"/>
<text text-anchor="middle" x="90" y="-63.5" font-family="Helvetica,sans-Serif" font-size="10.00">map</text>
</g>
<!-- Node6&#45;&gt;Node8 -->
<g id="edge7" class="edge"><title>Node6&#45;&gt;Node8</title>
<path fill="none" stroke="midnightblue" d="M128.404,-112.083C121.773,-104.298 111.979,-92.8015 103.942,-83.3665"/>
<polygon fill="midnightblue" stroke="midnightblue" points="106.604,-81.0939 97.4546,-75.7511 101.275,-85.6332 106.604,-81.0939"/>
</g>
<!-- Node9 -->
<g id="node9" class="node"><title>Node9</title>
<polygon fill="none" stroke="#bfbfbf" points="164.5,-0.5 164.5,-19.5 223.5,-19.5 223.5,-0.5 164.5,-0.5"/>
<text text-anchor="middle" x="194" y="-7.5" font-family="Helvetica,sans-Serif" font-size="10.00">TObject.h</text>
</g>
<!-- Node6&#45;&gt;Node9 -->
<g id="edge8" class="edge"><title>Node6&#45;&gt;Node9</title>
<path fill="none" stroke="midnightblue" d="M137.351,-112.128C139.591,-99.1666 144.868,-74.5796 155,-56 160.791,-45.3806 169.435,-35.0685 177.114,-27.0009"/>
<polygon fill="midnightblue" stroke="midnightblue" points="179.755,-29.3092 184.331,-19.7534 174.795,-24.37 179.755,-29.3092"/>
</g>
<!-- Node10 -->
<g id="node10" class="node"><title>Node10</title>
<polygon fill="none" stroke="#bfbfbf" points="164,-56.5 164,-75.5 280,-75.5 280,-56.5 164,-56.5"/>
<text text-anchor="middle" x="222" y="-63.5" font-family="Helvetica,sans-Serif" font-size="10.00">Common/Exceptions.h</text>
</g>
<!-- Node6&#45;&gt;Node10 -->
<g id="edge9" class="edge"><title>Node6&#45;&gt;Node10</title>
<path fill="none" stroke="midnightblue" d="M149.817,-112.324C163.233,-103.9 183.824,-90.9709 199.586,-81.0741"/>
<polygon fill="midnightblue" stroke="midnightblue" points="201.609,-83.9364 208.217,-75.6545 197.887,-78.0081 201.609,-83.9364"/>
</g>
<!-- Node11 -->
<g id="node11" class="node"><title>Node11</title>
<g id="a_node11"><a xlink:href="Quality_8h.html" target="_top" xlink:title="QualityControl/Quality.h">
<polygon fill="none" stroke="black" points="298.5,-56.5 298.5,-75.5 419.5,-75.5 419.5,-56.5 298.5,-56.5"/>
<text text-anchor="middle" x="359" y="-63.5" font-family="Helvetica,sans-Serif" font-size="10.00">QualityControl/Quality.h</text>
</a>
</g>
</g>
<!-- Node6&#45;&gt;Node11 -->
<g id="edge10" class="edge"><title>Node6&#45;&gt;Node11</title>
<path fill="none" stroke="midnightblue" d="M171.335,-112.444C209.911,-103.102 271.785,-88.1194 313.853,-77.9326"/>
<polygon fill="midnightblue" stroke="midnightblue" points="314.935,-81.2717 323.83,-75.5164 313.287,-74.4683 314.935,-81.2717"/>
</g>
<!-- Node11&#45;&gt;Node9 -->
<g id="edge11" class="edge"><title>Node11&#45;&gt;Node9</title>
<path fill="none" stroke="midnightblue" d="M332.855,-56.4435C304.977,-47.3196 260.652,-32.8133 229.6,-22.6509"/>
<polygon fill="midnightblue" stroke="midnightblue" points="230.615,-19.3005 220.022,-19.5164 228.438,-25.9533 230.615,-19.3005"/>
</g>
<!-- Node12 -->
<g id="node12" class="node"><title>Node12</title>
<polygon fill="none" stroke="#bfbfbf" points="300,-0.5 300,-19.5 352,-19.5 352,-0.5 300,-0.5"/>
<text text-anchor="middle" x="326" y="-7.5" font-family="Helvetica,sans-Serif" font-size="10.00">ostream</text>
</g>
<!-- Node11&#45;&gt;Node12 -->
<g id="edge12" class="edge"><title>Node11&#45;&gt;Node12</title>
<path fill="none" stroke="midnightblue" d="M353.551,-56.083C348.986,-48.6127 342.332,-37.7244 336.707,-28.5199"/>
<polygon fill="midnightblue" stroke="midnightblue" points="339.549,-26.4588 331.348,-19.7511 333.576,-30.109 339.549,-26.4588"/>
</g>
<!-- Node13 -->
<g id="node13" class="node"><title>Node13</title>
<polygon fill="none" stroke="#bfbfbf" points="370.5,-0.5 370.5,-19.5 411.5,-19.5 411.5,-0.5 370.5,-0.5"/>
<text text-anchor="middle" x="391" y="-7.5" font-family="Helvetica,sans-Serif" font-size="10.00">string</text>
</g>
<!-- Node11&#45;&gt;Node13 -->
<g id="edge13" class="edge"><title>Node11&#45;&gt;Node13</title>
<path fill="none" stroke="midnightblue" d="M364.284,-56.083C368.711,-48.6127 375.163,-37.7244 380.618,-28.5199"/>
<polygon fill="midnightblue" stroke="midnightblue" points="383.727,-30.1383 385.814,-19.7511 377.705,-26.5697 383.727,-30.1383"/>
</g>
</g>
</svg>
