<?xml version="1.0" encoding="UTF-8" standalone="no"?>
<!DOCTYPE svg PUBLIC "-//W3C//DTD SVG 1.1//EN"
 "http://www.w3.org/Graphics/SVG/1.1/DTD/svg11.dtd">
<!-- Generated by graphviz version 2.38.0 (20140413.2041)
 -->
<!-- Title: Framework/src/runReadout.cxx Pages: 1 -->
<!--zoomable 442 -->
<svg id="main" version="1.1" xmlns="http://www.w3.org/2000/svg" xmlns:xlink="http://www.w3.org/1999/xlink" xml:space="preserve" onload="init(evt)">
<style type="text/css"><![CDATA[
.edge:hover path { stroke: red; }
.edge:hover polygon { stroke: red; fill: red; }
]]></style>
<script type="text/javascript"><![CDATA[
var edges = document.getElementsByTagName('g');
if (edges && edges.length) {
  for (var i=0;i<edges.length;i++) {
    if (edges[i].id.substr(0,4)=='edge') {
      edges[i].setAttribute('class','edge');
    }
  }
}
]]></script>
        <defs>
                <circle id="rim" cx="0" cy="0" r="7"/>
                <circle id="rim2" cx="0" cy="0" r="3.5"/>
                <g id="zoomPlus">
                        <use xlink:href="#rim" fill="#404040">
                                <set attributeName="fill" to="#808080" begin="zoomplus.mouseover" end="zoomplus.mouseout"/>
                        </use>
                        <path d="M-4,0h8M0,-4v8" fill="none" stroke="white" stroke-width="1.5" pointer-events="none"/>
                </g>
                <g id="zoomMin">
                        <use xlink:href="#rim" fill="#404040">
                                <set attributeName="fill" to="#808080" begin="zoomminus.mouseover" end="zoomminus.mouseout"/>
                        </use>
                        <path d="M-4,0h8" fill="none" stroke="white" stroke-width="1.5" pointer-events="none"/>
                </g>
                <g id="dirArrow">
                        <path fill="none" stroke="white" stroke-width="1.5" d="M0,-3.0v7 M-2.5,-0.5L0,-3.0L2.5,-0.5"/>
                </g>
               <g id="resetDef">
                       <use xlink:href="#rim2" fill="#404040">
                               <set attributeName="fill" to="#808080" begin="reset.mouseover" end="reset.mouseout"/>
                       </use>
               </g>
        </defs>

<script type="text/javascript">
var viewWidth = 2452;
var viewHeight = 442;
var sectionId = 'dynsection-0';
</script>
<script xlink:href="svgpan.js"/>
<svg id="graph" class="graph">
<g id="viewport">
<title>Framework/src/runReadout.cxx</title>
<!-- Node1 -->
<g id="node1" class="node"><title>Node1</title>
<polygon fill="#bfbfbf" stroke="black" points="1729.5,-414.5 1729.5,-433.5 1883.5,-433.5 1883.5,-414.5 1729.5,-414.5"/>
<text text-anchor="middle" x="1806.5" y="-421.5" font-family="Helvetica,sans-Serif" font-size="10.00">Framework/src/runReadout.cxx</text>
</g>
<!-- Node2 -->
<g id="node2" class="node"><title>Node2</title>
<polygon fill="none" stroke="#bfbfbf" points="424.5,-353 424.5,-372 562.5,-372 562.5,-353 424.5,-353"/>
<text text-anchor="middle" x="493.5" y="-360" font-family="Helvetica,sans-Serif" font-size="10.00">Framework/DataSampling.h</text>
</g>
<!-- Node1&#45;&gt;Node2 -->
<g id="edge1" class="edge"><title>Node1&#45;&gt;Node2</title>
<path fill="none" stroke="midnightblue" d="M1729.21,-421.676C1495.33,-417.434 797.415,-402.977 571.5,-378 562.251,-376.977 552.45,-375.485 543.034,-373.841"/>
<polygon fill="midnightblue" stroke="midnightblue" points="543.478,-370.364 533.012,-372.014 542.222,-377.251 543.478,-370.364"/>
</g>
<!-- Node3 -->
<g id="node3" class="node"><title>Node3</title>
<g id="a_node3"><a xlink:href="InfrastructureGenerator_8h.html" target="_top" xlink:title="QualityControl/Infrastructure\lGenerator.h">
<polygon fill="none" stroke="black" points="1567.5,-347.5 1567.5,-377.5 1707.5,-377.5 1707.5,-347.5 1567.5,-347.5"/>
<text text-anchor="start" x="1575.5" y="-365.5" font-family="Helvetica,sans-Serif" font-size="10.00">QualityControl/Infrastructure</text>
<text text-anchor="middle" x="1637.5" y="-354.5" font-family="Helvetica,sans-Serif" font-size="10.00">Generator.h</text>
</a>
</g>
</g>
<!-- Node1&#45;&gt;Node3 -->
<g id="edge2" class="edge"><title>Node1&#45;&gt;Node3</title>
<path fill="none" stroke="midnightblue" d="M1782.29,-414.475C1757.47,-405.739 1718.19,-391.907 1686.79,-380.855"/>
<polygon fill="midnightblue" stroke="midnightblue" points="1687.92,-377.543 1677.33,-377.523 1685.6,-384.145 1687.92,-377.543"/>
</g>
<!-- Node4 -->
<g id="node4" class="node"><title>Node4</title>
<polygon fill="none" stroke="#bfbfbf" points="933,-0.5 933,-19.5 974,-19.5 974,-0.5 933,-0.5"/>
<text text-anchor="middle" x="953.5" y="-7.5" font-family="Helvetica,sans-Serif" font-size="10.00">string</text>
</g>
<!-- Node1&#45;&gt;Node4 -->
<g id="edge54" class="edge"><title>Node1&#45;&gt;Node4</title>
<path fill="none" stroke="midnightblue" d="M1804.76,-414.419C1803.03,-405.399 1800.49,-390.77 1799.5,-378 1798.44,-364.263 1797.93,-360.688 1799.5,-347 1805.32,-296.231 1825.5,-286.101 1825.5,-235 1825.5,-235 1825.5,-235 1825.5,-121 1825.5,-34.3866 1139.57,-14.8826 984.431,-11.579"/>
<polygon fill="midnightblue" stroke="midnightblue" points="984.265,-8.07499 974.195,-11.3685 984.121,-15.0735 984.265,-8.07499"/>
</g>
<!-- Node7 -->
<g id="node7" class="node"><title>Node7</title>
<polygon fill="none" stroke="#bfbfbf" points="1808.5,-353 1808.5,-372 1858.5,-372 1858.5,-353 1808.5,-353"/>
<text text-anchor="middle" x="1833.5" y="-360" font-family="Helvetica,sans-Serif" font-size="10.00">TH1F.h</text>
</g>
<!-- Node1&#45;&gt;Node7 -->
<g id="edge6" class="edge"><title>Node1&#45;&gt;Node7</title>
<path fill="none" stroke="midnightblue" d="M1810.37,-414.475C1814.3,-405.815 1820.5,-392.149 1825.49,-381.145"/>
<polygon fill="midnightblue" stroke="midnightblue" points="1828.69,-382.562 1829.64,-372.009 1822.32,-379.669 1828.69,-382.562"/>
</g>
<!-- Node8 -->
<g id="node8" class="node"><title>Node8</title>
<polygon fill="none" stroke="#bfbfbf" points="1876,-347.5 1876,-377.5 2043,-377.5 2043,-347.5 1876,-347.5"/>
<text text-anchor="start" x="1884" y="-365.5" font-family="Helvetica,sans-Serif" font-size="10.00">Framework/DataSamplingReadout</text>
<text text-anchor="middle" x="1959.5" y="-354.5" font-family="Helvetica,sans-Serif" font-size="10.00">Adapter.h</text>
</g>
<!-- Node1&#45;&gt;Node8 -->
<g id="edge7" class="edge"><title>Node1&#45;&gt;Node8</title>
<path fill="none" stroke="midnightblue" d="M1828.42,-414.475C1850.6,-405.852 1885.54,-392.264 1913.77,-381.285"/>
<polygon fill="midnightblue" stroke="midnightblue" points="1915.39,-384.41 1923.44,-377.523 1912.85,-377.885 1915.39,-384.41"/>
</g>
<!-- Node9 -->
<g id="node9" class="node"><title>Node9</title>
<polygon fill="none" stroke="#bfbfbf" points="2061.5,-353 2061.5,-372 2221.5,-372 2221.5,-353 2061.5,-353"/>
<text text-anchor="middle" x="2141.5" y="-360" font-family="Helvetica,sans-Serif" font-size="10.00">Framework/runDataProcessing.h</text>
</g>
<!-- Node1&#45;&gt;Node9 -->
<g id="edge8" class="edge"><title>Node1&#45;&gt;Node9</title>
<path fill="none" stroke="midnightblue" d="M1854.5,-414.475C1914.95,-403.739 2018.73,-385.306 2083.54,-373.795"/>
<polygon fill="midnightblue" stroke="midnightblue" points="2084.36,-377.204 2093.59,-372.009 2083.13,-370.312 2084.36,-377.204"/>
</g>
<!-- Node10 -->
<g id="node10" class="node"><title>Node10</title>
<g id="a_node10"><a xlink:href="Checker_8h.html" target="_top" xlink:title="QualityControl/Checker.h">
<polygon fill="none" stroke="black" points="581,-353 581,-372 708,-372 708,-353 581,-353"/>
<text text-anchor="middle" x="644.5" y="-360" font-family="Helvetica,sans-Serif" font-size="10.00">QualityControl/Checker.h</text>
</a>
</g>
</g>
<!-- Node1&#45;&gt;Node10 -->
<g id="edge9" class="edge"><title>Node1&#45;&gt;Node10</title>
<path fill="none" stroke="midnightblue" d="M1729.36,-419.05C1517.13,-408.183 926.557,-377.943 718.328,-367.28"/>
<polygon fill="midnightblue" stroke="midnightblue" points="718.279,-363.773 708.113,-366.757 717.921,-370.764 718.279,-363.773"/>
</g>
<!-- Node19 -->
<g id="node19" class="node"><title>Node19</title>
<polygon fill="none" stroke="#bfbfbf" points="686.5,-56.5 686.5,-75.5 740.5,-75.5 740.5,-56.5 686.5,-56.5"/>
<text text-anchor="middle" x="713.5" y="-63.5" font-family="Helvetica,sans-Serif" font-size="10.00">iostream</text>
</g>
<!-- Node1&#45;&gt;Node19 -->
<g id="edge53" class="edge"><title>Node1&#45;&gt;Node19</title>
<path fill="none" stroke="midnightblue" d="M1735.07,-414.481C1623.25,-399.129 1419.5,-362.149 1419.5,-296.5 1419.5,-296.5 1419.5,-296.5 1419.5,-177 1419.5,-108.699 896.97,-76.5037 750.982,-68.8415"/>
<polygon fill="midnightblue" stroke="midnightblue" points="750.911,-65.3332 740.743,-68.3121 750.549,-72.3239 750.911,-65.3332"/>
</g>
<!-- Node39 -->
<g id="node39" class="node"><title>Node39</title>
<g id="a_node39"><a xlink:href="runnerUtils_8h.html" target="_top" xlink:title="runnerUtils.h">
<polygon fill="none" stroke="black" points="2239.5,-353 2239.5,-372 2311.5,-372 2311.5,-353 2239.5,-353"/>
<text text-anchor="middle" x="2275.5" y="-360" font-family="Helvetica,sans-Serif" font-size="10.00">runnerUtils.h</text>
</a>
</g>
</g>
<!-- Node1&#45;&gt;Node39 -->
<g id="edge50" class="edge"><title>Node1&#45;&gt;Node39</title>
<path fill="none" stroke="midnightblue" d="M1883.84,-419.578C1969.41,-414.687 2111.01,-403.309 2230.5,-378 2234.36,-377.181 2238.37,-376.158 2242.32,-375.036"/>
<polygon fill="midnightblue" stroke="midnightblue" points="2243.38,-378.37 2251.93,-372.104 2241.34,-371.675 2243.38,-378.37"/>
</g>
<!-- Node41 -->
<g id="node41" class="node"><title>Node41</title>
<g id="a_node41"><a xlink:href="ExamplePrinterSpec_8h.html" target="_top" xlink:title="ExamplePrinterSpec.h">
<polygon fill="none" stroke="black" points="2329.5,-353 2329.5,-372 2443.5,-372 2443.5,-353 2329.5,-353"/>
<text text-anchor="middle" x="2386.5" y="-360" font-family="Helvetica,sans-Serif" font-size="10.00">ExamplePrinterSpec.h</text>
</a>
</g>
</g>
<!-- Node1&#45;&gt;Node41 -->
<g id="edge52" class="edge"><title>Node1&#45;&gt;Node41</title>
<path fill="none" stroke="midnightblue" d="M1883.5,-419.361C1984.34,-413.887 2166.43,-401.569 2320.5,-378 2327.36,-376.951 2334.57,-375.613 2341.6,-374.176"/>
<polygon fill="midnightblue" stroke="midnightblue" points="2342.67,-377.527 2351.72,-372.021 2341.21,-370.681 2342.67,-377.527"/>
</g>
<!-- Node3&#45;&gt;Node4 -->
<g id="edge3" class="edge"><title>Node3&#45;&gt;Node4</title>
<path fill="none" stroke="midnightblue" d="M1567.44,-355.061C1535.66,-348.631 1500.01,-335.939 1476.5,-311 1452.62,-285.665 1457.5,-269.817 1457.5,-235 1457.5,-235 1457.5,-235 1457.5,-121 1457.5,-23.6006 1093.67,-12.3023 984.258,-11.1068"/>
<polygon fill="midnightblue" stroke="midnightblue" points="984.227,-7.60645 974.197,-11.0181 984.166,-14.6062 984.227,-7.60645"/>
</g>
<!-- Node5 -->
<g id="node5" class="node"><title>Node5</title>
<polygon fill="none" stroke="#bfbfbf" points="1485.5,-286 1485.5,-305 1625.5,-305 1625.5,-286 1485.5,-286"/>
<text text-anchor="middle" x="1555.5" y="-293" font-family="Helvetica,sans-Serif" font-size="10.00">Framework/WorkflowSpec.h</text>
</g>
<!-- Node3&#45;&gt;Node5 -->
<g id="edge4" class="edge"><title>Node3&#45;&gt;Node5</title>
<path fill="none" stroke="midnightblue" d="M1619.71,-347.396C1606.42,-336.86 1588.27,-322.477 1574.66,-311.689"/>
<polygon fill="midnightblue" stroke="midnightblue" points="1576.48,-308.664 1566.47,-305.195 1572.13,-314.149 1576.48,-308.664"/>
</g>
<!-- Node6 -->
<g id="node6" class="node"><title>Node6</title>
<polygon fill="none" stroke="#bfbfbf" points="1644,-286 1644,-305 1797,-305 1797,-286 1644,-286"/>
<text text-anchor="middle" x="1720.5" y="-293" font-family="Helvetica,sans-Serif" font-size="10.00">Framework/CompletionPolicy.h</text>
</g>
<!-- Node3&#45;&gt;Node6 -->
<g id="edge5" class="edge"><title>Node3&#45;&gt;Node6</title>
<path fill="none" stroke="midnightblue" d="M1655.51,-347.396C1669.09,-336.759 1687.68,-322.203 1701.5,-311.381"/>
<polygon fill="midnightblue" stroke="midnightblue" points="1703.68,-314.116 1709.4,-305.195 1699.37,-308.605 1703.68,-314.116"/>
</g>
<!-- Node11 -->
<g id="node11" class="node"><title>Node11</title>
<polygon fill="none" stroke="#bfbfbf" points="195.5,-286 195.5,-305 241.5,-305 241.5,-286 195.5,-286"/>
<text text-anchor="middle" x="218.5" y="-293" font-family="Helvetica,sans-Serif" font-size="10.00">chrono</text>
</g>
<!-- Node10&#45;&gt;Node11 -->
<g id="edge10" class="edge"><title>Node10&#45;&gt;Node11</title>
<path fill="none" stroke="midnightblue" d="M604.827,-352.987C594.047,-350.847 582.353,-348.683 571.5,-347 429.635,-324.996 388.915,-349.094 250.5,-311 248.35,-310.408 246.161,-309.69 243.989,-308.893"/>
<polygon fill="midnightblue" stroke="midnightblue" points="245.317,-305.655 234.74,-305.046 242.629,-312.118 245.317,-305.655"/>
</g>
<!-- Node12 -->
<g id="node12" class="node"><title>Node12</title>
<polygon fill="none" stroke="#bfbfbf" points="591.5,-168.5 591.5,-187.5 643.5,-187.5 643.5,-168.5 591.5,-168.5"/>
<text text-anchor="middle" x="617.5" y="-175.5" font-family="Helvetica,sans-Serif" font-size="10.00">memory</text>
</g>
<!-- Node10&#45;&gt;Node12 -->
<g id="edge11" class="edge"><title>Node10&#45;&gt;Node12</title>
<path fill="none" stroke="midnightblue" d="M708.189,-355.215C768.445,-346.404 845.772,-325.95 817.5,-280 798.685,-249.421 703.007,-210.424 651.102,-191.051"/>
<polygon fill="midnightblue" stroke="midnightblue" points="652.237,-187.739 641.644,-187.557 649.812,-194.305 652.237,-187.739"/>
</g>
<!-- Node13 -->
<g id="node13" class="node"><title>Node13</title>
<polygon fill="none" stroke="#bfbfbf" points="259.5,-286 259.5,-305 351.5,-305 351.5,-286 259.5,-286"/>
<text text-anchor="middle" x="305.5" y="-293" font-family="Helvetica,sans-Serif" font-size="10.00">Common/Timer.h</text>
</g>
<!-- Node10&#45;&gt;Node13 -->
<g id="edge12" class="edge"><title>Node10&#45;&gt;Node13</title>
<path fill="none" stroke="midnightblue" d="M602.461,-352.948C592.333,-350.943 581.538,-348.853 571.5,-347 477.948,-329.731 453.475,-331.146 360.5,-311 355.744,-309.969 350.781,-308.798 345.867,-307.579"/>
<polygon fill="midnightblue" stroke="midnightblue" points="346.486,-304.125 335.93,-305.038 344.751,-310.906 346.486,-304.125"/>
</g>
<!-- Node14 -->
<g id="node14" class="node"><title>Node14</title>
<polygon fill="none" stroke="#bfbfbf" points="370,-280.5 370,-310.5 505,-310.5 505,-280.5 370,-280.5"/>
<text text-anchor="start" x="378" y="-298.5" font-family="Helvetica,sans-Serif" font-size="10.00">Configuration/Configuration</text>
<text text-anchor="middle" x="437.5" y="-287.5" font-family="Helvetica,sans-Serif" font-size="10.00">Interface.h</text>
</g>
<!-- Node10&#45;&gt;Node14 -->
<g id="edge13" class="edge"><title>Node10&#45;&gt;Node14</title>
<path fill="none" stroke="midnightblue" d="M617.012,-352.869C585.211,-342.883 532.074,-326.197 491.843,-313.564"/>
<polygon fill="midnightblue" stroke="midnightblue" points="492.763,-310.185 482.174,-310.528 490.666,-316.863 492.763,-310.185"/>
</g>
<!-- Node15 -->
<g id="node15" class="node"><title>Node15</title>
<polygon fill="none" stroke="#bfbfbf" points="523.5,-286 523.5,-305 621.5,-305 621.5,-286 523.5,-286"/>
<text text-anchor="middle" x="572.5" y="-293" font-family="Helvetica,sans-Serif" font-size="10.00">Framework/Task.h</text>
</g>
<!-- Node10&#45;&gt;Node15 -->
<g id="edge14" class="edge"><title>Node10&#45;&gt;Node15</title>
<path fill="none" stroke="midnightblue" d="M634.79,-352.734C623.238,-342.305 603.747,-324.709 589.64,-311.973"/>
<polygon fill="midnightblue" stroke="midnightblue" points="591.824,-309.23 582.056,-305.127 587.134,-314.426 591.824,-309.23"/>
</g>
<!-- Node16 -->
<g id="node16" class="node"><title>Node16</title>
<polygon fill="none" stroke="#bfbfbf" points="640,-286 640,-305 791,-305 791,-286 640,-286"/>
<text text-anchor="middle" x="715.5" y="-293" font-family="Helvetica,sans-Serif" font-size="10.00">Monitoring/MonitoringFactory.h</text>
</g>
<!-- Node10&#45;&gt;Node16 -->
<g id="edge15" class="edge"><title>Node10&#45;&gt;Node16</title>
<path fill="none" stroke="midnightblue" d="M654.075,-352.734C665.466,-342.305 684.687,-324.709 698.599,-311.973"/>
<polygon fill="midnightblue" stroke="midnightblue" points="701.064,-314.461 706.076,-305.127 696.337,-309.298 701.064,-314.461"/>
</g>
<!-- Node17 -->
<g id="node17" class="node"><title>Node17</title>
<g id="a_node17"><a xlink:href="CheckInterface_8h.html" target="_top" xlink:title="QualityControl/CheckInterface.h">
<polygon fill="none" stroke="black" points="0,-168.5 0,-187.5 157,-187.5 157,-168.5 0,-168.5"/>
<text text-anchor="middle" x="78.5" y="-175.5" font-family="Helvetica,sans-Serif" font-size="10.00">QualityControl/CheckInterface.h</text>
</a>
</g>
</g>
<!-- Node10&#45;&gt;Node17 -->
<g id="edge16" class="edge"><title>Node10&#45;&gt;Node17</title>
<path fill="none" stroke="midnightblue" d="M605.614,-352.951C594.626,-350.76 582.63,-348.58 571.5,-347 479.192,-333.898 231.992,-361.312 153.5,-311 112.376,-284.64 91.4884,-227.269 83.0896,-197.6"/>
<polygon fill="midnightblue" stroke="midnightblue" points="86.4127,-196.477 80.466,-187.708 79.6467,-198.271 86.4127,-196.477"/>
</g>
<!-- Node18 -->
<g id="node18" class="node"><title>Node18</title>
<g id="a_node18"><a xlink:href="MonitorObject_8h.html" target="_top" xlink:title="QualityControl/MonitorObject.h">
<polygon fill="none" stroke="black" points="386,-112.5 386,-131.5 537,-131.5 537,-112.5 386,-112.5"/>
<text text-anchor="middle" x="461.5" y="-119.5" font-family="Helvetica,sans-Serif" font-size="10.00">QualityControl/MonitorObject.h</text>
</a>
</g>
</g>
<!-- Node10&#45;&gt;Node18 -->
<g id="edge31" class="edge"><title>Node10&#45;&gt;Node18</title>
<path fill="none" stroke="midnightblue" d="M605.227,-352.929C594.343,-350.764 582.496,-348.602 571.5,-347 528.984,-340.807 215.432,-342.763 186.5,-311 108.923,-225.831 318.583,-159.376 415.438,-134.08"/>
<polygon fill="midnightblue" stroke="midnightblue" points="416.465,-137.429 425.279,-131.55 414.722,-130.65 416.465,-137.429"/>
</g>
<!-- Node25 -->
<g id="node25" class="node"><title>Node25</title>
<g id="a_node25"><a xlink:href="DatabaseInterface_8h.html" target="_top" xlink:title="QualityControl/DatabaseInterface.h">
<polygon fill="none" stroke="black" points="489.5,-224.5 489.5,-243.5 659.5,-243.5 659.5,-224.5 489.5,-224.5"/>
<text text-anchor="middle" x="574.5" y="-231.5" font-family="Helvetica,sans-Serif" font-size="10.00">QualityControl/DatabaseInterface.h</text>
</a>
</g>
</g>
<!-- Node10&#45;&gt;Node25 -->
<g id="edge27" class="edge"><title>Node10&#45;&gt;Node25</title>
<path fill="none" stroke="midnightblue" d="M699.602,-352.985C756.148,-341.916 831.641,-319.206 799.5,-280 782.832,-259.668 723.538,-248.34 670.004,-242.135"/>
<polygon fill="midnightblue" stroke="midnightblue" points="670.063,-238.621 659.738,-240.999 669.292,-245.578 670.063,-238.621"/>
</g>
<!-- Node27 -->
<g id="node27" class="node"><title>Node27</title>
<g id="a_node27"><a xlink:href="QcInfoLogger_8h.html" target="_top" xlink:title="QualityControl/QcInfoLogger.h">
<polygon fill="none" stroke="black" points="885,-286 885,-305 1034,-305 1034,-286 885,-286"/>
<text text-anchor="middle" x="959.5" y="-293" font-family="Helvetica,sans-Serif" font-size="10.00">QualityControl/QcInfoLogger.h</text>
</a>
</g>
</g>
<!-- Node10&#45;&gt;Node27 -->
<g id="edge32" class="edge"><title>Node10&#45;&gt;Node27</title>
<path fill="none" stroke="midnightblue" d="M686.005,-352.936C743.213,-341.131 846.238,-319.872 908.202,-307.085"/>
<polygon fill="midnightblue" stroke="midnightblue" points="909.068,-310.481 918.154,-305.032 907.653,-303.625 909.068,-310.481"/>
</g>
<!-- Node17&#45;&gt;Node18 -->
<g id="edge17" class="edge"><title>Node17&#45;&gt;Node18</title>
<path fill="none" stroke="midnightblue" d="M139.187,-168.444C207.682,-158.786 318.944,-143.099 391.172,-132.916"/>
<polygon fill="midnightblue" stroke="midnightblue" points="391.683,-136.378 401.096,-131.516 390.706,-129.447 391.683,-136.378"/>
</g>
<!-- Node23 -->
<g id="node23" class="node"><title>Node23</title>
<g id="a_node23"><a xlink:href="Quality_8h.html" target="_top" xlink:title="QualityControl/Quality.h">
<polygon fill="none" stroke="black" points="547,-56.5 547,-75.5 668,-75.5 668,-56.5 547,-56.5"/>
<text text-anchor="middle" x="607.5" y="-63.5" font-family="Helvetica,sans-Serif" font-size="10.00">QualityControl/Quality.h</text>
</a>
</g>
</g>
<!-- Node17&#45;&gt;Node23 -->
<g id="edge26" class="edge"><title>Node17&#45;&gt;Node23</title>
<path fill="none" stroke="midnightblue" d="M116.545,-168.416C173.141,-155.712 282.894,-131.324 376.5,-112 436.333,-99.6484 505.079,-86.3733 551.913,-77.4675"/>
<polygon fill="midnightblue" stroke="midnightblue" points="552.685,-80.8836 561.857,-75.5797 551.379,-74.0064 552.685,-80.8836"/>
</g>
<!-- Node18&#45;&gt;Node19 -->
<g id="edge18" class="edge"><title>Node18&#45;&gt;Node19</title>
<path fill="none" stroke="midnightblue" d="M504.42,-112.441C547.881,-103.675 616.987,-89.4624 676.5,-76 676.601,-75.9772 676.702,-75.9544 676.803,-75.9315"/>
<polygon fill="midnightblue" stroke="midnightblue" points="677.499,-79.3629 686.446,-73.6874 675.913,-72.5451 677.499,-79.3629"/>
</g>
<!-- Node20 -->
<g id="node20" class="node"><title>Node20</title>
<polygon fill="none" stroke="#bfbfbf" points="359,-56.5 359,-75.5 394,-75.5 394,-56.5 359,-56.5"/>
<text text-anchor="middle" x="376.5" y="-63.5" font-family="Helvetica,sans-Serif" font-size="10.00">map</text>
</g>
<!-- Node18&#45;&gt;Node20 -->
<g id="edge19" class="edge"><title>Node18&#45;&gt;Node20</title>
<path fill="none" stroke="midnightblue" d="M447.843,-112.324C434.584,-103.9 414.232,-90.9709 398.654,-81.0741"/>
<polygon fill="midnightblue" stroke="midnightblue" points="400.44,-78.0626 390.123,-75.6545 396.687,-83.9711 400.44,-78.0626"/>
</g>
<!-- Node21 -->
<g id="node21" class="node"><title>Node21</title>
<polygon fill="none" stroke="#bfbfbf" points="403,-0.5 403,-19.5 462,-19.5 462,-0.5 403,-0.5"/>
<text text-anchor="middle" x="432.5" y="-7.5" font-family="Helvetica,sans-Serif" font-size="10.00">TObject.h</text>
</g>
<!-- Node18&#45;&gt;Node21 -->
<g id="edge20" class="edge"><title>Node18&#45;&gt;Node21</title>
<path fill="none" stroke="midnightblue" d="M406.361,-112.42C384.902,-106.092 362.408,-95.0975 349.5,-76 333.938,-52.9761 366.033,-34.398 394.729,-23.0913"/>
<polygon fill="midnightblue" stroke="midnightblue" points="396.108,-26.3123 404.256,-19.5397 393.663,-19.7532 396.108,-26.3123"/>
</g>
<!-- Node22 -->
<g id="node22" class="node"><title>Node22</title>
<polygon fill="none" stroke="#bfbfbf" points="412.5,-56.5 412.5,-75.5 528.5,-75.5 528.5,-56.5 412.5,-56.5"/>
<text text-anchor="middle" x="470.5" y="-63.5" font-family="Helvetica,sans-Serif" font-size="10.00">Common/Exceptions.h</text>
</g>
<!-- Node18&#45;&gt;Node22 -->
<g id="edge21" class="edge"><title>Node18&#45;&gt;Node22</title>
<path fill="none" stroke="midnightblue" d="M462.986,-112.083C464.179,-104.927 465.894,-94.6353 467.385,-85.6911"/>
<polygon fill="midnightblue" stroke="midnightblue" points="470.85,-86.1904 469.041,-75.7511 463.945,-85.0396 470.85,-86.1904"/>
</g>
<!-- Node18&#45;&gt;Node23 -->
<g id="edge22" class="edge"><title>Node18&#45;&gt;Node23</title>
<path fill="none" stroke="midnightblue" d="M484.634,-112.444C508.982,-103.438 547.507,-89.1891 574.923,-79.049"/>
<polygon fill="midnightblue" stroke="midnightblue" points="576.309,-82.2681 584.474,-75.5164 573.881,-75.7028 576.309,-82.2681"/>
</g>
<!-- Node23&#45;&gt;Node4 -->
<g id="edge25" class="edge"><title>Node23&#45;&gt;Node4</title>
<path fill="none" stroke="midnightblue" d="M662.325,-56.4435C735.873,-44.9649 864.008,-24.967 922.63,-15.8179"/>
<polygon fill="midnightblue" stroke="midnightblue" points="923.397,-19.2406 932.738,-14.2403 922.318,-12.3243 923.397,-19.2406"/>
</g>
<!-- Node23&#45;&gt;Node21 -->
<g id="edge23" class="edge"><title>Node23&#45;&gt;Node21</title>
<path fill="none" stroke="midnightblue" d="M579.771,-56.4435C550.074,-47.2801 502.784,-32.6876 469.831,-22.5192"/>
<polygon fill="midnightblue" stroke="midnightblue" points="470.687,-19.1206 460.1,-19.5164 468.623,-25.8094 470.687,-19.1206"/>
</g>
<!-- Node24 -->
<g id="node24" class="node"><title>Node24</title>
<polygon fill="none" stroke="#bfbfbf" points="581.5,-0.5 581.5,-19.5 633.5,-19.5 633.5,-0.5 581.5,-0.5"/>
<text text-anchor="middle" x="607.5" y="-7.5" font-family="Helvetica,sans-Serif" font-size="10.00">ostream</text>
</g>
<!-- Node23&#45;&gt;Node24 -->
<g id="edge24" class="edge"><title>Node23&#45;&gt;Node24</title>
<path fill="none" stroke="midnightblue" d="M607.5,-56.083C607.5,-49.0059 607.5,-38.8611 607.5,-29.9865"/>
<polygon fill="midnightblue" stroke="midnightblue" points="611,-29.751 607.5,-19.7511 604,-29.7511 611,-29.751"/>
</g>
<!-- Node25&#45;&gt;Node12 -->
<g id="edge29" class="edge"><title>Node25&#45;&gt;Node12</title>
<path fill="none" stroke="midnightblue" d="M581.601,-224.083C587.737,-216.377 596.77,-205.033 604.239,-195.653"/>
<polygon fill="midnightblue" stroke="midnightblue" points="607.04,-197.754 610.532,-187.751 601.564,-193.394 607.04,-197.754"/>
</g>
<!-- Node25&#45;&gt;Node18 -->
<g id="edge28" class="edge"><title>Node25&#45;&gt;Node18</title>
<path fill="none" stroke="midnightblue" d="M540.588,-224.364C520.473,-217.595 495.965,-206.2 480.5,-188 469.447,-174.992 464.82,-155.832 462.885,-141.682"/>
<polygon fill="midnightblue" stroke="midnightblue" points="466.354,-141.205 461.839,-131.621 459.392,-141.929 466.354,-141.205"/>
</g>
<!-- Node26 -->
<g id="node26" class="node"><title>Node26</title>
<polygon fill="none" stroke="#bfbfbf" points="490,-168.5 490,-187.5 573,-187.5 573,-168.5 490,-168.5"/>
<text text-anchor="middle" x="531.5" y="-175.5" font-family="Helvetica,sans-Serif" font-size="10.00">unordered_map</text>
</g>
<!-- Node25&#45;&gt;Node26 -->
<g id="edge30" class="edge"><title>Node25&#45;&gt;Node26</title>
<path fill="none" stroke="midnightblue" d="M567.399,-224.083C561.263,-216.377 552.23,-205.033 544.761,-195.653"/>
<polygon fill="midnightblue" stroke="midnightblue" points="547.436,-193.394 538.468,-187.751 541.96,-197.754 547.436,-193.394"/>
</g>
<!-- Node27&#45;&gt;Node19 -->
<g id="edge49" class="edge"><title>Node27&#45;&gt;Node19</title>
<path fill="none" stroke="midnightblue" d="M935.914,-285.979C871.667,-262.663 697.858,-198.827 690.5,-188 668.96,-156.306 688.849,-109.689 702.719,-84.5745"/>
<polygon fill="midnightblue" stroke="midnightblue" points="705.822,-86.201 707.813,-75.795 699.767,-82.6879 705.822,-86.201"/>
</g>
<!-- Node28 -->
<g id="node28" class="node"><title>Node28</title>
<g id="a_node28"><a xlink:href="TaskInterface_8h.html" target="_top" xlink:title="TaskInterface.h">
<polygon fill="none" stroke="black" points="917,-224.5 917,-243.5 1002,-243.5 1002,-224.5 917,-224.5"/>
<text text-anchor="middle" x="959.5" y="-231.5" font-family="Helvetica,sans-Serif" font-size="10.00">TaskInterface.h</text>
</a>
</g>
</g>
<!-- Node27&#45;&gt;Node28 -->
<g id="edge33" class="edge"><title>Node27&#45;&gt;Node28</title>
<path fill="none" stroke="midnightblue" d="M959.5,-285.975C959.5,-277.58 959.5,-264.481 959.5,-253.663"/>
<polygon fill="midnightblue" stroke="midnightblue" points="963,-253.509 959.5,-243.509 956,-253.509 963,-253.509"/>
</g>
<!-- Node38 -->
<g id="node38" class="node"><title>Node38</title>
<polygon fill="none" stroke="#bfbfbf" points="1020.5,-224.5 1020.5,-243.5 1150.5,-243.5 1150.5,-224.5 1020.5,-224.5"/>
<text text-anchor="middle" x="1085.5" y="-231.5" font-family="Helvetica,sans-Serif" font-size="10.00">InfoLogger/InfoLogger.hxx</text>
</g>
<!-- Node27&#45;&gt;Node38 -->
<g id="edge48" class="edge"><title>Node27&#45;&gt;Node38</title>
<path fill="none" stroke="midnightblue" d="M977.553,-285.975C998.698,-275.99 1033.94,-259.348 1058.38,-247.807"/>
<polygon fill="midnightblue" stroke="midnightblue" points="1059.93,-250.944 1067.48,-243.509 1056.94,-244.614 1059.93,-250.944"/>
</g>
<!-- Node28&#45;&gt;Node12 -->
<g id="edge34" class="edge"><title>Node28&#45;&gt;Node12</title>
<path fill="none" stroke="midnightblue" d="M916.877,-226.27C849.03,-215.557 717.642,-194.812 653.918,-184.75"/>
<polygon fill="midnightblue" stroke="midnightblue" points="654.351,-181.275 643.927,-183.173 653.259,-188.19 654.351,-181.275"/>
</g>
<!-- Node29 -->
<g id="node29" class="node"><title>Node29</title>
<polygon fill="none" stroke="#bfbfbf" points="1199,-168.5 1199,-187.5 1248,-187.5 1248,-168.5 1199,-168.5"/>
<text text-anchor="middle" x="1223.5" y="-175.5" font-family="Helvetica,sans-Serif" font-size="10.00">cassert</text>
</g>
<!-- Node28&#45;&gt;Node29 -->
<g id="edge35" class="edge"><title>Node28&#45;&gt;Node29</title>
<path fill="none" stroke="midnightblue" d="M1002.07,-225.535C1046.29,-217.588 1117.69,-204.221 1188.66,-188.072"/>
<polygon fill="midnightblue" stroke="midnightblue" points="1189.7,-191.424 1198.66,-185.775 1188.13,-184.601 1189.7,-191.424"/>
</g>
<!-- Node30 -->
<g id="node30" class="node"><title>Node30</title>
<polygon fill="none" stroke="#bfbfbf" points="1266,-168.5 1266,-187.5 1391,-187.5 1391,-168.5 1266,-168.5"/>
<text text-anchor="middle" x="1328.5" y="-175.5" font-family="Helvetica,sans-Serif" font-size="10.00">Framework/InitContext.h</text>
</g>
<!-- Node28&#45;&gt;Node30 -->
<g id="edge36" class="edge"><title>Node28&#45;&gt;Node30</title>
<path fill="none" stroke="midnightblue" d="M1002.05,-225.527C1005.25,-224.999 1008.42,-224.485 1011.5,-224 1095.15,-210.826 1191.51,-197.395 1255.82,-188.678"/>
<polygon fill="midnightblue" stroke="midnightblue" points="1256.42,-192.129 1265.86,-187.321 1255.48,-185.192 1256.42,-192.129"/>
</g>
<!-- Node31 -->
<g id="node31" class="node"><title>Node31</title>
<polygon fill="none" stroke="#bfbfbf" points="879.5,-168.5 879.5,-187.5 1039.5,-187.5 1039.5,-168.5 879.5,-168.5"/>
<text text-anchor="middle" x="959.5" y="-175.5" font-family="Helvetica,sans-Serif" font-size="10.00">Framework/ProcessingContext.h</text>
</g>
<!-- Node28&#45;&gt;Node31 -->
<g id="edge37" class="edge"><title>Node28&#45;&gt;Node31</title>
<path fill="none" stroke="midnightblue" d="M959.5,-224.083C959.5,-217.006 959.5,-206.861 959.5,-197.986"/>
<polygon fill="midnightblue" stroke="midnightblue" points="963,-197.751 959.5,-187.751 956,-197.751 963,-197.751"/>
</g>
<!-- Node32 -->
<g id="node32" class="node"><title>Node32</title>
<g id="a_node32"><a xlink:href="Activity_8h.html" target="_top" xlink:title="QualityControl/Activity.h">
<polygon fill="none" stroke="black" points="1058,-168.5 1058,-187.5 1181,-187.5 1181,-168.5 1058,-168.5"/>
<text text-anchor="middle" x="1119.5" y="-175.5" font-family="Helvetica,sans-Serif" font-size="10.00">QualityControl/Activity.h</text>
</a>
</g>
</g>
<!-- Node28&#45;&gt;Node32 -->
<g id="edge38" class="edge"><title>Node28&#45;&gt;Node32</title>
<path fill="none" stroke="midnightblue" d="M984.852,-224.444C1011.77,-215.359 1054.5,-200.939 1084.59,-190.783"/>
<polygon fill="midnightblue" stroke="midnightblue" points="1085.91,-194.031 1094.27,-187.516 1083.67,-187.398 1085.91,-194.031"/>
</g>
<!-- Node33 -->
<g id="node33" class="node"><title>Node33</title>
<g id="a_node33"><a xlink:href="ObjectsManager_8h.html" target="_top" xlink:title="QualityControl/ObjectsManager.h">
<polygon fill="none" stroke="black" points="700,-168.5 700,-187.5 861,-187.5 861,-168.5 700,-168.5"/>
<text text-anchor="middle" x="780.5" y="-175.5" font-family="Helvetica,sans-Serif" font-size="10.00">QualityControl/ObjectsManager.h</text>
</a>
</g>
</g>
<!-- Node28&#45;&gt;Node33 -->
<g id="edge39" class="edge"><title>Node28&#45;&gt;Node33</title>
<path fill="none" stroke="midnightblue" d="M931.137,-224.444C900.762,-215.28 852.39,-200.688 818.684,-190.519"/>
<polygon fill="midnightblue" stroke="midnightblue" points="819.315,-187.054 808.73,-187.516 817.293,-193.756 819.315,-187.054"/>
</g>
<!-- Node33&#45;&gt;Node4 -->
<g id="edge47" class="edge"><title>Node33&#45;&gt;Node4</title>
<path fill="none" stroke="midnightblue" d="M794.343,-168.381C806.625,-160.198 824.441,-146.95 836.5,-132 860.21,-102.606 848.529,-83.4166 874.5,-56 888.074,-41.6707 907.236,-30.6032 923.289,-23.0299"/>
<polygon fill="midnightblue" stroke="midnightblue" points="925.108,-26.05 932.804,-18.7681 922.247,-19.6615 925.108,-26.05"/>
</g>
<!-- Node33&#45;&gt;Node18 -->
<g id="edge40" class="edge"><title>Node33&#45;&gt;Node18</title>
<path fill="none" stroke="midnightblue" d="M729.954,-168.444C673.488,-158.885 582.126,-143.419 521.931,-133.23"/>
<polygon fill="midnightblue" stroke="midnightblue" points="522.254,-129.735 511.81,-131.516 521.086,-136.636 522.254,-129.735"/>
</g>
<!-- Node33&#45;&gt;Node23 -->
<g id="edge41" class="edge"><title>Node33&#45;&gt;Node23</title>
<path fill="none" stroke="midnightblue" d="M760.573,-168.434C741.914,-160.092 713.531,-146.568 690.5,-132 666.527,-116.836 641.16,-96.2091 624.873,-82.2918"/>
<polygon fill="midnightblue" stroke="midnightblue" points="627.093,-79.584 617.24,-75.69 622.514,-84.8787 627.093,-79.584"/>
</g>
<!-- Node34 -->
<g id="node34" class="node"><title>Node34</title>
<g id="a_node34"><a xlink:href="TaskConfig_8h.html" target="_top" xlink:title="QualityControl/TaskConfig.h">
<polygon fill="none" stroke="black" points="883.5,-56.5 883.5,-75.5 1023.5,-75.5 1023.5,-56.5 883.5,-56.5"/>
<text text-anchor="middle" x="953.5" y="-63.5" font-family="Helvetica,sans-Serif" font-size="10.00">QualityControl/TaskConfig.h</text>
</a>
</g>
</g>
<!-- Node33&#45;&gt;Node34 -->
<g id="edge42" class="edge"><title>Node33&#45;&gt;Node34</title>
<path fill="none" stroke="midnightblue" d="M800.178,-168.368C818.61,-159.979 846.664,-146.424 869.5,-132 893.662,-116.739 919.356,-96.1322 935.871,-82.2462"/>
<polygon fill="midnightblue" stroke="midnightblue" points="938.264,-84.806 943.614,-75.6612 933.729,-79.4736 938.264,-84.806"/>
</g>
<!-- Node35 -->
<g id="node35" class="node"><title>Node35</title>
<polygon fill="none" stroke="#bfbfbf" points="922,-112.5 922,-131.5 991,-131.5 991,-112.5 922,-112.5"/>
<text text-anchor="middle" x="956.5" y="-119.5" font-family="Helvetica,sans-Serif" font-size="10.00">TObjArray.h</text>
</g>
<!-- Node33&#45;&gt;Node35 -->
<g id="edge44" class="edge"><title>Node33&#45;&gt;Node35</title>
<path fill="none" stroke="midnightblue" d="M808.388,-168.444C838.254,-159.28 885.815,-144.688 918.956,-134.519"/>
<polygon fill="midnightblue" stroke="midnightblue" points="920.209,-137.796 928.743,-131.516 918.156,-131.104 920.209,-137.796"/>
</g>
<!-- Node36 -->
<g id="node36" class="node"><title>Node36</title>
<polygon fill="none" stroke="#bfbfbf" points="1009,-112.5 1009,-131.5 1080,-131.5 1080,-112.5 1009,-112.5"/>
<text text-anchor="middle" x="1044.5" y="-119.5" font-family="Helvetica,sans-Serif" font-size="10.00">TObjString.h</text>
</g>
<!-- Node33&#45;&gt;Node36 -->
<g id="edge45" class="edge"><title>Node33&#45;&gt;Node36</title>
<path fill="none" stroke="midnightblue" d="M822.332,-168.444C870.483,-158.594 949.298,-142.473 998.961,-132.315"/>
<polygon fill="midnightblue" stroke="midnightblue" points="999.695,-135.737 1008.79,-130.304 998.292,-128.879 999.695,-135.737"/>
</g>
<!-- Node37 -->
<g id="node37" class="node"><title>Node37</title>
<polygon fill="none" stroke="#bfbfbf" points="699.5,-112.5 699.5,-131.5 827.5,-131.5 827.5,-112.5 699.5,-112.5"/>
<text text-anchor="middle" x="763.5" y="-119.5" font-family="Helvetica,sans-Serif" font-size="10.00">boost/concept_check.hpp</text>
</g>
<!-- Node33&#45;&gt;Node37 -->
<g id="edge46" class="edge"><title>Node33&#45;&gt;Node37</title>
<path fill="none" stroke="midnightblue" d="M777.693,-168.083C775.415,-160.849 772.129,-150.409 769.292,-141.397"/>
<polygon fill="midnightblue" stroke="midnightblue" points="772.596,-140.239 766.255,-131.751 765.919,-142.341 772.596,-140.239"/>
</g>
<!-- Node34&#45;&gt;Node4 -->
<g id="edge43" class="edge"><title>Node34&#45;&gt;Node4</title>
<path fill="none" stroke="midnightblue" d="M953.5,-56.083C953.5,-49.0059 953.5,-38.8611 953.5,-29.9865"/>
<polygon fill="midnightblue" stroke="midnightblue" points="957,-29.751 953.5,-19.7511 950,-29.7511 957,-29.751"/>
</g>
<!-- Node40 -->
<g id="node40" class="node"><title>Node40</title>
<polygon fill="none" stroke="#bfbfbf" points="2208,-280.5 2208,-310.5 2343,-310.5 2343,-280.5 2208,-280.5"/>
<text text-anchor="start" x="2216" y="-298.5" font-family="Helvetica,sans-Serif" font-size="10.00">Configuration/Configuration</text>
<text text-anchor="middle" x="2275.5" y="-287.5" font-family="Helvetica,sans-Serif" font-size="10.00">Factory.h</text>
</g>
<!-- Node39&#45;&gt;Node40 -->
<g id="edge51" class="edge"><title>Node39&#45;&gt;Node40</title>
<path fill="none" stroke="midnightblue" d="M2275.5,-352.734C2275.5,-344.541 2275.5,-331.923 2275.5,-320.714"/>
<polygon fill="midnightblue" stroke="midnightblue" points="2279,-320.589 2275.5,-310.589 2272,-320.589 2279,-320.589"/>
</g>
</g>
</svg>
        <g id="navigator" transform="translate(0 0)" fill="#404254">
                <rect fill="#f2f5e9" fill-opacity="0.5" stroke="#606060" stroke-width=".5" x="0" y="0" width="60" height="60"/>
                <use id="zoomplus" xlink:href="#zoomPlus" x="17" y="9" onmousedown="handleZoom(evt,'in')"/>
                <use id="zoomminus" xlink:href="#zoomMin" x="42" y="9" onmousedown="handleZoom(evt,'out')"/>
                <use id="reset" xlink:href="#resetDef" x="30" y="36" onmousedown="handleReset()"/>
                <g id="arrowUp" xlink:href="#dirArrow" transform="translate(30 24)" onmousedown="handlePan(0,-1)">
                  <use xlink:href="#rim" fill="#404040">
                        <set attributeName="fill" to="#808080" begin="arrowUp.mouseover" end="arrowUp.mouseout"/>
                  </use>
                  <path fill="none" stroke="white" stroke-width="1.5" d="M0,-3.0v7 M-2.5,-0.5L0,-3.0L2.5,-0.5"/>
                </g>
                <g id="arrowRight" xlink:href="#dirArrow" transform="rotate(90) translate(36 -43)" onmousedown="handlePan(1,0)">
                  <use xlink:href="#rim" fill="#404040">
                        <set attributeName="fill" to="#808080" begin="arrowRight.mouseover" end="arrowRight.mouseout"/>
                  </use>
                  <path fill="none" stroke="white" stroke-width="1.5" d="M0,-3.0v7 M-2.5,-0.5L0,-3.0L2.5,-0.5"/>
                </g>
                <g id="arrowDown" xlink:href="#dirArrow" transform="rotate(180) translate(-30 -48)" onmousedown="handlePan(0,1)">
                  <use xlink:href="#rim" fill="#404040">
                        <set attributeName="fill" to="#808080" begin="arrowDown.mouseover" end="arrowDown.mouseout"/>
                  </use>
                  <path fill="none" stroke="white" stroke-width="1.5" d="M0,-3.0v7 M-2.5,-0.5L0,-3.0L2.5,-0.5"/>
                </g>
                <g id="arrowLeft" xlink:href="#dirArrow" transform="rotate(270) translate(-36 17)" onmousedown="handlePan(-1,0)">
                  <use xlink:href="#rim" fill="#404040">
                        <set attributeName="fill" to="#808080" begin="arrowLeft.mouseover" end="arrowLeft.mouseout"/>
                  </use>
                  <path fill="none" stroke="white" stroke-width="1.5" d="M0,-3.0v7 M-2.5,-0.5L0,-3.0L2.5,-0.5"/>
                </g>
        </g>
        <svg viewBox="0 0 15 15" width="100%" height="30px" preserveAspectRatio="xMaxYMin meet">
         <g id="arrow_out" transform="scale(0.3 0.3)">
          <a xlink:href="runReadout_8cxx__incl_org.svg" target="_base">
           <rect id="button" ry="5" rx="5" y="6" x="6" height="38" width="38"
                fill="#f2f5e9" fill-opacity="0.5" stroke="#606060" stroke-width="1.0"/>
           <path id="arrow"
             d="M 11.500037,31.436501 C 11.940474,20.09759 22.043105,11.32322 32.158766,21.979434 L 37.068811,17.246167 C 37.068811,17.246167 37.088388,32 37.088388,32 L 22.160133,31.978069 C 22.160133,31.978069 26.997745,27.140456 26.997745,27.140456 C 18.528582,18.264221 13.291696,25.230495 11.500037,31.436501 z"
             style="fill:#404040;"/>
          </a>
         </g>
        </svg>
</svg>
