<?xml version="1.0" encoding="UTF-8" standalone="no"?>
<!DOCTYPE svg PUBLIC "-//W3C//DTD SVG 1.1//EN"
 "http://www.w3.org/Graphics/SVG/1.1/DTD/svg11.dtd">
<!-- Generated by graphviz version 2.38.0 (20140413.2041)
 -->
<!-- Title: Framework/src/runReadoutForDataDump.cxx Pages: 1 -->
<svg width="510pt" height="106pt"
 viewBox="0.00 0.00 510.00 106.00" xmlns="http://www.w3.org/2000/svg" xmlns:xlink="http://www.w3.org/1999/xlink">
<g id="graph0" class="graph" transform="scale(1 1) rotate(0) translate(4 102)">
<title>Framework/src/runReadoutForDataDump.cxx</title>
<!-- Node1 -->
<g id="node1" class="node"><title>Node1</title>
<polygon fill="#bfbfbf" stroke="black" points="172.5,-67.5 172.5,-97.5 307.5,-97.5 307.5,-67.5 172.5,-67.5"/>
<text text-anchor="start" x="180.5" y="-85.5" font-family="Helvetica,sans-Serif" font-size="10.00">Framework/src/runReadout</text>
<text text-anchor="middle" x="240" y="-74.5" font-family="Helvetica,sans-Serif" font-size="10.00">ForDataDump.cxx</text>
</g>
<!-- Node2 -->
<g id="node2" class="node"><title>Node2</title>
<polygon fill="none" stroke="#bfbfbf" points="0,-6 0,-25 138,-25 138,-6 0,-6"/>
<text text-anchor="middle" x="69" y="-13" font-family="Helvetica,sans-Serif" font-size="10.00">Framework/DataSampling.h</text>
</g>
<!-- Node1&#45;&gt;Node2 -->
<g id="edge1" class="edge"><title>Node1&#45;&gt;Node2</title>
<path fill="none" stroke="midnightblue" d="M202.896,-67.396C172.493,-55.8396 129.919,-39.6562 100.998,-28.6629"/>
<polygon fill="midnightblue" stroke="midnightblue" points="101.971,-25.2886 91.38,-25.007 99.4838,-31.8318 101.971,-25.2886"/>
</g>
<!-- Node3 -->
<g id="node3" class="node"><title>Node3</title>
<polygon fill="none" stroke="#bfbfbf" points="156.5,-0.5 156.5,-30.5 323.5,-30.5 323.5,-0.5 156.5,-0.5"/>
<text text-anchor="start" x="164.5" y="-18.5" font-family="Helvetica,sans-Serif" font-size="10.00">Framework/DataSamplingReadout</text>
<text text-anchor="middle" x="240" y="-7.5" font-family="Helvetica,sans-Serif" font-size="10.00">Adapter.h</text>
</g>
<!-- Node1&#45;&gt;Node3 -->
<g id="edge2" class="edge"><title>Node1&#45;&gt;Node3</title>
<path fill="none" stroke="midnightblue" d="M240,-67.396C240,-59.6448 240,-49.8122 240,-40.8601"/>
<polygon fill="midnightblue" stroke="midnightblue" points="243.5,-40.5765 240,-30.5765 236.5,-40.5765 243.5,-40.5765"/>
</g>
<!-- Node4 -->
<g id="node4" class="node"><title>Node4</title>
<polygon fill="none" stroke="#bfbfbf" points="342,-6 342,-25 502,-25 502,-6 342,-6"/>
<text text-anchor="middle" x="422" y="-13" font-family="Helvetica,sans-Serif" font-size="10.00">Framework/runDataProcessing.h</text>
</g>
<!-- Node1&#45;&gt;Node4 -->
<g id="edge3" class="edge"><title>Node1&#45;&gt;Node4</title>
<path fill="none" stroke="midnightblue" d="M279.491,-67.396C312.132,-55.7387 357.955,-39.3731 388.747,-28.3761"/>
<polygon fill="midnightblue" stroke="midnightblue" points="389.94,-31.6665 398.18,-25.007 387.586,-25.0743 389.94,-31.6665"/>
</g>
</g>
</svg>
