<?xml version="1.0" encoding="UTF-8" standalone="no"?>
<!DOCTYPE svg PUBLIC "-//W3C//DTD SVG 1.1//EN"
 "http://www.w3.org/Graphics/SVG/1.1/DTD/svg11.dtd">
<!-- Generated by graphviz version 2.38.0 (20140413.2041)
 -->
<!-- Title: o2::quality_control::core::TaskConfig Pages: 1 -->
<svg width="208pt" height="204pt"
 viewBox="0.00 0.00 207.50 204.00" xmlns="http://www.w3.org/2000/svg" xmlns:xlink="http://www.w3.org/1999/xlink">
<g id="graph0" class="graph" transform="scale(1 1) rotate(0) translate(4 200)">
<title>o2::quality_control::core::TaskConfig</title>
<!-- Node1 -->
<g id="node1" class="node"><title>Node1</title>
<polygon fill="#bfbfbf" stroke="black" points="29.5,-0.5 29.5,-68.5 127.5,-68.5 127.5,-0.5 29.5,-0.5"/>
<text text-anchor="start" x="37.5" y="-56.5" font-family="Helvetica,sans-Serif" font-size="10.00">o2::quality_control</text>
<text text-anchor="middle" x="78.5" y="-45.5" font-family="Helvetica,sans-Serif" font-size="10.00">::core::TaskConfig</text>
<polyline fill="none" stroke="black" points="29.5,-38.5 127.5,-38.5 "/>
<text text-anchor="middle" x="78.5" y="-26.5" font-family="Helvetica,sans-Serif" font-size="10.00"> </text>
<polyline fill="none" stroke="black" points="29.5,-19.5 127.5,-19.5 "/>
<text text-anchor="middle" x="78.5" y="-7.5" font-family="Helvetica,sans-Serif" font-size="10.00"> </text>
</g>
<!-- Node2 -->
<g id="node2" class="node"><title>Node2</title>
<polygon fill="none" stroke="#bfbfbf" points="0,-138.5 0,-195.5 29,-195.5 29,-138.5 0,-138.5"/>
<text text-anchor="middle" x="14.5" y="-183.5" font-family="Helvetica,sans-Serif" font-size="10.00">int</text>
<polyline fill="none" stroke="#bfbfbf" points="0,-176.5 29,-176.5 "/>
<text text-anchor="middle" x="14.5" y="-164.5" font-family="Helvetica,sans-Serif" font-size="10.00"> </text>
<polyline fill="none" stroke="#bfbfbf" points="0,-157.5 29,-157.5 "/>
<text text-anchor="middle" x="14.5" y="-145.5" font-family="Helvetica,sans-Serif" font-size="10.00"> </text>
</g>
<!-- Node2&#45;&gt;Node1 -->
<g id="edge1" class="edge"><title>Node2&#45;&gt;Node1</title>
<path fill="none" stroke="#404040" d="M9.28343,-138.362C7.6279,-122.566 7.8779,-102.816 15.5,-87 17.1339,-83.6097 19.1099,-80.3672 21.3393,-77.2786"/>
<polygon fill="none" stroke="#404040" points="21.4751,-77.1176 22.2865,-69.9522 29.2127,-67.9452 28.4013,-75.1106 21.4751,-77.1176"/>
<text text-anchor="middle" x="68" y="-106.5" font-family="Helvetica,sans-Serif" font-size="10.00"> +maxNumberCycles</text>
<text text-anchor="middle" x="68" y="-95.5" font-family="Helvetica,sans-Serif" font-size="10.00">+cycleDurationSeconds</text>
</g>
<!-- Node3 -->
<g id="node3" class="node"><title>Node3</title>
<polygon fill="none" stroke="#bfbfbf" points="122,-138.5 122,-195.5 163,-195.5 163,-138.5 122,-138.5"/>
<text text-anchor="middle" x="142.5" y="-183.5" font-family="Helvetica,sans-Serif" font-size="10.00">string</text>
<polyline fill="none" stroke="#bfbfbf" points="122,-176.5 163,-176.5 "/>
<text text-anchor="middle" x="142.5" y="-164.5" font-family="Helvetica,sans-Serif" font-size="10.00"> </text>
<polyline fill="none" stroke="#bfbfbf" points="122,-157.5 163,-157.5 "/>
<text text-anchor="middle" x="142.5" y="-145.5" font-family="Helvetica,sans-Serif" font-size="10.00"> </text>
</g>
<!-- Node3&#45;&gt;Node1 -->
<g id="edge2" class="edge"><title>Node3&#45;&gt;Node1</title>
<path fill="none" stroke="#404040" d="M137.705,-138.268C134.295,-122.624 128.815,-103.056 120.5,-87 119.084,-84.2659 117.507,-81.5422 115.817,-78.8564"/>
<polygon fill="none" stroke="#404040" points="115.658,-78.6246 108.959,-75.9537 108.849,-68.7434 115.547,-71.4143 115.658,-78.6246"/>
<text text-anchor="middle" x="166" y="-112" font-family="Helvetica,sans-Serif" font-size="10.00"> +moduleName</text>
<text text-anchor="middle" x="166" y="-101" font-family="Helvetica,sans-Serif" font-size="10.00">+taskName</text>
<text text-anchor="middle" x="166" y="-90" font-family="Helvetica,sans-Serif" font-size="10.00">+className</text>
</g>
</g>
</svg>
