<?xml version="1.0" encoding="UTF-8" standalone="no"?>
<!DOCTYPE svg PUBLIC "-//W3C//DTD SVG 1.1//EN"
 "http://www.w3.org/Graphics/SVG/1.1/DTD/svg11.dtd">
<!-- Generated by graphviz version 2.38.0 (20140413.2041)
 -->
<!-- Title: o2::quality_control::core::CheckDefinition Pages: 1 -->
<svg width="259pt" height="375pt"
 viewBox="0.00 0.00 258.50 375.00" xmlns="http://www.w3.org/2000/svg" xmlns:xlink="http://www.w3.org/1999/xlink">
<g id="graph0" class="graph" transform="scale(1 1) rotate(0) translate(4 371)">
<title>o2::quality_control::core::CheckDefinition</title>
<!-- Node1 -->
<g id="node1" class="node"><title>Node1</title>
<polygon fill="#bfbfbf" stroke="black" points="114,-0.5 114,-68.5 231,-68.5 231,-0.5 114,-0.5"/>
<text text-anchor="start" x="122" y="-56.5" font-family="Helvetica,sans-Serif" font-size="10.00">o2::quality_control</text>
<text text-anchor="middle" x="172.5" y="-45.5" font-family="Helvetica,sans-Serif" font-size="10.00">::core::CheckDefinition</text>
<polyline fill="none" stroke="black" points="114,-38.5 231,-38.5 "/>
<text text-anchor="middle" x="172.5" y="-26.5" font-family="Helvetica,sans-Serif" font-size="10.00"> </text>
<polyline fill="none" stroke="black" points="114,-19.5 231,-19.5 "/>
<text text-anchor="start" x="122" y="-7.5" font-family="Helvetica,sans-Serif" font-size="10.00">+ CheckDefinition()</text>
</g>
<!-- Node2 -->
<g id="node2" class="node"><title>Node2</title>
<g id="a_node2"><a xlink:href="classo2_1_1quality__control_1_1core_1_1Quality.html" target="_top" xlink:title="Class representing the quality of a MonitorObject. ">
<polygon fill="none" stroke="black" points="13.5,-138.5 13.5,-261.5 109.5,-261.5 109.5,-138.5 13.5,-138.5"/>
<text text-anchor="start" x="21.5" y="-249.5" font-family="Helvetica,sans-Serif" font-size="10.00">o2::quality_control</text>
<text text-anchor="middle" x="61.5" y="-238.5" font-family="Helvetica,sans-Serif" font-size="10.00">::core::Quality</text>
<polyline fill="none" stroke="black" points="13.5,-231.5 109.5,-231.5 "/>
<text text-anchor="middle" x="61.5" y="-219.5" font-family="Helvetica,sans-Serif" font-size="10.00"> </text>
<polyline fill="none" stroke="black" points="13.5,-212.5 109.5,-212.5 "/>
<text text-anchor="start" x="21.5" y="-200.5" font-family="Helvetica,sans-Serif" font-size="10.00">+ Quality()</text>
<text text-anchor="start" x="21.5" y="-189.5" font-family="Helvetica,sans-Serif" font-size="10.00">+ ~Quality()</text>
<text text-anchor="start" x="21.5" y="-178.5" font-family="Helvetica,sans-Serif" font-size="10.00">+ getLevel()</text>
<text text-anchor="start" x="21.5" y="-167.5" font-family="Helvetica,sans-Serif" font-size="10.00">+ getName()</text>
<text text-anchor="start" x="21.5" y="-156.5" font-family="Helvetica,sans-Serif" font-size="10.00">+ isWorstThan()</text>
<text text-anchor="start" x="21.5" y="-145.5" font-family="Helvetica,sans-Serif" font-size="10.00">+ isBetterThan()</text>
</a>
</g>
</g>
<!-- Node2&#45;&gt;Node1 -->
<g id="edge1" class="edge"><title>Node2&#45;&gt;Node1</title>
<path fill="none" stroke="#404040" d="M102.832,-138.119C116.188,-118.446 130.717,-97.0452 143.034,-78.9026"/>
<polygon fill="none" stroke="#404040" points="143.075,-78.8415 143.136,-71.6306 149.816,-68.9133 149.755,-76.1242 143.075,-78.8415"/>
<text text-anchor="middle" x="154.5" y="-101" font-family="Helvetica,sans-Serif" font-size="10.00"> +result</text>
</g>
<!-- Node2&#45;&gt;Node2 -->
<g id="edge3" class="edge"><title>Node2&#45;&gt;Node2</title>
<path fill="none" stroke="#404040" d="M109.554,-215.285C119.956,-213.79 127.5,-208.695 127.5,-200 127.5,-195.109 125.113,-191.357 121.173,-188.744"/>
<polygon fill="none" stroke="#404040" points="120.892,-188.647 113.913,-190.46 109.554,-184.715 116.534,-182.902 120.892,-188.647"/>
<text text-anchor="middle" x="149.5" y="-214" font-family="Helvetica,sans-Serif" font-size="10.00"> +Medium</text>
<text text-anchor="middle" x="149.5" y="-203" font-family="Helvetica,sans-Serif" font-size="10.00">+Good</text>
<text text-anchor="middle" x="149.5" y="-192" font-family="Helvetica,sans-Serif" font-size="10.00">+Bad</text>
<text text-anchor="middle" x="149.5" y="-181" font-family="Helvetica,sans-Serif" font-size="10.00">+Null</text>
</g>
<!-- Node3 -->
<g id="node3" class="node"><title>Node3</title>
<polygon fill="none" stroke="#bfbfbf" points="0,-309.5 0,-366.5 123,-366.5 123,-309.5 0,-309.5"/>
<text text-anchor="middle" x="61.5" y="-354.5" font-family="Helvetica,sans-Serif" font-size="10.00">static const unsigned int</text>
<polyline fill="none" stroke="#bfbfbf" points="0,-347.5 123,-347.5 "/>
<text text-anchor="middle" x="61.5" y="-335.5" font-family="Helvetica,sans-Serif" font-size="10.00"> </text>
<polyline fill="none" stroke="#bfbfbf" points="0,-328.5 123,-328.5 "/>
<text text-anchor="middle" x="61.5" y="-316.5" font-family="Helvetica,sans-Serif" font-size="10.00"> </text>
</g>
<!-- Node3&#45;&gt;Node2 -->
<g id="edge2" class="edge"><title>Node3&#45;&gt;Node2</title>
<path fill="none" stroke="#404040" d="M61.5,-309.478C61.5,-299.009 61.5,-286.526 61.5,-273.818"/>
<polygon fill="none" stroke="#404040" points="61.5001,-273.623 57.5,-267.623 61.5,-261.623 65.5,-267.623 61.5001,-273.623"/>
<text text-anchor="middle" x="86.5" y="-283" font-family="Helvetica,sans-Serif" font-size="10.00"> +NullLevel</text>
</g>
<!-- Node4 -->
<g id="node4" class="node"><title>Node4</title>
<polygon fill="none" stroke="#bfbfbf" points="190,-171.5 190,-228.5 231,-228.5 231,-171.5 190,-171.5"/>
<text text-anchor="middle" x="210.5" y="-216.5" font-family="Helvetica,sans-Serif" font-size="10.00">string</text>
<polyline fill="none" stroke="#bfbfbf" points="190,-209.5 231,-209.5 "/>
<text text-anchor="middle" x="210.5" y="-197.5" font-family="Helvetica,sans-Serif" font-size="10.00"> </text>
<polyline fill="none" stroke="#bfbfbf" points="190,-190.5 231,-190.5 "/>
<text text-anchor="middle" x="210.5" y="-178.5" font-family="Helvetica,sans-Serif" font-size="10.00"> </text>
</g>
<!-- Node4&#45;&gt;Node1 -->
<g id="edge4" class="edge"><title>Node4&#45;&gt;Node1</title>
<path fill="none" stroke="#404040" d="M204.054,-171.264C198.292,-146.472 189.741,-109.682 182.994,-80.6512"/>
<polygon fill="none" stroke="#404040" points="182.943,-80.4306 177.688,-75.4919 180.226,-68.7421 185.48,-73.6808 182.943,-80.4306"/>
<text text-anchor="middle" x="221" y="-112" font-family="Helvetica,sans-Serif" font-size="10.00"> +name</text>
<text text-anchor="middle" x="221" y="-101" font-family="Helvetica,sans-Serif" font-size="10.00">+libraryName</text>
<text text-anchor="middle" x="221" y="-90" font-family="Helvetica,sans-Serif" font-size="10.00">+className</text>
</g>
</g>
</svg>
