<?xml version="1.0" encoding="UTF-8" standalone="no"?>
<!DOCTYPE svg PUBLIC "-//W3C//DTD SVG 1.1//EN"
 "http://www.w3.org/Graphics/SVG/1.1/DTD/svg11.dtd">
<!-- Generated by graphviz version 2.38.0 (20140413.2041)
 -->
<!-- Title: Framework/include/QualityControl/TaskFactory.h Pages: 1 -->
<svg width="1054pt" height="106pt"
 viewBox="0.00 0.00 1053.50 106.00" xmlns="http://www.w3.org/2000/svg" xmlns:xlink="http://www.w3.org/1999/xlink">
<g id="graph0" class="graph" transform="scale(1 1) rotate(0) translate(4 102)">
<title>Framework/include/QualityControl/TaskFactory.h</title>
<!-- Node1 -->
<g id="node1" class="node"><title>Node1</title>
<polygon fill="#bfbfbf" stroke="black" points="526,-67.5 526,-97.5 659,-97.5 659,-67.5 526,-67.5"/>
<text text-anchor="start" x="534" y="-85.5" font-family="Helvetica,sans-Serif" font-size="10.00">Framework/include/Quality</text>
<text text-anchor="middle" x="592.5" y="-74.5" font-family="Helvetica,sans-Serif" font-size="10.00">Control/TaskFactory.h</text>
</g>
<!-- Node2 -->
<g id="node2" class="node"><title>Node2</title>
<g id="a_node2"><a xlink:href="TaskRunner_8cxx.html" target="_top" xlink:title="Framework/src/TaskRunner.cxx">
<polygon fill="none" stroke="black" points="0,-6 0,-25 157,-25 157,-6 0,-6"/>
<text text-anchor="middle" x="78.5" y="-13" font-family="Helvetica,sans-Serif" font-size="10.00">Framework/src/TaskRunner.cxx</text>
</a>
</g>
</g>
<!-- Node1&#45;&gt;Node2 -->
<g id="edge1" class="edge"><title>Node1&#45;&gt;Node2</title>
<path fill="none" stroke="midnightblue" d="M515.842,-73.4706C430.454,-64.2805 288.38,-48.2563 166.5,-31 153.929,-29.2201 140.382,-27.0927 127.775,-25.0231"/>
<polygon fill="midnightblue" stroke="midnightblue" points="515.653,-76.9702 525.969,-74.557 516.4,-70.0102 515.653,-76.9702"/>
</g>
<!-- Node3 -->
<g id="node3" class="node"><title>Node3</title>
<g id="a_node3"><a xlink:href="testQCTask_8cxx.html" target="_top" xlink:title="Framework/test/testQCTask.cxx">
<polygon fill="none" stroke="black" points="175.5,-6 175.5,-25 335.5,-25 335.5,-6 175.5,-6"/>
<text text-anchor="middle" x="255.5" y="-13" font-family="Helvetica,sans-Serif" font-size="10.00">Framework/test/testQCTask.cxx</text>
</a>
</g>
</g>
<!-- Node1&#45;&gt;Node3 -->
<g id="edge2" class="edge"><title>Node1&#45;&gt;Node3</title>
<path fill="none" stroke="midnightblue" d="M515.876,-66.721C449.183,-53.8573 354.829,-35.6585 299.917,-25.0671"/>
<polygon fill="midnightblue" stroke="midnightblue" points="515.438,-70.2008 525.92,-68.6581 516.764,-63.3275 515.438,-70.2008"/>
</g>
<!-- Node4 -->
<g id="node4" class="node"><title>Node4</title>
<g id="a_node4"><a xlink:href="testQcDaq_8cxx.html" target="_top" xlink:title="Modules/Daq/test/testQcDaq.cxx">
<polygon fill="none" stroke="black" points="354,-6 354,-25 517,-25 517,-6 354,-6"/>
<text text-anchor="middle" x="435.5" y="-13" font-family="Helvetica,sans-Serif" font-size="10.00">Modules/Daq/test/testQcDaq.cxx</text>
</a>
</g>
</g>
<!-- Node1&#45;&gt;Node4 -->
<g id="edge3" class="edge"><title>Node1&#45;&gt;Node4</title>
<path fill="none" stroke="midnightblue" d="M548.923,-63.4585C518.589,-50.9001 479.518,-34.724 456.048,-25.007"/>
<polygon fill="midnightblue" stroke="midnightblue" points="547.855,-66.8045 558.433,-67.396 550.533,-60.3368 547.855,-66.8045"/>
</g>
<!-- Node5 -->
<g id="node5" class="node"><title>Node5</title>
<polygon fill="none" stroke="#bfbfbf" points="535.5,-0.5 535.5,-30.5 649.5,-30.5 649.5,-0.5 535.5,-0.5"/>
<text text-anchor="start" x="543.5" y="-18.5" font-family="Helvetica,sans-Serif" font-size="10.00">Modules/Example/test</text>
<text text-anchor="middle" x="592.5" y="-7.5" font-family="Helvetica,sans-Serif" font-size="10.00">/testFactory.cxx</text>
</g>
<!-- Node1&#45;&gt;Node5 -->
<g id="edge4" class="edge"><title>Node1&#45;&gt;Node5</title>
<path fill="none" stroke="midnightblue" d="M592.5,-57.1081C592.5,-48.1539 592.5,-38.3227 592.5,-30.5765"/>
<polygon fill="midnightblue" stroke="midnightblue" points="589,-57.3959 592.5,-67.396 596,-57.396 589,-57.3959"/>
</g>
<!-- Node6 -->
<g id="node6" class="node"><title>Node6</title>
<g id="a_node6"><a xlink:href="testQcExample_8cxx.html" target="_top" xlink:title="Modules/Example/test\l/testQcExample.cxx">
<polygon fill="none" stroke="black" points="667.5,-0.5 667.5,-30.5 781.5,-30.5 781.5,-0.5 667.5,-0.5"/>
<text text-anchor="start" x="675.5" y="-18.5" font-family="Helvetica,sans-Serif" font-size="10.00">Modules/Example/test</text>
<text text-anchor="middle" x="724.5" y="-7.5" font-family="Helvetica,sans-Serif" font-size="10.00">/testQcExample.cxx</text>
</a>
</g>
</g>
<!-- Node1&#45;&gt;Node6 -->
<g id="edge5" class="edge"><title>Node1&#45;&gt;Node6</title>
<path fill="none" stroke="midnightblue" d="M630.367,-62.8533C651.238,-52.5761 676.726,-40.0252 695.914,-30.5765"/>
<polygon fill="midnightblue" stroke="midnightblue" points="628.567,-59.8383 621.142,-67.396 631.66,-66.1182 628.567,-59.8383"/>
</g>
<!-- Node7 -->
<g id="node7" class="node"><title>Node7</title>
<polygon fill="none" stroke="#bfbfbf" points="799.5,-0.5 799.5,-30.5 913.5,-30.5 913.5,-0.5 799.5,-0.5"/>
<text text-anchor="start" x="807.5" y="-18.5" font-family="Helvetica,sans-Serif" font-size="10.00">Modules/Skeleton/test</text>
<text text-anchor="middle" x="856.5" y="-7.5" font-family="Helvetica,sans-Serif" font-size="10.00">/.testEmpty.cxx</text>
</g>
<!-- Node1&#45;&gt;Node7 -->
<g id="edge6" class="edge"><title>Node1&#45;&gt;Node7</title>
<path fill="none" stroke="midnightblue" d="M659.306,-65.0515C702.466,-54.425 758.042,-40.7414 799.188,-30.6109"/>
<polygon fill="midnightblue" stroke="midnightblue" points="658.332,-61.6867 649.459,-67.476 660.006,-68.4837 658.332,-61.6867"/>
</g>
<!-- Node8 -->
<g id="node8" class="node"><title>Node8</title>
<g id="a_node8"><a xlink:href="testQcSkeleton_8cxx.html" target="_top" xlink:title="Modules/Skeleton/test\l/testQcSkeleton.cxx">
<polygon fill="none" stroke="black" points="931.5,-0.5 931.5,-30.5 1045.5,-30.5 1045.5,-0.5 931.5,-0.5"/>
<text text-anchor="start" x="939.5" y="-18.5" font-family="Helvetica,sans-Serif" font-size="10.00">Modules/Skeleton/test</text>
<text text-anchor="middle" x="988.5" y="-7.5" font-family="Helvetica,sans-Serif" font-size="10.00">/testQcSkeleton.cxx</text>
</a>
</g>
</g>
<!-- Node1&#45;&gt;Node8 -->
<g id="edge7" class="edge"><title>Node1&#45;&gt;Node8</title>
<path fill="none" stroke="midnightblue" d="M669.137,-71.1981C736.172,-61.8475 836.055,-47.0929 922.5,-31 925.383,-30.4632 928.333,-29.893 931.308,-29.301"/>
<polygon fill="midnightblue" stroke="midnightblue" points="668.503,-67.7525 659.08,-72.5949 669.466,-74.686 668.503,-67.7525"/>
</g>
</g>
</svg>
