<?xml version="1.0" encoding="UTF-8" standalone="no"?>
<!DOCTYPE svg PUBLIC "-//W3C//DTD SVG 1.1//EN"
 "http://www.w3.org/Graphics/SVG/1.1/DTD/svg11.dtd">
<!-- Generated by graphviz version 2.38.0 (20140413.2041)
 -->
<!-- Title: Framework/include/QualityControl/TaskRunner.h Pages: 1 -->
<!--zoomable 330 -->
<svg id="main" version="1.1" xmlns="http://www.w3.org/2000/svg" xmlns:xlink="http://www.w3.org/1999/xlink" xml:space="preserve" onload="init(evt)">
<style type="text/css"><![CDATA[
.edge:hover path { stroke: red; }
.edge:hover polygon { stroke: red; fill: red; }
]]></style>
<script type="text/javascript"><![CDATA[
var edges = document.getElementsByTagName('g');
if (edges && edges.length) {
  for (var i=0;i<edges.length;i++) {
    if (edges[i].id.substr(0,4)=='edge') {
      edges[i].setAttribute('class','edge');
    }
  }
}
]]></script>
        <defs>
                <circle id="rim" cx="0" cy="0" r="7"/>
                <circle id="rim2" cx="0" cy="0" r="3.5"/>
                <g id="zoomPlus">
                        <use xlink:href="#rim" fill="#404040">
                                <set attributeName="fill" to="#808080" begin="zoomplus.mouseover" end="zoomplus.mouseout"/>
                        </use>
                        <path d="M-4,0h8M0,-4v8" fill="none" stroke="white" stroke-width="1.5" pointer-events="none"/>
                </g>
                <g id="zoomMin">
                        <use xlink:href="#rim" fill="#404040">
                                <set attributeName="fill" to="#808080" begin="zoomminus.mouseover" end="zoomminus.mouseout"/>
                        </use>
                        <path d="M-4,0h8" fill="none" stroke="white" stroke-width="1.5" pointer-events="none"/>
                </g>
                <g id="dirArrow">
                        <path fill="none" stroke="white" stroke-width="1.5" d="M0,-3.0v7 M-2.5,-0.5L0,-3.0L2.5,-0.5"/>
                </g>
               <g id="resetDef">
                       <use xlink:href="#rim2" fill="#404040">
                               <set attributeName="fill" to="#808080" begin="reset.mouseover" end="reset.mouseout"/>
                       </use>
               </g>
        </defs>

<script type="text/javascript">
var viewWidth = 2258;
var viewHeight = 330;
var sectionId = 'dynsection-0';
</script>
<script xlink:href="svgpan.js"/>
<svg id="graph" class="graph">
<g id="viewport">
<title>Framework/include/QualityControl/TaskRunner.h</title>
<!-- Node1 -->
<g id="node1" class="node"><title>Node1</title>
<polygon fill="#bfbfbf" stroke="black" points="622.5,-291.5 622.5,-321.5 755.5,-321.5 755.5,-291.5 622.5,-291.5"/>
<text text-anchor="start" x="630.5" y="-309.5" font-family="Helvetica,sans-Serif" font-size="10.00">Framework/include/Quality</text>
<text text-anchor="middle" x="689" y="-298.5" font-family="Helvetica,sans-Serif" font-size="10.00">Control/TaskRunner.h</text>
</g>
<!-- Node2 -->
<g id="node2" class="node"><title>Node2</title>
<polygon fill="none" stroke="#bfbfbf" points="0,-224.5 0,-254.5 102,-254.5 102,-224.5 0,-224.5"/>
<text text-anchor="start" x="8" y="-242.5" font-family="Helvetica,sans-Serif" font-size="10.00">boost/accumulators</text>
<text text-anchor="middle" x="51" y="-231.5" font-family="Helvetica,sans-Serif" font-size="10.00">/accumulators.hpp</text>
</g>
<!-- Node1&#45;&gt;Node2 -->
<g id="edge1" class="edge"><title>Node1&#45;&gt;Node2</title>
<path fill="none" stroke="midnightblue" d="M622.283,-302.923C516.112,-298.107 302.131,-285.482 112.17,-255.033"/>
<polygon fill="midnightblue" stroke="midnightblue" points="112.715,-251.576 102.284,-253.429 111.594,-258.486 112.715,-251.576"/>
</g>
<!-- Node3 -->
<g id="node3" class="node"><title>Node3</title>
<polygon fill="none" stroke="#bfbfbf" points="120,-224.5 120,-254.5 222,-254.5 222,-224.5 120,-224.5"/>
<text text-anchor="start" x="128" y="-242.5" font-family="Helvetica,sans-Serif" font-size="10.00">boost/accumulators</text>
<text text-anchor="middle" x="171" y="-231.5" font-family="Helvetica,sans-Serif" font-size="10.00">/statistics.hpp</text>
</g>
<!-- Node1&#45;&gt;Node3 -->
<g id="edge2" class="edge"><title>Node1&#45;&gt;Node3</title>
<path fill="none" stroke="midnightblue" d="M622.258,-300.819C534.76,-294.086 376.403,-279.855 232.213,-255.076"/>
<polygon fill="midnightblue" stroke="midnightblue" points="232.749,-251.617 222.297,-253.351 231.549,-258.513 232.749,-251.617"/>
</g>
<!-- Node4 -->
<g id="node4" class="node"><title>Node4</title>
<polygon fill="none" stroke="#bfbfbf" points="240,-230 240,-249 320,-249 320,-230 240,-230"/>
<text text-anchor="middle" x="280" y="-237" font-family="Helvetica,sans-Serif" font-size="10.00">boost/asio.hpp</text>
</g>
<!-- Node1&#45;&gt;Node4 -->
<g id="edge3" class="edge"><title>Node1&#45;&gt;Node4</title>
<path fill="none" stroke="midnightblue" d="M622.459,-299.155C549.811,-291.535 430.307,-276.968 329,-255 324.806,-254.091 320.447,-253.007 316.136,-251.848"/>
<polygon fill="midnightblue" stroke="midnightblue" points="316.837,-248.409 306.262,-249.051 314.93,-255.144 316.837,-248.409"/>
</g>
<!-- Node5 -->
<g id="node5" class="node"><title>Node5</title>
<polygon fill="none" stroke="#bfbfbf" points="338,-224.5 338,-254.5 438,-254.5 438,-224.5 338,-224.5"/>
<text text-anchor="start" x="346" y="-242.5" font-family="Helvetica,sans-Serif" font-size="10.00">boost/serialization</text>
<text text-anchor="middle" x="388" y="-231.5" font-family="Helvetica,sans-Serif" font-size="10.00">/array_wrapper.hpp</text>
</g>
<!-- Node1&#45;&gt;Node5 -->
<g id="edge4" class="edge"><title>Node1&#45;&gt;Node5</title>
<path fill="none" stroke="midnightblue" d="M622.355,-292.251C576.048,-282.893 512.669,-269.784 448.13,-255.216"/>
<polygon fill="midnightblue" stroke="midnightblue" points="448.71,-251.758 438.184,-252.961 447.162,-258.585 448.71,-251.758"/>
</g>
<!-- Node6 -->
<g id="node6" class="node"><title>Node6</title>
<polygon fill="none" stroke="#bfbfbf" points="456,-230 456,-249 548,-249 548,-230 456,-230"/>
<text text-anchor="middle" x="502" y="-237" font-family="Helvetica,sans-Serif" font-size="10.00">Common/Timer.h</text>
</g>
<!-- Node1&#45;&gt;Node6 -->
<g id="edge5" class="edge"><title>Node1&#45;&gt;Node6</title>
<path fill="none" stroke="midnightblue" d="M648.424,-291.396C614.887,-279.739 567.804,-263.373 536.167,-252.376"/>
<polygon fill="midnightblue" stroke="midnightblue" points="537.069,-248.984 526.474,-249.007 534.77,-255.596 537.069,-248.984"/>
</g>
<!-- Node7 -->
<g id="node7" class="node"><title>Node7</title>
<polygon fill="none" stroke="#bfbfbf" points="566,-230 566,-249 664,-249 664,-230 566,-230"/>
<text text-anchor="middle" x="615" y="-237" font-family="Helvetica,sans-Serif" font-size="10.00">Framework/Task.h</text>
</g>
<!-- Node1&#45;&gt;Node7 -->
<g id="edge6" class="edge"><title>Node1&#45;&gt;Node7</title>
<path fill="none" stroke="midnightblue" d="M672.943,-291.396C661.062,-280.96 644.885,-266.751 632.644,-255.998"/>
<polygon fill="midnightblue" stroke="midnightblue" points="634.721,-253.164 624.898,-249.195 630.102,-258.424 634.721,-253.164"/>
</g>
<!-- Node8 -->
<g id="node8" class="node"><title>Node8</title>
<polygon fill="none" stroke="#bfbfbf" points="682,-230 682,-249 846,-249 846,-230 682,-230"/>
<text text-anchor="middle" x="764" y="-237" font-family="Helvetica,sans-Serif" font-size="10.00">Framework/DataProcessorSpec.h</text>
</g>
<!-- Node1&#45;&gt;Node8 -->
<g id="edge7" class="edge"><title>Node1&#45;&gt;Node8</title>
<path fill="none" stroke="midnightblue" d="M705.274,-291.396C717.315,-280.96 733.711,-266.751 746.118,-255.998"/>
<polygon fill="midnightblue" stroke="midnightblue" points="748.703,-258.389 753.968,-249.195 744.119,-253.099 748.703,-258.389"/>
</g>
<!-- Node9 -->
<g id="node9" class="node"><title>Node9</title>
<polygon fill="none" stroke="#bfbfbf" points="864.5,-230 864.5,-249 1017.5,-249 1017.5,-230 864.5,-230"/>
<text text-anchor="middle" x="941" y="-237" font-family="Helvetica,sans-Serif" font-size="10.00">Framework/CompletionPolicy.h</text>
</g>
<!-- Node1&#45;&gt;Node9 -->
<g id="edge8" class="edge"><title>Node1&#45;&gt;Node9</title>
<path fill="none" stroke="midnightblue" d="M743.37,-291.476C789.717,-279.521 855.426,-262.573 898.13,-251.558"/>
<polygon fill="midnightblue" stroke="midnightblue" points="899.126,-254.915 907.935,-249.029 897.378,-248.137 899.126,-254.915"/>
</g>
<!-- Node10 -->
<g id="node10" class="node"><title>Node10</title>
<polygon fill="none" stroke="#bfbfbf" points="1035.5,-230 1035.5,-249 1186.5,-249 1186.5,-230 1035.5,-230"/>
<text text-anchor="middle" x="1111" y="-237" font-family="Helvetica,sans-Serif" font-size="10.00">Monitoring/MonitoringFactory.h</text>
</g>
<!-- Node1&#45;&gt;Node10 -->
<g id="edge9" class="edge"><title>Node1&#45;&gt;Node10</title>
<path fill="none" stroke="midnightblue" d="M755.767,-295.979C823.997,-286.143 932.983,-270.136 1027,-255 1035.3,-253.664 1044.04,-252.208 1052.64,-250.75"/>
<polygon fill="midnightblue" stroke="midnightblue" points="1053.35,-254.179 1062.61,-249.045 1052.17,-247.279 1053.35,-254.179"/>
</g>
<!-- Node11 -->
<g id="node11" class="node"><title>Node11</title>
<polygon fill="none" stroke="#bfbfbf" points="1204.5,-224.5 1204.5,-254.5 1339.5,-254.5 1339.5,-224.5 1204.5,-224.5"/>
<text text-anchor="start" x="1212.5" y="-242.5" font-family="Helvetica,sans-Serif" font-size="10.00">Configuration/Configuration</text>
<text text-anchor="middle" x="1272" y="-231.5" font-family="Helvetica,sans-Serif" font-size="10.00">Interface.h</text>
</g>
<!-- Node1&#45;&gt;Node11 -->
<g id="edge10" class="edge"><title>Node1&#45;&gt;Node11</title>
<path fill="none" stroke="midnightblue" d="M755.668,-300.766C850.83,-293.587 1031.27,-278.409 1193.91,-255.232"/>
<polygon fill="midnightblue" stroke="midnightblue" points="1194.7,-258.655 1204.1,-253.766 1193.7,-251.726 1194.7,-258.655"/>
</g>
<!-- Node12 -->
<g id="node12" class="node"><title>Node12</title>
<g id="a_node12"><a xlink:href="TaskConfig_8h.html" target="_top" xlink:title="QualityControl/TaskConfig.h">
<polygon fill="none" stroke="black" points="1285,-112.5 1285,-131.5 1425,-131.5 1425,-112.5 1285,-112.5"/>
<text text-anchor="middle" x="1355" y="-119.5" font-family="Helvetica,sans-Serif" font-size="10.00">QualityControl/TaskConfig.h</text>
</a>
</g>
</g>
<!-- Node1&#45;&gt;Node12 -->
<g id="edge11" class="edge"><title>Node1&#45;&gt;Node12</title>
<path fill="none" stroke="midnightblue" d="M755.753,-305.296C915.254,-304.127 1308.3,-296.975 1349,-255 1378.32,-224.756 1368.67,-169.986 1360.86,-141.434"/>
<polygon fill="midnightblue" stroke="midnightblue" points="1364.14,-140.167 1357.95,-131.568 1357.43,-142.15 1364.14,-140.167"/>
</g>
<!-- Node14 -->
<g id="node14" class="node"><title>Node14</title>
<g id="a_node14"><a xlink:href="TaskInterface_8h.html" target="_top" xlink:title="QualityControl/TaskInterface.h">
<polygon fill="none" stroke="black" points="1687,-230 1687,-249 1837,-249 1837,-230 1687,-230"/>
<text text-anchor="middle" x="1762" y="-237" font-family="Helvetica,sans-Serif" font-size="10.00">QualityControl/TaskInterface.h</text>
</a>
</g>
</g>
<!-- Node1&#45;&gt;Node14 -->
<g id="edge13" class="edge"><title>Node1&#45;&gt;Node14</title>
<path fill="none" stroke="midnightblue" d="M755.716,-301.459C942.234,-290.16 1468.98,-258.25 1676.48,-245.681"/>
<polygon fill="midnightblue" stroke="midnightblue" points="1676.94,-249.159 1686.71,-245.061 1676.52,-242.172 1676.94,-249.159"/>
</g>
<!-- Node13 -->
<g id="node13" class="node"><title>Node13</title>
<polygon fill="none" stroke="#bfbfbf" points="1406.5,-0.5 1406.5,-19.5 1447.5,-19.5 1447.5,-0.5 1406.5,-0.5"/>
<text text-anchor="middle" x="1427" y="-7.5" font-family="Helvetica,sans-Serif" font-size="10.00">string</text>
</g>
<!-- Node12&#45;&gt;Node13 -->
<g id="edge12" class="edge"><title>Node12&#45;&gt;Node13</title>
<path fill="none" stroke="midnightblue" d="M1360.65,-112.368C1372.53,-94.2153 1400.29,-51.8015 1415.88,-27.9902"/>
<polygon fill="midnightblue" stroke="midnightblue" points="1418.83,-29.8753 1421.38,-19.5914 1412.97,-26.0416 1418.83,-29.8753"/>
</g>
<!-- Node15 -->
<g id="node15" class="node"><title>Node15</title>
<polygon fill="none" stroke="#bfbfbf" points="1667,-168.5 1667,-187.5 1719,-187.5 1719,-168.5 1667,-168.5"/>
<text text-anchor="middle" x="1693" y="-175.5" font-family="Helvetica,sans-Serif" font-size="10.00">memory</text>
</g>
<!-- Node14&#45;&gt;Node15 -->
<g id="edge14" class="edge"><title>Node14&#45;&gt;Node15</title>
<path fill="none" stroke="midnightblue" d="M1752.11,-229.975C1741.35,-220.697 1723.93,-205.671 1710.78,-194.331"/>
<polygon fill="midnightblue" stroke="midnightblue" points="1712.73,-191.389 1702.87,-187.509 1708.16,-196.69 1712.73,-191.389"/>
</g>
<!-- Node16 -->
<g id="node16" class="node"><title>Node16</title>
<polygon fill="none" stroke="#bfbfbf" points="1737.5,-168.5 1737.5,-187.5 1786.5,-187.5 1786.5,-168.5 1737.5,-168.5"/>
<text text-anchor="middle" x="1762" y="-175.5" font-family="Helvetica,sans-Serif" font-size="10.00">cassert</text>
</g>
<!-- Node14&#45;&gt;Node16 -->
<g id="edge15" class="edge"><title>Node14&#45;&gt;Node16</title>
<path fill="none" stroke="midnightblue" d="M1762,-229.975C1762,-221.58 1762,-208.481 1762,-197.663"/>
<polygon fill="midnightblue" stroke="midnightblue" points="1765.5,-197.509 1762,-187.509 1758.5,-197.509 1765.5,-197.509"/>
</g>
<!-- Node17 -->
<g id="node17" class="node"><title>Node17</title>
<polygon fill="none" stroke="#bfbfbf" points="1804.5,-168.5 1804.5,-187.5 1929.5,-187.5 1929.5,-168.5 1804.5,-168.5"/>
<text text-anchor="middle" x="1867" y="-175.5" font-family="Helvetica,sans-Serif" font-size="10.00">Framework/InitContext.h</text>
</g>
<!-- Node14&#45;&gt;Node17 -->
<g id="edge16" class="edge"><title>Node14&#45;&gt;Node17</title>
<path fill="none" stroke="midnightblue" d="M1777.04,-229.975C1794.28,-220.211 1822.74,-204.081 1843.03,-192.581"/>
<polygon fill="midnightblue" stroke="midnightblue" points="1845.01,-195.484 1851.98,-187.509 1841.56,-189.394 1845.01,-195.484"/>
</g>
<!-- Node18 -->
<g id="node18" class="node"><title>Node18</title>
<polygon fill="none" stroke="#bfbfbf" points="1948,-168.5 1948,-187.5 2108,-187.5 2108,-168.5 1948,-168.5"/>
<text text-anchor="middle" x="2028" y="-175.5" font-family="Helvetica,sans-Serif" font-size="10.00">Framework/ProcessingContext.h</text>
</g>
<!-- Node14&#45;&gt;Node18 -->
<g id="edge17" class="edge"><title>Node14&#45;&gt;Node18</title>
<path fill="none" stroke="midnightblue" d="M1800.11,-229.975C1847.52,-219.371 1928.48,-201.26 1980.06,-189.724"/>
<polygon fill="midnightblue" stroke="midnightblue" points="1980.96,-193.108 1989.96,-187.509 1979.44,-186.276 1980.96,-193.108"/>
</g>
<!-- Node19 -->
<g id="node19" class="node"><title>Node19</title>
<g id="a_node19"><a xlink:href="Activity_8h.html" target="_top" xlink:title="QualityControl/Activity.h">
<polygon fill="none" stroke="black" points="2126.5,-168.5 2126.5,-187.5 2249.5,-187.5 2249.5,-168.5 2126.5,-168.5"/>
<text text-anchor="middle" x="2188" y="-175.5" font-family="Helvetica,sans-Serif" font-size="10.00">QualityControl/Activity.h</text>
</a>
</g>
</g>
<!-- Node14&#45;&gt;Node19 -->
<g id="edge18" class="edge"><title>Node14&#45;&gt;Node19</title>
<path fill="none" stroke="midnightblue" d="M1823.04,-229.975C1900.78,-219.117 2034.87,-200.388 2117.07,-188.907"/>
<polygon fill="midnightblue" stroke="midnightblue" points="2117.66,-192.359 2127.08,-187.509 2116.69,-185.426 2117.66,-192.359"/>
</g>
<!-- Node20 -->
<g id="node20" class="node"><title>Node20</title>
<g id="a_node20"><a xlink:href="ObjectsManager_8h.html" target="_top" xlink:title="QualityControl/ObjectsManager.h">
<polygon fill="none" stroke="black" points="1487.5,-168.5 1487.5,-187.5 1648.5,-187.5 1648.5,-168.5 1487.5,-168.5"/>
<text text-anchor="middle" x="1568" y="-175.5" font-family="Helvetica,sans-Serif" font-size="10.00">QualityControl/ObjectsManager.h</text>
</a>
</g>
</g>
<!-- Node14&#45;&gt;Node20 -->
<g id="edge19" class="edge"><title>Node14&#45;&gt;Node20</title>
<path fill="none" stroke="midnightblue" d="M1734.2,-229.975C1700.35,-219.592 1643.03,-202.012 1605.35,-190.454"/>
<polygon fill="midnightblue" stroke="midnightblue" points="1606.33,-187.095 1595.74,-187.509 1604.28,-193.788 1606.33,-187.095"/>
</g>
<!-- Node20&#45;&gt;Node12 -->
<g id="edge30" class="edge"><title>Node20&#45;&gt;Node12</title>
<path fill="none" stroke="midnightblue" d="M1534.25,-168.444C1497.48,-159.122 1438.55,-144.183 1398.38,-133.997"/>
<polygon fill="midnightblue" stroke="midnightblue" points="1399.15,-130.581 1388.59,-131.516 1397.43,-137.367 1399.15,-130.581"/>
</g>
<!-- Node20&#45;&gt;Node13 -->
<g id="edge34" class="edge"><title>Node20&#45;&gt;Node13</title>
<path fill="none" stroke="midnightblue" d="M1552.95,-168.474C1527.39,-153.226 1475.49,-118.836 1447,-76 1437.7,-62.0212 1432.56,-43.5186 1429.83,-29.8299"/>
<polygon fill="midnightblue" stroke="midnightblue" points="1433.23,-28.9208 1428.06,-19.6685 1426.33,-30.1204 1433.23,-28.9208"/>
</g>
<!-- Node21 -->
<g id="node21" class="node"><title>Node21</title>
<g id="a_node21"><a xlink:href="MonitorObject_8h.html" target="_top" xlink:title="QualityControl/MonitorObject.h">
<polygon fill="none" stroke="black" points="1544.5,-112.5 1544.5,-131.5 1695.5,-131.5 1695.5,-112.5 1544.5,-112.5"/>
<text text-anchor="middle" x="1620" y="-119.5" font-family="Helvetica,sans-Serif" font-size="10.00">QualityControl/MonitorObject.h</text>
</a>
</g>
</g>
<!-- Node20&#45;&gt;Node21 -->
<g id="edge20" class="edge"><title>Node20&#45;&gt;Node21</title>
<path fill="none" stroke="midnightblue" d="M1576.59,-168.083C1584.16,-160.22 1595.38,-148.569 1604.51,-139.081"/>
<polygon fill="midnightblue" stroke="midnightblue" points="1607.16,-141.382 1611.57,-131.751 1602.12,-136.527 1607.16,-141.382"/>
</g>
<!-- Node26 -->
<g id="node26" class="node"><title>Node26</title>
<g id="a_node26"><a xlink:href="Quality_8h.html" target="_top" xlink:title="QualityControl/Quality.h">
<polygon fill="none" stroke="black" points="1455.5,-56.5 1455.5,-75.5 1576.5,-75.5 1576.5,-56.5 1455.5,-56.5"/>
<text text-anchor="middle" x="1516" y="-63.5" font-family="Helvetica,sans-Serif" font-size="10.00">QualityControl/Quality.h</text>
</a>
</g>
</g>
<!-- Node20&#45;&gt;Node26 -->
<g id="edge29" class="edge"><title>Node20&#45;&gt;Node26</title>
<path fill="none" stroke="midnightblue" d="M1560.47,-168.237C1553.32,-159.541 1542.7,-145.583 1536,-132 1528.65,-117.11 1523.34,-98.9651 1520.05,-85.6342"/>
<polygon fill="midnightblue" stroke="midnightblue" points="1523.42,-84.6961 1517.76,-75.7456 1516.61,-86.2778 1523.42,-84.6961"/>
</g>
<!-- Node28 -->
<g id="node28" class="node"><title>Node28</title>
<polygon fill="none" stroke="#bfbfbf" points="1713.5,-112.5 1713.5,-131.5 1782.5,-131.5 1782.5,-112.5 1713.5,-112.5"/>
<text text-anchor="middle" x="1748" y="-119.5" font-family="Helvetica,sans-Serif" font-size="10.00">TObjArray.h</text>
</g>
<!-- Node20&#45;&gt;Node28 -->
<g id="edge31" class="edge"><title>Node20&#45;&gt;Node28</title>
<path fill="none" stroke="midnightblue" d="M1596.52,-168.444C1627.07,-159.28 1675.71,-144.688 1709.6,-134.519"/>
<polygon fill="midnightblue" stroke="midnightblue" points="1711.04,-137.742 1719.61,-131.516 1709.03,-131.038 1711.04,-137.742"/>
</g>
<!-- Node29 -->
<g id="node29" class="node"><title>Node29</title>
<polygon fill="none" stroke="#bfbfbf" points="1800.5,-112.5 1800.5,-131.5 1871.5,-131.5 1871.5,-112.5 1800.5,-112.5"/>
<text text-anchor="middle" x="1836" y="-119.5" font-family="Helvetica,sans-Serif" font-size="10.00">TObjString.h</text>
</g>
<!-- Node20&#45;&gt;Node29 -->
<g id="edge32" class="edge"><title>Node20&#45;&gt;Node29</title>
<path fill="none" stroke="midnightblue" d="M1610.95,-168.418C1653.94,-159.819 1722.24,-146.126 1790.41,-132.318"/>
<polygon fill="midnightblue" stroke="midnightblue" points="1791.36,-135.697 1800.46,-130.281 1789.96,-128.837 1791.36,-135.697"/>
</g>
<!-- Node30 -->
<g id="node30" class="node"><title>Node30</title>
<polygon fill="none" stroke="#bfbfbf" points="1890,-112.5 1890,-131.5 2018,-131.5 2018,-112.5 1890,-112.5"/>
<text text-anchor="middle" x="1954" y="-119.5" font-family="Helvetica,sans-Serif" font-size="10.00">boost/concept_check.hpp</text>
</g>
<!-- Node20&#45;&gt;Node30 -->
<g id="edge33" class="edge"><title>Node20&#45;&gt;Node30</title>
<path fill="none" stroke="midnightblue" d="M1629.16,-168.444C1698.19,-158.786 1810.33,-143.099 1883.12,-132.916"/>
<polygon fill="midnightblue" stroke="midnightblue" points="1883.7,-136.368 1893.12,-131.516 1882.73,-129.436 1883.7,-136.368"/>
</g>
<!-- Node22 -->
<g id="node22" class="node"><title>Node22</title>
<polygon fill="none" stroke="#bfbfbf" points="1595,-56.5 1595,-75.5 1649,-75.5 1649,-56.5 1595,-56.5"/>
<text text-anchor="middle" x="1622" y="-63.5" font-family="Helvetica,sans-Serif" font-size="10.00">iostream</text>
</g>
<!-- Node21&#45;&gt;Node22 -->
<g id="edge21" class="edge"><title>Node21&#45;&gt;Node22</title>
<path fill="none" stroke="midnightblue" d="M1620.33,-112.083C1620.59,-105.006 1620.97,-94.8611 1621.3,-85.9865"/>
<polygon fill="midnightblue" stroke="midnightblue" points="1624.8,-85.8738 1621.68,-75.7511 1617.81,-85.6147 1624.8,-85.8738"/>
</g>
<!-- Node23 -->
<g id="node23" class="node"><title>Node23</title>
<polygon fill="none" stroke="#bfbfbf" points="1667.5,-56.5 1667.5,-75.5 1702.5,-75.5 1702.5,-56.5 1667.5,-56.5"/>
<text text-anchor="middle" x="1685" y="-63.5" font-family="Helvetica,sans-Serif" font-size="10.00">map</text>
</g>
<!-- Node21&#45;&gt;Node23 -->
<g id="edge22" class="edge"><title>Node21&#45;&gt;Node23</title>
<path fill="none" stroke="midnightblue" d="M1630.44,-112.324C1640.15,-104.263 1654.82,-92.0765 1666.5,-82.3695"/>
<polygon fill="midnightblue" stroke="midnightblue" points="1668.91,-84.9163 1674.37,-75.8339 1664.44,-79.532 1668.91,-84.9163"/>
</g>
<!-- Node24 -->
<g id="node24" class="node"><title>Node24</title>
<polygon fill="none" stroke="#bfbfbf" points="1630.5,-0.5 1630.5,-19.5 1689.5,-19.5 1689.5,-0.5 1630.5,-0.5"/>
<text text-anchor="middle" x="1660" y="-7.5" font-family="Helvetica,sans-Serif" font-size="10.00">TObject.h</text>
</g>
<!-- Node21&#45;&gt;Node24 -->
<g id="edge23" class="edge"><title>Node21&#45;&gt;Node24</title>
<path fill="none" stroke="midnightblue" d="M1658.85,-112.364C1678.38,-105.847 1700.33,-94.7042 1712,-76 1723.69,-57.2668 1702.9,-37.7394 1684.24,-25.0397"/>
<polygon fill="midnightblue" stroke="midnightblue" points="1685.98,-21.9973 1675.67,-19.55 1682.2,-27.8915 1685.98,-21.9973"/>
</g>
<!-- Node25 -->
<g id="node25" class="node"><title>Node25</title>
<polygon fill="none" stroke="#bfbfbf" points="1759,-56.5 1759,-75.5 1875,-75.5 1875,-56.5 1759,-56.5"/>
<text text-anchor="middle" x="1817" y="-63.5" font-family="Helvetica,sans-Serif" font-size="10.00">Common/Exceptions.h</text>
</g>
<!-- Node21&#45;&gt;Node25 -->
<g id="edge24" class="edge"><title>Node21&#45;&gt;Node25</title>
<path fill="none" stroke="midnightblue" d="M1651.22,-112.444C1684.93,-103.201 1738.8,-88.4356 1775.93,-78.2572"/>
<polygon fill="midnightblue" stroke="midnightblue" points="1777.21,-81.5356 1785.93,-75.5164 1775.36,-74.7846 1777.21,-81.5356"/>
</g>
<!-- Node21&#45;&gt;Node26 -->
<g id="edge25" class="edge"><title>Node21&#45;&gt;Node26</title>
<path fill="none" stroke="midnightblue" d="M1603.29,-112.324C1586.69,-103.703 1561,-90.3643 1541.78,-80.3855"/>
<polygon fill="midnightblue" stroke="midnightblue" points="1543.16,-77.1565 1532.67,-75.6545 1539.93,-83.3689 1543.16,-77.1565"/>
</g>
<!-- Node26&#45;&gt;Node13 -->
<g id="edge28" class="edge"><title>Node26&#45;&gt;Node13</title>
<path fill="none" stroke="midnightblue" d="M1501.7,-56.324C1487.82,-47.9002 1466.51,-34.9709 1450.2,-25.0741"/>
<polygon fill="midnightblue" stroke="midnightblue" points="1451.63,-21.8495 1441.26,-19.6545 1448,-27.8341 1451.63,-21.8495"/>
</g>
<!-- Node26&#45;&gt;Node24 -->
<g id="edge26" class="edge"><title>Node26&#45;&gt;Node24</title>
<path fill="none" stroke="midnightblue" d="M1538.82,-56.4435C1562.83,-47.4381 1600.83,-33.1891 1627.87,-23.049"/>
<polygon fill="midnightblue" stroke="midnightblue" points="1629.16,-26.3049 1637.29,-19.5164 1626.7,-19.7506 1629.16,-26.3049"/>
</g>
<!-- Node27 -->
<g id="node27" class="node"><title>Node27</title>
<polygon fill="none" stroke="#bfbfbf" points="1490,-0.5 1490,-19.5 1542,-19.5 1542,-0.5 1490,-0.5"/>
<text text-anchor="middle" x="1516" y="-7.5" font-family="Helvetica,sans-Serif" font-size="10.00">ostream</text>
</g>
<!-- Node26&#45;&gt;Node27 -->
<g id="edge27" class="edge"><title>Node26&#45;&gt;Node27</title>
<path fill="none" stroke="midnightblue" d="M1516,-56.083C1516,-49.0059 1516,-38.8611 1516,-29.9865"/>
<polygon fill="midnightblue" stroke="midnightblue" points="1519.5,-29.751 1516,-19.7511 1512.5,-29.7511 1519.5,-29.751"/>
</g>
</g>
</svg>
        <g id="navigator" transform="translate(0 0)" fill="#404254">
                <rect fill="#f2f5e9" fill-opacity="0.5" stroke="#606060" stroke-width=".5" x="0" y="0" width="60" height="60"/>
                <use id="zoomplus" xlink:href="#zoomPlus" x="17" y="9" onmousedown="handleZoom(evt,'in')"/>
                <use id="zoomminus" xlink:href="#zoomMin" x="42" y="9" onmousedown="handleZoom(evt,'out')"/>
                <use id="reset" xlink:href="#resetDef" x="30" y="36" onmousedown="handleReset()"/>
                <g id="arrowUp" xlink:href="#dirArrow" transform="translate(30 24)" onmousedown="handlePan(0,-1)">
                  <use xlink:href="#rim" fill="#404040">
                        <set attributeName="fill" to="#808080" begin="arrowUp.mouseover" end="arrowUp.mouseout"/>
                  </use>
                  <path fill="none" stroke="white" stroke-width="1.5" d="M0,-3.0v7 M-2.5,-0.5L0,-3.0L2.5,-0.5"/>
                </g>
                <g id="arrowRight" xlink:href="#dirArrow" transform="rotate(90) translate(36 -43)" onmousedown="handlePan(1,0)">
                  <use xlink:href="#rim" fill="#404040">
                        <set attributeName="fill" to="#808080" begin="arrowRight.mouseover" end="arrowRight.mouseout"/>
                  </use>
                  <path fill="none" stroke="white" stroke-width="1.5" d="M0,-3.0v7 M-2.5,-0.5L0,-3.0L2.5,-0.5"/>
                </g>
                <g id="arrowDown" xlink:href="#dirArrow" transform="rotate(180) translate(-30 -48)" onmousedown="handlePan(0,1)">
                  <use xlink:href="#rim" fill="#404040">
                        <set attributeName="fill" to="#808080" begin="arrowDown.mouseover" end="arrowDown.mouseout"/>
                  </use>
                  <path fill="none" stroke="white" stroke-width="1.5" d="M0,-3.0v7 M-2.5,-0.5L0,-3.0L2.5,-0.5"/>
                </g>
                <g id="arrowLeft" xlink:href="#dirArrow" transform="rotate(270) translate(-36 17)" onmousedown="handlePan(-1,0)">
                  <use xlink:href="#rim" fill="#404040">
                        <set attributeName="fill" to="#808080" begin="arrowLeft.mouseover" end="arrowLeft.mouseout"/>
                  </use>
                  <path fill="none" stroke="white" stroke-width="1.5" d="M0,-3.0v7 M-2.5,-0.5L0,-3.0L2.5,-0.5"/>
                </g>
        </g>
        <svg viewBox="0 0 15 15" width="100%" height="30px" preserveAspectRatio="xMaxYMin meet">
         <g id="arrow_out" transform="scale(0.3 0.3)">
          <a xlink:href="TaskRunner_8h__incl_org.svg" target="_base">
           <rect id="button" ry="5" rx="5" y="6" x="6" height="38" width="38"
                fill="#f2f5e9" fill-opacity="0.5" stroke="#606060" stroke-width="1.0"/>
           <path id="arrow"
             d="M 11.500037,31.436501 C 11.940474,20.09759 22.043105,11.32322 32.158766,21.979434 L 37.068811,17.246167 C 37.068811,17.246167 37.088388,32 37.088388,32 L 22.160133,31.978069 C 22.160133,31.978069 26.997745,27.140456 26.997745,27.140456 C 18.528582,18.264221 13.291696,25.230495 11.500037,31.436501 z"
             style="fill:#404040;"/>
          </a>
         </g>
        </svg>
</svg>
