<?xml version="1.0" encoding="UTF-8" standalone="no"?>
<!DOCTYPE svg PUBLIC "-//W3C//DTD SVG 1.1//EN"
 "http://www.w3.org/Graphics/SVG/1.1/DTD/svg11.dtd">
<!-- Generated by graphviz version 2.38.0 (20140413.2041)
 -->
<!-- Title: Framework/include/QualityControl/TaskRunnerFactory.h Pages: 1 -->
<svg width="493pt" height="106pt"
 viewBox="0.00 0.00 492.50 106.00" xmlns="http://www.w3.org/2000/svg" xmlns:xlink="http://www.w3.org/1999/xlink">
<g id="graph0" class="graph" transform="scale(1 1) rotate(0) translate(4 102)">
<title>Framework/include/QualityControl/TaskRunnerFactory.h</title>
<!-- Node1 -->
<g id="node1" class="node"><title>Node1</title>
<polygon fill="#bfbfbf" stroke="black" points="171.5,-67.5 171.5,-97.5 317.5,-97.5 317.5,-67.5 171.5,-67.5"/>
<text text-anchor="start" x="179.5" y="-85.5" font-family="Helvetica,sans-Serif" font-size="10.00">Framework/include/Quality</text>
<text text-anchor="middle" x="244.5" y="-74.5" font-family="Helvetica,sans-Serif" font-size="10.00">Control/TaskRunnerFactory.h</text>
</g>
<!-- Node2 -->
<g id="node2" class="node"><title>Node2</title>
<polygon fill="none" stroke="#bfbfbf" points="0,-0.5 0,-30.5 143,-30.5 143,-0.5 0,-0.5"/>
<text text-anchor="start" x="8" y="-18.5" font-family="Helvetica,sans-Serif" font-size="10.00">Framework/src/Infrastructure</text>
<text text-anchor="middle" x="71.5" y="-7.5" font-family="Helvetica,sans-Serif" font-size="10.00">Generator.cxx</text>
</g>
<!-- Node1&#45;&gt;Node2 -->
<g id="edge1" class="edge"><title>Node1&#45;&gt;Node2</title>
<path fill="none" stroke="midnightblue" d="M197.44,-63.8185C169.633,-53.3707 134.906,-40.3231 108.965,-30.5765"/>
<polygon fill="midnightblue" stroke="midnightblue" points="196.369,-67.1551 206.962,-67.396 198.832,-60.6024 196.369,-67.1551"/>
</g>
<!-- Node3 -->
<g id="node3" class="node"><title>Node3</title>
<g id="a_node3"><a xlink:href="runMergerTest_8cxx.html" target="_top" xlink:title="This is DPL workflow to see HistoMerger in action. ">
<polygon fill="none" stroke="black" points="161,-6 161,-25 328,-25 328,-6 161,-6"/>
<text text-anchor="middle" x="244.5" y="-13" font-family="Helvetica,sans-Serif" font-size="10.00">Framework/src/runMergerTest.cxx</text>
</a>
</g>
</g>
<!-- Node1&#45;&gt;Node3 -->
<g id="edge2" class="edge"><title>Node1&#45;&gt;Node3</title>
<path fill="none" stroke="midnightblue" d="M244.5,-57.2495C244.5,-46.017 244.5,-33.3767 244.5,-25.1945"/>
<polygon fill="midnightblue" stroke="midnightblue" points="241,-57.3959 244.5,-67.396 248,-57.396 241,-57.3959"/>
</g>
<!-- Node4 -->
<g id="node4" class="node"><title>Node4</title>
<g id="a_node4"><a xlink:href="TaskRunnerFactory_8cxx.html" target="_top" xlink:title="Framework/src/TaskRunner\lFactory.cxx">
<polygon fill="none" stroke="black" points="346.5,-0.5 346.5,-30.5 484.5,-30.5 484.5,-0.5 346.5,-0.5"/>
<text text-anchor="start" x="354.5" y="-18.5" font-family="Helvetica,sans-Serif" font-size="10.00">Framework/src/TaskRunner</text>
<text text-anchor="middle" x="415.5" y="-7.5" font-family="Helvetica,sans-Serif" font-size="10.00">Factory.cxx</text>
</a>
</g>
</g>
<!-- Node1&#45;&gt;Node4 -->
<g id="edge3" class="edge"><title>Node1&#45;&gt;Node4</title>
<path fill="none" stroke="midnightblue" d="M291.016,-63.8185C318.502,-53.3707 352.827,-40.3231 378.468,-30.5765"/>
<polygon fill="midnightblue" stroke="midnightblue" points="289.708,-60.5712 281.604,-67.396 292.196,-67.1144 289.708,-60.5712"/>
</g>
</g>
</svg>
