<?xml version="1.0" encoding="UTF-8" standalone="no"?>
<!DOCTYPE svg PUBLIC "-//W3C//DTD SVG 1.1//EN"
 "http://www.w3.org/Graphics/SVG/1.1/DTD/svg11.dtd">
<!-- Generated by graphviz version 2.38.0 (20140413.2041)
 -->
<!-- Title: Framework/src/TaskRunner.cxx Pages: 1 -->
<!--zoomable 442 -->
<svg id="main" version="1.1" xmlns="http://www.w3.org/2000/svg" xmlns:xlink="http://www.w3.org/1999/xlink" xml:space="preserve" onload="init(evt)">
<style type="text/css"><![CDATA[
.edge:hover path { stroke: red; }
.edge:hover polygon { stroke: red; fill: red; }
]]></style>
<script type="text/javascript"><![CDATA[
var edges = document.getElementsByTagName('g');
if (edges && edges.length) {
  for (var i=0;i<edges.length;i++) {
    if (edges[i].id.substr(0,4)=='edge') {
      edges[i].setAttribute('class','edge');
    }
  }
}
]]></script>
        <defs>
                <circle id="rim" cx="0" cy="0" r="7"/>
                <circle id="rim2" cx="0" cy="0" r="3.5"/>
                <g id="zoomPlus">
                        <use xlink:href="#rim" fill="#404040">
                                <set attributeName="fill" to="#808080" begin="zoomplus.mouseover" end="zoomplus.mouseout"/>
                        </use>
                        <path d="M-4,0h8M0,-4v8" fill="none" stroke="white" stroke-width="1.5" pointer-events="none"/>
                </g>
                <g id="zoomMin">
                        <use xlink:href="#rim" fill="#404040">
                                <set attributeName="fill" to="#808080" begin="zoomminus.mouseover" end="zoomminus.mouseout"/>
                        </use>
                        <path d="M-4,0h8" fill="none" stroke="white" stroke-width="1.5" pointer-events="none"/>
                </g>
                <g id="dirArrow">
                        <path fill="none" stroke="white" stroke-width="1.5" d="M0,-3.0v7 M-2.5,-0.5L0,-3.0L2.5,-0.5"/>
                </g>
               <g id="resetDef">
                       <use xlink:href="#rim2" fill="#404040">
                               <set attributeName="fill" to="#808080" begin="reset.mouseover" end="reset.mouseout"/>
                       </use>
               </g>
        </defs>

<script type="text/javascript">
var viewWidth = 2638;
var viewHeight = 442;
var sectionId = 'dynsection-0';
</script>
<script xlink:href="svgpan.js"/>
<svg id="graph" class="graph">
<g id="viewport">
<title>Framework/src/TaskRunner.cxx</title>
<!-- Node1 -->
<g id="node1" class="node"><title>Node1</title>
<polygon fill="#bfbfbf" stroke="black" points="1460.5,-414.5 1460.5,-433.5 1617.5,-433.5 1617.5,-414.5 1460.5,-414.5"/>
<text text-anchor="middle" x="1539" y="-421.5" font-family="Helvetica,sans-Serif" font-size="10.00">Framework/src/TaskRunner.cxx</text>
</g>
<!-- Node2 -->
<g id="node2" class="node"><title>Node2</title>
<polygon fill="none" stroke="#bfbfbf" points="252,-168.5 252,-187.5 304,-187.5 304,-168.5 252,-168.5"/>
<text text-anchor="middle" x="278" y="-175.5" font-family="Helvetica,sans-Serif" font-size="10.00">memory</text>
</g>
<!-- Node1&#45;&gt;Node2 -->
<g id="edge1" class="edge"><title>Node1&#45;&gt;Node2</title>
<path fill="none" stroke="midnightblue" d="M1460.36,-421.933C1229.77,-418.488 565.645,-406.211 472,-378 416.826,-361.378 402.116,-351.373 361,-311 325.873,-276.508 298.767,-224.407 286.014,-197.123"/>
<polygon fill="midnightblue" stroke="midnightblue" points="289.038,-195.318 281.708,-187.668 282.667,-198.219 289.038,-195.318"/>
</g>
<!-- Node3 -->
<g id="node3" class="node"><title>Node3</title>
<polygon fill="none" stroke="#bfbfbf" points="178,-56.5 178,-75.5 232,-75.5 232,-56.5 178,-56.5"/>
<text text-anchor="middle" x="205" y="-63.5" font-family="Helvetica,sans-Serif" font-size="10.00">iostream</text>
</g>
<!-- Node1&#45;&gt;Node3 -->
<g id="edge2" class="edge"><title>Node1&#45;&gt;Node3</title>
<path fill="none" stroke="midnightblue" d="M1460.15,-423.266C1216.33,-423.616 476.827,-421.005 241,-378 129.764,-357.715 0,-409.57 0,-296.5 0,-296.5 0,-296.5 0,-177 0,-101.748 108.583,-77.7665 167.699,-70.2868"/>
<polygon fill="midnightblue" stroke="midnightblue" points="168.251,-73.7462 177.778,-69.1104 167.439,-66.7934 168.251,-73.7462"/>
</g>
<!-- Node4 -->
<g id="node4" class="node"><title>Node4</title>
<polygon fill="none" stroke="#bfbfbf" points="1555,-353 1555,-372 1673,-372 1673,-353 1555,-353"/>
<text text-anchor="middle" x="1614" y="-360" font-family="Helvetica,sans-Serif" font-size="10.00">fairmq/FairMQDevice.h</text>
</g>
<!-- Node1&#45;&gt;Node4 -->
<g id="edge3" class="edge"><title>Node1&#45;&gt;Node4</title>
<path fill="none" stroke="midnightblue" d="M1549.75,-414.475C1561.55,-405.108 1580.74,-389.884 1595.08,-378.508"/>
<polygon fill="midnightblue" stroke="midnightblue" points="1597.62,-380.966 1603.27,-372.009 1593.26,-375.482 1597.62,-380.966"/>
</g>
<!-- Node5 -->
<g id="node5" class="node"><title>Node5</title>
<polygon fill="none" stroke="#bfbfbf" points="864,-56.5 864,-75.5 980,-75.5 980,-56.5 864,-56.5"/>
<text text-anchor="middle" x="922" y="-63.5" font-family="Helvetica,sans-Serif" font-size="10.00">Common/Exceptions.h</text>
</g>
<!-- Node1&#45;&gt;Node5 -->
<g id="edge4" class="edge"><title>Node1&#45;&gt;Node5</title>
<path fill="none" stroke="midnightblue" d="M1460.31,-415.552C1338.45,-401.814 1118,-367.19 1118,-296.5 1118,-296.5 1118,-296.5 1118,-177 1118,-146.902 1120.66,-132.902 1099,-112 1070.22,-84.2245 1026.83,-72.8955 990.214,-68.549"/>
<polygon fill="midnightblue" stroke="midnightblue" points="990.39,-65.0487 980.083,-67.5004 989.67,-72.0115 990.39,-65.0487"/>
</g>
<!-- Node6 -->
<g id="node6" class="node"><title>Node6</title>
<polygon fill="none" stroke="#bfbfbf" points="1691.5,-347.5 1691.5,-377.5 1826.5,-377.5 1826.5,-347.5 1691.5,-347.5"/>
<text text-anchor="start" x="1699.5" y="-365.5" font-family="Helvetica,sans-Serif" font-size="10.00">Configuration/Configuration</text>
<text text-anchor="middle" x="1759" y="-354.5" font-family="Helvetica,sans-Serif" font-size="10.00">Factory.h</text>
</g>
<!-- Node1&#45;&gt;Node6 -->
<g id="edge5" class="edge"><title>Node1&#45;&gt;Node6</title>
<path fill="none" stroke="midnightblue" d="M1570.52,-414.475C1603.52,-405.551 1656.18,-391.309 1697.46,-380.144"/>
<polygon fill="midnightblue" stroke="midnightblue" points="1698.41,-383.512 1707.15,-377.523 1696.58,-376.755 1698.41,-383.512"/>
</g>
<!-- Node7 -->
<g id="node7" class="node"><title>Node7</title>
<polygon fill="none" stroke="#bfbfbf" points="1845,-353 1845,-372 1983,-372 1983,-353 1845,-353"/>
<text text-anchor="middle" x="1914" y="-360" font-family="Helvetica,sans-Serif" font-size="10.00">Framework/DataSampling.h</text>
</g>
<!-- Node1&#45;&gt;Node7 -->
<g id="edge6" class="edge"><title>Node1&#45;&gt;Node7</title>
<path fill="none" stroke="midnightblue" d="M1599.11,-414.494C1659.17,-405.854 1754.11,-391.812 1836,-378 1843.64,-376.711 1851.69,-375.289 1859.6,-373.854"/>
<polygon fill="midnightblue" stroke="midnightblue" points="1860.29,-377.285 1869.5,-372.038 1859.03,-370.4 1860.29,-377.285"/>
</g>
<!-- Node8 -->
<g id="node8" class="node"><title>Node8</title>
<polygon fill="none" stroke="#bfbfbf" points="2001.5,-353 2001.5,-372 2166.5,-372 2166.5,-353 2001.5,-353"/>
<text text-anchor="middle" x="2084" y="-360" font-family="Helvetica,sans-Serif" font-size="10.00">Framework/DataSamplingPolicy.h</text>
</g>
<!-- Node1&#45;&gt;Node8 -->
<g id="edge7" class="edge"><title>Node1&#45;&gt;Node8</title>
<path fill="none" stroke="midnightblue" d="M1617.72,-416.558C1708.2,-408.834 1861.09,-394.805 1992,-378 2001.98,-376.718 2012.55,-375.203 2022.83,-373.643"/>
<polygon fill="midnightblue" stroke="midnightblue" points="2023.63,-377.061 2032.98,-372.075 2022.56,-370.143 2023.63,-377.061"/>
</g>
<!-- Node9 -->
<g id="node9" class="node"><title>Node9</title>
<polygon fill="none" stroke="#bfbfbf" points="2185,-353 2185,-372 2333,-372 2333,-353 2185,-353"/>
<text text-anchor="middle" x="2259" y="-360" font-family="Helvetica,sans-Serif" font-size="10.00">Framework/CallbackService.h</text>
</g>
<!-- Node1&#45;&gt;Node9 -->
<g id="edge8" class="edge"><title>Node1&#45;&gt;Node9</title>
<path fill="none" stroke="midnightblue" d="M1617.7,-420.036C1738.25,-414.911 1975.72,-402.504 2176,-378 2185.48,-376.84 2195.53,-375.328 2205.24,-373.719"/>
<polygon fill="midnightblue" stroke="midnightblue" points="2205.92,-377.153 2215.19,-372.018 2204.74,-370.253 2205.92,-377.153"/>
</g>
<!-- Node10 -->
<g id="node10" class="node"><title>Node10</title>
<polygon fill="none" stroke="#bfbfbf" points="2351.5,-353 2351.5,-372 2494.5,-372 2494.5,-353 2351.5,-353"/>
<text text-anchor="middle" x="2423" y="-360" font-family="Helvetica,sans-Serif" font-size="10.00">Framework/TimesliceIndex.h</text>
</g>
<!-- Node1&#45;&gt;Node10 -->
<g id="edge9" class="edge"><title>Node1&#45;&gt;Node10</title>
<path fill="none" stroke="midnightblue" d="M1617.63,-421.751C1761.74,-418.761 2077.64,-408.954 2342,-378 2351.27,-376.914 2361.09,-375.438 2370.57,-373.841"/>
<polygon fill="midnightblue" stroke="midnightblue" points="2371.44,-377.243 2380.69,-372.073 2370.23,-370.347 2371.44,-377.243"/>
</g>
<!-- Node11 -->
<g id="node11" class="node"><title>Node11</title>
<polygon fill="none" stroke="#bfbfbf" points="2512.5,-353 2512.5,-372 2629.5,-372 2629.5,-353 2512.5,-353"/>
<text text-anchor="middle" x="2571" y="-360" font-family="Helvetica,sans-Serif" font-size="10.00">Headers/DataHeader.h</text>
</g>
<!-- Node1&#45;&gt;Node11 -->
<g id="edge10" class="edge"><title>Node1&#45;&gt;Node11</title>
<path fill="none" stroke="midnightblue" d="M1617.57,-423.751C1782.54,-424.361 2176.8,-420.733 2504,-378 2511.47,-377.025 2519.34,-375.646 2526.95,-374.122"/>
<polygon fill="midnightblue" stroke="midnightblue" points="2527.7,-377.542 2536.76,-372.058 2526.26,-370.692 2527.7,-377.542"/>
</g>
<!-- Node12 -->
<g id="node12" class="node"><title>Node12</title>
<polygon fill="none" stroke="#bfbfbf" points="1146.5,-286 1146.5,-305 1297.5,-305 1297.5,-286 1146.5,-286"/>
<text text-anchor="middle" x="1222" y="-293" font-family="Helvetica,sans-Serif" font-size="10.00">Monitoring/MonitoringFactory.h</text>
</g>
<!-- Node1&#45;&gt;Node12 -->
<g id="edge11" class="edge"><title>Node1&#45;&gt;Node12</title>
<path fill="none" stroke="midnightblue" d="M1503.23,-414.49C1471.62,-406.516 1424.54,-393.518 1385,-378 1333.75,-357.889 1276.87,-327.465 1245.68,-310.039"/>
<polygon fill="midnightblue" stroke="midnightblue" points="1247.3,-306.93 1236.87,-305.073 1243.86,-313.03 1247.3,-306.93"/>
</g>
<!-- Node13 -->
<g id="node13" class="node"><title>Node13</title>
<g id="a_node13"><a xlink:href="QcInfoLogger_8h.html" target="_top" xlink:title="QualityControl/QcInfoLogger.h">
<polygon fill="none" stroke="black" points="95.5,-286 95.5,-305 244.5,-305 244.5,-286 95.5,-286"/>
<text text-anchor="middle" x="170" y="-293" font-family="Helvetica,sans-Serif" font-size="10.00">QualityControl/QcInfoLogger.h</text>
</a>
</g>
</g>
<!-- Node1&#45;&gt;Node13 -->
<g id="edge12" class="edge"><title>Node1&#45;&gt;Node13</title>
<path fill="none" stroke="midnightblue" d="M1460.26,-422.258C1207.17,-419.573 424.572,-408.845 315,-378 265.801,-364.15 215.322,-330.494 188.85,-311.039"/>
<polygon fill="midnightblue" stroke="midnightblue" points="190.932,-308.226 180.829,-305.035 186.737,-313.83 190.932,-308.226"/>
</g>
<!-- Node31 -->
<g id="node31" class="node"><title>Node31</title>
<g id="a_node31"><a xlink:href="TaskFactory_8h.html" target="_top" xlink:title="QualityControl/TaskFactory.h">
<polygon fill="none" stroke="black" points="481.5,-353 481.5,-372 626.5,-372 626.5,-353 481.5,-353"/>
<text text-anchor="middle" x="554" y="-360" font-family="Helvetica,sans-Serif" font-size="10.00">QualityControl/TaskFactory.h</text>
</a>
</g>
</g>
<!-- Node1&#45;&gt;Node31 -->
<g id="edge38" class="edge"><title>Node1&#45;&gt;Node31</title>
<path fill="none" stroke="midnightblue" d="M1460.47,-418.256C1277.43,-407.2 823.811,-379.798 636.716,-368.497"/>
<polygon fill="midnightblue" stroke="midnightblue" points="636.856,-364.999 626.663,-367.889 636.434,-371.986 636.856,-364.999"/>
</g>
<!-- Node35 -->
<g id="node35" class="node"><title>Node35</title>
<g id="a_node35"><a xlink:href="TaskRunner_8h.html" target="_top" xlink:title="QualityControl/TaskRunner.h">
<polygon fill="none" stroke="black" points="1393.5,-353 1393.5,-372 1536.5,-372 1536.5,-353 1393.5,-353"/>
<text text-anchor="middle" x="1465" y="-360" font-family="Helvetica,sans-Serif" font-size="10.00">QualityControl/TaskRunner.h</text>
</a>
</g>
</g>
<!-- Node1&#45;&gt;Node35 -->
<g id="edge47" class="edge"><title>Node1&#45;&gt;Node35</title>
<path fill="none" stroke="midnightblue" d="M1528.4,-414.475C1516.75,-405.108 1497.81,-389.884 1483.67,-378.508"/>
<polygon fill="midnightblue" stroke="midnightblue" points="1485.57,-375.548 1475.58,-372.009 1481.18,-381.003 1485.57,-375.548"/>
</g>
<!-- Node13&#45;&gt;Node3 -->
<g id="edge37" class="edge"><title>Node13&#45;&gt;Node3</title>
<path fill="none" stroke="midnightblue" d="M171.329,-285.86C176.451,-252.568 194.977,-132.151 202.142,-85.5741"/>
<polygon fill="midnightblue" stroke="midnightblue" points="205.608,-86.065 203.669,-75.6491 198.689,-85.0006 205.608,-86.065"/>
</g>
<!-- Node14 -->
<g id="node14" class="node"><title>Node14</title>
<g id="a_node14"><a xlink:href="TaskInterface_8h.html" target="_top" xlink:title="TaskInterface.h">
<polygon fill="none" stroke="black" points="669.5,-224.5 669.5,-243.5 754.5,-243.5 754.5,-224.5 669.5,-224.5"/>
<text text-anchor="middle" x="712" y="-231.5" font-family="Helvetica,sans-Serif" font-size="10.00">TaskInterface.h</text>
</a>
</g>
</g>
<!-- Node13&#45;&gt;Node14 -->
<g id="edge13" class="edge"><title>Node13&#45;&gt;Node14</title>
<path fill="none" stroke="midnightblue" d="M244.51,-286.32C355.654,-274.119 562.152,-251.45 659.122,-240.805"/>
<polygon fill="midnightblue" stroke="midnightblue" points="659.717,-244.261 669.275,-239.69 658.953,-237.302 659.717,-244.261"/>
</g>
<!-- Node30 -->
<g id="node30" class="node"><title>Node30</title>
<polygon fill="none" stroke="#bfbfbf" points="28,-224.5 28,-243.5 158,-243.5 158,-224.5 28,-224.5"/>
<text text-anchor="middle" x="93" y="-231.5" font-family="Helvetica,sans-Serif" font-size="10.00">InfoLogger/InfoLogger.hxx</text>
</g>
<!-- Node13&#45;&gt;Node30 -->
<g id="edge36" class="edge"><title>Node13&#45;&gt;Node30</title>
<path fill="none" stroke="midnightblue" d="M158.968,-285.975C146.732,-276.52 126.771,-261.096 112.007,-249.687"/>
<polygon fill="midnightblue" stroke="midnightblue" points="114.065,-246.854 104.012,-243.509 109.785,-252.393 114.065,-246.854"/>
</g>
<!-- Node14&#45;&gt;Node2 -->
<g id="edge14" class="edge"><title>Node14&#45;&gt;Node2</title>
<path fill="none" stroke="midnightblue" d="M669.279,-228.344C577.867,-218.361 367.821,-195.306 314.474,-187.774"/>
<polygon fill="midnightblue" stroke="midnightblue" points="314.707,-184.268 304.286,-186.178 313.624,-191.183 314.707,-184.268"/>
</g>
<!-- Node15 -->
<g id="node15" class="node"><title>Node15</title>
<polygon fill="none" stroke="#bfbfbf" points="964.5,-168.5 964.5,-187.5 1013.5,-187.5 1013.5,-168.5 964.5,-168.5"/>
<text text-anchor="middle" x="989" y="-175.5" font-family="Helvetica,sans-Serif" font-size="10.00">cassert</text>
</g>
<!-- Node14&#45;&gt;Node15 -->
<g id="edge15" class="edge"><title>Node14&#45;&gt;Node15</title>
<path fill="none" stroke="midnightblue" d="M754.778,-226.086C801.381,-218.33 878.329,-204.875 953.99,-188.086"/>
<polygon fill="midnightblue" stroke="midnightblue" points="955.178,-191.406 964.171,-185.804 953.648,-184.576 955.178,-191.406"/>
</g>
<!-- Node16 -->
<g id="node16" class="node"><title>Node16</title>
<polygon fill="none" stroke="#bfbfbf" points="501.5,-168.5 501.5,-187.5 626.5,-187.5 626.5,-168.5 501.5,-168.5"/>
<text text-anchor="middle" x="564" y="-175.5" font-family="Helvetica,sans-Serif" font-size="10.00">Framework/InitContext.h</text>
</g>
<!-- Node14&#45;&gt;Node16 -->
<g id="edge16" class="edge"><title>Node14&#45;&gt;Node16</title>
<path fill="none" stroke="midnightblue" d="M688.549,-224.444C663.867,-215.438 624.815,-201.189 597.023,-191.049"/>
<polygon fill="midnightblue" stroke="midnightblue" points="597.935,-187.656 587.341,-187.516 595.536,-194.232 597.935,-187.656"/>
</g>
<!-- Node17 -->
<g id="node17" class="node"><title>Node17</title>
<polygon fill="none" stroke="#bfbfbf" points="645,-168.5 645,-187.5 805,-187.5 805,-168.5 645,-168.5"/>
<text text-anchor="middle" x="725" y="-175.5" font-family="Helvetica,sans-Serif" font-size="10.00">Framework/ProcessingContext.h</text>
</g>
<!-- Node14&#45;&gt;Node17 -->
<g id="edge17" class="edge"><title>Node14&#45;&gt;Node17</title>
<path fill="none" stroke="midnightblue" d="M714.147,-224.083C715.869,-216.927 718.347,-206.635 720.5,-197.691"/>
<polygon fill="midnightblue" stroke="midnightblue" points="723.955,-198.293 722.893,-187.751 717.15,-196.654 723.955,-198.293"/>
</g>
<!-- Node18 -->
<g id="node18" class="node"><title>Node18</title>
<g id="a_node18"><a xlink:href="Activity_8h.html" target="_top" xlink:title="QualityControl/Activity.h">
<polygon fill="none" stroke="black" points="823.5,-168.5 823.5,-187.5 946.5,-187.5 946.5,-168.5 823.5,-168.5"/>
<text text-anchor="middle" x="885" y="-175.5" font-family="Helvetica,sans-Serif" font-size="10.00">QualityControl/Activity.h</text>
</a>
</g>
</g>
<!-- Node14&#45;&gt;Node18 -->
<g id="edge18" class="edge"><title>Node14&#45;&gt;Node18</title>
<path fill="none" stroke="midnightblue" d="M739.412,-224.444C768.769,-215.28 815.519,-200.688 848.096,-190.519"/>
<polygon fill="midnightblue" stroke="midnightblue" points="849.213,-193.837 857.716,-187.516 847.127,-187.155 849.213,-193.837"/>
</g>
<!-- Node19 -->
<g id="node19" class="node"><title>Node19</title>
<g id="a_node19"><a xlink:href="ObjectsManager_8h.html" target="_top" xlink:title="QualityControl/ObjectsManager.h">
<polygon fill="none" stroke="black" points="322.5,-168.5 322.5,-187.5 483.5,-187.5 483.5,-168.5 322.5,-168.5"/>
<text text-anchor="middle" x="403" y="-175.5" font-family="Helvetica,sans-Serif" font-size="10.00">QualityControl/ObjectsManager.h</text>
</a>
</g>
</g>
<!-- Node14&#45;&gt;Node19 -->
<g id="edge19" class="edge"><title>Node14&#45;&gt;Node19</title>
<path fill="none" stroke="midnightblue" d="M669.359,-225.548C615.521,-216.14 522.624,-199.905 462.002,-189.311"/>
<polygon fill="midnightblue" stroke="midnightblue" points="462.271,-185.805 451.818,-187.531 461.066,-192.701 462.271,-185.805"/>
</g>
<!-- Node20 -->
<g id="node20" class="node"><title>Node20</title>
<g id="a_node20"><a xlink:href="MonitorObject_8h.html" target="_top" xlink:title="QualityControl/MonitorObject.h">
<polygon fill="none" stroke="black" points="488.5,-112.5 488.5,-131.5 639.5,-131.5 639.5,-112.5 488.5,-112.5"/>
<text text-anchor="middle" x="564" y="-119.5" font-family="Helvetica,sans-Serif" font-size="10.00">QualityControl/MonitorObject.h</text>
</a>
</g>
</g>
<!-- Node19&#45;&gt;Node20 -->
<g id="edge20" class="edge"><title>Node19&#45;&gt;Node20</title>
<path fill="none" stroke="midnightblue" d="M428.511,-168.444C455.596,-159.359 498.59,-144.939 528.869,-134.783"/>
<polygon fill="midnightblue" stroke="midnightblue" points="530.24,-138.015 538.608,-131.516 528.014,-131.378 530.24,-138.015"/>
</g>
<!-- Node23 -->
<g id="node23" class="node"><title>Node23</title>
<g id="a_node23"><a xlink:href="Quality_8h.html" target="_top" xlink:title="QualityControl/Quality.h">
<polygon fill="none" stroke="black" points="599.5,-56.5 599.5,-75.5 720.5,-75.5 720.5,-56.5 599.5,-56.5"/>
<text text-anchor="middle" x="660" y="-63.5" font-family="Helvetica,sans-Serif" font-size="10.00">QualityControl/Quality.h</text>
</a>
</g>
</g>
<!-- Node19&#45;&gt;Node23 -->
<g id="edge29" class="edge"><title>Node19&#45;&gt;Node23</title>
<path fill="none" stroke="midnightblue" d="M471.259,-168.472C539.322,-159.339 635.514,-144.475 648,-132 659.914,-120.096 662.112,-100.478 661.818,-85.9022"/>
<polygon fill="midnightblue" stroke="midnightblue" points="665.288,-85.3066 661.186,-75.5382 658.301,-85.7327 665.288,-85.3066"/>
</g>
<!-- Node25 -->
<g id="node25" class="node"><title>Node25</title>
<polygon fill="none" stroke="#bfbfbf" points="728.5,-0.5 728.5,-19.5 769.5,-19.5 769.5,-0.5 728.5,-0.5"/>
<text text-anchor="middle" x="749" y="-7.5" font-family="Helvetica,sans-Serif" font-size="10.00">string</text>
</g>
<!-- Node19&#45;&gt;Node25 -->
<g id="edge35" class="edge"><title>Node19&#45;&gt;Node25</title>
<path fill="none" stroke="midnightblue" d="M482.901,-168.478C548.699,-160.539 636.149,-147.6 668,-132 701.052,-115.812 709.348,-107.117 729,-76 737.964,-61.8059 743.141,-43.3273 745.971,-29.7023"/>
<polygon fill="midnightblue" stroke="midnightblue" points="749.463,-30.0675 747.829,-19.5994 742.578,-28.8015 749.463,-30.0675"/>
</g>
<!-- Node26 -->
<g id="node26" class="node"><title>Node26</title>
<g id="a_node26"><a xlink:href="TaskConfig_8h.html" target="_top" xlink:title="QualityControl/TaskConfig.h">
<polygon fill="none" stroke="black" points="950,-112.5 950,-131.5 1090,-131.5 1090,-112.5 950,-112.5"/>
<text text-anchor="middle" x="1020" y="-119.5" font-family="Helvetica,sans-Serif" font-size="10.00">QualityControl/TaskConfig.h</text>
</a>
</g>
</g>
<!-- Node19&#45;&gt;Node26 -->
<g id="edge30" class="edge"><title>Node19&#45;&gt;Node26</title>
<path fill="none" stroke="midnightblue" d="M483.525,-168.8C486.385,-168.527 489.217,-168.259 492,-168 650.684,-153.215 836.382,-137.834 939.873,-129.434"/>
<polygon fill="midnightblue" stroke="midnightblue" points="940.25,-132.915 949.934,-128.618 939.684,-125.938 940.25,-132.915"/>
</g>
<!-- Node27 -->
<g id="node27" class="node"><title>Node27</title>
<polygon fill="none" stroke="#bfbfbf" points="777.5,-112.5 777.5,-131.5 846.5,-131.5 846.5,-112.5 777.5,-112.5"/>
<text text-anchor="middle" x="812" y="-119.5" font-family="Helvetica,sans-Serif" font-size="10.00">TObjArray.h</text>
</g>
<!-- Node19&#45;&gt;Node27 -->
<g id="edge32" class="edge"><title>Node19&#45;&gt;Node27</title>
<path fill="none" stroke="midnightblue" d="M481.835,-168.462C554.891,-160.237 666.512,-146.879 763,-132 764.298,-131.8 765.615,-131.592 766.943,-131.377"/>
<polygon fill="midnightblue" stroke="midnightblue" points="767.965,-134.754 777.243,-129.638 766.8,-127.852 767.965,-134.754"/>
</g>
<!-- Node28 -->
<g id="node28" class="node"><title>Node28</title>
<polygon fill="none" stroke="#bfbfbf" points="252.5,-112.5 252.5,-131.5 323.5,-131.5 323.5,-112.5 252.5,-112.5"/>
<text text-anchor="middle" x="288" y="-119.5" font-family="Helvetica,sans-Serif" font-size="10.00">TObjString.h</text>
</g>
<!-- Node19&#45;&gt;Node28 -->
<g id="edge33" class="edge"><title>Node19&#45;&gt;Node28</title>
<path fill="none" stroke="midnightblue" d="M384.778,-168.444C366.104,-159.675 336.844,-145.935 315.383,-135.858"/>
<polygon fill="midnightblue" stroke="midnightblue" points="316.676,-132.599 306.137,-131.516 313.701,-138.935 316.676,-132.599"/>
</g>
<!-- Node29 -->
<g id="node29" class="node"><title>Node29</title>
<polygon fill="none" stroke="#bfbfbf" points="342,-112.5 342,-131.5 470,-131.5 470,-112.5 342,-112.5"/>
<text text-anchor="middle" x="406" y="-119.5" font-family="Helvetica,sans-Serif" font-size="10.00">boost/concept_check.hpp</text>
</g>
<!-- Node19&#45;&gt;Node29 -->
<g id="edge34" class="edge"><title>Node19&#45;&gt;Node29</title>
<path fill="none" stroke="midnightblue" d="M403.495,-168.083C403.889,-161.006 404.452,-150.861 404.945,-141.986"/>
<polygon fill="midnightblue" stroke="midnightblue" points="408.454,-141.93 405.514,-131.751 401.464,-141.542 408.454,-141.93"/>
</g>
<!-- Node20&#45;&gt;Node3 -->
<g id="edge21" class="edge"><title>Node20&#45;&gt;Node3</title>
<path fill="none" stroke="midnightblue" d="M507.115,-112.444C432.95,-101.288 305.291,-82.0855 242.332,-72.6155"/>
<polygon fill="midnightblue" stroke="midnightblue" points="242.849,-69.1539 232.44,-71.1274 241.808,-76.076 242.849,-69.1539"/>
</g>
<!-- Node20&#45;&gt;Node5 -->
<g id="edge24" class="edge"><title>Node20&#45;&gt;Node5</title>
<path fill="none" stroke="midnightblue" d="M620.726,-112.444C684.488,-102.826 787.899,-87.2275 855.433,-77.0409"/>
<polygon fill="midnightblue" stroke="midnightblue" points="856.173,-80.4689 865.539,-75.5164 855.129,-73.5472 856.173,-80.4689"/>
</g>
<!-- Node21 -->
<g id="node21" class="node"><title>Node21</title>
<polygon fill="none" stroke="#bfbfbf" points="546.5,-56.5 546.5,-75.5 581.5,-75.5 581.5,-56.5 546.5,-56.5"/>
<text text-anchor="middle" x="564" y="-63.5" font-family="Helvetica,sans-Serif" font-size="10.00">map</text>
</g>
<!-- Node20&#45;&gt;Node21 -->
<g id="edge22" class="edge"><title>Node20&#45;&gt;Node21</title>
<path fill="none" stroke="midnightblue" d="M564,-112.083C564,-105.006 564,-94.8611 564,-85.9865"/>
<polygon fill="midnightblue" stroke="midnightblue" points="567.5,-85.751 564,-75.7511 560.5,-85.7511 567.5,-85.751"/>
</g>
<!-- Node22 -->
<g id="node22" class="node"><title>Node22</title>
<polygon fill="none" stroke="#bfbfbf" points="522.5,-0.5 522.5,-19.5 581.5,-19.5 581.5,-0.5 522.5,-0.5"/>
<text text-anchor="middle" x="552" y="-7.5" font-family="Helvetica,sans-Serif" font-size="10.00">TObject.h</text>
</g>
<!-- Node20&#45;&gt;Node22 -->
<g id="edge23" class="edge"><title>Node20&#45;&gt;Node22</title>
<path fill="none" stroke="midnightblue" d="M556.849,-112.364C550.227,-103.763 540.843,-89.8728 537,-76 532.658,-60.3239 537.596,-42.2833 542.937,-29.1914"/>
<polygon fill="midnightblue" stroke="midnightblue" points="546.211,-30.4468 547.138,-19.8927 539.832,-27.5647 546.211,-30.4468"/>
</g>
<!-- Node20&#45;&gt;Node23 -->
<g id="edge25" class="edge"><title>Node20&#45;&gt;Node23</title>
<path fill="none" stroke="midnightblue" d="M579.424,-112.324C594.54,-103.822 617.815,-90.7288 635.471,-80.7975"/>
<polygon fill="midnightblue" stroke="midnightblue" points="637.614,-83.6077 644.614,-75.6545 634.183,-77.5066 637.614,-83.6077"/>
</g>
<!-- Node23&#45;&gt;Node22 -->
<g id="edge26" class="edge"><title>Node23&#45;&gt;Node22</title>
<path fill="none" stroke="midnightblue" d="M642.648,-56.324C625.328,-47.6641 598.485,-34.2424 578.498,-24.249"/>
<polygon fill="midnightblue" stroke="midnightblue" points="579.819,-20.9962 569.309,-19.6545 576.688,-27.2572 579.819,-20.9962"/>
</g>
<!-- Node24 -->
<g id="node24" class="node"><title>Node24</title>
<polygon fill="none" stroke="#bfbfbf" points="634,-0.5 634,-19.5 686,-19.5 686,-0.5 634,-0.5"/>
<text text-anchor="middle" x="660" y="-7.5" font-family="Helvetica,sans-Serif" font-size="10.00">ostream</text>
</g>
<!-- Node23&#45;&gt;Node24 -->
<g id="edge27" class="edge"><title>Node23&#45;&gt;Node24</title>
<path fill="none" stroke="midnightblue" d="M660,-56.083C660,-49.0059 660,-38.8611 660,-29.9865"/>
<polygon fill="midnightblue" stroke="midnightblue" points="663.5,-29.751 660,-19.7511 656.5,-29.7511 663.5,-29.751"/>
</g>
<!-- Node23&#45;&gt;Node25 -->
<g id="edge28" class="edge"><title>Node23&#45;&gt;Node25</title>
<path fill="none" stroke="midnightblue" d="M674.299,-56.324C688.183,-47.9002 709.492,-34.9709 725.804,-25.0741"/>
<polygon fill="midnightblue" stroke="midnightblue" points="728.002,-27.8341 734.736,-19.6545 724.371,-21.8495 728.002,-27.8341"/>
</g>
<!-- Node26&#45;&gt;Node25 -->
<g id="edge31" class="edge"><title>Node26&#45;&gt;Node25</title>
<path fill="none" stroke="midnightblue" d="M1018.45,-112.258C1015.45,-98.0656 1007.43,-70.1761 989,-56 956.64,-31.1149 837.141,-18.204 779.925,-13.3347"/>
<polygon fill="midnightblue" stroke="midnightblue" points="779.932,-9.82355 769.679,-12.4924 779.359,-16.8 779.932,-9.82355"/>
</g>
<!-- Node31&#45;&gt;Node2 -->
<g id="edge40" class="edge"><title>Node31&#45;&gt;Node2</title>
<path fill="none" stroke="midnightblue" d="M564.311,-352.887C581.572,-337.421 612.758,-304.296 595,-280 586.42,-268.261 395.165,-212.488 313.954,-189.226"/>
<polygon fill="midnightblue" stroke="midnightblue" points="314.738,-185.81 304.161,-186.426 312.813,-192.54 314.738,-185.81"/>
</g>
<!-- Node31&#45;&gt;Node3 -->
<g id="edge39" class="edge"><title>Node31&#45;&gt;Node3</title>
<path fill="none" stroke="midnightblue" d="M485.262,-352.923C446.724,-345.878 398.929,-333.276 361,-311 295.677,-272.636 281.589,-253.19 243,-188 223.353,-154.809 212.801,-110.386 208.097,-85.6436"/>
<polygon fill="midnightblue" stroke="midnightblue" points="211.537,-85.0008 206.335,-75.7712 204.646,-86.2306 211.537,-85.0008"/>
</g>
<!-- Node31&#45;&gt;Node5 -->
<g id="edge46" class="edge"><title>Node31&#45;&gt;Node5</title>
<path fill="none" stroke="midnightblue" d="M626.57,-358.806C733.929,-350.444 932.05,-317.279 1022,-188 1054.69,-141.01 969.781,-164.916 941,-132 929.764,-119.15 925.162,-99.9683 923.282,-85.7702"/>
<polygon fill="midnightblue" stroke="midnightblue" points="926.751,-85.2755 922.284,-75.6681 919.784,-85.9637 926.751,-85.2755"/>
</g>
<!-- Node31&#45;&gt;Node13 -->
<g id="edge44" class="edge"><title>Node31&#45;&gt;Node13</title>
<path fill="none" stroke="midnightblue" d="M503.404,-352.936C433.089,-341.033 305.997,-319.52 230.676,-306.771"/>
<polygon fill="midnightblue" stroke="midnightblue" points="230.847,-303.25 220.403,-305.032 229.678,-310.152 230.847,-303.25"/>
</g>
<!-- Node31&#45;&gt;Node26 -->
<g id="edge45" class="edge"><title>Node31&#45;&gt;Node26</title>
<path fill="none" stroke="midnightblue" d="M626.633,-359.473C758.825,-355.031 1027.76,-342.223 1056,-311 1098.63,-263.864 1077.04,-227.973 1056,-168 1052.21,-157.209 1044.63,-147.084 1037.4,-139.181"/>
<polygon fill="midnightblue" stroke="midnightblue" points="1039.67,-136.494 1030.16,-131.815 1034.67,-141.4 1039.67,-136.494"/>
</g>
<!-- Node32 -->
<g id="node32" class="node"><title>Node32</title>
<polygon fill="none" stroke="#bfbfbf" points="370,-286 370,-305 426,-305 426,-286 370,-286"/>
<text text-anchor="middle" x="398" y="-293" font-family="Helvetica,sans-Serif" font-size="10.00">TClass.h</text>
</g>
<!-- Node31&#45;&gt;Node32 -->
<g id="edge41" class="edge"><title>Node31&#45;&gt;Node32</title>
<path fill="none" stroke="midnightblue" d="M533.284,-352.869C506.361,-341.65 459.144,-321.977 428.222,-309.092"/>
<polygon fill="midnightblue" stroke="midnightblue" points="429.378,-305.783 418.801,-305.167 426.686,-312.244 429.378,-305.783"/>
</g>
<!-- Node33 -->
<g id="node33" class="node"><title>Node33</title>
<polygon fill="none" stroke="#bfbfbf" points="444.5,-286 444.5,-305 503.5,-305 503.5,-286 444.5,-286"/>
<text text-anchor="middle" x="474" y="-293" font-family="Helvetica,sans-Serif" font-size="10.00">TROOT.h</text>
</g>
<!-- Node31&#45;&gt;Node33 -->
<g id="edge42" class="edge"><title>Node31&#45;&gt;Node33</title>
<path fill="none" stroke="midnightblue" d="M543.211,-352.734C530.256,-342.208 508.313,-324.379 492.606,-311.617"/>
<polygon fill="midnightblue" stroke="midnightblue" points="494.586,-308.717 484.618,-305.127 490.172,-314.15 494.586,-308.717"/>
</g>
<!-- Node34 -->
<g id="node34" class="node"><title>Node34</title>
<polygon fill="none" stroke="#bfbfbf" points="521.5,-286 521.5,-305 586.5,-305 586.5,-286 521.5,-286"/>
<text text-anchor="middle" x="554" y="-293" font-family="Helvetica,sans-Serif" font-size="10.00">TSystem.h</text>
</g>
<!-- Node31&#45;&gt;Node34 -->
<g id="edge43" class="edge"><title>Node31&#45;&gt;Node34</title>
<path fill="none" stroke="midnightblue" d="M554,-352.734C554,-343.183 554,-327.618 554,-315.283"/>
<polygon fill="midnightblue" stroke="midnightblue" points="557.5,-315.127 554,-305.127 550.5,-315.127 557.5,-315.127"/>
</g>
<!-- Node35&#45;&gt;Node12 -->
<g id="edge56" class="edge"><title>Node35&#45;&gt;Node12</title>
<path fill="none" stroke="midnightblue" d="M1432.98,-352.936C1389.55,-341.317 1311.88,-320.541 1263.86,-307.698"/>
<polygon fill="midnightblue" stroke="midnightblue" points="1264.65,-304.286 1254.09,-305.083 1262.84,-311.049 1264.65,-304.286"/>
</g>
<!-- Node35&#45;&gt;Node14 -->
<g id="edge59" class="edge"><title>Node35&#45;&gt;Node14</title>
<path fill="none" stroke="midnightblue" d="M1438.69,-352.888C1413.66,-344.136 1375.41,-329.285 1345,-311 1326.32,-299.769 1327.24,-288.082 1307,-280 1209.21,-240.955 891.54,-235.544 764.858,-234.972"/>
<polygon fill="midnightblue" stroke="midnightblue" points="764.649,-231.471 754.636,-234.934 764.623,-238.471 764.649,-231.471"/>
</g>
<!-- Node35&#45;&gt;Node26 -->
<g id="edge58" class="edge"><title>Node35&#45;&gt;Node26</title>
<path fill="none" stroke="midnightblue" d="M1506.05,-352.997C1518.8,-350.667 1532.93,-348.401 1546,-347 1600.61,-341.146 2495.88,-350.539 2534,-311 2543.56,-301.082 2543.23,-290.232 2534,-280 2437.21,-172.656 1400.09,-134.12 1100.56,-125.184"/>
<polygon fill="midnightblue" stroke="midnightblue" points="1100.32,-121.675 1090.22,-124.878 1100.11,-128.672 1100.32,-121.675"/>
</g>
<!-- Node36 -->
<g id="node36" class="node"><title>Node36</title>
<polygon fill="none" stroke="#bfbfbf" points="1354,-280.5 1354,-310.5 1456,-310.5 1456,-280.5 1354,-280.5"/>
<text text-anchor="start" x="1362" y="-298.5" font-family="Helvetica,sans-Serif" font-size="10.00">boost/accumulators</text>
<text text-anchor="middle" x="1405" y="-287.5" font-family="Helvetica,sans-Serif" font-size="10.00">/accumulators.hpp</text>
</g>
<!-- Node35&#45;&gt;Node36 -->
<g id="edge48" class="edge"><title>Node35&#45;&gt;Node36</title>
<path fill="none" stroke="midnightblue" d="M1456.91,-352.734C1448.72,-343.865 1435.75,-329.811 1424.82,-317.972"/>
<polygon fill="midnightblue" stroke="midnightblue" points="1427.36,-315.563 1418.01,-310.589 1422.22,-320.311 1427.36,-315.563"/>
</g>
<!-- Node37 -->
<g id="node37" class="node"><title>Node37</title>
<polygon fill="none" stroke="#bfbfbf" points="1474,-280.5 1474,-310.5 1576,-310.5 1576,-280.5 1474,-280.5"/>
<text text-anchor="start" x="1482" y="-298.5" font-family="Helvetica,sans-Serif" font-size="10.00">boost/accumulators</text>
<text text-anchor="middle" x="1525" y="-287.5" font-family="Helvetica,sans-Serif" font-size="10.00">/statistics.hpp</text>
</g>
<!-- Node35&#45;&gt;Node37 -->
<g id="edge49" class="edge"><title>Node35&#45;&gt;Node37</title>
<path fill="none" stroke="midnightblue" d="M1473.09,-352.734C1481.28,-343.865 1494.25,-329.811 1505.18,-317.972"/>
<polygon fill="midnightblue" stroke="midnightblue" points="1507.78,-320.311 1511.99,-310.589 1502.64,-315.563 1507.78,-320.311"/>
</g>
<!-- Node38 -->
<g id="node38" class="node"><title>Node38</title>
<polygon fill="none" stroke="#bfbfbf" points="1594,-286 1594,-305 1674,-305 1674,-286 1594,-286"/>
<text text-anchor="middle" x="1634" y="-293" font-family="Helvetica,sans-Serif" font-size="10.00">boost/asio.hpp</text>
</g>
<!-- Node35&#45;&gt;Node38 -->
<g id="edge50" class="edge"><title>Node35&#45;&gt;Node38</title>
<path fill="none" stroke="midnightblue" d="M1487.44,-352.869C1516.82,-341.571 1568.49,-321.696 1601.97,-308.818"/>
<polygon fill="midnightblue" stroke="midnightblue" points="1603.66,-311.92 1611.73,-305.064 1601.14,-305.387 1603.66,-311.92"/>
</g>
<!-- Node39 -->
<g id="node39" class="node"><title>Node39</title>
<polygon fill="none" stroke="#bfbfbf" points="1692,-280.5 1692,-310.5 1792,-310.5 1792,-280.5 1692,-280.5"/>
<text text-anchor="start" x="1700" y="-298.5" font-family="Helvetica,sans-Serif" font-size="10.00">boost/serialization</text>
<text text-anchor="middle" x="1742" y="-287.5" font-family="Helvetica,sans-Serif" font-size="10.00">/array_wrapper.hpp</text>
</g>
<!-- Node35&#45;&gt;Node39 -->
<g id="edge51" class="edge"><title>Node35&#45;&gt;Node39</title>
<path fill="none" stroke="midnightblue" d="M1502.45,-352.984C1543.87,-343.53 1612.85,-327.682 1681.65,-311.305"/>
<polygon fill="midnightblue" stroke="midnightblue" points="1682.88,-314.61 1691.8,-308.886 1681.26,-307.801 1682.88,-314.61"/>
</g>
<!-- Node40 -->
<g id="node40" class="node"><title>Node40</title>
<polygon fill="none" stroke="#bfbfbf" points="1810,-286 1810,-305 1902,-305 1902,-286 1810,-286"/>
<text text-anchor="middle" x="1856" y="-293" font-family="Helvetica,sans-Serif" font-size="10.00">Common/Timer.h</text>
</g>
<!-- Node35&#45;&gt;Node40 -->
<g id="edge52" class="edge"><title>Node35&#45;&gt;Node40</title>
<path fill="none" stroke="midnightblue" d="M1510.79,-353C1522.27,-350.952 1534.57,-348.829 1546,-347 1659.02,-328.913 1688.8,-333.628 1801,-311 1806.01,-309.989 1811.25,-308.793 1816.41,-307.529"/>
<polygon fill="midnightblue" stroke="midnightblue" points="1817.35,-310.903 1826.18,-305.045 1815.62,-304.119 1817.35,-310.903"/>
</g>
<!-- Node41 -->
<g id="node41" class="node"><title>Node41</title>
<polygon fill="none" stroke="#bfbfbf" points="1920,-286 1920,-305 2018,-305 2018,-286 1920,-286"/>
<text text-anchor="middle" x="1969" y="-293" font-family="Helvetica,sans-Serif" font-size="10.00">Framework/Task.h</text>
</g>
<!-- Node35&#45;&gt;Node41 -->
<g id="edge53" class="edge"><title>Node35&#45;&gt;Node41</title>
<path fill="none" stroke="midnightblue" d="M1509.04,-352.966C1521,-350.826 1533.97,-348.667 1546,-347 1707.47,-324.621 1750.39,-338.843 1911,-311 1916.77,-310.001 1922.8,-308.738 1928.72,-307.377"/>
<polygon fill="midnightblue" stroke="midnightblue" points="1929.58,-310.77 1938.48,-305.022 1927.93,-303.965 1929.58,-310.77"/>
</g>
<!-- Node42 -->
<g id="node42" class="node"><title>Node42</title>
<polygon fill="none" stroke="#bfbfbf" points="2036,-286 2036,-305 2200,-305 2200,-286 2036,-286"/>
<text text-anchor="middle" x="2118" y="-293" font-family="Helvetica,sans-Serif" font-size="10.00">Framework/DataProcessorSpec.h</text>
</g>
<!-- Node35&#45;&gt;Node42 -->
<g id="edge54" class="edge"><title>Node35&#45;&gt;Node42</title>
<path fill="none" stroke="midnightblue" d="M1508.17,-352.927C1520.36,-350.736 1533.67,-348.561 1546,-347 1758.68,-320.077 1814.07,-335.888 2027,-311 2037.48,-309.775 2048.59,-308.22 2059.32,-306.585"/>
<polygon fill="midnightblue" stroke="midnightblue" points="2060.12,-310.003 2069.46,-305.002 2059.04,-303.087 2060.12,-310.003"/>
</g>
<!-- Node43 -->
<g id="node43" class="node"><title>Node43</title>
<polygon fill="none" stroke="#bfbfbf" points="2218.5,-286 2218.5,-305 2371.5,-305 2371.5,-286 2218.5,-286"/>
<text text-anchor="middle" x="2295" y="-293" font-family="Helvetica,sans-Serif" font-size="10.00">Framework/CompletionPolicy.h</text>
</g>
<!-- Node35&#45;&gt;Node43 -->
<g id="edge55" class="edge"><title>Node35&#45;&gt;Node43</title>
<path fill="none" stroke="midnightblue" d="M1506.9,-352.988C1519.43,-350.717 1533.23,-348.484 1546,-347 1839.13,-312.936 1915.7,-343.583 2209,-311 2219.05,-309.884 2229.7,-308.364 2239.96,-306.727"/>
<polygon fill="midnightblue" stroke="midnightblue" points="2240.76,-310.143 2250.05,-305.061 2239.62,-303.236 2240.76,-310.143"/>
</g>
<!-- Node44 -->
<g id="node44" class="node"><title>Node44</title>
<polygon fill="none" stroke="#bfbfbf" points="2389.5,-280.5 2389.5,-310.5 2524.5,-310.5 2524.5,-280.5 2389.5,-280.5"/>
<text text-anchor="start" x="2397.5" y="-298.5" font-family="Helvetica,sans-Serif" font-size="10.00">Configuration/Configuration</text>
<text text-anchor="middle" x="2457" y="-287.5" font-family="Helvetica,sans-Serif" font-size="10.00">Interface.h</text>
</g>
<!-- Node35&#45;&gt;Node44 -->
<g id="edge57" class="edge"><title>Node35&#45;&gt;Node44</title>
<path fill="none" stroke="midnightblue" d="M1506.47,-352.974C1519.11,-350.674 1533.08,-348.429 1546,-347 1911.87,-306.55 2010.26,-353.065 2378.97,-311.126"/>
<polygon fill="midnightblue" stroke="midnightblue" points="2379.59,-314.578 2389.12,-309.957 2378.79,-307.624 2379.59,-314.578"/>
</g>
</g>
</svg>
        <g id="navigator" transform="translate(0 0)" fill="#404254">
                <rect fill="#f2f5e9" fill-opacity="0.5" stroke="#606060" stroke-width=".5" x="0" y="0" width="60" height="60"/>
                <use id="zoomplus" xlink:href="#zoomPlus" x="17" y="9" onmousedown="handleZoom(evt,'in')"/>
                <use id="zoomminus" xlink:href="#zoomMin" x="42" y="9" onmousedown="handleZoom(evt,'out')"/>
                <use id="reset" xlink:href="#resetDef" x="30" y="36" onmousedown="handleReset()"/>
                <g id="arrowUp" xlink:href="#dirArrow" transform="translate(30 24)" onmousedown="handlePan(0,-1)">
                  <use xlink:href="#rim" fill="#404040">
                        <set attributeName="fill" to="#808080" begin="arrowUp.mouseover" end="arrowUp.mouseout"/>
                  </use>
                  <path fill="none" stroke="white" stroke-width="1.5" d="M0,-3.0v7 M-2.5,-0.5L0,-3.0L2.5,-0.5"/>
                </g>
                <g id="arrowRight" xlink:href="#dirArrow" transform="rotate(90) translate(36 -43)" onmousedown="handlePan(1,0)">
                  <use xlink:href="#rim" fill="#404040">
                        <set attributeName="fill" to="#808080" begin="arrowRight.mouseover" end="arrowRight.mouseout"/>
                  </use>
                  <path fill="none" stroke="white" stroke-width="1.5" d="M0,-3.0v7 M-2.5,-0.5L0,-3.0L2.5,-0.5"/>
                </g>
                <g id="arrowDown" xlink:href="#dirArrow" transform="rotate(180) translate(-30 -48)" onmousedown="handlePan(0,1)">
                  <use xlink:href="#rim" fill="#404040">
                        <set attributeName="fill" to="#808080" begin="arrowDown.mouseover" end="arrowDown.mouseout"/>
                  </use>
                  <path fill="none" stroke="white" stroke-width="1.5" d="M0,-3.0v7 M-2.5,-0.5L0,-3.0L2.5,-0.5"/>
                </g>
                <g id="arrowLeft" xlink:href="#dirArrow" transform="rotate(270) translate(-36 17)" onmousedown="handlePan(-1,0)">
                  <use xlink:href="#rim" fill="#404040">
                        <set attributeName="fill" to="#808080" begin="arrowLeft.mouseover" end="arrowLeft.mouseout"/>
                  </use>
                  <path fill="none" stroke="white" stroke-width="1.5" d="M0,-3.0v7 M-2.5,-0.5L0,-3.0L2.5,-0.5"/>
                </g>
        </g>
        <svg viewBox="0 0 15 15" width="100%" height="30px" preserveAspectRatio="xMaxYMin meet">
         <g id="arrow_out" transform="scale(0.3 0.3)">
          <a xlink:href="TaskRunner_8cxx__incl_org.svg" target="_base">
           <rect id="button" ry="5" rx="5" y="6" x="6" height="38" width="38"
                fill="#f2f5e9" fill-opacity="0.5" stroke="#606060" stroke-width="1.0"/>
           <path id="arrow"
             d="M 11.500037,31.436501 C 11.940474,20.09759 22.043105,11.32322 32.158766,21.979434 L 37.068811,17.246167 C 37.068811,17.246167 37.088388,32 37.088388,32 L 22.160133,31.978069 C 22.160133,31.978069 26.997745,27.140456 26.997745,27.140456 C 18.528582,18.264221 13.291696,25.230495 11.500037,31.436501 z"
             style="fill:#404040;"/>
          </a>
         </g>
        </svg>
</svg>
