<?xml version="1.0" encoding="UTF-8" standalone="no"?>
<!DOCTYPE svg PUBLIC "-//W3C//DTD SVG 1.1//EN"
 "http://www.w3.org/Graphics/SVG/1.1/DTD/svg11.dtd">
<!-- Generated by graphviz version 2.38.0 (20140413.2041)
 -->
<!-- Title: Framework/include/QualityControl/TaskInterface.h Pages: 1 -->
<!--zoomable 263 -->
<svg id="main" version="1.1" xmlns="http://www.w3.org/2000/svg" xmlns:xlink="http://www.w3.org/1999/xlink" xml:space="preserve" onload="init(evt)">
<style type="text/css"><![CDATA[
.edge:hover path { stroke: red; }
.edge:hover polygon { stroke: red; fill: red; }
]]></style>
<script type="text/javascript"><![CDATA[
var edges = document.getElementsByTagName('g');
if (edges && edges.length) {
  for (var i=0;i<edges.length;i++) {
    if (edges[i].id.substr(0,4)=='edge') {
      edges[i].setAttribute('class','edge');
    }
  }
}
]]></script>
        <defs>
                <circle id="rim" cx="0" cy="0" r="7"/>
                <circle id="rim2" cx="0" cy="0" r="3.5"/>
                <g id="zoomPlus">
                        <use xlink:href="#rim" fill="#404040">
                                <set attributeName="fill" to="#808080" begin="zoomplus.mouseover" end="zoomplus.mouseout"/>
                        </use>
                        <path d="M-4,0h8M0,-4v8" fill="none" stroke="white" stroke-width="1.5" pointer-events="none"/>
                </g>
                <g id="zoomMin">
                        <use xlink:href="#rim" fill="#404040">
                                <set attributeName="fill" to="#808080" begin="zoomminus.mouseover" end="zoomminus.mouseout"/>
                        </use>
                        <path d="M-4,0h8" fill="none" stroke="white" stroke-width="1.5" pointer-events="none"/>
                </g>
                <g id="dirArrow">
                        <path fill="none" stroke="white" stroke-width="1.5" d="M0,-3.0v7 M-2.5,-0.5L0,-3.0L2.5,-0.5"/>
                </g>
               <g id="resetDef">
                       <use xlink:href="#rim2" fill="#404040">
                               <set attributeName="fill" to="#808080" begin="reset.mouseover" end="reset.mouseout"/>
                       </use>
               </g>
        </defs>

<script type="text/javascript">
var viewWidth = 1022;
var viewHeight = 263;
var sectionId = 'dynsection-0';
</script>
<script xlink:href="svgpan.js"/>
<svg id="graph" class="graph">
<g id="viewport">
<title>Framework/include/QualityControl/TaskInterface.h</title>
<!-- Node1 -->
<g id="node1" class="node"><title>Node1</title>
<polygon fill="#bfbfbf" stroke="black" points="213.5,-224.5 213.5,-254.5 346.5,-254.5 346.5,-224.5 213.5,-224.5"/>
<text text-anchor="start" x="221.5" y="-242.5" font-family="Helvetica,sans-Serif" font-size="10.00">Framework/include/Quality</text>
<text text-anchor="middle" x="280" y="-231.5" font-family="Helvetica,sans-Serif" font-size="10.00">Control/TaskInterface.h</text>
</g>
<!-- Node2 -->
<g id="node2" class="node"><title>Node2</title>
<polygon fill="none" stroke="#bfbfbf" points="0,-168.5 0,-187.5 52,-187.5 52,-168.5 0,-168.5"/>
<text text-anchor="middle" x="26" y="-175.5" font-family="Helvetica,sans-Serif" font-size="10.00">memory</text>
</g>
<!-- Node1&#45;&gt;Node2 -->
<g id="edge1" class="edge"><title>Node1&#45;&gt;Node2</title>
<path fill="none" stroke="midnightblue" d="M217.125,-224.441C175.693,-215.075 119.995,-202.292 62.3729,-188.294"/>
<polygon fill="midnightblue" stroke="midnightblue" points="62.8999,-184.82 52.3555,-185.853 61.2425,-191.621 62.8999,-184.82"/>
</g>
<!-- Node3 -->
<g id="node3" class="node"><title>Node3</title>
<polygon fill="none" stroke="#bfbfbf" points="70.5,-168.5 70.5,-187.5 119.5,-187.5 119.5,-168.5 70.5,-168.5"/>
<text text-anchor="middle" x="95" y="-175.5" font-family="Helvetica,sans-Serif" font-size="10.00">cassert</text>
</g>
<!-- Node1&#45;&gt;Node3 -->
<g id="edge2" class="edge"><title>Node1&#45;&gt;Node3</title>
<path fill="none" stroke="midnightblue" d="M236.158,-224.399C203.422,-213.871 159.321,-199.687 129.177,-189.992"/>
<polygon fill="midnightblue" stroke="midnightblue" points="130.118,-186.618 119.526,-186.888 127.974,-193.282 130.118,-186.618"/>
</g>
<!-- Node4 -->
<g id="node4" class="node"><title>Node4</title>
<polygon fill="none" stroke="#bfbfbf" points="137.5,-168.5 137.5,-187.5 262.5,-187.5 262.5,-168.5 137.5,-168.5"/>
<text text-anchor="middle" x="200" y="-175.5" font-family="Helvetica,sans-Serif" font-size="10.00">Framework/InitContext.h</text>
</g>
<!-- Node1&#45;&gt;Node4 -->
<g id="edge3" class="edge"><title>Node1&#45;&gt;Node4</title>
<path fill="none" stroke="midnightblue" d="M261.041,-224.399C248.577,-215.129 232.303,-203.025 219.693,-193.647"/>
<polygon fill="midnightblue" stroke="midnightblue" points="221.753,-190.817 211.641,-187.658 217.576,-196.434 221.753,-190.817"/>
</g>
<!-- Node5 -->
<g id="node5" class="node"><title>Node5</title>
<polygon fill="none" stroke="#bfbfbf" points="281,-168.5 281,-187.5 441,-187.5 441,-168.5 281,-168.5"/>
<text text-anchor="middle" x="361" y="-175.5" font-family="Helvetica,sans-Serif" font-size="10.00">Framework/ProcessingContext.h</text>
</g>
<!-- Node1&#45;&gt;Node5 -->
<g id="edge4" class="edge"><title>Node1&#45;&gt;Node5</title>
<path fill="none" stroke="midnightblue" d="M299.196,-224.399C311.816,-215.129 328.293,-203.025 341.061,-193.647"/>
<polygon fill="midnightblue" stroke="midnightblue" points="343.227,-196.399 349.214,-187.658 339.082,-190.757 343.227,-196.399"/>
</g>
<!-- Node6 -->
<g id="node6" class="node"><title>Node6</title>
<g id="a_node6"><a xlink:href="Activity_8h.html" target="_top" xlink:title="QualityControl/Activity.h">
<polygon fill="none" stroke="black" points="459.5,-168.5 459.5,-187.5 582.5,-187.5 582.5,-168.5 459.5,-168.5"/>
<text text-anchor="middle" x="521" y="-175.5" font-family="Helvetica,sans-Serif" font-size="10.00">QualityControl/Activity.h</text>
</a>
</g>
</g>
<!-- Node1&#45;&gt;Node6 -->
<g id="edge5" class="edge"><title>Node1&#45;&gt;Node6</title>
<path fill="none" stroke="midnightblue" d="M336.808,-224.475C379.566,-213.918 437.338,-199.655 476.705,-189.936"/>
<polygon fill="midnightblue" stroke="midnightblue" points="477.676,-193.301 486.546,-187.506 475.998,-186.505 477.676,-193.301"/>
</g>
<!-- Node7 -->
<g id="node7" class="node"><title>Node7</title>
<g id="a_node7"><a xlink:href="ObjectsManager_8h.html" target="_top" xlink:title="QualityControl/ObjectsManager.h">
<polygon fill="none" stroke="black" points="600.5,-168.5 600.5,-187.5 761.5,-187.5 761.5,-168.5 600.5,-168.5"/>
<text text-anchor="middle" x="681" y="-175.5" font-family="Helvetica,sans-Serif" font-size="10.00">QualityControl/ObjectsManager.h</text>
</a>
</g>
</g>
<!-- Node1&#45;&gt;Node7 -->
<g id="edge6" class="edge"><title>Node1&#45;&gt;Node7</title>
<path fill="none" stroke="midnightblue" d="M346.667,-228.608C420.581,-217.641 539.154,-200.047 613.429,-189.026"/>
<polygon fill="midnightblue" stroke="midnightblue" points="614.229,-192.446 623.607,-187.516 613.201,-185.522 614.229,-192.446"/>
</g>
<!-- Node8 -->
<g id="node8" class="node"><title>Node8</title>
<g id="a_node8"><a xlink:href="MonitorObject_8h.html" target="_top" xlink:title="QualityControl/MonitorObject.h">
<polygon fill="none" stroke="black" points="298.5,-112.5 298.5,-131.5 449.5,-131.5 449.5,-112.5 298.5,-112.5"/>
<text text-anchor="middle" x="374" y="-119.5" font-family="Helvetica,sans-Serif" font-size="10.00">QualityControl/MonitorObject.h</text>
</a>
</g>
</g>
<!-- Node7&#45;&gt;Node8 -->
<g id="edge7" class="edge"><title>Node7&#45;&gt;Node8</title>
<path fill="none" stroke="midnightblue" d="M632.355,-168.444C578.126,-158.905 490.452,-143.483 432.518,-133.293"/>
<polygon fill="midnightblue" stroke="midnightblue" points="432.873,-129.802 422.417,-131.516 431.66,-136.696 432.873,-129.802"/>
</g>
<!-- Node13 -->
<g id="node13" class="node"><title>Node13</title>
<g id="a_node13"><a xlink:href="Quality_8h.html" target="_top" xlink:title="QualityControl/Quality.h">
<polygon fill="none" stroke="black" points="493.5,-56.5 493.5,-75.5 614.5,-75.5 614.5,-56.5 493.5,-56.5"/>
<text text-anchor="middle" x="554" y="-63.5" font-family="Helvetica,sans-Serif" font-size="10.00">QualityControl/Quality.h</text>
</a>
</g>
</g>
<!-- Node7&#45;&gt;Node13 -->
<g id="edge16" class="edge"><title>Node7&#45;&gt;Node13</title>
<path fill="none" stroke="midnightblue" d="M671.029,-168.375C660.56,-159.319 643.62,-144.662 629,-132 609.438,-115.059 587.015,-95.6237 571.821,-82.4516"/>
<polygon fill="midnightblue" stroke="midnightblue" points="574.037,-79.7398 564.188,-75.8337 569.451,-85.0289 574.037,-79.7398"/>
</g>
<!-- Node15 -->
<g id="node15" class="node"><title>Node15</title>
<polygon fill="none" stroke="#bfbfbf" points="622.5,-0.5 622.5,-19.5 663.5,-19.5 663.5,-0.5 622.5,-0.5"/>
<text text-anchor="middle" x="643" y="-7.5" font-family="Helvetica,sans-Serif" font-size="10.00">string</text>
</g>
<!-- Node7&#45;&gt;Node15 -->
<g id="edge22" class="edge"><title>Node7&#45;&gt;Node15</title>
<path fill="none" stroke="midnightblue" d="M678.957,-168.075C672.975,-141.945 655.41,-65.2106 647.253,-29.577"/>
<polygon fill="midnightblue" stroke="midnightblue" points="650.605,-28.5349 644.961,-19.5681 643.781,-30.097 650.605,-28.5349"/>
</g>
<!-- Node16 -->
<g id="node16" class="node"><title>Node16</title>
<g id="a_node16"><a xlink:href="TaskConfig_8h.html" target="_top" xlink:title="QualityControl/TaskConfig.h">
<polygon fill="none" stroke="black" points="671,-56.5 671,-75.5 811,-75.5 811,-56.5 671,-56.5"/>
<text text-anchor="middle" x="741" y="-63.5" font-family="Helvetica,sans-Serif" font-size="10.00">QualityControl/TaskConfig.h</text>
</a>
</g>
</g>
<!-- Node7&#45;&gt;Node16 -->
<g id="edge17" class="edge"><title>Node7&#45;&gt;Node16</title>
<path fill="none" stroke="midnightblue" d="M682.486,-168.112C684.924,-155.132 690.577,-130.521 701,-112 706.998,-101.342 715.868,-91.0265 723.733,-82.9668"/>
<polygon fill="midnightblue" stroke="midnightblue" points="726.426,-85.2285 731.119,-75.7298 721.526,-80.2287 726.426,-85.2285"/>
</g>
<!-- Node17 -->
<g id="node17" class="node"><title>Node17</title>
<polygon fill="none" stroke="#bfbfbf" points="709.5,-112.5 709.5,-131.5 778.5,-131.5 778.5,-112.5 709.5,-112.5"/>
<text text-anchor="middle" x="744" y="-119.5" font-family="Helvetica,sans-Serif" font-size="10.00">TObjArray.h</text>
</g>
<!-- Node7&#45;&gt;Node17 -->
<g id="edge19" class="edge"><title>Node7&#45;&gt;Node17</title>
<path fill="none" stroke="midnightblue" d="M691.122,-168.324C700.526,-160.263 714.744,-148.077 726.069,-138.369"/>
<polygon fill="midnightblue" stroke="midnightblue" points="728.379,-140.999 733.694,-131.834 723.823,-135.684 728.379,-140.999"/>
</g>
<!-- Node18 -->
<g id="node18" class="node"><title>Node18</title>
<polygon fill="none" stroke="#bfbfbf" points="796.5,-112.5 796.5,-131.5 867.5,-131.5 867.5,-112.5 796.5,-112.5"/>
<text text-anchor="middle" x="832" y="-119.5" font-family="Helvetica,sans-Serif" font-size="10.00">TObjString.h</text>
</g>
<!-- Node7&#45;&gt;Node18 -->
<g id="edge20" class="edge"><title>Node7&#45;&gt;Node18</title>
<path fill="none" stroke="midnightblue" d="M704.926,-168.444C730.219,-159.399 770.302,-145.064 798.68,-134.916"/>
<polygon fill="midnightblue" stroke="midnightblue" points="799.948,-138.179 808.186,-131.516 797.591,-131.588 799.948,-138.179"/>
</g>
<!-- Node19 -->
<g id="node19" class="node"><title>Node19</title>
<polygon fill="none" stroke="#bfbfbf" points="886,-112.5 886,-131.5 1014,-131.5 1014,-112.5 886,-112.5"/>
<text text-anchor="middle" x="950" y="-119.5" font-family="Helvetica,sans-Serif" font-size="10.00">boost/concept_check.hpp</text>
</g>
<!-- Node7&#45;&gt;Node19 -->
<g id="edge21" class="edge"><title>Node7&#45;&gt;Node19</title>
<path fill="none" stroke="midnightblue" d="M723.624,-168.444C770.747,-158.984 846.692,-143.738 897.459,-133.547"/>
<polygon fill="midnightblue" stroke="midnightblue" points="898.46,-136.916 907.576,-131.516 897.082,-130.053 898.46,-136.916"/>
</g>
<!-- Node9 -->
<g id="node9" class="node"><title>Node9</title>
<polygon fill="none" stroke="#bfbfbf" points="195,-56.5 195,-75.5 249,-75.5 249,-56.5 195,-56.5"/>
<text text-anchor="middle" x="222" y="-63.5" font-family="Helvetica,sans-Serif" font-size="10.00">iostream</text>
</g>
<!-- Node8&#45;&gt;Node9 -->
<g id="edge8" class="edge"><title>Node8&#45;&gt;Node9</title>
<path fill="none" stroke="midnightblue" d="M349.915,-112.444C324.455,-103.399 284.106,-89.064 255.541,-78.9158"/>
<polygon fill="midnightblue" stroke="midnightblue" points="256.567,-75.5661 245.972,-75.5164 254.223,-82.1622 256.567,-75.5661"/>
</g>
<!-- Node10 -->
<g id="node10" class="node"><title>Node10</title>
<polygon fill="none" stroke="#bfbfbf" points="267.5,-56.5 267.5,-75.5 302.5,-75.5 302.5,-56.5 267.5,-56.5"/>
<text text-anchor="middle" x="285" y="-63.5" font-family="Helvetica,sans-Serif" font-size="10.00">map</text>
</g>
<!-- Node8&#45;&gt;Node10 -->
<g id="edge9" class="edge"><title>Node8&#45;&gt;Node10</title>
<path fill="none" stroke="midnightblue" d="M359.701,-112.324C345.817,-103.9 324.508,-90.9709 308.196,-81.0741"/>
<polygon fill="midnightblue" stroke="midnightblue" points="309.629,-77.8495 299.264,-75.6545 305.998,-83.8341 309.629,-77.8495"/>
</g>
<!-- Node11 -->
<g id="node11" class="node"><title>Node11</title>
<polygon fill="none" stroke="#bfbfbf" points="376.5,-0.5 376.5,-19.5 435.5,-19.5 435.5,-0.5 376.5,-0.5"/>
<text text-anchor="middle" x="406" y="-7.5" font-family="Helvetica,sans-Serif" font-size="10.00">TObject.h</text>
</g>
<!-- Node8&#45;&gt;Node11 -->
<g id="edge10" class="edge"><title>Node8&#45;&gt;Node11</title>
<path fill="none" stroke="midnightblue" d="M366.436,-112.378C356.309,-99.7286 340.641,-75.526 350,-56 356.253,-42.9542 368.336,-32.4921 379.682,-24.9506"/>
<polygon fill="midnightblue" stroke="midnightblue" points="381.809,-27.7515 388.498,-19.5351 378.146,-21.7869 381.809,-27.7515"/>
</g>
<!-- Node12 -->
<g id="node12" class="node"><title>Node12</title>
<polygon fill="none" stroke="#bfbfbf" points="359,-56.5 359,-75.5 475,-75.5 475,-56.5 359,-56.5"/>
<text text-anchor="middle" x="417" y="-63.5" font-family="Helvetica,sans-Serif" font-size="10.00">Common/Exceptions.h</text>
</g>
<!-- Node8&#45;&gt;Node12 -->
<g id="edge11" class="edge"><title>Node8&#45;&gt;Node12</title>
<path fill="none" stroke="midnightblue" d="M381.101,-112.083C387.237,-104.377 396.27,-93.0333 403.739,-83.6531"/>
<polygon fill="midnightblue" stroke="midnightblue" points="406.54,-85.7542 410.032,-75.7511 401.064,-81.3936 406.54,-85.7542"/>
</g>
<!-- Node8&#45;&gt;Node13 -->
<g id="edge12" class="edge"><title>Node8&#45;&gt;Node13</title>
<path fill="none" stroke="midnightblue" d="M402.522,-112.444C433.066,-103.28 481.708,-88.6876 515.603,-78.5192"/>
<polygon fill="midnightblue" stroke="midnightblue" points="517.039,-81.7424 525.612,-75.5164 515.028,-75.0376 517.039,-81.7424"/>
</g>
<!-- Node13&#45;&gt;Node11 -->
<g id="edge13" class="edge"><title>Node13&#45;&gt;Node11</title>
<path fill="none" stroke="midnightblue" d="M530.549,-56.4435C505.867,-47.4381 466.815,-33.1891 439.023,-23.049"/>
<polygon fill="midnightblue" stroke="midnightblue" points="439.935,-19.6561 429.341,-19.5164 437.536,-26.2321 439.935,-19.6561"/>
</g>
<!-- Node14 -->
<g id="node14" class="node"><title>Node14</title>
<polygon fill="none" stroke="#bfbfbf" points="528,-0.5 528,-19.5 580,-19.5 580,-0.5 528,-0.5"/>
<text text-anchor="middle" x="554" y="-7.5" font-family="Helvetica,sans-Serif" font-size="10.00">ostream</text>
</g>
<!-- Node13&#45;&gt;Node14 -->
<g id="edge14" class="edge"><title>Node13&#45;&gt;Node14</title>
<path fill="none" stroke="midnightblue" d="M554,-56.083C554,-49.0059 554,-38.8611 554,-29.9865"/>
<polygon fill="midnightblue" stroke="midnightblue" points="557.5,-29.751 554,-19.7511 550.5,-29.7511 557.5,-29.751"/>
</g>
<!-- Node13&#45;&gt;Node15 -->
<g id="edge15" class="edge"><title>Node13&#45;&gt;Node15</title>
<path fill="none" stroke="midnightblue" d="M568.299,-56.324C582.183,-47.9002 603.492,-34.9709 619.804,-25.0741"/>
<polygon fill="midnightblue" stroke="midnightblue" points="622.002,-27.8341 628.736,-19.6545 618.371,-21.8495 622.002,-27.8341"/>
</g>
<!-- Node16&#45;&gt;Node15 -->
<g id="edge18" class="edge"><title>Node16&#45;&gt;Node15</title>
<path fill="none" stroke="midnightblue" d="M725.255,-56.324C709.681,-47.7428 685.623,-34.486 667.541,-24.5224"/>
<polygon fill="midnightblue" stroke="midnightblue" points="669.154,-21.4152 658.706,-19.6545 665.776,-27.546 669.154,-21.4152"/>
</g>
</g>
</svg>
        <g id="navigator" transform="translate(0 0)" fill="#404254">
                <rect fill="#f2f5e9" fill-opacity="0.5" stroke="#606060" stroke-width=".5" x="0" y="0" width="60" height="60"/>
                <use id="zoomplus" xlink:href="#zoomPlus" x="17" y="9" onmousedown="handleZoom(evt,'in')"/>
                <use id="zoomminus" xlink:href="#zoomMin" x="42" y="9" onmousedown="handleZoom(evt,'out')"/>
                <use id="reset" xlink:href="#resetDef" x="30" y="36" onmousedown="handleReset()"/>
                <g id="arrowUp" xlink:href="#dirArrow" transform="translate(30 24)" onmousedown="handlePan(0,-1)">
                  <use xlink:href="#rim" fill="#404040">
                        <set attributeName="fill" to="#808080" begin="arrowUp.mouseover" end="arrowUp.mouseout"/>
                  </use>
                  <path fill="none" stroke="white" stroke-width="1.5" d="M0,-3.0v7 M-2.5,-0.5L0,-3.0L2.5,-0.5"/>
                </g>
                <g id="arrowRight" xlink:href="#dirArrow" transform="rotate(90) translate(36 -43)" onmousedown="handlePan(1,0)">
                  <use xlink:href="#rim" fill="#404040">
                        <set attributeName="fill" to="#808080" begin="arrowRight.mouseover" end="arrowRight.mouseout"/>
                  </use>
                  <path fill="none" stroke="white" stroke-width="1.5" d="M0,-3.0v7 M-2.5,-0.5L0,-3.0L2.5,-0.5"/>
                </g>
                <g id="arrowDown" xlink:href="#dirArrow" transform="rotate(180) translate(-30 -48)" onmousedown="handlePan(0,1)">
                  <use xlink:href="#rim" fill="#404040">
                        <set attributeName="fill" to="#808080" begin="arrowDown.mouseover" end="arrowDown.mouseout"/>
                  </use>
                  <path fill="none" stroke="white" stroke-width="1.5" d="M0,-3.0v7 M-2.5,-0.5L0,-3.0L2.5,-0.5"/>
                </g>
                <g id="arrowLeft" xlink:href="#dirArrow" transform="rotate(270) translate(-36 17)" onmousedown="handlePan(-1,0)">
                  <use xlink:href="#rim" fill="#404040">
                        <set attributeName="fill" to="#808080" begin="arrowLeft.mouseover" end="arrowLeft.mouseout"/>
                  </use>
                  <path fill="none" stroke="white" stroke-width="1.5" d="M0,-3.0v7 M-2.5,-0.5L0,-3.0L2.5,-0.5"/>
                </g>
        </g>
        <svg viewBox="0 0 15 15" width="100%" height="30px" preserveAspectRatio="xMaxYMin meet">
         <g id="arrow_out" transform="scale(0.3 0.3)">
          <a xlink:href="TaskInterface_8h__incl_org.svg" target="_base">
           <rect id="button" ry="5" rx="5" y="6" x="6" height="38" width="38"
                fill="#f2f5e9" fill-opacity="0.5" stroke="#606060" stroke-width="1.0"/>
           <path id="arrow"
             d="M 11.500037,31.436501 C 11.940474,20.09759 22.043105,11.32322 32.158766,21.979434 L 37.068811,17.246167 C 37.068811,17.246167 37.088388,32 37.088388,32 L 22.160133,31.978069 C 22.160133,31.978069 26.997745,27.140456 26.997745,27.140456 C 18.528582,18.264221 13.291696,25.230495 11.500037,31.436501 z"
             style="fill:#404040;"/>
          </a>
         </g>
        </svg>
</svg>
