<?xml version="1.0" encoding="UTF-8" standalone="no"?>
<!DOCTYPE svg PUBLIC "-//W3C//DTD SVG 1.1//EN"
 "http://www.w3.org/Graphics/SVG/1.1/DTD/svg11.dtd">
<!-- Generated by graphviz version 2.38.0 (20140413.2041)
 -->
<!-- Title: Framework/include/QualityControl/TaskFactory.h Pages: 1 -->
<!--zoomable 375 -->
<svg id="main" version="1.1" xmlns="http://www.w3.org/2000/svg" xmlns:xlink="http://www.w3.org/1999/xlink" xml:space="preserve" onload="init(evt)">
<style type="text/css"><![CDATA[
.edge:hover path { stroke: red; }
.edge:hover polygon { stroke: red; fill: red; }
]]></style>
<script type="text/javascript"><![CDATA[
var edges = document.getElementsByTagName('g');
if (edges && edges.length) {
  for (var i=0;i<edges.length;i++) {
    if (edges[i].id.substr(0,4)=='edge') {
      edges[i].setAttribute('class','edge');
    }
  }
}
]]></script>
        <defs>
                <circle id="rim" cx="0" cy="0" r="7"/>
                <circle id="rim2" cx="0" cy="0" r="3.5"/>
                <g id="zoomPlus">
                        <use xlink:href="#rim" fill="#404040">
                                <set attributeName="fill" to="#808080" begin="zoomplus.mouseover" end="zoomplus.mouseout"/>
                        </use>
                        <path d="M-4,0h8M0,-4v8" fill="none" stroke="white" stroke-width="1.5" pointer-events="none"/>
                </g>
                <g id="zoomMin">
                        <use xlink:href="#rim" fill="#404040">
                                <set attributeName="fill" to="#808080" begin="zoomminus.mouseover" end="zoomminus.mouseout"/>
                        </use>
                        <path d="M-4,0h8" fill="none" stroke="white" stroke-width="1.5" pointer-events="none"/>
                </g>
                <g id="dirArrow">
                        <path fill="none" stroke="white" stroke-width="1.5" d="M0,-3.0v7 M-2.5,-0.5L0,-3.0L2.5,-0.5"/>
                </g>
               <g id="resetDef">
                       <use xlink:href="#rim2" fill="#404040">
                               <set attributeName="fill" to="#808080" begin="reset.mouseover" end="reset.mouseout"/>
                       </use>
               </g>
        </defs>

<script type="text/javascript">
var viewWidth = 1160;
var viewHeight = 375;
var sectionId = 'dynsection-0';
</script>
<script xlink:href="svgpan.js"/>
<svg id="graph" class="graph">
<g id="viewport">
<title>Framework/include/QualityControl/TaskFactory.h</title>
<!-- Node1 -->
<g id="node1" class="node"><title>Node1</title>
<polygon fill="#bfbfbf" stroke="black" points="821.5,-336.5 821.5,-366.5 954.5,-366.5 954.5,-336.5 821.5,-336.5"/>
<text text-anchor="start" x="829.5" y="-354.5" font-family="Helvetica,sans-Serif" font-size="10.00">Framework/include/Quality</text>
<text text-anchor="middle" x="888" y="-343.5" font-family="Helvetica,sans-Serif" font-size="10.00">Control/TaskFactory.h</text>
</g>
<!-- Node2 -->
<g id="node2" class="node"><title>Node2</title>
<polygon fill="none" stroke="#bfbfbf" points="81,-56.5 81,-75.5 135,-75.5 135,-56.5 81,-56.5"/>
<text text-anchor="middle" x="108" y="-63.5" font-family="Helvetica,sans-Serif" font-size="10.00">iostream</text>
</g>
<!-- Node1&#45;&gt;Node2 -->
<g id="edge1" class="edge"><title>Node1&#45;&gt;Node2</title>
<path fill="none" stroke="midnightblue" d="M821.438,-348.975C663.951,-344.883 272.166,-331.746 145,-300 76.4795,-282.894 0,-305.623 0,-235 0,-235 0,-235 0,-177 0,-131.206 48.2493,-97.486 80.2487,-80.1584"/>
<polygon fill="midnightblue" stroke="midnightblue" points="81.9302,-83.229 89.1878,-75.5104 78.7009,-77.0184 81.9302,-83.229"/>
</g>
<!-- Node3 -->
<g id="node3" class="node"><title>Node3</title>
<polygon fill="none" stroke="#bfbfbf" points="28,-168.5 28,-187.5 80,-187.5 80,-168.5 28,-168.5"/>
<text text-anchor="middle" x="54" y="-175.5" font-family="Helvetica,sans-Serif" font-size="10.00">memory</text>
</g>
<!-- Node1&#45;&gt;Node3 -->
<g id="edge2" class="edge"><title>Node1&#45;&gt;Node3</title>
<path fill="none" stroke="midnightblue" d="M821.461,-348.358C675.765,-343.2 332.566,-328.364 220,-300 160.576,-285.026 140.125,-284.348 94,-244 79.2335,-231.083 68.1676,-211.365 61.4611,-197.033"/>
<polygon fill="midnightblue" stroke="midnightblue" points="64.5938,-195.462 57.3577,-187.723 58.1885,-198.286 64.5938,-195.462"/>
</g>
<!-- Node4 -->
<g id="node4" class="node"><title>Node4</title>
<polygon fill="none" stroke="#bfbfbf" points="935,-280.5 935,-299.5 991,-299.5 991,-280.5 935,-280.5"/>
<text text-anchor="middle" x="963" y="-287.5" font-family="Helvetica,sans-Serif" font-size="10.00">TClass.h</text>
</g>
<!-- Node1&#45;&gt;Node4 -->
<g id="edge3" class="edge"><title>Node1&#45;&gt;Node4</title>
<path fill="none" stroke="midnightblue" d="M905.774,-336.399C917.346,-327.218 932.423,-315.258 944.196,-305.918"/>
<polygon fill="midnightblue" stroke="midnightblue" points="946.428,-308.615 952.087,-299.658 942.077,-303.131 946.428,-308.615"/>
</g>
<!-- Node5 -->
<g id="node5" class="node"><title>Node5</title>
<polygon fill="none" stroke="#bfbfbf" points="1009.5,-280.5 1009.5,-299.5 1068.5,-299.5 1068.5,-280.5 1009.5,-280.5"/>
<text text-anchor="middle" x="1039" y="-287.5" font-family="Helvetica,sans-Serif" font-size="10.00">TROOT.h</text>
</g>
<!-- Node1&#45;&gt;Node5 -->
<g id="edge4" class="edge"><title>Node1&#45;&gt;Node5</title>
<path fill="none" stroke="midnightblue" d="M923.785,-336.399C949.233,-326.372 983.097,-313.028 1007.52,-303.405"/>
<polygon fill="midnightblue" stroke="midnightblue" points="1009.01,-306.58 1017.03,-299.658 1006.44,-300.068 1009.01,-306.58"/>
</g>
<!-- Node6 -->
<g id="node6" class="node"><title>Node6</title>
<polygon fill="none" stroke="#bfbfbf" points="1086.5,-280.5 1086.5,-299.5 1151.5,-299.5 1151.5,-280.5 1086.5,-280.5"/>
<text text-anchor="middle" x="1119" y="-287.5" font-family="Helvetica,sans-Serif" font-size="10.00">TSystem.h</text>
</g>
<!-- Node1&#45;&gt;Node6 -->
<g id="edge5" class="edge"><title>Node1&#45;&gt;Node6</title>
<path fill="none" stroke="midnightblue" d="M942.451,-336.475C983.296,-325.954 1038.43,-311.752 1076.16,-302.035"/>
<polygon fill="midnightblue" stroke="midnightblue" points="1077.5,-305.304 1086.31,-299.42 1075.75,-298.525 1077.5,-305.304"/>
</g>
<!-- Node7 -->
<g id="node7" class="node"><title>Node7</title>
<g id="a_node7"><a xlink:href="QcInfoLogger_8h.html" target="_top" xlink:title="QualityControl/QcInfoLogger.h">
<polygon fill="none" stroke="black" points="229.5,-280.5 229.5,-299.5 378.5,-299.5 378.5,-280.5 229.5,-280.5"/>
<text text-anchor="middle" x="304" y="-287.5" font-family="Helvetica,sans-Serif" font-size="10.00">QualityControl/QcInfoLogger.h</text>
</a>
</g>
</g>
<!-- Node1&#45;&gt;Node7 -->
<g id="edge6" class="edge"><title>Node1&#45;&gt;Node7</title>
<path fill="none" stroke="midnightblue" d="M821.292,-343.704C714.566,-332.83 505.566,-311.536 388.533,-299.613"/>
<polygon fill="midnightblue" stroke="midnightblue" points="388.842,-296.126 378.539,-298.594 388.133,-303.09 388.842,-296.126"/>
</g>
<!-- Node17 -->
<g id="node17" class="node"><title>Node17</title>
<polygon fill="none" stroke="#bfbfbf" points="775,-56.5 775,-75.5 891,-75.5 891,-56.5 775,-56.5"/>
<text text-anchor="middle" x="833" y="-63.5" font-family="Helvetica,sans-Serif" font-size="10.00">Common/Exceptions.h</text>
</g>
<!-- Node1&#45;&gt;Node17 -->
<g id="edge33" class="edge"><title>Node1&#45;&gt;Node17</title>
<path fill="none" stroke="midnightblue" d="M896.169,-336.294C917.467,-297.194 969.955,-185.991 924,-112 914.283,-96.3554 897.338,-85.9849 880.684,-79.1896"/>
<polygon fill="midnightblue" stroke="midnightblue" points="881.561,-75.7823 870.968,-75.5889 879.129,-82.346 881.561,-75.7823"/>
</g>
<!-- Node21 -->
<g id="node21" class="node"><title>Node21</title>
<g id="a_node21"><a xlink:href="TaskConfig_8h.html" target="_top" xlink:title="QualityControl/TaskConfig.h">
<polygon fill="none" stroke="black" points="775,-112.5 775,-131.5 915,-131.5 915,-112.5 775,-112.5"/>
<text text-anchor="middle" x="845" y="-119.5" font-family="Helvetica,sans-Serif" font-size="10.00">QualityControl/TaskConfig.h</text>
</a>
</g>
</g>
<!-- Node1&#45;&gt;Node21 -->
<g id="edge32" class="edge"><title>Node1&#45;&gt;Node21</title>
<path fill="none" stroke="midnightblue" d="M885.31,-336.269C877.868,-296.895 857,-186.487 848.585,-141.965"/>
<polygon fill="midnightblue" stroke="midnightblue" points="851.984,-141.103 846.687,-131.927 845.106,-142.403 851.984,-141.103"/>
</g>
<!-- Node7&#45;&gt;Node2 -->
<g id="edge31" class="edge"><title>Node7&#45;&gt;Node2</title>
<path fill="none" stroke="midnightblue" d="M253.556,-280.428C226,-273.878 192.415,-262.685 167,-244 116.134,-206.604 108.522,-123.552 107.786,-86.041"/>
<polygon fill="midnightblue" stroke="midnightblue" points="111.284,-85.5634 107.742,-75.5781 104.284,-85.5926 111.284,-85.5634"/>
</g>
<!-- Node8 -->
<g id="node8" class="node"><title>Node8</title>
<g id="a_node8"><a xlink:href="TaskInterface_8h.html" target="_top" xlink:title="TaskInterface.h">
<polygon fill="none" stroke="black" points="324.5,-224.5 324.5,-243.5 409.5,-243.5 409.5,-224.5 324.5,-224.5"/>
<text text-anchor="middle" x="367" y="-231.5" font-family="Helvetica,sans-Serif" font-size="10.00">TaskInterface.h</text>
</a>
</g>
</g>
<!-- Node7&#45;&gt;Node8 -->
<g id="edge7" class="edge"><title>Node7&#45;&gt;Node8</title>
<path fill="none" stroke="midnightblue" d="M314.122,-280.324C323.526,-272.263 337.744,-260.077 349.069,-250.369"/>
<polygon fill="midnightblue" stroke="midnightblue" points="351.379,-252.999 356.694,-243.834 346.823,-247.684 351.379,-252.999"/>
</g>
<!-- Node25 -->
<g id="node25" class="node"><title>Node25</title>
<polygon fill="none" stroke="#bfbfbf" points="176,-224.5 176,-243.5 306,-243.5 306,-224.5 176,-224.5"/>
<text text-anchor="middle" x="241" y="-231.5" font-family="Helvetica,sans-Serif" font-size="10.00">InfoLogger/InfoLogger.hxx</text>
</g>
<!-- Node7&#45;&gt;Node25 -->
<g id="edge30" class="edge"><title>Node7&#45;&gt;Node25</title>
<path fill="none" stroke="midnightblue" d="M293.878,-280.324C284.474,-272.263 270.256,-260.077 258.931,-250.369"/>
<polygon fill="midnightblue" stroke="midnightblue" points="261.177,-247.684 251.306,-243.834 256.621,-252.999 261.177,-247.684"/>
</g>
<!-- Node8&#45;&gt;Node3 -->
<g id="edge8" class="edge"><title>Node8&#45;&gt;Node3</title>
<path fill="none" stroke="midnightblue" d="M324.433,-225.63C321.241,-225.078 318.07,-224.53 315,-224 234.839,-210.153 140.823,-193.953 90.3848,-185.266"/>
<polygon fill="midnightblue" stroke="midnightblue" points="90.753,-181.778 80.304,-183.529 89.5648,-188.676 90.753,-181.778"/>
</g>
<!-- Node9 -->
<g id="node9" class="node"><title>Node9</title>
<polygon fill="none" stroke="#bfbfbf" points="277.5,-168.5 277.5,-187.5 326.5,-187.5 326.5,-168.5 277.5,-168.5"/>
<text text-anchor="middle" x="302" y="-175.5" font-family="Helvetica,sans-Serif" font-size="10.00">cassert</text>
</g>
<!-- Node8&#45;&gt;Node9 -->
<g id="edge9" class="edge"><title>Node8&#45;&gt;Node9</title>
<path fill="none" stroke="midnightblue" d="M356.557,-224.324C346.854,-216.263 332.185,-204.077 320.5,-194.369"/>
<polygon fill="midnightblue" stroke="midnightblue" points="322.562,-191.532 312.633,-187.834 318.089,-196.916 322.562,-191.532"/>
</g>
<!-- Node10 -->
<g id="node10" class="node"><title>Node10</title>
<polygon fill="none" stroke="#bfbfbf" points="344.5,-168.5 344.5,-187.5 469.5,-187.5 469.5,-168.5 344.5,-168.5"/>
<text text-anchor="middle" x="407" y="-175.5" font-family="Helvetica,sans-Serif" font-size="10.00">Framework/InitContext.h</text>
</g>
<!-- Node8&#45;&gt;Node10 -->
<g id="edge10" class="edge"><title>Node8&#45;&gt;Node10</title>
<path fill="none" stroke="midnightblue" d="M373.605,-224.083C379.255,-216.455 387.545,-205.264 394.451,-195.941"/>
<polygon fill="midnightblue" stroke="midnightblue" points="397.378,-197.87 400.518,-187.751 391.753,-193.703 397.378,-197.87"/>
</g>
<!-- Node11 -->
<g id="node11" class="node"><title>Node11</title>
<polygon fill="none" stroke="#bfbfbf" points="488,-168.5 488,-187.5 648,-187.5 648,-168.5 488,-168.5"/>
<text text-anchor="middle" x="568" y="-175.5" font-family="Helvetica,sans-Serif" font-size="10.00">Framework/ProcessingContext.h</text>
</g>
<!-- Node8&#45;&gt;Node11 -->
<g id="edge11" class="edge"><title>Node8&#45;&gt;Node11</title>
<path fill="none" stroke="midnightblue" d="M398.849,-224.444C433.398,-215.162 488.682,-200.309 526.583,-190.127"/>
<polygon fill="midnightblue" stroke="midnightblue" points="527.551,-193.491 536.3,-187.516 525.734,-186.731 527.551,-193.491"/>
</g>
<!-- Node12 -->
<g id="node12" class="node"><title>Node12</title>
<g id="a_node12"><a xlink:href="Activity_8h.html" target="_top" xlink:title="QualityControl/Activity.h">
<polygon fill="none" stroke="black" points="136.5,-168.5 136.5,-187.5 259.5,-187.5 259.5,-168.5 136.5,-168.5"/>
<text text-anchor="middle" x="198" y="-175.5" font-family="Helvetica,sans-Serif" font-size="10.00">QualityControl/Activity.h</text>
</a>
</g>
</g>
<!-- Node8&#45;&gt;Node12 -->
<g id="edge12" class="edge"><title>Node8&#45;&gt;Node12</title>
<path fill="none" stroke="midnightblue" d="M340.221,-224.444C311.667,-215.32 266.267,-200.813 234.463,-190.651"/>
<polygon fill="midnightblue" stroke="midnightblue" points="235.244,-187.226 224.653,-187.516 233.114,-193.894 235.244,-187.226"/>
</g>
<!-- Node13 -->
<g id="node13" class="node"><title>Node13</title>
<g id="a_node13"><a xlink:href="ObjectsManager_8h.html" target="_top" xlink:title="QualityControl/ObjectsManager.h">
<polygon fill="none" stroke="black" points="666.5,-168.5 666.5,-187.5 827.5,-187.5 827.5,-168.5 666.5,-168.5"/>
<text text-anchor="middle" x="747" y="-175.5" font-family="Helvetica,sans-Serif" font-size="10.00">QualityControl/ObjectsManager.h</text>
</a>
</g>
</g>
<!-- Node8&#45;&gt;Node13 -->
<g id="edge13" class="edge"><title>Node8&#45;&gt;Node13</title>
<path fill="none" stroke="midnightblue" d="M409.852,-226.91C474.776,-217.685 598.761,-200.066 676.931,-188.957"/>
<polygon fill="midnightblue" stroke="midnightblue" points="677.765,-192.374 687.173,-187.502 676.78,-185.443 677.765,-192.374"/>
</g>
<!-- Node14 -->
<g id="node14" class="node"><title>Node14</title>
<g id="a_node14"><a xlink:href="MonitorObject_8h.html" target="_top" xlink:title="QualityControl/MonitorObject.h">
<polygon fill="none" stroke="black" points="529.5,-112.5 529.5,-131.5 680.5,-131.5 680.5,-112.5 529.5,-112.5"/>
<text text-anchor="middle" x="605" y="-119.5" font-family="Helvetica,sans-Serif" font-size="10.00">QualityControl/MonitorObject.h</text>
</a>
</g>
</g>
<!-- Node13&#45;&gt;Node14 -->
<g id="edge14" class="edge"><title>Node13&#45;&gt;Node14</title>
<path fill="none" stroke="midnightblue" d="M724.5,-168.444C700.923,-159.478 663.678,-145.314 637.036,-135.183"/>
<polygon fill="midnightblue" stroke="midnightblue" points="637.986,-131.8 627.395,-131.516 635.498,-138.342 637.986,-131.8"/>
</g>
<!-- Node18 -->
<g id="node18" class="node"><title>Node18</title>
<g id="a_node18"><a xlink:href="Quality_8h.html" target="_top" xlink:title="QualityControl/Quality.h">
<polygon fill="none" stroke="black" points="597.5,-56.5 597.5,-75.5 718.5,-75.5 718.5,-56.5 597.5,-56.5"/>
<text text-anchor="middle" x="658" y="-63.5" font-family="Helvetica,sans-Serif" font-size="10.00">QualityControl/Quality.h</text>
</a>
</g>
</g>
<!-- Node13&#45;&gt;Node18 -->
<g id="edge23" class="edge"><title>Node13&#45;&gt;Node18</title>
<path fill="none" stroke="midnightblue" d="M740.016,-168.368C725.264,-150.135 690.708,-107.426 671.492,-83.6752"/>
<polygon fill="midnightblue" stroke="midnightblue" points="673.962,-81.164 664.951,-75.5914 668.52,-85.567 673.962,-81.164"/>
</g>
<!-- Node20 -->
<g id="node20" class="node"><title>Node20</title>
<polygon fill="none" stroke="#bfbfbf" points="726.5,-0.5 726.5,-19.5 767.5,-19.5 767.5,-0.5 726.5,-0.5"/>
<text text-anchor="middle" x="747" y="-7.5" font-family="Helvetica,sans-Serif" font-size="10.00">string</text>
</g>
<!-- Node13&#45;&gt;Node20 -->
<g id="edge29" class="edge"><title>Node13&#45;&gt;Node20</title>
<path fill="none" stroke="midnightblue" d="M747,-168.075C747,-141.945 747,-65.2106 747,-29.577"/>
<polygon fill="midnightblue" stroke="midnightblue" points="750.5,-29.5681 747,-19.5681 743.5,-29.5681 750.5,-29.5681"/>
</g>
<!-- Node13&#45;&gt;Node21 -->
<g id="edge24" class="edge"><title>Node13&#45;&gt;Node21</title>
<path fill="none" stroke="midnightblue" d="M762.745,-168.324C778.319,-159.743 802.377,-146.486 820.459,-136.522"/>
<polygon fill="midnightblue" stroke="midnightblue" points="822.224,-139.546 829.294,-131.655 818.846,-133.415 822.224,-139.546"/>
</g>
<!-- Node22 -->
<g id="node22" class="node"><title>Node22</title>
<polygon fill="none" stroke="#bfbfbf" points="206.5,-112.5 206.5,-131.5 275.5,-131.5 275.5,-112.5 206.5,-112.5"/>
<text text-anchor="middle" x="241" y="-119.5" font-family="Helvetica,sans-Serif" font-size="10.00">TObjArray.h</text>
</g>
<!-- Node13&#45;&gt;Node22 -->
<g id="edge26" class="edge"><title>Node13&#45;&gt;Node22</title>
<path fill="none" stroke="midnightblue" d="M666.048,-168.892C662.994,-168.59 659.969,-168.292 657,-168 494.487,-152.032 450.357,-156.896 285.662,-132.116"/>
<polygon fill="midnightblue" stroke="midnightblue" points="286.086,-128.64 275.674,-130.599 285.035,-135.561 286.086,-128.64"/>
</g>
<!-- Node23 -->
<g id="node23" class="node"><title>Node23</title>
<polygon fill="none" stroke="#bfbfbf" points="293.5,-112.5 293.5,-131.5 364.5,-131.5 364.5,-112.5 293.5,-112.5"/>
<text text-anchor="middle" x="329" y="-119.5" font-family="Helvetica,sans-Serif" font-size="10.00">TObjString.h</text>
</g>
<!-- Node13&#45;&gt;Node23 -->
<g id="edge27" class="edge"><title>Node13&#45;&gt;Node23</title>
<path fill="none" stroke="midnightblue" d="M670.365,-168.463C582.789,-158.589 443.723,-142.52 374.851,-131.998"/>
<polygon fill="midnightblue" stroke="midnightblue" points="375.238,-128.516 364.816,-130.423 374.153,-135.431 375.238,-128.516"/>
</g>
<!-- Node24 -->
<g id="node24" class="node"><title>Node24</title>
<polygon fill="none" stroke="#bfbfbf" points="383,-112.5 383,-131.5 511,-131.5 511,-112.5 383,-112.5"/>
<text text-anchor="middle" x="447" y="-119.5" font-family="Helvetica,sans-Serif" font-size="10.00">boost/concept_check.hpp</text>
</g>
<!-- Node13&#45;&gt;Node24 -->
<g id="edge28" class="edge"><title>Node13&#45;&gt;Node24</title>
<path fill="none" stroke="midnightblue" d="M699.464,-168.444C646.472,-158.905 560.797,-143.483 504.183,-133.293"/>
<polygon fill="midnightblue" stroke="midnightblue" points="504.775,-129.843 494.313,-131.516 503.535,-136.733 504.775,-129.843"/>
</g>
<!-- Node14&#45;&gt;Node2 -->
<g id="edge15" class="edge"><title>Node14&#45;&gt;Node2</title>
<path fill="none" stroke="midnightblue" d="M529.246,-112.769C421.191,-101.029 226.887,-79.9173 145.483,-71.0726"/>
<polygon fill="midnightblue" stroke="midnightblue" points="145.539,-67.5581 135.219,-69.9574 144.782,-74.5172 145.539,-67.5581"/>
</g>
<!-- Node15 -->
<g id="node15" class="node"><title>Node15</title>
<polygon fill="none" stroke="#bfbfbf" points="505.5,-56.5 505.5,-75.5 540.5,-75.5 540.5,-56.5 505.5,-56.5"/>
<text text-anchor="middle" x="523" y="-63.5" font-family="Helvetica,sans-Serif" font-size="10.00">map</text>
</g>
<!-- Node14&#45;&gt;Node15 -->
<g id="edge16" class="edge"><title>Node14&#45;&gt;Node15</title>
<path fill="none" stroke="midnightblue" d="M591.825,-112.324C579.153,-103.979 559.767,-91.2122 544.794,-81.3524"/>
<polygon fill="midnightblue" stroke="midnightblue" points="546.419,-78.2313 536.142,-75.6545 542.569,-84.0776 546.419,-78.2313"/>
</g>
<!-- Node16 -->
<g id="node16" class="node"><title>Node16</title>
<polygon fill="none" stroke="#bfbfbf" points="546.5,-0.5 546.5,-19.5 605.5,-19.5 605.5,-0.5 546.5,-0.5"/>
<text text-anchor="middle" x="576" y="-7.5" font-family="Helvetica,sans-Serif" font-size="10.00">TObject.h</text>
</g>
<!-- Node14&#45;&gt;Node16 -->
<g id="edge17" class="edge"><title>Node14&#45;&gt;Node16</title>
<path fill="none" stroke="midnightblue" d="M601.135,-112.192C597.332,-103.232 591.588,-88.8714 588,-76 583.71,-60.6109 580.537,-42.7364 578.535,-29.6309"/>
<polygon fill="midnightblue" stroke="midnightblue" points="581.969,-28.9224 577.078,-19.524 575.041,-29.921 581.969,-28.9224"/>
</g>
<!-- Node14&#45;&gt;Node17 -->
<g id="edge18" class="edge"><title>Node14&#45;&gt;Node17</title>
<path fill="none" stroke="midnightblue" d="M641.127,-112.444C680.651,-103.083 744.097,-88.0561 787.113,-77.868"/>
<polygon fill="midnightblue" stroke="midnightblue" points="788.118,-81.2269 797.042,-75.5164 786.504,-74.4154 788.118,-81.2269"/>
</g>
<!-- Node14&#45;&gt;Node18 -->
<g id="edge19" class="edge"><title>Node14&#45;&gt;Node18</title>
<path fill="none" stroke="midnightblue" d="M613.752,-112.083C621.47,-104.22 632.905,-92.5688 642.217,-83.0813"/>
<polygon fill="midnightblue" stroke="midnightblue" points="644.904,-85.3396 649.411,-75.7511 639.908,-80.4363 644.904,-85.3396"/>
</g>
<!-- Node18&#45;&gt;Node16 -->
<g id="edge20" class="edge"><title>Node18&#45;&gt;Node16</title>
<path fill="none" stroke="midnightblue" d="M644.825,-56.324C632.153,-47.979 612.767,-35.2122 597.794,-25.3524"/>
<polygon fill="midnightblue" stroke="midnightblue" points="599.419,-22.2313 589.142,-19.6545 595.569,-28.0776 599.419,-22.2313"/>
</g>
<!-- Node19 -->
<g id="node19" class="node"><title>Node19</title>
<polygon fill="none" stroke="#bfbfbf" points="632,-0.5 632,-19.5 684,-19.5 684,-0.5 632,-0.5"/>
<text text-anchor="middle" x="658" y="-7.5" font-family="Helvetica,sans-Serif" font-size="10.00">ostream</text>
</g>
<!-- Node18&#45;&gt;Node19 -->
<g id="edge21" class="edge"><title>Node18&#45;&gt;Node19</title>
<path fill="none" stroke="midnightblue" d="M658,-56.083C658,-49.0059 658,-38.8611 658,-29.9865"/>
<polygon fill="midnightblue" stroke="midnightblue" points="661.5,-29.751 658,-19.7511 654.5,-29.7511 661.5,-29.751"/>
</g>
<!-- Node18&#45;&gt;Node20 -->
<g id="edge22" class="edge"><title>Node18&#45;&gt;Node20</title>
<path fill="none" stroke="midnightblue" d="M672.299,-56.324C686.183,-47.9002 707.492,-34.9709 723.804,-25.0741"/>
<polygon fill="midnightblue" stroke="midnightblue" points="726.002,-27.8341 732.736,-19.6545 722.371,-21.8495 726.002,-27.8341"/>
</g>
<!-- Node21&#45;&gt;Node20 -->
<g id="edge25" class="edge"><title>Node21&#45;&gt;Node20</title>
<path fill="none" stroke="midnightblue" d="M861.597,-112.442C883.016,-100.263 915.764,-77.068 900,-56 885.344,-36.4129 818.021,-22.4253 777.723,-15.6396"/>
<polygon fill="midnightblue" stroke="midnightblue" points="778.057,-12.1479 767.624,-13.9941 776.931,-19.0568 778.057,-12.1479"/>
</g>
</g>
</svg>
        <g id="navigator" transform="translate(0 0)" fill="#404254">
                <rect fill="#f2f5e9" fill-opacity="0.5" stroke="#606060" stroke-width=".5" x="0" y="0" width="60" height="60"/>
                <use id="zoomplus" xlink:href="#zoomPlus" x="17" y="9" onmousedown="handleZoom(evt,'in')"/>
                <use id="zoomminus" xlink:href="#zoomMin" x="42" y="9" onmousedown="handleZoom(evt,'out')"/>
                <use id="reset" xlink:href="#resetDef" x="30" y="36" onmousedown="handleReset()"/>
                <g id="arrowUp" xlink:href="#dirArrow" transform="translate(30 24)" onmousedown="handlePan(0,-1)">
                  <use xlink:href="#rim" fill="#404040">
                        <set attributeName="fill" to="#808080" begin="arrowUp.mouseover" end="arrowUp.mouseout"/>
                  </use>
                  <path fill="none" stroke="white" stroke-width="1.5" d="M0,-3.0v7 M-2.5,-0.5L0,-3.0L2.5,-0.5"/>
                </g>
                <g id="arrowRight" xlink:href="#dirArrow" transform="rotate(90) translate(36 -43)" onmousedown="handlePan(1,0)">
                  <use xlink:href="#rim" fill="#404040">
                        <set attributeName="fill" to="#808080" begin="arrowRight.mouseover" end="arrowRight.mouseout"/>
                  </use>
                  <path fill="none" stroke="white" stroke-width="1.5" d="M0,-3.0v7 M-2.5,-0.5L0,-3.0L2.5,-0.5"/>
                </g>
                <g id="arrowDown" xlink:href="#dirArrow" transform="rotate(180) translate(-30 -48)" onmousedown="handlePan(0,1)">
                  <use xlink:href="#rim" fill="#404040">
                        <set attributeName="fill" to="#808080" begin="arrowDown.mouseover" end="arrowDown.mouseout"/>
                  </use>
                  <path fill="none" stroke="white" stroke-width="1.5" d="M0,-3.0v7 M-2.5,-0.5L0,-3.0L2.5,-0.5"/>
                </g>
                <g id="arrowLeft" xlink:href="#dirArrow" transform="rotate(270) translate(-36 17)" onmousedown="handlePan(-1,0)">
                  <use xlink:href="#rim" fill="#404040">
                        <set attributeName="fill" to="#808080" begin="arrowLeft.mouseover" end="arrowLeft.mouseout"/>
                  </use>
                  <path fill="none" stroke="white" stroke-width="1.5" d="M0,-3.0v7 M-2.5,-0.5L0,-3.0L2.5,-0.5"/>
                </g>
        </g>
        <svg viewBox="0 0 15 15" width="100%" height="30px" preserveAspectRatio="xMaxYMin meet">
         <g id="arrow_out" transform="scale(0.3 0.3)">
          <a xlink:href="TaskFactory_8h__incl_org.svg" target="_base">
           <rect id="button" ry="5" rx="5" y="6" x="6" height="38" width="38"
                fill="#f2f5e9" fill-opacity="0.5" stroke="#606060" stroke-width="1.0"/>
           <path id="arrow"
             d="M 11.500037,31.436501 C 11.940474,20.09759 22.043105,11.32322 32.158766,21.979434 L 37.068811,17.246167 C 37.068811,17.246167 37.088388,32 37.088388,32 L 22.160133,31.978069 C 22.160133,31.978069 26.997745,27.140456 26.997745,27.140456 C 18.528582,18.264221 13.291696,25.230495 11.500037,31.436501 z"
             style="fill:#404040;"/>
          </a>
         </g>
        </svg>
</svg>
