<?xml version="1.0" encoding="UTF-8" standalone="no"?>
<!DOCTYPE svg PUBLIC "-//W3C//DTD SVG 1.1//EN"
 "http://www.w3.org/Graphics/SVG/1.1/DTD/svg11.dtd">
<!-- Generated by graphviz version 2.38.0 (20140413.2041)
 -->
<!-- Title: Framework/src/TaskRunnerFactory.cxx Pages: 1 -->
<svg width="1931pt" height="397pt"
 viewBox="0.00 0.00 1931.09 397.00" xmlns="http://www.w3.org/2000/svg" xmlns:xlink="http://www.w3.org/1999/xlink">
<g id="graph0" class="graph" transform="scale(1 1) rotate(0) translate(4 393)">
<title>Framework/src/TaskRunnerFactory.cxx</title>
<!-- Node1 -->
<g id="node1" class="node"><title>Node1</title>
<polygon fill="#bfbfbf" stroke="black" points="184.5,-358.5 184.5,-388.5 322.5,-388.5 322.5,-358.5 184.5,-358.5"/>
<text text-anchor="start" x="192.5" y="-376.5" font-family="Helvetica,sans-Serif" font-size="10.00">Framework/src/TaskRunner</text>
<text text-anchor="middle" x="253.5" y="-365.5" font-family="Helvetica,sans-Serif" font-size="10.00">Factory.cxx</text>
</g>
<!-- Node2 -->
<g id="node2" class="node"><title>Node2</title>
<polygon fill="none" stroke="#bfbfbf" points="37.5,-297 37.5,-316 167.5,-316 167.5,-297 37.5,-297"/>
<text text-anchor="middle" x="102.5" y="-304" font-family="Helvetica,sans-Serif" font-size="10.00">Framework/DeviceSpec.h</text>
</g>
<!-- Node1&#45;&gt;Node2 -->
<g id="edge1" class="edge"><title>Node1&#45;&gt;Node2</title>
<path fill="none" stroke="midnightblue" d="M220.735,-358.396C194.241,-346.991 157.277,-331.079 131.765,-320.098"/>
<polygon fill="midnightblue" stroke="midnightblue" points="132.831,-316.746 122.262,-316.007 130.064,-323.176 132.831,-316.746"/>
</g>
<!-- Node3 -->
<g id="node3" class="node"><title>Node3</title>
<g id="a_node3"><a xlink:href="TaskRunnerFactory_8h.html" target="_top" xlink:title="QualityControl/TaskRunner\lFactory.h">
<polygon fill="none" stroke="black" points="186,-291.5 186,-321.5 321,-321.5 321,-291.5 186,-291.5"/>
<text text-anchor="start" x="194" y="-309.5" font-family="Helvetica,sans-Serif" font-size="10.00">QualityControl/TaskRunner</text>
<text text-anchor="middle" x="253.5" y="-298.5" font-family="Helvetica,sans-Serif" font-size="10.00">Factory.h</text>
</a>
</g>
</g>
<!-- Node1&#45;&gt;Node3 -->
<g id="edge2" class="edge"><title>Node1&#45;&gt;Node3</title>
<path fill="none" stroke="midnightblue" d="M253.5,-358.396C253.5,-350.645 253.5,-340.812 253.5,-331.86"/>
<polygon fill="midnightblue" stroke="midnightblue" points="257,-331.576 253.5,-321.577 250,-331.577 257,-331.576"/>
</g>
<!-- Node6 -->
<g id="node6" class="node"><title>Node6</title>
<g id="a_node6"><a xlink:href="TaskRunner_8h.html" target="_top" xlink:title="QualityControl/TaskRunner.h">
<polygon fill="none" stroke="black" points="745,-297 745,-316 888,-316 888,-297 745,-297"/>
<text text-anchor="middle" x="816.5" y="-304" font-family="Helvetica,sans-Serif" font-size="10.00">QualityControl/TaskRunner.h</text>
</a>
</g>
</g>
<!-- Node1&#45;&gt;Node6 -->
<g id="edge5" class="edge"><title>Node1&#45;&gt;Node6</title>
<path fill="none" stroke="midnightblue" d="M322.535,-364.53C426.607,-352.514 623.307,-329.805 734.517,-316.965"/>
<polygon fill="midnightblue" stroke="midnightblue" points="735.145,-320.416 744.677,-315.792 734.342,-313.462 735.145,-320.416"/>
</g>
<!-- Node4 -->
<g id="node4" class="node"><title>Node4</title>
<polygon fill="none" stroke="#bfbfbf" points="0,-230 0,-249 153,-249 153,-230 0,-230"/>
<text text-anchor="middle" x="76.5" y="-237" font-family="Helvetica,sans-Serif" font-size="10.00">Framework/CompletionPolicy.h</text>
</g>
<!-- Node3&#45;&gt;Node4 -->
<g id="edge3" class="edge"><title>Node3&#45;&gt;Node4</title>
<path fill="none" stroke="midnightblue" d="M215.094,-291.396C183.487,-279.789 139.171,-263.515 109.229,-252.519"/>
<polygon fill="midnightblue" stroke="midnightblue" points="110.259,-249.169 99.6652,-249.007 107.846,-255.74 110.259,-249.169"/>
</g>
<!-- Node5 -->
<g id="node5" class="node"><title>Node5</title>
<polygon fill="none" stroke="#bfbfbf" points="171.5,-230 171.5,-249 335.5,-249 335.5,-230 171.5,-230"/>
<text text-anchor="middle" x="253.5" y="-237" font-family="Helvetica,sans-Serif" font-size="10.00">Framework/DataProcessorSpec.h</text>
</g>
<!-- Node3&#45;&gt;Node5 -->
<g id="edge4" class="edge"><title>Node3&#45;&gt;Node5</title>
<path fill="none" stroke="midnightblue" d="M253.5,-291.396C253.5,-282.064 253.5,-269.714 253.5,-259.517"/>
<polygon fill="midnightblue" stroke="midnightblue" points="257,-259.195 253.5,-249.195 250,-259.195 257,-259.195"/>
</g>
<!-- Node6&#45;&gt;Node4 -->
<g id="edge13" class="edge"><title>Node6&#45;&gt;Node4</title>
<path fill="none" stroke="midnightblue" d="M744.677,-302.072C624.062,-295.842 373.306,-280.857 162.5,-255 152.694,-253.797 142.299,-252.266 132.254,-250.651"/>
<polygon fill="midnightblue" stroke="midnightblue" points="132.796,-247.193 122.359,-249.017 131.656,-254.1 132.796,-247.193"/>
</g>
<!-- Node6&#45;&gt;Node5 -->
<g id="edge12" class="edge"><title>Node6&#45;&gt;Node5</title>
<path fill="none" stroke="midnightblue" d="M744.795,-298.985C652.174,-290.305 486.031,-273.834 344.5,-255 334.628,-253.686 324.177,-252.154 314.011,-250.587"/>
<polygon fill="midnightblue" stroke="midnightblue" points="314.394,-247.105 303.973,-249.016 313.311,-254.021 314.394,-247.105"/>
</g>
<!-- Node7 -->
<g id="node7" class="node"><title>Node7</title>
<polygon fill="none" stroke="#bfbfbf" points="1108.5,-224.5 1108.5,-254.5 1210.5,-254.5 1210.5,-224.5 1108.5,-224.5"/>
<text text-anchor="start" x="1116.5" y="-242.5" font-family="Helvetica,sans-Serif" font-size="10.00">boost/accumulators</text>
<text text-anchor="middle" x="1159.5" y="-231.5" font-family="Helvetica,sans-Serif" font-size="10.00">/accumulators.hpp</text>
</g>
<!-- Node6&#45;&gt;Node7 -->
<g id="edge6" class="edge"><title>Node6&#45;&gt;Node7</title>
<path fill="none" stroke="midnightblue" d="M869.888,-296.963C924.806,-287.96 1013.03,-272.879 1098.6,-255.117"/>
<polygon fill="midnightblue" stroke="midnightblue" points="1099.41,-258.523 1108.48,-253.051 1097.98,-251.672 1099.41,-258.523"/>
</g>
<!-- Node8 -->
<g id="node8" class="node"><title>Node8</title>
<polygon fill="none" stroke="#bfbfbf" points="1228.5,-224.5 1228.5,-254.5 1330.5,-254.5 1330.5,-224.5 1228.5,-224.5"/>
<text text-anchor="start" x="1236.5" y="-242.5" font-family="Helvetica,sans-Serif" font-size="10.00">boost/accumulators</text>
<text text-anchor="middle" x="1279.5" y="-231.5" font-family="Helvetica,sans-Serif" font-size="10.00">/statistics.hpp</text>
</g>
<!-- Node6&#45;&gt;Node8 -->
<g id="edge7" class="edge"><title>Node6&#45;&gt;Node8</title>
<path fill="none" stroke="midnightblue" d="M888.213,-298.972C966.88,-291.257 1097,-276.872 1218.01,-255.15"/>
<polygon fill="midnightblue" stroke="midnightblue" points="1218.98,-258.531 1228.19,-253.301 1217.73,-251.644 1218.98,-258.531"/>
</g>
<!-- Node9 -->
<g id="node9" class="node"><title>Node9</title>
<polygon fill="none" stroke="#bfbfbf" points="1348.5,-230 1348.5,-249 1428.5,-249 1428.5,-230 1348.5,-230"/>
<text text-anchor="middle" x="1388.5" y="-237" font-family="Helvetica,sans-Serif" font-size="10.00">boost/asio.hpp</text>
</g>
<!-- Node6&#45;&gt;Node9 -->
<g id="edge8" class="edge"><title>Node6&#45;&gt;Node9</title>
<path fill="none" stroke="midnightblue" d="M888.18,-302.921C989.522,-298.294 1180.11,-285.982 1339.5,-255 1343.98,-254.129 1348.64,-253.022 1353.22,-251.81"/>
<polygon fill="midnightblue" stroke="midnightblue" points="1354.37,-255.123 1363.04,-249.038 1352.47,-248.387 1354.37,-255.123"/>
</g>
<!-- Node10 -->
<g id="node10" class="node"><title>Node10</title>
<polygon fill="none" stroke="#bfbfbf" points="1446.5,-224.5 1446.5,-254.5 1546.5,-254.5 1546.5,-224.5 1446.5,-224.5"/>
<text text-anchor="start" x="1454.5" y="-242.5" font-family="Helvetica,sans-Serif" font-size="10.00">boost/serialization</text>
<text text-anchor="middle" x="1496.5" y="-231.5" font-family="Helvetica,sans-Serif" font-size="10.00">/array_wrapper.hpp</text>
</g>
<!-- Node6&#45;&gt;Node10 -->
<g id="edge9" class="edge"><title>Node6&#45;&gt;Node10</title>
<path fill="none" stroke="midnightblue" d="M888.196,-303.39C1002.4,-299.209 1232.67,-287.436 1436.41,-255.001"/>
<polygon fill="midnightblue" stroke="midnightblue" points="1437.08,-258.438 1446.4,-253.39 1435.97,-251.527 1437.08,-258.438"/>
</g>
<!-- Node11 -->
<g id="node11" class="node"><title>Node11</title>
<polygon fill="none" stroke="#bfbfbf" points="353.5,-230 353.5,-249 445.5,-249 445.5,-230 353.5,-230"/>
<text text-anchor="middle" x="399.5" y="-237" font-family="Helvetica,sans-Serif" font-size="10.00">Common/Timer.h</text>
</g>
<!-- Node6&#45;&gt;Node11 -->
<g id="edge10" class="edge"><title>Node6&#45;&gt;Node11</title>
<path fill="none" stroke="midnightblue" d="M744.984,-298.07C671.655,-289.857 554.508,-275.084 454.5,-255 449.485,-253.993 444.248,-252.8 439.084,-251.537"/>
<polygon fill="midnightblue" stroke="midnightblue" points="439.875,-248.127 429.321,-249.054 438.149,-254.911 439.875,-248.127"/>
</g>
<!-- Node12 -->
<g id="node12" class="node"><title>Node12</title>
<polygon fill="none" stroke="#bfbfbf" points="463.5,-230 463.5,-249 561.5,-249 561.5,-230 463.5,-230"/>
<text text-anchor="middle" x="512.5" y="-237" font-family="Helvetica,sans-Serif" font-size="10.00">Framework/Task.h</text>
</g>
<!-- Node6&#45;&gt;Node12 -->
<g id="edge11" class="edge"><title>Node6&#45;&gt;Node12</title>
<path fill="none" stroke="midnightblue" d="M772.578,-296.965C723.465,-287.302 641.609,-270.835 571.5,-255 566.484,-253.867 561.239,-252.64 556.034,-251.395"/>
<polygon fill="midnightblue" stroke="midnightblue" points="556.688,-247.952 546.145,-249.001 555.04,-254.756 556.688,-247.952"/>
</g>
<!-- Node13 -->
<g id="node13" class="node"><title>Node13</title>
<polygon fill="none" stroke="#bfbfbf" points="580,-230 580,-249 731,-249 731,-230 580,-230"/>
<text text-anchor="middle" x="655.5" y="-237" font-family="Helvetica,sans-Serif" font-size="10.00">Monitoring/MonitoringFactory.h</text>
</g>
<!-- Node6&#45;&gt;Node13 -->
<g id="edge14" class="edge"><title>Node6&#45;&gt;Node13</title>
<path fill="none" stroke="midnightblue" d="M795.12,-296.869C767.136,-285.571 717.909,-265.696 686.012,-252.818"/>
<polygon fill="midnightblue" stroke="midnightblue" points="687.295,-249.562 676.712,-249.064 684.674,-256.053 687.295,-249.562"/>
</g>
<!-- Node14 -->
<g id="node14" class="node"><title>Node14</title>
<polygon fill="none" stroke="#bfbfbf" points="749,-224.5 749,-254.5 884,-254.5 884,-224.5 749,-224.5"/>
<text text-anchor="start" x="757" y="-242.5" font-family="Helvetica,sans-Serif" font-size="10.00">Configuration/Configuration</text>
<text text-anchor="middle" x="816.5" y="-231.5" font-family="Helvetica,sans-Serif" font-size="10.00">Interface.h</text>
</g>
<!-- Node6&#45;&gt;Node14 -->
<g id="edge15" class="edge"><title>Node6&#45;&gt;Node14</title>
<path fill="none" stroke="midnightblue" d="M816.5,-296.734C816.5,-288.541 816.5,-275.923 816.5,-264.714"/>
<polygon fill="midnightblue" stroke="midnightblue" points="820,-264.589 816.5,-254.589 813,-264.589 820,-264.589"/>
</g>
<!-- Node15 -->
<g id="node15" class="node"><title>Node15</title>
<g id="a_node15"><a xlink:href="TaskConfig_8h.html" target="_top" xlink:title="QualityControl/TaskConfig.h">
<polygon fill="none" stroke="black" points="1145.5,-112.5 1145.5,-131.5 1285.5,-131.5 1285.5,-112.5 1145.5,-112.5"/>
<text text-anchor="middle" x="1215.5" y="-119.5" font-family="Helvetica,sans-Serif" font-size="10.00">QualityControl/TaskConfig.h</text>
</a>
</g>
</g>
<!-- Node6&#45;&gt;Node15 -->
<g id="edge16" class="edge"><title>Node6&#45;&gt;Node15</title>
<path fill="none" stroke="midnightblue" d="M839,-296.998C856.871,-288.999 880.887,-275.206 893.5,-255 914.138,-221.938 877.189,-195.805 904.5,-168 935.708,-136.228 1053.61,-126.678 1134.92,-123.929"/>
<polygon fill="midnightblue" stroke="midnightblue" points="1135.26,-127.421 1145.15,-123.613 1135.04,-120.424 1135.26,-127.421"/>
</g>
<!-- Node17 -->
<g id="node17" class="node"><title>Node17</title>
<g id="a_node17"><a xlink:href="TaskInterface_8h.html" target="_top" xlink:title="QualityControl/TaskInterface.h">
<polygon fill="none" stroke="black" points="940.5,-230 940.5,-249 1090.5,-249 1090.5,-230 940.5,-230"/>
<text text-anchor="middle" x="1015.5" y="-237" font-family="Helvetica,sans-Serif" font-size="10.00">QualityControl/TaskInterface.h</text>
</a>
</g>
</g>
<!-- Node6&#45;&gt;Node17 -->
<g id="edge18" class="edge"><title>Node6&#45;&gt;Node17</title>
<path fill="none" stroke="midnightblue" d="M842.926,-296.869C878.037,-285.4 940.203,-265.094 979.556,-252.24"/>
<polygon fill="midnightblue" stroke="midnightblue" points="980.863,-255.496 989.282,-249.064 978.689,-248.842 980.863,-255.496"/>
</g>
<!-- Node16 -->
<g id="node16" class="node"><title>Node16</title>
<polygon fill="none" stroke="#bfbfbf" points="1293,-0.5 1293,-19.5 1334,-19.5 1334,-0.5 1293,-0.5"/>
<text text-anchor="middle" x="1313.5" y="-7.5" font-family="Helvetica,sans-Serif" font-size="10.00">string</text>
</g>
<!-- Node15&#45;&gt;Node16 -->
<g id="edge17" class="edge"><title>Node15&#45;&gt;Node16</title>
<path fill="none" stroke="midnightblue" d="M1223.19,-112.368C1239.51,-94.0547 1277.82,-51.0489 1298.92,-27.3624"/>
<polygon fill="midnightblue" stroke="midnightblue" points="1301.81,-29.3863 1305.85,-19.5914 1296.58,-24.7298 1301.81,-29.3863"/>
</g>
<!-- Node18 -->
<g id="node18" class="node"><title>Node18</title>
<polygon fill="none" stroke="#bfbfbf" points="1622.5,-168.5 1622.5,-187.5 1674.5,-187.5 1674.5,-168.5 1622.5,-168.5"/>
<text text-anchor="middle" x="1648.5" y="-175.5" font-family="Helvetica,sans-Serif" font-size="10.00">memory</text>
</g>
<!-- Node17&#45;&gt;Node18 -->
<g id="edge19" class="edge"><title>Node17&#45;&gt;Node18</title>
<path fill="none" stroke="midnightblue" d="M1059.84,-229.984C1072.61,-227.767 1086.57,-225.565 1099.5,-224 1323.52,-196.891 1385.64,-223.853 1612.03,-187.943"/>
<polygon fill="midnightblue" stroke="midnightblue" points="1612.92,-191.345 1622.24,-186.3 1611.81,-184.434 1612.92,-191.345"/>
</g>
<!-- Node19 -->
<g id="node19" class="node"><title>Node19</title>
<polygon fill="none" stroke="#bfbfbf" points="913,-168.5 913,-187.5 962,-187.5 962,-168.5 913,-168.5"/>
<text text-anchor="middle" x="937.5" y="-175.5" font-family="Helvetica,sans-Serif" font-size="10.00">cassert</text>
</g>
<!-- Node17&#45;&gt;Node19 -->
<g id="edge20" class="edge"><title>Node17&#45;&gt;Node19</title>
<path fill="none" stroke="midnightblue" d="M1004.32,-229.975C991.929,-220.52 971.71,-205.096 956.754,-193.687"/>
<polygon fill="midnightblue" stroke="midnightblue" points="958.728,-190.791 948.655,-187.509 954.483,-196.357 958.728,-190.791"/>
</g>
<!-- Node20 -->
<g id="node20" class="node"><title>Node20</title>
<polygon fill="none" stroke="#bfbfbf" points="980,-168.5 980,-187.5 1105,-187.5 1105,-168.5 980,-168.5"/>
<text text-anchor="middle" x="1042.5" y="-175.5" font-family="Helvetica,sans-Serif" font-size="10.00">Framework/InitContext.h</text>
</g>
<!-- Node17&#45;&gt;Node20 -->
<g id="edge21" class="edge"><title>Node17&#45;&gt;Node20</title>
<path fill="none" stroke="midnightblue" d="M1019.37,-229.975C1023.3,-221.315 1029.5,-207.649 1034.49,-196.645"/>
<polygon fill="midnightblue" stroke="midnightblue" points="1037.69,-198.062 1038.64,-187.509 1031.32,-195.169 1037.69,-198.062"/>
</g>
<!-- Node21 -->
<g id="node21" class="node"><title>Node21</title>
<polygon fill="none" stroke="#bfbfbf" points="1123.5,-168.5 1123.5,-187.5 1283.5,-187.5 1283.5,-168.5 1123.5,-168.5"/>
<text text-anchor="middle" x="1203.5" y="-175.5" font-family="Helvetica,sans-Serif" font-size="10.00">Framework/ProcessingContext.h</text>
</g>
<!-- Node17&#45;&gt;Node21 -->
<g id="edge22" class="edge"><title>Node17&#45;&gt;Node21</title>
<path fill="none" stroke="midnightblue" d="M1042.44,-229.975C1075.1,-219.636 1130.32,-202.161 1166.84,-190.602"/>
<polygon fill="midnightblue" stroke="midnightblue" points="1168.14,-193.863 1176.61,-187.509 1166.02,-187.19 1168.14,-193.863"/>
</g>
<!-- Node22 -->
<g id="node22" class="node"><title>Node22</title>
<g id="a_node22"><a xlink:href="Activity_8h.html" target="_top" xlink:title="QualityControl/Activity.h">
<polygon fill="none" stroke="black" points="1302,-168.5 1302,-187.5 1425,-187.5 1425,-168.5 1302,-168.5"/>
<text text-anchor="middle" x="1363.5" y="-175.5" font-family="Helvetica,sans-Serif" font-size="10.00">QualityControl/Activity.h</text>
</a>
</g>
</g>
<!-- Node17&#45;&gt;Node22 -->
<g id="edge23" class="edge"><title>Node17&#45;&gt;Node22</title>
<path fill="none" stroke="midnightblue" d="M1064.8,-229.972C1076.19,-228.006 1088.27,-225.927 1099.5,-224 1169.46,-212 1249.86,-198.309 1303.37,-189.212"/>
<polygon fill="midnightblue" stroke="midnightblue" points="1304.1,-192.638 1313.38,-187.512 1302.93,-185.737 1304.1,-192.638"/>
</g>
<!-- Node23 -->
<g id="node23" class="node"><title>Node23</title>
<g id="a_node23"><a xlink:href="ObjectsManager_8h.html" target="_top" xlink:title="QualityControl/ObjectsManager.h">
<polygon fill="none" stroke="black" points="1443,-168.5 1443,-187.5 1604,-187.5 1604,-168.5 1443,-168.5"/>
<text text-anchor="middle" x="1523.5" y="-175.5" font-family="Helvetica,sans-Serif" font-size="10.00">QualityControl/ObjectsManager.h</text>
</a>
</g>
</g>
<!-- Node17&#45;&gt;Node23 -->
<g id="edge24" class="edge"><title>Node17&#45;&gt;Node23</title>
<path fill="none" stroke="midnightblue" d="M1061.63,-229.98C1073.91,-227.865 1087.19,-225.714 1099.5,-224 1131.57,-219.535 1317.87,-200.152 1432.59,-188.329"/>
<polygon fill="midnightblue" stroke="midnightblue" points="1433.19,-191.786 1442.78,-187.28 1432.47,-184.823 1433.19,-191.786"/>
</g>
<!-- Node23&#45;&gt;Node15 -->
<g id="edge35" class="edge"><title>Node23&#45;&gt;Node15</title>
<path fill="none" stroke="midnightblue" d="M1474.7,-168.444C1420.29,-158.905 1332.33,-143.483 1274.21,-133.293"/>
<polygon fill="midnightblue" stroke="midnightblue" points="1274.53,-129.796 1264.08,-131.516 1273.32,-136.691 1274.53,-129.796"/>
</g>
<!-- Node23&#45;&gt;Node16 -->
<g id="edge39" class="edge"><title>Node23&#45;&gt;Node16</title>
<path fill="none" stroke="midnightblue" d="M1452.8,-168.492C1405.79,-161.347 1349.81,-149.47 1333.5,-132 1307.55,-104.206 1308.07,-56.3113 1310.76,-29.8825"/>
<polygon fill="midnightblue" stroke="midnightblue" points="1314.27,-30.0478 1312.02,-19.6944 1307.32,-29.1906 1314.27,-30.0478"/>
</g>
<!-- Node24 -->
<g id="node24" class="node"><title>Node24</title>
<g id="a_node24"><a xlink:href="MonitorObject_8h.html" target="_top" xlink:title="QualityControl/MonitorObject.h">
<polygon fill="none" stroke="black" points="1703,-112.5 1703,-131.5 1854,-131.5 1854,-112.5 1703,-112.5"/>
<text text-anchor="middle" x="1778.5" y="-119.5" font-family="Helvetica,sans-Serif" font-size="10.00">QualityControl/MonitorObject.h</text>
</a>
</g>
</g>
<!-- Node23&#45;&gt;Node24 -->
<g id="edge25" class="edge"><title>Node23&#45;&gt;Node24</title>
<path fill="none" stroke="midnightblue" d="M1563.91,-168.444C1608.48,-159.004 1680.27,-143.802 1728.39,-133.611"/>
<polygon fill="midnightblue" stroke="midnightblue" points="1729.23,-137.012 1738.28,-131.516 1727.78,-130.164 1729.23,-137.012"/>
</g>
<!-- Node29 -->
<g id="node29" class="node"><title>Node29</title>
<g id="a_node29"><a xlink:href="Quality_8h.html" target="_top" xlink:title="QualityControl/Quality.h">
<polygon fill="none" stroke="black" points="1528,-56.5 1528,-75.5 1649,-75.5 1649,-56.5 1528,-56.5"/>
<text text-anchor="middle" x="1588.5" y="-63.5" font-family="Helvetica,sans-Serif" font-size="10.00">QualityControl/Quality.h</text>
</a>
</g>
</g>
<!-- Node23&#45;&gt;Node29 -->
<g id="edge34" class="edge"><title>Node23&#45;&gt;Node29</title>
<path fill="none" stroke="midnightblue" d="M1597.54,-168.489C1619.8,-162.071 1641.9,-151 1655.5,-132 1669.99,-111.755 1642.97,-92.4027 1619.03,-80.1608"/>
<polygon fill="midnightblue" stroke="midnightblue" points="1620.3,-76.8835 1609.77,-75.6761 1617.25,-83.184 1620.3,-76.8835"/>
</g>
<!-- Node31 -->
<g id="node31" class="node"><title>Node31</title>
<polygon fill="none" stroke="#bfbfbf" points="1342,-112.5 1342,-131.5 1411,-131.5 1411,-112.5 1342,-112.5"/>
<text text-anchor="middle" x="1376.5" y="-119.5" font-family="Helvetica,sans-Serif" font-size="10.00">TObjArray.h</text>
</g>
<!-- Node23&#45;&gt;Node31 -->
<g id="edge36" class="edge"><title>Node23&#45;&gt;Node31</title>
<path fill="none" stroke="midnightblue" d="M1500.21,-168.444C1475.69,-159.438 1436.9,-145.189 1409.3,-135.049"/>
<polygon fill="midnightblue" stroke="midnightblue" points="1410.28,-131.679 1399.68,-131.516 1407.86,-138.25 1410.28,-131.679"/>
</g>
<!-- Node32 -->
<g id="node32" class="node"><title>Node32</title>
<polygon fill="none" stroke="#bfbfbf" points="1429,-112.5 1429,-131.5 1500,-131.5 1500,-112.5 1429,-112.5"/>
<text text-anchor="middle" x="1464.5" y="-119.5" font-family="Helvetica,sans-Serif" font-size="10.00">TObjString.h</text>
</g>
<!-- Node23&#45;&gt;Node32 -->
<g id="edge37" class="edge"><title>Node23&#45;&gt;Node32</title>
<path fill="none" stroke="midnightblue" d="M1514.02,-168.324C1505.3,-160.341 1492.16,-148.313 1481.6,-138.653"/>
<polygon fill="midnightblue" stroke="midnightblue" points="1483.89,-136.004 1474.15,-131.834 1479.17,-141.167 1483.89,-136.004"/>
</g>
<!-- Node33 -->
<g id="node33" class="node"><title>Node33</title>
<polygon fill="none" stroke="#bfbfbf" points="1518.5,-112.5 1518.5,-131.5 1646.5,-131.5 1646.5,-112.5 1518.5,-112.5"/>
<text text-anchor="middle" x="1582.5" y="-119.5" font-family="Helvetica,sans-Serif" font-size="10.00">boost/concept_check.hpp</text>
</g>
<!-- Node23&#45;&gt;Node33 -->
<g id="edge38" class="edge"><title>Node23&#45;&gt;Node33</title>
<path fill="none" stroke="midnightblue" d="M1532.98,-168.324C1541.7,-160.341 1554.84,-148.313 1565.4,-138.653"/>
<polygon fill="midnightblue" stroke="midnightblue" points="1567.83,-141.167 1572.85,-131.834 1563.11,-136.004 1567.83,-141.167"/>
</g>
<!-- Node25 -->
<g id="node25" class="node"><title>Node25</title>
<polygon fill="none" stroke="#bfbfbf" points="1854.5,-56.5 1854.5,-75.5 1908.5,-75.5 1908.5,-56.5 1854.5,-56.5"/>
<text text-anchor="middle" x="1881.5" y="-63.5" font-family="Helvetica,sans-Serif" font-size="10.00">iostream</text>
</g>
<!-- Node24&#45;&gt;Node25 -->
<g id="edge26" class="edge"><title>Node24&#45;&gt;Node25</title>
<path fill="none" stroke="midnightblue" d="M1795.05,-112.324C1811.49,-103.703 1836.93,-90.3643 1855.97,-80.3855"/>
<polygon fill="midnightblue" stroke="midnightblue" points="1857.76,-83.3977 1864.99,-75.6545 1854.51,-77.198 1857.76,-83.3977"/>
</g>
<!-- Node26 -->
<g id="node26" class="node"><title>Node26</title>
<polygon fill="none" stroke="#bfbfbf" points="1667,-56.5 1667,-75.5 1702,-75.5 1702,-56.5 1667,-56.5"/>
<text text-anchor="middle" x="1684.5" y="-63.5" font-family="Helvetica,sans-Serif" font-size="10.00">map</text>
</g>
<!-- Node24&#45;&gt;Node26 -->
<g id="edge27" class="edge"><title>Node24&#45;&gt;Node26</title>
<path fill="none" stroke="midnightblue" d="M1763.4,-112.324C1748.6,-103.822 1725.81,-90.7288 1708.52,-80.7975"/>
<polygon fill="midnightblue" stroke="midnightblue" points="1709.98,-77.6009 1699.57,-75.6545 1706.49,-83.6707 1709.98,-77.6009"/>
</g>
<!-- Node27 -->
<g id="node27" class="node"><title>Node27</title>
<polygon fill="none" stroke="#bfbfbf" points="1770,-0.5 1770,-19.5 1829,-19.5 1829,-0.5 1770,-0.5"/>
<text text-anchor="middle" x="1799.5" y="-7.5" font-family="Helvetica,sans-Serif" font-size="10.00">TObject.h</text>
</g>
<!-- Node24&#45;&gt;Node27 -->
<g id="edge28" class="edge"><title>Node24&#45;&gt;Node27</title>
<path fill="none" stroke="midnightblue" d="M1854.18,-113.993C1878.35,-107.753 1902.65,-96.4102 1917.5,-76 1940.74,-44.0431 1881.91,-25.9557 1839.21,-17.3503"/>
<polygon fill="midnightblue" stroke="midnightblue" points="1839.78,-13.8962 1829.3,-15.4612 1838.47,-20.7723 1839.78,-13.8962"/>
</g>
<!-- Node28 -->
<g id="node28" class="node"><title>Node28</title>
<polygon fill="none" stroke="#bfbfbf" points="1720.5,-56.5 1720.5,-75.5 1836.5,-75.5 1836.5,-56.5 1720.5,-56.5"/>
<text text-anchor="middle" x="1778.5" y="-63.5" font-family="Helvetica,sans-Serif" font-size="10.00">Common/Exceptions.h</text>
</g>
<!-- Node24&#45;&gt;Node28 -->
<g id="edge29" class="edge"><title>Node24&#45;&gt;Node28</title>
<path fill="none" stroke="midnightblue" d="M1778.5,-112.083C1778.5,-105.006 1778.5,-94.8611 1778.5,-85.9865"/>
<polygon fill="midnightblue" stroke="midnightblue" points="1782,-85.751 1778.5,-75.7511 1775,-85.7511 1782,-85.751"/>
</g>
<!-- Node24&#45;&gt;Node29 -->
<g id="edge30" class="edge"><title>Node24&#45;&gt;Node29</title>
<path fill="none" stroke="midnightblue" d="M1748.39,-112.444C1715.87,-103.201 1663.92,-88.4356 1628.11,-78.2572"/>
<polygon fill="midnightblue" stroke="midnightblue" points="1629.04,-74.8837 1618.47,-75.5164 1627.13,-81.617 1629.04,-74.8837"/>
</g>
<!-- Node29&#45;&gt;Node16 -->
<g id="edge33" class="edge"><title>Node29&#45;&gt;Node16</title>
<path fill="none" stroke="midnightblue" d="M1544.93,-56.4435C1488.91,-45.4441 1393.06,-26.622 1344.15,-17.0192"/>
<polygon fill="midnightblue" stroke="midnightblue" points="1344.67,-13.5535 1334.18,-15.061 1343.32,-20.4224 1344.67,-13.5535"/>
</g>
<!-- Node29&#45;&gt;Node27 -->
<g id="edge31" class="edge"><title>Node29&#45;&gt;Node27</title>
<path fill="none" stroke="midnightblue" d="M1621.93,-56.4435C1659.45,-46.8409 1720.27,-31.2763 1760.08,-21.0887"/>
<polygon fill="midnightblue" stroke="midnightblue" points="1761.15,-24.4281 1769.97,-18.558 1759.41,-17.6467 1761.15,-24.4281"/>
</g>
<!-- Node30 -->
<g id="node30" class="node"><title>Node30</title>
<polygon fill="none" stroke="#bfbfbf" points="1562.5,-0.5 1562.5,-19.5 1614.5,-19.5 1614.5,-0.5 1562.5,-0.5"/>
<text text-anchor="middle" x="1588.5" y="-7.5" font-family="Helvetica,sans-Serif" font-size="10.00">ostream</text>
</g>
<!-- Node29&#45;&gt;Node30 -->
<g id="edge32" class="edge"><title>Node29&#45;&gt;Node30</title>
<path fill="none" stroke="midnightblue" d="M1588.5,-56.083C1588.5,-49.0059 1588.5,-38.8611 1588.5,-29.9865"/>
<polygon fill="midnightblue" stroke="midnightblue" points="1592,-29.751 1588.5,-19.7511 1585,-29.7511 1592,-29.751"/>
</g>
</g>
</svg>
