<?xml version="1.0" encoding="UTF-8" standalone="no"?>
<!DOCTYPE svg PUBLIC "-//W3C//DTD SVG 1.1//EN"
 "http://www.w3.org/Graphics/SVG/1.1/DTD/svg11.dtd">
<!-- Generated by graphviz version 2.38.0 (20140413.2041)
 -->
<!-- Title: Framework/include/QualityControl/TaskFactory.h Pages: 1 -->
<!--zoomable 106 -->
<svg id="main" version="1.1" xmlns="http://www.w3.org/2000/svg" xmlns:xlink="http://www.w3.org/1999/xlink" xml:space="preserve" onload="init(evt)">
<style type="text/css"><![CDATA[
.edge:hover path { stroke: red; }
.edge:hover polygon { stroke: red; fill: red; }
]]></style>
<script type="text/javascript"><![CDATA[
var edges = document.getElementsByTagName('g');
if (edges && edges.length) {
  for (var i=0;i<edges.length;i++) {
    if (edges[i].id.substr(0,4)=='edge') {
      edges[i].setAttribute('class','edge');
    }
  }
}
]]></script>
        <defs>
                <circle id="rim" cx="0" cy="0" r="7"/>
                <circle id="rim2" cx="0" cy="0" r="3.5"/>
                <g id="zoomPlus">
                        <use xlink:href="#rim" fill="#404040">
                                <set attributeName="fill" to="#808080" begin="zoomplus.mouseover" end="zoomplus.mouseout"/>
                        </use>
                        <path d="M-4,0h8M0,-4v8" fill="none" stroke="white" stroke-width="1.5" pointer-events="none"/>
                </g>
                <g id="zoomMin">
                        <use xlink:href="#rim" fill="#404040">
                                <set attributeName="fill" to="#808080" begin="zoomminus.mouseover" end="zoomminus.mouseout"/>
                        </use>
                        <path d="M-4,0h8" fill="none" stroke="white" stroke-width="1.5" pointer-events="none"/>
                </g>
                <g id="dirArrow">
                        <path fill="none" stroke="white" stroke-width="1.5" d="M0,-3.0v7 M-2.5,-0.5L0,-3.0L2.5,-0.5"/>
                </g>
               <g id="resetDef">
                       <use xlink:href="#rim2" fill="#404040">
                               <set attributeName="fill" to="#808080" begin="reset.mouseover" end="reset.mouseout"/>
                       </use>
               </g>
        </defs>

<script type="text/javascript">
var viewWidth = 1054;
var viewHeight = 106;
var sectionId = 'dynsection-1';
</script>
<script xlink:href="svgpan.js"/>
<svg id="graph" class="graph">
<g id="viewport">
<title>Framework/include/QualityControl/TaskFactory.h</title>
<!-- Node1 -->
<g id="node1" class="node"><title>Node1</title>
<polygon fill="#bfbfbf" stroke="black" points="526,-67.5 526,-97.5 659,-97.5 659,-67.5 526,-67.5"/>
<text text-anchor="start" x="534" y="-85.5" font-family="Helvetica,sans-Serif" font-size="10.00">Framework/include/Quality</text>
<text text-anchor="middle" x="592.5" y="-74.5" font-family="Helvetica,sans-Serif" font-size="10.00">Control/TaskFactory.h</text>
</g>
<!-- Node2 -->
<g id="node2" class="node"><title>Node2</title>
<g id="a_node2"><a xlink:href="TaskRunner_8cxx.html" target="_top" xlink:title="Framework/src/TaskRunner.cxx">
<polygon fill="none" stroke="black" points="0,-6 0,-25 157,-25 157,-6 0,-6"/>
<text text-anchor="middle" x="78.5" y="-13" font-family="Helvetica,sans-Serif" font-size="10.00">Framework/src/TaskRunner.cxx</text>
</a>
</g>
</g>
<!-- Node1&#45;&gt;Node2 -->
<g id="edge1" class="edge"><title>Node1&#45;&gt;Node2</title>
<path fill="none" stroke="midnightblue" d="M515.842,-73.4706C430.454,-64.2805 288.38,-48.2563 166.5,-31 153.929,-29.2201 140.382,-27.0927 127.775,-25.0231"/>
<polygon fill="midnightblue" stroke="midnightblue" points="515.653,-76.9702 525.969,-74.557 516.4,-70.0102 515.653,-76.9702"/>
</g>
<!-- Node3 -->
<g id="node3" class="node"><title>Node3</title>
<g id="a_node3"><a xlink:href="testQCTask_8cxx.html" target="_top" xlink:title="Framework/test/testQCTask.cxx">
<polygon fill="none" stroke="black" points="175.5,-6 175.5,-25 335.5,-25 335.5,-6 175.5,-6"/>
<text text-anchor="middle" x="255.5" y="-13" font-family="Helvetica,sans-Serif" font-size="10.00">Framework/test/testQCTask.cxx</text>
</a>
</g>
</g>
<!-- Node1&#45;&gt;Node3 -->
<g id="edge2" class="edge"><title>Node1&#45;&gt;Node3</title>
<path fill="none" stroke="midnightblue" d="M515.876,-66.721C449.183,-53.8573 354.829,-35.6585 299.917,-25.0671"/>
<polygon fill="midnightblue" stroke="midnightblue" points="515.438,-70.2008 525.92,-68.6581 516.764,-63.3275 515.438,-70.2008"/>
</g>
<!-- Node4 -->
<g id="node4" class="node"><title>Node4</title>
<g id="a_node4"><a xlink:href="testQcDaq_8cxx.html" target="_top" xlink:title="Modules/Daq/test/testQcDaq.cxx">
<polygon fill="none" stroke="black" points="354,-6 354,-25 517,-25 517,-6 354,-6"/>
<text text-anchor="middle" x="435.5" y="-13" font-family="Helvetica,sans-Serif" font-size="10.00">Modules/Daq/test/testQcDaq.cxx</text>
</a>
</g>
</g>
<!-- Node1&#45;&gt;Node4 -->
<g id="edge3" class="edge"><title>Node1&#45;&gt;Node4</title>
<path fill="none" stroke="midnightblue" d="M548.923,-63.4585C518.589,-50.9001 479.518,-34.724 456.048,-25.007"/>
<polygon fill="midnightblue" stroke="midnightblue" points="547.855,-66.8045 558.433,-67.396 550.533,-60.3368 547.855,-66.8045"/>
</g>
<!-- Node5 -->
<g id="node5" class="node"><title>Node5</title>
<polygon fill="none" stroke="#bfbfbf" points="535.5,-0.5 535.5,-30.5 649.5,-30.5 649.5,-0.5 535.5,-0.5"/>
<text text-anchor="start" x="543.5" y="-18.5" font-family="Helvetica,sans-Serif" font-size="10.00">Modules/Example/test</text>
<text text-anchor="middle" x="592.5" y="-7.5" font-family="Helvetica,sans-Serif" font-size="10.00">/testFactory.cxx</text>
</g>
<!-- Node1&#45;&gt;Node5 -->
<g id="edge4" class="edge"><title>Node1&#45;&gt;Node5</title>
<path fill="none" stroke="midnightblue" d="M592.5,-57.1081C592.5,-48.1539 592.5,-38.3227 592.5,-30.5765"/>
<polygon fill="midnightblue" stroke="midnightblue" points="589,-57.3959 592.5,-67.396 596,-57.396 589,-57.3959"/>
</g>
<!-- Node6 -->
<g id="node6" class="node"><title>Node6</title>
<g id="a_node6"><a xlink:href="testQcExample_8cxx.html" target="_top" xlink:title="Modules/Example/test\l/testQcExample.cxx">
<polygon fill="none" stroke="black" points="667.5,-0.5 667.5,-30.5 781.5,-30.5 781.5,-0.5 667.5,-0.5"/>
<text text-anchor="start" x="675.5" y="-18.5" font-family="Helvetica,sans-Serif" font-size="10.00">Modules/Example/test</text>
<text text-anchor="middle" x="724.5" y="-7.5" font-family="Helvetica,sans-Serif" font-size="10.00">/testQcExample.cxx</text>
</a>
</g>
</g>
<!-- Node1&#45;&gt;Node6 -->
<g id="edge5" class="edge"><title>Node1&#45;&gt;Node6</title>
<path fill="none" stroke="midnightblue" d="M630.367,-62.8533C651.238,-52.5761 676.726,-40.0252 695.914,-30.5765"/>
<polygon fill="midnightblue" stroke="midnightblue" points="628.567,-59.8383 621.142,-67.396 631.66,-66.1182 628.567,-59.8383"/>
</g>
<!-- Node7 -->
<g id="node7" class="node"><title>Node7</title>
<polygon fill="none" stroke="#bfbfbf" points="799.5,-0.5 799.5,-30.5 913.5,-30.5 913.5,-0.5 799.5,-0.5"/>
<text text-anchor="start" x="807.5" y="-18.5" font-family="Helvetica,sans-Serif" font-size="10.00">Modules/Skeleton/test</text>
<text text-anchor="middle" x="856.5" y="-7.5" font-family="Helvetica,sans-Serif" font-size="10.00">/.testEmpty.cxx</text>
</g>
<!-- Node1&#45;&gt;Node7 -->
<g id="edge6" class="edge"><title>Node1&#45;&gt;Node7</title>
<path fill="none" stroke="midnightblue" d="M659.306,-65.0515C702.466,-54.425 758.042,-40.7414 799.188,-30.6109"/>
<polygon fill="midnightblue" stroke="midnightblue" points="658.332,-61.6867 649.459,-67.476 660.006,-68.4837 658.332,-61.6867"/>
</g>
<!-- Node8 -->
<g id="node8" class="node"><title>Node8</title>
<g id="a_node8"><a xlink:href="testQcSkeleton_8cxx.html" target="_top" xlink:title="Modules/Skeleton/test\l/testQcSkeleton.cxx">
<polygon fill="none" stroke="black" points="931.5,-0.5 931.5,-30.5 1045.5,-30.5 1045.5,-0.5 931.5,-0.5"/>
<text text-anchor="start" x="939.5" y="-18.5" font-family="Helvetica,sans-Serif" font-size="10.00">Modules/Skeleton/test</text>
<text text-anchor="middle" x="988.5" y="-7.5" font-family="Helvetica,sans-Serif" font-size="10.00">/testQcSkeleton.cxx</text>
</a>
</g>
</g>
<!-- Node1&#45;&gt;Node8 -->
<g id="edge7" class="edge"><title>Node1&#45;&gt;Node8</title>
<path fill="none" stroke="midnightblue" d="M669.137,-71.1981C736.172,-61.8475 836.055,-47.0929 922.5,-31 925.383,-30.4632 928.333,-29.893 931.308,-29.301"/>
<polygon fill="midnightblue" stroke="midnightblue" points="668.503,-67.7525 659.08,-72.5949 669.466,-74.686 668.503,-67.7525"/>
</g>
</g>
</svg>
        <g id="navigator" transform="translate(0 0)" fill="#404254">
                <rect fill="#f2f5e9" fill-opacity="0.5" stroke="#606060" stroke-width=".5" x="0" y="0" width="60" height="60"/>
                <use id="zoomplus" xlink:href="#zoomPlus" x="17" y="9" onmousedown="handleZoom(evt,'in')"/>
                <use id="zoomminus" xlink:href="#zoomMin" x="42" y="9" onmousedown="handleZoom(evt,'out')"/>
                <use id="reset" xlink:href="#resetDef" x="30" y="36" onmousedown="handleReset()"/>
                <g id="arrowUp" xlink:href="#dirArrow" transform="translate(30 24)" onmousedown="handlePan(0,-1)">
                  <use xlink:href="#rim" fill="#404040">
                        <set attributeName="fill" to="#808080" begin="arrowUp.mouseover" end="arrowUp.mouseout"/>
                  </use>
                  <path fill="none" stroke="white" stroke-width="1.5" d="M0,-3.0v7 M-2.5,-0.5L0,-3.0L2.5,-0.5"/>
                </g>
                <g id="arrowRight" xlink:href="#dirArrow" transform="rotate(90) translate(36 -43)" onmousedown="handlePan(1,0)">
                  <use xlink:href="#rim" fill="#404040">
                        <set attributeName="fill" to="#808080" begin="arrowRight.mouseover" end="arrowRight.mouseout"/>
                  </use>
                  <path fill="none" stroke="white" stroke-width="1.5" d="M0,-3.0v7 M-2.5,-0.5L0,-3.0L2.5,-0.5"/>
                </g>
                <g id="arrowDown" xlink:href="#dirArrow" transform="rotate(180) translate(-30 -48)" onmousedown="handlePan(0,1)">
                  <use xlink:href="#rim" fill="#404040">
                        <set attributeName="fill" to="#808080" begin="arrowDown.mouseover" end="arrowDown.mouseout"/>
                  </use>
                  <path fill="none" stroke="white" stroke-width="1.5" d="M0,-3.0v7 M-2.5,-0.5L0,-3.0L2.5,-0.5"/>
                </g>
                <g id="arrowLeft" xlink:href="#dirArrow" transform="rotate(270) translate(-36 17)" onmousedown="handlePan(-1,0)">
                  <use xlink:href="#rim" fill="#404040">
                        <set attributeName="fill" to="#808080" begin="arrowLeft.mouseover" end="arrowLeft.mouseout"/>
                  </use>
                  <path fill="none" stroke="white" stroke-width="1.5" d="M0,-3.0v7 M-2.5,-0.5L0,-3.0L2.5,-0.5"/>
                </g>
        </g>
        <svg viewBox="0 0 15 15" width="100%" height="30px" preserveAspectRatio="xMaxYMin meet">
         <g id="arrow_out" transform="scale(0.3 0.3)">
          <a xlink:href="TaskFactory_8h__dep__incl_org.svg" target="_base">
           <rect id="button" ry="5" rx="5" y="6" x="6" height="38" width="38"
                fill="#f2f5e9" fill-opacity="0.5" stroke="#606060" stroke-width="1.0"/>
           <path id="arrow"
             d="M 11.500037,31.436501 C 11.940474,20.09759 22.043105,11.32322 32.158766,21.979434 L 37.068811,17.246167 C 37.068811,17.246167 37.088388,32 37.088388,32 L 22.160133,31.978069 C 22.160133,31.978069 26.997745,27.140456 26.997745,27.140456 C 18.528582,18.264221 13.291696,25.230495 11.500037,31.436501 z"
             style="fill:#404040;"/>
          </a>
         </g>
        </svg>
</svg>
