<?xml version="1.0" encoding="UTF-8" standalone="no"?>
<!DOCTYPE svg PUBLIC "-//W3C//DTD SVG 1.1//EN"
 "http://www.w3.org/Graphics/SVG/1.1/DTD/svg11.dtd">
<!-- Generated by graphviz version 2.38.0 (20140413.2041)
 -->
<!-- Title: Framework/include/QualityControl/TaskConfig.h Pages: 1 -->
<!--zoomable 374 -->
<svg id="main" version="1.1" xmlns="http://www.w3.org/2000/svg" xmlns:xlink="http://www.w3.org/1999/xlink" xml:space="preserve" onload="init(evt)">
<style type="text/css"><![CDATA[
.edge:hover path { stroke: red; }
.edge:hover polygon { stroke: red; fill: red; }
]]></style>
<script type="text/javascript"><![CDATA[
var edges = document.getElementsByTagName('g');
if (edges && edges.length) {
  for (var i=0;i<edges.length;i++) {
    if (edges[i].id.substr(0,4)=='edge') {
      edges[i].setAttribute('class','edge');
    }
  }
}
]]></script>
        <defs>
                <circle id="rim" cx="0" cy="0" r="7"/>
                <circle id="rim2" cx="0" cy="0" r="3.5"/>
                <g id="zoomPlus">
                        <use xlink:href="#rim" fill="#404040">
                                <set attributeName="fill" to="#808080" begin="zoomplus.mouseover" end="zoomplus.mouseout"/>
                        </use>
                        <path d="M-4,0h8M0,-4v8" fill="none" stroke="white" stroke-width="1.5" pointer-events="none"/>
                </g>
                <g id="zoomMin">
                        <use xlink:href="#rim" fill="#404040">
                                <set attributeName="fill" to="#808080" begin="zoomminus.mouseover" end="zoomminus.mouseout"/>
                        </use>
                        <path d="M-4,0h8" fill="none" stroke="white" stroke-width="1.5" pointer-events="none"/>
                </g>
                <g id="dirArrow">
                        <path fill="none" stroke="white" stroke-width="1.5" d="M0,-3.0v7 M-2.5,-0.5L0,-3.0L2.5,-0.5"/>
                </g>
               <g id="resetDef">
                       <use xlink:href="#rim2" fill="#404040">
                               <set attributeName="fill" to="#808080" begin="reset.mouseover" end="reset.mouseout"/>
                       </use>
               </g>
        </defs>

<script type="text/javascript">
var viewWidth = 2536;
var viewHeight = 374;
var sectionId = 'dynsection-1';
</script>
<script xlink:href="svgpan.js"/>
<svg id="graph" class="graph">
<g id="viewport">
<title>Framework/include/QualityControl/TaskConfig.h</title>
<!-- Node1 -->
<g id="node1" class="node"><title>Node1</title>
<polygon fill="#bfbfbf" stroke="black" points="1207.27,-335.5 1207.27,-365.5 1340.27,-365.5 1340.27,-335.5 1207.27,-335.5"/>
<text text-anchor="start" x="1215.27" y="-353.5" font-family="Helvetica,sans-Serif" font-size="10.00">Framework/include/Quality</text>
<text text-anchor="middle" x="1273.77" y="-342.5" font-family="Helvetica,sans-Serif" font-size="10.00">Control/TaskConfig.h</text>
</g>
<!-- Node2 -->
<g id="node2" class="node"><title>Node2</title>
<g id="a_node2"><a xlink:href="ObjectsManager_8h.html" target="_top" xlink:title="Framework/include/Quality\lControl/ObjectsManager.h">
<polygon fill="none" stroke="black" points="1426.27,-268.5 1426.27,-298.5 1559.27,-298.5 1559.27,-268.5 1426.27,-268.5"/>
<text text-anchor="start" x="1434.27" y="-286.5" font-family="Helvetica,sans-Serif" font-size="10.00">Framework/include/Quality</text>
<text text-anchor="middle" x="1492.77" y="-275.5" font-family="Helvetica,sans-Serif" font-size="10.00">Control/ObjectsManager.h</text>
</a>
</g>
</g>
<!-- Node1&#45;&gt;Node2 -->
<g id="edge1" class="edge"><title>Node1&#45;&gt;Node2</title>
<path fill="none" stroke="midnightblue" d="M1330.78,-332.58C1366.35,-322.022 1411.6,-308.592 1445.23,-298.611"/>
<polygon fill="midnightblue" stroke="midnightblue" points="1329.61,-329.275 1321.02,-335.476 1331.61,-335.986 1329.61,-329.275"/>
</g>
<!-- Node11 -->
<g id="node11" class="node"><title>Node11</title>
<g id="a_node11"><a xlink:href="TaskFactory_8h.html" target="_top" xlink:title="Framework/include/Quality\lControl/TaskFactory.h">
<polygon fill="none" stroke="black" points="1439.27,-67.5 1439.27,-97.5 1572.27,-97.5 1572.27,-67.5 1439.27,-67.5"/>
<text text-anchor="start" x="1447.27" y="-85.5" font-family="Helvetica,sans-Serif" font-size="10.00">Framework/include/Quality</text>
<text text-anchor="middle" x="1505.77" y="-74.5" font-family="Helvetica,sans-Serif" font-size="10.00">Control/TaskFactory.h</text>
</a>
</g>
</g>
<!-- Node1&#45;&gt;Node11 -->
<g id="edge53" class="edge"><title>Node1&#45;&gt;Node11</title>
<path fill="none" stroke="midnightblue" d="M1278.3,-325.352C1285.18,-293.948 1300.75,-238.667 1330.77,-201 1369.78,-152.067 1434.76,-116.079 1473.61,-97.5754"/>
<polygon fill="midnightblue" stroke="midnightblue" points="1274.82,-324.894 1276.22,-335.396 1281.68,-326.313 1274.82,-324.894"/>
</g>
<!-- Node29 -->
<g id="node29" class="node"><title>Node29</title>
<g id="a_node29"><a xlink:href="TaskRunner_8h.html" target="_top" xlink:title="Framework/include/Quality\lControl/TaskRunner.h">
<polygon fill="none" stroke="black" points="229.274,-134.5 229.274,-164.5 362.274,-164.5 362.274,-134.5 229.274,-134.5"/>
<text text-anchor="start" x="237.274" y="-152.5" font-family="Helvetica,sans-Serif" font-size="10.00">Framework/include/Quality</text>
<text text-anchor="middle" x="295.774" y="-141.5" font-family="Helvetica,sans-Serif" font-size="10.00">Control/TaskRunner.h</text>
</a>
</g>
</g>
<!-- Node1&#45;&gt;Node29 -->
<g id="edge54" class="edge"><title>Node1&#45;&gt;Node29</title>
<path fill="none" stroke="midnightblue" d="M1196.96,-333.869C1010.79,-295.988 537.943,-199.776 362.568,-164.091"/>
<polygon fill="midnightblue" stroke="midnightblue" points="1196.44,-337.336 1206.94,-335.9 1197.84,-330.477 1196.44,-337.336"/>
</g>
<!-- Node3 -->
<g id="node3" class="node"><title>Node3</title>
<g id="a_node3"><a xlink:href="TaskInterface_8h.html" target="_top" xlink:title="Framework/include/Quality\lControl/TaskInterface.h">
<polygon fill="none" stroke="black" points="1678.27,-201.5 1678.27,-231.5 1811.27,-231.5 1811.27,-201.5 1678.27,-201.5"/>
<text text-anchor="start" x="1686.27" y="-219.5" font-family="Helvetica,sans-Serif" font-size="10.00">Framework/include/Quality</text>
<text text-anchor="middle" x="1744.77" y="-208.5" font-family="Helvetica,sans-Serif" font-size="10.00">Control/TaskInterface.h</text>
</a>
</g>
</g>
<!-- Node2&#45;&gt;Node3 -->
<g id="edge2" class="edge"><title>Node2&#45;&gt;Node3</title>
<path fill="none" stroke="midnightblue" d="M1557.06,-265.917C1598.19,-255.31 1650.96,-241.699 1690.07,-231.611"/>
<polygon fill="midnightblue" stroke="midnightblue" points="1555.95,-262.589 1547.14,-268.476 1557.7,-269.367 1555.95,-262.589"/>
</g>
<!-- Node15 -->
<g id="node15" class="node"><title>Node15</title>
<polygon fill="none" stroke="#bfbfbf" points="2413.77,-0.5 2413.77,-30.5 2527.77,-30.5 2527.77,-0.5 2413.77,-0.5"/>
<text text-anchor="start" x="2421.77" y="-18.5" font-family="Helvetica,sans-Serif" font-size="10.00">Modules/Example/test</text>
<text text-anchor="middle" x="2470.77" y="-7.5" font-family="Helvetica,sans-Serif" font-size="10.00">/testFactory.cxx</text>
</g>
<!-- Node2&#45;&gt;Node15 -->
<g id="edge52" class="edge"><title>Node2&#45;&gt;Node15</title>
<path fill="none" stroke="midnightblue" d="M1569.75,-278.866C1789.09,-267.742 2405.39,-230.851 2465.77,-165 2500.12,-127.546 2484.57,-59.7975 2475.57,-30.5592"/>
<polygon fill="midnightblue" stroke="midnightblue" points="1569.43,-275.378 1559.61,-279.376 1569.78,-282.369 1569.43,-275.378"/>
</g>
<!-- Node22 -->
<g id="node22" class="node"><title>Node22</title>
<g id="a_node22"><a xlink:href="ObjectsManager_8cxx.html" target="_top" xlink:title="Framework/src/ObjectsManager.cxx">
<polygon fill="none" stroke="black" points="372.274,-73 372.274,-92 547.274,-92 547.274,-73 372.274,-73"/>
<text text-anchor="middle" x="459.774" y="-80" font-family="Helvetica,sans-Serif" font-size="10.00">Framework/src/ObjectsManager.cxx</text>
</a>
</g>
</g>
<!-- Node2&#45;&gt;Node22 -->
<g id="edge49" class="edge"><title>Node2&#45;&gt;Node22</title>
<path fill="none" stroke="midnightblue" d="M1415.78,-270.044C1291.54,-249.693 1039.3,-207.323 826.774,-165 704.834,-140.716 561.15,-107.443 495.608,-92.0065"/>
<polygon fill="midnightblue" stroke="midnightblue" points="1415.52,-273.548 1425.95,-271.708 1416.65,-266.639 1415.52,-273.548"/>
</g>
<!-- Node37 -->
<g id="node37" class="node"><title>Node37</title>
<polygon fill="none" stroke="#bfbfbf" points="1339.77,-201.5 1339.77,-231.5 1477.77,-231.5 1477.77,-201.5 1339.77,-201.5"/>
<text text-anchor="start" x="1347.77" y="-219.5" font-family="Helvetica,sans-Serif" font-size="10.00">Framework/test/testObjects</text>
<text text-anchor="middle" x="1408.77" y="-208.5" font-family="Helvetica,sans-Serif" font-size="10.00">Manager.cxx</text>
</g>
<!-- Node2&#45;&gt;Node37 -->
<g id="edge50" class="edge"><title>Node2&#45;&gt;Node37</title>
<path fill="none" stroke="midnightblue" d="M1466.5,-262.168C1453.65,-252.228 1438.52,-240.514 1426.97,-231.577"/>
<polygon fill="midnightblue" stroke="midnightblue" points="1464.5,-265.044 1474.55,-268.396 1468.78,-259.508 1464.5,-265.044"/>
</g>
<!-- Node38 -->
<g id="node38" class="node"><title>Node38</title>
<g id="a_node38"><a xlink:href="testPublisher_8cxx.html" target="_top" xlink:title="Framework/test/testPublisher.cxx">
<polygon fill="none" stroke="black" points="1495.77,-207 1495.77,-226 1659.77,-226 1659.77,-207 1495.77,-207"/>
<text text-anchor="middle" x="1577.77" y="-214" font-family="Helvetica,sans-Serif" font-size="10.00">Framework/test/testPublisher.cxx</text>
</a>
</g>
</g>
<!-- Node2&#45;&gt;Node38 -->
<g id="edge51" class="edge"><title>Node2&#45;&gt;Node38</title>
<path fill="none" stroke="midnightblue" d="M1519.57,-262.008C1535.35,-249.941 1554.49,-235.305 1566.4,-226.195"/>
<polygon fill="midnightblue" stroke="midnightblue" points="1517.04,-259.541 1511.22,-268.396 1521.29,-265.102 1517.04,-259.541"/>
</g>
<!-- Node4 -->
<g id="node4" class="node"><title>Node4</title>
<g id="a_node4"><a xlink:href="QcInfoLogger_8h.html" target="_top" xlink:title="Framework/include/Quality\lControl/QcInfoLogger.h">
<polygon fill="none" stroke="black" points="1135.27,-134.5 1135.27,-164.5 1268.27,-164.5 1268.27,-134.5 1135.27,-134.5"/>
<text text-anchor="start" x="1143.27" y="-152.5" font-family="Helvetica,sans-Serif" font-size="10.00">Framework/include/Quality</text>
<text text-anchor="middle" x="1201.77" y="-141.5" font-family="Helvetica,sans-Serif" font-size="10.00">Control/QcInfoLogger.h</text>
</a>
</g>
</g>
<!-- Node3&#45;&gt;Node4 -->
<g id="edge3" class="edge"><title>Node3&#45;&gt;Node4</title>
<path fill="none" stroke="midnightblue" d="M1667.88,-200.947C1519.33,-179.107 1357.28,-163.715 1268.5,-156.007"/>
<polygon fill="midnightblue" stroke="midnightblue" points="1667.69,-204.458 1678.1,-202.463 1668.72,-197.534 1667.69,-204.458"/>
</g>
<!-- Node13 -->
<g id="node13" class="node"><title>Node13</title>
<g id="a_node13"><a xlink:href="testQCTask_8cxx.html" target="_top" xlink:title="Framework/test/testQCTask.cxx">
<polygon fill="none" stroke="black" points="495.774,-6 495.774,-25 655.774,-25 655.774,-6 495.774,-6"/>
<text text-anchor="middle" x="575.774" y="-13" font-family="Helvetica,sans-Serif" font-size="10.00">Framework/test/testQCTask.cxx</text>
</a>
</g>
</g>
<!-- Node3&#45;&gt;Node13 -->
<g id="edge36" class="edge"><title>Node3&#45;&gt;Node13</title>
<path fill="none" stroke="midnightblue" d="M1667.8,-201.112C1514.3,-184.917 729.116,-156.774 632.774,-98 604.031,-80.4651 586.004,-42.356 579.045,-25.1902"/>
<polygon fill="midnightblue" stroke="midnightblue" points="1667.78,-204.633 1678.12,-202.305 1668.59,-197.679 1667.78,-204.633"/>
</g>
<!-- Node19 -->
<g id="node19" class="node"><title>Node19</title>
<g id="a_node19"><a xlink:href="DatabaseFactory_8cxx.html" target="_top" xlink:title="Framework/src/DatabaseFactory.cxx">
<polygon fill="none" stroke="black" points="1590.27,-73 1590.27,-92 1769.27,-92 1769.27,-73 1590.27,-73"/>
<text text-anchor="middle" x="1679.77" y="-80" font-family="Helvetica,sans-Serif" font-size="10.00">Framework/src/DatabaseFactory.cxx</text>
</a>
</g>
</g>
<!-- Node3&#45;&gt;Node19 -->
<g id="edge34" class="edge"><title>Node3&#45;&gt;Node19</title>
<path fill="none" stroke="midnightblue" d="M1709.64,-195.802C1698.71,-187.767 1687.92,-177.413 1681.77,-165 1669.84,-140.901 1674.52,-107.68 1677.72,-92.1527"/>
<polygon fill="midnightblue" stroke="midnightblue" points="1707.72,-198.731 1717.95,-201.491 1711.67,-192.954 1707.72,-198.731"/>
</g>
<!-- Node3&#45;&gt;Node29 -->
<g id="edge29" class="edge"><title>Node3&#45;&gt;Node29</title>
<path fill="none" stroke="midnightblue" d="M1668.07,-201.152C1499.29,-185.125 613.642,-159.432 362.296,-152.353"/>
<polygon fill="midnightblue" stroke="midnightblue" points="1667.83,-204.645 1678.13,-202.193 1668.55,-197.683 1667.83,-204.645"/>
</g>
<!-- Node32 -->
<g id="node32" class="node"><title>Node32</title>
<g id="a_node32"><a xlink:href="TaskInterface_8cxx.html" target="_top" xlink:title="Framework/src/TaskInterface.cxx">
<polygon fill="none" stroke="black" points="1816.77,-140 1816.77,-159 1980.77,-159 1980.77,-140 1816.77,-140"/>
<text text-anchor="middle" x="1898.77" y="-147" font-family="Helvetica,sans-Serif" font-size="10.00">Framework/src/TaskInterface.cxx</text>
</a>
</g>
</g>
<!-- Node3&#45;&gt;Node32 -->
<g id="edge35" class="edge"><title>Node3&#45;&gt;Node32</title>
<path fill="none" stroke="midnightblue" d="M1787.52,-197.458C1817.27,-184.9 1855.6,-168.724 1878.62,-159.007"/>
<polygon fill="midnightblue" stroke="midnightblue" points="1786.04,-194.283 1778.19,-201.396 1788.76,-200.732 1786.04,-194.283"/>
</g>
<!-- Node33 -->
<g id="node33" class="node"><title>Node33</title>
<g id="a_node33"><a xlink:href="DaqTask_8h.html" target="_top" xlink:title="Modules/Daq/include\l/Daq/DaqTask.h">
<polygon fill="none" stroke="black" points="1690.77,-134.5 1690.77,-164.5 1798.77,-164.5 1798.77,-134.5 1690.77,-134.5"/>
<text text-anchor="start" x="1698.77" y="-152.5" font-family="Helvetica,sans-Serif" font-size="10.00">Modules/Daq/include</text>
<text text-anchor="middle" x="1744.77" y="-141.5" font-family="Helvetica,sans-Serif" font-size="10.00">/Daq/DaqTask.h</text>
</a>
</g>
</g>
<!-- Node3&#45;&gt;Node33 -->
<g id="edge37" class="edge"><title>Node3&#45;&gt;Node33</title>
<path fill="none" stroke="midnightblue" d="M1744.77,-191.108C1744.77,-182.154 1744.77,-172.323 1744.77,-164.577"/>
<polygon fill="midnightblue" stroke="midnightblue" points="1741.27,-191.396 1744.77,-201.396 1748.27,-191.396 1741.27,-191.396"/>
</g>
<!-- Node34 -->
<g id="node34" class="node"><title>Node34</title>
<g id="a_node34"><a xlink:href="BenchmarkTask_8h.html" target="_top" xlink:title="Modules/Example/include\l/Example/BenchmarkTask.h">
<polygon fill="none" stroke="black" points="1998.77,-134.5 1998.77,-164.5 2138.77,-164.5 2138.77,-134.5 1998.77,-134.5"/>
<text text-anchor="start" x="2006.77" y="-152.5" font-family="Helvetica,sans-Serif" font-size="10.00">Modules/Example/include</text>
<text text-anchor="middle" x="2068.77" y="-141.5" font-family="Helvetica,sans-Serif" font-size="10.00">/Example/BenchmarkTask.h</text>
</a>
</g>
</g>
<!-- Node3&#45;&gt;Node34 -->
<g id="edge40" class="edge"><title>Node3&#45;&gt;Node34</title>
<path fill="none" stroke="midnightblue" d="M1821.34,-200.139C1875.12,-189.35 1946.49,-175.032 1998.76,-164.546"/>
<polygon fill="midnightblue" stroke="midnightblue" points="1820.63,-196.712 1811.51,-202.111 1822.01,-203.575 1820.63,-196.712"/>
</g>
<!-- Node35 -->
<g id="node35" class="node"><title>Node35</title>
<g id="a_node35"><a xlink:href="ExampleTask_8h.html" target="_top" xlink:title="Modules/Example/include\l/Example/ExampleTask.h">
<polygon fill="none" stroke="black" points="2328.27,-134.5 2328.27,-164.5 2457.27,-164.5 2457.27,-134.5 2328.27,-134.5"/>
<text text-anchor="start" x="2336.27" y="-152.5" font-family="Helvetica,sans-Serif" font-size="10.00">Modules/Example/include</text>
<text text-anchor="middle" x="2392.77" y="-141.5" font-family="Helvetica,sans-Serif" font-size="10.00">/Example/ExampleTask.h</text>
</a>
</g>
</g>
<!-- Node3&#45;&gt;Node35 -->
<g id="edge42" class="edge"><title>Node3&#45;&gt;Node35</title>
<path fill="none" stroke="midnightblue" d="M1821.36,-209.814C1927.76,-201.608 2126.22,-185.192 2294.77,-165 2305.62,-163.701 2317.11,-162.154 2328.27,-160.563"/>
<polygon fill="midnightblue" stroke="midnightblue" points="1821.06,-206.326 1811.36,-210.582 1821.6,-213.306 1821.06,-206.326"/>
</g>
<!-- Node36 -->
<g id="node36" class="node"><title>Node36</title>
<g id="a_node36"><a xlink:href="SkeletonTask_8h.html" target="_top" xlink:title="Modules/Skeleton/include\l/Skeleton/SkeletonTask.h">
<polygon fill="none" stroke="black" points="2157.27,-134.5 2157.27,-164.5 2286.27,-164.5 2286.27,-134.5 2157.27,-134.5"/>
<text text-anchor="start" x="2165.27" y="-152.5" font-family="Helvetica,sans-Serif" font-size="10.00">Modules/Skeleton/include</text>
<text text-anchor="middle" x="2221.77" y="-141.5" font-family="Helvetica,sans-Serif" font-size="10.00">/Skeleton/SkeletonTask.h</text>
</a>
</g>
</g>
<!-- Node3&#45;&gt;Node36 -->
<g id="edge46" class="edge"><title>Node3&#45;&gt;Node36</title>
<path fill="none" stroke="midnightblue" d="M1821.43,-207.483C1902.67,-198.615 2034.6,-183.156 2147.77,-165 2150.88,-164.502 2154.05,-163.97 2157.25,-163.415"/>
<polygon fill="midnightblue" stroke="midnightblue" points="1820.86,-204.025 1811.29,-208.584 1821.61,-210.984 1820.86,-204.025"/>
</g>
<!-- Node5 -->
<g id="node5" class="node"><title>Node5</title>
<g id="a_node5"><a xlink:href="Checker_8h.html" target="_top" xlink:title="Framework/include/Quality\lControl/Checker.h">
<polygon fill="none" stroke="black" points="642.274,-67.5 642.274,-97.5 775.274,-97.5 775.274,-67.5 642.274,-67.5"/>
<text text-anchor="start" x="650.274" y="-85.5" font-family="Helvetica,sans-Serif" font-size="10.00">Framework/include/Quality</text>
<text text-anchor="middle" x="708.774" y="-74.5" font-family="Helvetica,sans-Serif" font-size="10.00">Control/Checker.h</text>
</a>
</g>
</g>
<!-- Node4&#45;&gt;Node5 -->
<g id="edge4" class="edge"><title>Node4&#45;&gt;Node5</title>
<path fill="none" stroke="midnightblue" d="M1125,-140.871C1040.98,-132.139 902.436,-116.615 783.774,-98 781.023,-97.5684 778.218,-97.11 775.387,-96.6322"/>
<polygon fill="midnightblue" stroke="midnightblue" points="1124.66,-144.355 1134.97,-141.902 1125.38,-137.392 1124.66,-144.355"/>
</g>
<!-- Node4&#45;&gt;Node11 -->
<g id="edge10" class="edge"><title>Node4&#45;&gt;Node11</title>
<path fill="none" stroke="midnightblue" d="M1277.15,-132.382C1327.16,-121.691 1392.14,-107.796 1440.04,-97.5549"/>
<polygon fill="midnightblue" stroke="midnightblue" points="1276.41,-128.962 1267.36,-134.476 1277.87,-135.808 1276.41,-128.962"/>
</g>
<!-- Node12 -->
<g id="node12" class="node"><title>Node12</title>
<g id="a_node12"><a xlink:href="TaskRunner_8cxx.html" target="_top" xlink:title="Framework/src/TaskRunner.cxx">
<polygon fill="none" stroke="black" points="320.274,-6 320.274,-25 477.274,-25 477.274,-6 320.274,-6"/>
<text text-anchor="middle" x="398.774" y="-13" font-family="Helvetica,sans-Serif" font-size="10.00">Framework/src/TaskRunner.cxx</text>
</a>
</g>
</g>
<!-- Node4&#45;&gt;Node12 -->
<g id="edge23" class="edge"><title>Node4&#45;&gt;Node12</title>
<path fill="none" stroke="midnightblue" d="M1125,-148.789C1014.6,-147.613 805.306,-139.424 632.774,-98 596.902,-89.3874 590.467,-79.5451 555.774,-67 511.346,-50.9348 458.967,-34.5999 427.343,-25.0168"/>
<polygon fill="midnightblue" stroke="midnightblue" points="1125.02,-152.289 1135.05,-148.879 1125.08,-145.289 1125.02,-152.289"/>
</g>
<!-- Node4&#45;&gt;Node19 -->
<g id="edge18" class="edge"><title>Node4&#45;&gt;Node19</title>
<path fill="none" stroke="midnightblue" d="M1278.6,-138.56C1355.2,-128.58 1476.18,-112.628 1580.77,-98 1594.28,-96.1114 1608.81,-94.0176 1622.47,-92.0221"/>
<polygon fill="midnightblue" stroke="midnightblue" points="1278.02,-135.105 1268.56,-139.867 1278.93,-142.047 1278.02,-135.105"/>
</g>
<!-- Node20 -->
<g id="node20" class="node"><title>Node20</title>
<g id="a_node20"><a xlink:href="InformationService_8cxx.html" target="_top" xlink:title="Framework/src/Information\lService.cxx">
<polygon fill="none" stroke="black" points="1286.77,-67.5 1286.77,-97.5 1420.77,-97.5 1420.77,-67.5 1286.77,-67.5"/>
<text text-anchor="start" x="1294.77" y="-85.5" font-family="Helvetica,sans-Serif" font-size="10.00">Framework/src/Information</text>
<text text-anchor="middle" x="1353.77" y="-74.5" font-family="Helvetica,sans-Serif" font-size="10.00">Service.cxx</text>
</a>
</g>
</g>
<!-- Node4&#45;&gt;Node20 -->
<g id="edge19" class="edge"><title>Node4&#45;&gt;Node20</title>
<path fill="none" stroke="midnightblue" d="M1244.08,-130.407C1268.35,-120.029 1298.36,-107.195 1320.86,-97.5765"/>
<polygon fill="midnightblue" stroke="midnightblue" points="1242.57,-127.246 1234.76,-134.396 1245.33,-133.682 1242.57,-127.246"/>
</g>
<!-- Node21 -->
<g id="node21" class="node"><title>Node21</title>
<g id="a_node21"><a xlink:href="MySqlDatabase_8cxx.html" target="_top" xlink:title="Framework/src/MySqlDatabase.cxx">
<polygon fill="none" stroke="black" points="793.274,-73 793.274,-92 966.274,-92 966.274,-73 793.274,-73"/>
<text text-anchor="middle" x="879.774" y="-80" font-family="Helvetica,sans-Serif" font-size="10.00">Framework/src/MySqlDatabase.cxx</text>
</a>
</g>
</g>
<!-- Node4&#45;&gt;Node21 -->
<g id="edge20" class="edge"><title>Node4&#45;&gt;Node21</title>
<path fill="none" stroke="midnightblue" d="M1125.09,-133.02C1061.64,-120.211 973.842,-102.489 922.307,-92.0859"/>
<polygon fill="midnightblue" stroke="midnightblue" points="1124.56,-136.484 1135.06,-135.032 1125.95,-129.622 1124.56,-136.484"/>
</g>
<!-- Node4&#45;&gt;Node22 -->
<g id="edge21" class="edge"><title>Node4&#45;&gt;Node22</title>
<path fill="none" stroke="midnightblue" d="M1124.85,-142.531C1010.35,-133.535 788.311,-115.67 599.774,-98 580.189,-96.1645 559.078,-94.0496 539.337,-92.0125"/>
<polygon fill="midnightblue" stroke="midnightblue" points="1124.68,-146.028 1134.92,-143.321 1125.23,-139.049 1124.68,-146.028"/>
</g>
<!-- Node23 -->
<g id="node23" class="node"><title>Node23</title>
<g id="a_node23"><a xlink:href="RepositoryBenchmark_8cxx.html" target="_top" xlink:title="Framework/src/Repository\lBenchmark.cxx">
<polygon fill="none" stroke="black" points="984.774,-67.5 984.774,-97.5 1116.77,-97.5 1116.77,-67.5 984.774,-67.5"/>
<text text-anchor="start" x="992.774" y="-85.5" font-family="Helvetica,sans-Serif" font-size="10.00">Framework/src/Repository</text>
<text text-anchor="middle" x="1050.77" y="-74.5" font-family="Helvetica,sans-Serif" font-size="10.00">Benchmark.cxx</text>
</a>
</g>
</g>
<!-- Node4&#45;&gt;Node23 -->
<g id="edge22" class="edge"><title>Node4&#45;&gt;Node23</title>
<path fill="none" stroke="midnightblue" d="M1159.74,-130.407C1135.63,-120.029 1105.82,-107.195 1083.47,-97.5765"/>
<polygon fill="midnightblue" stroke="midnightblue" points="1158.44,-133.657 1169.01,-134.396 1161.21,-127.227 1158.44,-133.657"/>
</g>
<!-- Node24 -->
<g id="node24" class="node"><title>Node24</title>
<g id="a_node24"><a xlink:href="testQcInfoLogger_8cxx.html" target="_top" xlink:title="Framework/test/testQcInfo\lLogger.cxx">
<polygon fill="none" stroke="black" points="1134.77,-67.5 1134.77,-97.5 1268.77,-97.5 1268.77,-67.5 1134.77,-67.5"/>
<text text-anchor="start" x="1142.77" y="-85.5" font-family="Helvetica,sans-Serif" font-size="10.00">Framework/test/testQcInfo</text>
<text text-anchor="middle" x="1201.77" y="-74.5" font-family="Helvetica,sans-Serif" font-size="10.00">Logger.cxx</text>
</a>
</g>
</g>
<!-- Node4&#45;&gt;Node24 -->
<g id="edge24" class="edge"><title>Node4&#45;&gt;Node24</title>
<path fill="none" stroke="midnightblue" d="M1201.77,-124.108C1201.77,-115.154 1201.77,-105.323 1201.77,-97.5765"/>
<polygon fill="midnightblue" stroke="midnightblue" points="1198.27,-124.396 1201.77,-134.396 1205.27,-124.396 1198.27,-124.396"/>
</g>
<!-- Node25 -->
<g id="node25" class="node"><title>Node25</title>
<g id="a_node25"><a xlink:href="DaqTask_8cxx.html" target="_top" xlink:title="Modules/Daq/src/DaqTask.cxx">
<polygon fill="none" stroke="black" points="1787.77,-73 1787.77,-92 1939.77,-92 1939.77,-73 1787.77,-73"/>
<text text-anchor="middle" x="1863.77" y="-80" font-family="Helvetica,sans-Serif" font-size="10.00">Modules/Daq/src/DaqTask.cxx</text>
</a>
</g>
</g>
<!-- Node4&#45;&gt;Node25 -->
<g id="edge25" class="edge"><title>Node4&#45;&gt;Node25</title>
<path fill="none" stroke="midnightblue" d="M1278.54,-143.72C1389.15,-136.392 1599.63,-120.791 1777.77,-98 1790.69,-96.3476 1804.63,-94.169 1817.46,-92.0043"/>
<polygon fill="midnightblue" stroke="midnightblue" points="1278.23,-140.233 1268.48,-144.383 1278.69,-147.218 1278.23,-140.233"/>
</g>
<!-- Node26 -->
<g id="node26" class="node"><title>Node26</title>
<g id="a_node26"><a xlink:href="BenchmarkTask_8cxx.html" target="_top" xlink:title="Modules/Example/src\l/BenchmarkTask.cxx">
<polygon fill="none" stroke="black" points="1996.27,-67.5 1996.27,-97.5 2107.27,-97.5 2107.27,-67.5 1996.27,-67.5"/>
<text text-anchor="start" x="2004.27" y="-85.5" font-family="Helvetica,sans-Serif" font-size="10.00">Modules/Example/src</text>
<text text-anchor="middle" x="2051.77" y="-74.5" font-family="Helvetica,sans-Serif" font-size="10.00">/BenchmarkTask.cxx</text>
</a>
</g>
</g>
<!-- Node4&#45;&gt;Node26 -->
<g id="edge26" class="edge"><title>Node4&#45;&gt;Node26</title>
<path fill="none" stroke="midnightblue" d="M1278.65,-145.141C1414.23,-138.806 1704.64,-123.402 1948.77,-98 1964.22,-96.3927 1980.91,-94.229 1996.27,-92.064"/>
<polygon fill="midnightblue" stroke="midnightblue" points="1278.19,-141.658 1268.37,-145.618 1278.52,-148.651 1278.19,-141.658"/>
</g>
<!-- Node27 -->
<g id="node27" class="node"><title>Node27</title>
<g id="a_node27"><a xlink:href="ExampleTask_8cxx.html" target="_top" xlink:title="Modules/Example/src\l/ExampleTask.cxx">
<polygon fill="none" stroke="black" points="2293.27,-67.5 2293.27,-97.5 2404.27,-97.5 2404.27,-67.5 2293.27,-67.5"/>
<text text-anchor="start" x="2301.27" y="-85.5" font-family="Helvetica,sans-Serif" font-size="10.00">Modules/Example/src</text>
<text text-anchor="middle" x="2348.77" y="-74.5" font-family="Helvetica,sans-Serif" font-size="10.00">/ExampleTask.cxx</text>
</a>
</g>
</g>
<!-- Node4&#45;&gt;Node27 -->
<g id="edge27" class="edge"><title>Node4&#45;&gt;Node27</title>
<path fill="none" stroke="midnightblue" d="M1278.63,-145.68C1486.57,-137.907 2057.18,-115.583 2244.77,-98 2260.47,-96.5284 2277.44,-94.3959 2293.02,-92.217"/>
<polygon fill="midnightblue" stroke="midnightblue" points="1278.28,-142.191 1268.41,-146.061 1278.54,-149.186 1278.28,-142.191"/>
</g>
<!-- Node28 -->
<g id="node28" class="node"><title>Node28</title>
<g id="a_node28"><a xlink:href="SkeletonTask_8cxx.html" target="_top" xlink:title="Modules/Skeleton/src\l/SkeletonTask.cxx">
<polygon fill="none" stroke="black" points="2125.27,-67.5 2125.27,-97.5 2236.27,-97.5 2236.27,-67.5 2125.27,-67.5"/>
<text text-anchor="start" x="2133.27" y="-85.5" font-family="Helvetica,sans-Serif" font-size="10.00">Modules/Skeleton/src</text>
<text text-anchor="middle" x="2180.77" y="-74.5" font-family="Helvetica,sans-Serif" font-size="10.00">/SkeletonTask.cxx</text>
</a>
</g>
</g>
<!-- Node4&#45;&gt;Node28 -->
<g id="edge28" class="edge"><title>Node4&#45;&gt;Node28</title>
<path fill="none" stroke="midnightblue" d="M1278.69,-145.879C1468.41,-139.151 1954.91,-120.233 2115.77,-98 2118.87,-97.5726 2122.03,-97.0741 2125.21,-96.5242"/>
<polygon fill="midnightblue" stroke="midnightblue" points="1278.4,-142.387 1268.53,-146.238 1278.64,-149.383 1278.4,-142.387"/>
</g>
<!-- Node6 -->
<g id="node6" class="node"><title>Node6</title>
<g id="a_node6"><a xlink:href="Checker_8cxx.html" target="_top" xlink:title="Framework/src/Checker.cxx">
<polygon fill="none" stroke="black" points="161.774,-6 161.774,-25 301.774,-25 301.774,-6 161.774,-6"/>
<text text-anchor="middle" x="231.774" y="-13" font-family="Helvetica,sans-Serif" font-size="10.00">Framework/src/Checker.cxx</text>
</a>
</g>
</g>
<!-- Node5&#45;&gt;Node6 -->
<g id="edge5" class="edge"><title>Node5&#45;&gt;Node6</title>
<path fill="none" stroke="midnightblue" d="M632.044,-73.0396C551.763,-63.8894 422.158,-48.2749 310.774,-31 299.475,-29.2476 287.309,-27.1301 275.99,-25.0612"/>
<polygon fill="midnightblue" stroke="midnightblue" points="631.737,-76.5272 642.068,-74.1778 632.527,-69.5719 631.737,-76.5272"/>
</g>
<!-- Node7 -->
<g id="node7" class="node"><title>Node7</title>
<g id="a_node7"><a xlink:href="CheckerFactory_8cxx.html" target="_top" xlink:title="Framework/src/CheckerFactory.cxx">
<polygon fill="none" stroke="black" points="674.274,-6 674.274,-25 847.274,-25 847.274,-6 674.274,-6"/>
<text text-anchor="middle" x="760.774" y="-13" font-family="Helvetica,sans-Serif" font-size="10.00">Framework/src/CheckerFactory.cxx</text>
</a>
</g>
</g>
<!-- Node5&#45;&gt;Node7 -->
<g id="edge6" class="edge"><title>Node5&#45;&gt;Node7</title>
<path fill="none" stroke="midnightblue" d="M726.521,-59.3163C735.896,-47.5978 746.868,-33.8829 753.818,-25.1945"/>
<polygon fill="midnightblue" stroke="midnightblue" points="723.571,-57.4008 720.057,-67.396 729.037,-61.7737 723.571,-57.4008"/>
</g>
<!-- Node8 -->
<g id="node8" class="node"><title>Node8</title>
<g id="a_node8"><a xlink:href="runBasic_8cxx.html" target="_top" xlink:title="This is an executable showing QC Task&#39;s usage in Data Processing Layer. ">
<polygon fill="none" stroke="black" points="865.774,-6 865.774,-25 1007.77,-25 1007.77,-6 865.774,-6"/>
<text text-anchor="middle" x="936.774" y="-13" font-family="Helvetica,sans-Serif" font-size="10.00">Framework/src/runBasic.cxx</text>
</a>
</g>
</g>
<!-- Node5&#45;&gt;Node8 -->
<g id="edge7" class="edge"><title>Node5&#45;&gt;Node8</title>
<path fill="none" stroke="midnightblue" d="M767.807,-64.6705C812.367,-51.967 871.657,-35.064 906.858,-25.0287"/>
<polygon fill="midnightblue" stroke="midnightblue" points="766.623,-61.3684 757.966,-67.476 768.542,-68.1002 766.623,-61.3684"/>
</g>
<!-- Node9 -->
<g id="node9" class="node"><title>Node9</title>
<g id="a_node9"><a xlink:href="runMergerTest_8cxx.html" target="_top" xlink:title="This is DPL workflow to see HistoMerger in action. ">
<polygon fill="none" stroke="black" points="1026.27,-6 1026.27,-25 1193.27,-25 1193.27,-6 1026.27,-6"/>
<text text-anchor="middle" x="1109.77" y="-13" font-family="Helvetica,sans-Serif" font-size="10.00">Framework/src/runMergerTest.cxx</text>
</a>
</g>
</g>
<!-- Node5&#45;&gt;Node9 -->
<g id="edge8" class="edge"><title>Node5&#45;&gt;Node9</title>
<path fill="none" stroke="midnightblue" d="M785.312,-66.765C888.668,-48.919 916.364,-46.5846 1016.77,-31 1029.21,-29.0702 1042.58,-26.9895 1055.19,-25.0232"/>
<polygon fill="midnightblue" stroke="midnightblue" points="784.661,-63.3255 775.406,-68.4827 785.857,-70.2226 784.661,-63.3255"/>
</g>
<!-- Node10 -->
<g id="node10" class="node"><title>Node10</title>
<g id="a_node10"><a xlink:href="runReadout_8cxx.html" target="_top" xlink:title="This is an executable showing QC Task&#39;s usage in Data Processing Layer with Readout as external data ...">
<polygon fill="none" stroke="black" points="1211.77,-6 1211.77,-25 1365.77,-25 1365.77,-6 1211.77,-6"/>
<text text-anchor="middle" x="1288.77" y="-13" font-family="Helvetica,sans-Serif" font-size="10.00">Framework/src/runReadout.cxx</text>
</a>
</g>
</g>
<!-- Node5&#45;&gt;Node10 -->
<g id="edge9" class="edge"><title>Node5&#45;&gt;Node10</title>
<path fill="none" stroke="midnightblue" d="M785.419,-66.8622C970.196,-41.7157 1020.03,-53.9353 1201.77,-31 1214.84,-29.3513 1228.94,-27.1739 1241.92,-25.0091"/>
<polygon fill="midnightblue" stroke="midnightblue" points="784.797,-63.4147 775.37,-68.2483 785.754,-70.3491 784.797,-63.4147"/>
</g>
<!-- Node11&#45;&gt;Node12 -->
<g id="edge11" class="edge"><title>Node11&#45;&gt;Node12</title>
<path fill="none" stroke="midnightblue" d="M1428.9,-67.0428C1011.27,-20.4224 900.702,-72.8372 486.774,-31 472.755,-29.5831 457.583,-27.3413 443.85,-25.0401"/>
<polygon fill="midnightblue" stroke="midnightblue" points="1428.8,-70.5545 1439.13,-68.1984 1429.59,-63.5987 1428.8,-70.5545"/>
</g>
<!-- Node11&#45;&gt;Node13 -->
<g id="edge12" class="edge"><title>Node11&#45;&gt;Node13</title>
<path fill="none" stroke="midnightblue" d="M1429.03,-67.0474C1090,-27.7679 999.996,-66.0785 664.774,-31 650.761,-29.5336 635.601,-27.3062 621.832,-25.034"/>
<polygon fill="midnightblue" stroke="midnightblue" points="1428.79,-70.5435 1439.13,-68.2323 1429.6,-63.5912 1428.79,-70.5435"/>
</g>
<!-- Node14 -->
<g id="node14" class="node"><title>Node14</title>
<g id="a_node14"><a xlink:href="testQcDaq_8cxx.html" target="_top" xlink:title="Modules/Daq/test/testQcDaq.cxx">
<polygon fill="none" stroke="black" points="1734.27,-6 1734.27,-25 1897.27,-25 1897.27,-6 1734.27,-6"/>
<text text-anchor="middle" x="1815.77" y="-13" font-family="Helvetica,sans-Serif" font-size="10.00">Modules/Daq/test/testQcDaq.cxx</text>
</a>
</g>
</g>
<!-- Node11&#45;&gt;Node14 -->
<g id="edge13" class="edge"><title>Node11&#45;&gt;Node14</title>
<path fill="none" stroke="midnightblue" d="M1582.24,-65.467C1643.17,-52.6906 1726.11,-35.2998 1775,-25.0503"/>
<polygon fill="midnightblue" stroke="midnightblue" points="1581.35,-62.0781 1572.28,-67.5559 1582.78,-68.9292 1581.35,-62.0781"/>
</g>
<!-- Node11&#45;&gt;Node15 -->
<g id="edge14" class="edge"><title>Node11&#45;&gt;Node15</title>
<path fill="none" stroke="midnightblue" d="M1582.44,-66.9156C1920.93,-27.1726 2010.41,-58.5373 2346.77,-31 2368.7,-29.205 2392.73,-26.5539 2413.75,-24.0079"/>
<polygon fill="midnightblue" stroke="midnightblue" points="1581.87,-63.4586 1572.35,-68.1123 1582.69,-70.4098 1581.87,-63.4586"/>
</g>
<!-- Node16 -->
<g id="node16" class="node"><title>Node16</title>
<g id="a_node16"><a xlink:href="testQcExample_8cxx.html" target="_top" xlink:title="Modules/Example/test\l/testQcExample.cxx">
<polygon fill="none" stroke="black" points="2223.77,-0.5 2223.77,-30.5 2337.77,-30.5 2337.77,-0.5 2223.77,-0.5"/>
<text text-anchor="start" x="2231.77" y="-18.5" font-family="Helvetica,sans-Serif" font-size="10.00">Modules/Example/test</text>
<text text-anchor="middle" x="2280.77" y="-7.5" font-family="Helvetica,sans-Serif" font-size="10.00">/testQcExample.cxx</text>
</a>
</g>
</g>
<!-- Node11&#45;&gt;Node16 -->
<g id="edge15" class="edge"><title>Node11&#45;&gt;Node16</title>
<path fill="none" stroke="midnightblue" d="M1582.31,-66.8948C1810.86,-37.3903 1871.33,-47.8548 2097.77,-31 2139.89,-27.8655 2187.43,-24.0914 2223.5,-21.1794"/>
<polygon fill="midnightblue" stroke="midnightblue" points="1581.83,-63.4289 1572.36,-68.1911 1582.73,-70.3702 1581.83,-63.4289"/>
</g>
<!-- Node17 -->
<g id="node17" class="node"><title>Node17</title>
<polygon fill="none" stroke="#bfbfbf" points="1448.77,-0.5 1448.77,-30.5 1562.77,-30.5 1562.77,-0.5 1448.77,-0.5"/>
<text text-anchor="start" x="1456.77" y="-18.5" font-family="Helvetica,sans-Serif" font-size="10.00">Modules/Skeleton/test</text>
<text text-anchor="middle" x="1505.77" y="-7.5" font-family="Helvetica,sans-Serif" font-size="10.00">/.testEmpty.cxx</text>
</g>
<!-- Node11&#45;&gt;Node17 -->
<g id="edge16" class="edge"><title>Node11&#45;&gt;Node17</title>
<path fill="none" stroke="midnightblue" d="M1505.77,-57.1081C1505.77,-48.1539 1505.77,-38.3227 1505.77,-30.5765"/>
<polygon fill="midnightblue" stroke="midnightblue" points="1502.27,-57.3959 1505.77,-67.396 1509.27,-57.396 1502.27,-57.3959"/>
</g>
<!-- Node18 -->
<g id="node18" class="node"><title>Node18</title>
<g id="a_node18"><a xlink:href="testQcSkeleton_8cxx.html" target="_top" xlink:title="Modules/Skeleton/test\l/testQcSkeleton.cxx">
<polygon fill="none" stroke="black" points="1974.77,-0.5 1974.77,-30.5 2088.77,-30.5 2088.77,-0.5 1974.77,-0.5"/>
<text text-anchor="start" x="1982.77" y="-18.5" font-family="Helvetica,sans-Serif" font-size="10.00">Modules/Skeleton/test</text>
<text text-anchor="middle" x="2031.77" y="-7.5" font-family="Helvetica,sans-Serif" font-size="10.00">/testQcSkeleton.cxx</text>
</a>
</g>
</g>
<!-- Node11&#45;&gt;Node18 -->
<g id="edge17" class="edge"><title>Node11&#45;&gt;Node18</title>
<path fill="none" stroke="midnightblue" d="M1582.46,-66.8116C1726.17,-45.2752 1764.61,-46.9411 1905.77,-31 1928.31,-28.4551 1953.11,-25.6107 1974.7,-23.1199"/>
<polygon fill="midnightblue" stroke="midnightblue" points="1581.75,-63.3791 1572.38,-68.3333 1582.79,-70.3006 1581.75,-63.3791"/>
</g>
<!-- Node29&#45;&gt;Node6 -->
<g id="edge30" class="edge"><title>Node29&#45;&gt;Node6</title>
<path fill="none" stroke="midnightblue" d="M313.939,-125.993C325.286,-109.022 335.824,-85.575 324.774,-67 311.905,-45.368 286.175,-32.4262 265.035,-25.0686"/>
<polygon fill="midnightblue" stroke="midnightblue" points="311.025,-124.051 308.042,-134.217 316.713,-128.13 311.025,-124.051"/>
</g>
<!-- Node29&#45;&gt;Node12 -->
<g id="edge32" class="edge"><title>Node29&#45;&gt;Node12</title>
<path fill="none" stroke="midnightblue" d="M219.21,-145.906C142.932,-141.518 33.4313,-129.719 6.77392,-98 -2.09038,-87.4524 -2.37768,-77.2993 6.77392,-67 51.9598,-16.1474 243.418,-40.5324 310.774,-31 323.345,-29.2209 336.892,-27.0938 349.499,-25.0242"/>
<polygon fill="midnightblue" stroke="midnightblue" points="219.098,-149.405 229.273,-146.453 219.478,-142.415 219.098,-149.405"/>
</g>
<!-- Node30 -->
<g id="node30" class="node"><title>Node30</title>
<polygon fill="none" stroke="#bfbfbf" points="16.2739,-67.5 16.2739,-97.5 159.274,-97.5 159.274,-67.5 16.2739,-67.5"/>
<text text-anchor="start" x="24.2739" y="-85.5" font-family="Helvetica,sans-Serif" font-size="10.00">Framework/src/Infrastructure</text>
<text text-anchor="middle" x="87.7739" y="-74.5" font-family="Helvetica,sans-Serif" font-size="10.00">Generator.cxx</text>
</g>
<!-- Node29&#45;&gt;Node30 -->
<g id="edge31" class="edge"><title>Node29&#45;&gt;Node30</title>
<path fill="none" stroke="midnightblue" d="M241.195,-131.444C207.479,-120.908 164.732,-107.549 132.929,-97.6109"/>
<polygon fill="midnightblue" stroke="midnightblue" points="240.308,-134.834 250.897,-134.476 242.396,-128.152 240.308,-134.834"/>
</g>
<!-- Node31 -->
<g id="node31" class="node"><title>Node31</title>
<g id="a_node31"><a xlink:href="TaskRunnerFactory_8cxx.html" target="_top" xlink:title="Framework/src/TaskRunner\lFactory.cxx">
<polygon fill="none" stroke="black" points="177.774,-67.5 177.774,-97.5 315.774,-97.5 315.774,-67.5 177.774,-67.5"/>
<text text-anchor="start" x="185.774" y="-85.5" font-family="Helvetica,sans-Serif" font-size="10.00">Framework/src/TaskRunner</text>
<text text-anchor="middle" x="246.774" y="-74.5" font-family="Helvetica,sans-Serif" font-size="10.00">Factory.cxx</text>
</a>
</g>
</g>
<!-- Node29&#45;&gt;Node31 -->
<g id="edge33" class="edge"><title>Node29&#45;&gt;Node31</title>
<path fill="none" stroke="midnightblue" d="M278.931,-126.157C271.786,-116.679 263.674,-105.919 257.385,-97.5765"/>
<polygon fill="midnightblue" stroke="midnightblue" points="276.327,-128.518 285.142,-134.396 281.917,-124.304 276.327,-128.518"/>
</g>
<!-- Node33&#45;&gt;Node14 -->
<g id="edge39" class="edge"><title>Node33&#45;&gt;Node14</title>
<path fill="none" stroke="midnightblue" d="M1808.9,-133.609C1867.87,-119.768 1946.53,-100.865 1948.77,-98 1977.65,-61.1062 1906.76,-36.8572 1857.76,-25.0115"/>
<polygon fill="midnightblue" stroke="midnightblue" points="1807.82,-130.267 1798.88,-135.957 1809.42,-137.083 1807.82,-130.267"/>
</g>
<!-- Node33&#45;&gt;Node25 -->
<g id="edge38" class="edge"><title>Node33&#45;&gt;Node25</title>
<path fill="none" stroke="midnightblue" d="M1779.61,-129.473C1802.33,-117.064 1830.87,-101.472 1848.2,-92.007"/>
<polygon fill="midnightblue" stroke="midnightblue" points="1777.69,-126.531 1770.6,-134.396 1781.05,-132.674 1777.69,-126.531"/>
</g>
<!-- Node34&#45;&gt;Node26 -->
<g id="edge41" class="edge"><title>Node34&#45;&gt;Node26</title>
<path fill="none" stroke="midnightblue" d="M2062.55,-124.697C2060.17,-115.587 2057.53,-105.493 2055.46,-97.5765"/>
<polygon fill="midnightblue" stroke="midnightblue" points="2059.17,-125.607 2065.09,-134.396 2065.94,-123.836 2059.17,-125.607"/>
</g>
<!-- Node35&#45;&gt;Node15 -->
<g id="edge44" class="edge"><title>Node35&#45;&gt;Node15</title>
<path fill="none" stroke="midnightblue" d="M2420.33,-127.845C2429.87,-119.493 2439.88,-109.181 2446.77,-98 2459.94,-76.6574 2466.2,-47.7207 2468.92,-30.6874"/>
<polygon fill="midnightblue" stroke="midnightblue" points="2417.94,-125.278 2412.51,-134.374 2422.43,-130.65 2417.94,-125.278"/>
</g>
<!-- Node35&#45;&gt;Node16 -->
<g id="edge45" class="edge"><title>Node35&#45;&gt;Node16</title>
<path fill="none" stroke="midnightblue" d="M2407.68,-125.377C2416.82,-108.002 2424.69,-84.3169 2412.77,-67 2395.87,-42.4408 2365.28,-29.8183 2337.8,-23.334"/>
<polygon fill="midnightblue" stroke="midnightblue" points="2404.51,-123.879 2402.6,-134.3 2410.59,-127.347 2404.51,-123.879"/>
</g>
<!-- Node35&#45;&gt;Node27 -->
<g id="edge43" class="edge"><title>Node35&#45;&gt;Node27</title>
<path fill="none" stroke="midnightblue" d="M2377.45,-125.867C2371.08,-116.459 2363.89,-105.833 2358.3,-97.5765"/>
<polygon fill="midnightblue" stroke="midnightblue" points="2374.72,-128.077 2383.23,-134.396 2380.52,-124.153 2374.72,-128.077"/>
</g>
<!-- Node36&#45;&gt;Node18 -->
<g id="edge48" class="edge"><title>Node36&#45;&gt;Node18</title>
<path fill="none" stroke="midnightblue" d="M2238.14,-125.785C2248.67,-108.134 2258.13,-83.892 2244.77,-67 2225.65,-42.8149 2145.21,-29.0011 2088.86,-22.1269"/>
<polygon fill="midnightblue" stroke="midnightblue" points="2235.1,-124.035 2232.64,-134.341 2240.99,-127.817 2235.1,-124.035"/>
</g>
<!-- Node36&#45;&gt;Node28 -->
<g id="edge47" class="edge"><title>Node36&#45;&gt;Node28</title>
<path fill="none" stroke="midnightblue" d="M2207.5,-125.867C2201.56,-116.459 2194.86,-105.833 2189.65,-97.5765"/>
<polygon fill="midnightblue" stroke="midnightblue" points="2204.58,-127.805 2212.88,-134.396 2210.5,-124.071 2204.58,-127.805"/>
</g>
</g>
</svg>
        <g id="navigator" transform="translate(0 0)" fill="#404254">
                <rect fill="#f2f5e9" fill-opacity="0.5" stroke="#606060" stroke-width=".5" x="0" y="0" width="60" height="60"/>
                <use id="zoomplus" xlink:href="#zoomPlus" x="17" y="9" onmousedown="handleZoom(evt,'in')"/>
                <use id="zoomminus" xlink:href="#zoomMin" x="42" y="9" onmousedown="handleZoom(evt,'out')"/>
                <use id="reset" xlink:href="#resetDef" x="30" y="36" onmousedown="handleReset()"/>
                <g id="arrowUp" xlink:href="#dirArrow" transform="translate(30 24)" onmousedown="handlePan(0,-1)">
                  <use xlink:href="#rim" fill="#404040">
                        <set attributeName="fill" to="#808080" begin="arrowUp.mouseover" end="arrowUp.mouseout"/>
                  </use>
                  <path fill="none" stroke="white" stroke-width="1.5" d="M0,-3.0v7 M-2.5,-0.5L0,-3.0L2.5,-0.5"/>
                </g>
                <g id="arrowRight" xlink:href="#dirArrow" transform="rotate(90) translate(36 -43)" onmousedown="handlePan(1,0)">
                  <use xlink:href="#rim" fill="#404040">
                        <set attributeName="fill" to="#808080" begin="arrowRight.mouseover" end="arrowRight.mouseout"/>
                  </use>
                  <path fill="none" stroke="white" stroke-width="1.5" d="M0,-3.0v7 M-2.5,-0.5L0,-3.0L2.5,-0.5"/>
                </g>
                <g id="arrowDown" xlink:href="#dirArrow" transform="rotate(180) translate(-30 -48)" onmousedown="handlePan(0,1)">
                  <use xlink:href="#rim" fill="#404040">
                        <set attributeName="fill" to="#808080" begin="arrowDown.mouseover" end="arrowDown.mouseout"/>
                  </use>
                  <path fill="none" stroke="white" stroke-width="1.5" d="M0,-3.0v7 M-2.5,-0.5L0,-3.0L2.5,-0.5"/>
                </g>
                <g id="arrowLeft" xlink:href="#dirArrow" transform="rotate(270) translate(-36 17)" onmousedown="handlePan(-1,0)">
                  <use xlink:href="#rim" fill="#404040">
                        <set attributeName="fill" to="#808080" begin="arrowLeft.mouseover" end="arrowLeft.mouseout"/>
                  </use>
                  <path fill="none" stroke="white" stroke-width="1.5" d="M0,-3.0v7 M-2.5,-0.5L0,-3.0L2.5,-0.5"/>
                </g>
        </g>
        <svg viewBox="0 0 15 15" width="100%" height="30px" preserveAspectRatio="xMaxYMin meet">
         <g id="arrow_out" transform="scale(0.3 0.3)">
          <a xlink:href="TaskConfig_8h__dep__incl_org.svg" target="_base">
           <rect id="button" ry="5" rx="5" y="6" x="6" height="38" width="38"
                fill="#f2f5e9" fill-opacity="0.5" stroke="#606060" stroke-width="1.0"/>
           <path id="arrow"
             d="M 11.500037,31.436501 C 11.940474,20.09759 22.043105,11.32322 32.158766,21.979434 L 37.068811,17.246167 C 37.068811,17.246167 37.088388,32 37.088388,32 L 22.160133,31.978069 C 22.160133,31.978069 26.997745,27.140456 26.997745,27.140456 C 18.528582,18.264221 13.291696,25.230495 11.500037,31.436501 z"
             style="fill:#404040;"/>
          </a>
         </g>
        </svg>
</svg>
