<?xml version="1.0" encoding="UTF-8" standalone="no"?>
<!DOCTYPE svg PUBLIC "-//W3C//DTD SVG 1.1//EN"
 "http://www.w3.org/Graphics/SVG/1.1/DTD/svg11.dtd">
<!-- Generated by graphviz version 2.38.0 (20140413.2041)
 -->
<!-- Title: Framework/src/TaskInterface.cxx Pages: 1 -->
<svg width="1022pt" height="308pt"
 viewBox="0.00 0.00 1022.00 308.00" xmlns="http://www.w3.org/2000/svg" xmlns:xlink="http://www.w3.org/1999/xlink">
<g id="graph0" class="graph" transform="scale(1 1) rotate(0) translate(4 304)">
<title>Framework/src/TaskInterface.cxx</title>
<!-- Node1 -->
<g id="node1" class="node"><title>Node1</title>
<polygon fill="#bfbfbf" stroke="black" points="198,-280.5 198,-299.5 362,-299.5 362,-280.5 198,-280.5"/>
<text text-anchor="middle" x="280" y="-287.5" font-family="Helvetica,sans-Serif" font-size="10.00">Framework/src/TaskInterface.cxx</text>
</g>
<!-- Node2 -->
<g id="node2" class="node"><title>Node2</title>
<g id="a_node2"><a xlink:href="TaskInterface_8h.html" target="_top" xlink:title="QualityControl/TaskInterface.h">
<polygon fill="none" stroke="black" points="205,-224.5 205,-243.5 355,-243.5 355,-224.5 205,-224.5"/>
<text text-anchor="middle" x="280" y="-231.5" font-family="Helvetica,sans-Serif" font-size="10.00">QualityControl/TaskInterface.h</text>
</a>
</g>
</g>
<!-- Node1&#45;&gt;Node2 -->
<g id="edge1" class="edge"><title>Node1&#45;&gt;Node2</title>
<path fill="none" stroke="midnightblue" d="M280,-280.083C280,-273.006 280,-262.861 280,-253.986"/>
<polygon fill="midnightblue" stroke="midnightblue" points="283.5,-253.751 280,-243.751 276.5,-253.751 283.5,-253.751"/>
</g>
<!-- Node3 -->
<g id="node3" class="node"><title>Node3</title>
<polygon fill="none" stroke="#bfbfbf" points="0,-168.5 0,-187.5 52,-187.5 52,-168.5 0,-168.5"/>
<text text-anchor="middle" x="26" y="-175.5" font-family="Helvetica,sans-Serif" font-size="10.00">memory</text>
</g>
<!-- Node2&#45;&gt;Node3 -->
<g id="edge2" class="edge"><title>Node2&#45;&gt;Node3</title>
<path fill="none" stroke="midnightblue" d="M234.981,-224.42C192.775,-216.225 127.685,-203.206 62.3931,-188.24"/>
<polygon fill="midnightblue" stroke="midnightblue" points="62.8703,-184.758 52.3394,-185.92 61.2964,-191.579 62.8703,-184.758"/>
</g>
<!-- Node4 -->
<g id="node4" class="node"><title>Node4</title>
<polygon fill="none" stroke="#bfbfbf" points="70.5,-168.5 70.5,-187.5 119.5,-187.5 119.5,-168.5 70.5,-168.5"/>
<text text-anchor="middle" x="95" y="-175.5" font-family="Helvetica,sans-Serif" font-size="10.00">cassert</text>
</g>
<!-- Node2&#45;&gt;Node4 -->
<g id="edge3" class="edge"><title>Node2&#45;&gt;Node4</title>
<path fill="none" stroke="midnightblue" d="M250.686,-224.444C217.767,-214.835 164.395,-199.256 129.494,-189.069"/>
<polygon fill="midnightblue" stroke="midnightblue" points="130.316,-185.663 119.736,-186.22 128.355,-192.382 130.316,-185.663"/>
</g>
<!-- Node5 -->
<g id="node5" class="node"><title>Node5</title>
<polygon fill="none" stroke="#bfbfbf" points="137.5,-168.5 137.5,-187.5 262.5,-187.5 262.5,-168.5 137.5,-168.5"/>
<text text-anchor="middle" x="200" y="-175.5" font-family="Helvetica,sans-Serif" font-size="10.00">Framework/InitContext.h</text>
</g>
<!-- Node2&#45;&gt;Node5 -->
<g id="edge4" class="edge"><title>Node2&#45;&gt;Node5</title>
<path fill="none" stroke="midnightblue" d="M267.147,-224.324C254.784,-215.979 235.87,-203.212 221.263,-193.352"/>
<polygon fill="midnightblue" stroke="midnightblue" points="223.068,-190.348 212.821,-187.655 219.152,-196.15 223.068,-190.348"/>
</g>
<!-- Node6 -->
<g id="node6" class="node"><title>Node6</title>
<polygon fill="none" stroke="#bfbfbf" points="281,-168.5 281,-187.5 441,-187.5 441,-168.5 281,-168.5"/>
<text text-anchor="middle" x="361" y="-175.5" font-family="Helvetica,sans-Serif" font-size="10.00">Framework/ProcessingContext.h</text>
</g>
<!-- Node2&#45;&gt;Node6 -->
<g id="edge5" class="edge"><title>Node2&#45;&gt;Node6</title>
<path fill="none" stroke="midnightblue" d="M293.014,-224.324C305.532,-215.979 324.682,-203.212 339.471,-193.352"/>
<polygon fill="midnightblue" stroke="midnightblue" points="341.639,-196.114 348.018,-187.655 337.756,-190.289 341.639,-196.114"/>
</g>
<!-- Node7 -->
<g id="node7" class="node"><title>Node7</title>
<g id="a_node7"><a xlink:href="Activity_8h.html" target="_top" xlink:title="QualityControl/Activity.h">
<polygon fill="none" stroke="black" points="459.5,-168.5 459.5,-187.5 582.5,-187.5 582.5,-168.5 459.5,-168.5"/>
<text text-anchor="middle" x="521" y="-175.5" font-family="Helvetica,sans-Serif" font-size="10.00">QualityControl/Activity.h</text>
</a>
</g>
</g>
<!-- Node2&#45;&gt;Node7 -->
<g id="edge6" class="edge"><title>Node2&#45;&gt;Node7</title>
<path fill="none" stroke="midnightblue" d="M318.187,-224.444C360.141,-215.043 427.594,-199.929 473.071,-189.739"/>
<polygon fill="midnightblue" stroke="midnightblue" points="473.999,-193.118 482.991,-187.516 472.468,-186.288 473.999,-193.118"/>
</g>
<!-- Node8 -->
<g id="node8" class="node"><title>Node8</title>
<g id="a_node8"><a xlink:href="ObjectsManager_8h.html" target="_top" xlink:title="QualityControl/ObjectsManager.h">
<polygon fill="none" stroke="black" points="600.5,-168.5 600.5,-187.5 761.5,-187.5 761.5,-168.5 600.5,-168.5"/>
<text text-anchor="middle" x="681" y="-175.5" font-family="Helvetica,sans-Serif" font-size="10.00">QualityControl/ObjectsManager.h</text>
</a>
</g>
</g>
<!-- Node2&#45;&gt;Node8 -->
<g id="edge7" class="edge"><title>Node2&#45;&gt;Node8</title>
<path fill="none" stroke="midnightblue" d="M343.54,-224.444C415.4,-214.767 532.221,-199.035 607.83,-188.853"/>
<polygon fill="midnightblue" stroke="midnightblue" points="608.314,-192.32 617.758,-187.516 607.38,-185.382 608.314,-192.32"/>
</g>
<!-- Node9 -->
<g id="node9" class="node"><title>Node9</title>
<g id="a_node9"><a xlink:href="MonitorObject_8h.html" target="_top" xlink:title="QualityControl/MonitorObject.h">
<polygon fill="none" stroke="black" points="298.5,-112.5 298.5,-131.5 449.5,-131.5 449.5,-112.5 298.5,-112.5"/>
<text text-anchor="middle" x="374" y="-119.5" font-family="Helvetica,sans-Serif" font-size="10.00">QualityControl/MonitorObject.h</text>
</a>
</g>
</g>
<!-- Node8&#45;&gt;Node9 -->
<g id="edge8" class="edge"><title>Node8&#45;&gt;Node9</title>
<path fill="none" stroke="midnightblue" d="M632.355,-168.444C578.126,-158.905 490.452,-143.483 432.518,-133.293"/>
<polygon fill="midnightblue" stroke="midnightblue" points="432.873,-129.802 422.417,-131.516 431.66,-136.696 432.873,-129.802"/>
</g>
<!-- Node14 -->
<g id="node14" class="node"><title>Node14</title>
<g id="a_node14"><a xlink:href="Quality_8h.html" target="_top" xlink:title="QualityControl/Quality.h">
<polygon fill="none" stroke="black" points="493.5,-56.5 493.5,-75.5 614.5,-75.5 614.5,-56.5 493.5,-56.5"/>
<text text-anchor="middle" x="554" y="-63.5" font-family="Helvetica,sans-Serif" font-size="10.00">QualityControl/Quality.h</text>
</a>
</g>
</g>
<!-- Node8&#45;&gt;Node14 -->
<g id="edge17" class="edge"><title>Node8&#45;&gt;Node14</title>
<path fill="none" stroke="midnightblue" d="M671.029,-168.375C660.56,-159.319 643.62,-144.662 629,-132 609.438,-115.059 587.015,-95.6237 571.821,-82.4516"/>
<polygon fill="midnightblue" stroke="midnightblue" points="574.037,-79.7398 564.188,-75.8337 569.451,-85.0289 574.037,-79.7398"/>
</g>
<!-- Node16 -->
<g id="node16" class="node"><title>Node16</title>
<polygon fill="none" stroke="#bfbfbf" points="622.5,-0.5 622.5,-19.5 663.5,-19.5 663.5,-0.5 622.5,-0.5"/>
<text text-anchor="middle" x="643" y="-7.5" font-family="Helvetica,sans-Serif" font-size="10.00">string</text>
</g>
<!-- Node8&#45;&gt;Node16 -->
<g id="edge23" class="edge"><title>Node8&#45;&gt;Node16</title>
<path fill="none" stroke="midnightblue" d="M678.957,-168.075C672.975,-141.945 655.41,-65.2106 647.253,-29.577"/>
<polygon fill="midnightblue" stroke="midnightblue" points="650.605,-28.5349 644.961,-19.5681 643.781,-30.097 650.605,-28.5349"/>
</g>
<!-- Node17 -->
<g id="node17" class="node"><title>Node17</title>
<g id="a_node17"><a xlink:href="TaskConfig_8h.html" target="_top" xlink:title="QualityControl/TaskConfig.h">
<polygon fill="none" stroke="black" points="671,-56.5 671,-75.5 811,-75.5 811,-56.5 671,-56.5"/>
<text text-anchor="middle" x="741" y="-63.5" font-family="Helvetica,sans-Serif" font-size="10.00">QualityControl/TaskConfig.h</text>
</a>
</g>
</g>
<!-- Node8&#45;&gt;Node17 -->
<g id="edge18" class="edge"><title>Node8&#45;&gt;Node17</title>
<path fill="none" stroke="midnightblue" d="M682.486,-168.112C684.924,-155.132 690.577,-130.521 701,-112 706.998,-101.342 715.868,-91.0265 723.733,-82.9668"/>
<polygon fill="midnightblue" stroke="midnightblue" points="726.426,-85.2285 731.119,-75.7298 721.526,-80.2287 726.426,-85.2285"/>
</g>
<!-- Node18 -->
<g id="node18" class="node"><title>Node18</title>
<polygon fill="none" stroke="#bfbfbf" points="709.5,-112.5 709.5,-131.5 778.5,-131.5 778.5,-112.5 709.5,-112.5"/>
<text text-anchor="middle" x="744" y="-119.5" font-family="Helvetica,sans-Serif" font-size="10.00">TObjArray.h</text>
</g>
<!-- Node8&#45;&gt;Node18 -->
<g id="edge20" class="edge"><title>Node8&#45;&gt;Node18</title>
<path fill="none" stroke="midnightblue" d="M691.122,-168.324C700.526,-160.263 714.744,-148.077 726.069,-138.369"/>
<polygon fill="midnightblue" stroke="midnightblue" points="728.379,-140.999 733.694,-131.834 723.823,-135.684 728.379,-140.999"/>
</g>
<!-- Node19 -->
<g id="node19" class="node"><title>Node19</title>
<polygon fill="none" stroke="#bfbfbf" points="796.5,-112.5 796.5,-131.5 867.5,-131.5 867.5,-112.5 796.5,-112.5"/>
<text text-anchor="middle" x="832" y="-119.5" font-family="Helvetica,sans-Serif" font-size="10.00">TObjString.h</text>
</g>
<!-- Node8&#45;&gt;Node19 -->
<g id="edge21" class="edge"><title>Node8&#45;&gt;Node19</title>
<path fill="none" stroke="midnightblue" d="M704.926,-168.444C730.219,-159.399 770.302,-145.064 798.68,-134.916"/>
<polygon fill="midnightblue" stroke="midnightblue" points="799.948,-138.179 808.186,-131.516 797.591,-131.588 799.948,-138.179"/>
</g>
<!-- Node20 -->
<g id="node20" class="node"><title>Node20</title>
<polygon fill="none" stroke="#bfbfbf" points="886,-112.5 886,-131.5 1014,-131.5 1014,-112.5 886,-112.5"/>
<text text-anchor="middle" x="950" y="-119.5" font-family="Helvetica,sans-Serif" font-size="10.00">boost/concept_check.hpp</text>
</g>
<!-- Node8&#45;&gt;Node20 -->
<g id="edge22" class="edge"><title>Node8&#45;&gt;Node20</title>
<path fill="none" stroke="midnightblue" d="M723.624,-168.444C770.747,-158.984 846.692,-143.738 897.459,-133.547"/>
<polygon fill="midnightblue" stroke="midnightblue" points="898.46,-136.916 907.576,-131.516 897.082,-130.053 898.46,-136.916"/>
</g>
<!-- Node10 -->
<g id="node10" class="node"><title>Node10</title>
<polygon fill="none" stroke="#bfbfbf" points="195,-56.5 195,-75.5 249,-75.5 249,-56.5 195,-56.5"/>
<text text-anchor="middle" x="222" y="-63.5" font-family="Helvetica,sans-Serif" font-size="10.00">iostream</text>
</g>
<!-- Node9&#45;&gt;Node10 -->
<g id="edge9" class="edge"><title>Node9&#45;&gt;Node10</title>
<path fill="none" stroke="midnightblue" d="M349.915,-112.444C324.455,-103.399 284.106,-89.064 255.541,-78.9158"/>
<polygon fill="midnightblue" stroke="midnightblue" points="256.567,-75.5661 245.972,-75.5164 254.223,-82.1622 256.567,-75.5661"/>
</g>
<!-- Node11 -->
<g id="node11" class="node"><title>Node11</title>
<polygon fill="none" stroke="#bfbfbf" points="267.5,-56.5 267.5,-75.5 302.5,-75.5 302.5,-56.5 267.5,-56.5"/>
<text text-anchor="middle" x="285" y="-63.5" font-family="Helvetica,sans-Serif" font-size="10.00">map</text>
</g>
<!-- Node9&#45;&gt;Node11 -->
<g id="edge10" class="edge"><title>Node9&#45;&gt;Node11</title>
<path fill="none" stroke="midnightblue" d="M359.701,-112.324C345.817,-103.9 324.508,-90.9709 308.196,-81.0741"/>
<polygon fill="midnightblue" stroke="midnightblue" points="309.629,-77.8495 299.264,-75.6545 305.998,-83.8341 309.629,-77.8495"/>
</g>
<!-- Node12 -->
<g id="node12" class="node"><title>Node12</title>
<polygon fill="none" stroke="#bfbfbf" points="376.5,-0.5 376.5,-19.5 435.5,-19.5 435.5,-0.5 376.5,-0.5"/>
<text text-anchor="middle" x="406" y="-7.5" font-family="Helvetica,sans-Serif" font-size="10.00">TObject.h</text>
</g>
<!-- Node9&#45;&gt;Node12 -->
<g id="edge11" class="edge"><title>Node9&#45;&gt;Node12</title>
<path fill="none" stroke="midnightblue" d="M366.436,-112.378C356.309,-99.7286 340.641,-75.526 350,-56 356.253,-42.9542 368.336,-32.4921 379.682,-24.9506"/>
<polygon fill="midnightblue" stroke="midnightblue" points="381.809,-27.7515 388.498,-19.5351 378.146,-21.7869 381.809,-27.7515"/>
</g>
<!-- Node13 -->
<g id="node13" class="node"><title>Node13</title>
<polygon fill="none" stroke="#bfbfbf" points="359,-56.5 359,-75.5 475,-75.5 475,-56.5 359,-56.5"/>
<text text-anchor="middle" x="417" y="-63.5" font-family="Helvetica,sans-Serif" font-size="10.00">Common/Exceptions.h</text>
</g>
<!-- Node9&#45;&gt;Node13 -->
<g id="edge12" class="edge"><title>Node9&#45;&gt;Node13</title>
<path fill="none" stroke="midnightblue" d="M381.101,-112.083C387.237,-104.377 396.27,-93.0333 403.739,-83.6531"/>
<polygon fill="midnightblue" stroke="midnightblue" points="406.54,-85.7542 410.032,-75.7511 401.064,-81.3936 406.54,-85.7542"/>
</g>
<!-- Node9&#45;&gt;Node14 -->
<g id="edge13" class="edge"><title>Node9&#45;&gt;Node14</title>
<path fill="none" stroke="midnightblue" d="M402.522,-112.444C433.066,-103.28 481.708,-88.6876 515.603,-78.5192"/>
<polygon fill="midnightblue" stroke="midnightblue" points="517.039,-81.7424 525.612,-75.5164 515.028,-75.0376 517.039,-81.7424"/>
</g>
<!-- Node14&#45;&gt;Node12 -->
<g id="edge14" class="edge"><title>Node14&#45;&gt;Node12</title>
<path fill="none" stroke="midnightblue" d="M530.549,-56.4435C505.867,-47.4381 466.815,-33.1891 439.023,-23.049"/>
<polygon fill="midnightblue" stroke="midnightblue" points="439.935,-19.6561 429.341,-19.5164 437.536,-26.2321 439.935,-19.6561"/>
</g>
<!-- Node15 -->
<g id="node15" class="node"><title>Node15</title>
<polygon fill="none" stroke="#bfbfbf" points="528,-0.5 528,-19.5 580,-19.5 580,-0.5 528,-0.5"/>
<text text-anchor="middle" x="554" y="-7.5" font-family="Helvetica,sans-Serif" font-size="10.00">ostream</text>
</g>
<!-- Node14&#45;&gt;Node15 -->
<g id="edge15" class="edge"><title>Node14&#45;&gt;Node15</title>
<path fill="none" stroke="midnightblue" d="M554,-56.083C554,-49.0059 554,-38.8611 554,-29.9865"/>
<polygon fill="midnightblue" stroke="midnightblue" points="557.5,-29.751 554,-19.7511 550.5,-29.7511 557.5,-29.751"/>
</g>
<!-- Node14&#45;&gt;Node16 -->
<g id="edge16" class="edge"><title>Node14&#45;&gt;Node16</title>
<path fill="none" stroke="midnightblue" d="M568.299,-56.324C582.183,-47.9002 603.492,-34.9709 619.804,-25.0741"/>
<polygon fill="midnightblue" stroke="midnightblue" points="622.002,-27.8341 628.736,-19.6545 618.371,-21.8495 622.002,-27.8341"/>
</g>
<!-- Node17&#45;&gt;Node16 -->
<g id="edge19" class="edge"><title>Node17&#45;&gt;Node16</title>
<path fill="none" stroke="midnightblue" d="M725.255,-56.324C709.681,-47.7428 685.623,-34.486 667.541,-24.5224"/>
<polygon fill="midnightblue" stroke="midnightblue" points="669.154,-21.4152 658.706,-19.6545 665.776,-27.546 669.154,-21.4152"/>
</g>
</g>
</svg>
