<?xml version="1.0" encoding="UTF-8" standalone="no"?>
<!DOCTYPE svg PUBLIC "-//W3C//DTD SVG 1.1//EN"
 "http://www.w3.org/Graphics/SVG/1.1/DTD/svg11.dtd">
<!-- Generated by graphviz version 2.38.0 (20140413.2041)
 -->
<!-- Title: Modules/Daq/test/testQcDaq.cxx Pages: 1 -->
<!--zoomable 420 -->
<svg id="main" version="1.1" xmlns="http://www.w3.org/2000/svg" xmlns:xlink="http://www.w3.org/1999/xlink" xml:space="preserve" onload="init(evt)">
<style type="text/css"><![CDATA[
.edge:hover path { stroke: red; }
.edge:hover polygon { stroke: red; fill: red; }
]]></style>
<script type="text/javascript"><![CDATA[
var edges = document.getElementsByTagName('g');
if (edges && edges.length) {
  for (var i=0;i<edges.length;i++) {
    if (edges[i].id.substr(0,4)=='edge') {
      edges[i].setAttribute('class','edge');
    }
  }
}
]]></script>
        <defs>
                <circle id="rim" cx="0" cy="0" r="7"/>
                <circle id="rim2" cx="0" cy="0" r="3.5"/>
                <g id="zoomPlus">
                        <use xlink:href="#rim" fill="#404040">
                                <set attributeName="fill" to="#808080" begin="zoomplus.mouseover" end="zoomplus.mouseout"/>
                        </use>
                        <path d="M-4,0h8M0,-4v8" fill="none" stroke="white" stroke-width="1.5" pointer-events="none"/>
                </g>
                <g id="zoomMin">
                        <use xlink:href="#rim" fill="#404040">
                                <set attributeName="fill" to="#808080" begin="zoomminus.mouseover" end="zoomminus.mouseout"/>
                        </use>
                        <path d="M-4,0h8" fill="none" stroke="white" stroke-width="1.5" pointer-events="none"/>
                </g>
                <g id="dirArrow">
                        <path fill="none" stroke="white" stroke-width="1.5" d="M0,-3.0v7 M-2.5,-0.5L0,-3.0L2.5,-0.5"/>
                </g>
               <g id="resetDef">
                       <use xlink:href="#rim2" fill="#404040">
                               <set attributeName="fill" to="#808080" begin="reset.mouseover" end="reset.mouseout"/>
                       </use>
               </g>
        </defs>

<script type="text/javascript">
var viewWidth = 1143;
var viewHeight = 420;
var sectionId = 'dynsection-0';
</script>
<script xlink:href="svgpan.js"/>
<svg id="graph" class="graph">
<g id="viewport">
<title>Modules/Daq/test/testQcDaq.cxx</title>
<!-- Node1 -->
<g id="node1" class="node"><title>Node1</title>
<polygon fill="#bfbfbf" stroke="black" points="649.5,-392.5 649.5,-411.5 812.5,-411.5 812.5,-392.5 649.5,-392.5"/>
<text text-anchor="middle" x="731" y="-399.5" font-family="Helvetica,sans-Serif" font-size="10.00">Modules/Daq/test/testQcDaq.cxx</text>
</g>
<!-- Node2 -->
<g id="node2" class="node"><title>Node2</title>
<g id="a_node2"><a xlink:href="DaqTask_8h.html" target="_top" xlink:title="Daq/DaqTask.h">
<polygon fill="none" stroke="black" points="688,-336.5 688,-355.5 774,-355.5 774,-336.5 688,-336.5"/>
<text text-anchor="middle" x="731" y="-343.5" font-family="Helvetica,sans-Serif" font-size="10.00">Daq/DaqTask.h</text>
</a>
</g>
</g>
<!-- Node1&#45;&gt;Node2 -->
<g id="edge1" class="edge"><title>Node1&#45;&gt;Node2</title>
<path fill="none" stroke="midnightblue" d="M731,-392.083C731,-385.006 731,-374.861 731,-365.986"/>
<polygon fill="midnightblue" stroke="midnightblue" points="734.5,-365.751 731,-355.751 727.5,-365.751 734.5,-365.751"/>
</g>
<!-- Node24 -->
<g id="node24" class="node"><title>Node24</title>
<g id="a_node24"><a xlink:href="TaskFactory_8h.html" target="_top" xlink:title="QualityControl/TaskFactory.h">
<polygon fill="none" stroke="black" points="291.5,-336.5 291.5,-355.5 436.5,-355.5 436.5,-336.5 291.5,-336.5"/>
<text text-anchor="middle" x="364" y="-343.5" font-family="Helvetica,sans-Serif" font-size="10.00">QualityControl/TaskFactory.h</text>
</a>
</g>
</g>
<!-- Node1&#45;&gt;Node24 -->
<g id="edge27" class="edge"><title>Node1&#45;&gt;Node24</title>
<path fill="none" stroke="midnightblue" d="M672.848,-392.444C607.349,-382.806 501.037,-367.163 431.815,-356.978"/>
<polygon fill="midnightblue" stroke="midnightblue" points="432.283,-353.51 421.88,-355.516 431.264,-360.435 432.283,-353.51"/>
</g>
<!-- Node27 -->
<g id="node27" class="node"><title>Node27</title>
<polygon fill="none" stroke="#bfbfbf" points="611.5,-280.5 611.5,-299.5 676.5,-299.5 676.5,-280.5 611.5,-280.5"/>
<text text-anchor="middle" x="644" y="-287.5" font-family="Helvetica,sans-Serif" font-size="10.00">TSystem.h</text>
</g>
<!-- Node1&#45;&gt;Node27 -->
<g id="edge39" class="edge"><title>Node1&#45;&gt;Node27</title>
<path fill="none" stroke="midnightblue" d="M718.727,-392.417C707.41,-384.064 690.648,-370.532 679,-356 667.374,-341.496 657.688,-322.564 651.475,-308.876"/>
<polygon fill="midnightblue" stroke="midnightblue" points="654.631,-307.359 647.426,-299.591 648.215,-310.157 654.631,-307.359"/>
</g>
<!-- Node30 -->
<g id="node30" class="node"><title>Node30</title>
<polygon fill="none" stroke="#bfbfbf" points="792,-336.5 792,-355.5 836,-355.5 836,-336.5 792,-336.5"/>
<text text-anchor="middle" x="814" y="-343.5" font-family="Helvetica,sans-Serif" font-size="10.00">TH1.h</text>
</g>
<!-- Node1&#45;&gt;Node30 -->
<g id="edge40" class="edge"><title>Node1&#45;&gt;Node30</title>
<path fill="none" stroke="midnightblue" d="M744.335,-392.324C757.162,-383.979 776.785,-371.212 791.94,-361.352"/>
<polygon fill="midnightblue" stroke="midnightblue" points="794.224,-364.042 800.698,-355.655 790.407,-358.174 794.224,-364.042"/>
</g>
<!-- Node31 -->
<g id="node31" class="node"><title>Node31</title>
<polygon fill="none" stroke="#bfbfbf" points="854.5,-336.5 854.5,-355.5 973.5,-355.5 973.5,-336.5 854.5,-336.5"/>
<text text-anchor="middle" x="914" y="-343.5" font-family="Helvetica,sans-Serif" font-size="10.00">boost/test/unit_test.hpp</text>
</g>
<!-- Node1&#45;&gt;Node31 -->
<g id="edge41" class="edge"><title>Node1&#45;&gt;Node31</title>
<path fill="none" stroke="midnightblue" d="M759.997,-392.444C791.185,-383.241 840.93,-368.562 875.408,-358.388"/>
<polygon fill="midnightblue" stroke="midnightblue" points="876.538,-361.704 885.139,-355.516 874.557,-354.99 876.538,-361.704"/>
</g>
<!-- Node3 -->
<g id="node3" class="node"><title>Node3</title>
<g id="a_node3"><a xlink:href="TaskInterface_8h.html" target="_top" xlink:title="QualityControl/TaskInterface.h">
<polygon fill="none" stroke="black" points="653,-224.5 653,-243.5 803,-243.5 803,-224.5 653,-224.5"/>
<text text-anchor="middle" x="728" y="-231.5" font-family="Helvetica,sans-Serif" font-size="10.00">QualityControl/TaskInterface.h</text>
</a>
</g>
</g>
<!-- Node2&#45;&gt;Node3 -->
<g id="edge2" class="edge"><title>Node2&#45;&gt;Node3</title>
<path fill="none" stroke="midnightblue" d="M744.25,-336.418C760.732,-324.576 785.603,-302.166 776,-280 770.732,-267.84 760.38,-257.459 750.635,-249.743"/>
<polygon fill="midnightblue" stroke="midnightblue" points="752.501,-246.771 742.37,-243.67 748.356,-252.412 752.501,-246.771"/>
</g>
<!-- Node22 -->
<g id="node22" class="node"><title>Node22</title>
<polygon fill="none" stroke="#bfbfbf" points="824.5,-280.5 824.5,-299.5 889.5,-299.5 889.5,-280.5 824.5,-280.5"/>
<text text-anchor="middle" x="857" y="-287.5" font-family="Helvetica,sans-Serif" font-size="10.00">TCanvas.h</text>
</g>
<!-- Node2&#45;&gt;Node22 -->
<g id="edge25" class="edge"><title>Node2&#45;&gt;Node22</title>
<path fill="none" stroke="midnightblue" d="M750.965,-336.444C771.609,-327.596 804.063,-313.687 827.632,-303.586"/>
<polygon fill="midnightblue" stroke="midnightblue" points="829.316,-306.673 837.128,-299.516 826.558,-300.239 829.316,-306.673"/>
</g>
<!-- Node23 -->
<g id="node23" class="node"><title>Node23</title>
<polygon fill="none" stroke="#bfbfbf" points="694.5,-280.5 694.5,-299.5 767.5,-299.5 767.5,-280.5 694.5,-280.5"/>
<text text-anchor="middle" x="731" y="-287.5" font-family="Helvetica,sans-Serif" font-size="10.00">TPaveText.h</text>
</g>
<!-- Node2&#45;&gt;Node23 -->
<g id="edge26" class="edge"><title>Node2&#45;&gt;Node23</title>
<path fill="none" stroke="midnightblue" d="M731,-336.083C731,-329.006 731,-318.861 731,-309.986"/>
<polygon fill="midnightblue" stroke="midnightblue" points="734.5,-309.751 731,-299.751 727.5,-309.751 734.5,-309.751"/>
</g>
<!-- Node4 -->
<g id="node4" class="node"><title>Node4</title>
<polygon fill="none" stroke="#bfbfbf" points="334,-168.5 334,-187.5 386,-187.5 386,-168.5 334,-168.5"/>
<text text-anchor="middle" x="360" y="-175.5" font-family="Helvetica,sans-Serif" font-size="10.00">memory</text>
</g>
<!-- Node3&#45;&gt;Node4 -->
<g id="edge3" class="edge"><title>Node3&#45;&gt;Node4</title>
<path fill="none" stroke="midnightblue" d="M652.864,-225.395C587.418,-218.188 489.833,-206.042 396.22,-188.048"/>
<polygon fill="midnightblue" stroke="midnightblue" points="396.783,-184.591 386.298,-186.115 395.444,-191.462 396.783,-184.591"/>
</g>
<!-- Node5 -->
<g id="node5" class="node"><title>Node5</title>
<polygon fill="none" stroke="#bfbfbf" points="622.5,-168.5 622.5,-187.5 671.5,-187.5 671.5,-168.5 622.5,-168.5"/>
<text text-anchor="middle" x="647" y="-175.5" font-family="Helvetica,sans-Serif" font-size="10.00">cassert</text>
</g>
<!-- Node3&#45;&gt;Node5 -->
<g id="edge4" class="edge"><title>Node3&#45;&gt;Node5</title>
<path fill="none" stroke="midnightblue" d="M714.986,-224.324C702.468,-215.979 683.318,-203.212 668.529,-193.352"/>
<polygon fill="midnightblue" stroke="midnightblue" points="670.244,-190.289 659.982,-187.655 666.361,-196.114 670.244,-190.289"/>
</g>
<!-- Node6 -->
<g id="node6" class="node"><title>Node6</title>
<polygon fill="none" stroke="#bfbfbf" points="689.5,-168.5 689.5,-187.5 814.5,-187.5 814.5,-168.5 689.5,-168.5"/>
<text text-anchor="middle" x="752" y="-175.5" font-family="Helvetica,sans-Serif" font-size="10.00">Framework/InitContext.h</text>
</g>
<!-- Node3&#45;&gt;Node6 -->
<g id="edge5" class="edge"><title>Node3&#45;&gt;Node6</title>
<path fill="none" stroke="midnightblue" d="M731.963,-224.083C735.213,-216.77 739.919,-206.181 743.954,-197.103"/>
<polygon fill="midnightblue" stroke="midnightblue" points="747.248,-198.311 748.111,-187.751 740.851,-195.468 747.248,-198.311"/>
</g>
<!-- Node7 -->
<g id="node7" class="node"><title>Node7</title>
<polygon fill="none" stroke="#bfbfbf" points="833,-168.5 833,-187.5 993,-187.5 993,-168.5 833,-168.5"/>
<text text-anchor="middle" x="913" y="-175.5" font-family="Helvetica,sans-Serif" font-size="10.00">Framework/ProcessingContext.h</text>
</g>
<!-- Node3&#45;&gt;Node7 -->
<g id="edge6" class="edge"><title>Node3&#45;&gt;Node7</title>
<path fill="none" stroke="midnightblue" d="M757.314,-224.444C788.842,-215.241 839.131,-200.562 873.986,-190.388"/>
<polygon fill="midnightblue" stroke="midnightblue" points="875.205,-193.678 883.823,-187.516 873.243,-186.959 875.205,-193.678"/>
</g>
<!-- Node8 -->
<g id="node8" class="node"><title>Node8</title>
<g id="a_node8"><a xlink:href="Activity_8h.html" target="_top" xlink:title="QualityControl/Activity.h">
<polygon fill="none" stroke="black" points="1011.5,-168.5 1011.5,-187.5 1134.5,-187.5 1134.5,-168.5 1011.5,-168.5"/>
<text text-anchor="middle" x="1073" y="-175.5" font-family="Helvetica,sans-Serif" font-size="10.00">QualityControl/Activity.h</text>
</a>
</g>
</g>
<!-- Node3&#45;&gt;Node8 -->
<g id="edge7" class="edge"><title>Node3&#45;&gt;Node8</title>
<path fill="none" stroke="midnightblue" d="M782.666,-224.444C843.986,-214.846 943.359,-199.292 1008.45,-189.104"/>
<polygon fill="midnightblue" stroke="midnightblue" points="1009.25,-192.521 1018.59,-187.516 1008.17,-185.605 1009.25,-192.521"/>
</g>
<!-- Node9 -->
<g id="node9" class="node"><title>Node9</title>
<g id="a_node9"><a xlink:href="ObjectsManager_8h.html" target="_top" xlink:title="QualityControl/ObjectsManager.h">
<polygon fill="none" stroke="black" points="404.5,-168.5 404.5,-187.5 565.5,-187.5 565.5,-168.5 404.5,-168.5"/>
<text text-anchor="middle" x="485" y="-175.5" font-family="Helvetica,sans-Serif" font-size="10.00">QualityControl/ObjectsManager.h</text>
</a>
</g>
</g>
<!-- Node3&#45;&gt;Node9 -->
<g id="edge8" class="edge"><title>Node3&#45;&gt;Node9</title>
<path fill="none" stroke="midnightblue" d="M689.496,-224.444C647.194,-215.043 579.181,-199.929 533.327,-189.739"/>
<polygon fill="midnightblue" stroke="midnightblue" points="533.845,-186.269 523.324,-187.516 532.327,-193.102 533.845,-186.269"/>
</g>
<!-- Node10 -->
<g id="node10" class="node"><title>Node10</title>
<g id="a_node10"><a xlink:href="MonitorObject_8h.html" target="_top" xlink:title="QualityControl/MonitorObject.h">
<polygon fill="none" stroke="black" points="162.5,-112.5 162.5,-131.5 313.5,-131.5 313.5,-112.5 162.5,-112.5"/>
<text text-anchor="middle" x="238" y="-119.5" font-family="Helvetica,sans-Serif" font-size="10.00">QualityControl/MonitorObject.h</text>
</a>
</g>
</g>
<!-- Node9&#45;&gt;Node10 -->
<g id="edge9" class="edge"><title>Node9&#45;&gt;Node10</title>
<path fill="none" stroke="midnightblue" d="M445.862,-168.444C402.774,-159.023 333.441,-143.866 286.829,-133.675"/>
<polygon fill="midnightblue" stroke="midnightblue" points="287.472,-130.233 276.955,-131.516 285.976,-137.072 287.472,-130.233"/>
</g>
<!-- Node15 -->
<g id="node15" class="node"><title>Node15</title>
<g id="a_node15"><a xlink:href="Quality_8h.html" target="_top" xlink:title="QualityControl/Quality.h">
<polygon fill="none" stroke="black" points="392.5,-56.5 392.5,-75.5 513.5,-75.5 513.5,-56.5 392.5,-56.5"/>
<text text-anchor="middle" x="453" y="-63.5" font-family="Helvetica,sans-Serif" font-size="10.00">QualityControl/Quality.h</text>
</a>
</g>
</g>
<!-- Node9&#45;&gt;Node15 -->
<g id="edge18" class="edge"><title>Node9&#45;&gt;Node15</title>
<path fill="none" stroke="midnightblue" d="M508.611,-168.468C535.591,-157.333 574.068,-136.367 558,-112 547.36,-95.8645 529.605,-85.4927 511.694,-78.8346"/>
<polygon fill="midnightblue" stroke="midnightblue" points="512.365,-75.3681 501.771,-75.5047 510.138,-82.0044 512.365,-75.3681"/>
</g>
<!-- Node17 -->
<g id="node17" class="node"><title>Node17</title>
<polygon fill="none" stroke="#bfbfbf" points="594.5,-0.5 594.5,-19.5 635.5,-19.5 635.5,-0.5 594.5,-0.5"/>
<text text-anchor="middle" x="615" y="-7.5" font-family="Helvetica,sans-Serif" font-size="10.00">string</text>
</g>
<!-- Node9&#45;&gt;Node17 -->
<g id="edge24" class="edge"><title>Node9&#45;&gt;Node17</title>
<path fill="none" stroke="midnightblue" d="M514.737,-168.483C534.058,-161.544 558.454,-149.916 574,-132 599.832,-102.23 609.557,-55.4862 613.089,-29.6781"/>
<polygon fill="midnightblue" stroke="midnightblue" points="616.568,-30.0644 614.283,-19.7189 609.618,-29.2314 616.568,-30.0644"/>
</g>
<!-- Node18 -->
<g id="node18" class="node"><title>Node18</title>
<g id="a_node18"><a xlink:href="TaskConfig_8h.html" target="_top" xlink:title="QualityControl/TaskConfig.h">
<polygon fill="none" stroke="black" points="731,-112.5 731,-131.5 871,-131.5 871,-112.5 731,-112.5"/>
<text text-anchor="middle" x="801" y="-119.5" font-family="Helvetica,sans-Serif" font-size="10.00">QualityControl/TaskConfig.h</text>
</a>
</g>
</g>
<!-- Node9&#45;&gt;Node18 -->
<g id="edge19" class="edge"><title>Node9&#45;&gt;Node18</title>
<path fill="none" stroke="midnightblue" d="M535.071,-168.444C591.006,-158.885 681.508,-143.419 741.137,-133.23"/>
<polygon fill="midnightblue" stroke="midnightblue" points="741.896,-136.651 751.163,-131.516 740.716,-129.751 741.896,-136.651"/>
</g>
<!-- Node19 -->
<g id="node19" class="node"><title>Node19</title>
<polygon fill="none" stroke="#bfbfbf" points="643.5,-112.5 643.5,-131.5 712.5,-131.5 712.5,-112.5 643.5,-112.5"/>
<text text-anchor="middle" x="678" y="-119.5" font-family="Helvetica,sans-Serif" font-size="10.00">TObjArray.h</text>
</g>
<!-- Node9&#45;&gt;Node19 -->
<g id="edge21" class="edge"><title>Node9&#45;&gt;Node19</title>
<path fill="none" stroke="midnightblue" d="M515.581,-168.444C548.615,-159.201 601.388,-144.436 637.766,-134.257"/>
<polygon fill="midnightblue" stroke="midnightblue" points="638.875,-137.582 647.562,-131.516 636.988,-130.84 638.875,-137.582"/>
</g>
<!-- Node20 -->
<g id="node20" class="node"><title>Node20</title>
<polygon fill="none" stroke="#bfbfbf" points="331.5,-112.5 331.5,-131.5 402.5,-131.5 402.5,-112.5 331.5,-112.5"/>
<text text-anchor="middle" x="367" y="-119.5" font-family="Helvetica,sans-Serif" font-size="10.00">TObjString.h</text>
</g>
<!-- Node9&#45;&gt;Node20 -->
<g id="edge22" class="edge"><title>Node9&#45;&gt;Node20</title>
<path fill="none" stroke="midnightblue" d="M466.303,-168.444C447.056,-159.636 416.848,-145.812 394.8,-135.722"/>
<polygon fill="midnightblue" stroke="midnightblue" points="396.16,-132.495 385.61,-131.516 393.247,-138.86 396.16,-132.495"/>
</g>
<!-- Node21 -->
<g id="node21" class="node"><title>Node21</title>
<polygon fill="none" stroke="#bfbfbf" points="421,-112.5 421,-131.5 549,-131.5 549,-112.5 421,-112.5"/>
<text text-anchor="middle" x="485" y="-119.5" font-family="Helvetica,sans-Serif" font-size="10.00">boost/concept_check.hpp</text>
</g>
<!-- Node9&#45;&gt;Node21 -->
<g id="edge23" class="edge"><title>Node9&#45;&gt;Node21</title>
<path fill="none" stroke="midnightblue" d="M485,-168.083C485,-161.006 485,-150.861 485,-141.986"/>
<polygon fill="midnightblue" stroke="midnightblue" points="488.5,-141.751 485,-131.751 481.5,-141.751 488.5,-141.751"/>
</g>
<!-- Node11 -->
<g id="node11" class="node"><title>Node11</title>
<polygon fill="none" stroke="#bfbfbf" points="134,-56.5 134,-75.5 188,-75.5 188,-56.5 134,-56.5"/>
<text text-anchor="middle" x="161" y="-63.5" font-family="Helvetica,sans-Serif" font-size="10.00">iostream</text>
</g>
<!-- Node10&#45;&gt;Node11 -->
<g id="edge10" class="edge"><title>Node10&#45;&gt;Node11</title>
<path fill="none" stroke="midnightblue" d="M225.629,-112.324C213.842,-104.058 195.868,-91.4527 181.864,-81.6322"/>
<polygon fill="midnightblue" stroke="midnightblue" points="183.538,-78.5307 173.341,-75.6545 179.518,-84.2619 183.538,-78.5307"/>
</g>
<!-- Node12 -->
<g id="node12" class="node"><title>Node12</title>
<polygon fill="none" stroke="#bfbfbf" points="266.5,-56.5 266.5,-75.5 301.5,-75.5 301.5,-56.5 266.5,-56.5"/>
<text text-anchor="middle" x="284" y="-63.5" font-family="Helvetica,sans-Serif" font-size="10.00">map</text>
</g>
<!-- Node10&#45;&gt;Node12 -->
<g id="edge11" class="edge"><title>Node10&#45;&gt;Node12</title>
<path fill="none" stroke="midnightblue" d="M245.596,-112.083C252.227,-104.298 262.021,-92.8015 270.058,-83.3665"/>
<polygon fill="midnightblue" stroke="midnightblue" points="272.725,-85.6332 276.545,-75.7511 267.396,-81.0939 272.725,-85.6332"/>
</g>
<!-- Node13 -->
<g id="node13" class="node"><title>Node13</title>
<polygon fill="none" stroke="#bfbfbf" points="279.5,-0.5 279.5,-19.5 338.5,-19.5 338.5,-0.5 279.5,-0.5"/>
<text text-anchor="middle" x="309" y="-7.5" font-family="Helvetica,sans-Serif" font-size="10.00">TObject.h</text>
</g>
<!-- Node10&#45;&gt;Node13 -->
<g id="edge12" class="edge"><title>Node10&#45;&gt;Node13</title>
<path fill="none" stroke="midnightblue" d="M238.946,-112.359C240.712,-99.2617 245.437,-74.0042 257,-56 264.661,-44.071 276.404,-33.5262 286.793,-25.6482"/>
<polygon fill="midnightblue" stroke="midnightblue" points="289.008,-28.3666 295.082,-19.6861 284.92,-22.6839 289.008,-28.3666"/>
</g>
<!-- Node14 -->
<g id="node14" class="node"><title>Node14</title>
<polygon fill="none" stroke="#bfbfbf" points="0,-56.5 0,-75.5 116,-75.5 116,-56.5 0,-56.5"/>
<text text-anchor="middle" x="58" y="-63.5" font-family="Helvetica,sans-Serif" font-size="10.00">Common/Exceptions.h</text>
</g>
<!-- Node10&#45;&gt;Node14 -->
<g id="edge13" class="edge"><title>Node10&#45;&gt;Node14</title>
<path fill="none" stroke="midnightblue" d="M209.478,-112.444C178.934,-103.28 130.292,-88.6876 96.3973,-78.5192"/>
<polygon fill="midnightblue" stroke="midnightblue" points="96.9721,-75.0376 86.3881,-75.5164 94.9606,-81.7424 96.9721,-75.0376"/>
</g>
<!-- Node10&#45;&gt;Node15 -->
<g id="edge14" class="edge"><title>Node10&#45;&gt;Node15</title>
<path fill="none" stroke="midnightblue" d="M272.067,-112.444C309.18,-103.122 368.661,-88.1828 409.215,-77.9972"/>
<polygon fill="midnightblue" stroke="midnightblue" points="410.246,-81.347 419.092,-75.5164 408.541,-74.5579 410.246,-81.347"/>
</g>
<!-- Node15&#45;&gt;Node13 -->
<g id="edge15" class="edge"><title>Node15&#45;&gt;Node13</title>
<path fill="none" stroke="midnightblue" d="M430.183,-56.4435C406.168,-47.4381 368.171,-33.1891 341.131,-23.049"/>
<polygon fill="midnightblue" stroke="midnightblue" points="342.303,-19.7506 331.71,-19.5164 339.845,-26.3049 342.303,-19.7506"/>
</g>
<!-- Node16 -->
<g id="node16" class="node"><title>Node16</title>
<polygon fill="none" stroke="#bfbfbf" points="427,-0.5 427,-19.5 479,-19.5 479,-0.5 427,-0.5"/>
<text text-anchor="middle" x="453" y="-7.5" font-family="Helvetica,sans-Serif" font-size="10.00">ostream</text>
</g>
<!-- Node15&#45;&gt;Node16 -->
<g id="edge16" class="edge"><title>Node15&#45;&gt;Node16</title>
<path fill="none" stroke="midnightblue" d="M453,-56.083C453,-49.0059 453,-38.8611 453,-29.9865"/>
<polygon fill="midnightblue" stroke="midnightblue" points="456.5,-29.751 453,-19.7511 449.5,-29.7511 456.5,-29.751"/>
</g>
<!-- Node15&#45;&gt;Node17 -->
<g id="edge17" class="edge"><title>Node15&#45;&gt;Node17</title>
<path fill="none" stroke="midnightblue" d="M478.669,-56.4435C507.366,-46.8782 553.809,-31.3969 584.378,-21.2075"/>
<polygon fill="midnightblue" stroke="midnightblue" points="585.707,-24.4537 594.087,-17.971 583.493,-17.8129 585.707,-24.4537"/>
</g>
<!-- Node18&#45;&gt;Node17 -->
<g id="edge20" class="edge"><title>Node18&#45;&gt;Node17</title>
<path fill="none" stroke="midnightblue" d="M786.405,-112.368C754.351,-93.4121 677.565,-48.0006 638.575,-24.9424"/>
<polygon fill="midnightblue" stroke="midnightblue" points="639.916,-21.6693 629.527,-19.5914 636.353,-27.6945 639.916,-21.6693"/>
</g>
<!-- Node24&#45;&gt;Node4 -->
<g id="edge29" class="edge"><title>Node24&#45;&gt;Node4</title>
<path fill="none" stroke="midnightblue" d="M363.785,-336.075C363.155,-309.945 361.306,-233.211 360.448,-197.577"/>
<polygon fill="midnightblue" stroke="midnightblue" points="363.946,-197.481 360.206,-187.568 356.948,-197.65 363.946,-197.481"/>
</g>
<!-- Node24&#45;&gt;Node11 -->
<g id="edge28" class="edge"><title>Node24&#45;&gt;Node11</title>
<path fill="none" stroke="midnightblue" d="M291.475,-344.934C212.106,-340.587 96,-319.746 96,-235 96,-235 96,-235 96,-177 96,-139.178 124.835,-102.94 144.094,-82.9551"/>
<polygon fill="midnightblue" stroke="midnightblue" points="146.801,-85.1988 151.409,-75.6585 141.857,-80.2429 146.801,-85.1988"/>
</g>
<!-- Node24&#45;&gt;Node14 -->
<g id="edge38" class="edge"><title>Node24&#45;&gt;Node14</title>
<path fill="none" stroke="midnightblue" d="M291.41,-338.274C226.549,-331.198 137.234,-318.499 107,-300 76.1403,-281.118 58,-271.178 58,-235 58,-235 58,-235 58,-177 58,-144.948 58,-107.643 58,-85.7489"/>
<polygon fill="midnightblue" stroke="midnightblue" points="61.5001,-85.5577 58,-75.5578 54.5001,-85.5578 61.5001,-85.5577"/>
</g>
<!-- Node24&#45;&gt;Node18 -->
<g id="edge37" class="edge"><title>Node24&#45;&gt;Node18</title>
<path fill="none" stroke="midnightblue" d="M436.75,-341.796C473.774,-336.825 517.489,-325.429 549,-300 599.739,-259.055 562.186,-208.851 613,-168 631.337,-153.258 685.984,-141.165 731.665,-133.242"/>
<polygon fill="midnightblue" stroke="midnightblue" points="732.283,-136.688 741.558,-131.566 731.114,-129.786 732.283,-136.688"/>
</g>
<!-- Node25 -->
<g id="node25" class="node"><title>Node25</title>
<polygon fill="none" stroke="#bfbfbf" points="202,-280.5 202,-299.5 258,-299.5 258,-280.5 202,-280.5"/>
<text text-anchor="middle" x="230" y="-287.5" font-family="Helvetica,sans-Serif" font-size="10.00">TClass.h</text>
</g>
<!-- Node24&#45;&gt;Node25 -->
<g id="edge30" class="edge"><title>Node24&#45;&gt;Node25</title>
<path fill="none" stroke="midnightblue" d="M342.767,-336.444C320.616,-327.517 285.681,-313.439 260.564,-303.317"/>
<polygon fill="midnightblue" stroke="midnightblue" points="261.717,-300.008 251.133,-299.516 259.1,-306.501 261.717,-300.008"/>
</g>
<!-- Node26 -->
<g id="node26" class="node"><title>Node26</title>
<polygon fill="none" stroke="#bfbfbf" points="276.5,-280.5 276.5,-299.5 335.5,-299.5 335.5,-280.5 276.5,-280.5"/>
<text text-anchor="middle" x="306" y="-287.5" font-family="Helvetica,sans-Serif" font-size="10.00">TROOT.h</text>
</g>
<!-- Node24&#45;&gt;Node26 -->
<g id="edge31" class="edge"><title>Node24&#45;&gt;Node26</title>
<path fill="none" stroke="midnightblue" d="M354.681,-336.324C346.107,-328.341 333.188,-316.313 322.812,-306.653"/>
<polygon fill="midnightblue" stroke="midnightblue" points="325.192,-304.086 315.488,-299.834 320.422,-309.21 325.192,-304.086"/>
</g>
<!-- Node24&#45;&gt;Node27 -->
<g id="edge32" class="edge"><title>Node24&#45;&gt;Node27</title>
<path fill="none" stroke="midnightblue" d="M408.367,-336.444C461.278,-326.239 549.099,-309.302 601.275,-299.24"/>
<polygon fill="midnightblue" stroke="midnightblue" points="602.058,-302.653 611.214,-297.323 600.732,-295.78 602.058,-302.653"/>
</g>
<!-- Node28 -->
<g id="node28" class="node"><title>Node28</title>
<g id="a_node28"><a xlink:href="QcInfoLogger_8h.html" target="_top" xlink:title="QualityControl/QcInfoLogger.h">
<polygon fill="none" stroke="black" points="391.5,-280.5 391.5,-299.5 540.5,-299.5 540.5,-280.5 391.5,-280.5"/>
<text text-anchor="middle" x="466" y="-287.5" font-family="Helvetica,sans-Serif" font-size="10.00">QualityControl/QcInfoLogger.h</text>
</a>
</g>
</g>
<!-- Node24&#45;&gt;Node28 -->
<g id="edge33" class="edge"><title>Node24&#45;&gt;Node28</title>
<path fill="none" stroke="midnightblue" d="M380.388,-336.324C396.671,-327.703 421.867,-314.364 440.716,-304.386"/>
<polygon fill="midnightblue" stroke="midnightblue" points="442.452,-307.427 449.653,-299.655 439.177,-301.24 442.452,-307.427"/>
</g>
<!-- Node28&#45;&gt;Node3 -->
<g id="edge34" class="edge"><title>Node28&#45;&gt;Node3</title>
<path fill="none" stroke="midnightblue" d="M507.515,-280.444C553.412,-270.984 627.38,-255.738 676.826,-245.547"/>
<polygon fill="midnightblue" stroke="midnightblue" points="677.592,-248.963 686.68,-243.516 676.179,-242.107 677.592,-248.963"/>
</g>
<!-- Node28&#45;&gt;Node11 -->
<g id="edge36" class="edge"><title>Node28&#45;&gt;Node11</title>
<path fill="none" stroke="midnightblue" d="M415.423,-280.454C342.596,-265.13 210.63,-225.38 153,-132 144.34,-117.967 148.06,-98.9725 152.912,-85.1417"/>
<polygon fill="midnightblue" stroke="midnightblue" points="156.208,-86.3248 156.657,-75.7395 149.705,-83.7345 156.208,-86.3248"/>
</g>
<!-- Node29 -->
<g id="node29" class="node"><title>Node29</title>
<polygon fill="none" stroke="#bfbfbf" points="401,-224.5 401,-243.5 531,-243.5 531,-224.5 401,-224.5"/>
<text text-anchor="middle" x="466" y="-231.5" font-family="Helvetica,sans-Serif" font-size="10.00">InfoLogger/InfoLogger.hxx</text>
</g>
<!-- Node28&#45;&gt;Node29 -->
<g id="edge35" class="edge"><title>Node28&#45;&gt;Node29</title>
<path fill="none" stroke="midnightblue" d="M466,-280.083C466,-273.006 466,-262.861 466,-253.986"/>
<polygon fill="midnightblue" stroke="midnightblue" points="469.5,-253.751 466,-243.751 462.5,-253.751 469.5,-253.751"/>
</g>
</g>
</svg>
        <g id="navigator" transform="translate(0 0)" fill="#404254">
                <rect fill="#f2f5e9" fill-opacity="0.5" stroke="#606060" stroke-width=".5" x="0" y="0" width="60" height="60"/>
                <use id="zoomplus" xlink:href="#zoomPlus" x="17" y="9" onmousedown="handleZoom(evt,'in')"/>
                <use id="zoomminus" xlink:href="#zoomMin" x="42" y="9" onmousedown="handleZoom(evt,'out')"/>
                <use id="reset" xlink:href="#resetDef" x="30" y="36" onmousedown="handleReset()"/>
                <g id="arrowUp" xlink:href="#dirArrow" transform="translate(30 24)" onmousedown="handlePan(0,-1)">
                  <use xlink:href="#rim" fill="#404040">
                        <set attributeName="fill" to="#808080" begin="arrowUp.mouseover" end="arrowUp.mouseout"/>
                  </use>
                  <path fill="none" stroke="white" stroke-width="1.5" d="M0,-3.0v7 M-2.5,-0.5L0,-3.0L2.5,-0.5"/>
                </g>
                <g id="arrowRight" xlink:href="#dirArrow" transform="rotate(90) translate(36 -43)" onmousedown="handlePan(1,0)">
                  <use xlink:href="#rim" fill="#404040">
                        <set attributeName="fill" to="#808080" begin="arrowRight.mouseover" end="arrowRight.mouseout"/>
                  </use>
                  <path fill="none" stroke="white" stroke-width="1.5" d="M0,-3.0v7 M-2.5,-0.5L0,-3.0L2.5,-0.5"/>
                </g>
                <g id="arrowDown" xlink:href="#dirArrow" transform="rotate(180) translate(-30 -48)" onmousedown="handlePan(0,1)">
                  <use xlink:href="#rim" fill="#404040">
                        <set attributeName="fill" to="#808080" begin="arrowDown.mouseover" end="arrowDown.mouseout"/>
                  </use>
                  <path fill="none" stroke="white" stroke-width="1.5" d="M0,-3.0v7 M-2.5,-0.5L0,-3.0L2.5,-0.5"/>
                </g>
                <g id="arrowLeft" xlink:href="#dirArrow" transform="rotate(270) translate(-36 17)" onmousedown="handlePan(-1,0)">
                  <use xlink:href="#rim" fill="#404040">
                        <set attributeName="fill" to="#808080" begin="arrowLeft.mouseover" end="arrowLeft.mouseout"/>
                  </use>
                  <path fill="none" stroke="white" stroke-width="1.5" d="M0,-3.0v7 M-2.5,-0.5L0,-3.0L2.5,-0.5"/>
                </g>
        </g>
        <svg viewBox="0 0 15 15" width="100%" height="30px" preserveAspectRatio="xMaxYMin meet">
         <g id="arrow_out" transform="scale(0.3 0.3)">
          <a xlink:href="testQcDaq_8cxx__incl_org.svg" target="_base">
           <rect id="button" ry="5" rx="5" y="6" x="6" height="38" width="38"
                fill="#f2f5e9" fill-opacity="0.5" stroke="#606060" stroke-width="1.0"/>
           <path id="arrow"
             d="M 11.500037,31.436501 C 11.940474,20.09759 22.043105,11.32322 32.158766,21.979434 L 37.068811,17.246167 C 37.068811,17.246167 37.088388,32 37.088388,32 L 22.160133,31.978069 C 22.160133,31.978069 26.997745,27.140456 26.997745,27.140456 C 18.528582,18.264221 13.291696,25.230495 11.500037,31.436501 z"
             style="fill:#404040;"/>
          </a>
         </g>
        </svg>
</svg>
