<?xml version="1.0" encoding="UTF-8" standalone="no"?>
<!DOCTYPE svg PUBLIC "-//W3C//DTD SVG 1.1//EN"
 "http://www.w3.org/Graphics/SVG/1.1/DTD/svg11.dtd">
<!-- Generated by graphviz version 2.38.0 (20140413.2041)
 -->
<!-- Title: Framework/test/testDbFactory.cxx Pages: 1 -->
<!--zoomable 319 -->
<svg id="main" version="1.1" xmlns="http://www.w3.org/2000/svg" xmlns:xlink="http://www.w3.org/1999/xlink" xml:space="preserve" onload="init(evt)">
<style type="text/css"><![CDATA[
.edge:hover path { stroke: red; }
.edge:hover polygon { stroke: red; fill: red; }
]]></style>
<script type="text/javascript"><![CDATA[
var edges = document.getElementsByTagName('g');
if (edges && edges.length) {
  for (var i=0;i<edges.length;i++) {
    if (edges[i].id.substr(0,4)=='edge') {
      edges[i].setAttribute('class','edge');
    }
  }
}
]]></script>
        <defs>
                <circle id="rim" cx="0" cy="0" r="7"/>
                <circle id="rim2" cx="0" cy="0" r="3.5"/>
                <g id="zoomPlus">
                        <use xlink:href="#rim" fill="#404040">
                                <set attributeName="fill" to="#808080" begin="zoomplus.mouseover" end="zoomplus.mouseout"/>
                        </use>
                        <path d="M-4,0h8M0,-4v8" fill="none" stroke="white" stroke-width="1.5" pointer-events="none"/>
                </g>
                <g id="zoomMin">
                        <use xlink:href="#rim" fill="#404040">
                                <set attributeName="fill" to="#808080" begin="zoomminus.mouseover" end="zoomminus.mouseout"/>
                        </use>
                        <path d="M-4,0h8" fill="none" stroke="white" stroke-width="1.5" pointer-events="none"/>
                </g>
                <g id="dirArrow">
                        <path fill="none" stroke="white" stroke-width="1.5" d="M0,-3.0v7 M-2.5,-0.5L0,-3.0L2.5,-0.5"/>
                </g>
               <g id="resetDef">
                       <use xlink:href="#rim2" fill="#404040">
                               <set attributeName="fill" to="#808080" begin="reset.mouseover" end="reset.mouseout"/>
                       </use>
               </g>
        </defs>

<script type="text/javascript">
var viewWidth = 936;
var viewHeight = 319;
var sectionId = 'dynsection-0';
</script>
<script xlink:href="svgpan.js"/>
<svg id="graph" class="graph">
<g id="viewport">
<title>Framework/test/testDbFactory.cxx</title>
<!-- Node1 -->
<g id="node1" class="node"><title>Node1</title>
<polygon fill="#bfbfbf" stroke="black" points="495.5,-291.5 495.5,-310.5 664.5,-310.5 664.5,-291.5 495.5,-291.5"/>
<text text-anchor="middle" x="580" y="-298.5" font-family="Helvetica,sans-Serif" font-size="10.00">Framework/test/testDbFactory.cxx</text>
</g>
<!-- Node2 -->
<g id="node2" class="node"><title>Node2</title>
<g id="a_node2"><a xlink:href="DatabaseFactory_8h.html" target="_top" xlink:title="../include/QualityControl\l/DatabaseFactory.h">
<polygon fill="none" stroke="black" points="40,-224.5 40,-254.5 162,-254.5 162,-224.5 40,-224.5"/>
<text text-anchor="start" x="48" y="-242.5" font-family="Helvetica,sans-Serif" font-size="10.00">../include/QualityControl</text>
<text text-anchor="middle" x="101" y="-231.5" font-family="Helvetica,sans-Serif" font-size="10.00">/DatabaseFactory.h</text>
</a>
</g>
</g>
<!-- Node1&#45;&gt;Node2 -->
<g id="edge1" class="edge"><title>Node1&#45;&gt;Node2</title>
<path fill="none" stroke="midnightblue" d="M508.001,-291.486C433.419,-282.609 313.508,-268.179 210,-255 197.747,-253.44 184.725,-251.742 172.105,-250.076"/>
<polygon fill="midnightblue" stroke="midnightblue" points="172.466,-246.593 162.093,-248.75 171.546,-253.533 172.466,-246.593"/>
</g>
<!-- Node6 -->
<g id="node6" class="node"><title>Node6</title>
<g id="a_node6"><a xlink:href="MonitorObject_8h.html" target="_top" xlink:title="QualityControl/MonitorObject.h">
<polygon fill="none" stroke="black" points="248.5,-112.5 248.5,-131.5 399.5,-131.5 399.5,-112.5 248.5,-112.5"/>
<text text-anchor="middle" x="324" y="-119.5" font-family="Helvetica,sans-Serif" font-size="10.00">QualityControl/MonitorObject.h</text>
</a>
</g>
</g>
<!-- Node1&#45;&gt;Node6 -->
<g id="edge22" class="edge"><title>Node1&#45;&gt;Node6</title>
<path fill="none" stroke="midnightblue" d="M508.758,-291.454C480.801,-285.132 449.98,-274.133 427,-255 393.701,-227.275 410.706,-201.316 383,-168 372.957,-155.924 359.098,-145.143 347.335,-137.164"/>
<polygon fill="midnightblue" stroke="midnightblue" points="349.136,-134.16 338.847,-131.632 345.314,-140.024 349.136,-134.16"/>
</g>
<!-- Node7 -->
<g id="node7" class="node"><title>Node7</title>
<polygon fill="none" stroke="#bfbfbf" points="406,-56.5 406,-75.5 460,-75.5 460,-56.5 406,-56.5"/>
<text text-anchor="middle" x="433" y="-63.5" font-family="Helvetica,sans-Serif" font-size="10.00">iostream</text>
</g>
<!-- Node1&#45;&gt;Node7 -->
<g id="edge18" class="edge"><title>Node1&#45;&gt;Node7</title>
<path fill="none" stroke="midnightblue" d="M522.704,-291.481C499.873,-285.162 475.409,-274.159 460,-255 419.909,-205.151 425.076,-122.887 429.93,-85.9664"/>
<polygon fill="midnightblue" stroke="midnightblue" points="433.451,-86.0725 431.437,-75.671 426.525,-85.0585 433.451,-86.0725"/>
</g>
<!-- Node14 -->
<g id="node14" class="node"><title>Node14</title>
<polygon fill="none" stroke="#bfbfbf" points="469.5,-230 469.5,-249 588.5,-249 588.5,-230 469.5,-230"/>
<text text-anchor="middle" x="529" y="-237" font-family="Helvetica,sans-Serif" font-size="10.00">boost/test/unit_test.hpp</text>
</g>
<!-- Node1&#45;&gt;Node14 -->
<g id="edge16" class="edge"><title>Node1&#45;&gt;Node14</title>
<path fill="none" stroke="midnightblue" d="M572.693,-291.475C564.967,-282.462 552.592,-268.025 542.982,-256.812"/>
<polygon fill="midnightblue" stroke="midnightblue" points="545.459,-254.324 536.294,-249.009 540.144,-258.879 545.459,-254.324"/>
</g>
<!-- Node15 -->
<g id="node15" class="node"><title>Node15</title>
<polygon fill="none" stroke="#bfbfbf" points="606.5,-230 606.5,-249 655.5,-249 655.5,-230 606.5,-230"/>
<text text-anchor="middle" x="631" y="-237" font-family="Helvetica,sans-Serif" font-size="10.00">cassert</text>
</g>
<!-- Node1&#45;&gt;Node15 -->
<g id="edge17" class="edge"><title>Node1&#45;&gt;Node15</title>
<path fill="none" stroke="midnightblue" d="M587.307,-291.475C595.033,-282.462 607.408,-268.025 617.018,-256.812"/>
<polygon fill="midnightblue" stroke="midnightblue" points="619.856,-258.879 623.706,-249.009 614.541,-254.324 619.856,-258.879"/>
</g>
<!-- Node16 -->
<g id="node16" class="node"><title>Node16</title>
<g id="a_node16"><a xlink:href="CcdbDatabase_8h.html" target="_top" xlink:title="QualityControl/CcdbDatabase.h">
<polygon fill="none" stroke="black" points="219.5,-230 219.5,-249 374.5,-249 374.5,-230 219.5,-230"/>
<text text-anchor="middle" x="297" y="-237" font-family="Helvetica,sans-Serif" font-size="10.00">QualityControl/CcdbDatabase.h</text>
</a>
</g>
</g>
<!-- Node1&#45;&gt;Node16 -->
<g id="edge19" class="edge"><title>Node1&#45;&gt;Node16</title>
<path fill="none" stroke="midnightblue" d="M539.453,-291.475C488.807,-280.827 402.158,-262.609 347.324,-251.081"/>
<polygon fill="midnightblue" stroke="midnightblue" points="347.978,-247.642 337.472,-249.009 346.538,-254.492 347.978,-247.642"/>
</g>
<!-- Node18 -->
<g id="node18" class="node"><title>Node18</title>
<polygon fill="none" stroke="#bfbfbf" points="674,-230 674,-249 724,-249 724,-230 674,-230"/>
<text text-anchor="middle" x="699" y="-237" font-family="Helvetica,sans-Serif" font-size="10.00">TH1F.h</text>
</g>
<!-- Node1&#45;&gt;Node18 -->
<g id="edge23" class="edge"><title>Node1&#45;&gt;Node18</title>
<path fill="none" stroke="midnightblue" d="M597.05,-291.475C616.844,-281.578 649.717,-265.142 672.77,-253.615"/>
<polygon fill="midnightblue" stroke="midnightblue" points="674.603,-256.612 681.982,-249.009 671.472,-250.351 674.603,-256.612"/>
</g>
<!-- Node19 -->
<g id="node19" class="node"><title>Node19</title>
<polygon fill="none" stroke="#bfbfbf" points="742,-230 742,-249 786,-249 786,-230 742,-230"/>
<text text-anchor="middle" x="764" y="-237" font-family="Helvetica,sans-Serif" font-size="10.00">fcntl.h</text>
</g>
<!-- Node1&#45;&gt;Node19 -->
<g id="edge24" class="edge"><title>Node1&#45;&gt;Node19</title>
<path fill="none" stroke="midnightblue" d="M614.519,-291.449C645.854,-283.311 693.121,-270.092 733,-255 734.424,-254.461 735.873,-253.885 737.329,-253.284"/>
<polygon fill="midnightblue" stroke="midnightblue" points="739.081,-256.337 746.82,-249.1 736.257,-249.932 739.081,-256.337"/>
</g>
<!-- Node20 -->
<g id="node20" class="node"><title>Node20</title>
<polygon fill="none" stroke="#bfbfbf" points="804,-230 804,-249 850,-249 850,-230 804,-230"/>
<text text-anchor="middle" x="827" y="-237" font-family="Helvetica,sans-Serif" font-size="10.00">stdio.h</text>
</g>
<!-- Node1&#45;&gt;Node20 -->
<g id="edge25" class="edge"><title>Node1&#45;&gt;Node20</title>
<path fill="none" stroke="midnightblue" d="M637.476,-291.493C681.3,-284.166 742.802,-272.06 795,-255 796.87,-254.389 798.776,-253.702 800.68,-252.967"/>
<polygon fill="midnightblue" stroke="midnightblue" points="802.15,-256.146 810.004,-249.035 799.429,-249.696 802.15,-256.146"/>
</g>
<!-- Node21 -->
<g id="node21" class="node"><title>Node21</title>
<polygon fill="none" stroke="#bfbfbf" points="868,-230 868,-249 928,-249 928,-230 868,-230"/>
<text text-anchor="middle" x="898" y="-237" font-family="Helvetica,sans-Serif" font-size="10.00">sys/stat.h</text>
</g>
<!-- Node1&#45;&gt;Node21 -->
<g id="edge26" class="edge"><title>Node1&#45;&gt;Node21</title>
<path fill="none" stroke="midnightblue" d="M658.728,-291.485C715.093,-284.379 792.465,-272.553 859,-255 861.816,-254.257 864.712,-253.389 867.593,-252.453"/>
<polygon fill="midnightblue" stroke="midnightblue" points="868.91,-255.7 877.193,-249.094 866.599,-249.093 868.91,-255.7"/>
</g>
<!-- Node3 -->
<g id="node3" class="node"><title>Node3</title>
<polygon fill="none" stroke="#bfbfbf" points="59,-112.5 59,-131.5 111,-131.5 111,-112.5 59,-112.5"/>
<text text-anchor="middle" x="85" y="-119.5" font-family="Helvetica,sans-Serif" font-size="10.00">memory</text>
</g>
<!-- Node2&#45;&gt;Node3 -->
<g id="edge2" class="edge"><title>Node2&#45;&gt;Node3</title>
<path fill="none" stroke="midnightblue" d="M94.0855,-224.309C89.6538,-214.399 84.3134,-200.718 82,-188 79.2168,-172.699 80.2947,-155.056 81.8858,-142.016"/>
<polygon fill="midnightblue" stroke="midnightblue" points="85.3792,-142.311 83.332,-131.916 78.4499,-141.319 85.3792,-142.311"/>
</g>
<!-- Node4 -->
<g id="node4" class="node"><title>Node4</title>
<polygon fill="none" stroke="#bfbfbf" points="0,-56.5 0,-75.5 116,-75.5 116,-56.5 0,-56.5"/>
<text text-anchor="middle" x="58" y="-63.5" font-family="Helvetica,sans-Serif" font-size="10.00">Common/Exceptions.h</text>
</g>
<!-- Node2&#45;&gt;Node4 -->
<g id="edge3" class="edge"><title>Node2&#45;&gt;Node4</title>
<path fill="none" stroke="midnightblue" d="M91.723,-224.443C79.3395,-204.75 58.0354,-167.385 50,-132 46.4593,-116.408 49.2225,-98.3323 52.4323,-85.2064"/>
<polygon fill="midnightblue" stroke="midnightblue" points="55.8224,-86.0785 55.1051,-75.5079 49.074,-84.2186 55.8224,-86.0785"/>
</g>
<!-- Node5 -->
<g id="node5" class="node"><title>Node5</title>
<g id="a_node5"><a xlink:href="DatabaseInterface_8h.html" target="_top" xlink:title="QualityControl/DatabaseInterface.h">
<polygon fill="none" stroke="black" points="91,-168.5 91,-187.5 261,-187.5 261,-168.5 91,-168.5"/>
<text text-anchor="middle" x="176" y="-175.5" font-family="Helvetica,sans-Serif" font-size="10.00">QualityControl/DatabaseInterface.h</text>
</a>
</g>
</g>
<!-- Node2&#45;&gt;Node5 -->
<g id="edge4" class="edge"><title>Node2&#45;&gt;Node5</title>
<path fill="none" stroke="midnightblue" d="M118.774,-224.399C130.346,-215.218 145.423,-203.258 157.196,-193.918"/>
<polygon fill="midnightblue" stroke="midnightblue" points="159.428,-196.615 165.087,-187.658 155.077,-191.131 159.428,-196.615"/>
</g>
<!-- Node5&#45;&gt;Node3 -->
<g id="edge14" class="edge"><title>Node5&#45;&gt;Node3</title>
<path fill="none" stroke="midnightblue" d="M161.379,-168.324C147.051,-159.822 124.987,-146.729 108.251,-136.797"/>
<polygon fill="midnightblue" stroke="midnightblue" points="109.97,-133.748 99.5844,-131.655 106.398,-139.768 109.97,-133.748"/>
</g>
<!-- Node5&#45;&gt;Node6 -->
<g id="edge5" class="edge"><title>Node5&#45;&gt;Node6</title>
<path fill="none" stroke="midnightblue" d="M199.451,-168.444C224.133,-159.438 263.185,-145.189 290.977,-135.049"/>
<polygon fill="midnightblue" stroke="midnightblue" points="292.464,-138.232 300.659,-131.516 290.065,-131.656 292.464,-138.232"/>
</g>
<!-- Node13 -->
<g id="node13" class="node"><title>Node13</title>
<polygon fill="none" stroke="#bfbfbf" points="134.5,-112.5 134.5,-131.5 217.5,-131.5 217.5,-112.5 134.5,-112.5"/>
<text text-anchor="middle" x="176" y="-119.5" font-family="Helvetica,sans-Serif" font-size="10.00">unordered_map</text>
</g>
<!-- Node5&#45;&gt;Node13 -->
<g id="edge15" class="edge"><title>Node5&#45;&gt;Node13</title>
<path fill="none" stroke="midnightblue" d="M176,-168.083C176,-161.006 176,-150.861 176,-141.986"/>
<polygon fill="midnightblue" stroke="midnightblue" points="179.5,-141.751 176,-131.751 172.5,-141.751 179.5,-141.751"/>
</g>
<!-- Node6&#45;&gt;Node4 -->
<g id="edge9" class="edge"><title>Node6&#45;&gt;Node4</title>
<path fill="none" stroke="midnightblue" d="M281.852,-112.444C235.254,-102.984 160.156,-87.7384 109.955,-77.5472"/>
<polygon fill="midnightblue" stroke="midnightblue" points="110.448,-74.076 99.9513,-75.5164 109.055,-80.936 110.448,-74.076"/>
</g>
<!-- Node6&#45;&gt;Node7 -->
<g id="edge6" class="edge"><title>Node6&#45;&gt;Node7</title>
<path fill="none" stroke="midnightblue" d="M341.513,-112.324C359.072,-103.625 386.331,-90.1202 406.531,-80.113"/>
<polygon fill="midnightblue" stroke="midnightblue" points="408.124,-83.23 415.531,-75.6545 405.016,-76.9575 408.124,-83.23"/>
</g>
<!-- Node8 -->
<g id="node8" class="node"><title>Node8</title>
<polygon fill="none" stroke="#bfbfbf" points="306.5,-56.5 306.5,-75.5 341.5,-75.5 341.5,-56.5 306.5,-56.5"/>
<text text-anchor="middle" x="324" y="-63.5" font-family="Helvetica,sans-Serif" font-size="10.00">map</text>
</g>
<!-- Node6&#45;&gt;Node8 -->
<g id="edge7" class="edge"><title>Node6&#45;&gt;Node8</title>
<path fill="none" stroke="midnightblue" d="M324,-112.083C324,-105.006 324,-94.8611 324,-85.9865"/>
<polygon fill="midnightblue" stroke="midnightblue" points="327.5,-85.751 324,-75.7511 320.5,-85.7511 327.5,-85.751"/>
</g>
<!-- Node9 -->
<g id="node9" class="node"><title>Node9</title>
<polygon fill="none" stroke="#bfbfbf" points="321.5,-0.5 321.5,-19.5 380.5,-19.5 380.5,-0.5 321.5,-0.5"/>
<text text-anchor="middle" x="351" y="-7.5" font-family="Helvetica,sans-Serif" font-size="10.00">TObject.h</text>
</g>
<!-- Node6&#45;&gt;Node9 -->
<g id="edge8" class="edge"><title>Node6&#45;&gt;Node9</title>
<path fill="none" stroke="midnightblue" d="M330.844,-112.306C337.188,-103.662 346.202,-89.7408 350,-76 354.186,-60.8555 354.115,-42.9595 353.179,-29.7836"/>
<polygon fill="midnightblue" stroke="midnightblue" points="356.643,-29.2347 352.219,-19.6076 349.673,-29.8921 356.643,-29.2347"/>
</g>
<!-- Node10 -->
<g id="node10" class="node"><title>Node10</title>
<g id="a_node10"><a xlink:href="Quality_8h.html" target="_top" xlink:title="QualityControl/Quality.h">
<polygon fill="none" stroke="black" points="167.5,-56.5 167.5,-75.5 288.5,-75.5 288.5,-56.5 167.5,-56.5"/>
<text text-anchor="middle" x="228" y="-63.5" font-family="Helvetica,sans-Serif" font-size="10.00">QualityControl/Quality.h</text>
</a>
</g>
</g>
<!-- Node6&#45;&gt;Node10 -->
<g id="edge10" class="edge"><title>Node6&#45;&gt;Node10</title>
<path fill="none" stroke="midnightblue" d="M308.576,-112.324C293.46,-103.822 270.185,-90.7288 252.529,-80.7975"/>
<polygon fill="midnightblue" stroke="midnightblue" points="253.817,-77.5066 243.386,-75.6545 250.386,-83.6077 253.817,-77.5066"/>
</g>
<!-- Node10&#45;&gt;Node9 -->
<g id="edge11" class="edge"><title>Node10&#45;&gt;Node9</title>
<path fill="none" stroke="midnightblue" d="M247.49,-56.4435C267.642,-47.5961 299.323,-33.6875 322.331,-23.5865"/>
<polygon fill="midnightblue" stroke="midnightblue" points="323.852,-26.7411 331.601,-19.5164 321.038,-20.3316 323.852,-26.7411"/>
</g>
<!-- Node11 -->
<g id="node11" class="node"><title>Node11</title>
<polygon fill="none" stroke="#bfbfbf" points="155,-0.5 155,-19.5 207,-19.5 207,-0.5 155,-0.5"/>
<text text-anchor="middle" x="181" y="-7.5" font-family="Helvetica,sans-Serif" font-size="10.00">ostream</text>
</g>
<!-- Node10&#45;&gt;Node11 -->
<g id="edge12" class="edge"><title>Node10&#45;&gt;Node11</title>
<path fill="none" stroke="midnightblue" d="M220.239,-56.083C213.463,-48.2982 203.457,-36.8015 195.245,-27.3665"/>
<polygon fill="midnightblue" stroke="midnightblue" points="197.822,-24.9963 188.617,-19.7511 192.542,-29.592 197.822,-24.9963"/>
</g>
<!-- Node12 -->
<g id="node12" class="node"><title>Node12</title>
<polygon fill="none" stroke="#bfbfbf" points="225.5,-0.5 225.5,-19.5 266.5,-19.5 266.5,-0.5 225.5,-0.5"/>
<text text-anchor="middle" x="246" y="-7.5" font-family="Helvetica,sans-Serif" font-size="10.00">string</text>
</g>
<!-- Node10&#45;&gt;Node12 -->
<g id="edge13" class="edge"><title>Node10&#45;&gt;Node12</title>
<path fill="none" stroke="midnightblue" d="M230.972,-56.083C233.384,-48.8486 236.864,-38.4087 239.868,-29.3968"/>
<polygon fill="midnightblue" stroke="midnightblue" points="243.241,-30.3447 243.083,-19.7511 236.6,-28.1311 243.241,-30.3447"/>
</g>
<!-- Node16&#45;&gt;Node5 -->
<g id="edge21" class="edge"><title>Node16&#45;&gt;Node5</title>
<path fill="none" stroke="midnightblue" d="M279.664,-229.975C259.447,-220.034 225.813,-203.495 202.358,-191.961"/>
<polygon fill="midnightblue" stroke="midnightblue" points="203.822,-188.781 193.304,-187.509 200.733,-195.063 203.822,-188.781"/>
</g>
<!-- Node17 -->
<g id="node17" class="node"><title>Node17</title>
<polygon fill="none" stroke="#bfbfbf" points="279.5,-168.5 279.5,-187.5 374.5,-187.5 374.5,-168.5 279.5,-168.5"/>
<text text-anchor="middle" x="327" y="-175.5" font-family="Helvetica,sans-Serif" font-size="10.00">CCDB/CcdbApi.h</text>
</g>
<!-- Node16&#45;&gt;Node17 -->
<g id="edge20" class="edge"><title>Node16&#45;&gt;Node17</title>
<path fill="none" stroke="midnightblue" d="M301.298,-229.975C305.665,-221.315 312.555,-207.649 318.103,-196.645"/>
<polygon fill="midnightblue" stroke="midnightblue" points="321.333,-198.014 322.71,-187.509 315.082,-194.863 321.333,-198.014"/>
</g>
</g>
</svg>
        <g id="navigator" transform="translate(0 0)" fill="#404254">
                <rect fill="#f2f5e9" fill-opacity="0.5" stroke="#606060" stroke-width=".5" x="0" y="0" width="60" height="60"/>
                <use id="zoomplus" xlink:href="#zoomPlus" x="17" y="9" onmousedown="handleZoom(evt,'in')"/>
                <use id="zoomminus" xlink:href="#zoomMin" x="42" y="9" onmousedown="handleZoom(evt,'out')"/>
                <use id="reset" xlink:href="#resetDef" x="30" y="36" onmousedown="handleReset()"/>
                <g id="arrowUp" xlink:href="#dirArrow" transform="translate(30 24)" onmousedown="handlePan(0,-1)">
                  <use xlink:href="#rim" fill="#404040">
                        <set attributeName="fill" to="#808080" begin="arrowUp.mouseover" end="arrowUp.mouseout"/>
                  </use>
                  <path fill="none" stroke="white" stroke-width="1.5" d="M0,-3.0v7 M-2.5,-0.5L0,-3.0L2.5,-0.5"/>
                </g>
                <g id="arrowRight" xlink:href="#dirArrow" transform="rotate(90) translate(36 -43)" onmousedown="handlePan(1,0)">
                  <use xlink:href="#rim" fill="#404040">
                        <set attributeName="fill" to="#808080" begin="arrowRight.mouseover" end="arrowRight.mouseout"/>
                  </use>
                  <path fill="none" stroke="white" stroke-width="1.5" d="M0,-3.0v7 M-2.5,-0.5L0,-3.0L2.5,-0.5"/>
                </g>
                <g id="arrowDown" xlink:href="#dirArrow" transform="rotate(180) translate(-30 -48)" onmousedown="handlePan(0,1)">
                  <use xlink:href="#rim" fill="#404040">
                        <set attributeName="fill" to="#808080" begin="arrowDown.mouseover" end="arrowDown.mouseout"/>
                  </use>
                  <path fill="none" stroke="white" stroke-width="1.5" d="M0,-3.0v7 M-2.5,-0.5L0,-3.0L2.5,-0.5"/>
                </g>
                <g id="arrowLeft" xlink:href="#dirArrow" transform="rotate(270) translate(-36 17)" onmousedown="handlePan(-1,0)">
                  <use xlink:href="#rim" fill="#404040">
                        <set attributeName="fill" to="#808080" begin="arrowLeft.mouseover" end="arrowLeft.mouseout"/>
                  </use>
                  <path fill="none" stroke="white" stroke-width="1.5" d="M0,-3.0v7 M-2.5,-0.5L0,-3.0L2.5,-0.5"/>
                </g>
        </g>
        <svg viewBox="0 0 15 15" width="100%" height="30px" preserveAspectRatio="xMaxYMin meet">
         <g id="arrow_out" transform="scale(0.3 0.3)">
          <a xlink:href="testDbFactory_8cxx__incl_org.svg" target="_base">
           <rect id="button" ry="5" rx="5" y="6" x="6" height="38" width="38"
                fill="#f2f5e9" fill-opacity="0.5" stroke="#606060" stroke-width="1.0"/>
           <path id="arrow"
             d="M 11.500037,31.436501 C 11.940474,20.09759 22.043105,11.32322 32.158766,21.979434 L 37.068811,17.246167 C 37.068811,17.246167 37.088388,32 37.088388,32 L 22.160133,31.978069 C 22.160133,31.978069 26.997745,27.140456 26.997745,27.140456 C 18.528582,18.264221 13.291696,25.230495 11.500037,31.436501 z"
             style="fill:#404040;"/>
          </a>
         </g>
        </svg>
</svg>
