<?xml version="1.0" encoding="UTF-8" standalone="no"?>
<!DOCTYPE svg PUBLIC "-//W3C//DTD SVG 1.1//EN"
 "http://www.w3.org/Graphics/SVG/1.1/DTD/svg11.dtd">
<!-- Generated by graphviz version 2.38.0 (20140413.2041)
 -->
<!-- Title: Modules/Example/test/testQcExample.cxx Pages: 1 -->
<svg width="1203pt" height="442pt"
 viewBox="0.00 0.00 1203.00 442.00" xmlns="http://www.w3.org/2000/svg" xmlns:xlink="http://www.w3.org/1999/xlink">
<g id="graph0" class="graph" transform="scale(1 1) rotate(0) translate(4 438)">
<title>Modules/Example/test/testQcExample.cxx</title>
<!-- Node1 -->
<g id="node1" class="node"><title>Node1</title>
<polygon fill="#bfbfbf" stroke="black" points="928,-403.5 928,-433.5 1042,-433.5 1042,-403.5 928,-403.5"/>
<text text-anchor="start" x="936" y="-421.5" font-family="Helvetica,sans-Serif" font-size="10.00">Modules/Example/test</text>
<text text-anchor="middle" x="985" y="-410.5" font-family="Helvetica,sans-Serif" font-size="10.00">/testQcExample.cxx</text>
</g>
<!-- Node2 -->
<g id="node2" class="node"><title>Node2</title>
<g id="a_node2"><a xlink:href="ExampleTask_8h.html" target="_top" xlink:title="../include/Example\l/ExampleTask.h">
<polygon fill="none" stroke="black" points="644,-336.5 644,-366.5 742,-366.5 742,-336.5 644,-336.5"/>
<text text-anchor="start" x="652" y="-354.5" font-family="Helvetica,sans-Serif" font-size="10.00">../include/Example</text>
<text text-anchor="middle" x="693" y="-343.5" font-family="Helvetica,sans-Serif" font-size="10.00">/ExampleTask.h</text>
</a>
</g>
</g>
<!-- Node1&#45;&gt;Node2 -->
<g id="edge1" class="edge"><title>Node1&#45;&gt;Node2</title>
<path fill="none" stroke="midnightblue" d="M927.659,-404.736C877.053,-393.471 803.577,-377.115 752.371,-365.716"/>
<polygon fill="midnightblue" stroke="midnightblue" points="752.962,-362.262 742.44,-363.506 751.441,-369.095 752.962,-362.262"/>
</g>
<!-- Node22 -->
<g id="node22" class="node"><title>Node22</title>
<g id="a_node22"><a xlink:href="TaskFactory_8h.html" target="_top" xlink:title="QualityControl/TaskFactory.h">
<polygon fill="none" stroke="black" points="811.5,-342 811.5,-361 956.5,-361 956.5,-342 811.5,-342"/>
<text text-anchor="middle" x="884" y="-349" font-family="Helvetica,sans-Serif" font-size="10.00">QualityControl/TaskFactory.h</text>
</a>
</g>
</g>
<!-- Node1&#45;&gt;Node22 -->
<g id="edge25" class="edge"><title>Node1&#45;&gt;Node22</title>
<path fill="none" stroke="midnightblue" d="M963.085,-403.396C946.147,-392.496 922.813,-377.479 905.884,-366.584"/>
<polygon fill="midnightblue" stroke="midnightblue" points="907.522,-363.476 897.219,-361.007 903.734,-369.362 907.522,-363.476"/>
</g>
<!-- Node25 -->
<g id="node25" class="node"><title>Node25</title>
<polygon fill="none" stroke="#bfbfbf" points="1082.5,-280.5 1082.5,-299.5 1147.5,-299.5 1147.5,-280.5 1082.5,-280.5"/>
<text text-anchor="middle" x="1115" y="-287.5" font-family="Helvetica,sans-Serif" font-size="10.00">TSystem.h</text>
</g>
<!-- Node1&#45;&gt;Node25 -->
<g id="edge37" class="edge"><title>Node1&#45;&gt;Node25</title>
<path fill="none" stroke="midnightblue" d="M984.546,-403.379C984.732,-385.608 987.667,-355.105 1004,-336 1013.79,-324.548 1048.07,-311.641 1075.97,-302.597"/>
<polygon fill="midnightblue" stroke="midnightblue" points="1077.05,-305.927 1085.52,-299.568 1074.93,-299.254 1077.05,-305.927"/>
</g>
<!-- Node28 -->
<g id="node28" class="node"><title>Node28</title>
<polygon fill="none" stroke="#bfbfbf" points="1013.5,-342 1013.5,-361 1132.5,-361 1132.5,-342 1013.5,-342"/>
<text text-anchor="middle" x="1073" y="-349" font-family="Helvetica,sans-Serif" font-size="10.00">boost/test/unit_test.hpp</text>
</g>
<!-- Node1&#45;&gt;Node28 -->
<g id="edge38" class="edge"><title>Node1&#45;&gt;Node28</title>
<path fill="none" stroke="midnightblue" d="M1004.09,-403.396C1018.58,-392.697 1038.43,-378.033 1053.11,-367.193"/>
<polygon fill="midnightblue" stroke="midnightblue" points="1055.52,-369.764 1061.48,-361.007 1051.36,-364.133 1055.52,-369.764"/>
</g>
<!-- Node29 -->
<g id="node29" class="node"><title>Node29</title>
<polygon fill="none" stroke="#bfbfbf" points="1151,-342 1151,-361 1195,-361 1195,-342 1151,-342"/>
<text text-anchor="middle" x="1173" y="-349" font-family="Helvetica,sans-Serif" font-size="10.00">TH1.h</text>
</g>
<!-- Node1&#45;&gt;Node29 -->
<g id="edge39" class="edge"><title>Node1&#45;&gt;Node29</title>
<path fill="none" stroke="midnightblue" d="M1033.28,-403.405C1064.35,-393.959 1105.43,-380.768 1141,-367 1142.42,-366.45 1143.87,-365.869 1145.33,-365.268"/>
<polygon fill="midnightblue" stroke="midnightblue" points="1147.09,-368.322 1154.87,-361.14 1144.31,-361.897 1147.09,-368.322"/>
</g>
<!-- Node3 -->
<g id="node3" class="node"><title>Node3</title>
<g id="a_node3"><a xlink:href="TaskInterface_8h.html" target="_top" xlink:title="QualityControl/TaskInterface.h">
<polygon fill="none" stroke="black" points="429,-224.5 429,-243.5 579,-243.5 579,-224.5 429,-224.5"/>
<text text-anchor="middle" x="504" y="-231.5" font-family="Helvetica,sans-Serif" font-size="10.00">QualityControl/TaskInterface.h</text>
</a>
</g>
</g>
<!-- Node2&#45;&gt;Node3 -->
<g id="edge2" class="edge"><title>Node2&#45;&gt;Node3</title>
<path fill="none" stroke="midnightblue" d="M669.825,-336.337C633.45,-314.108 563.367,-271.28 527.062,-249.093"/>
<polygon fill="midnightblue" stroke="midnightblue" points="528.544,-245.898 518.186,-243.669 524.894,-251.87 528.544,-245.898"/>
</g>
<!-- Node4 -->
<g id="node4" class="node"><title>Node4</title>
<polygon fill="none" stroke="#bfbfbf" points="0,-168.5 0,-187.5 52,-187.5 52,-168.5 0,-168.5"/>
<text text-anchor="middle" x="26" y="-175.5" font-family="Helvetica,sans-Serif" font-size="10.00">memory</text>
</g>
<!-- Node3&#45;&gt;Node4 -->
<g id="edge3" class="edge"><title>Node3&#45;&gt;Node4</title>
<path fill="none" stroke="midnightblue" d="M428.667,-228.811C342.296,-223.23 196.387,-211.427 62.3217,-187.991"/>
<polygon fill="midnightblue" stroke="midnightblue" points="62.7378,-184.511 52.2802,-186.21 61.515,-191.403 62.7378,-184.511"/>
</g>
<!-- Node5 -->
<g id="node5" class="node"><title>Node5</title>
<polygon fill="none" stroke="#bfbfbf" points="568.5,-168.5 568.5,-187.5 617.5,-187.5 617.5,-168.5 568.5,-168.5"/>
<text text-anchor="middle" x="593" y="-175.5" font-family="Helvetica,sans-Serif" font-size="10.00">cassert</text>
</g>
<!-- Node3&#45;&gt;Node5 -->
<g id="edge4" class="edge"><title>Node3&#45;&gt;Node5</title>
<path fill="none" stroke="midnightblue" d="M518.299,-224.324C532.183,-215.9 553.492,-202.971 569.804,-193.074"/>
<polygon fill="midnightblue" stroke="midnightblue" points="572.002,-195.834 578.736,-187.655 568.371,-189.85 572.002,-195.834"/>
</g>
<!-- Node6 -->
<g id="node6" class="node"><title>Node6</title>
<polygon fill="none" stroke="#bfbfbf" points="635.5,-168.5 635.5,-187.5 760.5,-187.5 760.5,-168.5 635.5,-168.5"/>
<text text-anchor="middle" x="698" y="-175.5" font-family="Helvetica,sans-Serif" font-size="10.00">Framework/InitContext.h</text>
</g>
<!-- Node3&#45;&gt;Node6 -->
<g id="edge5" class="edge"><title>Node3&#45;&gt;Node6</title>
<path fill="none" stroke="midnightblue" d="M534.74,-224.444C567.944,-215.201 620.991,-200.436 657.557,-190.257"/>
<polygon fill="midnightblue" stroke="midnightblue" points="658.709,-193.57 667.404,-187.516 656.832,-186.826 658.709,-193.57"/>
</g>
<!-- Node7 -->
<g id="node7" class="node"><title>Node7</title>
<polygon fill="none" stroke="#bfbfbf" points="70,-168.5 70,-187.5 230,-187.5 230,-168.5 70,-168.5"/>
<text text-anchor="middle" x="150" y="-175.5" font-family="Helvetica,sans-Serif" font-size="10.00">Framework/ProcessingContext.h</text>
</g>
<!-- Node3&#45;&gt;Node7 -->
<g id="edge6" class="edge"><title>Node3&#45;&gt;Node7</title>
<path fill="none" stroke="midnightblue" d="M447.908,-224.444C384.859,-214.826 282.603,-199.228 215.824,-189.041"/>
<polygon fill="midnightblue" stroke="midnightblue" points="216.243,-185.565 205.83,-187.516 215.188,-192.484 216.243,-185.565"/>
</g>
<!-- Node8 -->
<g id="node8" class="node"><title>Node8</title>
<g id="a_node8"><a xlink:href="Activity_8h.html" target="_top" xlink:title="QualityControl/Activity.h">
<polygon fill="none" stroke="black" points="248.5,-168.5 248.5,-187.5 371.5,-187.5 371.5,-168.5 248.5,-168.5"/>
<text text-anchor="middle" x="310" y="-175.5" font-family="Helvetica,sans-Serif" font-size="10.00">QualityControl/Activity.h</text>
</a>
</g>
</g>
<!-- Node3&#45;&gt;Node8 -->
<g id="edge7" class="edge"><title>Node3&#45;&gt;Node8</title>
<path fill="none" stroke="midnightblue" d="M473.26,-224.444C440.056,-215.201 387.009,-200.436 350.443,-190.257"/>
<polygon fill="midnightblue" stroke="midnightblue" points="351.168,-186.826 340.596,-187.516 349.291,-193.57 351.168,-186.826"/>
</g>
<!-- Node9 -->
<g id="node9" class="node"><title>Node9</title>
<g id="a_node9"><a xlink:href="ObjectsManager_8h.html" target="_top" xlink:title="QualityControl/ObjectsManager.h">
<polygon fill="none" stroke="black" points="389.5,-168.5 389.5,-187.5 550.5,-187.5 550.5,-168.5 389.5,-168.5"/>
<text text-anchor="middle" x="470" y="-175.5" font-family="Helvetica,sans-Serif" font-size="10.00">QualityControl/ObjectsManager.h</text>
</a>
</g>
</g>
<!-- Node3&#45;&gt;Node9 -->
<g id="edge8" class="edge"><title>Node3&#45;&gt;Node9</title>
<path fill="none" stroke="midnightblue" d="M498.386,-224.083C493.633,-216.534 486.682,-205.495 480.848,-196.23"/>
<polygon fill="midnightblue" stroke="midnightblue" points="483.8,-194.349 475.51,-187.751 477.876,-198.078 483.8,-194.349"/>
</g>
<!-- Node10 -->
<g id="node10" class="node"><title>Node10</title>
<g id="a_node10"><a xlink:href="MonitorObject_8h.html" target="_top" xlink:title="QualityControl/MonitorObject.h">
<polygon fill="none" stroke="black" points="647.5,-112.5 647.5,-131.5 798.5,-131.5 798.5,-112.5 647.5,-112.5"/>
<text text-anchor="middle" x="723" y="-119.5" font-family="Helvetica,sans-Serif" font-size="10.00">QualityControl/MonitorObject.h</text>
</a>
</g>
</g>
<!-- Node9&#45;&gt;Node10 -->
<g id="edge9" class="edge"><title>Node9&#45;&gt;Node10</title>
<path fill="none" stroke="midnightblue" d="M510.089,-168.444C554.316,-159.004 625.539,-143.802 673.285,-133.611"/>
<polygon fill="midnightblue" stroke="midnightblue" points="674.05,-137.027 683.099,-131.516 672.589,-130.181 674.05,-137.027"/>
</g>
<!-- Node15 -->
<g id="node15" class="node"><title>Node15</title>
<g id="a_node15"><a xlink:href="Quality_8h.html" target="_top" xlink:title="QualityControl/Quality.h">
<polygon fill="none" stroke="black" points="520.5,-56.5 520.5,-75.5 641.5,-75.5 641.5,-56.5 520.5,-56.5"/>
<text text-anchor="middle" x="581" y="-63.5" font-family="Helvetica,sans-Serif" font-size="10.00">QualityControl/Quality.h</text>
</a>
</g>
</g>
<!-- Node9&#45;&gt;Node15 -->
<g id="edge18" class="edge"><title>Node9&#45;&gt;Node15</title>
<path fill="none" stroke="midnightblue" d="M542.26,-168.424C564.418,-162.016 586.493,-150.969 600,-132 610.084,-117.838 602.179,-98.3487 593.702,-84.4121"/>
<polygon fill="midnightblue" stroke="midnightblue" points="596.412,-82.1675 587.956,-75.7844 590.586,-86.0477 596.412,-82.1675"/>
</g>
<!-- Node17 -->
<g id="node17" class="node"><title>Node17</title>
<polygon fill="none" stroke="#bfbfbf" points="471.5,-0.5 471.5,-19.5 512.5,-19.5 512.5,-0.5 471.5,-0.5"/>
<text text-anchor="middle" x="492" y="-7.5" font-family="Helvetica,sans-Serif" font-size="10.00">string</text>
</g>
<!-- Node9&#45;&gt;Node17 -->
<g id="edge24" class="edge"><title>Node9&#45;&gt;Node17</title>
<path fill="none" stroke="midnightblue" d="M390.065,-168.475C317.412,-159.901 219.786,-145.983 208,-132 202.271,-125.203 202.875,-119.262 208,-112 266.779,-28.7102 400.552,-13.6956 461.149,-11.2767"/>
<polygon fill="midnightblue" stroke="midnightblue" points="461.353,-14.7722 471.241,-10.9652 461.137,-7.77553 461.353,-14.7722"/>
</g>
<!-- Node18 -->
<g id="node18" class="node"><title>Node18</title>
<g id="a_node18"><a xlink:href="TaskConfig_8h.html" target="_top" xlink:title="QualityControl/TaskConfig.h">
<polygon fill="none" stroke="black" points="451,-112.5 451,-131.5 591,-131.5 591,-112.5 451,-112.5"/>
<text text-anchor="middle" x="521" y="-119.5" font-family="Helvetica,sans-Serif" font-size="10.00">QualityControl/TaskConfig.h</text>
</a>
</g>
</g>
<!-- Node9&#45;&gt;Node18 -->
<g id="edge19" class="edge"><title>Node9&#45;&gt;Node18</title>
<path fill="none" stroke="midnightblue" d="M478.422,-168.083C485.848,-160.22 496.852,-148.569 505.812,-139.081"/>
<polygon fill="midnightblue" stroke="midnightblue" points="508.413,-141.424 512.735,-131.751 503.324,-136.618 508.413,-141.424"/>
</g>
<!-- Node19 -->
<g id="node19" class="node"><title>Node19</title>
<polygon fill="none" stroke="#bfbfbf" points="363.5,-112.5 363.5,-131.5 432.5,-131.5 432.5,-112.5 363.5,-112.5"/>
<text text-anchor="middle" x="398" y="-119.5" font-family="Helvetica,sans-Serif" font-size="10.00">TObjArray.h</text>
</g>
<!-- Node9&#45;&gt;Node19 -->
<g id="edge21" class="edge"><title>Node9&#45;&gt;Node19</title>
<path fill="none" stroke="midnightblue" d="M458.432,-168.324C447.58,-160.185 431.119,-147.839 418.117,-138.087"/>
<polygon fill="midnightblue" stroke="midnightblue" points="419.879,-135.034 409.779,-131.834 415.679,-140.634 419.879,-135.034"/>
</g>
<!-- Node20 -->
<g id="node20" class="node"><title>Node20</title>
<polygon fill="none" stroke="#bfbfbf" points="89.5,-112.5 89.5,-131.5 160.5,-131.5 160.5,-112.5 89.5,-112.5"/>
<text text-anchor="middle" x="125" y="-119.5" font-family="Helvetica,sans-Serif" font-size="10.00">TObjString.h</text>
</g>
<!-- Node9&#45;&gt;Node20 -->
<g id="edge22" class="edge"><title>Node9&#45;&gt;Node20</title>
<path fill="none" stroke="midnightblue" d="M411.157,-168.496C351.562,-159.773 256.77,-145.594 175,-132 173.559,-131.76 172.095,-131.514 170.617,-131.263"/>
<polygon fill="midnightblue" stroke="midnightblue" points="171.21,-127.814 160.759,-129.556 170.016,-134.711 171.21,-127.814"/>
</g>
<!-- Node21 -->
<g id="node21" class="node"><title>Node21</title>
<polygon fill="none" stroke="#bfbfbf" points="217,-112.5 217,-131.5 345,-131.5 345,-112.5 217,-112.5"/>
<text text-anchor="middle" x="281" y="-119.5" font-family="Helvetica,sans-Serif" font-size="10.00">boost/concept_check.hpp</text>
</g>
<!-- Node9&#45;&gt;Node21 -->
<g id="edge23" class="edge"><title>Node9&#45;&gt;Node21</title>
<path fill="none" stroke="midnightblue" d="M440.052,-168.444C407.842,-159.241 356.466,-144.562 320.858,-134.388"/>
<polygon fill="midnightblue" stroke="midnightblue" points="321.384,-130.898 310.808,-131.516 319.461,-137.629 321.384,-130.898"/>
</g>
<!-- Node11 -->
<g id="node11" class="node"><title>Node11</title>
<polygon fill="none" stroke="#bfbfbf" points="885,-56.5 885,-75.5 939,-75.5 939,-56.5 885,-56.5"/>
<text text-anchor="middle" x="912" y="-63.5" font-family="Helvetica,sans-Serif" font-size="10.00">iostream</text>
</g>
<!-- Node10&#45;&gt;Node11 -->
<g id="edge10" class="edge"><title>Node10&#45;&gt;Node11</title>
<path fill="none" stroke="midnightblue" d="M752.948,-112.444C786.01,-102.997 839.268,-87.7807 874.936,-77.5897"/>
<polygon fill="midnightblue" stroke="midnightblue" points="876.295,-80.8416 884.948,-74.729 874.372,-74.111 876.295,-80.8416"/>
</g>
<!-- Node12 -->
<g id="node12" class="node"><title>Node12</title>
<polygon fill="none" stroke="#bfbfbf" points="659.5,-56.5 659.5,-75.5 694.5,-75.5 694.5,-56.5 659.5,-56.5"/>
<text text-anchor="middle" x="677" y="-63.5" font-family="Helvetica,sans-Serif" font-size="10.00">map</text>
</g>
<!-- Node10&#45;&gt;Node12 -->
<g id="edge11" class="edge"><title>Node10&#45;&gt;Node12</title>
<path fill="none" stroke="midnightblue" d="M715.404,-112.083C708.773,-104.298 698.979,-92.8015 690.942,-83.3665"/>
<polygon fill="midnightblue" stroke="midnightblue" points="693.604,-81.0939 684.455,-75.7511 688.275,-85.6332 693.604,-81.0939"/>
</g>
<!-- Node13 -->
<g id="node13" class="node"><title>Node13</title>
<polygon fill="none" stroke="#bfbfbf" points="659.5,-0.5 659.5,-19.5 718.5,-19.5 718.5,-0.5 659.5,-0.5"/>
<text text-anchor="middle" x="689" y="-7.5" font-family="Helvetica,sans-Serif" font-size="10.00">TObject.h</text>
</g>
<!-- Node10&#45;&gt;Node13 -->
<g id="edge12" class="edge"><title>Node10&#45;&gt;Node13</title>
<path fill="none" stroke="midnightblue" d="M720.291,-112.166C716.455,-99.6594 709.212,-76.0771 703,-56 700.276,-47.1957 697.239,-37.4271 694.691,-29.2474"/>
<polygon fill="midnightblue" stroke="midnightblue" points="698.009,-28.1299 691.692,-19.6243 691.326,-30.2128 698.009,-28.1299"/>
</g>
<!-- Node14 -->
<g id="node14" class="node"><title>Node14</title>
<polygon fill="none" stroke="#bfbfbf" points="751,-56.5 751,-75.5 867,-75.5 867,-56.5 751,-56.5"/>
<text text-anchor="middle" x="809" y="-63.5" font-family="Helvetica,sans-Serif" font-size="10.00">Common/Exceptions.h</text>
</g>
<!-- Node10&#45;&gt;Node14 -->
<g id="edge13" class="edge"><title>Node10&#45;&gt;Node14</title>
<path fill="none" stroke="midnightblue" d="M736.817,-112.324C750.233,-103.9 770.824,-90.9709 786.586,-81.0741"/>
<polygon fill="midnightblue" stroke="midnightblue" points="788.609,-83.9364 795.217,-75.6545 784.887,-78.0081 788.609,-83.9364"/>
</g>
<!-- Node10&#45;&gt;Node15 -->
<g id="edge14" class="edge"><title>Node10&#45;&gt;Node15</title>
<path fill="none" stroke="midnightblue" d="M700.5,-112.444C676.923,-103.478 639.678,-89.314 613.036,-79.1827"/>
<polygon fill="midnightblue" stroke="midnightblue" points="613.986,-75.7995 603.395,-75.5164 611.498,-82.3424 613.986,-75.7995"/>
</g>
<!-- Node15&#45;&gt;Node13 -->
<g id="edge15" class="edge"><title>Node15&#45;&gt;Node13</title>
<path fill="none" stroke="midnightblue" d="M598.352,-56.324C615.672,-47.6641 642.515,-34.2424 662.502,-24.249"/>
<polygon fill="midnightblue" stroke="midnightblue" points="664.312,-27.2572 671.691,-19.6545 661.181,-20.9962 664.312,-27.2572"/>
</g>
<!-- Node16 -->
<g id="node16" class="node"><title>Node16</title>
<polygon fill="none" stroke="#bfbfbf" points="555,-0.5 555,-19.5 607,-19.5 607,-0.5 555,-0.5"/>
<text text-anchor="middle" x="581" y="-7.5" font-family="Helvetica,sans-Serif" font-size="10.00">ostream</text>
</g>
<!-- Node15&#45;&gt;Node16 -->
<g id="edge16" class="edge"><title>Node15&#45;&gt;Node16</title>
<path fill="none" stroke="midnightblue" d="M581,-56.083C581,-49.0059 581,-38.8611 581,-29.9865"/>
<polygon fill="midnightblue" stroke="midnightblue" points="584.5,-29.751 581,-19.7511 577.5,-29.7511 584.5,-29.751"/>
</g>
<!-- Node15&#45;&gt;Node17 -->
<g id="edge17" class="edge"><title>Node15&#45;&gt;Node17</title>
<path fill="none" stroke="midnightblue" d="M566.701,-56.324C552.817,-47.9002 531.508,-34.9709 515.196,-25.0741"/>
<polygon fill="midnightblue" stroke="midnightblue" points="516.629,-21.8495 506.264,-19.6545 512.998,-27.8341 516.629,-21.8495"/>
</g>
<!-- Node18&#45;&gt;Node17 -->
<g id="edge20" class="edge"><title>Node18&#45;&gt;Node17</title>
<path fill="none" stroke="midnightblue" d="M518.724,-112.368C514.023,-94.5366 503.151,-53.2953 496.817,-29.2717"/>
<polygon fill="midnightblue" stroke="midnightblue" points="500.199,-28.3688 494.265,-19.5914 493.43,-30.1533 500.199,-28.3688"/>
</g>
<!-- Node22&#45;&gt;Node4 -->
<g id="edge27" class="edge"><title>Node22&#45;&gt;Node4</title>
<path fill="none" stroke="midnightblue" d="M840.342,-341.94C789.208,-331.909 701.949,-314.779 627,-300 378.605,-251.019 312.718,-244.991 62.095,-188.159"/>
<polygon fill="midnightblue" stroke="midnightblue" points="62.8616,-184.744 52.3346,-185.941 61.3106,-191.57 62.8616,-184.744"/>
</g>
<!-- Node22&#45;&gt;Node11 -->
<g id="edge26" class="edge"><title>Node22&#45;&gt;Node11</title>
<path fill="none" stroke="midnightblue" d="M886.406,-341.886C891.519,-322.801 903,-275.44 903,-235 903,-235 903,-235 903,-177 903,-144.841 906.868,-107.569 909.533,-85.7107"/>
<polygon fill="midnightblue" stroke="midnightblue" points="913.037,-85.8993 910.823,-75.5383 906.093,-85.0183 913.037,-85.8993"/>
</g>
<!-- Node22&#45;&gt;Node14 -->
<g id="edge36" class="edge"><title>Node22&#45;&gt;Node14</title>
<path fill="none" stroke="midnightblue" d="M881.673,-341.705C871.218,-302.183 828.46,-140.56 813.89,-85.484"/>
<polygon fill="midnightblue" stroke="midnightblue" points="817.241,-84.4652 811.3,-75.6929 810.474,-86.2555 817.241,-84.4652"/>
</g>
<!-- Node22&#45;&gt;Node18 -->
<g id="edge35" class="edge"><title>Node22&#45;&gt;Node18</title>
<path fill="none" stroke="midnightblue" d="M878.334,-341.961C871.713,-331.95 860.455,-314.839 851,-300 813.885,-241.755 826.11,-206.838 769,-168 742.136,-149.731 663.004,-137.516 601.273,-130.478"/>
<polygon fill="midnightblue" stroke="midnightblue" points="601.463,-126.978 591.137,-129.35 600.689,-133.935 601.463,-126.978"/>
</g>
<!-- Node23 -->
<g id="node23" class="node"><title>Node23</title>
<polygon fill="none" stroke="#bfbfbf" points="931,-280.5 931,-299.5 987,-299.5 987,-280.5 931,-280.5"/>
<text text-anchor="middle" x="959" y="-287.5" font-family="Helvetica,sans-Serif" font-size="10.00">TClass.h</text>
</g>
<!-- Node22&#45;&gt;Node23 -->
<g id="edge28" class="edge"><title>Node22&#45;&gt;Node23</title>
<path fill="none" stroke="midnightblue" d="M894.746,-341.975C906.553,-332.608 925.743,-317.384 940.082,-306.008"/>
<polygon fill="midnightblue" stroke="midnightblue" points="942.615,-308.466 948.274,-299.509 938.265,-302.982 942.615,-308.466"/>
</g>
<!-- Node24 -->
<g id="node24" class="node"><title>Node24</title>
<polygon fill="none" stroke="#bfbfbf" points="1005.5,-280.5 1005.5,-299.5 1064.5,-299.5 1064.5,-280.5 1005.5,-280.5"/>
<text text-anchor="middle" x="1035" y="-287.5" font-family="Helvetica,sans-Serif" font-size="10.00">TROOT.h</text>
</g>
<!-- Node22&#45;&gt;Node24 -->
<g id="edge29" class="edge"><title>Node22&#45;&gt;Node24</title>
<path fill="none" stroke="midnightblue" d="M905.635,-341.975C931.424,-331.813 974.711,-314.756 1004.04,-303.2"/>
<polygon fill="midnightblue" stroke="midnightblue" points="1005.38,-306.432 1013.41,-299.509 1002.82,-299.919 1005.38,-306.432"/>
</g>
<!-- Node22&#45;&gt;Node25 -->
<g id="edge30" class="edge"><title>Node22&#45;&gt;Node25</title>
<path fill="none" stroke="midnightblue" d="M917.097,-341.975C958.038,-331.43 1027.8,-313.46 1072.62,-301.916"/>
<polygon fill="midnightblue" stroke="midnightblue" points="1073.53,-305.297 1082.34,-299.413 1071.78,-298.518 1073.53,-305.297"/>
</g>
<!-- Node26 -->
<g id="node26" class="node"><title>Node26</title>
<g id="a_node26"><a xlink:href="QcInfoLogger_8h.html" target="_top" xlink:title="QualityControl/QcInfoLogger.h">
<polygon fill="none" stroke="black" points="636.5,-280.5 636.5,-299.5 785.5,-299.5 785.5,-280.5 636.5,-280.5"/>
<text text-anchor="middle" x="711" y="-287.5" font-family="Helvetica,sans-Serif" font-size="10.00">QualityControl/QcInfoLogger.h</text>
</a>
</g>
</g>
<!-- Node22&#45;&gt;Node26 -->
<g id="edge31" class="edge"><title>Node22&#45;&gt;Node26</title>
<path fill="none" stroke="midnightblue" d="M859.213,-341.975C829.409,-331.725 779.209,-314.459 745.598,-302.899"/>
<polygon fill="midnightblue" stroke="midnightblue" points="746.335,-299.452 735.741,-299.509 744.059,-306.071 746.335,-299.452"/>
</g>
<!-- Node26&#45;&gt;Node3 -->
<g id="edge32" class="edge"><title>Node26&#45;&gt;Node3</title>
<path fill="none" stroke="midnightblue" d="M678.2,-280.444C642.62,-271.162 585.686,-256.309 546.653,-246.127"/>
<polygon fill="midnightblue" stroke="midnightblue" points="547.206,-242.654 536.646,-243.516 545.439,-249.427 547.206,-242.654"/>
</g>
<!-- Node26&#45;&gt;Node11 -->
<g id="edge34" class="edge"><title>Node26&#45;&gt;Node11</title>
<path fill="none" stroke="midnightblue" d="M724.39,-280.19C736.854,-271.675 755.616,-258.035 770,-244 824.406,-190.912 877.468,-117.298 900.304,-84.2589"/>
<polygon fill="midnightblue" stroke="midnightblue" points="903.39,-85.9473 906.155,-75.7197 897.615,-81.9905 903.39,-85.9473"/>
</g>
<!-- Node27 -->
<g id="node27" class="node"><title>Node27</title>
<polygon fill="none" stroke="#bfbfbf" points="631,-224.5 631,-243.5 761,-243.5 761,-224.5 631,-224.5"/>
<text text-anchor="middle" x="696" y="-231.5" font-family="Helvetica,sans-Serif" font-size="10.00">InfoLogger/InfoLogger.hxx</text>
</g>
<!-- Node26&#45;&gt;Node27 -->
<g id="edge33" class="edge"><title>Node26&#45;&gt;Node27</title>
<path fill="none" stroke="midnightblue" d="M708.523,-280.083C706.514,-272.849 703.614,-262.409 701.11,-253.397"/>
<polygon fill="midnightblue" stroke="midnightblue" points="704.48,-252.449 698.431,-243.751 697.735,-254.323 704.48,-252.449"/>
</g>
</g>
</svg>
