<?xml version="1.0" encoding="UTF-8" standalone="no"?>
<!DOCTYPE svg PUBLIC "-//W3C//DTD SVG 1.1//EN"
 "http://www.w3.org/Graphics/SVG/1.1/DTD/svg11.dtd">
<!-- Generated by graphviz version 2.38.0 (20140413.2041)
 -->
<!-- Title: Modules/Skeleton/test/testQcSkeleton.cxx Pages: 1 -->
<!--zoomable 431 -->
<svg id="main" version="1.1" xmlns="http://www.w3.org/2000/svg" xmlns:xlink="http://www.w3.org/1999/xlink" xml:space="preserve" onload="init(evt)">
<style type="text/css"><![CDATA[
.edge:hover path { stroke: red; }
.edge:hover polygon { stroke: red; fill: red; }
]]></style>
<script type="text/javascript"><![CDATA[
var edges = document.getElementsByTagName('g');
if (edges && edges.length) {
  for (var i=0;i<edges.length;i++) {
    if (edges[i].id.substr(0,4)=='edge') {
      edges[i].setAttribute('class','edge');
    }
  }
}
]]></script>
        <defs>
                <circle id="rim" cx="0" cy="0" r="7"/>
                <circle id="rim2" cx="0" cy="0" r="3.5"/>
                <g id="zoomPlus">
                        <use xlink:href="#rim" fill="#404040">
                                <set attributeName="fill" to="#808080" begin="zoomplus.mouseover" end="zoomplus.mouseout"/>
                        </use>
                        <path d="M-4,0h8M0,-4v8" fill="none" stroke="white" stroke-width="1.5" pointer-events="none"/>
                </g>
                <g id="zoomMin">
                        <use xlink:href="#rim" fill="#404040">
                                <set attributeName="fill" to="#808080" begin="zoomminus.mouseover" end="zoomminus.mouseout"/>
                        </use>
                        <path d="M-4,0h8" fill="none" stroke="white" stroke-width="1.5" pointer-events="none"/>
                </g>
                <g id="dirArrow">
                        <path fill="none" stroke="white" stroke-width="1.5" d="M0,-3.0v7 M-2.5,-0.5L0,-3.0L2.5,-0.5"/>
                </g>
               <g id="resetDef">
                       <use xlink:href="#rim2" fill="#404040">
                               <set attributeName="fill" to="#808080" begin="reset.mouseover" end="reset.mouseout"/>
                       </use>
               </g>
        </defs>

<script type="text/javascript">
var viewWidth = 1141;
var viewHeight = 431;
var sectionId = 'dynsection-0';
</script>
<script xlink:href="svgpan.js"/>
<svg id="graph" class="graph">
<g id="viewport">
<title>Modules/Skeleton/test/testQcSkeleton.cxx</title>
<!-- Node1 -->
<g id="node1" class="node"><title>Node1</title>
<polygon fill="#bfbfbf" stroke="black" points="734.5,-392.5 734.5,-422.5 848.5,-422.5 848.5,-392.5 734.5,-392.5"/>
<text text-anchor="start" x="742.5" y="-410.5" font-family="Helvetica,sans-Serif" font-size="10.00">Modules/Skeleton/test</text>
<text text-anchor="middle" x="791.5" y="-399.5" font-family="Helvetica,sans-Serif" font-size="10.00">/testQcSkeleton.cxx</text>
</g>
<!-- Node2 -->
<g id="node2" class="node"><title>Node2</title>
<polygon fill="none" stroke="#bfbfbf" points="0,-168.5 0,-187.5 125,-187.5 125,-168.5 0,-168.5"/>
<text text-anchor="middle" x="62.5" y="-175.5" font-family="Helvetica,sans-Serif" font-size="10.00">Framework/InitContext.h</text>
</g>
<!-- Node1&#45;&gt;Node2 -->
<g id="edge1" class="edge"><title>Node1&#45;&gt;Node2</title>
<path fill="none" stroke="midnightblue" d="M734.425,-404.041C625.065,-398.744 390.13,-384.372 314.5,-356 213.979,-318.29 116.099,-230.829 78.5698,-194.873"/>
<polygon fill="midnightblue" stroke="midnightblue" points="80.7302,-192.093 71.1153,-187.643 75.8565,-197.117 80.7302,-192.093"/>
</g>
<!-- Node3 -->
<g id="node3" class="node"><title>Node3</title>
<g id="a_node3"><a xlink:href="TaskFactory_8h.html" target="_top" xlink:title="QualityControl/TaskFactory.h">
<polygon fill="none" stroke="black" points="669,-336.5 669,-355.5 814,-355.5 814,-336.5 669,-336.5"/>
<text text-anchor="middle" x="741.5" y="-343.5" font-family="Helvetica,sans-Serif" font-size="10.00">QualityControl/TaskFactory.h</text>
</a>
</g>
</g>
<!-- Node1&#45;&gt;Node3 -->
<g id="edge2" class="edge"><title>Node1&#45;&gt;Node3</title>
<path fill="none" stroke="midnightblue" d="M779.651,-392.399C772.385,-383.753 763.048,-372.642 755.429,-363.576"/>
<polygon fill="midnightblue" stroke="midnightblue" points="757.888,-361.062 748.775,-355.658 752.529,-365.565 757.888,-361.062"/>
</g>
<!-- Node8 -->
<g id="node8" class="node"><title>Node8</title>
<polygon fill="none" stroke="#bfbfbf" points="1068,-280.5 1068,-299.5 1133,-299.5 1133,-280.5 1068,-280.5"/>
<text text-anchor="middle" x="1100.5" y="-287.5" font-family="Helvetica,sans-Serif" font-size="10.00">TSystem.h</text>
</g>
<!-- Node1&#45;&gt;Node8 -->
<g id="edge38" class="edge"><title>Node1&#45;&gt;Node8</title>
<path fill="none" stroke="midnightblue" d="M801.513,-392.32C813.875,-375.97 836.485,-349.602 862.5,-336 938.228,-296.406 969.42,-315.79 1058.04,-299.948"/>
<polygon fill="midnightblue" stroke="midnightblue" points="1058.78,-303.369 1067.96,-298.072 1057.48,-296.491 1058.78,-303.369"/>
</g>
<!-- Node27 -->
<g id="node27" class="node"><title>Node27</title>
<g id="a_node27"><a xlink:href="SkeletonTask_8h.html" target="_top" xlink:title="Skeleton/SkeletonTask.h">
<polygon fill="none" stroke="black" points="323.5,-336.5 323.5,-355.5 449.5,-355.5 449.5,-336.5 323.5,-336.5"/>
<text text-anchor="middle" x="386.5" y="-343.5" font-family="Helvetica,sans-Serif" font-size="10.00">Skeleton/SkeletonTask.h</text>
</a>
</g>
</g>
<!-- Node1&#45;&gt;Node27 -->
<g id="edge36" class="edge"><title>Node1&#45;&gt;Node27</title>
<path fill="none" stroke="midnightblue" d="M734.332,-398.101C660.774,-387.295 533.142,-368.544 454.628,-357.009"/>
<polygon fill="midnightblue" stroke="midnightblue" points="454.762,-353.491 444.359,-355.5 453.744,-360.417 454.762,-353.491"/>
</g>
<!-- Node28 -->
<g id="node28" class="node"><title>Node28</title>
<polygon fill="none" stroke="#bfbfbf" points="871,-336.5 871,-355.5 990,-355.5 990,-336.5 871,-336.5"/>
<text text-anchor="middle" x="930.5" y="-343.5" font-family="Helvetica,sans-Serif" font-size="10.00">boost/test/unit_test.hpp</text>
</g>
<!-- Node1&#45;&gt;Node28 -->
<g id="edge39" class="edge"><title>Node1&#45;&gt;Node28</title>
<path fill="none" stroke="midnightblue" d="M824.441,-392.399C847.659,-382.461 878.486,-369.265 900.919,-359.662"/>
<polygon fill="midnightblue" stroke="midnightblue" points="902.458,-362.811 910.274,-355.658 899.704,-356.375 902.458,-362.811"/>
</g>
<!-- Node29 -->
<g id="node29" class="node"><title>Node29</title>
<polygon fill="none" stroke="#bfbfbf" points="1008.5,-336.5 1008.5,-355.5 1052.5,-355.5 1052.5,-336.5 1008.5,-336.5"/>
<text text-anchor="middle" x="1030.5" y="-343.5" font-family="Helvetica,sans-Serif" font-size="10.00">TH1.h</text>
</g>
<!-- Node1&#45;&gt;Node29 -->
<g id="edge40" class="edge"><title>Node1&#45;&gt;Node29</title>
<path fill="none" stroke="midnightblue" d="M848.615,-393.354C888.212,-384.074 942.375,-371.055 998.436,-356.203"/>
<polygon fill="midnightblue" stroke="midnightblue" points="999.42,-359.563 1008.18,-353.608 997.618,-352.799 999.42,-359.563"/>
</g>
<!-- Node4 -->
<g id="node4" class="node"><title>Node4</title>
<polygon fill="none" stroke="#bfbfbf" points="812.5,-56.5 812.5,-75.5 866.5,-75.5 866.5,-56.5 812.5,-56.5"/>
<text text-anchor="middle" x="839.5" y="-63.5" font-family="Helvetica,sans-Serif" font-size="10.00">iostream</text>
</g>
<!-- Node3&#45;&gt;Node4 -->
<g id="edge3" class="edge"><title>Node3&#45;&gt;Node4</title>
<path fill="none" stroke="midnightblue" d="M730.786,-336.305C721.562,-328.069 708.909,-314.789 703.5,-300 696.783,-281.635 701.982,-234.717 710.5,-224 739.371,-187.674 777.391,-222.429 808.5,-188 834.462,-159.267 839.288,-111.743 839.833,-85.6247"/>
<polygon fill="midnightblue" stroke="midnightblue" points="843.333,-85.5713 839.848,-75.5661 836.333,-85.5608 843.333,-85.5713"/>
</g>
<!-- Node5 -->
<g id="node5" class="node"><title>Node5</title>
<polygon fill="none" stroke="#bfbfbf" points="747.5,-168.5 747.5,-187.5 799.5,-187.5 799.5,-168.5 747.5,-168.5"/>
<text text-anchor="middle" x="773.5" y="-175.5" font-family="Helvetica,sans-Serif" font-size="10.00">memory</text>
</g>
<!-- Node3&#45;&gt;Node5 -->
<g id="edge4" class="edge"><title>Node3&#45;&gt;Node5</title>
<path fill="none" stroke="midnightblue" d="M730.786,-336.305C721.562,-328.069 708.909,-314.789 703.5,-300 697.07,-282.42 702.793,-236.932 710.5,-224 718.529,-210.528 732.326,-199.988 744.966,-192.507"/>
<polygon fill="midnightblue" stroke="midnightblue" points="746.798,-195.494 753.866,-187.601 743.419,-189.363 746.798,-195.494"/>
</g>
<!-- Node6 -->
<g id="node6" class="node"><title>Node6</title>
<polygon fill="none" stroke="#bfbfbf" points="993.5,-280.5 993.5,-299.5 1049.5,-299.5 1049.5,-280.5 993.5,-280.5"/>
<text text-anchor="middle" x="1021.5" y="-287.5" font-family="Helvetica,sans-Serif" font-size="10.00">TClass.h</text>
</g>
<!-- Node3&#45;&gt;Node6 -->
<g id="edge5" class="edge"><title>Node3&#45;&gt;Node6</title>
<path fill="none" stroke="midnightblue" d="M788.53,-336.455C836.587,-327.642 913.339,-313.341 979.5,-300 980.734,-299.751 981.987,-299.496 983.252,-299.237"/>
<polygon fill="midnightblue" stroke="midnightblue" points="983.978,-302.661 993.053,-297.193 982.549,-295.808 983.978,-302.661"/>
</g>
<!-- Node7 -->
<g id="node7" class="node"><title>Node7</title>
<polygon fill="none" stroke="#bfbfbf" points="712,-280.5 712,-299.5 771,-299.5 771,-280.5 712,-280.5"/>
<text text-anchor="middle" x="741.5" y="-287.5" font-family="Helvetica,sans-Serif" font-size="10.00">TROOT.h</text>
</g>
<!-- Node3&#45;&gt;Node7 -->
<g id="edge6" class="edge"><title>Node3&#45;&gt;Node7</title>
<path fill="none" stroke="midnightblue" d="M741.5,-336.083C741.5,-329.006 741.5,-318.861 741.5,-309.986"/>
<polygon fill="midnightblue" stroke="midnightblue" points="745,-309.751 741.5,-299.751 738,-309.751 745,-309.751"/>
</g>
<!-- Node3&#45;&gt;Node8 -->
<g id="edge7" class="edge"><title>Node3&#45;&gt;Node8</title>
<path fill="none" stroke="midnightblue" d="M811.606,-336.481C873.727,-328.605 967.1,-315.969 1058.05,-299.965"/>
<polygon fill="midnightblue" stroke="midnightblue" points="1058.75,-303.397 1067.98,-298.203 1057.53,-296.504 1058.75,-303.397"/>
</g>
<!-- Node9 -->
<g id="node9" class="node"><title>Node9</title>
<g id="a_node9"><a xlink:href="QcInfoLogger_8h.html" target="_top" xlink:title="QualityControl/QcInfoLogger.h">
<polygon fill="none" stroke="black" points="789,-280.5 789,-299.5 938,-299.5 938,-280.5 789,-280.5"/>
<text text-anchor="middle" x="863.5" y="-287.5" font-family="Helvetica,sans-Serif" font-size="10.00">QualityControl/QcInfoLogger.h</text>
</a>
</g>
</g>
<!-- Node3&#45;&gt;Node9 -->
<g id="edge8" class="edge"><title>Node3&#45;&gt;Node9</title>
<path fill="none" stroke="midnightblue" d="M760.831,-336.444C780.82,-327.596 812.243,-313.687 835.064,-303.586"/>
<polygon fill="midnightblue" stroke="midnightblue" points="836.532,-306.764 844.259,-299.516 833.698,-300.363 836.532,-306.764"/>
</g>
<!-- Node18 -->
<g id="node18" class="node"><title>Node18</title>
<polygon fill="none" stroke="#bfbfbf" points="892.5,-56.5 892.5,-75.5 1008.5,-75.5 1008.5,-56.5 892.5,-56.5"/>
<text text-anchor="middle" x="950.5" y="-63.5" font-family="Helvetica,sans-Serif" font-size="10.00">Common/Exceptions.h</text>
</g>
<!-- Node3&#45;&gt;Node18 -->
<g id="edge35" class="edge"><title>Node3&#45;&gt;Node18</title>
<path fill="none" stroke="midnightblue" d="M814.029,-337.136C865.352,-330.132 928.323,-318.148 947.5,-300 969.272,-279.395 965.5,-264.976 965.5,-235 965.5,-235 965.5,-235 965.5,-177 965.5,-144.502 958.993,-107.095 954.551,-85.343"/>
<polygon fill="midnightblue" stroke="midnightblue" points="957.962,-84.5586 952.461,-75.5039 951.115,-86.0128 957.962,-84.5586"/>
</g>
<!-- Node22 -->
<g id="node22" class="node"><title>Node22</title>
<g id="a_node22"><a xlink:href="TaskConfig_8h.html" target="_top" xlink:title="QualityControl/TaskConfig.h">
<polygon fill="none" stroke="black" points="102.5,-112.5 102.5,-131.5 242.5,-131.5 242.5,-112.5 102.5,-112.5"/>
<text text-anchor="middle" x="172.5" y="-119.5" font-family="Helvetica,sans-Serif" font-size="10.00">QualityControl/TaskConfig.h</text>
</a>
</g>
</g>
<!-- Node3&#45;&gt;Node22 -->
<g id="edge34" class="edge"><title>Node3&#45;&gt;Node22</title>
<path fill="none" stroke="midnightblue" d="M673.461,-336.481C536.094,-317.737 233.495,-268.104 172.5,-188 162.574,-174.965 163.907,-155.808 166.921,-141.666"/>
<polygon fill="midnightblue" stroke="midnightblue" points="170.405,-142.17 169.515,-131.612 163.627,-140.421 170.405,-142.17"/>
</g>
<!-- Node9&#45;&gt;Node4 -->
<g id="edge33" class="edge"><title>Node9&#45;&gt;Node4</title>
<path fill="none" stroke="midnightblue" d="M863.754,-280.439C864.359,-254.709 865.064,-175.904 853.5,-112 851.879,-103.043 849.023,-93.3728 846.312,-85.3005"/>
<polygon fill="midnightblue" stroke="midnightblue" points="849.585,-84.0604 842.946,-75.8038 842.987,-86.3986 849.585,-84.0604"/>
</g>
<!-- Node10 -->
<g id="node10" class="node"><title>Node10</title>
<g id="a_node10"><a xlink:href="TaskInterface_8h.html" target="_top" xlink:title="TaskInterface.h">
<polygon fill="none" stroke="black" points="431,-224.5 431,-243.5 516,-243.5 516,-224.5 431,-224.5"/>
<text text-anchor="middle" x="473.5" y="-231.5" font-family="Helvetica,sans-Serif" font-size="10.00">TaskInterface.h</text>
</a>
</g>
</g>
<!-- Node9&#45;&gt;Node10 -->
<g id="edge9" class="edge"><title>Node9&#45;&gt;Node10</title>
<path fill="none" stroke="midnightblue" d="M801.703,-280.444C725.651,-269.913 597.819,-252.213 526.2,-242.297"/>
<polygon fill="midnightblue" stroke="midnightblue" points="526.44,-238.797 516.054,-240.892 525.48,-245.731 526.44,-238.797"/>
</g>
<!-- Node26 -->
<g id="node26" class="node"><title>Node26</title>
<polygon fill="none" stroke="#bfbfbf" points="719.5,-224.5 719.5,-243.5 849.5,-243.5 849.5,-224.5 719.5,-224.5"/>
<text text-anchor="middle" x="784.5" y="-231.5" font-family="Helvetica,sans-Serif" font-size="10.00">InfoLogger/InfoLogger.hxx</text>
</g>
<!-- Node9&#45;&gt;Node26 -->
<g id="edge32" class="edge"><title>Node9&#45;&gt;Node26</title>
<path fill="none" stroke="midnightblue" d="M850.807,-280.324C838.599,-271.979 819.922,-259.212 805.497,-249.352"/>
<polygon fill="midnightblue" stroke="midnightblue" points="807.392,-246.408 797.161,-243.655 803.442,-252.187 807.392,-246.408"/>
</g>
<!-- Node10&#45;&gt;Node2 -->
<g id="edge12" class="edge"><title>Node10&#45;&gt;Node2</title>
<path fill="none" stroke="midnightblue" d="M430.679,-227.374C360.668,-218.175 220.928,-199.815 135.176,-188.549"/>
<polygon fill="midnightblue" stroke="midnightblue" points="135.623,-185.077 125.252,-187.245 134.711,-192.018 135.623,-185.077"/>
</g>
<!-- Node10&#45;&gt;Node5 -->
<g id="edge10" class="edge"><title>Node10&#45;&gt;Node5</title>
<path fill="none" stroke="midnightblue" d="M516.393,-226.843C566.97,-219.335 653.753,-205.673 737.279,-188.121"/>
<polygon fill="midnightblue" stroke="midnightblue" points="738.128,-191.519 747.182,-186.018 736.673,-184.672 738.128,-191.519"/>
</g>
<!-- Node11 -->
<g id="node11" class="node"><title>Node11</title>
<polygon fill="none" stroke="#bfbfbf" points="501,-168.5 501,-187.5 550,-187.5 550,-168.5 501,-168.5"/>
<text text-anchor="middle" x="525.5" y="-175.5" font-family="Helvetica,sans-Serif" font-size="10.00">cassert</text>
</g>
<!-- Node10&#45;&gt;Node11 -->
<g id="edge11" class="edge"><title>Node10&#45;&gt;Node11</title>
<path fill="none" stroke="midnightblue" d="M482.087,-224.083C489.659,-216.22 500.878,-204.569 510.014,-195.081"/>
<polygon fill="midnightblue" stroke="midnightblue" points="512.658,-197.382 517.073,-187.751 507.615,-192.527 512.658,-197.382"/>
</g>
<!-- Node12 -->
<g id="node12" class="node"><title>Node12</title>
<polygon fill="none" stroke="#bfbfbf" points="181.5,-168.5 181.5,-187.5 341.5,-187.5 341.5,-168.5 181.5,-168.5"/>
<text text-anchor="middle" x="261.5" y="-175.5" font-family="Helvetica,sans-Serif" font-size="10.00">Framework/ProcessingContext.h</text>
</g>
<!-- Node10&#45;&gt;Node12 -->
<g id="edge13" class="edge"><title>Node10&#45;&gt;Node12</title>
<path fill="none" stroke="midnightblue" d="M439.908,-224.444C403.313,-215.122 344.662,-200.183 304.674,-189.997"/>
<polygon fill="midnightblue" stroke="midnightblue" points="305.489,-186.593 294.935,-187.516 303.761,-193.377 305.489,-186.593"/>
</g>
<!-- Node13 -->
<g id="node13" class="node"><title>Node13</title>
<g id="a_node13"><a xlink:href="Activity_8h.html" target="_top" xlink:title="QualityControl/Activity.h">
<polygon fill="none" stroke="black" points="360,-168.5 360,-187.5 483,-187.5 483,-168.5 360,-168.5"/>
<text text-anchor="middle" x="421.5" y="-175.5" font-family="Helvetica,sans-Serif" font-size="10.00">QualityControl/Activity.h</text>
</a>
</g>
</g>
<!-- Node10&#45;&gt;Node13 -->
<g id="edge14" class="edge"><title>Node10&#45;&gt;Node13</title>
<path fill="none" stroke="midnightblue" d="M464.913,-224.083C457.341,-216.22 446.122,-204.569 436.986,-195.081"/>
<polygon fill="midnightblue" stroke="midnightblue" points="439.385,-192.527 429.927,-187.751 434.342,-197.382 439.385,-192.527"/>
</g>
<!-- Node14 -->
<g id="node14" class="node"><title>Node14</title>
<g id="a_node14"><a xlink:href="ObjectsManager_8h.html" target="_top" xlink:title="QualityControl/ObjectsManager.h">
<polygon fill="none" stroke="black" points="568,-168.5 568,-187.5 729,-187.5 729,-168.5 568,-168.5"/>
<text text-anchor="middle" x="648.5" y="-175.5" font-family="Helvetica,sans-Serif" font-size="10.00">QualityControl/ObjectsManager.h</text>
</a>
</g>
</g>
<!-- Node10&#45;&gt;Node14 -->
<g id="edge15" class="edge"><title>Node10&#45;&gt;Node14</title>
<path fill="none" stroke="midnightblue" d="M501.229,-224.444C530.926,-215.28 578.216,-200.688 611.169,-190.519"/>
<polygon fill="midnightblue" stroke="midnightblue" points="612.377,-193.809 620.9,-187.516 610.313,-187.121 612.377,-193.809"/>
</g>
<!-- Node15 -->
<g id="node15" class="node"><title>Node15</title>
<g id="a_node15"><a xlink:href="MonitorObject_8h.html" target="_top" xlink:title="QualityControl/MonitorObject.h">
<polygon fill="none" stroke="black" points="573,-112.5 573,-131.5 724,-131.5 724,-112.5 573,-112.5"/>
<text text-anchor="middle" x="648.5" y="-119.5" font-family="Helvetica,sans-Serif" font-size="10.00">QualityControl/MonitorObject.h</text>
</a>
</g>
</g>
<!-- Node14&#45;&gt;Node15 -->
<g id="edge16" class="edge"><title>Node14&#45;&gt;Node15</title>
<path fill="none" stroke="midnightblue" d="M648.5,-168.083C648.5,-161.006 648.5,-150.861 648.5,-141.986"/>
<polygon fill="midnightblue" stroke="midnightblue" points="652,-141.751 648.5,-131.751 645,-141.751 652,-141.751"/>
</g>
<!-- Node19 -->
<g id="node19" class="node"><title>Node19</title>
<g id="a_node19"><a xlink:href="Quality_8h.html" target="_top" xlink:title="QualityControl/Quality.h">
<polygon fill="none" stroke="black" points="484,-56.5 484,-75.5 605,-75.5 605,-56.5 484,-56.5"/>
<text text-anchor="middle" x="544.5" y="-63.5" font-family="Helvetica,sans-Serif" font-size="10.00">QualityControl/Quality.h</text>
</a>
</g>
</g>
<!-- Node14&#45;&gt;Node19 -->
<g id="edge25" class="edge"><title>Node14&#45;&gt;Node19</title>
<path fill="none" stroke="midnightblue" d="M620.661,-168.366C602.286,-161.326 579.011,-149.627 564.5,-132 553.605,-118.766 548.635,-99.6356 546.374,-85.5542"/>
<polygon fill="midnightblue" stroke="midnightblue" points="549.834,-85.0206 545.08,-75.5525 542.892,-85.919 549.834,-85.0206"/>
</g>
<!-- Node21 -->
<g id="node21" class="node"><title>Node21</title>
<polygon fill="none" stroke="#bfbfbf" points="250,-0.5 250,-19.5 291,-19.5 291,-0.5 250,-0.5"/>
<text text-anchor="middle" x="270.5" y="-7.5" font-family="Helvetica,sans-Serif" font-size="10.00">string</text>
</g>
<!-- Node14&#45;&gt;Node21 -->
<g id="edge31" class="edge"><title>Node14&#45;&gt;Node21</title>
<path fill="none" stroke="midnightblue" d="M571.099,-168.466C467.085,-156.831 294.532,-136.878 289.5,-132 261.98,-105.321 263.794,-56.2248 267.278,-29.5055"/>
<polygon fill="midnightblue" stroke="midnightblue" points="270.747,-29.9678 268.792,-19.555 263.827,-28.9146 270.747,-29.9678"/>
</g>
<!-- Node14&#45;&gt;Node22 -->
<g id="edge26" class="edge"><title>Node14&#45;&gt;Node22</title>
<path fill="none" stroke="midnightblue" d="M573.339,-168.473C485.932,-158.557 342.229,-142.255 252.717,-132.1"/>
<polygon fill="midnightblue" stroke="midnightblue" points="252.946,-128.604 242.615,-130.954 252.157,-135.559 252.946,-128.604"/>
</g>
<!-- Node23 -->
<g id="node23" class="node"><title>Node23</title>
<polygon fill="none" stroke="#bfbfbf" points="742,-112.5 742,-131.5 811,-131.5 811,-112.5 742,-112.5"/>
<text text-anchor="middle" x="776.5" y="-119.5" font-family="Helvetica,sans-Serif" font-size="10.00">TObjArray.h</text>
</g>
<!-- Node14&#45;&gt;Node23 -->
<g id="edge28" class="edge"><title>Node14&#45;&gt;Node23</title>
<path fill="none" stroke="midnightblue" d="M668.782,-168.444C689.847,-159.557 723.017,-145.563 746.986,-135.451"/>
<polygon fill="midnightblue" stroke="midnightblue" points="748.46,-138.628 756.313,-131.516 745.739,-132.179 748.46,-138.628"/>
</g>
<!-- Node24 -->
<g id="node24" class="node"><title>Node24</title>
<polygon fill="none" stroke="#bfbfbf" points="299,-112.5 299,-131.5 370,-131.5 370,-112.5 299,-112.5"/>
<text text-anchor="middle" x="334.5" y="-119.5" font-family="Helvetica,sans-Serif" font-size="10.00">TObjString.h</text>
</g>
<!-- Node14&#45;&gt;Node24 -->
<g id="edge29" class="edge"><title>Node14&#45;&gt;Node24</title>
<path fill="none" stroke="midnightblue" d="M594.568,-168.492C542.424,-160.151 460.924,-146.81 380.635,-132.161"/>
<polygon fill="midnightblue" stroke="midnightblue" points="380.809,-128.635 370.342,-130.275 379.547,-135.52 380.809,-128.635"/>
</g>
<!-- Node25 -->
<g id="node25" class="node"><title>Node25</title>
<polygon fill="none" stroke="#bfbfbf" points="388.5,-112.5 388.5,-131.5 516.5,-131.5 516.5,-112.5 388.5,-112.5"/>
<text text-anchor="middle" x="452.5" y="-119.5" font-family="Helvetica,sans-Serif" font-size="10.00">boost/concept_check.hpp</text>
</g>
<!-- Node14&#45;&gt;Node25 -->
<g id="edge30" class="edge"><title>Node14&#45;&gt;Node25</title>
<path fill="none" stroke="midnightblue" d="M617.443,-168.444C583.897,-159.201 530.303,-144.436 493.359,-134.257"/>
<polygon fill="midnightblue" stroke="midnightblue" points="493.982,-130.798 483.411,-131.516 492.123,-137.547 493.982,-130.798"/>
</g>
<!-- Node15&#45;&gt;Node4 -->
<g id="edge17" class="edge"><title>Node15&#45;&gt;Node4</title>
<path fill="none" stroke="midnightblue" d="M678.765,-112.444C712.417,-102.929 766.771,-87.5622 802.816,-77.3713"/>
<polygon fill="midnightblue" stroke="midnightblue" points="803.795,-80.732 812.465,-74.6433 801.89,-73.996 803.795,-80.732"/>
</g>
<!-- Node16 -->
<g id="node16" class="node"><title>Node16</title>
<polygon fill="none" stroke="#bfbfbf" points="623,-56.5 623,-75.5 658,-75.5 658,-56.5 623,-56.5"/>
<text text-anchor="middle" x="640.5" y="-63.5" font-family="Helvetica,sans-Serif" font-size="10.00">map</text>
</g>
<!-- Node15&#45;&gt;Node16 -->
<g id="edge18" class="edge"><title>Node15&#45;&gt;Node16</title>
<path fill="none" stroke="midnightblue" d="M647.179,-112.083C646.119,-104.927 644.594,-94.6353 643.269,-85.6911"/>
<polygon fill="midnightblue" stroke="midnightblue" points="646.724,-85.1302 641.796,-75.7511 639.8,-86.1561 646.724,-85.1302"/>
</g>
<!-- Node17 -->
<g id="node17" class="node"><title>Node17</title>
<polygon fill="none" stroke="#bfbfbf" points="623,-0.5 623,-19.5 682,-19.5 682,-0.5 623,-0.5"/>
<text text-anchor="middle" x="652.5" y="-7.5" font-family="Helvetica,sans-Serif" font-size="10.00">TObject.h</text>
</g>
<!-- Node15&#45;&gt;Node17 -->
<g id="edge19" class="edge"><title>Node15&#45;&gt;Node17</title>
<path fill="none" stroke="midnightblue" d="M653.376,-112.372C658.059,-103.552 664.808,-89.2987 667.5,-76 670.728,-60.0572 665.899,-42.0425 660.882,-29.0284"/>
<polygon fill="midnightblue" stroke="midnightblue" points="664.094,-27.6389 656.968,-19.7985 657.65,-30.3714 664.094,-27.6389"/>
</g>
<!-- Node15&#45;&gt;Node18 -->
<g id="edge20" class="edge"><title>Node15&#45;&gt;Node18</title>
<path fill="none" stroke="midnightblue" d="M696.353,-112.444C749.699,-102.905 835.945,-87.4834 892.936,-77.293"/>
<polygon fill="midnightblue" stroke="midnightblue" points="893.643,-80.722 902.871,-75.5164 892.411,-73.8313 893.643,-80.722"/>
</g>
<!-- Node15&#45;&gt;Node19 -->
<g id="edge21" class="edge"><title>Node15&#45;&gt;Node19</title>
<path fill="none" stroke="midnightblue" d="M631.791,-112.324C615.188,-103.703 589.498,-90.3643 570.28,-80.3855"/>
<polygon fill="midnightblue" stroke="midnightblue" points="571.656,-77.1565 561.168,-75.6545 568.43,-83.3689 571.656,-77.1565"/>
</g>
<!-- Node19&#45;&gt;Node17 -->
<g id="edge22" class="edge"><title>Node19&#45;&gt;Node17</title>
<path fill="none" stroke="midnightblue" d="M561.852,-56.324C579.172,-47.6641 606.015,-34.2424 626.002,-24.249"/>
<polygon fill="midnightblue" stroke="midnightblue" points="627.812,-27.2572 635.191,-19.6545 624.681,-20.9962 627.812,-27.2572"/>
</g>
<!-- Node20 -->
<g id="node20" class="node"><title>Node20</title>
<polygon fill="none" stroke="#bfbfbf" points="518.5,-0.5 518.5,-19.5 570.5,-19.5 570.5,-0.5 518.5,-0.5"/>
<text text-anchor="middle" x="544.5" y="-7.5" font-family="Helvetica,sans-Serif" font-size="10.00">ostream</text>
</g>
<!-- Node19&#45;&gt;Node20 -->
<g id="edge23" class="edge"><title>Node19&#45;&gt;Node20</title>
<path fill="none" stroke="midnightblue" d="M544.5,-56.083C544.5,-49.0059 544.5,-38.8611 544.5,-29.9865"/>
<polygon fill="midnightblue" stroke="midnightblue" points="548,-29.751 544.5,-19.7511 541,-29.7511 548,-29.751"/>
</g>
<!-- Node19&#45;&gt;Node21 -->
<g id="edge24" class="edge"><title>Node19&#45;&gt;Node21</title>
<path fill="none" stroke="midnightblue" d="M501.084,-56.4435C445.272,-45.4441 349.767,-26.622 301.042,-17.0192"/>
<polygon fill="midnightblue" stroke="midnightblue" points="301.594,-13.5608 291.106,-15.061 300.24,-20.4287 301.594,-13.5608"/>
</g>
<!-- Node22&#45;&gt;Node21 -->
<g id="edge27" class="edge"><title>Node22&#45;&gt;Node21</title>
<path fill="none" stroke="midnightblue" d="M180.19,-112.368C196.506,-94.0547 234.82,-51.0489 255.923,-27.3624"/>
<polygon fill="midnightblue" stroke="midnightblue" points="258.807,-29.3863 262.846,-19.5914 253.58,-24.7298 258.807,-29.3863"/>
</g>
<!-- Node27&#45;&gt;Node10 -->
<g id="edge37" class="edge"><title>Node27&#45;&gt;Node10</title>
<path fill="none" stroke="midnightblue" d="M393.327,-336.368C407.748,-318.135 441.527,-275.426 460.311,-251.675"/>
<polygon fill="midnightblue" stroke="midnightblue" points="463.247,-253.606 466.705,-243.591 457.756,-249.264 463.247,-253.606"/>
</g>
</g>
</svg>
        <g id="navigator" transform="translate(0 0)" fill="#404254">
                <rect fill="#f2f5e9" fill-opacity="0.5" stroke="#606060" stroke-width=".5" x="0" y="0" width="60" height="60"/>
                <use id="zoomplus" xlink:href="#zoomPlus" x="17" y="9" onmousedown="handleZoom(evt,'in')"/>
                <use id="zoomminus" xlink:href="#zoomMin" x="42" y="9" onmousedown="handleZoom(evt,'out')"/>
                <use id="reset" xlink:href="#resetDef" x="30" y="36" onmousedown="handleReset()"/>
                <g id="arrowUp" xlink:href="#dirArrow" transform="translate(30 24)" onmousedown="handlePan(0,-1)">
                  <use xlink:href="#rim" fill="#404040">
                        <set attributeName="fill" to="#808080" begin="arrowUp.mouseover" end="arrowUp.mouseout"/>
                  </use>
                  <path fill="none" stroke="white" stroke-width="1.5" d="M0,-3.0v7 M-2.5,-0.5L0,-3.0L2.5,-0.5"/>
                </g>
                <g id="arrowRight" xlink:href="#dirArrow" transform="rotate(90) translate(36 -43)" onmousedown="handlePan(1,0)">
                  <use xlink:href="#rim" fill="#404040">
                        <set attributeName="fill" to="#808080" begin="arrowRight.mouseover" end="arrowRight.mouseout"/>
                  </use>
                  <path fill="none" stroke="white" stroke-width="1.5" d="M0,-3.0v7 M-2.5,-0.5L0,-3.0L2.5,-0.5"/>
                </g>
                <g id="arrowDown" xlink:href="#dirArrow" transform="rotate(180) translate(-30 -48)" onmousedown="handlePan(0,1)">
                  <use xlink:href="#rim" fill="#404040">
                        <set attributeName="fill" to="#808080" begin="arrowDown.mouseover" end="arrowDown.mouseout"/>
                  </use>
                  <path fill="none" stroke="white" stroke-width="1.5" d="M0,-3.0v7 M-2.5,-0.5L0,-3.0L2.5,-0.5"/>
                </g>
                <g id="arrowLeft" xlink:href="#dirArrow" transform="rotate(270) translate(-36 17)" onmousedown="handlePan(-1,0)">
                  <use xlink:href="#rim" fill="#404040">
                        <set attributeName="fill" to="#808080" begin="arrowLeft.mouseover" end="arrowLeft.mouseout"/>
                  </use>
                  <path fill="none" stroke="white" stroke-width="1.5" d="M0,-3.0v7 M-2.5,-0.5L0,-3.0L2.5,-0.5"/>
                </g>
        </g>
        <svg viewBox="0 0 15 15" width="100%" height="30px" preserveAspectRatio="xMaxYMin meet">
         <g id="arrow_out" transform="scale(0.3 0.3)">
          <a xlink:href="testQcSkeleton_8cxx__incl_org.svg" target="_base">
           <rect id="button" ry="5" rx="5" y="6" x="6" height="38" width="38"
                fill="#f2f5e9" fill-opacity="0.5" stroke="#606060" stroke-width="1.0"/>
           <path id="arrow"
             d="M 11.500037,31.436501 C 11.940474,20.09759 22.043105,11.32322 32.158766,21.979434 L 37.068811,17.246167 C 37.068811,17.246167 37.088388,32 37.088388,32 L 22.160133,31.978069 C 22.160133,31.978069 26.997745,27.140456 26.997745,27.140456 C 18.528582,18.264221 13.291696,25.230495 11.500037,31.436501 z"
             style="fill:#404040;"/>
          </a>
         </g>
        </svg>
</svg>
