<?xml version="1.0" encoding="UTF-8" standalone="no"?>
<!DOCTYPE svg PUBLIC "-//W3C//DTD SVG 1.1//EN"
 "http://www.w3.org/Graphics/SVG/1.1/DTD/svg11.dtd">
<!-- Generated by graphviz version 2.38.0 (20140413.2041)
 -->
<!-- Title: Framework/test/testQuality.cxx Pages: 1 -->
<svg width="450pt" height="151pt"
 viewBox="0.00 0.00 449.50 151.00" xmlns="http://www.w3.org/2000/svg" xmlns:xlink="http://www.w3.org/1999/xlink">
<g id="graph0" class="graph" transform="scale(1 1) rotate(0) translate(4 147)">
<title>Framework/test/testQuality.cxx</title>
<!-- Node1 -->
<g id="node1" class="node"><title>Node1</title>
<polygon fill="#bfbfbf" stroke="black" points="216.5,-123.5 216.5,-142.5 370.5,-142.5 370.5,-123.5 216.5,-123.5"/>
<text text-anchor="middle" x="293.5" y="-130.5" font-family="Helvetica,sans-Serif" font-size="10.00">Framework/test/testQuality.cxx</text>
</g>
<!-- Node2 -->
<g id="node2" class="node"><title>Node2</title>
<g id="a_node2"><a xlink:href="Quality_8h.html" target="_top" xlink:title="../include/QualityControl\l/Quality.h">
<polygon fill="none" stroke="black" points="42.5,-56.5 42.5,-86.5 164.5,-86.5 164.5,-56.5 42.5,-56.5"/>
<text text-anchor="start" x="50.5" y="-74.5" font-family="Helvetica,sans-Serif" font-size="10.00">../include/QualityControl</text>
<text text-anchor="middle" x="103.5" y="-63.5" font-family="Helvetica,sans-Serif" font-size="10.00">/Quality.h</text>
</a>
</g>
</g>
<!-- Node1&#45;&gt;Node2 -->
<g id="edge1" class="edge"><title>Node1&#45;&gt;Node2</title>
<path fill="none" stroke="midnightblue" d="M266.278,-123.475C238.14,-114.664 193.45,-100.668 158.009,-89.5698"/>
<polygon fill="midnightblue" stroke="midnightblue" points="158.868,-86.1715 148.279,-86.523 156.776,-92.8516 158.868,-86.1715"/>
</g>
<!-- Node6 -->
<g id="node6" class="node"><title>Node6</title>
<polygon fill="none" stroke="#bfbfbf" points="183,-62 183,-81 302,-81 302,-62 183,-62"/>
<text text-anchor="middle" x="242.5" y="-69" font-family="Helvetica,sans-Serif" font-size="10.00">boost/test/unit_test.hpp</text>
</g>
<!-- Node1&#45;&gt;Node6 -->
<g id="edge5" class="edge"><title>Node1&#45;&gt;Node6</title>
<path fill="none" stroke="midnightblue" d="M286.193,-123.475C278.467,-114.462 266.092,-100.025 256.482,-88.8118"/>
<polygon fill="midnightblue" stroke="midnightblue" points="258.959,-86.3239 249.794,-81.0091 253.644,-90.8795 258.959,-86.3239"/>
</g>
<!-- Node7 -->
<g id="node7" class="node"><title>Node7</title>
<polygon fill="none" stroke="#bfbfbf" points="320,-62 320,-81 369,-81 369,-62 320,-62"/>
<text text-anchor="middle" x="344.5" y="-69" font-family="Helvetica,sans-Serif" font-size="10.00">cassert</text>
</g>
<!-- Node1&#45;&gt;Node7 -->
<g id="edge6" class="edge"><title>Node1&#45;&gt;Node7</title>
<path fill="none" stroke="midnightblue" d="M300.807,-123.475C308.533,-114.462 320.908,-100.025 330.518,-88.8118"/>
<polygon fill="midnightblue" stroke="midnightblue" points="333.356,-90.8795 337.206,-81.0091 328.041,-86.3239 333.356,-90.8795"/>
</g>
<!-- Node8 -->
<g id="node8" class="node"><title>Node8</title>
<polygon fill="none" stroke="#bfbfbf" points="387.5,-62 387.5,-81 441.5,-81 441.5,-62 387.5,-62"/>
<text text-anchor="middle" x="414.5" y="-69" font-family="Helvetica,sans-Serif" font-size="10.00">iostream</text>
</g>
<!-- Node1&#45;&gt;Node8 -->
<g id="edge7" class="edge"><title>Node1&#45;&gt;Node8</title>
<path fill="none" stroke="midnightblue" d="M310.836,-123.475C331.053,-113.534 364.687,-96.9947 388.142,-85.461"/>
<polygon fill="midnightblue" stroke="midnightblue" points="389.767,-88.5627 397.196,-81.0091 386.678,-82.281 389.767,-88.5627"/>
</g>
<!-- Node3 -->
<g id="node3" class="node"><title>Node3</title>
<polygon fill="none" stroke="#bfbfbf" points="0,-0.5 0,-19.5 59,-19.5 59,-0.5 0,-0.5"/>
<text text-anchor="middle" x="29.5" y="-7.5" font-family="Helvetica,sans-Serif" font-size="10.00">TObject.h</text>
</g>
<!-- Node2&#45;&gt;Node3 -->
<g id="edge2" class="edge"><title>Node2&#45;&gt;Node3</title>
<path fill="none" stroke="midnightblue" d="M85.963,-56.3993C74.6557,-47.3076 59.9581,-35.4899 48.3929,-26.1909"/>
<polygon fill="midnightblue" stroke="midnightblue" points="50.2541,-23.1964 40.2677,-19.6578 45.8677,-28.6517 50.2541,-23.1964"/>
</g>
<!-- Node4 -->
<g id="node4" class="node"><title>Node4</title>
<polygon fill="none" stroke="#bfbfbf" points="77.5,-0.5 77.5,-19.5 129.5,-19.5 129.5,-0.5 77.5,-0.5"/>
<text text-anchor="middle" x="103.5" y="-7.5" font-family="Helvetica,sans-Serif" font-size="10.00">ostream</text>
</g>
<!-- Node2&#45;&gt;Node4 -->
<g id="edge3" class="edge"><title>Node2&#45;&gt;Node4</title>
<path fill="none" stroke="midnightblue" d="M103.5,-56.3993C103.5,-48.4664 103.5,-38.458 103.5,-29.8583"/>
<polygon fill="midnightblue" stroke="midnightblue" points="107,-29.6577 103.5,-19.6578 100,-29.6578 107,-29.6577"/>
</g>
<!-- Node5 -->
<g id="node5" class="node"><title>Node5</title>
<polygon fill="none" stroke="#bfbfbf" points="148,-0.5 148,-19.5 189,-19.5 189,-0.5 148,-0.5"/>
<text text-anchor="middle" x="168.5" y="-7.5" font-family="Helvetica,sans-Serif" font-size="10.00">string</text>
</g>
<!-- Node2&#45;&gt;Node5 -->
<g id="edge4" class="edge"><title>Node2&#45;&gt;Node5</title>
<path fill="none" stroke="midnightblue" d="M118.904,-56.3993C128.739,-47.3967 141.493,-35.7214 151.605,-26.4652"/>
<polygon fill="midnightblue" stroke="midnightblue" points="154.029,-28.9916 159.042,-19.6578 149.302,-23.8282 154.029,-28.9916"/>
</g>
</g>
</svg>
