<?xml version="1.0" encoding="UTF-8" standalone="no"?>
<!DOCTYPE svg PUBLIC "-//W3C//DTD SVG 1.1//EN"
 "http://www.w3.org/Graphics/SVG/1.1/DTD/svg11.dtd">
<!-- Generated by graphviz version 2.38.0 (20140413.2041)
 -->
<!-- Title: Framework/test/testCcdbDatabase.cxx Pages: 1 -->
<svg width="733pt" height="319pt"
 viewBox="0.00 0.00 732.50 319.00" xmlns="http://www.w3.org/2000/svg" xmlns:xlink="http://www.w3.org/1999/xlink">
<g id="graph0" class="graph" transform="scale(1 1) rotate(0) translate(4 315)">
<title>Framework/test/testCcdbDatabase.cxx</title>
<!-- Node1 -->
<g id="node1" class="node"><title>Node1</title>
<polygon fill="#bfbfbf" stroke="black" points="333,-291.5 333,-310.5 521,-310.5 521,-291.5 333,-291.5"/>
<text text-anchor="middle" x="427" y="-298.5" font-family="Helvetica,sans-Serif" font-size="10.00">Framework/test/testCcdbDatabase.cxx</text>
</g>
<!-- Node2 -->
<g id="node2" class="node"><title>Node2</title>
<g id="a_node2"><a xlink:href="DatabaseFactory_8h.html" target="_top" xlink:title="QualityControl/DatabaseFactory.h">
<polygon fill="none" stroke="black" points="70.5,-230 70.5,-249 235.5,-249 235.5,-230 70.5,-230"/>
<text text-anchor="middle" x="153" y="-237" font-family="Helvetica,sans-Serif" font-size="10.00">QualityControl/DatabaseFactory.h</text>
</a>
</g>
</g>
<!-- Node1&#45;&gt;Node2 -->
<g id="edge1" class="edge"><title>Node1&#45;&gt;Node2</title>
<path fill="none" stroke="midnightblue" d="M387.742,-291.475C338.809,-280.849 255.162,-262.685 202.055,-251.152"/>
<polygon fill="midnightblue" stroke="midnightblue" points="202.7,-247.711 192.185,-249.009 201.214,-254.552 202.7,-247.711"/>
</g>
<!-- Node13 -->
<g id="node13" class="node"><title>Node13</title>
<polygon fill="none" stroke="#bfbfbf" points="308.5,-112.5 308.5,-131.5 391.5,-131.5 391.5,-112.5 308.5,-112.5"/>
<text text-anchor="middle" x="350" y="-119.5" font-family="Helvetica,sans-Serif" font-size="10.00">unordered_map</text>
</g>
<!-- Node1&#45;&gt;Node13 -->
<g id="edge16" class="edge"><title>Node1&#45;&gt;Node13</title>
<path fill="none" stroke="midnightblue" d="M403.875,-291.469C388.039,-284.313 368.137,-272.432 358,-255 337.298,-219.399 341.679,-168.882 346.157,-141.83"/>
<polygon fill="midnightblue" stroke="midnightblue" points="349.638,-142.254 348.009,-131.785 342.754,-140.984 349.638,-142.254"/>
</g>
<!-- Node14 -->
<g id="node14" class="node"><title>Node14</title>
<polygon fill="none" stroke="#bfbfbf" points="367.5,-230 367.5,-249 486.5,-249 486.5,-230 367.5,-230"/>
<text text-anchor="middle" x="427" y="-237" font-family="Helvetica,sans-Serif" font-size="10.00">boost/test/unit_test.hpp</text>
</g>
<!-- Node1&#45;&gt;Node14 -->
<g id="edge17" class="edge"><title>Node1&#45;&gt;Node14</title>
<path fill="none" stroke="midnightblue" d="M427,-291.475C427,-283.08 427,-269.981 427,-259.163"/>
<polygon fill="midnightblue" stroke="midnightblue" points="430.5,-259.009 427,-249.009 423.5,-259.009 430.5,-259.009"/>
</g>
<!-- Node15 -->
<g id="node15" class="node"><title>Node15</title>
<polygon fill="none" stroke="#bfbfbf" points="504.5,-224.5 504.5,-254.5 605.5,-254.5 605.5,-224.5 504.5,-224.5"/>
<text text-anchor="start" x="512.5" y="-242.5" font-family="Helvetica,sans-Serif" font-size="10.00">boost/property_tree</text>
<text text-anchor="middle" x="555" y="-231.5" font-family="Helvetica,sans-Serif" font-size="10.00">/ptree.hpp</text>
</g>
<!-- Node1&#45;&gt;Node15 -->
<g id="edge18" class="edge"><title>Node1&#45;&gt;Node15</title>
<path fill="none" stroke="midnightblue" d="M445.339,-291.475C463.566,-283.002 492.103,-269.737 515.497,-258.863"/>
<polygon fill="midnightblue" stroke="midnightblue" points="517.24,-261.912 524.833,-254.523 514.289,-255.564 517.24,-261.912"/>
</g>
<!-- Node16 -->
<g id="node16" class="node"><title>Node16</title>
<polygon fill="none" stroke="#bfbfbf" points="623.5,-224.5 623.5,-254.5 724.5,-254.5 724.5,-224.5 623.5,-224.5"/>
<text text-anchor="start" x="631.5" y="-242.5" font-family="Helvetica,sans-Serif" font-size="10.00">boost/property_tree</text>
<text text-anchor="middle" x="674" y="-231.5" font-family="Helvetica,sans-Serif" font-size="10.00">/json_parser.hpp</text>
</g>
<!-- Node1&#45;&gt;Node16 -->
<g id="edge19" class="edge"><title>Node1&#45;&gt;Node16</title>
<path fill="none" stroke="midnightblue" d="M463.056,-291.438C498.843,-282.925 555.534,-269.398 613.42,-255.376"/>
<polygon fill="midnightblue" stroke="midnightblue" points="614.581,-258.696 623.474,-252.939 612.931,-251.893 614.581,-258.696"/>
</g>
<!-- Node3 -->
<g id="node3" class="node"><title>Node3</title>
<polygon fill="none" stroke="#bfbfbf" points="69,-112.5 69,-131.5 121,-131.5 121,-112.5 69,-112.5"/>
<text text-anchor="middle" x="95" y="-119.5" font-family="Helvetica,sans-Serif" font-size="10.00">memory</text>
</g>
<!-- Node2&#45;&gt;Node3 -->
<g id="edge2" class="edge"><title>Node2&#45;&gt;Node3</title>
<path fill="none" stroke="midnightblue" d="M146.312,-229.955C138.917,-220.215 126.995,-203.618 119,-188 111.292,-172.942 104.81,-154.814 100.533,-141.532"/>
<polygon fill="midnightblue" stroke="midnightblue" points="103.786,-140.203 97.481,-131.689 97.0999,-142.277 103.786,-140.203"/>
</g>
<!-- Node4 -->
<g id="node4" class="node"><title>Node4</title>
<polygon fill="none" stroke="#bfbfbf" points="0,-56.5 0,-75.5 116,-75.5 116,-56.5 0,-56.5"/>
<text text-anchor="middle" x="58" y="-63.5" font-family="Helvetica,sans-Serif" font-size="10.00">Common/Exceptions.h</text>
</g>
<!-- Node2&#45;&gt;Node4 -->
<g id="edge3" class="edge"><title>Node2&#45;&gt;Node4</title>
<path fill="none" stroke="midnightblue" d="M141.29,-229.861C120.256,-213.528 76.7136,-175.804 60,-132 54.3969,-117.315 54.2965,-99.3785 55.3709,-86.0703"/>
<polygon fill="midnightblue" stroke="midnightblue" points="58.8901,-86.0883 56.5087,-75.7646 51.9323,-85.3201 58.8901,-86.0883"/>
</g>
<!-- Node5 -->
<g id="node5" class="node"><title>Node5</title>
<g id="a_node5"><a xlink:href="DatabaseInterface_8h.html" target="_top" xlink:title="QualityControl/DatabaseInterface.h">
<polygon fill="none" stroke="black" points="128,-168.5 128,-187.5 298,-187.5 298,-168.5 128,-168.5"/>
<text text-anchor="middle" x="213" y="-175.5" font-family="Helvetica,sans-Serif" font-size="10.00">QualityControl/DatabaseInterface.h</text>
</a>
</g>
</g>
<!-- Node2&#45;&gt;Node5 -->
<g id="edge4" class="edge"><title>Node2&#45;&gt;Node5</title>
<path fill="none" stroke="midnightblue" d="M161.597,-229.975C170.864,-220.785 185.817,-205.956 197.212,-194.656"/>
<polygon fill="midnightblue" stroke="midnightblue" points="199.783,-197.036 204.419,-187.509 194.854,-192.065 199.783,-197.036"/>
</g>
<!-- Node5&#45;&gt;Node3 -->
<g id="edge14" class="edge"><title>Node5&#45;&gt;Node3</title>
<path fill="none" stroke="midnightblue" d="M194.303,-168.444C175.056,-159.636 144.848,-145.812 122.8,-135.722"/>
<polygon fill="midnightblue" stroke="midnightblue" points="124.16,-132.495 113.61,-131.516 121.247,-138.86 124.16,-132.495"/>
</g>
<!-- Node6 -->
<g id="node6" class="node"><title>Node6</title>
<g id="a_node6"><a xlink:href="MonitorObject_8h.html" target="_top" xlink:title="QualityControl/MonitorObject.h">
<polygon fill="none" stroke="black" points="139.5,-112.5 139.5,-131.5 290.5,-131.5 290.5,-112.5 139.5,-112.5"/>
<text text-anchor="middle" x="215" y="-119.5" font-family="Helvetica,sans-Serif" font-size="10.00">QualityControl/MonitorObject.h</text>
</a>
</g>
</g>
<!-- Node5&#45;&gt;Node6 -->
<g id="edge5" class="edge"><title>Node5&#45;&gt;Node6</title>
<path fill="none" stroke="midnightblue" d="M213.33,-168.083C213.592,-161.006 213.968,-150.861 214.297,-141.986"/>
<polygon fill="midnightblue" stroke="midnightblue" points="217.803,-141.874 214.676,-131.751 210.808,-141.615 217.803,-141.874"/>
</g>
<!-- Node5&#45;&gt;Node13 -->
<g id="edge15" class="edge"><title>Node5&#45;&gt;Node13</title>
<path fill="none" stroke="midnightblue" d="M234.708,-168.444C257.355,-159.517 293.072,-145.439 318.752,-135.317"/>
<polygon fill="midnightblue" stroke="midnightblue" points="320.374,-138.44 328.394,-131.516 317.807,-131.927 320.374,-138.44"/>
</g>
<!-- Node6&#45;&gt;Node4 -->
<g id="edge9" class="edge"><title>Node6&#45;&gt;Node4</title>
<path fill="none" stroke="midnightblue" d="M190.123,-112.444C163.711,-103.359 121.785,-88.9388 92.2584,-78.7831"/>
<polygon fill="midnightblue" stroke="midnightblue" points="93.3554,-75.4593 82.7607,-75.5164 91.0786,-82.0787 93.3554,-75.4593"/>
</g>
<!-- Node7 -->
<g id="node7" class="node"><title>Node7</title>
<polygon fill="none" stroke="#bfbfbf" points="374,-56.5 374,-75.5 428,-75.5 428,-56.5 374,-56.5"/>
<text text-anchor="middle" x="401" y="-63.5" font-family="Helvetica,sans-Serif" font-size="10.00">iostream</text>
</g>
<!-- Node6&#45;&gt;Node7 -->
<g id="edge6" class="edge"><title>Node6&#45;&gt;Node7</title>
<path fill="none" stroke="midnightblue" d="M244.472,-112.444C276.824,-103.051 328.822,-87.9549 363.919,-77.7654"/>
<polygon fill="midnightblue" stroke="midnightblue" points="365.156,-81.0509 373.784,-74.9015 363.204,-74.3285 365.156,-81.0509"/>
</g>
<!-- Node8 -->
<g id="node8" class="node"><title>Node8</title>
<polygon fill="none" stroke="#bfbfbf" points="142.5,-56.5 142.5,-75.5 177.5,-75.5 177.5,-56.5 142.5,-56.5"/>
<text text-anchor="middle" x="160" y="-63.5" font-family="Helvetica,sans-Serif" font-size="10.00">map</text>
</g>
<!-- Node6&#45;&gt;Node8 -->
<g id="edge7" class="edge"><title>Node6&#45;&gt;Node8</title>
<path fill="none" stroke="midnightblue" d="M205.918,-112.083C197.829,-104.141 185.805,-92.3354 176.09,-82.7973"/>
<polygon fill="midnightblue" stroke="midnightblue" points="178.501,-80.2595 168.913,-75.7511 173.597,-85.2545 178.501,-80.2595"/>
</g>
<!-- Node9 -->
<g id="node9" class="node"><title>Node9</title>
<polygon fill="none" stroke="#bfbfbf" points="181.5,-0.5 181.5,-19.5 240.5,-19.5 240.5,-0.5 181.5,-0.5"/>
<text text-anchor="middle" x="211" y="-7.5" font-family="Helvetica,sans-Serif" font-size="10.00">TObject.h</text>
</g>
<!-- Node6&#45;&gt;Node9 -->
<g id="edge8" class="edge"><title>Node6&#45;&gt;Node9</title>
<path fill="none" stroke="midnightblue" d="M214.686,-112.368C214.041,-94.617 212.552,-53.6664 211.676,-29.5974"/>
<polygon fill="midnightblue" stroke="midnightblue" points="215.174,-29.4576 211.312,-19.5914 208.178,-29.712 215.174,-29.4576"/>
</g>
<!-- Node10 -->
<g id="node10" class="node"><title>Node10</title>
<g id="a_node10"><a xlink:href="Quality_8h.html" target="_top" xlink:title="QualityControl/Quality.h">
<polygon fill="none" stroke="black" points="234.5,-56.5 234.5,-75.5 355.5,-75.5 355.5,-56.5 234.5,-56.5"/>
<text text-anchor="middle" x="295" y="-63.5" font-family="Helvetica,sans-Serif" font-size="10.00">QualityControl/Quality.h</text>
</a>
</g>
</g>
<!-- Node6&#45;&gt;Node10 -->
<g id="edge10" class="edge"><title>Node6&#45;&gt;Node10</title>
<path fill="none" stroke="midnightblue" d="M227.853,-112.324C240.216,-103.979 259.13,-91.2122 273.737,-81.3524"/>
<polygon fill="midnightblue" stroke="midnightblue" points="275.848,-84.1503 282.179,-75.6545 271.932,-78.3483 275.848,-84.1503"/>
</g>
<!-- Node10&#45;&gt;Node9 -->
<g id="edge11" class="edge"><title>Node10&#45;&gt;Node9</title>
<path fill="none" stroke="midnightblue" d="M281.504,-56.324C268.4,-47.9002 248.288,-34.9709 232.893,-25.0741"/>
<polygon fill="midnightblue" stroke="midnightblue" points="234.767,-22.118 224.463,-19.6545 230.982,-28.0063 234.767,-22.118"/>
</g>
<!-- Node11 -->
<g id="node11" class="node"><title>Node11</title>
<polygon fill="none" stroke="#bfbfbf" points="328,-0.5 328,-19.5 380,-19.5 380,-0.5 328,-0.5"/>
<text text-anchor="middle" x="354" y="-7.5" font-family="Helvetica,sans-Serif" font-size="10.00">ostream</text>
</g>
<!-- Node10&#45;&gt;Node11 -->
<g id="edge12" class="edge"><title>Node10&#45;&gt;Node11</title>
<path fill="none" stroke="midnightblue" d="M304.479,-56.324C313.201,-48.3414 326.343,-36.3128 336.898,-26.6529"/>
<polygon fill="midnightblue" stroke="midnightblue" points="339.334,-29.1674 344.348,-19.8339 334.608,-24.0036 339.334,-29.1674"/>
</g>
<!-- Node12 -->
<g id="node12" class="node"><title>Node12</title>
<polygon fill="none" stroke="#bfbfbf" points="268.5,-0.5 268.5,-19.5 309.5,-19.5 309.5,-0.5 268.5,-0.5"/>
<text text-anchor="middle" x="289" y="-7.5" font-family="Helvetica,sans-Serif" font-size="10.00">string</text>
</g>
<!-- Node10&#45;&gt;Node12 -->
<g id="edge13" class="edge"><title>Node10&#45;&gt;Node12</title>
<path fill="none" stroke="midnightblue" d="M294.009,-56.083C293.214,-48.9272 292.071,-38.6353 291.077,-29.6911"/>
<polygon fill="midnightblue" stroke="midnightblue" points="294.555,-29.3034 289.972,-19.7511 287.598,-30.0765 294.555,-29.3034"/>
</g>
</g>
</svg>
