<?xml version="1.0" encoding="UTF-8" standalone="no"?>
<!DOCTYPE svg PUBLIC "-//W3C//DTD SVG 1.1//EN"
 "http://www.w3.org/Graphics/SVG/1.1/DTD/svg11.dtd">
<!-- Generated by graphviz version 2.38.0 (20140413.2041)
 -->
<!-- Title: Modules/Common/test/testNonEmpty.cxx Pages: 1 -->
<!--zoomable 319 -->
<svg id="main" version="1.1" xmlns="http://www.w3.org/2000/svg" xmlns:xlink="http://www.w3.org/1999/xlink" xml:space="preserve" onload="init(evt)">
<style type="text/css"><![CDATA[
.edge:hover path { stroke: red; }
.edge:hover polygon { stroke: red; fill: red; }
]]></style>
<script type="text/javascript"><![CDATA[
var edges = document.getElementsByTagName('g');
if (edges && edges.length) {
  for (var i=0;i<edges.length;i++) {
    if (edges[i].id.substr(0,4)=='edge') {
      edges[i].setAttribute('class','edge');
    }
  }
}
]]></script>
        <defs>
                <circle id="rim" cx="0" cy="0" r="7"/>
                <circle id="rim2" cx="0" cy="0" r="3.5"/>
                <g id="zoomPlus">
                        <use xlink:href="#rim" fill="#404040">
                                <set attributeName="fill" to="#808080" begin="zoomplus.mouseover" end="zoomplus.mouseout"/>
                        </use>
                        <path d="M-4,0h8M0,-4v8" fill="none" stroke="white" stroke-width="1.5" pointer-events="none"/>
                </g>
                <g id="zoomMin">
                        <use xlink:href="#rim" fill="#404040">
                                <set attributeName="fill" to="#808080" begin="zoomminus.mouseover" end="zoomminus.mouseout"/>
                        </use>
                        <path d="M-4,0h8" fill="none" stroke="white" stroke-width="1.5" pointer-events="none"/>
                </g>
                <g id="dirArrow">
                        <path fill="none" stroke="white" stroke-width="1.5" d="M0,-3.0v7 M-2.5,-0.5L0,-3.0L2.5,-0.5"/>
                </g>
               <g id="resetDef">
                       <use xlink:href="#rim2" fill="#404040">
                               <set attributeName="fill" to="#808080" begin="reset.mouseover" end="reset.mouseout"/>
                       </use>
               </g>
        </defs>

<script type="text/javascript">
var viewWidth = 605;
var viewHeight = 319;
var sectionId = 'dynsection-0';
</script>
<script xlink:href="svgpan.js"/>
<svg id="graph" class="graph">
<g id="viewport">
<title>Modules/Common/test/testNonEmpty.cxx</title>
<!-- Node1 -->
<g id="node1" class="node"><title>Node1</title>
<polygon fill="#bfbfbf" stroke="black" points="401,-280.5 401,-310.5 517,-310.5 517,-280.5 401,-280.5"/>
<text text-anchor="start" x="409" y="-298.5" font-family="Helvetica,sans-Serif" font-size="10.00">Modules/Common/test</text>
<text text-anchor="middle" x="459" y="-287.5" font-family="Helvetica,sans-Serif" font-size="10.00">/testNonEmpty.cxx</text>
</g>
<!-- Node2 -->
<g id="node2" class="node"><title>Node2</title>
<g id="a_node2"><a xlink:href="NonEmpty_8h.html" target="_top" xlink:title="../include/Common/NonEmpty.h">
<polygon fill="none" stroke="black" points="173.5,-224.5 173.5,-243.5 330.5,-243.5 330.5,-224.5 173.5,-224.5"/>
<text text-anchor="middle" x="252" y="-231.5" font-family="Helvetica,sans-Serif" font-size="10.00">../include/Common/NonEmpty.h</text>
</a>
</g>
</g>
<!-- Node1&#45;&gt;Node2 -->
<g id="edge1" class="edge"><title>Node1&#45;&gt;Node2</title>
<path fill="none" stroke="midnightblue" d="M410.206,-280.475C374.026,-270.075 325.331,-256.078 291.564,-246.372"/>
<polygon fill="midnightblue" stroke="midnightblue" points="292.171,-242.905 281.594,-243.506 290.238,-249.633 292.171,-242.905"/>
</g>
<!-- Node12 -->
<g id="node12" class="node"><title>Node12</title>
<polygon fill="none" stroke="#bfbfbf" points="348.5,-224.5 348.5,-243.5 467.5,-243.5 467.5,-224.5 348.5,-224.5"/>
<text text-anchor="middle" x="408" y="-231.5" font-family="Helvetica,sans-Serif" font-size="10.00">boost/test/unit_test.hpp</text>
</g>
<!-- Node1&#45;&gt;Node12 -->
<g id="edge15" class="edge"><title>Node1&#45;&gt;Node12</title>
<path fill="none" stroke="midnightblue" d="M446.914,-280.399C439.426,-271.664 429.782,-260.413 421.968,-251.296"/>
<polygon fill="midnightblue" stroke="midnightblue" points="424.586,-248.973 415.421,-243.658 419.271,-253.528 424.586,-248.973"/>
</g>
<!-- Node13 -->
<g id="node13" class="node"><title>Node13</title>
<polygon fill="none" stroke="#bfbfbf" points="485.5,-224.5 485.5,-243.5 534.5,-243.5 534.5,-224.5 485.5,-224.5"/>
<text text-anchor="middle" x="510" y="-231.5" font-family="Helvetica,sans-Serif" font-size="10.00">cassert</text>
</g>
<!-- Node1&#45;&gt;Node13 -->
<g id="edge16" class="edge"><title>Node1&#45;&gt;Node13</title>
<path fill="none" stroke="midnightblue" d="M471.086,-280.399C478.574,-271.664 488.218,-260.413 496.032,-251.296"/>
<polygon fill="midnightblue" stroke="midnightblue" points="498.729,-253.528 502.579,-243.658 493.414,-248.973 498.729,-253.528"/>
</g>
<!-- Node14 -->
<g id="node14" class="node"><title>Node14</title>
<polygon fill="none" stroke="#bfbfbf" points="553,-224.5 553,-243.5 597,-243.5 597,-224.5 553,-224.5"/>
<text text-anchor="middle" x="575" y="-231.5" font-family="Helvetica,sans-Serif" font-size="10.00">TH1.h</text>
</g>
<!-- Node1&#45;&gt;Node14 -->
<g id="edge17" class="edge"><title>Node1&#45;&gt;Node14</title>
<path fill="none" stroke="midnightblue" d="M486.49,-280.399C505.432,-270.684 530.442,-257.855 549.044,-248.314"/>
<polygon fill="midnightblue" stroke="midnightblue" points="550.821,-251.336 558.121,-243.658 547.626,-245.108 550.821,-251.336"/>
</g>
<!-- Node3 -->
<g id="node3" class="node"><title>Node3</title>
<g id="a_node3"><a xlink:href="CheckInterface_8h.html" target="_top" xlink:title="QualityControl/CheckInterface.h">
<polygon fill="none" stroke="black" points="173.5,-168.5 173.5,-187.5 330.5,-187.5 330.5,-168.5 173.5,-168.5"/>
<text text-anchor="middle" x="252" y="-175.5" font-family="Helvetica,sans-Serif" font-size="10.00">QualityControl/CheckInterface.h</text>
</a>
</g>
</g>
<!-- Node2&#45;&gt;Node3 -->
<g id="edge2" class="edge"><title>Node2&#45;&gt;Node3</title>
<path fill="none" stroke="midnightblue" d="M252,-224.083C252,-217.006 252,-206.861 252,-197.986"/>
<polygon fill="midnightblue" stroke="midnightblue" points="255.5,-197.751 252,-187.751 248.5,-197.751 255.5,-197.751"/>
</g>
<!-- Node4 -->
<g id="node4" class="node"><title>Node4</title>
<g id="a_node4"><a xlink:href="MonitorObject_8h.html" target="_top" xlink:title="QualityControl/MonitorObject.h">
<polygon fill="none" stroke="black" points="69.5,-112.5 69.5,-131.5 220.5,-131.5 220.5,-112.5 69.5,-112.5"/>
<text text-anchor="middle" x="145" y="-119.5" font-family="Helvetica,sans-Serif" font-size="10.00">QualityControl/MonitorObject.h</text>
</a>
</g>
</g>
<!-- Node2&#45;&gt;Node4 -->
<g id="edge13" class="edge"><title>Node2&#45;&gt;Node4</title>
<path fill="none" stroke="midnightblue" d="M221.926,-224.459C202.783,-217.556 178.877,-205.98 164,-188 153.118,-174.849 148.468,-155.708 146.481,-141.601"/>
<polygon fill="midnightblue" stroke="midnightblue" points="149.952,-141.14 145.391,-131.577 142.993,-141.897 149.952,-141.14"/>
</g>
<!-- Node9 -->
<g id="node9" class="node"><title>Node9</title>
<g id="a_node9"><a xlink:href="Quality_8h.html" target="_top" xlink:title="QualityControl/Quality.h">
<polygon fill="none" stroke="black" points="298.5,-56.5 298.5,-75.5 419.5,-75.5 419.5,-56.5 298.5,-56.5"/>
<text text-anchor="middle" x="359" y="-63.5" font-family="Helvetica,sans-Serif" font-size="10.00">QualityControl/Quality.h</text>
</a>
</g>
</g>
<!-- Node2&#45;&gt;Node9 -->
<g id="edge14" class="edge"><title>Node2&#45;&gt;Node9</title>
<path fill="none" stroke="midnightblue" d="M283.742,-224.487C302.738,-217.725 325.701,-206.293 339,-188 361.149,-157.534 362.237,-111.392 360.795,-85.7889"/>
<polygon fill="midnightblue" stroke="midnightblue" points="364.269,-85.3066 360.021,-75.6005 357.289,-85.8369 364.269,-85.3066"/>
</g>
<!-- Node3&#45;&gt;Node4 -->
<g id="edge3" class="edge"><title>Node3&#45;&gt;Node4</title>
<path fill="none" stroke="midnightblue" d="M234.809,-168.324C217.649,-159.664 191.054,-146.242 171.253,-136.249"/>
<polygon fill="midnightblue" stroke="midnightblue" points="172.653,-133.035 162.149,-131.655 169.499,-139.285 172.653,-133.035"/>
</g>
<!-- Node3&#45;&gt;Node9 -->
<g id="edge12" class="edge"><title>Node3&#45;&gt;Node9</title>
<path fill="none" stroke="midnightblue" d="M260.396,-168.368C278.289,-149.974 320.411,-106.671 343.386,-83.0519"/>
<polygon fill="midnightblue" stroke="midnightblue" points="346.179,-85.2 350.643,-75.5914 341.161,-80.3192 346.179,-85.2"/>
</g>
<!-- Node5 -->
<g id="node5" class="node"><title>Node5</title>
<polygon fill="none" stroke="#bfbfbf" points="0,-56.5 0,-75.5 54,-75.5 54,-56.5 0,-56.5"/>
<text text-anchor="middle" x="27" y="-63.5" font-family="Helvetica,sans-Serif" font-size="10.00">iostream</text>
</g>
<!-- Node4&#45;&gt;Node5 -->
<g id="edge4" class="edge"><title>Node4&#45;&gt;Node5</title>
<path fill="none" stroke="midnightblue" d="M126.303,-112.444C107.056,-103.636 76.8475,-89.8116 54.7999,-79.722"/>
<polygon fill="midnightblue" stroke="midnightblue" points="56.1595,-76.4951 45.61,-75.5164 53.2466,-82.8603 56.1595,-76.4951"/>
</g>
<!-- Node6 -->
<g id="node6" class="node"><title>Node6</title>
<polygon fill="none" stroke="#bfbfbf" points="72.5,-56.5 72.5,-75.5 107.5,-75.5 107.5,-56.5 72.5,-56.5"/>
<text text-anchor="middle" x="90" y="-63.5" font-family="Helvetica,sans-Serif" font-size="10.00">map</text>
</g>
<!-- Node4&#45;&gt;Node6 -->
<g id="edge5" class="edge"><title>Node4&#45;&gt;Node6</title>
<path fill="none" stroke="midnightblue" d="M135.918,-112.083C127.829,-104.141 115.805,-92.3354 106.09,-82.7973"/>
<polygon fill="midnightblue" stroke="midnightblue" points="108.501,-80.2595 98.9131,-75.7511 103.597,-85.2545 108.501,-80.2595"/>
</g>
<!-- Node7 -->
<g id="node7" class="node"><title>Node7</title>
<polygon fill="none" stroke="#bfbfbf" points="180.5,-0.5 180.5,-19.5 239.5,-19.5 239.5,-0.5 180.5,-0.5"/>
<text text-anchor="middle" x="210" y="-7.5" font-family="Helvetica,sans-Serif" font-size="10.00">TObject.h</text>
</g>
<!-- Node4&#45;&gt;Node7 -->
<g id="edge6" class="edge"><title>Node4&#45;&gt;Node7</title>
<path fill="none" stroke="midnightblue" d="M144.441,-112.37C143.988,-99.2853 144.696,-74.0449 155,-56 162.193,-43.404 174.38,-32.8863 185.456,-25.1947"/>
<polygon fill="midnightblue" stroke="midnightblue" points="187.511,-28.0334 193.984,-19.6463 183.693,-22.1658 187.511,-28.0334"/>
</g>
<!-- Node8 -->
<g id="node8" class="node"><title>Node8</title>
<polygon fill="none" stroke="#bfbfbf" points="164,-56.5 164,-75.5 280,-75.5 280,-56.5 164,-56.5"/>
<text text-anchor="middle" x="222" y="-63.5" font-family="Helvetica,sans-Serif" font-size="10.00">Common/Exceptions.h</text>
</g>
<!-- Node4&#45;&gt;Node8 -->
<g id="edge7" class="edge"><title>Node4&#45;&gt;Node8</title>
<path fill="none" stroke="midnightblue" d="M157.371,-112.324C169.158,-104.058 187.132,-91.4527 201.136,-81.6322"/>
<polygon fill="midnightblue" stroke="midnightblue" points="203.482,-84.2619 209.659,-75.6545 199.462,-78.5307 203.482,-84.2619"/>
</g>
<!-- Node4&#45;&gt;Node9 -->
<g id="edge8" class="edge"><title>Node4&#45;&gt;Node9</title>
<path fill="none" stroke="midnightblue" d="M178.909,-112.444C215.849,-103.122 275.054,-88.1828 315.418,-77.9972"/>
<polygon fill="midnightblue" stroke="midnightblue" points="316.41,-81.3568 325.25,-75.5164 314.697,-74.5695 316.41,-81.3568"/>
</g>
<!-- Node9&#45;&gt;Node7 -->
<g id="edge9" class="edge"><title>Node9&#45;&gt;Node7</title>
<path fill="none" stroke="midnightblue" d="M335.391,-56.4435C310.542,-47.4381 271.226,-33.1891 243.246,-23.049"/>
<polygon fill="midnightblue" stroke="midnightblue" points="244.093,-19.6332 233.499,-19.5164 241.708,-26.2144 244.093,-19.6332"/>
</g>
<!-- Node10 -->
<g id="node10" class="node"><title>Node10</title>
<polygon fill="none" stroke="#bfbfbf" points="300,-0.5 300,-19.5 352,-19.5 352,-0.5 300,-0.5"/>
<text text-anchor="middle" x="326" y="-7.5" font-family="Helvetica,sans-Serif" font-size="10.00">ostream</text>
</g>
<!-- Node9&#45;&gt;Node10 -->
<g id="edge10" class="edge"><title>Node9&#45;&gt;Node10</title>
<path fill="none" stroke="midnightblue" d="M353.551,-56.083C348.986,-48.6127 342.332,-37.7244 336.707,-28.5199"/>
<polygon fill="midnightblue" stroke="midnightblue" points="339.549,-26.4588 331.348,-19.7511 333.576,-30.109 339.549,-26.4588"/>
</g>
<!-- Node11 -->
<g id="node11" class="node"><title>Node11</title>
<polygon fill="none" stroke="#bfbfbf" points="370.5,-0.5 370.5,-19.5 411.5,-19.5 411.5,-0.5 370.5,-0.5"/>
<text text-anchor="middle" x="391" y="-7.5" font-family="Helvetica,sans-Serif" font-size="10.00">string</text>
</g>
<!-- Node9&#45;&gt;Node11 -->
<g id="edge11" class="edge"><title>Node9&#45;&gt;Node11</title>
<path fill="none" stroke="midnightblue" d="M364.284,-56.083C368.711,-48.6127 375.163,-37.7244 380.618,-28.5199"/>
<polygon fill="midnightblue" stroke="midnightblue" points="383.727,-30.1383 385.814,-19.7511 377.705,-26.5697 383.727,-30.1383"/>
</g>
</g>
</svg>
        <g id="navigator" transform="translate(0 0)" fill="#404254">
                <rect fill="#f2f5e9" fill-opacity="0.5" stroke="#606060" stroke-width=".5" x="0" y="0" width="60" height="60"/>
                <use id="zoomplus" xlink:href="#zoomPlus" x="17" y="9" onmousedown="handleZoom(evt,'in')"/>
                <use id="zoomminus" xlink:href="#zoomMin" x="42" y="9" onmousedown="handleZoom(evt,'out')"/>
                <use id="reset" xlink:href="#resetDef" x="30" y="36" onmousedown="handleReset()"/>
                <g id="arrowUp" xlink:href="#dirArrow" transform="translate(30 24)" onmousedown="handlePan(0,-1)">
                  <use xlink:href="#rim" fill="#404040">
                        <set attributeName="fill" to="#808080" begin="arrowUp.mouseover" end="arrowUp.mouseout"/>
                  </use>
                  <path fill="none" stroke="white" stroke-width="1.5" d="M0,-3.0v7 M-2.5,-0.5L0,-3.0L2.5,-0.5"/>
                </g>
                <g id="arrowRight" xlink:href="#dirArrow" transform="rotate(90) translate(36 -43)" onmousedown="handlePan(1,0)">
                  <use xlink:href="#rim" fill="#404040">
                        <set attributeName="fill" to="#808080" begin="arrowRight.mouseover" end="arrowRight.mouseout"/>
                  </use>
                  <path fill="none" stroke="white" stroke-width="1.5" d="M0,-3.0v7 M-2.5,-0.5L0,-3.0L2.5,-0.5"/>
                </g>
                <g id="arrowDown" xlink:href="#dirArrow" transform="rotate(180) translate(-30 -48)" onmousedown="handlePan(0,1)">
                  <use xlink:href="#rim" fill="#404040">
                        <set attributeName="fill" to="#808080" begin="arrowDown.mouseover" end="arrowDown.mouseout"/>
                  </use>
                  <path fill="none" stroke="white" stroke-width="1.5" d="M0,-3.0v7 M-2.5,-0.5L0,-3.0L2.5,-0.5"/>
                </g>
                <g id="arrowLeft" xlink:href="#dirArrow" transform="rotate(270) translate(-36 17)" onmousedown="handlePan(-1,0)">
                  <use xlink:href="#rim" fill="#404040">
                        <set attributeName="fill" to="#808080" begin="arrowLeft.mouseover" end="arrowLeft.mouseout"/>
                  </use>
                  <path fill="none" stroke="white" stroke-width="1.5" d="M0,-3.0v7 M-2.5,-0.5L0,-3.0L2.5,-0.5"/>
                </g>
        </g>
        <svg viewBox="0 0 15 15" width="100%" height="30px" preserveAspectRatio="xMaxYMin meet">
         <g id="arrow_out" transform="scale(0.3 0.3)">
          <a xlink:href="testNonEmpty_8cxx__incl_org.svg" target="_base">
           <rect id="button" ry="5" rx="5" y="6" x="6" height="38" width="38"
                fill="#f2f5e9" fill-opacity="0.5" stroke="#606060" stroke-width="1.0"/>
           <path id="arrow"
             d="M 11.500037,31.436501 C 11.940474,20.09759 22.043105,11.32322 32.158766,21.979434 L 37.068811,17.246167 C 37.068811,17.246167 37.088388,32 37.088388,32 L 22.160133,31.978069 C 22.160133,31.978069 26.997745,27.140456 26.997745,27.140456 C 18.528582,18.264221 13.291696,25.230495 11.500037,31.436501 z"
             style="fill:#404040;"/>
          </a>
         </g>
        </svg>
</svg>
