<?xml version="1.0" encoding="UTF-8" standalone="no"?>
<!DOCTYPE svg PUBLIC "-//W3C//DTD SVG 1.1//EN"
 "http://www.w3.org/Graphics/SVG/1.1/DTD/svg11.dtd">
<!-- Generated by graphviz version 2.38.0 (20140413.2041)
 -->
<!-- Title: Framework/test/testQCTask.cxx Pages: 1 -->
<svg width="1478pt" height="431pt"
 viewBox="0.00 0.00 1477.50 431.00" xmlns="http://www.w3.org/2000/svg" xmlns:xlink="http://www.w3.org/1999/xlink">
<g id="graph0" class="graph" transform="scale(1 1) rotate(0) translate(4 427)">
<title>Framework/test/testQCTask.cxx</title>
<!-- Node1 -->
<g id="node1" class="node"><title>Node1</title>
<polygon fill="#bfbfbf" stroke="black" points="988,-403.5 988,-422.5 1148,-422.5 1148,-403.5 988,-403.5"/>
<text text-anchor="middle" x="1068" y="-410.5" font-family="Helvetica,sans-Serif" font-size="10.00">Framework/test/testQCTask.cxx</text>
</g>
<!-- Node2 -->
<g id="node2" class="node"><title>Node2</title>
<g id="a_node2"><a xlink:href="TaskFactory_8h.html" target="_top" xlink:title="../include/QualityControl\l/TaskFactory.h">
<polygon fill="none" stroke="black" points="360,-336.5 360,-366.5 482,-366.5 482,-336.5 360,-336.5"/>
<text text-anchor="start" x="368" y="-354.5" font-family="Helvetica,sans-Serif" font-size="10.00">../include/QualityControl</text>
<text text-anchor="middle" x="421" y="-343.5" font-family="Helvetica,sans-Serif" font-size="10.00">/TaskFactory.h</text>
</a>
</g>
</g>
<!-- Node1&#45;&gt;Node2 -->
<g id="edge1" class="edge"><title>Node1&#45;&gt;Node2</title>
<path fill="none" stroke="midnightblue" d="M987.691,-404.615C860.43,-392.911 614.418,-370.287 492.737,-359.097"/>
<polygon fill="midnightblue" stroke="midnightblue" points="492.699,-355.579 482.42,-358.148 492.058,-362.55 492.699,-355.579"/>
</g>
<!-- Node3 -->
<g id="node3" class="node"><title>Node3</title>
<polygon fill="none" stroke="#bfbfbf" points="319,-56.5 319,-75.5 373,-75.5 373,-56.5 319,-56.5"/>
<text text-anchor="middle" x="346" y="-63.5" font-family="Helvetica,sans-Serif" font-size="10.00">iostream</text>
</g>
<!-- Node1&#45;&gt;Node3 -->
<g id="edge39" class="edge"><title>Node1&#45;&gt;Node3</title>
<path fill="none" stroke="midnightblue" d="M987.726,-411.316C739.351,-408.146 0,-390.366 0,-291 0,-291 0,-291 0,-177 0,-112.731 219.554,-81.0531 308.874,-70.825"/>
<polygon fill="midnightblue" stroke="midnightblue" points="309.301,-74.2992 318.85,-69.7103 308.523,-67.3425 309.301,-74.2992"/>
</g>
<!-- Node9 -->
<g id="node9" class="node"><title>Node9</title>
<g id="a_node9"><a xlink:href="TaskInterface_8h.html" target="_top" xlink:title="TaskInterface.h">
<polygon fill="none" stroke="black" points="811.5,-224.5 811.5,-243.5 896.5,-243.5 896.5,-224.5 811.5,-224.5"/>
<text text-anchor="middle" x="854" y="-231.5" font-family="Helvetica,sans-Serif" font-size="10.00">TaskInterface.h</text>
</a>
</g>
</g>
<!-- Node1&#45;&gt;Node9 -->
<g id="edge35" class="edge"><title>Node1&#45;&gt;Node9</title>
<path fill="none" stroke="midnightblue" d="M1057.68,-403.463C1023.86,-375.495 916.103,-286.365 872.538,-250.333"/>
<polygon fill="midnightblue" stroke="midnightblue" points="874.659,-247.545 864.722,-243.868 870.197,-252.939 874.659,-247.545"/>
</g>
<!-- Node10 -->
<g id="node10" class="node"><title>Node10</title>
<polygon fill="none" stroke="#bfbfbf" points="1182.5,-168.5 1182.5,-187.5 1231.5,-187.5 1231.5,-168.5 1182.5,-168.5"/>
<text text-anchor="middle" x="1207" y="-175.5" font-family="Helvetica,sans-Serif" font-size="10.00">cassert</text>
</g>
<!-- Node1&#45;&gt;Node10 -->
<g id="edge38" class="edge"><title>Node1&#45;&gt;Node10</title>
<path fill="none" stroke="midnightblue" d="M1078.02,-403.465C1097.94,-386.002 1142.73,-344.104 1168,-300 1187.22,-266.454 1198.4,-222.162 1203.54,-197.538"/>
<polygon fill="midnightblue" stroke="midnightblue" points="1206.98,-198.206 1205.48,-187.717 1200.11,-196.846 1206.98,-198.206"/>
</g>
<!-- Node27 -->
<g id="node27" class="node"><title>Node27</title>
<polygon fill="none" stroke="#bfbfbf" points="1220,-336.5 1220,-366.5 1332,-366.5 1332,-336.5 1220,-336.5"/>
<text text-anchor="start" x="1228" y="-354.5" font-family="Helvetica,sans-Serif" font-size="10.00">boost/test/output_test</text>
<text text-anchor="middle" x="1276" y="-343.5" font-family="Helvetica,sans-Serif" font-size="10.00">_stream.hpp</text>
</g>
<!-- Node1&#45;&gt;Node27 -->
<g id="edge36" class="edge"><title>Node1&#45;&gt;Node27</title>
<path fill="none" stroke="midnightblue" d="M1097.8,-403.475C1128.87,-394.588 1178.37,-380.429 1217.32,-369.286"/>
<polygon fill="midnightblue" stroke="midnightblue" points="1218.33,-372.638 1226.98,-366.523 1216.4,-365.908 1218.33,-372.638"/>
</g>
<!-- Node28 -->
<g id="node28" class="node"><title>Node28</title>
<polygon fill="none" stroke="#bfbfbf" points="1350.5,-342 1350.5,-361 1469.5,-361 1469.5,-342 1350.5,-342"/>
<text text-anchor="middle" x="1410" y="-349" font-family="Helvetica,sans-Serif" font-size="10.00">boost/test/unit_test.hpp</text>
</g>
<!-- Node1&#45;&gt;Node28 -->
<g id="edge37" class="edge"><title>Node1&#45;&gt;Node28</title>
<path fill="none" stroke="midnightblue" d="M1124.07,-403.492C1179.35,-394.932 1266.17,-381.024 1341,-367 1347.55,-365.773 1354.43,-364.412 1361.21,-363.03"/>
<polygon fill="midnightblue" stroke="midnightblue" points="1361.93,-366.455 1371.01,-361.003 1360.51,-359.6 1361.93,-366.455"/>
</g>
<!-- Node2&#45;&gt;Node3 -->
<g id="edge2" class="edge"><title>Node2&#45;&gt;Node3</title>
<path fill="none" stroke="midnightblue" d="M408.543,-336.352C400.574,-326.68 390.54,-313.256 384,-300 370.683,-273.009 365,-265.098 365,-235 365,-235 365,-235 365,-177 365,-144.489 356.841,-107.35 351.216,-85.6103"/>
<polygon fill="midnightblue" stroke="midnightblue" points="354.541,-84.498 348.562,-75.7514 347.782,-86.3175 354.541,-84.498"/>
</g>
<!-- Node4 -->
<g id="node4" class="node"><title>Node4</title>
<polygon fill="none" stroke="#bfbfbf" points="1074,-168.5 1074,-187.5 1126,-187.5 1126,-168.5 1074,-168.5"/>
<text text-anchor="middle" x="1100" y="-175.5" font-family="Helvetica,sans-Serif" font-size="10.00">memory</text>
</g>
<!-- Node2&#45;&gt;Node4 -->
<g id="edge3" class="edge"><title>Node2&#45;&gt;Node4</title>
<path fill="none" stroke="midnightblue" d="M482.247,-339.169C574.593,-321.604 754.671,-285.47 905,-244 962.789,-228.058 1028.7,-205.049 1067.19,-191.113"/>
<polygon fill="midnightblue" stroke="midnightblue" points="1068.63,-194.315 1076.83,-187.605 1066.24,-187.737 1068.63,-194.315"/>
</g>
<!-- Node5 -->
<g id="node5" class="node"><title>Node5</title>
<polygon fill="none" stroke="#bfbfbf" points="393,-280.5 393,-299.5 449,-299.5 449,-280.5 393,-280.5"/>
<text text-anchor="middle" x="421" y="-287.5" font-family="Helvetica,sans-Serif" font-size="10.00">TClass.h</text>
</g>
<!-- Node2&#45;&gt;Node5 -->
<g id="edge4" class="edge"><title>Node2&#45;&gt;Node5</title>
<path fill="none" stroke="midnightblue" d="M421,-336.399C421,-328.466 421,-318.458 421,-309.858"/>
<polygon fill="midnightblue" stroke="midnightblue" points="424.5,-309.658 421,-299.658 417.5,-309.658 424.5,-309.658"/>
</g>
<!-- Node6 -->
<g id="node6" class="node"><title>Node6</title>
<polygon fill="none" stroke="#bfbfbf" points="28.5,-280.5 28.5,-299.5 87.5,-299.5 87.5,-280.5 28.5,-280.5"/>
<text text-anchor="middle" x="58" y="-287.5" font-family="Helvetica,sans-Serif" font-size="10.00">TROOT.h</text>
</g>
<!-- Node2&#45;&gt;Node6 -->
<g id="edge5" class="edge"><title>Node2&#45;&gt;Node6</title>
<path fill="none" stroke="midnightblue" d="M359.954,-342.47C296.625,-333.812 194.538,-318.941 97.7719,-300.237"/>
<polygon fill="midnightblue" stroke="midnightblue" points="98.3078,-296.776 87.8227,-298.297 96.9678,-303.646 98.3078,-296.776"/>
</g>
<!-- Node7 -->
<g id="node7" class="node"><title>Node7</title>
<polygon fill="none" stroke="#bfbfbf" points="105.5,-280.5 105.5,-299.5 170.5,-299.5 170.5,-280.5 105.5,-280.5"/>
<text text-anchor="middle" x="138" y="-287.5" font-family="Helvetica,sans-Serif" font-size="10.00">TSystem.h</text>
</g>
<!-- Node2&#45;&gt;Node7 -->
<g id="edge6" class="edge"><title>Node2&#45;&gt;Node7</title>
<path fill="none" stroke="midnightblue" d="M359.796,-337.911C313.143,-328.273 247.033,-314.525 180.486,-300.304"/>
<polygon fill="midnightblue" stroke="midnightblue" points="181.178,-296.873 170.667,-298.203 179.713,-303.718 181.178,-296.873"/>
</g>
<!-- Node8 -->
<g id="node8" class="node"><title>Node8</title>
<g id="a_node8"><a xlink:href="QcInfoLogger_8h.html" target="_top" xlink:title="QualityControl/QcInfoLogger.h">
<polygon fill="none" stroke="black" points="188.5,-280.5 188.5,-299.5 337.5,-299.5 337.5,-280.5 188.5,-280.5"/>
<text text-anchor="middle" x="263" y="-287.5" font-family="Helvetica,sans-Serif" font-size="10.00">QualityControl/QcInfoLogger.h</text>
</a>
</g>
</g>
<!-- Node2&#45;&gt;Node8 -->
<g id="edge7" class="edge"><title>Node2&#45;&gt;Node8</title>
<path fill="none" stroke="midnightblue" d="M383.556,-336.399C356.81,-326.327 321.179,-312.909 295.601,-303.277"/>
<polygon fill="midnightblue" stroke="midnightblue" points="296.582,-299.907 285.99,-299.658 294.115,-306.458 296.582,-299.907"/>
</g>
<!-- Node18 -->
<g id="node18" class="node"><title>Node18</title>
<polygon fill="none" stroke="#bfbfbf" points="459,-56.5 459,-75.5 575,-75.5 575,-56.5 459,-56.5"/>
<text text-anchor="middle" x="517" y="-63.5" font-family="Helvetica,sans-Serif" font-size="10.00">Common/Exceptions.h</text>
</g>
<!-- Node2&#45;&gt;Node18 -->
<g id="edge34" class="edge"><title>Node2&#45;&gt;Node18</title>
<path fill="none" stroke="midnightblue" d="M435.115,-336.455C443.546,-327.03 453.472,-313.842 458,-300 476.907,-242.205 399.592,-224.53 422,-168 436.788,-130.694 472.6,-99.1463 495.785,-81.6764"/>
<polygon fill="midnightblue" stroke="midnightblue" points="497.972,-84.413 503.982,-75.6876 493.843,-78.7607 497.972,-84.413"/>
</g>
<!-- Node22 -->
<g id="node22" class="node"><title>Node22</title>
<g id="a_node22"><a xlink:href="TaskConfig_8h.html" target="_top" xlink:title="QualityControl/TaskConfig.h">
<polygon fill="none" stroke="black" points="1075,-112.5 1075,-131.5 1215,-131.5 1215,-112.5 1075,-112.5"/>
<text text-anchor="middle" x="1145" y="-119.5" font-family="Helvetica,sans-Serif" font-size="10.00">QualityControl/TaskConfig.h</text>
</a>
</g>
</g>
<!-- Node2&#45;&gt;Node22 -->
<g id="edge33" class="edge"><title>Node2&#45;&gt;Node22</title>
<path fill="none" stroke="midnightblue" d="M482.168,-342.134C544.904,-333.179 645.177,-317.829 731,-300 913.433,-262.101 1013.09,-328.909 1135,-188 1145.85,-175.464 1147.61,-156.24 1147.1,-141.947"/>
<polygon fill="midnightblue" stroke="midnightblue" points="1150.57,-141.473 1146.33,-131.763 1143.59,-141.996 1150.57,-141.473"/>
</g>
<!-- Node8&#45;&gt;Node3 -->
<g id="edge32" class="edge"><title>Node8&#45;&gt;Node3</title>
<path fill="none" stroke="midnightblue" d="M274.865,-280.379C285.234,-272.193 299.866,-258.945 308,-244 336.493,-191.649 343.625,-119.729 345.407,-85.9609"/>
<polygon fill="midnightblue" stroke="midnightblue" points="348.915,-85.8413 345.841,-75.7024 341.922,-85.5456 348.915,-85.8413"/>
</g>
<!-- Node8&#45;&gt;Node9 -->
<g id="edge8" class="edge"><title>Node8&#45;&gt;Node9</title>
<path fill="none" stroke="midnightblue" d="M337.551,-282.188C458.878,-271.103 696.066,-249.43 801.415,-239.805"/>
<polygon fill="midnightblue" stroke="midnightblue" points="801.851,-243.28 811.491,-238.884 801.214,-236.309 801.851,-243.28"/>
</g>
<!-- Node26 -->
<g id="node26" class="node"><title>Node26</title>
<polygon fill="none" stroke="#bfbfbf" points="169,-224.5 169,-243.5 299,-243.5 299,-224.5 169,-224.5"/>
<text text-anchor="middle" x="234" y="-231.5" font-family="Helvetica,sans-Serif" font-size="10.00">InfoLogger/InfoLogger.hxx</text>
</g>
<!-- Node8&#45;&gt;Node26 -->
<g id="edge31" class="edge"><title>Node8&#45;&gt;Node26</title>
<path fill="none" stroke="midnightblue" d="M258.211,-280.083C254.242,-272.691 248.475,-261.953 243.565,-252.811"/>
<polygon fill="midnightblue" stroke="midnightblue" points="246.514,-250.905 238.7,-243.751 240.347,-254.217 246.514,-250.905"/>
</g>
<!-- Node9&#45;&gt;Node4 -->
<g id="edge9" class="edge"><title>Node9&#45;&gt;Node4</title>
<path fill="none" stroke="midnightblue" d="M895.929,-224.451C936.311,-216.121 999.354,-202.861 1063.75,-187.992"/>
<polygon fill="midnightblue" stroke="midnightblue" points="1064.73,-191.359 1073.68,-185.69 1063.15,-184.54 1064.73,-191.359"/>
</g>
<!-- Node9&#45;&gt;Node10 -->
<g id="edge10" class="edge"><title>Node9&#45;&gt;Node10</title>
<path fill="none" stroke="midnightblue" d="M896.58,-226.486C967.104,-215.698 1106.83,-194.324 1172,-184.354"/>
<polygon fill="midnightblue" stroke="midnightblue" points="1172.81,-187.771 1182.17,-182.799 1171.75,-180.851 1172.81,-187.771"/>
</g>
<!-- Node11 -->
<g id="node11" class="node"><title>Node11</title>
<polygon fill="none" stroke="#bfbfbf" points="572.5,-168.5 572.5,-187.5 697.5,-187.5 697.5,-168.5 572.5,-168.5"/>
<text text-anchor="middle" x="635" y="-175.5" font-family="Helvetica,sans-Serif" font-size="10.00">Framework/InitContext.h</text>
</g>
<!-- Node9&#45;&gt;Node11 -->
<g id="edge11" class="edge"><title>Node9&#45;&gt;Node11</title>
<path fill="none" stroke="midnightblue" d="M819.299,-224.444C781.415,-215.102 720.651,-200.119 679.338,-189.933"/>
<polygon fill="midnightblue" stroke="midnightblue" points="680.086,-186.512 669.539,-187.516 678.41,-193.309 680.086,-186.512"/>
</g>
<!-- Node12 -->
<g id="node12" class="node"><title>Node12</title>
<polygon fill="none" stroke="#bfbfbf" points="716,-168.5 716,-187.5 876,-187.5 876,-168.5 716,-168.5"/>
<text text-anchor="middle" x="796" y="-175.5" font-family="Helvetica,sans-Serif" font-size="10.00">Framework/ProcessingContext.h</text>
</g>
<!-- Node9&#45;&gt;Node12 -->
<g id="edge12" class="edge"><title>Node9&#45;&gt;Node12</title>
<path fill="none" stroke="midnightblue" d="M844.681,-224.324C836.107,-216.341 823.188,-204.313 812.812,-194.653"/>
<polygon fill="midnightblue" stroke="midnightblue" points="815.192,-192.086 805.488,-187.834 810.422,-197.21 815.192,-192.086"/>
</g>
<!-- Node13 -->
<g id="node13" class="node"><title>Node13</title>
<g id="a_node13"><a xlink:href="Activity_8h.html" target="_top" xlink:title="QualityControl/Activity.h">
<polygon fill="none" stroke="black" points="431.5,-168.5 431.5,-187.5 554.5,-187.5 554.5,-168.5 431.5,-168.5"/>
<text text-anchor="middle" x="493" y="-175.5" font-family="Helvetica,sans-Serif" font-size="10.00">QualityControl/Activity.h</text>
</a>
</g>
</g>
<!-- Node9&#45;&gt;Node13 -->
<g id="edge13" class="edge"><title>Node9&#45;&gt;Node13</title>
<path fill="none" stroke="midnightblue" d="M811.171,-226.593C749.095,-217.308 633.535,-200.022 560.089,-189.035"/>
<polygon fill="midnightblue" stroke="midnightblue" points="560.423,-185.547 550.015,-187.529 559.387,-192.469 560.423,-185.547"/>
</g>
<!-- Node14 -->
<g id="node14" class="node"><title>Node14</title>
<g id="a_node14"><a xlink:href="ObjectsManager_8h.html" target="_top" xlink:title="QualityControl/ObjectsManager.h">
<polygon fill="none" stroke="black" points="894.5,-168.5 894.5,-187.5 1055.5,-187.5 1055.5,-168.5 894.5,-168.5"/>
<text text-anchor="middle" x="975" y="-175.5" font-family="Helvetica,sans-Serif" font-size="10.00">QualityControl/ObjectsManager.h</text>
</a>
</g>
</g>
<!-- Node9&#45;&gt;Node14 -->
<g id="edge14" class="edge"><title>Node9&#45;&gt;Node14</title>
<path fill="none" stroke="midnightblue" d="M873.173,-224.444C892.909,-215.636 923.885,-201.812 946.493,-191.722"/>
<polygon fill="midnightblue" stroke="midnightblue" points="948.211,-194.788 955.917,-187.516 945.359,-188.396 948.211,-194.788"/>
</g>
<!-- Node15 -->
<g id="node15" class="node"><title>Node15</title>
<g id="a_node15"><a xlink:href="MonitorObject_8h.html" target="_top" xlink:title="QualityControl/MonitorObject.h">
<polygon fill="none" stroke="black" points="652.5,-112.5 652.5,-131.5 803.5,-131.5 803.5,-112.5 652.5,-112.5"/>
<text text-anchor="middle" x="728" y="-119.5" font-family="Helvetica,sans-Serif" font-size="10.00">QualityControl/MonitorObject.h</text>
</a>
</g>
</g>
<!-- Node14&#45;&gt;Node15 -->
<g id="edge15" class="edge"><title>Node14&#45;&gt;Node15</title>
<path fill="none" stroke="midnightblue" d="M935.862,-168.444C892.774,-159.023 823.441,-143.866 776.829,-133.675"/>
<polygon fill="midnightblue" stroke="midnightblue" points="777.472,-130.233 766.955,-131.516 775.976,-137.072 777.472,-130.233"/>
</g>
<!-- Node19 -->
<g id="node19" class="node"><title>Node19</title>
<g id="a_node19"><a xlink:href="Quality_8h.html" target="_top" xlink:title="QualityControl/Quality.h">
<polygon fill="none" stroke="black" points="771.5,-56.5 771.5,-75.5 892.5,-75.5 892.5,-56.5 771.5,-56.5"/>
<text text-anchor="middle" x="832" y="-63.5" font-family="Helvetica,sans-Serif" font-size="10.00">QualityControl/Quality.h</text>
</a>
</g>
</g>
<!-- Node14&#45;&gt;Node19 -->
<g id="edge24" class="edge"><title>Node14&#45;&gt;Node19</title>
<path fill="none" stroke="midnightblue" d="M919.672,-168.481C895.64,-162.142 868.942,-151.123 851,-132 839.321,-119.551 834.778,-100.316 833.033,-85.9959"/>
<polygon fill="midnightblue" stroke="midnightblue" points="836.499,-85.4503 832.151,-75.7889 829.525,-86.0531 836.499,-85.4503"/>
</g>
<!-- Node21 -->
<g id="node21" class="node"><title>Node21</title>
<polygon fill="none" stroke="#bfbfbf" points="1026.5,-0.5 1026.5,-19.5 1067.5,-19.5 1067.5,-0.5 1026.5,-0.5"/>
<text text-anchor="middle" x="1047" y="-7.5" font-family="Helvetica,sans-Serif" font-size="10.00">string</text>
</g>
<!-- Node14&#45;&gt;Node21 -->
<g id="edge30" class="edge"><title>Node14&#45;&gt;Node21</title>
<path fill="none" stroke="midnightblue" d="M989.861,-168.28C1001.9,-160.388 1018.25,-147.624 1027,-132 1045.24,-99.4463 1047.88,-54.7597 1047.73,-29.8067"/>
<polygon fill="midnightblue" stroke="midnightblue" points="1051.22,-29.4817 1047.5,-19.5626 1044.22,-29.6385 1051.22,-29.4817"/>
</g>
<!-- Node14&#45;&gt;Node22 -->
<g id="edge25" class="edge"><title>Node14&#45;&gt;Node22</title>
<path fill="none" stroke="midnightblue" d="M1001.94,-168.444C1030.66,-159.32 1076.33,-144.813 1108.32,-134.651"/>
<polygon fill="midnightblue" stroke="midnightblue" points="1109.72,-137.88 1118.19,-131.516 1107.6,-131.208 1109.72,-137.88"/>
</g>
<!-- Node23 -->
<g id="node23" class="node"><title>Node23</title>
<polygon fill="none" stroke="#bfbfbf" points="860.5,-112.5 860.5,-131.5 929.5,-131.5 929.5,-112.5 860.5,-112.5"/>
<text text-anchor="middle" x="895" y="-119.5" font-family="Helvetica,sans-Serif" font-size="10.00">TObjArray.h</text>
</g>
<!-- Node14&#45;&gt;Node23 -->
<g id="edge27" class="edge"><title>Node14&#45;&gt;Node23</title>
<path fill="none" stroke="midnightblue" d="M962.147,-168.324C949.784,-159.979 930.87,-147.212 916.263,-137.352"/>
<polygon fill="midnightblue" stroke="midnightblue" points="918.068,-134.348 907.821,-131.655 914.152,-140.15 918.068,-134.348"/>
</g>
<!-- Node24 -->
<g id="node24" class="node"><title>Node24</title>
<polygon fill="none" stroke="#bfbfbf" points="947.5,-112.5 947.5,-131.5 1018.5,-131.5 1018.5,-112.5 947.5,-112.5"/>
<text text-anchor="middle" x="983" y="-119.5" font-family="Helvetica,sans-Serif" font-size="10.00">TObjString.h</text>
</g>
<!-- Node14&#45;&gt;Node24 -->
<g id="edge28" class="edge"><title>Node14&#45;&gt;Node24</title>
<path fill="none" stroke="midnightblue" d="M976.321,-168.083C977.381,-160.927 978.906,-150.635 980.231,-141.691"/>
<polygon fill="midnightblue" stroke="midnightblue" points="983.7,-142.156 981.704,-131.751 976.776,-141.13 983.7,-142.156"/>
</g>
<!-- Node25 -->
<g id="node25" class="node"><title>Node25</title>
<polygon fill="none" stroke="#bfbfbf" points="506,-112.5 506,-131.5 634,-131.5 634,-112.5 506,-112.5"/>
<text text-anchor="middle" x="570" y="-119.5" font-family="Helvetica,sans-Serif" font-size="10.00">boost/concept_check.hpp</text>
</g>
<!-- Node14&#45;&gt;Node25 -->
<g id="edge29" class="edge"><title>Node14&#45;&gt;Node25</title>
<path fill="none" stroke="midnightblue" d="M910.827,-168.444C838.25,-158.767 720.264,-143.035 643.899,-132.853"/>
<polygon fill="midnightblue" stroke="midnightblue" points="644.248,-129.369 633.873,-131.516 643.323,-136.307 644.248,-129.369"/>
</g>
<!-- Node15&#45;&gt;Node3 -->
<g id="edge16" class="edge"><title>Node15&#45;&gt;Node3</title>
<path fill="none" stroke="midnightblue" d="M667.471,-112.444C587.593,-101.152 449.398,-81.6164 383.307,-72.2737"/>
<polygon fill="midnightblue" stroke="midnightblue" points="383.73,-68.7988 373.338,-70.8646 382.75,-75.7299 383.73,-68.7988"/>
</g>
<!-- Node16 -->
<g id="node16" class="node"><title>Node16</title>
<polygon fill="none" stroke="#bfbfbf" points="718.5,-56.5 718.5,-75.5 753.5,-75.5 753.5,-56.5 718.5,-56.5"/>
<text text-anchor="middle" x="736" y="-63.5" font-family="Helvetica,sans-Serif" font-size="10.00">map</text>
</g>
<!-- Node15&#45;&gt;Node16 -->
<g id="edge17" class="edge"><title>Node15&#45;&gt;Node16</title>
<path fill="none" stroke="midnightblue" d="M729.321,-112.083C730.381,-104.927 731.906,-94.6353 733.231,-85.6911"/>
<polygon fill="midnightblue" stroke="midnightblue" points="736.7,-86.1561 734.704,-75.7511 729.776,-85.1302 736.7,-86.1561"/>
</g>
<!-- Node17 -->
<g id="node17" class="node"><title>Node17</title>
<polygon fill="none" stroke="#bfbfbf" points="694.5,-0.5 694.5,-19.5 753.5,-19.5 753.5,-0.5 694.5,-0.5"/>
<text text-anchor="middle" x="724" y="-7.5" font-family="Helvetica,sans-Serif" font-size="10.00">TObject.h</text>
</g>
<!-- Node15&#45;&gt;Node17 -->
<g id="edge18" class="edge"><title>Node15&#45;&gt;Node17</title>
<path fill="none" stroke="midnightblue" d="M723.124,-112.372C718.441,-103.552 711.692,-89.2987 709,-76 705.772,-60.0572 710.601,-42.0425 715.618,-29.0284"/>
<polygon fill="midnightblue" stroke="midnightblue" points="718.85,-30.3714 719.532,-19.7985 712.406,-27.6389 718.85,-30.3714"/>
</g>
<!-- Node15&#45;&gt;Node18 -->
<g id="edge19" class="edge"><title>Node15&#45;&gt;Node18</title>
<path fill="none" stroke="midnightblue" d="M694.566,-112.444C658.144,-103.122 599.77,-88.1828 559.971,-77.9972"/>
<polygon fill="midnightblue" stroke="midnightblue" points="560.833,-74.6051 550.277,-75.5164 559.097,-81.3866 560.833,-74.6051"/>
</g>
<!-- Node15&#45;&gt;Node19 -->
<g id="edge20" class="edge"><title>Node15&#45;&gt;Node19</title>
<path fill="none" stroke="midnightblue" d="M744.709,-112.324C761.312,-103.703 787.002,-90.3643 806.22,-80.3855"/>
<polygon fill="midnightblue" stroke="midnightblue" points="808.07,-83.3689 815.332,-75.6545 804.844,-77.1565 808.07,-83.3689"/>
</g>
<!-- Node19&#45;&gt;Node17 -->
<g id="edge21" class="edge"><title>Node19&#45;&gt;Node17</title>
<path fill="none" stroke="midnightblue" d="M814.648,-56.324C797.328,-47.6641 770.485,-34.2424 750.498,-24.249"/>
<polygon fill="midnightblue" stroke="midnightblue" points="751.819,-20.9962 741.309,-19.6545 748.688,-27.2572 751.819,-20.9962"/>
</g>
<!-- Node20 -->
<g id="node20" class="node"><title>Node20</title>
<polygon fill="none" stroke="#bfbfbf" points="806,-0.5 806,-19.5 858,-19.5 858,-0.5 806,-0.5"/>
<text text-anchor="middle" x="832" y="-7.5" font-family="Helvetica,sans-Serif" font-size="10.00">ostream</text>
</g>
<!-- Node19&#45;&gt;Node20 -->
<g id="edge22" class="edge"><title>Node19&#45;&gt;Node20</title>
<path fill="none" stroke="midnightblue" d="M832,-56.083C832,-49.0059 832,-38.8611 832,-29.9865"/>
<polygon fill="midnightblue" stroke="midnightblue" points="835.5,-29.751 832,-19.7511 828.5,-29.7511 835.5,-29.751"/>
</g>
<!-- Node19&#45;&gt;Node21 -->
<g id="edge23" class="edge"><title>Node19&#45;&gt;Node21</title>
<path fill="none" stroke="midnightblue" d="M866.067,-56.4435C907.48,-46.0423 976.742,-28.6462 1016.48,-18.6651"/>
<polygon fill="midnightblue" stroke="midnightblue" points="1017.54,-22.0078 1026.39,-16.1772 1015.84,-15.2186 1017.54,-22.0078"/>
</g>
<!-- Node22&#45;&gt;Node21 -->
<g id="edge26" class="edge"><title>Node22&#45;&gt;Node21</title>
<path fill="none" stroke="midnightblue" d="M1137.31,-112.368C1120.99,-94.0547 1082.68,-51.0489 1061.58,-27.3624"/>
<polygon fill="midnightblue" stroke="midnightblue" points="1063.92,-24.7298 1054.65,-19.5914 1058.69,-29.3863 1063.92,-24.7298"/>
</g>
</g>
</svg>
