<?xml version="1.0" encoding="UTF-8" standalone="no"?>
<!DOCTYPE svg PUBLIC "-//W3C//DTD SVG 1.1//EN"
 "http://www.w3.org/Graphics/SVG/1.1/DTD/svg11.dtd">
<!-- Generated by graphviz version 2.38.0 (20140413.2041)
 -->
<!-- Title: Framework/test/testQcInfoLogger.cxx Pages: 1 -->
<svg width="837pt" height="386pt"
 viewBox="0.00 0.00 836.50 386.00" xmlns="http://www.w3.org/2000/svg" xmlns:xlink="http://www.w3.org/1999/xlink">
<g id="graph0" class="graph" transform="scale(1 1) rotate(0) translate(4 382)">
<title>Framework/test/testQcInfoLogger.cxx</title>
<!-- Node1 -->
<g id="node1" class="node"><title>Node1</title>
<polygon fill="#bfbfbf" stroke="black" points="273,-347.5 273,-377.5 407,-377.5 407,-347.5 273,-347.5"/>
<text text-anchor="start" x="281" y="-365.5" font-family="Helvetica,sans-Serif" font-size="10.00">Framework/test/testQcInfo</text>
<text text-anchor="middle" x="340" y="-354.5" font-family="Helvetica,sans-Serif" font-size="10.00">Logger.cxx</text>
</g>
<!-- Node2 -->
<g id="node2" class="node"><title>Node2</title>
<g id="a_node2"><a xlink:href="QcInfoLogger_8h.html" target="_top" xlink:title="../include/QualityControl\l/QcInfoLogger.h">
<polygon fill="none" stroke="black" points="208,-280.5 208,-310.5 330,-310.5 330,-280.5 208,-280.5"/>
<text text-anchor="start" x="216" y="-298.5" font-family="Helvetica,sans-Serif" font-size="10.00">../include/QualityControl</text>
<text text-anchor="middle" x="269" y="-287.5" font-family="Helvetica,sans-Serif" font-size="10.00">/QcInfoLogger.h</text>
</a>
</g>
</g>
<!-- Node1&#45;&gt;Node2 -->
<g id="edge1" class="edge"><title>Node1&#45;&gt;Node2</title>
<path fill="none" stroke="midnightblue" d="M324.594,-347.396C315.011,-338.623 302.515,-327.183 291.798,-317.371"/>
<polygon fill="midnightblue" stroke="midnightblue" points="294.115,-314.748 284.376,-310.577 289.388,-319.911 294.115,-314.748"/>
</g>
<!-- Node5 -->
<g id="node5" class="node"><title>Node5</title>
<polygon fill="none" stroke="#bfbfbf" points="779.5,-168.5 779.5,-187.5 828.5,-187.5 828.5,-168.5 779.5,-168.5"/>
<text text-anchor="middle" x="804" y="-175.5" font-family="Helvetica,sans-Serif" font-size="10.00">cassert</text>
</g>
<!-- Node1&#45;&gt;Node5 -->
<g id="edge28" class="edge"><title>Node1&#45;&gt;Node5</title>
<path fill="none" stroke="midnightblue" d="M352.046,-347.191C368.184,-328.931 398.569,-297.608 431,-280 434.823,-277.924 677.511,-212.856 769.325,-188.277"/>
<polygon fill="midnightblue" stroke="midnightblue" points="770.49,-191.589 779.245,-185.622 768.68,-184.827 770.49,-191.589"/>
</g>
<!-- Node11 -->
<g id="node11" class="node"><title>Node11</title>
<polygon fill="none" stroke="#bfbfbf" points="11,-56.5 11,-75.5 65,-75.5 65,-56.5 11,-56.5"/>
<text text-anchor="middle" x="38" y="-63.5" font-family="Helvetica,sans-Serif" font-size="10.00">iostream</text>
</g>
<!-- Node1&#45;&gt;Node11 -->
<g id="edge29" class="edge"><title>Node1&#45;&gt;Node11</title>
<path fill="none" stroke="midnightblue" d="M272.827,-350.565C173.741,-332.507 0,-292.628 0,-235 0,-235 0,-235 0,-177 0,-142.813 16.6005,-105.764 27.8573,-84.5707"/>
<polygon fill="midnightblue" stroke="midnightblue" points="30.9473,-86.2151 32.7163,-75.769 24.8191,-82.832 30.9473,-86.2151"/>
</g>
<!-- Node23 -->
<g id="node23" class="node"><title>Node23</title>
<polygon fill="none" stroke="#bfbfbf" points="440.5,-286 440.5,-305 559.5,-305 559.5,-286 440.5,-286"/>
<text text-anchor="middle" x="500" y="-293" font-family="Helvetica,sans-Serif" font-size="10.00">boost/test/unit_test.hpp</text>
</g>
<!-- Node1&#45;&gt;Node23 -->
<g id="edge27" class="edge"><title>Node1&#45;&gt;Node23</title>
<path fill="none" stroke="midnightblue" d="M374.718,-347.396C403.04,-335.89 442.653,-319.797 469.705,-308.807"/>
<polygon fill="midnightblue" stroke="midnightblue" points="471.112,-312.013 479.06,-305.007 468.478,-305.528 471.112,-312.013"/>
</g>
<!-- Node3 -->
<g id="node3" class="node"><title>Node3</title>
<g id="a_node3"><a xlink:href="TaskInterface_8h.html" target="_top" xlink:title="TaskInterface.h">
<polygon fill="none" stroke="black" points="298.5,-224.5 298.5,-243.5 383.5,-243.5 383.5,-224.5 298.5,-224.5"/>
<text text-anchor="middle" x="341" y="-231.5" font-family="Helvetica,sans-Serif" font-size="10.00">TaskInterface.h</text>
</a>
</g>
</g>
<!-- Node2&#45;&gt;Node3 -->
<g id="edge2" class="edge"><title>Node2&#45;&gt;Node3</title>
<path fill="none" stroke="midnightblue" d="M286.063,-280.399C297.065,-271.308 311.365,-259.49 322.618,-250.191"/>
<polygon fill="midnightblue" stroke="midnightblue" points="325.044,-252.726 330.523,-243.658 320.585,-247.33 325.044,-252.726"/>
</g>
<!-- Node2&#45;&gt;Node11 -->
<g id="edge26" class="edge"><title>Node2&#45;&gt;Node11</title>
<path fill="none" stroke="midnightblue" d="M207.686,-281.749C157.81,-267.843 90.4134,-240.213 57,-188 36.8226,-156.47 35.4108,-111.087 36.4974,-85.8119"/>
<polygon fill="midnightblue" stroke="midnightblue" points="39.9966,-85.9313 37.114,-75.7362 33.0096,-85.5037 39.9966,-85.9313"/>
</g>
<!-- Node22 -->
<g id="node22" class="node"><title>Node22</title>
<polygon fill="none" stroke="#bfbfbf" points="150,-224.5 150,-243.5 280,-243.5 280,-224.5 150,-224.5"/>
<text text-anchor="middle" x="215" y="-231.5" font-family="Helvetica,sans-Serif" font-size="10.00">InfoLogger/InfoLogger.hxx</text>
</g>
<!-- Node2&#45;&gt;Node22 -->
<g id="edge25" class="edge"><title>Node2&#45;&gt;Node22</title>
<path fill="none" stroke="midnightblue" d="M256.203,-280.399C248.275,-271.664 238.064,-260.413 229.79,-251.296"/>
<polygon fill="midnightblue" stroke="midnightblue" points="232.17,-248.711 222.857,-243.658 226.986,-253.415 232.17,-248.711"/>
</g>
<!-- Node4 -->
<g id="node4" class="node"><title>Node4</title>
<polygon fill="none" stroke="#bfbfbf" points="208,-168.5 208,-187.5 260,-187.5 260,-168.5 208,-168.5"/>
<text text-anchor="middle" x="234" y="-175.5" font-family="Helvetica,sans-Serif" font-size="10.00">memory</text>
</g>
<!-- Node3&#45;&gt;Node4 -->
<g id="edge3" class="edge"><title>Node3&#45;&gt;Node4</title>
<path fill="none" stroke="midnightblue" d="M323.809,-224.324C306.649,-215.664 280.054,-202.242 260.253,-192.249"/>
<polygon fill="midnightblue" stroke="midnightblue" points="261.653,-189.035 251.149,-187.655 258.499,-195.285 261.653,-189.035"/>
</g>
<!-- Node3&#45;&gt;Node5 -->
<g id="edge4" class="edge"><title>Node3&#45;&gt;Node5</title>
<path fill="none" stroke="midnightblue" d="M383.602,-225.987C388.452,-225.274 393.329,-224.594 398,-224 559.559,-203.447 604.753,-216.804 769.248,-187.838"/>
<polygon fill="midnightblue" stroke="midnightblue" points="769.993,-191.261 779.222,-186.056 768.762,-184.37 769.993,-191.261"/>
</g>
<!-- Node6 -->
<g id="node6" class="node"><title>Node6</title>
<polygon fill="none" stroke="#bfbfbf" points="278.5,-168.5 278.5,-187.5 403.5,-187.5 403.5,-168.5 278.5,-168.5"/>
<text text-anchor="middle" x="341" y="-175.5" font-family="Helvetica,sans-Serif" font-size="10.00">Framework/InitContext.h</text>
</g>
<!-- Node3&#45;&gt;Node6 -->
<g id="edge5" class="edge"><title>Node3&#45;&gt;Node6</title>
<path fill="none" stroke="midnightblue" d="M341,-224.083C341,-217.006 341,-206.861 341,-197.986"/>
<polygon fill="midnightblue" stroke="midnightblue" points="344.5,-197.751 341,-187.751 337.5,-197.751 344.5,-197.751"/>
</g>
<!-- Node7 -->
<g id="node7" class="node"><title>Node7</title>
<polygon fill="none" stroke="#bfbfbf" points="422,-168.5 422,-187.5 582,-187.5 582,-168.5 422,-168.5"/>
<text text-anchor="middle" x="502" y="-175.5" font-family="Helvetica,sans-Serif" font-size="10.00">Framework/ProcessingContext.h</text>
</g>
<!-- Node3&#45;&gt;Node7 -->
<g id="edge6" class="edge"><title>Node3&#45;&gt;Node7</title>
<path fill="none" stroke="midnightblue" d="M366.511,-224.444C393.596,-215.359 436.59,-200.939 466.869,-190.783"/>
<polygon fill="midnightblue" stroke="midnightblue" points="468.24,-194.015 476.608,-187.516 466.014,-187.378 468.24,-194.015"/>
</g>
<!-- Node8 -->
<g id="node8" class="node"><title>Node8</title>
<g id="a_node8"><a xlink:href="Activity_8h.html" target="_top" xlink:title="QualityControl/Activity.h">
<polygon fill="none" stroke="black" points="66.5,-168.5 66.5,-187.5 189.5,-187.5 189.5,-168.5 66.5,-168.5"/>
<text text-anchor="middle" x="128" y="-175.5" font-family="Helvetica,sans-Serif" font-size="10.00">QualityControl/Activity.h</text>
</a>
</g>
</g>
<!-- Node3&#45;&gt;Node8 -->
<g id="edge7" class="edge"><title>Node3&#45;&gt;Node8</title>
<path fill="none" stroke="midnightblue" d="M307.25,-224.444C270.482,-215.122 211.554,-200.183 171.378,-189.997"/>
<polygon fill="midnightblue" stroke="midnightblue" points="172.146,-186.581 161.593,-187.516 170.426,-193.367 172.146,-186.581"/>
</g>
<!-- Node9 -->
<g id="node9" class="node"><title>Node9</title>
<g id="a_node9"><a xlink:href="ObjectsManager_8h.html" target="_top" xlink:title="QualityControl/ObjectsManager.h">
<polygon fill="none" stroke="black" points="600.5,-168.5 600.5,-187.5 761.5,-187.5 761.5,-168.5 600.5,-168.5"/>
<text text-anchor="middle" x="681" y="-175.5" font-family="Helvetica,sans-Serif" font-size="10.00">QualityControl/ObjectsManager.h</text>
</a>
</g>
</g>
<!-- Node3&#45;&gt;Node9 -->
<g id="edge8" class="edge"><title>Node3&#45;&gt;Node9</title>
<path fill="none" stroke="midnightblue" d="M383.717,-226.216C442.499,-216.88 548.788,-199.998 617.064,-189.154"/>
<polygon fill="midnightblue" stroke="midnightblue" points="617.94,-192.559 627.267,-187.534 616.842,-185.646 617.94,-192.559"/>
</g>
<!-- Node10 -->
<g id="node10" class="node"><title>Node10</title>
<g id="a_node10"><a xlink:href="MonitorObject_8h.html" target="_top" xlink:title="QualityControl/MonitorObject.h">
<polygon fill="none" stroke="black" points="247.5,-112.5 247.5,-131.5 398.5,-131.5 398.5,-112.5 247.5,-112.5"/>
<text text-anchor="middle" x="323" y="-119.5" font-family="Helvetica,sans-Serif" font-size="10.00">QualityControl/MonitorObject.h</text>
</a>
</g>
</g>
<!-- Node9&#45;&gt;Node10 -->
<g id="edge9" class="edge"><title>Node9&#45;&gt;Node10</title>
<path fill="none" stroke="midnightblue" d="M624.274,-168.444C560.512,-158.826 457.101,-143.228 389.567,-133.041"/>
<polygon fill="midnightblue" stroke="midnightblue" points="389.871,-129.547 379.461,-131.516 388.827,-136.469 389.871,-129.547"/>
</g>
<!-- Node15 -->
<g id="node15" class="node"><title>Node15</title>
<g id="a_node15"><a xlink:href="Quality_8h.html" target="_top" xlink:title="QualityControl/Quality.h">
<polygon fill="none" stroke="black" points="490.5,-56.5 490.5,-75.5 611.5,-75.5 611.5,-56.5 490.5,-56.5"/>
<text text-anchor="middle" x="551" y="-63.5" font-family="Helvetica,sans-Serif" font-size="10.00">QualityControl/Quality.h</text>
</a>
</g>
</g>
<!-- Node9&#45;&gt;Node15 -->
<g id="edge18" class="edge"><title>Node9&#45;&gt;Node15</title>
<path fill="none" stroke="midnightblue" d="M677.856,-168.351C672.545,-154.785 660.626,-128.365 643,-112 627.389,-97.5047 606.238,-86.7207 588.153,-79.3492"/>
<polygon fill="midnightblue" stroke="midnightblue" points="589.065,-75.9491 578.476,-75.603 586.538,-82.4771 589.065,-75.9491"/>
</g>
<!-- Node17 -->
<g id="node17" class="node"><title>Node17</title>
<polygon fill="none" stroke="#bfbfbf" points="679.5,-0.5 679.5,-19.5 720.5,-19.5 720.5,-0.5 679.5,-0.5"/>
<text text-anchor="middle" x="700" y="-7.5" font-family="Helvetica,sans-Serif" font-size="10.00">string</text>
</g>
<!-- Node9&#45;&gt;Node17 -->
<g id="edge24" class="edge"><title>Node9&#45;&gt;Node17</title>
<path fill="none" stroke="midnightblue" d="M748.25,-168.447C770.322,-162.084 792.605,-151.059 806,-132 822.615,-108.36 790.786,-68.623 779,-56 765.53,-41.5734 746.37,-30.5037 730.292,-22.9536"/>
<polygon fill="midnightblue" stroke="midnightblue" points="731.318,-19.5789 720.759,-18.7088 728.471,-25.9737 731.318,-19.5789"/>
</g>
<!-- Node18 -->
<g id="node18" class="node"><title>Node18</title>
<g id="a_node18"><a xlink:href="TaskConfig_8h.html" target="_top" xlink:title="QualityControl/TaskConfig.h">
<polygon fill="none" stroke="black" points="630,-56.5 630,-75.5 770,-75.5 770,-56.5 630,-56.5"/>
<text text-anchor="middle" x="700" y="-63.5" font-family="Helvetica,sans-Serif" font-size="10.00">QualityControl/TaskConfig.h</text>
</a>
</g>
</g>
<!-- Node9&#45;&gt;Node18 -->
<g id="edge19" class="edge"><title>Node9&#45;&gt;Node18</title>
<path fill="none" stroke="midnightblue" d="M682.491,-168.368C685.557,-150.617 692.63,-109.666 696.788,-85.5974"/>
<polygon fill="midnightblue" stroke="midnightblue" points="700.263,-86.0413 698.516,-75.5914 693.365,-84.8498 700.263,-86.0413"/>
</g>
<!-- Node19 -->
<g id="node19" class="node"><title>Node19</title>
<polygon fill="none" stroke="#bfbfbf" points="728.5,-112.5 728.5,-131.5 797.5,-131.5 797.5,-112.5 728.5,-112.5"/>
<text text-anchor="middle" x="763" y="-119.5" font-family="Helvetica,sans-Serif" font-size="10.00">TObjArray.h</text>
</g>
<!-- Node9&#45;&gt;Node19 -->
<g id="edge21" class="edge"><title>Node9&#45;&gt;Node19</title>
<path fill="none" stroke="midnightblue" d="M694.175,-168.324C706.847,-159.979 726.233,-147.212 741.206,-137.352"/>
<polygon fill="midnightblue" stroke="midnightblue" points="743.431,-140.078 749.858,-131.655 739.581,-134.231 743.431,-140.078"/>
</g>
<!-- Node20 -->
<g id="node20" class="node"><title>Node20</title>
<polygon fill="none" stroke="#bfbfbf" points="416.5,-112.5 416.5,-131.5 487.5,-131.5 487.5,-112.5 416.5,-112.5"/>
<text text-anchor="middle" x="452" y="-119.5" font-family="Helvetica,sans-Serif" font-size="10.00">TObjString.h</text>
</g>
<!-- Node9&#45;&gt;Node20 -->
<g id="edge22" class="edge"><title>Node9&#45;&gt;Node20</title>
<path fill="none" stroke="midnightblue" d="M644.714,-168.444C604.9,-159.055 540.918,-143.968 497.708,-133.778"/>
<polygon fill="midnightblue" stroke="midnightblue" points="498.275,-130.316 487.739,-131.428 496.669,-137.129 498.275,-130.316"/>
</g>
<!-- Node21 -->
<g id="node21" class="node"><title>Node21</title>
<polygon fill="none" stroke="#bfbfbf" points="506,-112.5 506,-131.5 634,-131.5 634,-112.5 506,-112.5"/>
<text text-anchor="middle" x="570" y="-119.5" font-family="Helvetica,sans-Serif" font-size="10.00">boost/concept_check.hpp</text>
</g>
<!-- Node9&#45;&gt;Node21 -->
<g id="edge23" class="edge"><title>Node9&#45;&gt;Node21</title>
<path fill="none" stroke="midnightblue" d="M663.166,-168.324C645.284,-159.625 617.525,-146.12 596.954,-136.113"/>
<polygon fill="midnightblue" stroke="midnightblue" points="598.313,-132.882 587.79,-131.655 595.251,-139.177 598.313,-132.882"/>
</g>
<!-- Node10&#45;&gt;Node11 -->
<g id="edge10" class="edge"><title>Node10&#45;&gt;Node11</title>
<path fill="none" stroke="midnightblue" d="M277.841,-112.444C221.894,-101.843 127.603,-83.9774 75.4718,-74.0999"/>
<polygon fill="midnightblue" stroke="midnightblue" points="75.8008,-70.6 65.324,-72.1772 74.4976,-77.4777 75.8008,-70.6"/>
</g>
<!-- Node12 -->
<g id="node12" class="node"><title>Node12</title>
<polygon fill="none" stroke="#bfbfbf" points="394.5,-56.5 394.5,-75.5 429.5,-75.5 429.5,-56.5 394.5,-56.5"/>
<text text-anchor="middle" x="412" y="-63.5" font-family="Helvetica,sans-Serif" font-size="10.00">map</text>
</g>
<!-- Node10&#45;&gt;Node12 -->
<g id="edge11" class="edge"><title>Node10&#45;&gt;Node12</title>
<path fill="none" stroke="midnightblue" d="M337.299,-112.324C351.183,-103.9 372.492,-90.9709 388.804,-81.0741"/>
<polygon fill="midnightblue" stroke="midnightblue" points="391.002,-83.8341 397.736,-75.6545 387.371,-77.8495 391.002,-83.8341"/>
</g>
<!-- Node13 -->
<g id="node13" class="node"><title>Node13</title>
<polygon fill="none" stroke="#bfbfbf" points="392.5,-0.5 392.5,-19.5 451.5,-19.5 451.5,-0.5 392.5,-0.5"/>
<text text-anchor="middle" x="422" y="-7.5" font-family="Helvetica,sans-Serif" font-size="10.00">TObject.h</text>
</g>
<!-- Node10&#45;&gt;Node13 -->
<g id="edge12" class="edge"><title>Node10&#45;&gt;Node13</title>
<path fill="none" stroke="midnightblue" d="M330.768,-112.368C347.323,-93.9744 386.296,-50.6712 407.553,-27.0519"/>
<polygon fill="midnightblue" stroke="midnightblue" points="410.18,-29.3658 414.268,-19.5914 404.977,-24.683 410.18,-29.3658"/>
</g>
<!-- Node14 -->
<g id="node14" class="node"><title>Node14</title>
<polygon fill="none" stroke="#bfbfbf" points="222,-56.5 222,-75.5 338,-75.5 338,-56.5 222,-56.5"/>
<text text-anchor="middle" x="280" y="-63.5" font-family="Helvetica,sans-Serif" font-size="10.00">Common/Exceptions.h</text>
</g>
<!-- Node10&#45;&gt;Node14 -->
<g id="edge13" class="edge"><title>Node10&#45;&gt;Node14</title>
<path fill="none" stroke="midnightblue" d="M315.899,-112.083C309.763,-104.377 300.73,-93.0333 293.261,-83.6531"/>
<polygon fill="midnightblue" stroke="midnightblue" points="295.936,-81.3936 286.968,-75.7511 290.46,-85.7542 295.936,-81.3936"/>
</g>
<!-- Node10&#45;&gt;Node15 -->
<g id="edge14" class="edge"><title>Node10&#45;&gt;Node15</title>
<path fill="none" stroke="midnightblue" d="M359.127,-112.444C398.651,-103.083 462.097,-88.0561 505.113,-77.868"/>
<polygon fill="midnightblue" stroke="midnightblue" points="506.118,-81.2269 515.042,-75.5164 504.504,-74.4154 506.118,-81.2269"/>
</g>
<!-- Node15&#45;&gt;Node13 -->
<g id="edge15" class="edge"><title>Node15&#45;&gt;Node13</title>
<path fill="none" stroke="midnightblue" d="M530.56,-56.4435C509.33,-47.5566 475.901,-33.5632 451.745,-23.4514"/>
<polygon fill="midnightblue" stroke="midnightblue" points="452.921,-20.1493 442.345,-19.5164 450.218,-26.6064 452.921,-20.1493"/>
</g>
<!-- Node16 -->
<g id="node16" class="node"><title>Node16</title>
<polygon fill="none" stroke="#bfbfbf" points="525,-0.5 525,-19.5 577,-19.5 577,-0.5 525,-0.5"/>
<text text-anchor="middle" x="551" y="-7.5" font-family="Helvetica,sans-Serif" font-size="10.00">ostream</text>
</g>
<!-- Node15&#45;&gt;Node16 -->
<g id="edge16" class="edge"><title>Node15&#45;&gt;Node16</title>
<path fill="none" stroke="midnightblue" d="M551,-56.083C551,-49.0059 551,-38.8611 551,-29.9865"/>
<polygon fill="midnightblue" stroke="midnightblue" points="554.5,-29.751 551,-19.7511 547.5,-29.7511 554.5,-29.751"/>
</g>
<!-- Node15&#45;&gt;Node17 -->
<g id="edge17" class="edge"><title>Node15&#45;&gt;Node17</title>
<path fill="none" stroke="midnightblue" d="M574.609,-56.4435C600.335,-47.1203 641.568,-32.1768 669.673,-21.9911"/>
<polygon fill="midnightblue" stroke="midnightblue" points="671.171,-25.1709 679.38,-18.473 668.786,-18.5898 671.171,-25.1709"/>
</g>
<!-- Node18&#45;&gt;Node17 -->
<g id="edge20" class="edge"><title>Node18&#45;&gt;Node17</title>
<path fill="none" stroke="midnightblue" d="M700,-56.083C700,-49.0059 700,-38.8611 700,-29.9865"/>
<polygon fill="midnightblue" stroke="midnightblue" points="703.5,-29.751 700,-19.7511 696.5,-29.7511 703.5,-29.751"/>
</g>
</g>
</svg>
